

<!-- Creator: CorelDRAW X6 -->
<svg xmlns="http://www.w3.org/2000/svg" x="0" y="0" xml:space="preserve" width="27mm" height="25mm" version="1.1" shape-rendering="geometricPrecision" text-rendering="geometricPrecision" image-rendering="optimizeQuality" fill-rule="evenodd" clip-rule="evenodd"
viewBox="0 0 2700 2500"
 xmlns:xlink="http://www.w3.org/1999/xlink"
 enable-background="new 0 0 600 785.8">
 <g id="Layer_x0020_1">
  <metadata id="CorelCorpID_0Corel-Layer"/>
 </g>
 <g id="Layer_x0020_1_0">
  <metadata id="CorelCorpID_1Corel-Layer"/>
 </g>
 <g id="Layer_x0020_1_0_1">
  <metadata id="CorelCorpID_2Corel-Layer"/>
 </g>
 <g id="Layer_x0020_1_0_2">
  <metadata id="CorelCorpID_3Corel-Layer"/>
 </g>
 <g id="Layer_x0020_1_3">
  <metadata id="CorelCorpID_4Corel-Layer"/>
 </g>
 <g id="Layer_x0020_1_0_4">
  <metadata id="CorelCorpID_5Corel-Layer"/>
 </g>
 <g id="Layer_x0020_1_0_5">
  <metadata id="CorelCorpID_6Corel-Layer"/>
 </g>
 <g id="Layer_x0020_1_0_6">
  <metadata id="CorelCorpID_7Corel-Layer"/>
 </g>
 <g id="Layer_x0020_1_0_7">
  <metadata id="CorelCorpID_8Corel-Layer"/>
 </g>
 <g id="Layer_x0020_1_0_2_8">
  <metadata id="CorelCorpID_9Corel-Layer"/>
 </g>
 <g id="Layer_x0020_1_0_2_8_9">
  <metadata id="CorelCorpID_10Corel-Layer"/>
 </g>
 <g id="Layer_x0020_1_0_10">
  <metadata id="CorelCorpID_11Corel-Layer"/>
 </g>
 <g id="Layer_x0020_1_1">
  <metadata id="CorelCorpID_12Corel-Layer"/>
 </g>
 <g id="Layer_x0020_1_11">
  <metadata id="CorelCorpID_13Corel-Layer"/>
 </g>
 <g id="Layer_x0020_1_12">
  <metadata id="CorelCorpID_14Corel-Layer"/>
 </g>
 <g id="Layer_x0020_1_12">
  <metadata id="CorelCorpID_15Corel-Layer"/>
 </g>
 <g id="Layer_x0020_1_13">
  <metadata id="CorelCorpID_16Corel-Layer"/>
  <g id="_142605128">
   <path fill="#E53A34" d="M760 135c-203,0 -591,123 -600,592 -18,870 995,1513 1190,1628 196,-116 1208,-759 1190,-1628 -9,-468 -397,-592 -600,-592 -10,0 -21,0 -31,1 -361,20 -470,287 -495,368 -8,28 -35,48 -65,48 -30,0 -56,-19 -65,-48 -25,-82 -134,-348 -495,-368 -10,-1 -20,-1 -31,-1l2 0zm590 2365c-11,0 -23,-3 -33,-8 -13,-8 -331,-182 -651,-485 -429,-407 -651,-850 -643,-1283 10,-498 388,-724 736,-724 13,0 26,0 38,1 310,18 473,189 552,322 79,-133 242,-304 552,-322 13,-1 25,-1 38,-1 348,0 726,227 735,724 8,433 -213,876 -643,1283 -320,303 -638,478 -651,485 -10,6 -21,8 -33,8l1 0z"/>
   <path fill="#E53A34" d="M1350 2116c-298,-194 -1001,-725 -988,-1385 8,-382 358,-393 398,-393 7,0 13,0 19,1 185,13 277,148 326,193 62,57 169,169 231,169 73,0 186,-102 237,-163 65,-79 169,-186 348,-198 7,-1 13,-1 19,-1 40,0 390,11 398,393 13,660 -690,1191 -988,1385l0 -1z"/>
  </g>
 </g>
</svg>
