

<!-- Creator: CorelDRAW X6 -->
<svg xmlns="http://www.w3.org/2000/svg" x="0" y="0" xml:space="preserve" width="25mm" height="25mm" version="1.1" shape-rendering="geometricPrecision" text-rendering="geometricPrecision" image-rendering="optimizeQuality" fill-rule="evenodd" clip-rule="evenodd"
viewBox="0 0 2500 2500"
 xmlns:xlink="http://www.w3.org/1999/xlink"
 enable-background="new 0 0 600 785.8">
 <g id="Layer_x0020_1">
  <metadata id="CorelCorpID_0Corel-Layer"/>
 </g>
 <g id="Layer_x0020_1_0">
  <metadata id="CorelCorpID_1Corel-Layer"/>
 </g>
 <g id="Layer_x0020_1_0_1">
  <metadata id="CorelCorpID_2Corel-Layer"/>
 </g>
 <g id="Layer_x0020_1_0_2">
  <metadata id="CorelCorpID_3Corel-Layer"/>
 </g>
 <g id="Layer_x0020_1_3">
  <metadata id="CorelCorpID_4Corel-Layer"/>
 </g>
 <g id="Layer_x0020_1_0_4">
  <metadata id="CorelCorpID_5Corel-Layer"/>
 </g>
 <g id="Layer_x0020_1_0_5">
  <metadata id="CorelCorpID_6Corel-Layer"/>
 </g>
 <g id="Layer_x0020_1_0_6">
  <metadata id="CorelCorpID_7Corel-Layer"/>
 </g>
 <g id="Layer_x0020_1_0_7">
  <metadata id="CorelCorpID_8Corel-Layer"/>
 </g>
 <g id="Layer_x0020_1_0_2_8">
  <metadata id="CorelCorpID_9Corel-Layer"/>
 </g>
 <g id="Layer_x0020_1_0_2_8_9">
  <metadata id="CorelCorpID_10Corel-Layer"/>
 </g>
 <g id="Layer_x0020_1_0_10">
  <metadata id="CorelCorpID_11Corel-Layer"/>
 </g>
 <g id="Layer_x0020_1_1">
  <metadata id="CorelCorpID_12Corel-Layer"/>
 </g>
 <g id="Layer_x0020_1_11">
  <metadata id="CorelCorpID_13Corel-Layer"/>
 </g>
 <g id="Layer_x0020_1_12">
  <metadata id="CorelCorpID_14Corel-Layer"/>
 </g>
 <g id="Layer_x0020_1_12">
  <metadata id="CorelCorpID_15Corel-Layer"/>
 </g>
 <g id="Layer_x0020_1_13">
  <metadata id="CorelCorpID_16Corel-Layer"/>
 </g>
 <g id="Layer_x0020_1_13">
  <metadata id="CorelCorpID_17Corel-Layer"/>
  <g id="_577168064">
   <path fill="#F9E907" d="M2102 0c220,0 398,179 398,398l0 1704c0,220 -179,398 -398,398l-1704 0c-220,0 -398,-179 -398,-398l0 -1704c0,-220 179,-398 398,-398l1704 0z"/>
   <path fill="#FEFEFE" d="M1259 2110c-4,0 -9,0 -14,0l0 0c-3,0 -6,0 -9,0 -109,0 -179,-49 -246,-96 -46,-33 -90,-64 -142,-72 -25,-4 -50,-6 -75,-6 -44,0 -79,7 -104,12 -15,3 -29,5 -38,5 -11,0 -21,-3 -27,-19 -4,-14 -7,-29 -11,-43 -8,-35 -13,-57 -28,-59 -172,-27 -221,-63 -232,-88 -2,-4 -3,-7 -3,-11 -1,-10 6,-19 16,-21 264,-44 383,-314 388,-325 0,0 0,-1 0,-1 16,-33 20,-62 10,-85 -18,-43 -78,-62 -117,-74 -10,-3 -19,-6 -26,-9 -79,-31 -85,-63 -81,-79 5,-28 42,-46 71,-46 8,0 15,2 21,4 35,16 67,25 95,25 38,0 54,-16 56,-18 -1,-18 -2,-37 -4,-56 -8,-125 -18,-280 22,-369 119,-266 370,-287 445,-287 2,0 32,0 32,0l4 0c74,0 327,21 446,287 39,88 29,245 22,370l0 5c-1,17 -2,34 -3,51 2,2 17,17 52,18l0 0c26,-1 56,-9 88,-25 10,-4 21,-5 28,-5 11,0 22,2 32,6l1 0c27,10 44,28 45,47 0,19 -13,46 -82,73 -7,3 -16,5 -26,9 -39,13 -98,31 -117,74 -10,23 -7,52 10,85 0,0 0,1 0,1 5,12 123,282 388,325 10,2 17,11 16,21 0,4 -1,7 -3,11 -11,26 -60,62 -232,88 -14,2 -20,21 -28,59 -3,14 -6,28 -11,42 -4,13 -12,19 -25,19l-2 0c-9,0 -22,-2 -38,-4 -29,-5 -62,-11 -104,-11 -24,0 -49,2 -75,6 -52,9 -96,39 -142,72 -68,47 -138,97 -246,97l-2 -4z"/>
   <path fill="#262523" d="M1266 371l0 0c-2,0 -4,0 -4,0l0 0c0,0 -30,0 -32,0 -77,0 -338,21 -462,298 -41,93 -31,251 -23,378 1,15 2,30 3,46 -6,4 -18,8 -37,8 -24,0 -54,-8 -86,-23 -9,-4 -19,-6 -29,-6 -38,0 -84,25 -91,63 -5,27 7,66 94,101 8,3 17,6 27,9 36,12 90,29 104,63 8,18 4,41 -9,69 0,1 -1,1 -1,2 -4,11 -120,272 -373,314 -20,4 -34,21 -32,40 0,6 2,12 4,18 19,45 99,78 246,100 4,6 10,30 13,45 3,14 6,29 11,44 4,15 16,33 46,33 12,0 26,-3 42,-6 24,-4 58,-12 100,-12 23,0 47,2 71,6 47,8 88,37 134,69 67,47 142,100 257,100 4,0 6,0 10,0 4,0 9,0 13,0 114,0 190,-54 257,-100 46,-33 87,-62 134,-69 24,-4 48,-6 71,-6 40,0 71,5 100,11 18,4 32,5 42,5l1 0 1 0c21,0 38,-12 43,-32 4,-15 7,-29 11,-44 3,-14 8,-38 13,-44 146,-22 227,-55 246,-100 3,-5 4,-12 4,-18 1,-20 -13,-38 -32,-40 -254,-42 -369,-303 -373,-314 0,-1 -1,-1 -1,-2 -13,-28 -17,-51 -9,-69 14,-35 69,-52 104,-63 10,-4 20,-6 27,-9 63,-25 96,-55 95,-91 -1,-28 -22,-53 -57,-65l0 0c-12,-4 -26,-7 -39,-7 -9,0 -23,1 -36,7 -30,14 -57,21 -80,23 -15,-1 -26,-4 -31,-8 1,-13 2,-26 3,-40l0 -5c8,-127 18,-285 -23,-379 -123,-277 -386,-298 -463,-298l0 0 -4 0zm0 38c71,0 313,19 428,275 38,85 28,238 21,360 -1,20 -3,38 -4,56l0 8 5 5c2,3 21,23 65,24l1 0 1 0c29,-1 62,-10 96,-27 5,-3 13,-4 20,-4 8,0 17,2 24,4l1 0c19,6 31,19 32,29 0,6 -4,29 -70,54 -6,3 -15,5 -25,8 -43,13 -107,34 -129,85 -13,29 -9,63 10,101 8,18 129,292 403,337 0,1 0,3 -1,4 -4,11 -34,48 -218,77 -29,4 -36,37 -44,74 -3,13 -6,27 -10,41 -1,4 -2,4 -6,4 -1,0 -1,0 -2,0l0 0c-8,0 -21,-2 -35,-4 -26,-5 -62,-12 -107,-12 -25,0 -52,2 -78,6 -56,9 -102,42 -150,76 -65,46 -132,93 -234,93 -4,0 -9,0 -13,0l-1 0 -1 0c-3,0 -5,0 -8,0 -103,0 -170,-47 -234,-93 -48,-34 -94,-66 -150,-76 -26,-4 -53,-6 -78,-6 -46,0 -81,7 -107,12 -14,3 -27,5 -35,5 -6,0 -7,0 -8,-5 -4,-14 -7,-28 -10,-41 -8,-38 -15,-70 -44,-74 -183,-29 -213,-66 -218,-77 -1,-2 -1,-4 -1,-4 273,-45 395,-319 403,-337 19,-38 22,-72 10,-101 -21,-51 -86,-71 -129,-85 -10,-3 -18,-5 -25,-8 -55,-21 -72,-44 -70,-57 3,-15 29,-31 53,-31 5,0 10,1 13,3 38,18 72,27 103,27 47,0 69,-22 71,-25l5 -5 0 -8c-1,-18 -2,-37 -4,-56 -8,-123 -17,-276 21,-360 114,-255 355,-275 427,-275 2,0 33,0 33,0 1,0 3,0 4,0l-4 2z"/>
  </g>
 </g>
</svg>
