

<!-- Creator: CorelDRAW X6 -->
<svg xmlns="http://www.w3.org/2000/svg" x="0" y="0" xml:space="preserve" width="25mm" height="25mm" version="1.1" shape-rendering="geometricPrecision" text-rendering="geometricPrecision" image-rendering="optimizeQuality" fill-rule="evenodd" clip-rule="evenodd"
viewBox="0 0 2500 2500"
 xmlns:xlink="http://www.w3.org/1999/xlink"
 enable-background="new 0 0 600 785.8">
 <g id="Layer_x0020_1">
  <metadata id="CorelCorpID_0Corel-Layer"/>
  <g id="_2067410976">
   <polygon fill="#FDAF17" points="0,2500 2500,2500 2500,0 0,0 "/>
   <g id="_623749672">
    <path fill="white" d="M569 2034c-1,3 -12,10 -14,13 -15,13 -27,25 -39,41 -66,84 -22,187 67,190 45,2 83,-22 107,-53 8,-10 14,-22 18,-36 10,-32 4,-62 -8,-88 -18,-37 -42,-54 -46,-61 0,0 0,-1 0,0l16 -9c33,-18 68,-34 103,-49 5,-2 14,-6 18,-8 -1,6 -3,13 -5,19 -2,7 -3,13 -5,21 -10,48 -13,129 23,165 30,30 69,14 92,-15 1,-2 5,-7 6,-7 1,2 3,12 3,14 3,13 8,28 14,39 19,36 61,48 93,22 12,-10 23,-23 32,-39 33,-56 57,-143 64,-219 4,-1 13,-2 18,-2 6,-1 12,-2 18,-3 6,-1 30,-6 33,-6 -3,3 -8,16 -11,20 -18,38 -32,87 -18,128 17,48 73,72 122,50 26,-12 46,-33 60,-57 1,-1 1,-2 2,-3l3 -3c8,27 28,53 53,62 37,14 67,-2 83,-22 31,-39 43,-101 49,-152 1,-8 1,-21 2,-27 13,4 24,8 35,13 10,4 25,12 32,18 -1,3 -7,12 -8,15 -9,15 -18,29 -23,48 -16,52 8,105 68,110 21,2 40,-3 58,-13 5,-3 10,-7 15,-8 -2,12 -3,17 3,27 4,6 12,12 23,11 9,-1 17,-8 20,-13 3,-5 7,-18 8,-24 9,-26 14,-54 18,-82 1,-10 2,-20 3,-30 4,-18 13,-32 22,-44 8,-11 20,-28 33,-33 23,-8 29,14 31,33 5,54 -22,113 -33,166 -4,20 12,37 31,31 18,-5 18,-24 23,-43 9,-34 22,-68 38,-94 6,-9 22,-31 36,-30 9,0 17,7 18,15 3,9 0,21 -2,30 -11,52 -43,108 -5,158 35,48 98,40 141,10 3,-3 7,-5 9,-7 8,-7 20,-16 22,-28 3,-24 -27,-38 -46,-18 -34,36 -107,44 -92,-33 10,-51 45,-116 3,-157 -24,-24 -61,-28 -90,-8 -2,1 -3,3 -5,3 -7,-65 -55,-97 -108,-68 -17,9 -23,18 -36,31 -5,-17 -8,-48 -23,-57 -6,-3 -14,-5 -22,-3 -14,5 -20,21 -15,34 5,13 8,28 10,43 6,35 5,60 -8,91 -10,25 -27,48 -48,58 -29,13 -63,3 -55,-38 5,-28 28,-45 34,-73 7,-33 -23,-51 -42,-62 -11,-6 -24,-12 -38,-16 -13,-4 -27,-9 -40,-13 -5,-26 -8,-42 -22,-59 -5,-6 -15,-13 -28,-14 -18,-1 -32,8 -39,22 -18,32 -4,64 25,81l13 7c2,9 -2,34 -3,44 -3,28 -21,140 -62,124 -31,-12 -31,-83 -30,-111 1,-16 3,-29 -7,-39 -8,-8 -24,-10 -34,-1 -10,9 -8,19 -13,35 -8,35 -24,72 -47,95 -11,11 -41,35 -66,21 -20,-12 -17,-49 -11,-74 10,-44 38,-89 83,-106 12,-4 26,-8 40,-8 14,0 31,6 43,0 9,-5 18,-18 11,-32 -5,-12 -15,-15 -31,-17 -56,-8 -103,18 -154,32 -18,4 -63,15 -79,15 -2,-14 -2,-23 -4,-40 -3,-13 -6,-24 -10,-35 -6,-16 -14,-31 -25,-43 -8,-8 -14,-15 -23,-22 -37,-26 -84,-21 -115,8 -48,47 -23,113 24,148 30,23 63,29 102,33 -4,63 -31,163 -70,213 -3,3 -8,10 -13,8 -8,-2 -14,-17 -17,-27 -10,-36 -8,-83 -4,-121 2,-14 5,-26 -4,-35 -8,-8 -20,-12 -32,-4 -10,6 -11,16 -15,29 -9,33 -25,79 -50,103 -5,5 -8,8 -13,1 -12,-17 -13,-52 -13,-75 2,-38 11,-73 24,-107 4,-11 12,-21 5,-35 -11,-23 -44,-12 -64,-4 -42,16 -83,33 -122,53l-56 31c-3,0 -47,-39 -53,-44 -2,-2 -3,-4 -6,-6 -4,-3 -8,-7 -11,-11 -24,-25 -44,-49 -43,-88 3,-74 89,-138 161,-106 5,3 9,5 14,8 13,6 25,-1 31,-8 8,-11 5,-24 -3,-32 -6,-6 -19,-12 -28,-16 -48,-19 -101,-9 -139,15 -80,50 -117,153 -56,233 3,4 7,8 10,12 3,4 6,8 10,12 3,3 7,8 11,11l17 16c10,8 19,18 29,26 4,3 8,7 12,10l0 -6zm488 -111c1,-11 -3,-35 -7,-45 -7,-24 -20,-50 -45,-59 -31,-12 -58,14 -48,47 12,38 58,55 98,58l1 0zm-448 144c-3,2 -17,13 -20,16 -7,6 -13,11 -18,18 -25,27 -48,61 -29,100 8,16 23,26 46,27 38,0 73,-33 75,-68 3,-32 -22,-63 -43,-83 -3,-3 -6,-6 -10,-9l-1 0z"/>
    <g>
     <path fill="white" d="M1159 708c-20,-38 -31,-64 -53,-101 -28,-46 -54,-77 -89,-111 -50,-49 -91,-85 -162,-118 -158,-76 -393,-78 -470,59 -50,88 12,181 52,232 41,53 132,99 203,118 91,24 192,21 283,3 50,-10 214,-57 238,-81l-1 0z"/>
     <path fill="#F26D00" d="M1702 1533c-13,-8 -34,-13 -50,-22 -16,-8 -33,-20 -43,-28 -172,-138 -287,-379 -277,-607 3,-63 14,-72 28,-123 -118,19 -233,118 -272,201 -103,222 93,720 450,651 46,-9 142,-47 163,-73z"/>
     <path fill="#F26D00" d="M1559 760c-81,23 -96,83 -90,181 5,78 28,153 57,216 14,31 29,58 47,86 46,73 139,192 243,152 108,-42 112,-276 50,-408 -53,-113 -207,-254 -306,-227z"/>
     <path fill="white" d="M1258 668c27,-4 98,-51 119,-66 37,-28 66,-57 94,-94 108,-148 34,-369 -144,-253 -135,88 -131,318 -68,413l-1 0z"/>
     <path fill="#F26D00" d="M1158 1606c-13,-17 -26,-28 -43,-46 -12,-12 -28,-33 -39,-49 -51,-70 -92,-156 -114,-243 -14,-58 -15,-99 -23,-158 -28,35 -173,303 -173,356 0,40 42,47 76,58 87,29 227,75 315,82l1 1z"/>
    </g>
   </g>
  </g>
 </g>
 <g id="Layer_x0020_1_0">
  <metadata id="CorelCorpID_1Corel-Layer"/>
 </g>
 <g id="Layer_x0020_1_1">
  <metadata id="CorelCorpID_2Corel-Layer"/>
 </g>
 <g id="Layer_x0020_1_0_2">
  <metadata id="CorelCorpID_3Corel-Layer"/>
 </g>
 <g id="Layer_x0020_1_0_3">
  <metadata id="CorelCorpID_4Corel-Layer"/>
 </g>
 <g id="Layer_x0020_1_4">
  <metadata id="CorelCorpID_5Corel-Layer"/>
 </g>
 <g id="Layer_x0020_1_0_5">
  <metadata id="CorelCorpID_6Corel-Layer"/>
 </g>
 <g id="Layer_x0020_1_0_6">
  <metadata id="CorelCorpID_7Corel-Layer"/>
 </g>
 <g id="Layer_x0020_1_0_7">
  <metadata id="CorelCorpID_8Corel-Layer"/>
 </g>
 <g id="Layer_x0020_1_0_8">
  <metadata id="CorelCorpID_9Corel-Layer"/>
 </g>
 <g id="Layer_x0020_1_0_2_9">
  <metadata id="CorelCorpID_10Corel-Layer"/>
 </g>
 <g id="Layer_x0020_1_0_2_8">
  <metadata id="CorelCorpID_11Corel-Layer"/>
 </g>
 <g id="Layer_x0020_1_0_10">
  <metadata id="CorelCorpID_12Corel-Layer"/>
 </g>
 <g id="Layer_x0020_1_1_11">
  <metadata id="CorelCorpID_13Corel-Layer"/>
 </g>
 <g id="Layer_x0020_1_12">
  <metadata id="CorelCorpID_14Corel-Layer"/>
 </g>
 <g id="Layer_x0020_1_12_13">
  <metadata id="CorelCorpID_15Corel-Layer"/>
 </g>
 <g id="Layer_x0020_1_14">
  <metadata id="CorelCorpID_16Corel-Layer"/>
 </g>
 <g id="Layer_x0020_1_13">
  <metadata id="CorelCorpID_17Corel-Layer"/>
 </g>
</svg>
