

<!-- Creator: CorelDRAW X6 -->
<svg xmlns="http://www.w3.org/2000/svg" x="0" y="0" xml:space="preserve" width="25mm" height="25mm" version="1.1" shape-rendering="geometricPrecision" text-rendering="geometricPrecision" image-rendering="optimizeQuality" fill-rule="evenodd" clip-rule="evenodd"
viewBox="0 0 2500 2500"
 xmlns:xlink="http://www.w3.org/1999/xlink"
 enable-background="new 0 0 600 785.8">
 <g id="Layer_x0020_1">
  <metadata id="CorelCorpID_0Corel-Layer"/>
 </g>
 <g id="Layer_x0020_1_0">
  <metadata id="CorelCorpID_1Corel-Layer"/>
 </g>
 <g id="Layer_x0020_1_0_1">
  <metadata id="CorelCorpID_2Corel-Layer"/>
 </g>
 <g id="Layer_x0020_1_0_2">
  <metadata id="CorelCorpID_3Corel-Layer"/>
 </g>
 <g id="Layer_x0020_1_3">
  <metadata id="CorelCorpID_4Corel-Layer"/>
 </g>
 <g id="Layer_x0020_1_0_4">
  <metadata id="CorelCorpID_5Corel-Layer"/>
 </g>
 <g id="Layer_x0020_1_0_5">
  <metadata id="CorelCorpID_6Corel-Layer"/>
 </g>
 <g id="Layer_x0020_1_0_6">
  <metadata id="CorelCorpID_7Corel-Layer"/>
 </g>
 <g id="Layer_x0020_1_0_7">
  <metadata id="CorelCorpID_8Corel-Layer"/>
 </g>
 <g id="Layer_x0020_1_0_2_8">
  <metadata id="CorelCorpID_9Corel-Layer"/>
 </g>
 <g id="Layer_x0020_1_0_2_8_9">
  <metadata id="CorelCorpID_10Corel-Layer"/>
 </g>
 <g id="Layer_x0020_1_0_10">
  <metadata id="CorelCorpID_11Corel-Layer"/>
 </g>
 <g id="Layer_x0020_1_1">
  <metadata id="CorelCorpID_12Corel-Layer"/>
 </g>
 <g id="Layer_x0020_1_11">
  <metadata id="CorelCorpID_13Corel-Layer"/>
 </g>
 <g id="Layer_x0020_1_12">
  <metadata id="CorelCorpID_14Corel-Layer"/>
 </g>
 <g id="Layer_x0020_1_12">
  <metadata id="CorelCorpID_15Corel-Layer"/>
 </g>
 <g id="Layer_x0020_1_13">
  <metadata id="CorelCorpID_16Corel-Layer"/>
 </g>
 <g id="Layer_x0020_1_13">
  <metadata id="CorelCorpID_17Corel-Layer"/>
  <g id="_623272176">
   <g>
    <path fill="#7AD06D" d="M1192 54c-633,30 -1132,557 -1130,1190 1,193 47,375 129,536l-126 613c-7,33 23,62 56,54l600 -142c154,77 328,122 510,124 646,9 1186,-503 1207,-1150 22,-693 -551,-1258 -1245,-1225l-1 -1zm716 1844c-176,176 -409,272 -658,272 -146,0 -285,-33 -414,-97l-84 -41 -368 87 78 -376 -41 -81c-67,-131 -101,-273 -101,-422 0,-248 97,-482 272,-658 174,-174 412,-272 658,-272 248,0 482,97 658,272 176,176 272,409 272,658 0,247 -98,484 -272,658l0 1z"/>
    <path fill="#7AD06D" d="M1826 1498l-230 -66c-30,-9 -63,0 -84,22l-56 58c-24,24 -59,32 -91,19 -109,-44 -338,-247 -396,-350 -17,-29 -14,-66 7,-93l49 -64c19,-25 23,-59 10,-87l-97 -219c-23,-53 -90,-68 -134,-31 -65,54 -140,137 -150,228 -16,161 53,365 315,608 303,282 544,319 702,281 90,-22 161,-109 206,-179 31,-48 7,-113 -48,-128l-1 1z"/>
   </g>
   <g>
    <path fill="#FEFEFE" d="M715 2359l-582 138c-70,16 -133,-45 -119,-115l122 -595c-84,-169 -126,-354 -127,-543 -2,-661 519,-1211 1180,-1243 349,-16 690,115 938,362 242,242 373,575 363,916 -21,675 -584,1211 -1258,1201 -179,-3 -354,-44 -516,-121l-1 0z"/>
   </g>
   <path fill="#009846" d="M1192 54c-633,30 -1132,557 -1130,1190 1,193 47,375 129,536l-126 613c-7,33 23,62 56,54l600 -142c154,77 328,122 510,124 646,9 1186,-503 1207,-1150 22,-693 -551,-1258 -1245,-1225l-1 -1z"/>
   <path fill="#FEFEFE" d="M1907 1898c-176,176 -409,272 -658,272 -146,0 -285,-33 -414,-97l-84 -41 -368 87 78 -376 -41 -81c-67,-131 -101,-273 -101,-422 0,-248 97,-482 272,-658 174,-174 412,-272 658,-272 248,0 482,97 658,272 176,176 272,409 272,658 0,247 -98,484 -272,658l0 1z"/>
   <path fill="#009846" d="M1826 1498l-230 -66c-30,-9 -63,0 -84,22l-56 58c-24,24 -59,32 -91,19 -109,-44 -338,-247 -396,-350 -17,-29 -14,-66 7,-93l49 -64c19,-25 23,-59 10,-87l-97 -219c-23,-53 -90,-68 -134,-31 -65,54 -140,137 -150,228 -16,161 53,365 315,608 303,282 544,319 702,281 90,-22 161,-109 206,-179 31,-48 7,-113 -48,-128l-1 1z"/>
  </g>
 </g>
</svg>
