

<!-- Creator: CorelDRAW X6 -->
<svg xmlns="http://www.w3.org/2000/svg" x="0" y="0" xml:space="preserve" width="36mm" height="25mm" version="1.1" shape-rendering="geometricPrecision" text-rendering="geometricPrecision" image-rendering="optimizeQuality" fill-rule="evenodd" clip-rule="evenodd"
viewBox="0 0 3600 2500"
 xmlns:xlink="http://www.w3.org/1999/xlink"
 enable-background="new 0 0 600 785.8">
 <defs>
      <linearGradient id="id0" gradientUnits="userSpaceOnUse" x1="1800" y1="0" x2="1800" y2="2500">
       <stop offset="0" stop-color="#E52D27"/>
       <stop offset="1" stop-color="#BF171D"/>
      </linearGradient>
 </defs>
 <g id="Layer_x0020_1">
  <metadata id="CorelCorpID_0Corel-Layer"/>
 </g>
 <g id="Layer_x0020_1_0">
  <metadata id="CorelCorpID_1Corel-Layer"/>
 </g>
 <g id="Layer_x0020_1_0_1">
  <metadata id="CorelCorpID_2Corel-Layer"/>
 </g>
 <g id="Layer_x0020_1_0_2">
  <metadata id="CorelCorpID_3Corel-Layer"/>
 </g>
 <g id="Layer_x0020_1_3">
  <metadata id="CorelCorpID_4Corel-Layer"/>
 </g>
 <g id="Layer_x0020_1_0_4">
  <metadata id="CorelCorpID_5Corel-Layer"/>
 </g>
 <g id="Layer_x0020_1_0_5">
  <metadata id="CorelCorpID_6Corel-Layer"/>
 </g>
 <g id="Layer_x0020_1_0_6">
  <metadata id="CorelCorpID_7Corel-Layer"/>
 </g>
 <g id="Layer_x0020_1_0_7">
  <metadata id="CorelCorpID_8Corel-Layer"/>
 </g>
 <g id="Layer_x0020_1_0_2_8">
  <metadata id="CorelCorpID_9Corel-Layer"/>
 </g>
 <g id="Layer_x0020_1_0_2_8_9">
  <metadata id="CorelCorpID_10Corel-Layer"/>
 </g>
 <g id="Layer_x0020_1_0_10">
  <metadata id="CorelCorpID_11Corel-Layer"/>
 </g>
 <g id="Layer_x0020_1_1">
  <metadata id="CorelCorpID_12Corel-Layer"/>
 </g>
 <g id="Layer_x0020_1_11">
  <metadata id="CorelCorpID_13Corel-Layer"/>
 </g>
 <g id="Layer_x0020_1_12">
  <metadata id="CorelCorpID_14Corel-Layer"/>
 </g>
 <g id="Layer_x0020_1_12">
  <metadata id="CorelCorpID_15Corel-Layer"/>
 </g>
 <g id="Layer_x0020_1_13">
  <metadata id="CorelCorpID_16Corel-Layer"/>
 </g>
 <g id="Layer_x0020_1_13">
  <metadata id="CorelCorpID_17Corel-Layer"/>
  <g id="_623254320">
   <g>
    <g>
     <polygon fill="white" points="1433,1711 2394,1214 1433,713 "/>
     <polygon fill="#420000" fill-opacity="0.121569" points="1433,713 2275,1275 2394,1214 "/>
     <path fill="url(#id0)" d="M3539 539c0,0 -35,-245 -142,-352 -135,-142 -285,-142 -356,-150 -496,-36 -1240,-36 -1240,-36l-1 0c0,0 -745,0 -1243,36 -70,8 -221,8 -356,150 -106,109 -141,352 -141,352 0,0 -36,288 -36,576l0 270c0,287 36,575 36,575 0,0 35,245 142,352 135,142 312,138 391,152 284,28 1207,36 1207,36 0,0 746,-1 1243,-38 70,-8 221,-8 356,-150 107,-109 142,-352 142,-352 0,0 36,-287 36,-575l0 -270c-1,-287 -38,-576 -38,-576l0 0zm-2106 1172l0 -998 960 501 -960 497 0 0z"/>
    </g>
   </g>
  </g>
 </g>
</svg>
