

<!-- Creator: CorelDRAW X6 -->
<svg xmlns="http://www.w3.org/2000/svg" x="0" y="0" xml:space="preserve" width="25mm" height="25mm" version="1.1" shape-rendering="geometricPrecision" text-rendering="geometricPrecision" image-rendering="optimizeQuality" fill-rule="evenodd" clip-rule="evenodd"
viewBox="0 0 2500 2500"
 xmlns:xlink="http://www.w3.org/1999/xlink"
 enable-background="new 0 0 600 785.8">
 <g id="Layer_x0020_1">
  <metadata id="CorelCorpID_0Corel-Layer"/>
 </g>
 <g id="Layer_x0020_1_0">
  <metadata id="CorelCorpID_1Corel-Layer"/>
 </g>
 <g id="Layer_x0020_1_0_1">
  <metadata id="CorelCorpID_2Corel-Layer"/>
 </g>
 <g id="Layer_x0020_1_0_2">
  <metadata id="CorelCorpID_3Corel-Layer"/>
 </g>
 <g id="Layer_x0020_1_3">
  <metadata id="CorelCorpID_4Corel-Layer"/>
 </g>
 <g id="Layer_x0020_1_0_4">
  <metadata id="CorelCorpID_5Corel-Layer"/>
 </g>
 <g id="Layer_x0020_1_0_5">
  <metadata id="CorelCorpID_6Corel-Layer"/>
 </g>
 <g id="Layer_x0020_1_0_6">
  <metadata id="CorelCorpID_7Corel-Layer"/>
 </g>
 <g id="Layer_x0020_1_0_7">
  <metadata id="CorelCorpID_8Corel-Layer"/>
 </g>
 <g id="Layer_x0020_1_0_2_8">
  <metadata id="CorelCorpID_9Corel-Layer"/>
 </g>
 <g id="Layer_x0020_1_0_2_8_9">
  <metadata id="CorelCorpID_10Corel-Layer"/>
 </g>
 <g id="Layer_x0020_1_0_10">
  <metadata id="CorelCorpID_11Corel-Layer"/>
 </g>
 <g id="Layer_x0020_1_1">
  <metadata id="CorelCorpID_12Corel-Layer"/>
 </g>
 <g id="Layer_x0020_1_11">
  <metadata id="CorelCorpID_13Corel-Layer"/>
 </g>
 <g id="Layer_x0020_1_12">
  <metadata id="CorelCorpID_14Corel-Layer"/>
 </g>
 <g id="Layer_x0020_1_12">
  <metadata id="CorelCorpID_15Corel-Layer"/>
 </g>
 <g id="Layer_x0020_1_13">
  <metadata id="CorelCorpID_16Corel-Layer"/>
 </g>
 <g id="Layer_x0020_1_13">
  <metadata id="CorelCorpID_17Corel-Layer"/>
  <g id="_405576184">
   <path fill="#E38B00" d="M1273 1356l-23 0 -23 0c-8,0 -13,3 -20,5l-43 -112c28,-12 57,-20 86,-22 30,1 58,10 87,22l-43 112c-7,-3 -13,-5 -20,-5zm199 -84c-2,3 -3,5 -3,5l-171 424 -7 0 -12 0 0 -279c16,-4 33,-13 33,-33 0,-7 -3,-12 -6,-17l46 -118c48,-14 84,-14 130,4 -4,4 -8,9 -11,14l0 -2zm-218 -594c299,0 542,243 542,543 0,177 -84,313 -215,433 -54,54 -144,171 -144,324l0 4 -109 0 0 -243c0,-13 -6,-21 -14,-29l171 -424c3,-8 13,-18 23,-19 8,-8 1,-14 -7,-17 -44,-23 -108,-25 -154,-13 -30,-14 -63,-24 -98,-25 -34,1 -68,11 -98,25 -47,-13 -110,-11 -154,13 -8,3 -14,9 -7,17 11,1 20,12 23,19l171 424c-9,8 -14,17 -14,29l0 243 -109 0 0 -4c0,-153 -90,-270 -144,-324 -130,-120 -215,-256 -215,-433 0,-299 243,-543 542,-543l4 0 4 0 2 0zm-4 696l23 0c13,0 23,9 23,16 0,7 -9,16 -23,16l-10 0 0 313 29 0c11,0 19,8 19,19l0 243 -61 0 -61 0 0 -243c0,-11 8,-19 19,-19l29 0 0 -313 -10 0c-13,0 -23,-9 -23,-16 0,-7 9,-16 23,-16l23 0 -1 0zm-222 -101c-3,-5 -7,-9 -11,-14 47,-18 83,-18 130,-4l46 118c-3,6 -6,10 -6,17 0,19 17,28 33,33l0 279 -12 0 -7 0 -171 -424c0,0 -1,-3 -3,-5l0 2z"/>
   <path fill="#E38B00" d="M1798 1657l311 418 -413 -308c37,-34 71,-70 102,-109zm-993 110l-413 308 310 -418c32,39 66,76 103,110zm-258 -477l-510 -75 511 -75c-3,26 -4,53 -4,80 0,24 1,48 3,70zm156 -517l-311 -418 418 312c-39,32 -76,67 -108,106zm472 -253l76 -520 78 520c-24,-3 -48,-4 -73,-4l-8 0c-24,0 -48,1 -72,3l0 1zm934 -164l-311 418c-33,-39 -68,-75 -108,-107l418 -312 1 1zm-156 784l511 75 -510 75c3,-23 3,-46 3,-70 0,-27 -2,-53 -4,-80z"/>
   <path fill="#2B2A29" d="M1545 2320l0 83 -117 24 -43 73 -272 0 -46 -81 478 -99 -1 0zm0 -126l0 84 -590 123 0 -84 590 -123zm0 -43l-590 123 0 -84 402 -85 -402 0 0 -128c0,-111 -64,-200 -110,-247 -143,-132 -248,-293 -248,-510 0,-358 291,-650 649,-650l8 0c358,0 649,291 649,650 0,217 -105,378 -248,510 -46,46 -111,136 -111,247l0 175 -1 0zm305 -931c0,-329 -267,-596 -595,-596l-8 0c-329,0 -595,267 -595,596 0,197 95,345 231,471 50,50 128,153 128,285l0 58 482 0 0 -58c0,-132 78,-235 128,-285 137,-126 231,-274 231,-471z"/>
  </g>
 </g>
</svg>
