

<!-- Creator: CorelDRAW X8 -->
<svg xmlns="http://www.w3.org/2000/svg" xml:space="preserve" x="0" y="0" width="25.892mm" height="17.251mm" version="1.1" shape-rendering="geometricPrecision" text-rendering="geometricPrecision" image-rendering="optimizeQuality" fill-rule="evenodd" clip-rule="evenodd"
viewBox="0 0 2589 1725"
 xmlns:xlink="http://www.w3.org/1999/xlink">
 <g id="Layer_x0020_1">
  <metadata id="CorelCorpID_0Corel-Layer"/>
  <polygon fill="#00A0E3" fill-rule="nonzero" points="0,1725 2589,1725 2589,0 0,0 "/>
  <path fill="#FEFEFE" fill-rule="nonzero" d="M736 401c0,0 0,391 0,559 0,168 0,416 0,435 0,19 11,42 35,41 24,0 27,-29 27,-37 0,-8 0,-166 0,-204 0,-38 0,-776 0,-795 0,-20 -8,-54 -31,-54 -23,0 -31,17 -31,34 0,16 0,21 0,21z"/>
  <path fill="#FEFEFE" fill-rule="nonzero" d="M1792 401c0,0 0,391 0,559 0,168 0,416 0,435 0,19 11,42 35,41 24,0 27,-29 27,-37 0,-8 0,-166 0,-204 0,-38 0,-776 0,-795 0,-20 -8,-54 -31,-54 -23,0 -31,17 -31,34 0,16 0,21 0,21z"/>
  <path fill="#FEFEFE" fill-rule="nonzero" d="M916 428c0,0 92,106 166,175 75,69 95,81 122,144 26,63 42,221 42,292 0,71 0,323 0,348 0,24 13,43 32,43 19,0 33,-9 33,-41 0,-31 0,-370 0,-442 0,-71 9,-169 56,-232 47,-63 158,-147 210,-201 53,-54 78,-85 95,-106 18,-21 -12,-59 -43,-26 -31,33 -167,168 -218,203 -52,35 -83,55 -128,55 -45,0 -108,-29 -181,-101 -73,-73 -124,-118 -144,-138 -20,-20 -37,-43 -58,-27 -20,17 3,41 7,44 4,4 9,10 9,10l0 0z"/>
 </g>
</svg>
