

<!-- Creator: CorelDRAW X6 -->
<svg xmlns="http://www.w3.org/2000/svg" x="0" y="0" xml:space="preserve" width="25mm" height="25mm" version="1.1" shape-rendering="geometricPrecision" text-rendering="geometricPrecision" image-rendering="optimizeQuality" fill-rule="evenodd" clip-rule="evenodd"
viewBox="0 0 2500 2500"
 xmlns:xlink="http://www.w3.org/1999/xlink"
 enable-background="new 0 0 600 785.8">
 <g id="Layer_x0020_1">
  <metadata id="CorelCorpID_0Corel-Layer"/>
 </g>
 <g id="Layer_x0020_1_0">
  <metadata id="CorelCorpID_1Corel-Layer"/>
 </g>
 <g id="Layer_x0020_1_0_1">
  <metadata id="CorelCorpID_2Corel-Layer"/>
 </g>
 <g id="Layer_x0020_1_0_2">
  <metadata id="CorelCorpID_3Corel-Layer"/>
 </g>
 <g id="Layer_x0020_1_3">
  <metadata id="CorelCorpID_4Corel-Layer"/>
 </g>
 <g id="Layer_x0020_1_0_4">
  <metadata id="CorelCorpID_5Corel-Layer"/>
 </g>
 <g id="Layer_x0020_1_0_5">
  <metadata id="CorelCorpID_6Corel-Layer"/>
 </g>
 <g id="Layer_x0020_1_0_6">
  <metadata id="CorelCorpID_7Corel-Layer"/>
 </g>
 <g id="Layer_x0020_1_0_7">
  <metadata id="CorelCorpID_8Corel-Layer"/>
 </g>
 <g id="Layer_x0020_1_0_2_8">
  <metadata id="CorelCorpID_9Corel-Layer"/>
 </g>
 <g id="Layer_x0020_1_0_2_8_9">
  <metadata id="CorelCorpID_10Corel-Layer"/>
 </g>
 <g id="Layer_x0020_1_0_10">
  <metadata id="CorelCorpID_11Corel-Layer"/>
 </g>
 <g id="Layer_x0020_1_1">
  <metadata id="CorelCorpID_12Corel-Layer"/>
 </g>
 <g id="Layer_x0020_1_11">
  <metadata id="CorelCorpID_13Corel-Layer"/>
 </g>
 <g id="Layer_x0020_1_12">
  <metadata id="CorelCorpID_14Corel-Layer"/>
 </g>
 <g id="Layer_x0020_1_12">
  <metadata id="CorelCorpID_15Corel-Layer"/>
 </g>
 <g id="Layer_x0020_1_13">
  <metadata id="CorelCorpID_16Corel-Layer"/>
 </g>
 <g id="Layer_x0020_1_13">
  <metadata id="CorelCorpID_17Corel-Layer"/>
  <g id="_127528328">
   <path fill="#E31E24" d="M0 1250c0,-690 560,-1250 1250,-1250 690,0 1250,560 1250,1250 0,690 -560,1250 -1250,1250 -691,0 -1250,-560 -1250,-1250z"/>
   <path fill="#FEFEFE" d="M123 1250c0,623 505,1128 1128,1128 623,0 1128,-505 1128,-1128 0,-623 -505,-1128 -1128,-1128 -623,0 -1128,505 -1128,1128m-41 0c0,-645 523,-1168 1168,-1168 645,0 1168,523 1168,1168 0,645 -523,1168 -1168,1168 -646,0 -1168,-523 -1168,-1168z"/>
   <path fill="#FEFEFE" d="M572 1743c0,-228 184,-412 412,-412 148,0 277,78 350,194 -60,-68 -148,-110 -244,-110 -181,0 -328,147 -328,328 0,181 147,328 328,328 98,0 184,-43 244,-110 -73,117 -203,194 -350,194 -228,0 -412,-184 -412,-412zm851 -494c0,-228 184,-412 412,-412 148,0 277,78 350,194 -60,-68 -148,-110 -244,-110 -181,0 -328,147 -328,328 0,181 147,328 328,328 98,0 184,-43 244,-110 -73,117 -202,194 -350,194 -228,0 -412,-184 -412,-412zm-851 -494c0,-228 184,-412 412,-412 148,0 277,78 350,194 -60,-68 -148,-109 -244,-109 -181,0 -328,147 -328,328 0,181 147,328 328,328 98,0 184,-43 244,-109 -73,117 -203,194 -350,194 -228,0 -412,-184 -412,-412l0 -2z"/>
  </g>
 </g>
</svg>
