

<!-- Creator: CorelDRAW X8 -->
<svg xmlns="http://www.w3.org/2000/svg" xml:space="preserve" x="0" y="0" width="43.0958mm" height="25mm" version="1.1" shape-rendering="geometricPrecision" text-rendering="geometricPrecision" image-rendering="optimizeQuality" fill-rule="evenodd" clip-rule="evenodd"
viewBox="0 0 4310 2500"
 xmlns:xlink="http://www.w3.org/1999/xlink">
 <g id="Katman_x0020_1">
  <metadata id="CorelCorpID_0Corel-Layer"/>
  <g id="_2512377814000">
   <polygon fill="#5AB8EE" points="0,2500 4310,2499 4310,2 0,0 "/>
   <path fill="#FDFDFF" d="M889 1617c195,72 548,172 714,308 42,34 143,123 207,135 49,-30 174,-171 223,-222 182,-188 97,-123 313,-122 155,0 315,-9 465,-27 147,-18 324,-30 333,-180 -91,-20 -72,-44 -138,10 -33,-15 -21,-25 -45,-31 -28,-6 -31,11 -58,25l-49 -36c-21,14 -29,25 -44,40 -53,-16 -23,-29 -73,-15 -63,17 -17,19 -71,-15l-61 28 -42 -36 -61 33c-15,-11 -37,-36 -44,-40 -56,-33 -4,24 -59,-11 11,-28 19,-33 38,-53 43,11 18,8 54,32l51 -35c27,16 27,22 52,37 31,-14 25,-21 51,-41l51 48c35,-18 19,-23 52,-46l51 41c26,-15 6,-4 25,-21 20,-16 -4,-5 28,-22 29,21 29,30 51,44 21,-16 24,-23 52,-42 33,10 38,26 61,43 31,-12 44,-25 73,-37 52,26 38,51 103,65 32,-22 98,-102 131,-140 40,-44 95,-78 107,-163 -60,-19 -78,-42 -165,-54 -66,-9 -138,-12 -208,-19 -277,-25 -219,-93 -446,-211 -68,-36 -106,-30 -181,-46 -107,-23 -105,-214 -126,-317 -19,20 -24,32 -35,65 -5,14 -7,26 -13,38l-25 32 -54 -158c-109,144 -107,325 -234,371 -235,84 -676,435 -892,603 -41,32 -142,98 -162,142zm1525 -601l22 22 21 21 -43 0 -42 0 21 -21 21 -22z"/>
  </g>
 </g>
</svg>
