

<!-- Creator: CorelDRAW X8 -->
<svg xmlns="http://www.w3.org/2000/svg" xml:space="preserve" x="0" y="0" width="24.196mm" height="25mm" version="1.1" shape-rendering="geometricPrecision" text-rendering="geometricPrecision" image-rendering="optimizeQuality" fill-rule="evenodd" clip-rule="evenodd"
viewBox="0 0 2420 2500"
 xmlns:xlink="http://www.w3.org/1999/xlink">
 <g id="Katman_x0020_1">
  <metadata id="CorelCorpID_0Corel-Layer"/>
  <g id="_2512366843152">
   <path fill="#ffffff" d="M2163 406c11,8 22,16 36,36 -8,-6 -16,-10 -22,-14 -3,-1 -6,-1 -10,-1l1 1c5,2 8,4 11,8 7,3 16,12 26,26 4,6 8,12 11,17l-3 -2c1,1 2,3 3,5 -3,-3 -8,-9 -11,-13 -1,-1 -2,-1 -3,-2 -4,-3 -7,-4 -11,-5 8,7 7,7 24,28 -2,-1 -5,-3 -8,-4l0 0c-4,-1 -8,-3 -12,-4 17,13 35,31 40,47 -7,-7 -20,-19 -30,-22 21,22 37,45 41,70 -6,-10 -18,-17 -33,-24 14,11 27,38 27,49 -4,-3 -13,-14 -24,-18 10,7 14,16 15,25 -4,-4 -8,-9 -14,-11 10,12 13,22 13,31 -8,-13 -15,-16 -23,-20 18,26 21,47 19,65 -6,-8 -12,-13 -20,-18 0,0 0,1 0,2 -1,0 -1,0 -2,0 9,11 12,22 12,34 -6,-7 -10,-16 -18,-20 7,13 14,36 16,56 -1,-8 -13,-25 -19,-27 -1,1 0,6 0,7 16,24 47,49 51,71 -12,-23 -35,-29 -49,-47 19,37 30,18 46,60 -4,-4 -14,-14 -18,-15 13,20 27,46 28,67 -5,-10 -15,-27 -24,-33 15,32 25,64 22,95 -3,-13 -13,-25 -26,-36 11,16 17,53 14,66 -3,-4 -8,-18 -18,-26 1,0 1,0 1,1 7,10 8,21 7,32 -3,-4 -5,-9 -8,-14 4,13 5,25 2,38 -3,-11 -7,-17 -11,-22 1,4 3,7 3,15 -3,-6 -5,-7 -7,-9 0,0 2,5 3,17 5,15 1,40 -3,55 -3,-8 -6,-14 -10,-20 0,7 0,13 -1,21 -1,-3 -2,-6 -3,-8 1,6 1,12 0,18 2,1 6,1 11,-1 -7,14 -14,18 -22,23 3,5 10,0 15,-1 -7,8 -13,14 -21,15 5,3 9,3 15,0 -8,12 -17,23 -33,31 4,1 7,3 14,-1 -4,6 -9,10 -16,13 2,1 5,0 7,-1 -4,6 -8,9 -14,9 5,2 11,0 13,0 -5,6 -19,17 -27,17 6,3 12,5 17,1 -11,14 -24,20 -38,24 3,3 11,1 15,1 -8,7 -19,9 -29,9 1,2 6,4 8,5 -15,6 -11,5 -21,6l-1 2c6,0 9,0 18,-1 -7,4 -14,7 -22,8 -39,58 -76,117 -108,180 -40,79 -59,142 -5,187 48,35 88,92 120,172 310,258 -1014,597 -1275,106 61,-48 105,-100 135,-106 55,-27 56,-112 64,-165 -1,1 -2,2 -3,3 0,-4 1,-8 4,-12l0 -2c-4,4 -8,9 -10,11 0,-7 6,-25 13,-32 -8,5 -15,10 -18,17 1,-16 9,-31 21,-46 -7,3 -13,11 -17,16 2,-11 12,-23 22,-32 -3,1 -10,5 -13,7 13,-20 7,-11 21,-28 -10,8 -12,11 -22,21 10,-25 48,-63 78,-60 21,10 40,4 46,-21 -1,-2 -5,2 -13,14 1,-15 6,-24 11,-34 -5,0 -8,10 -12,16 2,-10 5,-20 12,-30 -5,4 -9,9 -14,17 3,-14 7,-29 17,-50 -3,4 -6,6 -11,16 1,-7 4,-14 9,-24 -2,2 -4,6 -7,9 2,-7 5,-14 10,-20 -5,4 -10,13 -12,15 2,-8 11,-29 17,-38 -6,6 -12,12 -15,19 5,-19 14,-37 25,-54 -4,3 -11,12 -14,17 3,-8 8,-18 14,-26 1,-3 2,-5 3,-7 -2,1 -3,3 -4,4 11,-19 9,-16 15,-25 1,-2 2,-4 3,-6 -6,8 -9,12 -17,23 6,-13 15,-28 26,-40 -3,-1 -8,9 -12,12 7,-17 13,-19 20,-34 -3,0 -6,5 -9,6 1,-3 2,-5 4,-8 -24,8 -43,37 -57,84 1,-1 3,-2 4,-2 -1,2 -3,4 -5,7 0,1 0,3 0,5 2,-1 4,-2 6,-3 -2,5 -4,10 -9,15 0,2 -1,5 -2,7 2,-1 3,-1 4,-2 -1,2 -2,5 -6,7 0,1 0,2 -1,3 2,-1 3,-2 4,-2 -1,3 -3,5 -6,6l-1 2c5,-1 8,-3 10,-3 -2,4 -11,12 -18,15l-1 0c7,0 13,-1 17,-4 -6,10 -17,17 -30,23 5,0 13,-3 17,-4 -5,6 -16,10 -26,13 2,0 8,0 11,-1 -16,9 -9,5 -24,11 9,-1 12,-2 22,-6 -7,6 -18,10 -30,13 -9,15 -23,28 -41,39 9,-1 21,-8 27,-11 -7,11 -24,21 -40,29 4,0 13,-2 18,-3 -25,18 -13,10 -39,25 16,-6 21,-8 37,-17 -11,13 -31,24 -53,33 2,5 3,10 3,14 -3,-6 -4,-9 -6,-13l-2 1c2,5 2,4 6,17 -2,-2 -6,-7 -8,-8 6,9 11,21 10,29 -2,-5 -5,-12 -9,-15 5,14 8,27 5,39 0,-6 -4,-11 -10,-17 4,7 5,22 3,27 0,-1 0,-1 -1,-2 1,31 -4,63 -16,81 4,-17 5,-22 6,-38 -7,27 -3,15 -13,42 0,-4 -1,-14 -2,-17 -2,16 -7,35 -15,45 2,-7 4,-20 2,-28 -6,23 -15,42 -29,54 4,-7 4,-18 3,-30 -2,13 -15,32 -22,36 0,-4 4,-14 3,-23 -1,10 -5,16 -11,20 1,-4 3,-9 2,-13 -4,11 -9,17 -15,20 5,-10 5,-16 4,-23 -10,22 -22,32 -35,39 4,-10 5,-17 4,-27 -3,14 -10,21 -19,27 2,-5 -2,-7 -4,-11 -4,5 -9,9 -17,11 2,-7 3,-40 -3,-20 -6,-15 -9,-30 -1,-51 -11,12 -15,23 -18,38 -11,-19 -18,-42 -12,-79 -7,9 -12,16 -15,33 -4,-9 -6,-21 -2,-39 -4,6 -6,13 -8,19 -4,-10 -4,-21 3,-34 -10,10 -13,26 -16,31 -5,-11 -6,-47 4,-64 -13,14 -22,28 -22,41 -9,-28 -4,-60 8,-94 -10,8 -17,27 -21,37 -2,-19 8,-47 19,-70 -5,3 -13,15 -17,21 10,-44 5,-24 19,-64 -12,21 -15,28 -25,53 1,-25 12,-57 30,-88 4,-11 12,-22 21,-34 -7,3 -16,13 -20,18 2,-12 15,-26 27,-37 -4,0 -12,5 -15,8 14,-22 9,-15 22,-29 -1,0 -1,0 -2,0 1,-1 2,-1 3,-2 -10,8 -14,12 -24,23 8,-19 30,-41 55,-58 3,-3 5,-5 8,-8 -5,-1 -9,3 -14,5 3,-5 7,-10 15,-13 -7,0 -11,1 -16,4 3,-8 7,-16 19,-24 -4,1 -7,1 -13,5 2,-4 4,-7 11,-11 -3,0 -5,2 -8,2 2,-3 5,-6 11,-8 -6,0 -11,4 -13,4 2,-4 11,-14 19,-16 -7,0 -14,2 -17,5 5,-10 16,-17 28,-23 -5,0 -12,3 -16,5 5,-6 16,-11 25,-13 -2,-1 -8,0 -10,0 15,-9 8,-5 23,-11 -9,2 -12,3 -22,6 7,-6 18,-10 31,-13 1,-1 3,-2 5,-3 -3,-1 -5,1 -8,2 2,-4 6,-7 11,-8 -5,0 -11,3 -13,3 2,-4 13,-13 20,-14 -7,-1 -14,0 -18,3 7,-9 18,-16 31,-21 -5,0 -13,2 -17,3 6,-5 16,-9 26,-11 -2,-1 -8,0 -10,0 15,-8 8,-4 24,-10 -10,2 -13,2 -22,5 6,-5 17,-9 29,-11 12,-6 28,-8 43,-9 -3,-2 -13,-3 -18,-4 30,-9 16,-5 46,-10 -18,-1 -23,0 -41,3 16,-9 41,-13 67,-13l1 0c-3,-1 -6,-2 -9,-3 9,-1 18,-1 27,0 -3,-5 -9,-4 -13,-6 5,-2 11,-3 19,0 -5,-4 -9,-6 -14,-7 7,-4 16,-7 30,-5 -4,-2 -6,-4 -13,-5 4,-2 8,-3 15,-1 -2,-2 -5,-2 -7,-3 4,-2 8,-2 13,1 -4,-4 -10,-5 -12,-6 5,-2 18,-3 25,1 -6,-5 -11,-8 -16,-8 11,-4 23,-2 36,2 -3,-3 -10,-6 -14,-7 7,-2 18,2 27,7 -1,-2 -6,-5 -8,-7 17,4 9,2 25,8 -8,-5 -11,-6 -21,-10 8,0 18,3 28,8 -1,-2 -2,-6 -4,-10 9,0 13,6 17,11 2,-5 -3,-9 -5,-14 6,3 11,6 14,14 0,-6 -2,-10 -5,-15 8,2 16,6 24,18 0,-4 -1,-7 -5,-13 4,2 8,4 12,10 -1,-2 -2,-5 -3,-7 4,2 7,5 8,10 0,-5 -3,-11 -4,-13 5,2 14,12 16,19 0,-7 -1,-14 -5,-17 10,5 18,15 24,28 0,-5 -3,-12 -5,-16 6,5 11,15 14,24 0,-2 0,-7 -1,-10 4,6 6,9 7,11 0,0 1,-1 1,-1 0,-2 -2,-5 -3,-8 2,2 4,5 6,8 6,-1 12,-3 18,-6l1 -1c-7,1 -14,3 -20,4 6,-7 16,-12 33,-14l0 0c-17,-1 -34,5 -41,5 7,-8 39,-25 64,-27 -24,-1 -44,0 -57,6 19,-18 53,-30 95,-39 -16,-2 -39,3 -52,6 16,-11 50,-18 81,-22 -7,-1 -25,-1 -33,-1 44,-13 30,-9 64,-16 -4,0 -8,1 -11,1 0,0 1,-1 1,-1 -15,2 -26,4 -49,8 15,-7 36,-13 60,-17 -7,0 -13,1 -16,0 6,-7 35,-18 54,-17 -18,-4 -34,-6 -44,-2 18,-15 46,-22 79,-25 -11,-3 -30,-2 -40,-2 14,-8 42,-9 66,-9 -5,-2 -19,-4 -25,-5 40,-7 22,-4 61,-7 -23,-2 -30,-2 -55,-1 14,-5 34,-7 56,-8 2,-1 4,-2 7,-3 -2,0 -3,0 -5,0 5,-2 11,-4 16,-4 9,-3 19,-5 28,-5 -18,-4 -34,-6 -45,-2 18,-15 47,-21 80,-24 -11,-4 -30,-3 -41,-2 15,-8 41,-10 65,-9l0 -1c-5,-2 -18,-4 -24,-5 24,-4 27,-5 34,-5 2,-1 3,-2 4,-3 -9,0 -17,0 -32,1 11,-4 25,-7 40,-8 8,-6 18,-12 28,-18 -12,1 -28,10 -37,15 8,-12 28,-23 47,-32 0,-1 1,-2 1,-3 -6,1 -13,3 -18,4 15,-10 20,-13 24,-16 1,-2 3,-4 4,-6 -7,3 -14,7 -25,13 8,-8 19,-16 32,-23 3,-4 6,-7 8,-11 -4,2 -14,10 -19,14 17,-33 10,-21 27,-46l0 -2c-12,14 -17,19 -29,37 5,-19 19,-41 38,-63 2,-4 4,-8 6,-13 -7,6 -13,10 -21,26 1,-12 4,-25 13,-41 -5,3 -8,10 -12,14 1,-12 5,-24 14,-34 -10,6 -17,21 -21,24 1,-14 13,-52 26,-65 -13,8 -24,17 -29,30 5,-34 19,-64 39,-94 -9,4 -20,19 -26,28 5,-22 21,-45 37,-63 -5,1 -14,8 -19,11 6,-10 10,-16 12,-21 0,0 -1,1 -1,1 5,-8 10,-15 14,-21 3,-4 6,-8 11,-15 -16,15 -20,21 -35,41 10,-28 32,-58 58,-82 -93,-32 -18,-55 -13,-82 -4,-4 -6,-9 -7,-13 2,3 5,5 10,6l0 0c-4,-3 -9,-11 -9,-14 1,0 4,4 8,5 -4,-2 -5,-5 -6,-8 2,1 3,3 5,3 -4,-3 -5,-6 -5,-9 3,4 5,4 8,6 -7,-8 -8,-14 -8,-20 3,3 5,4 9,6 -5,-4 -6,-8 -7,-12 3,2 5,6 9,6 -3,-4 -6,-8 -5,-14 2,2 4,3 5,4 -1,-6 0,-12 1,-19 2,8 2,10 5,16 -2,-12 -2,-6 -3,-20 2,2 4,5 6,6 -3,-7 -5,-16 -3,-22 1,3 2,9 5,11 -1,-11 -1,-21 4,-31 -1,4 2,8 5,12 -2,-5 1,-17 3,-21 1,1 1,6 4,9 -2,-4 -1,-7 1,-11 1,2 1,4 2,6 0,-6 1,-10 4,-13 -1,5 1,7 3,9 0,-12 4,-20 9,-27 0,5 1,8 5,12 -2,-7 0,-12 3,-17 1,3 -1,9 4,10 0,-6 1,-11 7,-18 5,28 25,-59 26,-65 0,-24 7,-46 11,-58 22,-17 34,0 50,11 38,-3 46,84 49,34 21,-17 45,-7 52,33 4,23 4,99 30,137 9,3 16,6 21,10 -3,-1 -6,-2 -8,-2 3,2 7,5 10,7l0 0 0 0c2,2 3,4 3,5 6,2 10,5 13,8 -4,-1 -12,-4 -17,-3 14,5 25,13 32,23 -4,-3 -11,-4 -19,-4 8,2 19,11 22,16 -3,0 -9,-4 -15,-3 6,1 10,4 12,8 -3,-1 -5,-2 -8,-2 7,3 10,7 12,11 -6,-4 -10,-4 -15,-4 14,8 19,16 22,25 -5,-3 -9,-4 -14,-4 1,0 3,2 5,4 4,2 6,6 8,10 -3,-2 -6,-4 -9,-5 -1,1 -1,2 -2,4 3,1 5,3 6,6 17,2 14,7 24,15 -11,-4 -14,-5 -24,-6 16,6 9,2 26,11 -3,0 -9,-1 -12,0 11,2 23,7 28,13 -4,-2 -12,-5 -18,-4 15,6 26,13 33,23 -4,-3 -11,-4 -19,-4 8,2 19,12 21,16 -2,0 -8,-3 -14,-3 6,1 10,4 12,8 -3,0 -6,-2 -9,-2 8,4 11,7 12,11 -5,-3 -8,-4 -12,-4zm-263 849c-2,3 -5,6 -6,8 3,-2 5,-4 7,-5l1 2c-2,1 -4,4 -8,9 2,-1 7,-4 9,-4l0 0c-8,6 -17,14 -20,22 4,-3 10,-9 15,-10 -11,10 -19,21 -22,33 3,-5 9,-8 17,-11 -7,5 -14,18 -15,23 2,-1 7,-6 12,-8 -5,3 -7,7 -8,12 2,-2 4,-4 7,-5 -5,6 -7,10 -7,14 4,-5 8,-7 12,-9 -10,13 -12,23 -12,32 5,-5 8,-8 15,-10 -7,5 -9,12 -10,18 2,-2 4,-5 7,-7 -13,49 -30,107 -40,148 -13,-85 -5,-193 45,-255 0,0 0,1 1,3zm-142 -5c-12,22 -20,45 -24,69 6,-14 18,-25 34,-33 -15,14 -29,55 -30,71 4,-3 13,-20 25,-26 -11,11 -15,24 -17,38 4,-5 9,-13 14,-16 -11,18 -14,32 -15,45 8,-16 15,-21 23,-27l0 2c-18,38 -23,67 -23,95 7,-12 13,-20 21,-26 0,3 0,5 0,8 -8,14 -11,29 -12,45 3,-5 7,-12 10,-17 -1,14 -2,33 -4,58 -42,57 -178,50 -220,5 -16,-13 -28,-29 -36,-47 2,-6 3,-11 4,-17 8,7 4,18 5,27 7,-9 12,-20 9,-36l0 0c6,11 7,19 7,30 9,-10 17,-22 20,-42 2,-1 4,-2 5,-3 2,5 2,10 2,17 4,-5 7,-12 8,-23 0,0 1,0 1,-1 1,4 1,8 2,11 3,-4 4,-9 5,-15 0,0 1,-1 1,-1 2,7 2,14 3,16 4,-4 7,-15 9,-26 2,-2 4,-4 6,-6 3,7 3,13 2,19 6,-9 9,-20 11,-32 24,-30 45,-91 45,-147 0,-3 0,-6 0,-8 8,5 15,8 22,10 -5,-5 -14,-12 -20,-20 0,-1 0,-2 1,-3 23,16 46,27 69,28 -11,-4 -20,-15 -28,-30 12,13 41,22 52,21 -3,-4 -15,-11 -21,-22 8,10 17,13 27,13 -4,-4 -10,-7 -13,-13 8,5 14,8 20,9zm-304 162c-12,2 -24,3 -34,2 17,-4 22,-5 37,-10 -27,4 -14,3 -43,5 4,-2 12,-6 15,-9 -16,5 -35,8 -47,5 7,-2 20,-4 26,-9 -10,1 -19,2 -28,2 -29,22 -61,39 -96,51 -121,38 -172,113 -191,205 39,47 116,-43 192,-42 53,-44 64,-38 105,-45 0,-6 2,-12 5,-19 -4,3 -7,5 -9,12 -2,-4 -1,-9 3,-16 -3,1 -4,4 -6,7 0,-5 1,-10 5,-14 -5,3 -8,9 -10,11 -1,-5 3,-19 8,-26 -6,5 -11,10 -13,15 0,-12 5,-25 13,-38 -5,3 -10,10 -12,14 1,-9 8,-19 15,-27 -3,1 -7,5 -10,6 9,-16 5,-9 15,-24 -7,8 -9,10 -16,19 6,-19 24,-37 39,-49 12,-9 30,-17 37,-26z"/>
   <path fill="#ffffff" d="M281 2065c-428,-513 -360,-1275 154,-1704 332,-277 771,-346 1154,-220 -262,-38 -539,30 -758,213 -407,340 -462,946 -122,1354 340,407 946,462 1354,122 219,-183 336,-443 345,-707 56,399 -90,818 -423,1096 -513,428 -1276,359 -1704,-154z"/>
  </g>
 </g>
</svg>
