

<!-- Creator: CorelDRAW X6 -->
<svg xmlns="http://www.w3.org/2000/svg" x="0" y="0" xml:space="preserve" width="25mm" height="25mm" version="1.1" shape-rendering="geometricPrecision" text-rendering="geometricPrecision" image-rendering="optimizeQuality" fill-rule="evenodd" clip-rule="evenodd"
viewBox="0 0 2500 2500"
 xmlns:xlink="http://www.w3.org/1999/xlink"
 enable-background="new 0 0 600 785.8">
 <g id="Layer_x0020_1">
  <metadata id="CorelCorpID_0Corel-Layer"/>
 </g>
 <g id="Layer_x0020_1_0">
  <metadata id="CorelCorpID_1Corel-Layer"/>
 </g>
 <g id="Layer_x0020_1_0_1">
  <metadata id="CorelCorpID_2Corel-Layer"/>
 </g>
 <g id="Layer_x0020_1_0_2">
  <metadata id="CorelCorpID_3Corel-Layer"/>
 </g>
 <g id="Layer_x0020_1_3">
  <metadata id="CorelCorpID_4Corel-Layer"/>
 </g>
 <g id="Layer_x0020_1_0_4">
  <metadata id="CorelCorpID_5Corel-Layer"/>
 </g>
 <g id="Layer_x0020_1_0_5">
  <metadata id="CorelCorpID_6Corel-Layer"/>
 </g>
 <g id="Layer_x0020_1_0_6">
  <metadata id="CorelCorpID_7Corel-Layer"/>
 </g>
 <g id="Layer_x0020_1_0_7">
  <metadata id="CorelCorpID_8Corel-Layer"/>
 </g>
 <g id="Layer_x0020_1_0_2_8">
  <metadata id="CorelCorpID_9Corel-Layer"/>
 </g>
 <g id="Layer_x0020_1_0_2_8_9">
  <metadata id="CorelCorpID_10Corel-Layer"/>
 </g>
 <g id="Layer_x0020_1_0_10">
  <metadata id="CorelCorpID_11Corel-Layer"/>
 </g>
 <g id="Layer_x0020_1_1">
  <metadata id="CorelCorpID_12Corel-Layer"/>
 </g>
 <g id="Layer_x0020_1_11">
  <metadata id="CorelCorpID_13Corel-Layer"/>
 </g>
 <g id="Layer_x0020_1_12">
  <metadata id="CorelCorpID_14Corel-Layer"/>
 </g>
 <g id="Layer_x0020_1_12">
  <metadata id="CorelCorpID_15Corel-Layer"/>
 </g>
 <g id="Layer_x0020_1_13">
  <metadata id="CorelCorpID_16Corel-Layer"/>
 </g>
 <g id="Layer_x0020_1_13">
  <metadata id="CorelCorpID_17Corel-Layer"/>
  <g id="_128772088">
   <path fill="#4DB5E2" d="M2368 2500l-2237 0c-72,0 -132,-59 -132,-132l0 -2237c0,-72 59,-132 132,-132l2237 0c72,0 132,59 132,132l0 2237c0,72 -59,132 -132,132z"/>
   <path fill="#F5DB06" d="M1635 859c-104,-104 -242,-161 -389,-161 -147,0 -285,57 -389,161 -104,104 -162,242 -162,389 0,147 57,285 162,389 104,104 242,161 389,161 147,0 285,-57 389,-161 104,-104 161,-242 161,-389 0,-147 -57,-285 -161,-389z"/>
   <path fill="#F5DB06" d="M1246 566c47,0 86,-38 86,-86l0 -257c0,-47 -38,-86 -86,-86 -47,0 -86,38 -86,86l0 257c0,47 38,86 86,86z"/>
   <path fill="#F5DB06" d="M1246 1929c-47,0 -86,38 -86,86l0 257c0,47 38,86 86,86 47,0 86,-38 86,-86l0 -257c0,-47 -38,-86 -86,-86z"/>
   <path fill="#F5DB06" d="M2270 1162l-257 0c-47,0 -86,38 -86,86 0,47 38,86 86,86l257 0c47,0 86,-38 86,-86 0,-47 -38,-86 -86,-86z"/>
   <path fill="#F5DB06" d="M566 1248c0,-47 -38,-86 -86,-86l-257 0c-47,0 -86,38 -86,86 0,47 38,86 86,86l257 0c47,0 86,-38 86,-86z"/>
   <path fill="#F5DB06" d="M1850 1729c-33,-33 -88,-33 -122,0 -33,33 -33,87 0,122l182 182c33,33 88,33 122,0 33,-33 33,-87 0,-122l-182 -182z"/>
   <path fill="#F5DB06" d="M645 766c33,33 88,33 122,0 33,-33 33,-88 0,-122l-182 -182c-33,-33 -88,-33 -122,0 -33,33 -33,88 0,122l182 182z"/>
   <path fill="#F5DB06" d="M764 1733c-33,-33 -88,-33 -122,0l-182 182c-33,33 -33,87 0,122 33,33 88,33 122,0l182 -182c33,-33 33,-87 0,-122z"/>
   <path fill="#F5DB06" d="M1849 770l182 -182c33,-33 33,-88 0,-122 -33,-33 -88,-33 -122,0l-182 182c-33,33 -33,88 0,122 33,33 88,33 122,0z"/>
  </g>
 </g>
</svg>
