<?xml version="1.0" encoding="UTF-8" standalone="no"?>
<!-- Creator: CorelDRAW X8 -->
<svg
        xmlns:dc="http://purl.org/dc/elements/1.1/"
        xmlns:cc="http://creativecommons.org/ns#"
        xmlns:rdf="http://www.w3.org/1999/02/22-rdf-syntax-ns#"
        xmlns:svg="http://www.w3.org/2000/svg"
        xmlns="http://www.w3.org/2000/svg"
        xmlns:sodipodi="http://sodipodi.sourceforge.net/DTD/sodipodi-0.dtd"
        xmlns:inkscape="http://www.inkscape.org/namespaces/inkscape"
        xml:space="preserve"
        x="0"
        y="0"
        width="90.150948mm"
        height="25mm"
        version="1.1"
        viewBox="0 0 9014.9065 2500"
        id="svg3781"
        sodipodi:docname="ideological_gktrk_trk.svg"
        style="clip-rule:evenodd;fill-rule:evenodd;image-rendering:optimizeQuality;shape-rendering:geometricPrecision;text-rendering:geometricPrecision"
        inkscape:version="0.92.3 (2405546, 2018-03-11)"><metadata
   id="metadata3787"><rdf:RDF><cc:Work
       rdf:about=""><dc:format>image/svg+xml</dc:format><dc:type
        rdf:resource="http://purl.org/dc/dcmitype/StillImage" /></cc:Work></rdf:RDF></metadata><defs
        id="defs3785" /><sodipodi:namedview
        pagecolor="#ffffff"
        bordercolor="#666666"
        borderopacity="1"
        objecttolerance="10"
        gridtolerance="10"
        guidetolerance="10"
        inkscape:pageopacity="0"
        inkscape:pageshadow="2"
        inkscape:window-width="1366"
        inkscape:window-height="712"
        id="namedview3783"
        showgrid="false"
        inkscape:zoom="0.82618009"
        inkscape:cx="109.35368"
        inkscape:cy="15.436729"
        inkscape:window-x="720"
        inkscape:window-y="27"
        inkscape:window-maximized="1"
        inkscape:current-layer="svg3781" />
 <g
         id="Layer_x0020_1"
         transform="matrix(1.8867925,0,0,1.8867925,-0.04984724,0)">
  <metadata
          id="CorelCorpID_0Corel-Layer" />
  <g
          id="_2512386571776">
   <polygon
           points="640,502 570,381 564,196 230,265 230,795 769,697 795,1323 636,1254 575,1126 565,895 230,959 230,1325 0,1325 1,1 230,1 230,103 769,0 797,563 "
           id="polygon3771"
           style="fill:#ffffff;fill-rule:nonzero" />
   <polygon
           points="2451,331 2325,459 2123,264 1889,496 1889,1324 1663,1324 1663,496 1449,279 1261,462 1130,329 1459,0 1789,331 2120,1 "
           id="polygon3773"
           style="fill:#ffffff;fill-rule:nonzero" />
   <polygon
           points="3382,1 3610,1 3610,856 3015,266 3014,1323 2785,1323 2785,0 3018,0 3382,365 "
           id="polygon3775"
           style="fill:#ffffff;fill-rule:nonzero" />
   <polygon
           points="4548,1322 4469,762 4180,829 4180,1324 3951,1324 3951,1 4181,1 4181,631 4660,519 4778,1322 "
           id="polygon3777"
           style="fill:#ffffff;fill-rule:nonzero" />
  </g>
 </g>
</svg>