

<!-- Creator: CorelDRAW X8 -->
<svg xmlns="http://www.w3.org/2000/svg" xml:space="preserve" x="0" y="0" width="40.079mm" height="25mm" version="1.1" shape-rendering="geometricPrecision" text-rendering="geometricPrecision" image-rendering="optimizeQuality" fill-rule="evenodd" clip-rule="evenodd"
viewBox="0 0 2565 1600"
 xmlns:xlink="http://www.w3.org/1999/xlink">
 <g id="Katman_x0020_1">
  <metadata id="CorelCorpID_0Corel-Layer"/>
  <path fill="#FEFEFE" d="M1993 848c14,-10 28,-20 41,-28 9,-6 19,-9 30,-12l22 -6 4 23c1,5 1,21 2,29 6,0 14,-1 19,-3 10,-2 19,-4 28,-4 23,-3 36,19 34,40 0,9 -2,20 -2,30 24,-3 47,-13 69,-23 51,-26 108,-43 165,-42 44,1 87,25 104,66 17,41 21,84 25,127l0 0c11,142 12,284 25,425 3,21 6,42 6,63l0 67 -35 -33c-22,-21 -25,-48 -32,-75l0 -1 0 -1c-15,-106 -10,-212 -15,-319 -3,-64 -7,-128 -20,-190 -4,-18 -10,-45 -28,-55 -26,-15 -61,-9 -89,-2 -57,14 -108,44 -166,54l-1 0 0 0c-23,3 -45,5 -63,-12l-1 -1 0 0c-5,-5 -8,-11 -10,-17 -2,-9 -2,-17 -1,-27 0,0 0,-1 0,-3 -15,2 -28,3 -42,-3 -5,-1 -9,-3 -12,-6 -4,-4 -8,-7 -11,-11 -4,2 -9,6 -14,9 -15,10 -30,19 -48,23 -26,6 -57,-1 -63,-30l-1 -3 0 -2c0,-1 0,-2 0,-3 -13,9 -25,20 -36,30 -17,15 -11,51 -11,71l0 30 -28 -11c-14,-5 -20,-13 -28,-22 -22,6 -47,39 -87,31l-1 0 -1 -1c-25,-8 -29,-38 -16,-58 17,-25 45,-42 75,-47 2,0 5,-1 8,-1 -4,-11 -14,-21 -20,-29 -15,-16 -38,-38 -62,-34l0 0c-37,4 -71,25 -103,43 -51,30 -93,73 -149,97l-1 0 -1 0c-3,1 -6,3 -9,4 -15,4 -30,4 -42,-8l-6 -7 0 -9c2,-17 10,-26 16,-39l1 -1 0 -1c95,-168 197,-333 276,-510 30,-68 59,-138 72,-211 6,-37 10,-80 -9,-113 -13,-25 -43,-35 -70,-37 -60,-5 -119,13 -174,34 -133,52 -255,130 -371,213 -269,190 -511,417 -741,651 -85,86 -169,172 -251,260 -22,23 -44,46 -64,70 0,0 1,0 1,0l1 0c54,9 109,6 163,13l20 2 -3 40 -20 0c-56,-1 -112,2 -169,2l0 0c-24,-1 -46,-1 -65,-17l-8 -7 0 -27 3 -5c16,-26 37,-47 57,-71 35,-37 69,-74 104,-110 169,-174 342,-343 522,-506 95,-86 192,-169 293,-248 119,-94 242,-183 376,-255 85,-46 176,-85 273,-98l1 0 48 0 1 0c47,6 95,21 121,63 31,51 28,114 17,170 -22,99 -65,192 -110,283 -62,127 -134,249 -204,372 47,-32 93,-65 147,-85 39,-14 82,-17 119,2 30,16 49,40 71,64 27,-21 54,-41 82,-60l1 -1 0 0c17,-11 33,-22 54,-22l10 0 7 7c13,16 8,31 3,48l0 1 -1 1c0,1 -1,3 -2,5zm13 -144c-24,5 -45,15 -70,4l-3 -2 -3 -2c-6,-6 -10,-15 -9,-24 2,-13 11,-19 21,-25l1 0 0 0c39,-20 80,-29 121,-42 4,-2 8,-3 13,-4 24,-6 47,5 44,33l-1 8 -7 6c-30,25 -67,35 -105,47l-1 1 -1 0zm-1068 325c-25,-17 -47,-37 -69,-57l0 -1c-14,-14 -26,-25 -32,-44l-11 -38 38 12c29,9 50,29 73,48l0 1 1 0c20,19 40,36 52,62l17 38 -41 -9c-10,-2 -19,-6 -28,-12z"/>
 </g>
</svg>
