

<!-- Creator: CorelDRAW X6 -->
<svg xmlns="http://www.w3.org/2000/svg" x="0" y="0" xml:space="preserve" width="33mm" height="25mm" version="1.1" shape-rendering="geometricPrecision" text-rendering="geometricPrecision" image-rendering="optimizeQuality" fill-rule="evenodd" clip-rule="evenodd"
viewBox="0 0 3300 2500"
 xmlns:xlink="http://www.w3.org/1999/xlink"
 enable-background="new 0 0 600 785.8">
 <g id="Layer_x0020_1">
  <metadata id="CorelCorpID_0Corel-Layer"/>
 </g>
 <g id="Layer_x0020_1_0">
  <metadata id="CorelCorpID_1Corel-Layer"/>
 </g>
 <g id="Layer_x0020_1_0_1">
  <metadata id="CorelCorpID_2Corel-Layer"/>
 </g>
 <g id="Layer_x0020_1_0_2">
  <metadata id="CorelCorpID_3Corel-Layer"/>
 </g>
 <g id="Layer_x0020_1_3">
  <metadata id="CorelCorpID_4Corel-Layer"/>
 </g>
 <g id="Layer_x0020_1_0_4">
  <metadata id="CorelCorpID_5Corel-Layer"/>
 </g>
 <g id="Layer_x0020_1_0_5">
  <metadata id="CorelCorpID_6Corel-Layer"/>
 </g>
 <g id="Layer_x0020_1_0_6">
  <metadata id="CorelCorpID_7Corel-Layer"/>
 </g>
 <g id="Layer_x0020_1_0_7">
  <metadata id="CorelCorpID_8Corel-Layer"/>
 </g>
 <g id="Layer_x0020_1_0_2_8">
  <metadata id="CorelCorpID_9Corel-Layer"/>
 </g>
 <g id="Layer_x0020_1_0_2_8_9">
  <metadata id="CorelCorpID_10Corel-Layer"/>
 </g>
 <g id="Layer_x0020_1_0_10">
  <metadata id="CorelCorpID_11Corel-Layer"/>
 </g>
 <g id="Layer_x0020_1_1">
  <metadata id="CorelCorpID_12Corel-Layer"/>
 </g>
 <g id="Layer_x0020_1_11">
  <metadata id="CorelCorpID_13Corel-Layer"/>
 </g>
 <g id="Layer_x0020_1_12">
  <metadata id="CorelCorpID_14Corel-Layer"/>
 </g>
 <g id="Layer_x0020_1_12">
  <metadata id="CorelCorpID_15Corel-Layer"/>
 </g>
 <g id="Layer_x0020_1_13">
  <metadata id="CorelCorpID_16Corel-Layer"/>
 </g>
 <g id="Layer_x0020_1_13">
  <metadata id="CorelCorpID_17Corel-Layer"/>
  <g id="_628336272">
   <path fill="#92C3C2" d="M2526 2218c-106,11 -185,82 -294,62 -99,-17 -174,-65 -280,-55 -109,6 -195,72 -305,62 -103,-11 -195,-62 -297,-58 -89,3 -168,34 -257,55 -99,20 -148,-3 -243,-37 -75,-29 -140,-10 -214,7 13,98 19,158 19,158l918 0 152 0 918 0c0,0 7,-68 22,-179 -47,-11 -94,-17 -140,-15l-1 -1z"/>
   <path fill="#BEDAD9" d="M2271 1243c-369,-142 -619,-948 -621,-973l0 0c-2,25 -253,829 -621,973 -369,142 -776,-491 -776,-491 214,351 339,1159 384,1502 74,-17 139,-36 214,-7 96,34 143,58 243,37 89,-20 168,-51 257,-55 103,-3 195,48 297,58 109,11 195,-55 305,-62 106,-11 182,37 280,55 109,20 188,-51 294,-62 45,-3 93,4 140,15 47,-354 171,-1136 381,-1480 0,0 -407,634 -776,491l1 0z"/>
   <path fill="#92C3C2" d="M1613 1394c0,41 -72,106 -99,143 -62,92 -65,120 17,202 20,20 58,72 82,82 51,17 58,-28 79,-65 14,-28 45,-55 41,-89 -3,-45 -58,-106 -72,-151l-48 -123z"/>
   <path fill="#92C3C2" d="M1117 1610c-41,3 -72,72 -28,99 75,48 123,-62 34,-96l-6 -3z"/>
   <path fill="#92C3C2" d="M792 1627c-41,-11 -89,58 -48,96 65,58 126,-34 58,-89l-11 -6 1 -1z"/>
   <path fill="#92C3C2" d="M2161 1593c-37,-6 -99,28 -79,82 31,92 134,-11 99,-75l-20 -6 0 -1z"/>
   <path fill="#92C3C2" d="M2489 1624c-41,-17 -99,41 -68,82 45,68 130,-17 82,-82l-14 0z"/>
   <path fill="#DCE8E5" d="M253 752c0,0 19,28 56,75 36,47 91,111 162,183 72,71 162,149 276,202 57,27 120,43 184,40 32,-1 63,-10 94,-20 14,-6 31,-13 45,-21l21 -12 20 -14c55,-37 102,-86 144,-136 42,-50 79,-105 112,-158 66,-107 120,-213 161,-306 42,-93 73,-171 93,-227 10,-28 18,-49 22,-65 5,-15 7,-24 7,-24 0,0 -1,9 -5,24 -4,15 -11,37 -19,66 -18,57 -45,137 -84,231 -40,94 -89,202 -155,311 -33,55 -71,109 -113,161 -43,52 -91,102 -147,142l-21 15 -24 13c-16,10 -30,14 -47,22 -33,12 -67,19 -103,20 -69,2 -137,-16 -195,-44 -59,-28 -110,-63 -156,-100 -46,-37 -86,-76 -121,-112 -71,-74 -121,-142 -156,-190 -34,-48 -51,-78 -51,-78l-1 2z"/>
   <path fill="#DCE8E5" d="M1650 270c0,0 2,9 7,24 5,15 13,37 22,65 20,56 51,134 93,227 42,92 95,198 161,306 33,53 71,107 112,158 42,50 90,98 144,136 27,19 57,34 86,47 33,12 62,19 95,20 64,3 127,-14 184,-40 113,-52 204,-131 276,-202 72,-72 126,-136 162,-183 36,-47 56,-75 56,-75 0,0 -17,29 -51,78 -35,48 -86,117 -156,190 -35,36 -75,75 -121,112 -46,37 -97,73 -156,100 -58,28 -125,46 -195,44 -34,-1 -71,-10 -102,-20 -33,-14 -64,-29 -92,-50 -57,-40 -105,-90 -148,-142 -43,-52 -80,-107 -113,-161 -66,-109 -115,-218 -155,-311 -40,-94 -66,-174 -84,-231 -9,-28 -15,-50 -19,-66 -4,-15 -5,-24 -5,-24l-2 -2z"/>
   <path fill="#DCE8E5" d="M2752 2076c0,36 -36,66 -81,66l-2043 0c-45,0 -81,-30 -81,-66 0,-36 36,-66 81,-66l2043 0c45,0 81,30 81,66z"/>
   <path fill="#DCE8E5" d="M2752 2434c0,36 -36,66 -81,66l-2043 0c-45,0 -81,-30 -81,-66 0,-36 36,-66 81,-66l2043 0c45,0 81,30 81,66z"/>
   <path fill="#92C3C2" d="M2652 2142c0,0 -32,1 -87,2 -56,1 -135,3 -229,5 -95,1 -205,3 -324,4 -119,1 -245,1 -371,2 -126,-1 -253,-1 -371,-2 -119,0 -229,-3 -324,-4 -95,-1 -174,-4 -229,-5 -56,-2 -87,-2 -87,-2 0,0 32,-1 87,-2 56,-1 135,-3 229,-5 95,-1 205,-3 324,-4 119,-1 245,-1 371,-2 126,1 253,1 371,2 119,0 229,3 324,4 95,1 174,4 229,5 56,2 87,2 87,2z"/>
   <path fill="#92C3C2" d="M628 2009c0,0 32,-1 88,-2 56,-1 136,-3 232,-5 96,-1 207,-3 327,-4 120,-1 247,-1 375,-2 127,1 255,1 375,2 120,0 231,3 327,4 96,1 175,4 231,5 56,2 88,2 88,2 0,0 -32,1 -88,2 -56,1 -136,3 -231,5 -96,1 -207,3 -327,4 -120,1 -247,1 -375,2 -127,-1 -255,-1 -375,-2 -120,0 -231,-3 -327,-4 -96,-1 -175,-4 -232,-5 -56,-2 -88,-2 -88,-2z"/>
   <path fill="#709C9A" d="M683 2367c0,0 31,-1 84,-2 53,-1 130,-3 222,-5 92,-1 200,-3 315,-4 115,-1 238,-1 361,-2 123,1 246,1 361,2 115,0 222,3 315,4 92,1 169,4 222,5 53,2 84,2 84,2 0,0 -31,1 -84,2 -53,1 -130,3 -222,5 -92,1 -200,3 -315,4 -115,1 -238,1 -361,2 -123,-1 -246,-1 -361,-2 -115,0 -222,-3 -315,-4 -92,-1 -169,-4 -222,-5 -53,-2 -84,-2 -84,-2z"/>
   <path fill="#CD252F" d="M189 757c55,-19 79,-127 127,-167 11,-10 21,-17 32,-26 -29,-45 -80,-75 -138,-75 -91,0 -165,74 -165,165 0,34 11,66 29,93 38,13 79,25 113,11l1 -1z"/>
   <path fill="#AB2C2C" d="M317 590c-49,40 -74,147 -127,167 -34,14 -75,2 -113,-11 30,43 79,72 136,72 91,0 165,-74 165,-165 0,-33 -10,-63 -27,-90 -12,7 -22,16 -32,26l-1 1z"/>
   <path fill="#E5293A" d="M172 545l-3 2c-16,13 -24,34 -11,62 22,45 94,19 97,-26 3,-49 -50,-63 -84,-38l1 0z"/>
   <path fill="#AB2C2C" d="M1623 207c-52,-37 -91,-72 -136,-76 -3,12 -4,25 -4,37 0,92 75,167 167,167 72,0 133,-45 156,-109 -55,30 -115,32 -183,-19z"/>
   <path fill="#CD252F" d="M1650 1c-79,0 -145,56 -162,129 45,4 83,38 136,76 67,50 128,49 183,19 6,-18 11,-37 11,-59 0,-92 -75,-167 -167,-167l0 1z"/>
   <path fill="#E5293A" d="M1660 45c-32,11 -48,53 -11,80 80,53 118,-86 27,-80l-16 0z"/>
   <path fill="#CD252F" d="M1617 1689c40,7 66,-58 99,-73 19,-10 36,-12 55,-11l-139 -213c-15,38 -82,140 -115,197 3,1 6,2 10,3 38,19 47,87 91,95l0 1z"/>
   <path fill="#AB2C2C" d="M1716 1616c-33,15 -60,80 -99,73 -44,-9 -52,-75 -91,-95 -3,-1 -6,-2 -10,-3 -11,18 -17,32 -18,37 0,6 72,91 137,171 51,-45 115,-115 148,-174l-13 -19c-17,-1 -35,1 -55,10l1 1z"/>
   <path fill="#E5293A" d="M1686 1574c47,-40 -31,-165 -68,-92 -24,46 10,140 68,92z"/>
   <path fill="#EEF5F6" d="M1167 1695c13,-26 4,-65 -43,-83l-6 -3c-2,0 -4,1 -7,1 6,-5 15,-9 26,-10 1,0 2,0 3,0 25,0 41,29 45,52 4,20 -3,34 -18,42l1 1z"/>
   <path fill="#E4EFEF" d="M1139 1704c-22,0 -38,-19 -43,-42 -4,-21 0,-41 15,-51 2,-1 4,-1 7,-1l6 3c47,18 56,57 43,83 -5,2 -11,4 -17,6 -4,1 -7,1 -11,1l-1 0z"/>
   <path fill="#EEF5F6" d="M822 1722c16,-22 15,-61 -19,-89l-10 -6c0,0 0,0 0,0 18,0 37,13 49,27 19,20 14,40 -5,59 -4,4 -10,7 -15,10z"/>
   <path fill="#E4EFEF" d="M809 1724c-14,0 -29,-7 -40,-19 -21,-24 -24,-52 3,-73 5,-4 12,-6 19,-6l10 6c35,28 36,66 19,89 -4,1 -9,2 -13,2l1 1z"/>
   <path fill="#CD252F" d="M3111 757c-55,-19 -79,-127 -127,-167 -11,-10 -21,-17 -32,-26 29,-45 80,-75 138,-75 91,0 165,74 165,165 0,34 -11,66 -29,93 -38,13 -79,25 -113,11l-1 -1z"/>
   <path fill="#AB2C2C" d="M2983 590c49,40 74,147 127,167 34,14 75,2 113,-11 -30,43 -79,72 -136,72 -91,0 -165,-74 -165,-165 0,-33 10,-63 27,-90 12,7 22,16 32,26l1 1z"/>
   <path fill="#E5293A" d="M3129 529c-16,37 -21,123 37,128 96,5 11,-123 -21,-144l-16 16z"/>
   <path fill="#EEF5F6" d="M2161 1704c-3,0 -7,0 -11,-1 -1,0 -1,0 -2,0 27,-18 48,-60 36,-94 18,10 26,31 20,55 -5,21 -20,42 -43,42l-1 -1z"/>
   <path fill="#E4EFEF" d="M2149 1702c-26,-6 -38,-20 -33,-47 4,-25 21,-52 46,-52 1,0 2,0 3,0 7,1 14,3 20,5 12,34 -9,76 -36,94z"/>
   <path fill="#EEF5F6" d="M2491 1724c-2,0 -4,0 -6,-1 28,-16 46,-60 21,-97 1,0 1,0 2,0 6,0 14,2 19,6 27,20 26,49 3,73 -11,12 -26,19 -40,19z"/>
   <path fill="#E4EFEF" d="M2484 1724c-7,-1 -15,-5 -20,-12 -19,-19 -25,-38 -5,-59 12,-14 30,-26 47,-27 25,37 6,80 -21,97z"/>
  </g>
 </g>
</svg>
