

<!-- Creator: CorelDRAW X6 -->
<svg xmlns="http://www.w3.org/2000/svg" x="0" y="0" xml:space="preserve" width="27mm" height="25mm" version="1.1" shape-rendering="geometricPrecision" text-rendering="geometricPrecision" image-rendering="optimizeQuality" fill-rule="evenodd" clip-rule="evenodd"
viewBox="0 0 2700 2500"
 xmlns:xlink="http://www.w3.org/1999/xlink"
 enable-background="new 0 0 600 785.8">
 <g id="Layer_x0020_1">
  <metadata id="CorelCorpID_0Corel-Layer"/>
 </g>
 <g id="Layer_x0020_1_0">
  <metadata id="CorelCorpID_1Corel-Layer"/>
 </g>
 <g id="Layer_x0020_1_0_1">
  <metadata id="CorelCorpID_2Corel-Layer"/>
 </g>
 <g id="Layer_x0020_1_0_2">
  <metadata id="CorelCorpID_3Corel-Layer"/>
 </g>
 <g id="Layer_x0020_1_3">
  <metadata id="CorelCorpID_4Corel-Layer"/>
 </g>
 <g id="Layer_x0020_1_0_4">
  <metadata id="CorelCorpID_5Corel-Layer"/>
 </g>
 <g id="Layer_x0020_1_0_5">
  <metadata id="CorelCorpID_6Corel-Layer"/>
 </g>
 <g id="Layer_x0020_1_0_6">
  <metadata id="CorelCorpID_7Corel-Layer"/>
 </g>
 <g id="Layer_x0020_1_0_7">
  <metadata id="CorelCorpID_8Corel-Layer"/>
 </g>
 <g id="Layer_x0020_1_0_2_8">
  <metadata id="CorelCorpID_9Corel-Layer"/>
 </g>
 <g id="Layer_x0020_1_0_2_8_9">
  <metadata id="CorelCorpID_10Corel-Layer"/>
 </g>
 <g id="Layer_x0020_1_0_10">
  <metadata id="CorelCorpID_11Corel-Layer"/>
 </g>
 <g id="Layer_x0020_1_1">
  <metadata id="CorelCorpID_12Corel-Layer"/>
 </g>
 <g id="Layer_x0020_1_11">
  <metadata id="CorelCorpID_13Corel-Layer"/>
 </g>
 <g id="Layer_x0020_1_12">
  <metadata id="CorelCorpID_14Corel-Layer"/>
 </g>
 <g id="Layer_x0020_1_12">
  <metadata id="CorelCorpID_15Corel-Layer"/>
 </g>
 <g id="Layer_x0020_1_13">
  <metadata id="CorelCorpID_16Corel-Layer"/>
 </g>
 <g id="Layer_x0020_1_13">
  <metadata id="CorelCorpID_17Corel-Layer"/>
  <g id="_630267744">
   <path fill="#E6AED0" d="M468 1702c39,-6 4,-39 19,-61 14,-25 38,-25 62,-20l-122 -242c8,25 -58,70 -83,91 0,72 30,139 60,208 25,-12 35,33 64,24z"/>
   <path fill="#D590BD" d="M549 1620c-24,-4 -47,-4 -62,20 -16,23 19,55 -19,61 -28,9 -40,-35 -64,-24 13,30 26,62 35,94 83,17 124,71 178,-17l-68 -135 0 1z"/>
   <path fill="#E6AED0" d="M2259 1702c-39,-6 -4,-39 -19,-61 -14,-25 -38,-25 -62,-20l122 -242c-8,25 58,70 82,91 0,72 -30,139 -60,208 -25,-12 -35,33 -64,24l1 0z"/>
   <path fill="#D590BD" d="M2177 1620c24,-4 47,-4 62,20 16,23 -19,55 19,61 28,9 40,-35 64,-24 -13,30 -26,62 -35,94 -83,17 -124,71 -178,-17l68 -135 0 1z"/>
   <path fill="#FFD54D" d="M1285 2438l808 0 0 -53 0 -266 452 -1623c0,0 -679,576 -692,580 -12,4 -491,-841 -491,-841 0,0 -475,846 -487,841 -12,-4 -692,-580 -692,-580l452 1623 0 266 0 53 808 0 -157 0 -1 0z"/>
   <path fill="#E9AE17" d="M1404 1326c-14,-21 -50,-47 -72,-68 -50,25 -89,72 -126,115 -54,65 -21,133 -18,215 4,68 0,129 54,165 40,25 115,79 161,93 28,-43 68,-89 86,-136 21,-68 -11,-140 -28,-208l-58 -175z"/>
   <path fill="#E9AE17" d="M1777 1422c-40,11 -93,68 -61,119 58,86 201,-40 82,-107l-21 -11 0 -1z"/>
   <path fill="#E9AE17" d="M1985 1459c-43,21 -61,100 0,119 89,28 86,-100 18,-122l-18 4z"/>
   <path fill="#E9AE17" d="M949 1429c-72,11 -72,122 7,129 82,4 75,-107 4,-126l-11 -4z"/>
   <path fill="#E9AE17" d="M723 1462c-61,14 -75,140 4,136 68,-4 68,-122 7,-136l-11 0z"/>
   <path fill="#CD72AB" d="M675 1473c-34,25 -51,81 -8,109 57,35 126,-36 89,-91 -25,-37 -58,-35 -81,-17l0 -1z"/>
   <path fill="#CD72AB" d="M920 1436c-14,5 -27,15 -34,29 -20,39 9,104 58,101 44,-2 65,-60 52,-97 -11,-32 -47,-44 -77,-34l0 1z"/>
   <path fill="#D590BD" d="M1462 1440c-68,-35 0,100 -19,133 -39,65 -78,-55 -104,-71 0,19 16,113 4,127 -33,26 -55,-35 -71,-51 -19,-26 -35,-35 -51,-30 0,55 1,102 4,107 9,16 120,106 157,140 66,-45 140,-152 139,-162 -1,-49 -1,-89 -1,-128 -16,-29 -35,-54 -58,-64l0 -1z"/>
   <path fill="#E6AED0" d="M1369 1246c-43,45 -103,91 -148,136 0,36 -1,105 0,163 16,-4 33,4 51,30 16,16 39,78 71,51 13,-13 -4,-107 -4,-127 26,16 65,136 104,71 19,-33 -49,-168 19,-133 22,10 42,35 58,64 0,-40 1,-79 1,-125l-151 -133 -1 2z"/>
   <path fill="#F1D2E6" d="M1355 1313c-29,0 -123,107 -94,123 29,13 23,-26 35,-33 6,-6 29,4 33,0 4,-4 16,-23 16,-23 13,-10 74,-45 33,-65l-23 -4 0 1z"/>
   <path fill="#CD72AB" d="M2052 1473c34,25 51,81 8,109 -57,35 -126,-36 -89,-91 25,-37 58,-35 81,-17l0 -1z"/>
   <path fill="#CD72AB" d="M1807 1436c14,5 27,15 34,29 20,39 -9,104 -58,101 -44,-2 -65,-60 -52,-97 11,-32 47,-44 77,-34l0 1z"/>
   <path fill="#D590BD" d="M1345 183c-42,-2 -69,-54 -115,-40 4,70 62,127 134,127 74,0 135,-60 135,-135 0,-12 -2,-24 -5,-35 -27,1 -52,5 -73,19 -32,21 -32,66 -75,63z"/>
   <path fill="#E6AED0" d="M1363 0c-74,0 -135,60 -135,135 0,3 1,5 1,8 46,-14 73,38 115,40 44,2 44,-42 75,-63 20,-15 46,-19 73,-19 -15,-58 -67,-100 -129,-100z"/>
   <path fill="#D590BD" d="M2600 439c-19,-8 -21,2 -34,-19 -8,-17 2,-40 -11,-58 -29,-40 -95,0 -126,-38 -4,-5 -7,-11 -9,-17 -7,17 -12,35 -12,55 0,74 60,135 135,135 35,0 66,-13 90,-35 -8,-14 -15,-12 -34,-21l-1 -1z"/>
   <path fill="#E6AED0" d="M2678 361c0,-74 -60,-135 -135,-135 -55,0 -102,33 -122,80 2,6 4,12 9,17 32,38 97,-2 126,38 12,19 2,42 11,58 12,21 15,11 34,19 19,10 26,7 34,21 27,-25 44,-59 44,-99l0 1z"/>
   <path fill="#E6AED0" d="M156 269c-74,0 -135,60 -135,135 0,29 10,56 26,78 2,-8 4,-14 6,-19 29,-52 52,-17 97,-11 57,6 55,-46 74,-86 9,-21 21,-37 36,-47 -25,-30 -62,-50 -104,-50z"/>
   <path fill="#D590BD" d="M224 366c-19,40 -17,92 -74,86 -44,-6 -67,-42 -97,11 -3,5 -4,12 -6,19 25,34 64,56 109,56 74,0 135,-60 135,-135 0,-32 -12,-61 -31,-85 -15,10 -27,25 -36,47l0 1z"/>
   <path fill="#FAB51A" d="M2188 2442c0,32 -34,58 -76,58l-1488 0c-42,0 -76,-26 -76,-58 0,-32 34,-58 76,-58l1488 0c42,0 76,26 76,58z"/>
   <path fill="#FAB51A" d="M2188 2132c0,32 -34,58 -76,58l-1488 0c-42,0 -76,-26 -76,-58 0,-32 34,-58 76,-58l1488 0c42,0 76,26 76,58z"/>
   <path fill="#E38C1D" d="M624 2385c0,0 23,-1 64,-3 41,-1 99,-4 168,-4 70,-1 151,-4 238,-4 87,-1 180,-1 273,-2 93,1 186,1 273,2 87,0 168,3 238,4 70,1 128,4 168,4 41,2 64,3 64,3 0,0 -23,1 -64,3 -41,1 -99,4 -168,4 -70,1 -151,4 -238,4 -87,1 -180,1 -273,2 -93,-1 -186,-1 -273,-2 -87,-1 -168,-3 -238,-4 -70,-1 -128,-4 -168,-4 -41,-2 -64,-3 -64,-3z"/>
   <path fill="#E38C1D" d="M2057 2190c0,0 -22,1 -62,3 -39,1 -95,4 -162,4 -67,1 -145,4 -229,4 -84,1 -174,1 -263,2 -89,-1 -179,-1 -263,-2 -84,0 -162,-3 -229,-4 -67,-1 -123,-4 -162,-4 -39,-2 -62,-3 -62,-3 0,0 22,-1 62,-3 39,-1 95,-4 162,-4 67,-1 145,-4 229,-4 84,-1 174,-1 263,-2 89,1 179,1 263,2 84,1 162,3 229,4 67,1 123,4 162,4 39,2 62,3 62,3z"/>
   <path fill="#E38C1D" d="M624 2074c0,0 23,-1 64,-3 41,-1 99,-4 168,-4 70,-1 151,-4 238,-4 87,-1 180,-1 273,-2 93,1 186,1 273,2 87,0 168,3 238,4 70,1 128,4 168,4 41,2 64,3 64,3 0,0 -23,1 -64,3 -41,1 -99,4 -168,4 -70,1 -151,4 -238,4 -87,1 -180,1 -273,2 -93,-1 -186,-1 -273,-2 -87,-1 -168,-3 -238,-4 -70,-1 -128,-4 -168,-4 -41,-2 -64,-3 -64,-3z"/>
   <path fill="#E6AED0" d="M695 1480c-4,21 0,43 21,47 58,14 21,-93 -21,-40l0 -7z"/>
   <path fill="#E6AED0" d="M913 1455c-7,21 -4,35 18,40 40,4 21,-72 -18,-35l0 -4 0 -1z"/>
   <path fill="#E6AED0" d="M1780 1455c-7,0 -21,7 -21,28 4,72 100,-25 25,-21l-4 -7z"/>
   <path fill="#E6AED0" d="M2013 1480c-7,11 -14,32 -7,47 28,43 79,-36 11,-43l-4 -4z"/>
   <path fill="#E38C1D" d="M290 695l306 277 306 279 -14 2c77,-139 156,-277 234,-415l235 -415c4,-6 11,-8 17,-4l4 4 239 415c80,138 159,277 238,415l-14 -2 289 -279 290 -277 -283 285 -283 283c-4,4 -9,4 -12,0l-1 -2 0 0c-81,-137 -162,-275 -242,-414l-241 -414 21 0 -236 414c-79,138 -158,276 -237,414l0 0c-3,4 -8,5 -12,4l-2 -1 -301 -283 -299 -285 0 -2z"/>
   <path fill="#E38C1D" d="M576 1910c0,0 25,-1 67,-3 43,-1 105,-4 178,-4 74,-1 159,-4 252,-4 92,-1 190,-1 288,-2 98,1 196,1 288,2 92,0 178,3 252,4 74,1 135,4 178,4 43,2 67,3 67,3 0,0 -25,1 -67,3 -43,1 -104,4 -178,4 -74,1 -159,4 -252,4 -92,1 -190,1 -288,2 -98,-1 -196,-1 -288,-2 -92,-1 -178,-3 -252,-4 -74,-1 -135,-4 -178,-4 -43,-2 -67,-3 -67,-3z"/>
  </g>
 </g>
</svg>
