

<!-- Creator: CorelDRAW X6 -->
<svg xmlns="http://www.w3.org/2000/svg" x="0" y="0" xml:space="preserve" width="37mm" height="25mm" version="1.1" shape-rendering="geometricPrecision" text-rendering="geometricPrecision" image-rendering="optimizeQuality" fill-rule="evenodd" clip-rule="evenodd"
viewBox="0 0 3700 2500"
 xmlns:xlink="http://www.w3.org/1999/xlink"
 enable-background="new 0 0 600 785.8">
 <g id="Layer_x0020_1">
  <metadata id="CorelCorpID_0Corel-Layer"/>
 </g>
 <g id="Layer_x0020_1_0">
  <metadata id="CorelCorpID_1Corel-Layer"/>
 </g>
 <g id="Layer_x0020_1_0_1">
  <metadata id="CorelCorpID_2Corel-Layer"/>
 </g>
 <g id="Layer_x0020_1_0_2">
  <metadata id="CorelCorpID_3Corel-Layer"/>
 </g>
 <g id="Layer_x0020_1_3">
  <metadata id="CorelCorpID_4Corel-Layer"/>
 </g>
 <g id="Layer_x0020_1_0_4">
  <metadata id="CorelCorpID_5Corel-Layer"/>
 </g>
 <g id="Layer_x0020_1_0_5">
  <metadata id="CorelCorpID_6Corel-Layer"/>
 </g>
 <g id="Layer_x0020_1_0_6">
  <metadata id="CorelCorpID_7Corel-Layer"/>
 </g>
 <g id="Layer_x0020_1_0_7">
  <metadata id="CorelCorpID_8Corel-Layer"/>
 </g>
 <g id="Layer_x0020_1_0_2_8">
  <metadata id="CorelCorpID_9Corel-Layer"/>
 </g>
 <g id="Layer_x0020_1_0_2_8_9">
  <metadata id="CorelCorpID_10Corel-Layer"/>
 </g>
 <g id="Layer_x0020_1_0_10">
  <metadata id="CorelCorpID_11Corel-Layer"/>
 </g>
 <g id="Layer_x0020_1_1">
  <metadata id="CorelCorpID_12Corel-Layer"/>
 </g>
 <g id="Layer_x0020_1_11">
  <metadata id="CorelCorpID_13Corel-Layer"/>
 </g>
 <g id="Layer_x0020_1_12">
  <metadata id="CorelCorpID_14Corel-Layer"/>
 </g>
 <g id="Layer_x0020_1_12">
  <metadata id="CorelCorpID_15Corel-Layer"/>
 </g>
 <g id="Layer_x0020_1_13">
  <metadata id="CorelCorpID_16Corel-Layer"/>
 </g>
 <g id="Layer_x0020_1_13">
  <metadata id="CorelCorpID_17Corel-Layer"/>
  <g id="_182451128">
   <path fill="#EB9D15" d="M2646 1791c-54,-175 -219,-175 -296,-11 -88,-121 -351,-197 -351,33 -77,-99 -307,-110 -296,54 -44,-99 -175,-264 -253,-99 -33,-88 -132,-132 -197,-54 -77,-65 -197,-77 -219,33 -41,-92 -115,-126 -191,-119 21,113 36,235 46,369l1923 0c8,-115 22,-221 39,-321 -92,-67 -195,-68 -202,115l-1 0z"/>
   <path fill="#FAB71E" d="M3664 385c-392,-75 -604,196 -604,196 -46,-279 -292,-317 -292,-317 271,425 -67,1050 -304,1054 -236,4 -202,-275 -200,-317 -60,-6 -102,-21 -111,-24 -85,-40 -119,-140 -94,-226 23,-85 106,-122 185,-136 40,-7 90,10 129,18 18,4 91,27 92,48 -17,-300 -379,-183 -379,-183 67,-363 -225,-491 -225,-491l-11 -5 -11 5c0,0 -292,129 -225,491 0,0 -363,-116 -379,183 1,-22 74,-45 92,-48 40,-8 90,-25 129,-18 79,13 162,51 185,136 24,87 -11,188 -94,226 -10,5 -52,18 -111,24 2,42 36,322 -200,317 -237,-4 -575,-629 -304,-1054 0,0 -246,38 -292,317 0,0 -213,-271 -604,-196 0,0 615,190 807,1243 76,-7 149,27 191,119 22,-110 143,-99 219,-33 65,-77 165,-33 197,54 76,-165 208,0 253,99 -11,-165 219,-154 296,-54 0,-231 264,-154 351,-33 77,-165 242,-165 296,11 7,-183 110,-180 202,-115 183,-1095 815,-1291 815,-1291l-4 0z"/>
   <path fill="#EB9D15" d="M1838 6c0,0 1,31 4,86 1,54 5,133 6,227 1,94 4,204 5,322 1,117 1,243 2,369 -1,126 -1,252 -2,369 0,117 -4,227 -5,322 -1,94 -5,173 -6,227 -2,54 -4,86 -4,86 0,0 -1,-31 -4,-86 -1,-54 -5,-133 -6,-227 -1,-94 -5,-204 -5,-322 -1,-117 -1,-243 -2,-369 1,-126 1,-252 2,-369 0,-117 4,-227 5,-322 1,-94 5,-173 6,-227 2,-54 2,-86 2,-86l1 0z"/>
   <path fill="#EB9D15" d="M1779 1341c-132,11 -219,264 -99,329 175,110 318,-186 143,-307l-44 -22z"/>
   <path fill="#EB9D15" d="M1141 1289c0,0 -16,-10 -42,-25 -12,-10 -27,-22 -44,-36 -15,-16 -34,-33 -50,-54 -17,-22 -35,-45 -51,-71 -18,-25 -33,-54 -48,-85 -7,-16 -13,-31 -21,-47 -7,-16 -13,-33 -19,-50 -6,-17 -11,-34 -17,-51l-13 -53c-5,-17 -7,-35 -10,-53 -2,-18 -6,-35 -7,-53 -2,-35 -5,-70 -2,-105 1,-17 1,-34 4,-50 2,-16 5,-31 8,-47 4,-31 15,-59 22,-85 6,-27 19,-48 28,-69 8,-21 18,-36 27,-50 17,-27 27,-41 27,-41 0,0 -7,16 -21,45 -7,15 -16,30 -22,52 -4,10 -7,21 -11,33 -4,11 -8,23 -11,36 -5,25 -15,53 -16,83 -1,15 -4,30 -5,46 -1,16 -1,31 -1,48 -2,33 2,67 5,100 1,17 5,34 7,52 2,17 5,35 10,52l12 51c5,17 11,33 16,50 5,17 11,33 17,48 6,16 12,31 19,46 15,29 27,59 42,85 15,27 30,50 46,71 15,22 31,40 45,57 16,16 28,28 39,39 24,19 39,30 39,30l-1 1z"/>
   <path fill="#EB9D15" d="M1613 497c0,0 -7,-1 -22,-2 -13,-2 -33,-4 -56,-5 -23,-1 -50,-2 -79,-1 -28,1 -58,6 -86,15 -28,8 -53,23 -73,42 -10,10 -18,19 -25,30 -7,11 -12,22 -17,31 -4,11 -8,21 -11,29 -2,8 -6,17 -6,23 -2,13 -5,21 -5,21 0,0 -1,-7 -1,-22 0,-7 1,-16 1,-25 1,-10 2,-21 6,-33 1,-6 4,-12 6,-18 2,-6 6,-12 8,-19 4,-6 7,-12 11,-19 5,-6 10,-12 15,-18 11,-11 23,-23 38,-31 15,-8 29,-16 45,-21 31,-10 64,-13 94,-13 30,0 58,5 81,11 46,11 75,25 75,25l0 1z"/>
   <path fill="#EB9D15" d="M2085 497c0,-12 0,-25 1,-38 0,-12 2,-25 0,-38l-2 -36c0,-12 -2,-24 -4,-36 -2,-12 -4,-24 -6,-35l-8 -35c-2,-12 -7,-23 -11,-34 -4,-11 -8,-23 -13,-33 -6,-11 -10,-22 -16,-31 -6,-10 -12,-21 -19,-30 -7,-10 -13,-19 -21,-29l-23 -28c-8,-8 -16,-18 -25,-25 -8,-8 -18,-17 -27,-24 -19,-16 -38,-31 -61,-42l1 0 -12 4 11 -6 1 0 0 0c12,2 24,8 35,13 11,6 23,11 34,18 11,6 22,13 31,22 11,7 19,16 29,24 18,17 35,36 51,57 7,10 15,22 21,33 7,11 12,23 18,34 6,11 11,23 15,36 4,12 10,24 11,36l7 38c2,12 2,25 2,38 1,12 2,25 0,38l-4 38c-1,12 -5,24 -7,36 -2,12 -6,24 -8,36l-1 1z"/>
   <path fill="#EB9D15" d="M2465 681c0,0 -2,-7 -5,-21 -1,-7 -4,-15 -6,-23 -2,-8 -7,-18 -11,-29 -5,-11 -11,-21 -17,-31 -7,-11 -16,-21 -25,-30 -19,-18 -45,-34 -73,-41 -13,-5 -28,-7 -42,-11 -15,-2 -29,-4 -44,-5 -28,-1 -56,-1 -79,0 -23,1 -42,4 -56,5 -13,1 -22,2 -22,2 0,0 28,-15 75,-25 23,-6 51,-10 81,-11 30,-1 63,2 94,13 16,5 31,12 45,21 15,8 27,19 38,31 5,6 10,12 15,18 4,6 7,13 11,19 2,6 6,13 8,19 2,6 4,12 6,18 2,12 5,23 6,33 0,10 1,18 1,25 0,13 -1,22 -1,22z"/>
   <path fill="#EB9D15" d="M2768 264c0,0 2,4 7,12 5,7 13,18 22,33 8,15 19,33 28,54 11,22 19,47 28,75 8,28 16,59 21,93 5,34 8,69 8,106 0,36 -2,75 -7,114 -6,39 -13,77 -24,115 -22,76 -52,149 -88,213 -18,33 -39,62 -59,88 -22,27 -42,51 -64,70 -22,21 -44,36 -64,48 -21,13 -40,21 -57,25 -17,5 -30,7 -39,7 -10,0 -15,0 -15,0 0,0 5,-1 13,-2 8,-1 22,-5 38,-11 16,-6 34,-16 52,-30 19,-13 39,-31 58,-51 40,-41 79,-97 113,-159 34,-63 63,-134 83,-207 10,-36 18,-74 24,-111 5,-38 10,-74 10,-109 1,-35 0,-70 -4,-103 -2,-33 -8,-63 -15,-91 -7,-28 -13,-53 -22,-75 -7,-23 -16,-41 -23,-56 -15,-30 -24,-47 -24,-47l0 -4z"/>
   <path fill="#EB9D15" d="M3664 385c0,0 -11,0 -29,-1 -10,0 -21,-1 -33,-2 -13,-1 -27,0 -42,0 -16,1 -31,0 -50,2 -17,2 -36,2 -54,6 -18,4 -39,6 -58,11 -19,6 -40,8 -58,16 -19,6 -39,12 -57,21 -18,7 -36,16 -53,24 -34,18 -64,36 -90,54 -25,17 -46,34 -59,46 -13,12 -22,19 -22,19 0,0 5,-8 17,-23 12,-15 29,-34 52,-56 12,-11 25,-22 40,-33 15,-11 30,-22 48,-31 17,-10 35,-21 54,-28 19,-10 39,-16 59,-23 19,-7 41,-11 62,-16 21,-5 41,-6 60,-8 19,-2 39,-1 57,-1 18,-1 35,2 51,4 16,2 30,2 42,6 12,2 23,5 31,7 18,4 28,7 28,7l2 -1z"/>
   <path fill="#EB9D15" d="M638 581c0,0 -7,-7 -22,-19 -13,-12 -34,-28 -59,-46 -25,-18 -56,-36 -90,-54 -17,-8 -35,-17 -53,-24 -18,-8 -38,-15 -57,-21 -19,-7 -39,-11 -58,-16 -19,-5 -39,-7 -58,-11 -19,-2 -38,-4 -54,-6 -17,-2 -34,-1 -50,-2 -16,0 -30,-1 -42,0 -12,1 -23,1 -33,2 -18,1 -29,1 -29,1 0,0 10,-2 28,-7 8,-2 19,-5 33,-7 12,-4 27,-5 42,-6 16,-1 33,-5 51,-4 18,0 38,0 57,1 19,2 40,4 60,8 21,5 41,8 62,16 21,7 40,13 59,23 19,7 38,18 54,28 17,10 33,21 48,31 15,11 28,22 40,33 24,21 41,41 52,56 12,15 17,23 17,23l1 1z"/>
   <path fill="#CD252F" d="M1717 1581c60,28 99,-77 160,-88 33,-6 68,2 104,17 -2,-88 -75,-160 -165,-160 -76,0 -139,52 -159,121 23,33 16,90 59,109l0 1z"/>
   <path fill="#AB2C2C" d="M1875 1493c-61,11 -99,115 -160,88 -44,-19 -36,-77 -59,-109 -4,15 -6,28 -6,44 0,91 74,165 165,165 91,0 165,-74 165,-165l0 -5c-36,-15 -71,-24 -104,-17l0 -1z"/>
   <path fill="#ECE9DE" d="M849 1828c-99,-143 -247,88 -88,154 -171,-22 -160,208 44,175 -76,29 -137,99 -82,154 61,65 214,11 264,-44 -17,54 -22,121 28,154 88,54 143,-54 175,-115 6,165 280,175 247,11 39,121 203,220 236,33 -82,165 129,131 217,38 22,44 24,106 91,113 71,6 174,-81 151,-142 6,137 221,165 208,13 99,88 321,92 288,-48 54,82 202,92 263,21 50,-50 54,-146 -22,-157 88,0 242,-50 248,-149 4,-69 -133,-82 -152,-60 50,-50 121,-149 39,-203 -93,-54 -171,28 -192,99 -39,-192 -231,-132 -253,33 6,-71 -39,-171 -126,-165 -88,11 -77,115 -77,186 -17,-39 -61,-137 -115,-132 -50,6 -50,71 -22,110 -50,-93 -181,-171 -220,-28 6,-60 -11,-121 -88,-121 -77,-6 -121,71 -149,137 -39,-143 -236,-171 -225,6 -44,-126 -154,-181 -181,-17 -17,-219 -264,-181 -286,22 -28,-50 -60,-186 -143,-181 -50,6 -71,104 -71,104l-6 0 2 1z"/>
   <path fill="#FFDA7B" d="M702 612c0,0 -1,-6 -1,-16 0,-10 -2,-24 1,-41 1,-8 2,-18 5,-28 2,-10 5,-19 8,-30 4,-11 7,-21 12,-30 5,-10 10,-21 15,-30 6,-10 12,-19 18,-29 6,-10 13,-18 19,-27 7,-8 13,-17 21,-23 7,-7 13,-13 21,-19 12,-12 25,-19 33,-24 8,-5 13,-8 13,-8 0,0 -4,5 -8,13 -6,8 -15,18 -24,33 -5,7 -10,15 -16,22 -6,7 -10,16 -16,24 -11,17 -22,35 -33,54 -6,10 -10,19 -15,29 -5,10 -10,18 -13,28 -4,10 -8,18 -12,27 -2,8 -6,17 -8,24 -2,7 -6,15 -7,22 -2,6 -4,12 -5,17 -2,10 -5,15 -5,15l-2 -1z"/>
   <path fill="#FFDA7B" d="M1664 511c0,0 -4,-7 -10,-22 -4,-7 -6,-16 -8,-25 -1,-5 -2,-11 -5,-17 -1,-6 -1,-12 -2,-18 -2,-13 -2,-28 -4,-42 0,-15 1,-31 4,-47 2,-16 5,-33 11,-50 5,-17 11,-33 17,-50 7,-16 15,-31 23,-47 7,-16 18,-29 27,-44 19,-27 38,-51 56,-69 18,-19 34,-33 46,-42 12,-10 18,-15 18,-15 0,0 -5,7 -15,19 -10,11 -22,29 -36,50 -7,10 -15,22 -23,34 -8,12 -16,25 -24,39 -7,13 -16,28 -23,42 -7,15 -15,29 -21,45 -6,16 -12,30 -17,46 -5,16 -10,30 -12,46 -2,15 -6,30 -7,44 -1,15 -2,28 -2,40 0,12 0,24 1,34 0,10 1,19 2,27 2,15 4,23 4,23l1 0z"/>
   <path fill="#FFDA7B" d="M3012 595c0,0 -2,-5 -6,-15 -5,-10 -7,-23 -15,-38 -4,-7 -7,-16 -11,-24 -4,-8 -10,-17 -15,-25 -10,-18 -23,-35 -34,-53 -13,-17 -25,-35 -39,-51 -7,-7 -12,-16 -18,-23 -6,-7 -12,-15 -17,-21 -11,-13 -19,-24 -25,-31 -6,-7 -10,-12 -10,-12 0,0 5,2 13,8 8,5 21,12 34,23 13,11 29,23 44,39 7,7 16,15 23,24 7,8 15,18 22,27 6,10 12,19 18,29 6,10 11,21 15,30 4,10 8,19 11,29 2,10 5,19 7,28 2,8 4,16 4,23 0,7 0,13 0,18 0,10 0,16 0,16l-1 -1z"/>
   <path fill="#FFDA7B" d="M1522 1041c-5,0 -10,0 -13,-1 -15,-1 -22,-2 -22,-2 0,0 8,-2 22,-4 7,-1 15,-2 24,-6 8,-4 19,-5 29,-11 10,-5 21,-11 30,-18 11,-7 18,-18 28,-27 7,-11 16,-23 22,-35 7,-12 11,-27 15,-41 4,-15 6,-29 7,-44 1,-15 1,-29 1,-44 -2,-13 -2,-28 -5,-40 -2,-13 -5,-25 -8,-36 -2,-11 -7,-21 -10,-29 -4,-8 -6,-17 -10,-23 -6,-12 -10,-19 -10,-19 0,0 6,6 15,16 5,5 10,12 15,21 6,8 12,18 17,29 2,6 5,11 8,17 2,6 4,12 6,19 5,13 7,28 10,44 1,16 4,31 2,47 0,17 -4,33 -7,50 -5,16 -10,33 -18,47 -7,16 -18,28 -28,40 -12,11 -23,22 -36,28 -12,8 -25,12 -38,16 -11,5 -23,4 -33,6 -4,1 -8,1 -12,1l-1 0z"/>
   <path fill="#FFDA7B" d="M2399 1384c-8,-2 -18,-4 -27,-6 -8,-4 -18,-7 -25,-11 -8,-5 -17,-8 -24,-16 -7,-6 -16,-12 -22,-18 -6,-7 -13,-13 -19,-21 -6,-7 -12,-15 -17,-23 -11,-16 -19,-33 -28,-50 -8,-17 -15,-35 -21,-52 -6,-18 -11,-36 -15,-54 -7,-34 -12,-69 -12,-104 -7,-2 -16,-5 -23,-7 -10,-5 -21,-8 -30,-13l-29 -17c-8,-6 -18,-12 -27,-19 10,4 21,8 30,12l30 10c11,2 21,6 30,8l31 6 8 1 1 10c1,18 5,35 7,53 4,18 7,35 11,52 4,17 10,34 15,51 6,17 12,34 19,50 7,16 15,33 23,47 4,8 10,15 13,23 5,7 11,15 16,22 5,7 12,13 17,19 6,6 13,12 19,18 7,6 15,10 22,16l24 12 0 1zm-202 -352l0 0z"/>
  </g>
 </g>
</svg>
