

<!-- Creator: CorelDRAW X6 -->
<svg xmlns="http://www.w3.org/2000/svg" x="0" y="0" xml:space="preserve" width="29mm" height="25mm" version="1.1" shape-rendering="geometricPrecision" text-rendering="geometricPrecision" image-rendering="optimizeQuality" fill-rule="evenodd" clip-rule="evenodd"
viewBox="0 0 2900 2500"
 xmlns:xlink="http://www.w3.org/1999/xlink"
 enable-background="new 0 0 600 785.8">
 <g id="Layer_x0020_1">
  <metadata id="CorelCorpID_0Corel-Layer"/>
 </g>
 <g id="Layer_x0020_1_0">
  <metadata id="CorelCorpID_1Corel-Layer"/>
 </g>
 <g id="Layer_x0020_1_0_1">
  <metadata id="CorelCorpID_2Corel-Layer"/>
 </g>
 <g id="Layer_x0020_1_0_2">
  <metadata id="CorelCorpID_3Corel-Layer"/>
 </g>
 <g id="Layer_x0020_1_3">
  <metadata id="CorelCorpID_4Corel-Layer"/>
 </g>
 <g id="Layer_x0020_1_0_4">
  <metadata id="CorelCorpID_5Corel-Layer"/>
 </g>
 <g id="Layer_x0020_1_0_5">
  <metadata id="CorelCorpID_6Corel-Layer"/>
 </g>
 <g id="Layer_x0020_1_0_6">
  <metadata id="CorelCorpID_7Corel-Layer"/>
 </g>
 <g id="Layer_x0020_1_0_7">
  <metadata id="CorelCorpID_8Corel-Layer"/>
 </g>
 <g id="Layer_x0020_1_0_2_8">
  <metadata id="CorelCorpID_9Corel-Layer"/>
 </g>
 <g id="Layer_x0020_1_0_2_8_9">
  <metadata id="CorelCorpID_10Corel-Layer"/>
 </g>
 <g id="Layer_x0020_1_0_10">
  <metadata id="CorelCorpID_11Corel-Layer"/>
 </g>
 <g id="Layer_x0020_1_1">
  <metadata id="CorelCorpID_12Corel-Layer"/>
 </g>
 <g id="Layer_x0020_1_11">
  <metadata id="CorelCorpID_13Corel-Layer"/>
 </g>
 <g id="Layer_x0020_1_12">
  <metadata id="CorelCorpID_14Corel-Layer"/>
 </g>
 <g id="Layer_x0020_1_12">
  <metadata id="CorelCorpID_15Corel-Layer"/>
 </g>
 <g id="Layer_x0020_1_13">
  <metadata id="CorelCorpID_16Corel-Layer"/>
 </g>
 <g id="Layer_x0020_1_13">
  <metadata id="CorelCorpID_17Corel-Layer"/>
  <path fill="#FAB51A" d="M1431 0c-115,0 -209,90 -209,201 0,39 12,76 33,107 7,-5 14,-9 21,-12 73,-31 102,21 168,34 62,12 114,-33 172,-36 15,-28 24,-60 24,-93 0,-111 -94,-201 -209,-201l1 -1z"/>
  <path fill="#E38C1D" d="M1443 330c-66,-12 -95,-64 -168,-34 -8,3 -14,7 -21,12 37,57 103,94 177,94 81,0 150,-43 185,-107 -59,3 -109,47 -172,36l-1 0z"/>
  <path fill="#FCC851" d="M1525 121c-37,0 -94,-21 -107,-41 -12,-23 -4,-46 12,-46 1,0 2,0 3,0l25 -10c35,6 165,46 88,91 -6,3 -13,5 -23,5l1 1z"/>
  <path fill="#EB9D15" d="M1247 151c32,6 54,70 29,91 -48,46 -48,-55 -41,-79l12 -12z"/>
  <path fill="#EB9D15" d="M1333 166c-19,6 -32,39 -19,67 12,28 51,39 66,6 12,-31 -15,-42 -35,-64l-12 -10 0 1z"/>
  <path fill="#EB9D15" d="M1465 169c-35,-3 -48,28 -35,55 38,70 98,-24 29,-49l7 -6 -1 0z"/>
  <path fill="#EB9D15" d="M1608 166c-7,-12 -41,10 -44,36 -7,64 98,49 51,-24l-7 -12z"/>
  <path fill="#CD252F" d="M2426 656c-111,-37 -222,-48 -326,-41 155,91 260,238 277,424 12,141 -12,298 -67,428 -34,83 -60,194 -106,280 12,3 26,6 38,7 79,7 157,-7 236,-18 150,-177 171,-417 171,-648 0,-93 -79,-294 -223,-431l-1 -1z"/>
  <path fill="#AB2C2C" d="M2162 1734c14,5 28,10 42,12 -14,-4 -29,-8 -42,-12zm-87 -40c28,14 56,28 83,38 -29,-11 -57,-24 -83,-38zm-1230 14l-5 7 5 -7zm16 -23l-6 7 6 -7zm-72 63l7 -2 -7 2zm-15 4l-6 1 6 -1zm-53 1c3,1 7,1 10,1 -3,0 -7,-1 -10,-1zm20 2l8 0 -8 0zm-54 -11c9,3 16,5 24,7 -8,-2 -16,-4 -24,-7zm192 -79l-5 5 5 -5zm1760 -905c-71,-48 -142,-84 -214,-107 144,137 223,338 223,431 0,232 -20,471 -171,648 -79,12 -157,25 -236,18 -13,-1 -26,-4 -38,-7 46,-86 73,-197 106,-280 57,-130 79,-287 67,-428 -18,-185 -122,-333 -277,-424 -84,5 -165,21 -240,44 147,93 191,252 213,418 22,198 30,405 -41,594 -97,-56 -191,-115 -297,-103 46,-120 68,-235 73,-368 12,-189 22,-330 -34,-513 -174,65 -302,156 -349,192 -32,-25 -160,-121 -342,-191 -46,159 -23,305 -9,475 16,168 44,336 97,499 -4,-2 -8,-5 -12,-7 -78,-34 -185,-44 -259,-3l0 0c-146,-288 -190,-779 39,-1011 -84,-21 -176,-34 -272,-31 -118,108 -155,309 -152,454 0,141 51,276 96,406 16,55 41,191 73,274 -17,-6 -36,-12 -57,-20 -41,-16 -79,-12 -116,-7 -36,5 -71,10 -109,-4 -102,-37 -142,-260 -164,-352 -28,-141 -11,-276 23,-417 29,-115 73,-195 131,-280 -61,24 -124,55 -186,97 0,0 -421,586 285,1218 0,0 150,119 203,0 54,-119 93,-119 93,-119 0,0 392,425 629,-18l1 -84 2 -162 4 160 2 85c237,443 629,18 629,18 0,0 39,0 93,119 54,119 203,0 203,0 100,-90 179,-177 241,-258 443,-583 44,-959 44,-959l5 0z"/>
  <path fill="#CD252F" d="M1084 689c-45,-17 -93,-34 -144,-46 -230,232 -185,723 -39,1011 74,-41 181,-31 259,3 4,2 8,5 12,7 -53,-163 -81,-331 -97,-499 -14,-170 -38,-315 9,-475z"/>
  <path fill="#CD252F" d="M2074 1077c-22,-165 -66,-325 -213,-418 -30,9 -58,18 -85,29 56,184 45,324 34,513 -5,131 -27,247 -73,368 106,-13 201,47 297,103 71,-189 63,-396 41,-594z"/>
  <path fill="#CD252F" d="M518 1066c-4,-145 34,-345 152,-454 -88,3 -180,19 -274,54 -59,85 -103,166 -131,280 -34,141 -52,276 -23,417 23,92 62,314 164,352 79,27 147,-22 226,11 20,8 39,14 57,20 -32,-84 -57,-220 -73,-274 -45,-130 -96,-265 -96,-406l-1 1z"/>
  <path fill="#FAB71E" d="M1155 642l-132 -48c-179,-83 -355,-71 -355,-71 -12,-1 -23,-1 -34,-1 -178,62 -248,257 -260,425 -13,276 67,571 187,821 33,80 83,154 132,227 90,-44 161,-134 161,-134 -127,-282 -187,-465 -167,-768 7,-179 27,-411 241,-468 29,-12 114,-4 181,8l46 8 -1 1z"/>
  <path fill="#FAB71E" d="M19 1326c51,305 409,655 557,692 -36,-27 -68,-59 -103,-95 -214,-244 -327,-501 -321,-828 5,-237 200,-538 481,-573 -512,-26 -663,513 -614,804z"/>
  <path fill="#FAB71E" d="M353 2419c0,44 44,81 99,81l1963 0c55,0 99,-36 99,-81l0 -477c0,-121 -44,-81 -99,-81l-1963 0c-55,0 -99,-58 -99,81l0 477z"/>
  <path fill="#FAB71E" d="M1712 647l119 -52c179,-83 355,-71 355,-71 12,-1 63,-1 74,-1 178,62 207,257 220,425 13,276 -67,571 -187,821 -33,80 -84,154 -132,227 -90,-44 -161,-134 -161,-134 127,-282 187,-465 167,-768 -7,-179 -27,-411 -241,-468 -29,-12 -114,-4 -181,8l-32 12 0 1z"/>
  <path fill="#FAB71E" d="M2875 1326c-51,305 -409,655 -557,692 36,-27 68,-59 103,-95 214,-244 327,-501 321,-828 -5,-237 -67,-519 -481,-573 621,-31 663,513 614,804z"/>
  <path fill="#FAB71E" d="M1500 1854c104,-253 239,-546 239,-822 0,-256 0,-581 -261,-668l-102 0c-261,87 -261,412 -261,668 0,276 69,563 230,814 0,0 89,167 154,10l1 -1z"/>
  <path fill="#D47724" d="M2414 1863c0,0 7,2 19,4 12,2 32,3 55,-4 23,-6 48,-20 68,-45 10,-12 18,-27 28,-43 10,-15 18,-33 29,-50 19,-35 40,-73 60,-113 20,-40 39,-84 60,-130 18,-46 37,-93 52,-143 9,-25 13,-50 20,-75 5,-26 11,-51 13,-77 9,-52 7,-103 2,-154 -8,-52 -15,-102 -28,-149 -12,-47 -29,-91 -51,-130 -22,-38 -51,-71 -82,-96 -14,-13 -31,-24 -45,-35 -15,-10 -30,-20 -44,-28 -14,-8 -28,-15 -40,-22 -13,-6 -25,-12 -36,-16 -21,-11 -39,-17 -51,-22 -12,-5 -18,-8 -18,-8 0,0 7,2 19,6 12,4 31,9 53,18 12,5 24,10 37,14 13,6 28,12 42,19 15,7 31,16 47,25 15,11 33,21 49,34 33,25 64,59 90,98 26,39 45,86 59,134 13,49 23,100 31,152 7,53 9,107 1,161 -3,27 -10,53 -14,80 -8,26 -12,52 -21,77 -15,51 -36,99 -55,145 -40,92 -87,174 -130,242 -22,35 -40,65 -62,91 -23,25 -52,39 -76,43 -24,5 -44,2 -57,-1 -12,-3 -19,-6 -19,-6l-6 2z"/>
  <path fill="#D47724" d="M452 1863c0,0 31,-1 84,-3 54,-1 131,-5 223,-6 92,-1 200,-4 315,-5 115,-1 238,-1 361,-2 123,1 246,1 361,2 115,1 223,4 315,5 92,1 169,5 223,6 54,2 84,3 84,3 0,0 -31,1 -84,3 -54,1 -131,5 -223,6 -92,1 -200,4 -315,5 -115,1 -238,1 -361,2 -123,-1 -246,-1 -361,-2 -115,-1 -223,-4 -315,-5 -92,-1 -169,-5 -223,-6 -54,-2 -84,-3 -84,-3z"/>
  <path fill="#D47724" d="M231 712c0,0 -11,17 -30,49 -10,15 -22,34 -32,57 -5,12 -11,23 -16,36 -3,7 -7,12 -9,19 -2,7 -5,14 -7,21 -5,14 -10,30 -14,45 -6,15 -7,33 -11,50 -9,34 -10,71 -12,108 -1,19 1,38 1,58 0,19 2,39 5,59 3,39 12,80 20,119l15 59c7,19 12,38 18,58 13,37 28,75 43,110 15,36 31,69 46,101 15,32 30,63 44,89 8,13 14,27 23,37 9,11 16,21 25,30 10,8 18,15 28,21 10,5 18,11 27,13 17,6 32,10 41,10 10,1 15,0 15,0 0,0 -5,1 -15,2 -11,0 -25,-1 -43,-6 -10,-3 -18,-8 -30,-12 -11,-6 -20,-13 -31,-20 -11,-9 -19,-19 -31,-30 -11,-12 -16,-24 -26,-37 -17,-28 -33,-57 -50,-88 -17,-32 -36,-65 -52,-101 -16,-36 -33,-73 -46,-111 -7,-19 -13,-39 -20,-59 -6,-20 -11,-40 -16,-60 -9,-41 -17,-82 -20,-123 -2,-20 -4,-41 -4,-61 0,-20 -1,-40 1,-60 4,-39 8,-77 18,-111 5,-17 8,-35 13,-51 6,-15 12,-31 18,-46 10,-30 28,-54 39,-77 12,-23 26,-40 37,-55 23,-29 36,-45 36,-45l-1 2z"/>
  <path fill="#D47724" d="M364 2417c0,0 34,-1 93,-3 60,-1 144,-5 245,-6 102,-1 220,-4 346,-5 127,-1 262,-1 396,-2 135,1 270,1 396,2 127,1 245,4 346,5 102,1 186,5 245,6 60,2 93,3 93,3 0,0 -34,1 -93,3 -60,1 -144,5 -245,6 -102,1 -220,4 -346,5 -127,1 -262,1 -396,2 -135,-1 -270,-2 -396,-2 -127,-1 -245,-4 -346,-5 -102,-1 -186,-5 -245,-6 -60,-2 -93,-3 -93,-3z"/>
  <path fill="#D47724" d="M883 546c0,0 -25,-2 -68,6 -21,4 -47,11 -74,22 -27,12 -56,30 -82,54 -26,24 -48,57 -65,92 -7,19 -16,37 -19,59 -3,11 -5,20 -8,31 -2,11 -3,22 -5,33 -7,45 -9,89 -9,136 0,47 2,94 7,142 4,48 9,95 14,142 6,47 13,92 22,136 9,44 17,86 26,127 10,40 18,78 29,112 10,35 20,66 29,94 10,28 18,52 27,71 8,19 15,35 21,44 5,11 8,15 8,15 0,0 -3,-5 -10,-14 -6,-10 -16,-23 -25,-42 -11,-18 -21,-42 -33,-69 -12,-27 -24,-59 -36,-93 -12,-35 -23,-72 -35,-112 -11,-40 -22,-83 -31,-127 -9,-44 -18,-90 -25,-137 -8,-47 -13,-95 -17,-143 -4,-48 -5,-97 -5,-144 1,-47 4,-96 12,-140 2,-12 4,-22 6,-34 3,-11 6,-22 10,-33 5,-22 16,-41 24,-61 20,-37 45,-71 74,-96 29,-25 60,-41 89,-52 30,-10 56,-15 78,-17 22,-2 39,-2 51,-1 12,1 18,2 18,2l1 -2z"/>
  <path fill="#D47724" d="M2029 546c0,0 6,-1 18,-2 12,-1 29,-1 51,1 22,2 48,8 78,17 29,11 60,27 89,52 30,25 54,59 74,96 8,20 19,39 24,61 3,11 6,22 10,33 2,12 4,22 6,34 8,44 11,93 12,140 1,48 -1,96 -5,144 -4,48 -10,96 -17,143 -7,47 -15,93 -25,137 -9,44 -20,87 -31,127 -12,40 -22,78 -35,112 -12,35 -24,65 -36,93 -12,27 -22,51 -33,69 -10,19 -19,33 -25,42 -7,10 -10,14 -10,14 0,0 3,-6 8,-15 5,-11 13,-25 21,-44 9,-19 17,-43 27,-71 10,-28 19,-60 29,-94 11,-35 19,-72 29,-112 9,-40 17,-83 26,-127 9,-44 16,-90 22,-136 7,-47 12,-94 14,-142 4,-47 7,-95 7,-142 0,-47 -2,-91 -9,-136 -2,-11 -3,-22 -5,-33 -3,-11 -5,-21 -8,-31 -4,-21 -13,-39 -19,-59 -17,-36 -38,-68 -65,-92 -27,-24 -55,-42 -82,-54 -28,-12 -53,-18 -74,-22 -42,-8 -68,-6 -68,-6l1 2z"/>
  <path fill="#FFE390" d="M1109 634l46 6 -1 3 -134 -44 -1 0c-29,-10 -56,-22 -85,-30l-43 -12c-14,-3 -30,-6 -44,-9 -14,-3 -30,-5 -44,-7 -15,-2 -30,-4 -45,-5 -15,-1 -30,-2 -45,-2 -15,0 -30,0 -44,1l-1 0 -1 0 -34 -1 5 -1c-26,11 -52,22 -74,39 -23,16 -43,36 -61,57 -18,21 -33,45 -46,69 -12,25 -24,50 -33,77 -10,26 -15,54 -22,81 -6,28 -10,55 -12,83 -2,26 -1,57 -2,84 -1,29 2,57 4,84l3 42c2,14 4,28 6,42 5,28 7,57 12,84l15 83 20 83c6,28 16,55 24,83 8,28 16,55 27,82 10,27 18,55 30,81l33 80 -38 -78c-13,-26 -23,-53 -35,-79 -12,-26 -22,-53 -32,-81 -10,-27 -20,-54 -27,-82l-24 -83 -19 -84c-7,-28 -10,-57 -14,-85 -2,-14 -5,-29 -6,-43l-3 -43c-2,-29 -6,-58 -5,-86 0,-29 -1,-56 1,-86 5,-58 15,-116 36,-171 10,-28 22,-55 36,-81 14,-26 31,-51 51,-74 19,-23 42,-44 67,-61 25,-18 53,-31 82,-42l5 -1 35 2 -2 0c16,-1 32,0 47,1 15,0 31,2 46,4 15,1 31,4 46,6 15,2 31,5 45,9 15,4 30,7 45,11l44 14c15,4 29,11 43,16l42 18 -1 0 131 52 1 2 -2 1 -45 -10 -1 1z"/>
  <path fill="#FFE390" d="M1744 634l-32 13 -2 -1 1 -2 111 -53c19,-9 37,-16 57,-25 10,-4 19,-9 29,-12l30 -10c10,-3 20,-7 30,-9l31 -7c20,-6 41,-8 61,-12 21,-4 41,-5 62,-7 21,-1 42,-2 63,-1l-2 0 75 -2 0 0 5 1c27,11 53,22 76,39 24,16 43,37 60,60 16,23 31,47 41,72 12,25 19,51 27,77 13,53 20,106 24,158 1,13 3,26 2,40l0 39c0,26 0,53 -2,80 -2,27 -2,54 -7,80 -3,26 -7,53 -12,79l-15 78c-6,26 -13,52 -19,77 -6,26 -14,51 -22,76 -9,25 -16,51 -26,75 -10,25 -18,50 -29,74l-33 73 27 -75c10,-25 16,-50 24,-75 9,-25 14,-51 21,-76 7,-25 14,-51 19,-77 5,-26 12,-51 16,-77l12 -78 9 -78c4,-26 3,-52 5,-78 2,-26 2,-52 1,-79l-1 -39c0,-12 -2,-26 -3,-38 -3,-26 -6,-52 -10,-78 -4,-26 -10,-51 -15,-76 -7,-25 -13,-50 -24,-73 -10,-24 -23,-46 -37,-66 -15,-20 -33,-39 -54,-54 -20,-16 -43,-27 -67,-36l5 1 -74 1 -2 0 -1 0c-19,-2 -40,-1 -60,-1 -20,1 -40,2 -61,5 -20,3 -40,5 -60,9l-30 6c-11,2 -19,5 -30,8 -19,6 -39,10 -59,17 -19,7 -39,14 -58,21l-114 46 -1 -3 33 -11 4 1z"/>
  <path fill="#FFE390" d="M1595 1623c19,-55 37,-108 55,-163 8,-28 17,-55 24,-83 8,-28 15,-55 21,-83l10 -41 7 -42c6,-28 8,-57 11,-84 4,-28 2,-57 4,-84 1,-28 0,-58 0,-85 -1,-57 -3,-114 -9,-171 -3,-28 -7,-57 -12,-84 -2,-14 -6,-28 -9,-41 -3,-13 -7,-28 -11,-40 -8,-27 -17,-53 -30,-78 -12,-25 -27,-49 -44,-70 -17,-21 -38,-40 -61,-57 -12,-7 -24,-15 -36,-21l-39 -16 5 1 -102 -1 5 -1 -33 12 -32 15 -29 19c-9,8 -18,14 -27,22 -8,9 -16,16 -24,25 -7,10 -15,18 -21,28 -6,10 -13,19 -18,30 -6,11 -12,20 -15,31 -10,21 -18,43 -25,65 -7,22 -12,45 -17,68 -10,46 -16,92 -21,139 1,-47 4,-94 12,-141 4,-23 8,-47 14,-70 6,-23 12,-46 22,-68 4,-12 10,-22 15,-33 5,-12 12,-21 18,-32 6,-11 14,-20 21,-30 8,-10 16,-18 24,-28 9,-9 18,-16 28,-25l31 -22 34 -18 35 -14 4 -1 1 0 102 -1 1 0 4 1 43 17c14,7 27,15 40,23 26,17 49,37 68,61 19,23 36,49 49,76 13,27 24,55 33,83 5,14 9,28 12,42 3,14 7,29 9,43 5,29 8,58 11,86 5,58 6,115 7,173 0,29 0,58 -1,86 -2,29 -2,59 -7,86 -4,29 -8,58 -13,85l-9 42 -11 42c-7,28 -15,56 -24,83 -9,28 -19,55 -29,82 -20,54 -42,107 -65,160l-3 1z"/>
  <path fill="#FEFEFE" d="M1212 230c-6,-6 -11,-14 -12,-22 -5,-22 4,-41 26,-46 -3,12 -4,26 -4,38 0,10 1,19 2,28 -4,1 -8,2 -12,2z"/>
  <path fill="#FFEDCB" d="M1223 228c-1,-10 -2,-18 -2,-28 0,-13 1,-26 4,-38 2,0 4,-1 7,-1 1,0 2,0 3,0 1,0 1,0 2,0l-2 2c-3,12 -5,39 -1,61 -3,2 -7,4 -11,5l0 -1z"/>
  <path fill="#FAE6C7" d="M1234 224c-4,-22 -3,-50 1,-61l2 -2c14,1 25,13 32,28 -10,14 -21,28 -34,35l-1 1z"/>
  <path fill="#D5D0C4" d="M1268 189c-14,22 -34,41 -56,41 8,8 19,12 32,9 21,-5 33,-16 28,-37 -1,-4 -2,-9 -4,-13l0 1z"/>
  <path fill="#FFEDCB" d="M1373 202c-8,-9 -19,-17 -28,-27l-12 -10c-7,2 -12,8 -17,15 5,-11 15,-18 31,-20 1,0 2,0 3,0 15,0 27,13 33,28 -3,5 -6,9 -10,12l1 1z"/>
  <path fill="#FAE6C7" d="M1326 230c-6,-6 -11,-14 -12,-22 -2,-10 -2,-19 1,-27 4,-8 11,-13 17,-15l12 10c9,10 20,18 28,27 -12,16 -29,29 -47,29l1 -1z"/>
  <path fill="#D5D0C4" d="M1383 189c-14,22 -34,41 -56,41 8,8 19,12 32,9 21,-5 33,-16 28,-37 -1,-4 -2,-9 -4,-13l0 1z"/>
  <path fill="#FEFEFE" d="M1649 230c-4,0 -8,-1 -12,-2 1,-10 2,-18 2,-28 0,-13 -1,-26 -4,-38 23,5 32,24 26,46 -2,9 -7,16 -12,22z"/>
  <path fill="#FFEDCB" d="M1638 228c-4,-1 -9,-3 -12,-6 4,-11 2,-26 -11,-45l-6 -11c5,-4 11,-7 17,-7 1,0 2,0 3,0 2,0 5,1 7,1 3,12 4,26 4,38 0,10 -1,19 -2,28l0 1z"/>
  <path fill="#FAE6C7" d="M1625 223c-12,-8 -23,-20 -32,-34 4,-9 9,-16 15,-22l6 11c12,19 14,35 11,45z"/>
  <path fill="#D5D0C4" d="M1594 189c14,22 34,41 56,41 -8,8 -19,12 -32,9 -21,-5 -33,-16 -28,-37 1,-4 2,-9 4,-13l0 1z"/>
  <path fill="#FFEDCB" d="M1500 230c-4,0 -8,-1 -12,-2 8,-18 2,-43 -29,-54l7 -6c-2,0 -3,0 -5,0 -1,0 -2,0 -3,0 6,-5 12,-8 19,-8 1,0 2,0 3,0 28,3 38,23 33,47 -2,9 -7,16 -12,22l-1 0z"/>
  <path fill="#FAE6C7" d="M1488 228c-17,-6 -33,-21 -44,-39 3,-8 8,-15 13,-20 1,0 2,0 3,0 2,0 3,0 5,0l-7 6c32,11 36,36 29,54l1 0z"/>
  <path fill="#D5D0C4" d="M1444 189c14,22 34,41 56,41 -8,8 -19,12 -32,9 -21,-5 -33,-16 -28,-37 1,-4 2,-9 4,-13l0 1z"/>
  <path fill="#EB9D15" d="M535 2131c-49,-27 -56,62 -56,94 -3,77 -10,145 86,145 64,0 163,12 179,-59 10,-38 10,-142 -28,-162l-181 -17 0 -1z"/>
  <path fill="#EB9D15" d="M1009 2147c-92,17 -52,151 40,151 49,0 86,-38 74,-88 -12,-50 -61,-62 -105,-65l-10 3z"/>
  <path fill="#EB9D15" d="M1341 2132c-86,6 -56,215 6,230 36,9 148,-9 184,-27 34,-20 59,-142 6,-165l-197 -38 1 0z"/>
  <path fill="#EB9D15" d="M1808 2153c-83,-9 -107,138 -15,156 40,9 71,-14 80,-53 10,-44 -21,-71 -52,-97l-12 -6 0 -1z"/>
  <path fill="#EB9D15" d="M2296 2118c-15,-3 -43,6 -67,12 -21,3 -80,-3 -98,9 -34,20 -18,165 12,195 25,24 179,36 203,9 21,-27 15,-179 -12,-206 0,0 0,0 -3,0l-34 -17 -1 0z"/>
  <path fill="#AB2C2C" d="M627 2296c-49,-70 -97,-96 -148,-67l0 57c0,29 25,53 55,53l127 0c31,0 55,-24 55,-53l0 -31c-20,-5 -44,8 -89,42l1 -1z"/>
  <path fill="#CD252F" d="M661 2109l-127 0c-31,0 -55,24 -55,53l0 65c51,-28 100,-2 148,68 45,-34 68,-47 89,-42l0 -91c0,-29 -25,-53 -55,-53l-1 0z"/>
  <path fill="#E5293A" d="M614 2133c-55,13 -6,79 36,68 55,-13 0,-56 -33,-63l-3 -5z"/>
  <path fill="#FFEDCB" d="M982 2288c-16,-13 -27,-34 -27,-56 0,-8 1,-14 3,-21 2,26 16,54 41,70 -6,3 -12,5 -17,6l0 1z"/>
  <path fill="#FAE6C7" d="M999 2282c-24,-16 -39,-44 -41,-70 10,-31 38,-53 74,-53 24,0 44,11 59,27 -20,37 -54,80 -91,97l0 -1z"/>
  <path fill="#D5D0C4" d="M1090 2185c-23,43 -64,92 -108,103 13,12 31,18 50,18 42,0 77,-33 77,-74 0,-18 -7,-35 -18,-47z"/>
  <path fill="#CD252F" d="M1545 2223l0 -60c0,-29 -25,-53 -55,-53l-127 0c-31,0 -55,24 -55,53l0 65 0 8c30,4 58,23 95,28 72,10 106,-2 141,-41z"/>
  <path fill="#AB2C2C" d="M1404 2264c-38,-4 -65,-23 -95,-28l0 48c0,29 25,53 55,53l127 0c31,0 55,-24 55,-53l0 -31 0 -32c-36,39 -70,51 -141,41l0 1z"/>
  <path fill="#E5293A" d="M1421 2133c-46,4 -93,23 -86,53 13,58 71,-15 93,-18 11,0 102,45 71,-15 -8,-16 -42,-22 -78,-18l0 -1z"/>
  <path fill="#AB2C2C" d="M2226 2296c49,-70 97,-96 148,-67l0 57c0,29 -25,53 -55,53l-127 0c-31,0 -55,-24 -55,-53l0 -31c20,-5 44,8 89,42l-1 -1z"/>
  <path fill="#CD252F" d="M2193 2109l127 0c31,0 55,24 55,53l0 65c-51,-28 -100,-2 -148,68 -45,-34 -68,-47 -89,-42l0 -91c0,-29 25,-53 55,-53l1 0z"/>
  <path fill="#E5293A" d="M2235 2144c-36,-8 -63,60 3,53 58,-8 99,-71 13,-56l-16 3z"/>
  <path fill="#FFEDCB" d="M1872 2288c-4,-1 -8,-2 -12,-4 6,-8 10,-17 12,-28 10,-44 -21,-71 -52,-97l-1 0c1,0 2,0 3,0 42,0 77,33 77,74 0,22 -11,42 -27,56l-1 -1z"/>
  <path fill="#FAE6C7" d="M1861 2284c-39,-16 -76,-59 -97,-99 13,-15 34,-26 56,-27l1 0c31,27 61,53 52,97 -3,11 -7,20 -12,28l1 1z"/>
  <path fill="#D5D0C4" d="M1764 2185c23,43 64,92 108,103 -13,12 -31,18 -50,18 -42,0 -77,-33 -77,-74 0,-18 7,-35 18,-47z"/>
  <path fill="#EB9D15" d="M1401 1538c-58,-18 -77,91 -24,119 87,43 77,-66 36,-107l-13 -12 1 0z"/>
  <path fill="#EB9D15" d="M1393 1199c-74,-12 -53,91 -6,111 35,15 60,12 66,-28 3,-36 -21,-56 -42,-82l-18 -3 0 1z"/>
  <path fill="#EB9D15" d="M1393 890c-60,-11 -92,63 -45,111 26,25 63,25 84,-8 18,-31 -3,-53 -13,-82l-26 -23 0 1z"/>
  <path fill="#EB9D15" d="M1409 621c-8,-8 -32,-12 -47,0 -36,23 -8,63 13,86 79,79 87,-38 42,-81l-8 -5 -1 -1z"/>
  <path fill="#FFEDCB" d="M1443 682c-3,-20 -12,-42 -26,-56l-8 -5c-4,-4 -11,-7 -19,-8 7,-4 15,-6 25,-8 1,0 3,0 4,0 23,0 40,20 50,42 -8,12 -16,23 -26,33l0 1z"/>
  <path fill="#FAE6C7" d="M1385 712c-9,-9 -15,-21 -18,-34 -7,-28 1,-52 24,-64 9,1 15,4 19,8l8 5c14,13 23,36 26,56 -17,17 -36,30 -59,30z"/>
  <path fill="#D5D0C4" d="M1469 649c-22,34 -50,62 -84,63 12,12 29,18 48,13 33,-8 50,-24 42,-57 -1,-7 -4,-13 -6,-20z"/>
  <path fill="#FFEDCB" d="M1438 958c-4,-15 -13,-29 -19,-45l-26 -22c3,-1 7,-1 11,-2 1,0 3,0 4,0 23,0 40,20 50,42 -6,10 -12,18 -20,26l1 1z"/>
  <path fill="#FAE6C7" d="M1374 994c-9,-9 -15,-21 -18,-34 -8,-34 5,-61 38,-70l26 22c6,16 15,30 19,45 -18,21 -40,36 -65,36z"/>
  <path fill="#D5D0C4" d="M1459 931c-22,34 -50,62 -84,63 12,12 29,18 48,13 33,-8 50,-24 42,-57 -1,-7 -4,-13 -6,-20z"/>
  <path fill="#FFEDCB" d="M1452 1261c-6,-23 -24,-39 -40,-60l-7 -1c2,0 4,-1 7,-1 1,0 3,0 4,0 23,0 40,20 50,42 -4,7 -9,12 -13,19z"/>
  <path fill="#FAE6C7" d="M1381 1305c-9,-9 -15,-21 -18,-34 -8,-35 6,-63 42,-70l7 1c16,20 35,36 40,60 -19,25 -43,43 -71,44l0 -1z"/>
  <path fill="#D5D0C4" d="M1465 1242c-22,34 -50,62 -84,63 12,12 29,18 48,13 33,-8 50,-24 43,-57 -1,-7 -4,-13 -6,-20l-1 0z"/>
  <path fill="#FFEDCB" d="M1442 1612c-4,-22 -14,-46 -29,-61l-13 -12c-1,0 -3,-1 -4,-1 7,-3 14,-5 23,-6 1,0 3,0 4,0 23,0 40,20 50,42 -10,14 -19,28 -32,38l1 0z"/>
  <path fill="#FAE6C7" d="M1389 1637c-9,-9 -15,-21 -18,-34 -7,-29 2,-54 27,-65 1,0 3,1 4,1l13 12c14,14 25,38 29,61 -15,14 -34,24 -54,25l-1 -1z"/>
  <path fill="#D5D0C4" d="M1474 1574c-22,34 -50,62 -84,63 12,12 29,18 48,13 33,-8 50,-24 43,-57 -1,-7 -4,-13 -6,-20l-1 0z"/>
 </g>
</svg>
