

<!-- Creator: CorelDRAW X6 -->
<svg xmlns="http://www.w3.org/2000/svg" x="0" y="0" xml:space="preserve" width="35mm" height="25mm" version="1.1" shape-rendering="geometricPrecision" text-rendering="geometricPrecision" image-rendering="optimizeQuality" fill-rule="evenodd" clip-rule="evenodd"
viewBox="0 0 3500 2500"
 xmlns:xlink="http://www.w3.org/1999/xlink"
 enable-background="new 0 0 600 785.8">
 <g id="Layer_x0020_1">
  <metadata id="CorelCorpID_0Corel-Layer"/>
 </g>
 <g id="Layer_x0020_1_0">
  <metadata id="CorelCorpID_1Corel-Layer"/>
 </g>
 <g id="Layer_x0020_1_0_1">
  <metadata id="CorelCorpID_2Corel-Layer"/>
 </g>
 <g id="Layer_x0020_1_0_2">
  <metadata id="CorelCorpID_3Corel-Layer"/>
 </g>
 <g id="Layer_x0020_1_3">
  <metadata id="CorelCorpID_4Corel-Layer"/>
 </g>
 <g id="Layer_x0020_1_0_4">
  <metadata id="CorelCorpID_5Corel-Layer"/>
 </g>
 <g id="Layer_x0020_1_0_5">
  <metadata id="CorelCorpID_6Corel-Layer"/>
 </g>
 <g id="Layer_x0020_1_0_6">
  <metadata id="CorelCorpID_7Corel-Layer"/>
 </g>
 <g id="Layer_x0020_1_0_7">
  <metadata id="CorelCorpID_8Corel-Layer"/>
 </g>
 <g id="Layer_x0020_1_0_2_8">
  <metadata id="CorelCorpID_9Corel-Layer"/>
 </g>
 <g id="Layer_x0020_1_0_2_8_9">
  <metadata id="CorelCorpID_10Corel-Layer"/>
 </g>
 <g id="Layer_x0020_1_0_10">
  <metadata id="CorelCorpID_11Corel-Layer"/>
 </g>
 <g id="Layer_x0020_1_1">
  <metadata id="CorelCorpID_12Corel-Layer"/>
 </g>
 <g id="Layer_x0020_1_11">
  <metadata id="CorelCorpID_13Corel-Layer"/>
 </g>
 <g id="Layer_x0020_1_12">
  <metadata id="CorelCorpID_14Corel-Layer"/>
 </g>
 <g id="Layer_x0020_1_12">
  <metadata id="CorelCorpID_15Corel-Layer"/>
 </g>
 <g id="Layer_x0020_1_13">
  <metadata id="CorelCorpID_16Corel-Layer"/>
 </g>
 <g id="Layer_x0020_1_13">
  <metadata id="CorelCorpID_17Corel-Layer"/>
  <g id="_630194720">
   <path fill="#FFD54D" d="M1677 66c-224,234 -367,825 -367,825 250,117 153,438 -62,529 -162,70 -411,-63 -442,-239 -23,-129 44,-230 132,-316 0,0 -774,-250 -891,-361 0,0 -62,-21 -30,81 30,102 601,1731 601,1731l1013 30 237 0 1013 -30c0,0 570,-1630 601,-1731 30,-102 -30,-81 -30,-81 -117,111 -891,361 -891,361 88,87 156,187 132,316 -31,176 -281,309 -442,239 -214,-92 -311,-412 -62,-529 0,0 -143,-591 -367,-825l-73 -66 -73 66z"/>
   <path fill="#E38C1D" d="M1750 2444c0,0 -1,-38 -2,-104 -1,-66 -5,-160 -6,-273 -1,-113 -5,-245 -6,-386 -1,-142 -2,-292 -2,-443 1,-151 1,-302 2,-443 0,-142 3,-274 6,-386 1,-113 5,-208 7,-274 2,-66 3,-103 3,-103 0,0 1,37 3,103 1,66 6,160 8,274 1,113 6,245 7,386 1,142 2,292 3,443 -1,151 -1,302 -2,443 -1,142 -5,274 -6,386 -2,114 -6,208 -8,274 -3,66 -5,103 -5,103l-3 0z"/>
   <path fill="#FAB51A" d="M2965 2391c0,60 -49,109 -109,109l-2219 0c-60,0 -109,-49 -109,-109 0,-60 49,-109 109,-109l2219 0c60,0 109,49 109,109z"/>
   <path fill="#E38C1D" d="M104 612l35 28c13,9 26,16 38,24 13,8 27,14 39,21 13,7 27,13 41,19 27,13 56,22 84,33l85 29 171 57c28,10 57,17 86,26l86 23 0 0c7,2 10,9 9,16 -10,39 -23,79 -37,116 -14,38 -24,75 -30,113 -2,37 1,75 16,110 8,19 14,35 26,52 9,19 22,34 32,49 10,15 26,29 38,44 15,13 28,27 44,38 15,12 30,24 48,34 16,10 34,20 51,27 35,16 72,27 111,34 37,5 75,6 114,0 37,-7 74,-17 108,-37 17,-8 33,-20 49,-30 14,-13 30,-24 43,-38 28,-27 49,-60 67,-94 16,-35 30,-71 37,-109 5,-19 5,-38 8,-58 0,-19 1,-41 -2,-58 -3,-37 -16,-74 -32,-110 -16,-36 -36,-70 -55,-107 -5,-9 -9,-20 -13,-31 -3,-12 -3,-26 0,-36 6,-22 14,-41 21,-59l0 1c10,-29 21,-58 33,-86l35 -84 34 -84c6,-14 12,-28 19,-42l21 -41c14,-27 28,-55 43,-80l44 -79 88 -158c-27,55 -52,109 -80,162l-42 80c-14,27 -26,55 -38,81l-19 41c-7,13 -12,28 -17,42l-31 85 -33 85c-10,28 -20,56 -29,85l0 1c-7,19 -15,38 -19,55 -3,16 2,30 12,49 19,35 41,70 58,107 17,37 31,78 36,121 3,22 2,41 2,63 -2,21 -3,42 -8,63 -7,42 -22,81 -39,118 -20,37 -42,73 -72,103 -14,16 -31,29 -46,43 -17,12 -34,26 -53,35 -37,21 -78,34 -120,42 -42,7 -85,6 -128,-1 -39,-7 -81,-19 -118,-37 -19,-8 -38,-19 -56,-30 -19,-10 -35,-23 -51,-36 -16,-13 -31,-28 -46,-42 -14,-16 -29,-30 -41,-48 -13,-17 -26,-35 -35,-52 -10,-16 -20,-37 -28,-57 -17,-39 -21,-84 -17,-127 7,-42 20,-82 35,-120 15,-38 29,-75 39,-113l9 16 -87 -26c-29,-9 -58,-16 -86,-28 -56,-20 -114,-41 -169,-63l-84 -32c-28,-12 -56,-23 -82,-37 -14,-7 -27,-13 -41,-21 -13,-8 -27,-14 -38,-23 -13,-9 -26,-17 -37,-27l-34 -30 0 1z"/>
   <path fill="#E38C1D" d="M3410 612l-34 30c-12,9 -24,17 -37,27 -12,9 -26,15 -38,23 -13,8 -27,14 -41,21 -27,14 -55,24 -82,37l-84 33c-56,22 -113,42 -169,63 -28,10 -57,19 -86,28l-87 26 9 -16c10,38 24,75 39,113 15,37 28,78 35,120 3,43 0,87 -17,127 -8,20 -16,41 -28,57 -9,17 -22,35 -35,52 -13,17 -27,31 -41,48 -15,14 -30,29 -46,42 -16,13 -33,26 -51,36 -17,12 -36,21 -56,30 -38,17 -79,29 -118,37 -43,7 -86,8 -128,1 -42,-7 -82,-20 -120,-42 -20,-9 -36,-22 -53,-35 -15,-14 -32,-27 -46,-43 -30,-30 -52,-66 -72,-103 -17,-38 -33,-78 -39,-118 -5,-21 -6,-42 -8,-63 0,-22 -1,-41 2,-63 5,-43 19,-84 36,-121 17,-37 39,-72 58,-107 9,-17 15,-33 12,-49 -3,-17 -12,-36 -19,-55l0 -1c-10,-28 -19,-56 -29,-85l-33 -85 -31 -85c-5,-14 -10,-28 -17,-42l-19 -41c-13,-27 -26,-55 -38,-81l-42 -80c-28,-53 -53,-108 -80,-162l88 158 45 79c15,27 28,53 43,80l21 41c7,13 14,27 19,42l34 84 35 84c12,28 21,57 33,86l0 -1c7,19 16,37 21,59 2,12 2,24 0,36 -3,12 -8,21 -13,31 -19,37 -38,71 -55,107 -16,36 -28,73 -33,110 -2,17 -2,39 -2,58 2,20 3,38 8,58 7,38 21,74 37,109 19,34 39,67 67,94 13,15 28,26 43,38 16,10 31,22 49,30 34,19 71,30 108,37 37,7 77,6 114,0 39,-7 77,-17 111,-34 17,-8 35,-16 51,-27 17,-9 33,-22 48,-34 15,-12 29,-26 44,-38 13,-15 27,-29 38,-44 12,-15 23,-30 33,-49 12,-17 17,-34 26,-52 16,-35 19,-73 16,-110 -6,-38 -16,-75 -30,-113 -14,-37 -27,-77 -37,-116 -2,-7 2,-14 9,-16l0 0 86 -23c29,-8 58,-15 86,-26l171 -57 85 -29c28,-10 56,-21 84,-33 14,-6 28,-12 41,-19 13,-7 27,-13 39,-21 13,-8 26,-15 38,-24l35 -28 -1 -1z"/>
  </g>
 </g>
</svg>
