

<!-- Creator: CorelDRAW X6 -->
<svg xmlns="http://www.w3.org/2000/svg" x="0" y="0" xml:space="preserve" width="34mm" height="25mm" version="1.1" shape-rendering="geometricPrecision" text-rendering="geometricPrecision" image-rendering="optimizeQuality" fill-rule="evenodd" clip-rule="evenodd"
viewBox="0 0 3400 2500"
 xmlns:xlink="http://www.w3.org/1999/xlink"
 enable-background="new 0 0 600 785.8">
 <g id="Layer_x0020_1">
  <metadata id="CorelCorpID_0Corel-Layer"/>
 </g>
 <g id="Layer_x0020_1_0">
  <metadata id="CorelCorpID_1Corel-Layer"/>
 </g>
 <g id="Layer_x0020_1_0_1">
  <metadata id="CorelCorpID_2Corel-Layer"/>
 </g>
 <g id="Layer_x0020_1_0_2">
  <metadata id="CorelCorpID_3Corel-Layer"/>
 </g>
 <g id="Layer_x0020_1_3">
  <metadata id="CorelCorpID_4Corel-Layer"/>
 </g>
 <g id="Layer_x0020_1_0_4">
  <metadata id="CorelCorpID_5Corel-Layer"/>
 </g>
 <g id="Layer_x0020_1_0_5">
  <metadata id="CorelCorpID_6Corel-Layer"/>
 </g>
 <g id="Layer_x0020_1_0_6">
  <metadata id="CorelCorpID_7Corel-Layer"/>
 </g>
 <g id="Layer_x0020_1_0_7">
  <metadata id="CorelCorpID_8Corel-Layer"/>
 </g>
 <g id="Layer_x0020_1_0_2_8">
  <metadata id="CorelCorpID_9Corel-Layer"/>
 </g>
 <g id="Layer_x0020_1_0_2_8_9">
  <metadata id="CorelCorpID_10Corel-Layer"/>
 </g>
 <g id="Layer_x0020_1_0_10">
  <metadata id="CorelCorpID_11Corel-Layer"/>
 </g>
 <g id="Layer_x0020_1_1">
  <metadata id="CorelCorpID_12Corel-Layer"/>
 </g>
 <g id="Layer_x0020_1_11">
  <metadata id="CorelCorpID_13Corel-Layer"/>
 </g>
 <g id="Layer_x0020_1_12">
  <metadata id="CorelCorpID_14Corel-Layer"/>
 </g>
 <g id="Layer_x0020_1_12">
  <metadata id="CorelCorpID_15Corel-Layer"/>
 </g>
 <g id="Layer_x0020_1_13">
  <metadata id="CorelCorpID_16Corel-Layer"/>
 </g>
 <g id="Layer_x0020_1_13">
  <metadata id="CorelCorpID_17Corel-Layer"/>
  <g id="_631124456">
   <path fill="#6A9E9C" d="M667 911c0,0 181,-221 608,-176 0,0 331,49 397,91 0,0 280,-169 595,-154 315,16 497,239 497,239 0,0 237,-39 303,107 66,146 -291,867 -291,867l-2194 39 -264 -864c0,0 91,-284 349,-148l0 -1z"/>
   <path fill="#BEDAD9" d="M487 2103c0,0 -506,-1840 -469,-1849 36,-9 297,91 334,249 36,157 -9,296 -9,296 0,0 352,-149 397,-9 45,140 -9,192 0,260 11,88 173,197 101,292 -83,109 -214,-37 -223,-125 -9,-83 37,-231 -76,-261 -58,-16 -109,50 -126,102 -54,174 164,343 279,431 0,0 406,-95 667,-120 0,0 234,-304 63,-367 -172,-63 -118,72 -90,127 27,54 18,145 -136,163 -154,18 -190,-63 -190,-63 0,0 145,18 136,-109 -9,-127 -208,-415 -45,-501 163,-85 297,0 297,0 0,0 -206,-389 255,-588l38 -17 39 20c460,199 268,586 268,586 0,0 136,-85 298,0 163,85 -36,375 -45,501 -9,127 136,109 136,109 0,0 -36,81 -190,63 -154,-18 -163,-109 -136,-163 27,-54 81,-190 -90,-127 -172,63 63,367 63,367 261,25 667,120 667,120 116,-88 333,-257 279,-431 -16,-52 -67,-118 -126,-102 -113,30 -67,178 -76,261 -10,86 -140,233 -223,125 -73,-94 90,-204 101,-292 9,-70 -45,-120 0,-260 45,-140 397,9 397,9 0,0 -45,-139 -9,-296 36,-157 298,-258 334,-249 36,9 -469,1849 -469,1849 0,0 -550,-140 -1159,-135 -609,6 -1203,135 -1203,135l-62 0 -2 -1z"/>
   <path fill="#92C3C2" d="M1972 1003c-8,3 -17,7 -24,12 -7,4 -13,11 -19,18 -11,13 -16,31 -18,48 -2,35 8,70 20,102 27,65 65,126 108,182l-4 -2 169 20c28,3 56,7 84,12l84 15 84 15c28,4 56,11 83,17 56,11 111,22 166,35l-11 2c77,-59 154,-122 212,-197 29,-38 53,-80 63,-125 2,-11 3,-22 4,-34 -1,-11 0,-22 -2,-34 -3,-11 -3,-22 -8,-33 -3,-10 -9,-20 -15,-30 -24,-38 -63,-70 -103,-48 -18,8 -33,22 -40,43 -8,20 -10,43 -10,66 0,24 1,48 2,73 1,25 2,52 -3,77 -7,28 -19,50 -35,73 -15,21 -33,42 -54,57 -21,16 -47,29 -77,30 -30,1 -59,-16 -76,-36l-7 -8c-4,-6 -4,-6 -7,-9 -3,-6 -7,-9 -9,-18 -7,-16 -8,-30 -7,-44 2,-29 13,-54 27,-76 26,-44 59,-82 81,-122 11,-21 15,-39 12,-64 -2,-20 -9,-46 -13,-71 -9,-50 -4,-104 11,-153l2 -9c1,-6 2,-7 3,-10 2,-6 7,-12 11,-19 9,-11 21,-21 34,-27 26,-12 52,-15 77,-16 52,0 101,11 149,24 48,13 95,29 141,49l-13 12c-9,-30 -13,-62 -18,-92l-3 -47 0 -47 3 -47c1,-16 6,-30 8,-46l4 -22 8 -22c2,-8 7,-15 10,-21 3,-7 7,-15 12,-20l13 -19 16 -18c10,-12 22,-21 34,-33 24,-20 49,-37 76,-53 27,-16 55,-29 83,-40 15,-6 29,-10 44,-15 15,-3 30,-9 45,-7 -16,-1 -30,4 -45,8 -15,4 -29,10 -43,17 -28,12 -55,27 -81,43 -26,16 -50,34 -74,54 -11,10 -22,20 -31,33l-15 17 -12 19c-4,6 -7,13 -10,19 -3,7 -7,12 -9,20l-7 21 -3 22c-2,15 -6,30 -6,45l-2 45 1 45 4 45c4,30 10,61 19,89 2,6 -1,11 -7,13l-7 0c-45,-18 -92,-34 -139,-45 -47,-12 -95,-21 -142,-20 -47,1 -95,16 -101,63 -15,46 -18,93 -10,139 4,24 11,46 13,75 1,7 0,12 0,19l0 9 0 2 0 2 0 1 -1 6c-2,15 -8,27 -13,38 -25,47 -57,84 -81,125 -11,20 -21,42 -22,62 -1,10 1,20 4,28 0,3 6,10 8,15l4 6 6 6c15,16 33,26 52,25 19,-1 40,-10 57,-24 35,-27 64,-70 75,-110 9,-44 0,-94 1,-145 1,-26 3,-53 13,-79 10,-26 33,-49 61,-61 10,-3 27,-10 42,-9 16,1 30,6 43,12 25,15 43,36 57,58 7,11 12,24 18,36 4,12 7,26 9,38 2,13 1,27 2,40 -1,13 -2,27 -6,39 -12,52 -39,96 -70,137 -63,80 -141,142 -220,202l0 0c-3,2 -8,3 -11,2 -55,-13 -110,-26 -165,-37 -28,-6 -55,-12 -83,-18l-83 -16 -83 -16c-28,-6 -56,-10 -83,-13l-167 -25 -1 0 -4 -2c-42,-58 -79,-120 -104,-187 -12,-34 -21,-70 -18,-105 2,-18 8,-36 20,-49 6,-7 12,-12 20,-18 8,-6 16,-8 24,-11l-3 1z"/>
   <path fill="#92C3C2" d="M1426 1003c-15,-4 -28,-10 -44,-12 -7,-2 -15,-2 -22,-3 -8,-1 -15,0 -22,1 -15,3 -26,13 -29,28 -3,15 -1,29 2,44 3,15 9,28 15,42 6,13 13,27 19,42 10,29 8,64 -10,90 -9,13 -20,24 -34,33 -13,9 -27,15 -42,19 -15,4 -29,9 -45,11 -15,3 -31,3 -46,4 -8,0 -15,1 -22,1l-24 -2c-16,0 -30,-4 -46,-9 -8,-1 -15,-6 -21,-9 -7,-3 -15,-7 -20,-12 -13,-9 -25,-20 -34,-36 -2,-4 -1,-9 3,-11l4 -1 1 0c40,3 88,-4 110,-37 11,-16 16,-36 13,-56 0,-21 -7,-40 -12,-62 -27,-82 -66,-162 -88,-249 -10,-44 -18,-91 -2,-138 8,-24 24,-45 44,-59 9,-7 21,-13 31,-18 10,-4 20,-9 31,-13 22,-9 44,-13 67,-17 22,-3 46,-4 68,-2 24,1 46,6 68,12 22,7 44,15 65,27l-21 20c-15,-31 -26,-62 -34,-94 -3,-16 -7,-33 -10,-48 -1,-17 -4,-33 -4,-49 0,-17 -1,-34 1,-49 2,-17 2,-34 8,-49 4,-16 7,-33 13,-48 7,-16 11,-31 20,-46l26 -44 31 -38c10,-13 24,-24 36,-35 12,-11 24,-24 38,-31l42 -28c13,-10 28,-16 43,-24 29,-15 58,-29 88,-43l0 0c4,-2 10,-2 15,0l86 44c15,8 29,13 43,24l42 28c15,9 27,20 39,31 12,11 26,21 36,34l33 38c10,13 18,28 27,43 10,13 15,30 21,46 8,15 11,31 16,48 6,16 7,33 9,49 3,17 2,34 3,50 1,17 -1,34 -2,50 -1,17 -4,33 -8,49 -7,33 -17,64 -31,95l-22 -20c21,-12 43,-20 65,-27 22,-7 45,-11 68,-12 22,-1 46,-1 68,2 22,3 45,9 66,17 11,3 21,9 31,13 6,2 10,4 16,8 4,3 9,6 15,9 21,16 36,36 44,59 16,47 8,94 -2,138 -21,88 -62,167 -88,249 -7,20 -12,42 -12,62l0 17 2 15c2,9 6,18 11,26 22,33 70,40 110,37l1 0c4,0 9,3 9,8l-1 4c-9,16 -20,27 -34,36 -6,6 -13,9 -20,12 -7,3 -13,8 -21,9 -15,4 -30,9 -46,9l-24 2c-8,0 -16,-1 -22,-1 -15,-1 -31,-1 -46,-4 -15,-2 -30,-6 -45,-11 -15,-4 -29,-11 -42,-19 -13,-8 -25,-19 -34,-33 -19,-26 -20,-61 -10,-90 6,-15 13,-28 19,-42 6,-13 11,-28 15,-42 3,-15 6,-29 2,-44 -2,-15 -15,-25 -29,-28 -8,-1 -15,-2 -22,-1 -8,0 -15,1 -22,3 -15,2 -29,8 -44,12 15,-4 28,-10 43,-13 7,-2 15,-3 22,-3 8,-1 15,0 22,1 16,2 29,15 33,30 3,16 2,31 -1,46 -3,15 -8,29 -13,44 -6,15 -13,28 -17,42 -9,27 -6,59 11,82 8,11 19,21 31,28 12,8 26,13 39,17 15,4 28,8 43,9 15,3 29,2 44,3 8,0 15,1 22,0l21 -2c15,-1 28,-6 42,-10 7,-1 13,-6 19,-9 7,-3 12,-7 18,-11 11,-8 21,-19 27,-29l9 12c-24,2 -46,1 -70,-4 -22,-6 -46,-18 -59,-38 -7,-10 -12,-21 -15,-34l-3 -18 0 -17c0,-25 7,-46 12,-67 27,-85 64,-165 84,-249 9,-42 15,-85 1,-122 -7,-18 -19,-34 -34,-45 -3,-3 -9,-6 -13,-9 -3,-2 -9,-4 -13,-7 -9,-4 -19,-9 -29,-12 -19,-8 -40,-12 -61,-16 -20,-3 -42,-3 -63,-2 -21,1 -42,6 -62,11 -20,6 -40,15 -57,24 -8,4 -17,2 -21,-6 -2,-4 -2,-10 -1,-15 12,-27 21,-58 28,-89 2,-16 6,-30 7,-46 1,-16 3,-31 2,-46 0,-16 0,-31 -3,-46 -2,-16 -3,-30 -9,-45 -4,-15 -8,-30 -15,-44 -7,-13 -11,-29 -20,-42 -8,-13 -16,-27 -25,-39l-30 -35c-9,-12 -22,-21 -34,-31 -12,-10 -22,-21 -36,-29l-38 -26c-12,-9 -28,-15 -43,-22l-86 -43 15 0 -44 20 -43 21c-13,7 -29,13 -42,22l-39 26c-13,8 -24,19 -36,29 -11,11 -25,19 -34,33l-29 36 -24 39c-8,13 -12,28 -19,42 -7,13 -9,29 -12,44 -4,15 -4,30 -7,46 -2,16 -1,30 -1,46 0,16 2,30 3,46 2,16 6,30 9,46 7,30 18,61 30,88 3,8 1,17 -7,20 -4,2 -10,2 -15,-1 -17,-10 -37,-18 -57,-24 -20,-6 -40,-10 -62,-11 -21,-1 -42,-1 -63,2 -20,3 -42,8 -61,15 -10,3 -19,8 -29,12 -11,4 -18,9 -27,15 -16,11 -28,27 -35,45 -13,37 -8,81 1,122 19,84 57,164 84,249 6,21 12,44 12,67 1,24 -3,48 -18,68 -15,21 -37,33 -59,38 -22,6 -46,8 -70,4l9 -12c6,10 16,21 27,29 6,4 11,8 18,11 7,3 12,7 19,9 13,4 27,9 42,10l21 2c8,0 15,0 22,-1 16,-1 29,0 44,-3 15,-2 29,-4 43,-9 13,-4 28,-10 39,-18 12,-7 24,-17 31,-28 17,-22 20,-55 11,-82 -4,-13 -12,-27 -18,-42 -6,-13 -10,-28 -13,-44 -3,-15 -4,-30 -1,-46 3,-16 17,-27 33,-30 8,-1 16,-2 22,-1 8,0 15,1 22,3 15,2 29,9 43,13l11 1z"/>
   <path fill="#92C3C2" d="M695 1490c27,-9 54,-17 82,-24 27,-7 55,-15 82,-21 28,-7 55,-13 83,-20 28,-6 55,-12 83,-18l83 -17c28,-6 56,-10 84,-13 56,-8 113,-15 169,-22l-11 7c21,-27 42,-56 59,-86 18,-29 36,-61 49,-92 7,-16 12,-33 17,-49 3,-17 7,-34 7,-50 0,-17 -4,-34 -15,-47 -4,-7 -11,-13 -18,-19 -7,-6 -15,-10 -22,-13 17,6 34,13 46,28 12,13 20,33 22,50 6,37 -4,74 -16,109 -12,35 -27,67 -45,99 -18,31 -37,62 -58,92 -2,3 -7,6 -10,7l-1 0c-56,8 -111,16 -167,24 -28,3 -56,7 -84,12l-83 13c-28,4 -56,9 -84,13 -28,4 -56,10 -83,15 -28,6 -56,9 -84,13l-84 13 -1 -2z"/>
   <path fill="#92C3C2" d="M18 254c16,-2 30,2 46,7 15,4 29,9 44,15 29,11 56,25 83,39 27,16 53,33 76,53 11,10 24,20 34,33l16 18 13 19c4,6 8,13 12,20 3,7 8,13 10,21l8 24 4 22c2,16 7,30 8,46l3 47 0 47 -3 47c-4,31 -9,62 -18,93l-17 -16c46,-19 93,-36 141,-49 48,-12 98,-24 149,-24 26,1 53,3 79,16 12,7 25,16 34,28 4,7 9,12 11,19l2 6 1 3 1 2 2 9 9 36c2,12 3,26 6,39 2,26 1,52 -3,77 -4,25 -11,49 -13,72 -1,6 0,11 0,17l0 8 0 2 0 0 0 1 1 4c2,13 6,20 11,30 21,40 55,79 80,122 12,22 25,47 26,76 2,29 -11,59 -30,80 -7,9 -20,19 -34,26 -13,7 -28,10 -43,9 -30,-1 -56,-15 -76,-30 -42,-34 -72,-77 -86,-129 -1,-7 -3,-13 -3,-20 0,-7 -1,-12 -1,-19 0,-13 0,-26 1,-38 1,-25 3,-49 2,-73 0,-24 -2,-47 -10,-67 -8,-20 -22,-36 -43,-45 -40,-22 -83,10 -108,49 -7,10 -11,20 -16,31 -4,9 -6,24 -9,35 -2,12 -1,22 -2,35 1,11 2,24 4,35 10,46 34,90 63,129 58,79 135,142 211,204 -80,-57 -159,-118 -222,-195 -30,-39 -58,-83 -70,-132 -2,-12 -4,-26 -6,-38 1,-13 0,-27 2,-39 3,-12 3,-22 9,-37 4,-12 10,-24 17,-35 13,-22 30,-43 55,-57 12,-7 26,-11 40,-12l11 0 9 1c8,2 13,4 20,7 26,10 48,33 58,58 10,26 13,52 13,77 2,50 -8,101 1,144 12,43 42,83 76,111 18,13 38,24 58,24 10,0 19,-2 28,-7 8,-4 15,-9 24,-19 15,-16 22,-35 20,-55 -1,-20 -11,-42 -22,-62 -24,-40 -57,-77 -81,-125 -6,-11 -12,-28 -13,-38l-1 -4 0 -1c-1,-3 0,-2 0,-2l0 -2 0 -10c0,-7 -1,-15 0,-20 3,-27 10,-50 13,-74 3,-24 6,-46 3,-70l-4 -34 -9 -36c-4,-22 -16,-37 -35,-47 -19,-9 -42,-12 -65,-13 -47,0 -95,9 -141,21 -47,12 -94,27 -139,45l0 0c-7,2 -13,-1 -17,-7l0 -9c9,-28 15,-58 19,-88l4 -45 1 -45 -2 -45c0,-15 -4,-30 -6,-45l-3 -22 -7 -20c-1,-7 -6,-13 -9,-20 -3,-7 -6,-13 -10,-19l-12 -19 -15 -17c-9,-11 -21,-21 -31,-33 -22,-20 -47,-38 -73,-54 -26,-16 -53,-30 -81,-43 -13,-6 -28,-12 -43,-17 -15,-4 -29,-10 -45,-9l1 -9z"/>
   <path fill="#709C9A" d="M2925 2285c0,110 -545,199 -1218,199 -673,0 -1218,-89 -1218,-199 0,-110 545,-199 1218,-199 673,0 1218,89 1218,199z"/>
   <path fill="#DCE8E5" d="M2925 2285c-1,0 1,11 -10,26 -11,15 -34,31 -66,46 -64,29 -159,56 -276,77 -117,20 -255,38 -403,49 -148,11 -306,17 -464,17 -158,-1 -316,-7 -464,-17 -148,-10 -286,-28 -403,-49 -117,-21 -213,-48 -276,-77 -31,-15 -55,-31 -66,-46 -11,-16 -9,-27 -10,-26 1,0 -1,11 11,25 11,15 35,28 67,42 64,26 160,46 277,64 117,18 254,29 402,38 147,9 305,13 462,12 157,1 315,-3 462,-12 147,-9 285,-20 402,-38 117,-18 213,-38 277,-64 31,-12 55,-27 67,-42 12,-15 11,-26 11,-25z"/>
   <path fill="#DCE8E5" d="M1706 1904c-673,0 -1218,89 -1218,199l0 182c0,-110 545,-199 1218,-199 673,0 1218,89 1218,199l0 -182c0,-110 -545,-199 -1218,-199z"/>
   <path fill="#92C3C2" d="M2925 2103c-1,0 1,-11 -11,-25 -11,-15 -35,-28 -67,-42 -64,-26 -160,-46 -277,-64 -117,-18 -254,-29 -402,-38 -147,-9 -305,-13 -462,-12 -157,-1 -315,3 -462,12 -147,9 -285,21 -402,38 -117,18 -213,38 -277,64 -31,12 -55,27 -67,42 -12,15 -11,26 -11,25 1,0 -1,-11 10,-26 11,-15 34,-31 66,-46 64,-29 159,-56 276,-77 117,-20 255,-38 403,-49 148,-11 306,-17 464,-17 158,1 316,7 464,17 148,10 286,28 403,49 117,21 213,48 276,77 31,15 55,31 66,46 11,16 9,27 10,26z"/>
   <path fill="#92C3C2" d="M487 2285c1,0 -1,-11 10,-26 11,-15 34,-31 66,-46 63,-29 159,-56 276,-77 117,-20 255,-38 403,-49 148,-11 306,-17 464,-17 158,1 316,7 464,17 148,10 285,28 403,49 117,21 213,48 276,77 31,15 55,31 66,46 11,16 9,27 10,26 -1,0 1,-11 -11,-25 -11,-15 -35,-28 -67,-42 -64,-26 -160,-46 -277,-64 -117,-18 -254,-29 -402,-38 -147,-9 -305,-13 -462,-12 -157,-1 -315,3 -462,12 -147,9 -285,20 -402,38 -117,18 -213,38 -277,64 -31,12 -55,27 -67,42 -12,15 -11,26 -11,25z"/>
   <path fill="#CD252F" d="M1002 1543c-37,34 -9,108 46,89 81,-28 11,-129 -40,-92l-6 4 0 -1z"/>
   <path fill="#CD252F" d="M837 1668c-54,15 -57,96 7,104 66,8 98,-102 16,-107 -8,0 -16,0 -22,2z"/>
   <path fill="#CD252F" d="M1014 1756c-17,18 -26,45 -20,68 20,82 174,1 89,-73 -25,-21 -50,-15 -68,4z"/>
   <path fill="#CD252F" d="M1203 1609c-34,17 -40,71 6,90 75,31 92,-85 27,-94 -12,-2 -24,0 -33,4z"/>
   <path fill="#AB2C2C" d="M1749 386c-31,4 -25,53 -55,54 -34,1 -34,-56 -65,-61 -20,-3 -35,10 -47,26 28,58 100,99 176,49 18,-11 29,-30 35,-52 -16,-11 -30,-20 -44,-18l0 1z"/>
   <path fill="#CD252F" d="M1629 380c31,4 31,62 65,61 29,-1 22,-49 55,-54 13,-2 29,7 44,18 13,-44 2,-100 -22,-131 -28,-36 -80,-33 -120,-21 -12,3 -24,8 -30,12 -56,35 -62,94 -39,141 13,-16 28,-29 47,-26l1 0z"/>
   <path fill="#CD252F" d="M1629 876c42,1 54,58 103,50 10,-26 -4,-71 19,-91 12,-10 27,-11 43,-8 -4,-30 -16,-59 -33,-84 -34,-48 -96,-42 -140,-11 -16,11 -29,26 -38,43 -20,42 -16,91 8,128 9,-13 19,-27 37,-27l1 0z"/>
   <path fill="#AB2C2C" d="M1753 835c-24,20 -9,65 -19,91 -49,8 -63,-49 -103,-50 -18,-1 -28,12 -37,27 16,26 42,46 73,53 76,16 132,-33 131,-109 0,-7 -1,-12 -2,-19 -16,-2 -30,-2 -43,8z"/>
   <path fill="#AB2C2C" d="M1232 772c-31,-3 -53,33 -90,21 -4,-1 -8,-3 -12,-6 2,38 27,72 85,67 28,-2 52,-17 65,-37 -12,-19 -24,-43 -48,-45l0 -1z"/>
   <path fill="#CD252F" d="M1293 759c-3,-24 -18,-46 -38,-59 -40,-26 -75,-13 -98,11 -18,20 -28,49 -27,76 4,2 8,4 12,6 37,11 59,-25 90,-21 25,2 36,26 48,45 11,-17 16,-37 12,-59l0 2z"/>
   <path fill="#AB2C2C" d="M1687 1599c-35,9 -46,54 -89,36 -19,-9 -30,-24 -37,-42l-1 7c-12,84 56,129 135,128 43,-1 74,-19 93,-48 -29,-43 -55,-92 -101,-81z"/>
   <path fill="#CD252F" d="M1808 1574c-12,-80 -121,-129 -187,-80 -29,22 -52,58 -59,99 7,18 17,33 37,42 43,19 54,-27 89,-36 46,-11 72,38 101,81 19,-28 27,-65 20,-105z"/>
   <path fill="#CD252F" d="M2397 1543c37,34 9,108 -46,89 -81,-28 -11,-129 40,-92l6 4 0 -1z"/>
   <path fill="#CD252F" d="M2561 1668c54,15 57,96 -7,104 -66,8 -98,-102 -16,-107 8,0 16,0 22,2z"/>
   <path fill="#CD252F" d="M2384 1756c17,18 26,45 20,68 -20,82 -174,1 -89,-73 25,-21 50,-15 68,4z"/>
   <path fill="#CD252F" d="M2195 1609c35,17 40,71 -6,90 -75,31 -92,-85 -27,-94 12,-2 24,0 33,4z"/>
   <path fill="#AB2C2C" d="M2166 772c31,-3 53,33 90,21 4,-1 8,-3 12,-6 -2,38 -27,72 -85,67 -28,-2 -52,-17 -65,-37 12,-19 24,-43 48,-45l0 -1z"/>
   <path fill="#CD252F" d="M2105 759c3,-24 18,-46 38,-59 40,-26 75,-13 98,11 18,20 28,49 27,76 -4,2 -8,4 -12,6 -37,11 -59,-25 -90,-21 -25,2 -36,26 -48,45 -11,-17 -16,-37 -12,-59l0 2z"/>
  </g>
 </g>
</svg>
