

<!-- Creator: CorelDRAW X6 -->
<svg xmlns="http://www.w3.org/2000/svg" x="0" y="0" xml:space="preserve" width="30mm" height="30mm" version="1.1" style="shape-rendering:geometricPrecision; text-rendering:geometricPrecision; image-rendering:optimizeQuality; fill-rule:evenodd; clip-rule:evenodd"
viewBox="0 0 3000 3000"
 xmlns:xlink="http://www.w3.org/1999/xlink">
 <defs>
  <style type="text/css">
   <![CDATA[
    .fil9 {fill="#1491A4"}
    .fil8 {fill="#5BBBE9"}
    .fil10{fill="#8DD3F5"}
    .fil4 {fill="#D47724"}
    .fil1 {fill="#E38C1D"}
    .fil5 {fill="#EFAB16"}
    .fil7 {fill="#F3B932"}
    .fil3 {fill="#FAB51A"}
    .fil6 {fill="#FBBE3B"}
    .fil0 {fill="#FFD54D"}
    .fil2 {fill="#FFE390"}
   ]]>
  </style>
 </defs>
 <g id="Layer_x0020_1">
  <metadata id="CorelCorpID_0Corel-Layer"/>
  <g id="_630219960">
   <path fill="#FFD54D" d="M2404 2436c0,0 -48,-215 91,-721 139,-506 358,-891 358,-891l-99 -40c0,0 -356,538 -507,367 -197,-223 -142,-506 -142,-506l-112 0 0 6c2,139 -28,285 -122,402 -93,115 -220,201 -362,204 -169,3 -329,-85 -395,-249 -9,-23 -110,-362 -85,-362l-112 0c0,0 40,219 -121,470 -161,251 -528,-331 -528,-331l-99 40c0,0 219,385 358,891 139,506 91,721 91,721l878 0 908 0z"/>
   <path fill="#E38C1D" d="M2398 2455c0,81 -398,147 -890,147 -491,0 -890,-66 -890,-147 0,-81 398,-147 890,-147 491,0 890,66 890,147z"/>
   <path fill="#FFE390" d="M2398 2455c-1,0 1,8 -7,19 -8,11 -25,24 -48,34 -46,21 -116,41 -202,57 -85,15 -186,29 -294,36 -108,8 -224,12 -339,13 -116,-1 -231,-5 -339,-13 -108,-8 -209,-21 -294,-36 -85,-15 -156,-35 -202,-57 -23,-11 -40,-23 -48,-34 -8,-11 -7,-20 -7,-19 0,0 -1,8 8,18 8,10 25,21 49,30 46,19 117,34 202,47 85,13 186,22 293,29 108,7 223,10 338,9 115,1 230,-3 338,-9 108,-7 208,-15 293,-29 85,-13 156,-28 202,-47 23,-9 40,-20 49,-30 9,-10 8,-19 8,-18z"/>
   <path fill="#FFE390" d="M618 2455c1,0 -1,-8 7,-19 8,-11 25,-24 48,-34 46,-21 116,-41 202,-57 85,-15 186,-29 294,-36 108,-8 224,-12 339,-13 115,1 231,5 339,13 108,8 209,21 294,36 85,15 156,35 202,57 23,11 40,23 48,34 8,11 6,20 7,19 0,0 1,-8 -8,-18 -8,-10 -25,-21 -49,-30 -46,-19 -117,-34 -202,-47 -85,-13 -186,-22 -293,-29 -108,-7 -223,-10 -338,-9 -115,-1 -230,3 -338,9 -108,7 -208,15 -293,29 -85,13 -156,28 -202,47 -23,9 -40,20 -49,30 -9,10 -8,19 -8,18z"/>
   <path fill="#FAB51A" d="M2367 1987c-103,-62 -448,-108 -859,-108 -394,0 -727,42 -845,101 0,0 -122,50 -110,128 8,56 65,52 65,52 0,-81 398,-147 890,-147 491,0 890,66 890,147 0,0 67,-35 33,-108 -22,-48 -65,-65 -65,-65z"/>
   <path fill="#FAB51A" d="M2367 2282c-103,-62 -448,-108 -859,-108 -394,0 -727,42 -845,101 0,0 -122,50 -110,128 8,56 65,52 65,52 0,-81 398,-147 890,-147 491,0 890,66 890,147 0,0 67,-35 33,-108 -22,-48 -65,-65 -65,-65z"/>
   <path fill="#D47724" d="M2367 1987c-32,-17 -67,-26 -101,-35 -35,-9 -70,-15 -106,-20 -35,-5 -71,-10 -107,-14 -36,-4 -71,-7 -107,-10 -72,-5 -143,-10 -215,-12 -72,-2 -143,-4 -215,-4l-108 1c-36,0 -72,1 -108,3 -36,1 -72,2 -107,5 -36,2 -72,4 -107,7l-107 9c-36,5 -71,9 -107,14l-53 9c-18,3 -35,6 -53,11 -17,4 -35,8 -52,13l-50 18 0 0 -16 7c-5,2 -10,6 -15,8l-30 17 28 -20c5,-3 9,-7 15,-9l15 -8 0 0 50 -21c17,-6 35,-10 52,-16 35,-11 70,-16 106,-24 36,-6 71,-11 107,-17l107 -13c36,-4 72,-6 108,-9 36,-3 72,-4 108,-6 36,-2 72,-3 108,-4 36,-1 72,-2 108,-1 72,1 144,2 216,6 36,2 72,4 108,7 36,2 72,6 108,10 36,4 72,8 107,13 36,5 71,11 107,18 35,8 71,15 105,26 34,10 69,22 100,41z"/>
   <path fill="#D47724" d="M618 2160c1,0 -1,-7 6,-18 7,-11 23,-23 45,-33 43,-21 110,-41 191,-56 81,-15 176,-29 279,-37 103,-8 212,-13 322,-15 55,0 110,1 163,2 54,1 107,4 158,7 51,4 101,7 148,12 47,5 91,10 132,17 41,5 78,13 111,20 33,6 61,15 84,20 23,6 41,14 53,18 12,4 18,7 18,7 0,0 -7,-2 -19,-5 -12,-3 -30,-10 -54,-14 -24,-4 -52,-12 -85,-16 -33,-5 -70,-11 -111,-15 -41,-5 -85,-9 -132,-12 -47,-4 -96,-5 -147,-9 -51,-2 -104,-4 -158,-5 -54,0 -108,-1 -163,0 -109,0 -218,4 -320,11 -102,7 -197,16 -278,29 -81,13 -148,27 -191,46 -22,9 -38,20 -46,30 -8,10 -7,18 -7,18z"/>
   <path fill="#D47724" d="M2367 2282c-32,-17 -67,-26 -102,-35 -35,-9 -70,-15 -106,-20 -35,-5 -71,-10 -107,-14 -36,-4 -71,-7 -107,-10 -72,-5 -143,-10 -215,-13 -72,-2 -143,-4 -215,-3l-108 1c-36,0 -72,1 -108,3 -36,1 -72,2 -107,5l-107 7 -107 9c-36,5 -71,9 -107,14l-53 9c-18,3 -35,6 -53,10 -17,4 -35,8 -52,13l-51 18 0 0c-13,5 -25,12 -37,18 12,-7 23,-15 36,-21l0 0 50 -21c17,-6 35,-10 52,-16 17,-6 35,-10 52,-13l53 -11c35,-6 71,-11 107,-17l107 -13c36,-4 72,-6 108,-9 36,-3 72,-4 108,-6 36,-2 72,-3 108,-4 36,0 72,-2 108,-2 72,1 144,3 216,6 36,2 72,4 108,7 36,2 72,6 108,10 36,4 72,8 107,13 36,5 71,11 107,18 35,8 71,15 105,26 34,10 69,22 100,41z"/>
   <path fill="#EFAB16" d="M147 791c-46,21 -90,13 -126,8 30,57 90,95 158,95 99,0 179,-80 179,-179 0,-25 -5,-48 -14,-69 -19,15 -40,28 -63,39 -46,28 -88,83 -134,106z"/>
   <path fill="#FBBE3B" d="M179 536c-99,0 -179,80 -179,179 0,30 8,59 21,84 36,5 80,13 126,-8 46,-23 88,-79 134,-106 23,-12 44,-24 63,-39 -27,-65 -91,-110 -165,-110z"/>
   <path fill="#FBBE3B" d="M976 408c-83,0 -152,56 -173,132 42,13 60,43 97,90 18,23 37,60 69,65 32,5 37,-28 65,-32 34,-6 71,12 102,6 12,-24 19,-52 19,-81 0,-99 -80,-179 -179,-179z"/>
   <path fill="#EFAB16" d="M1034 662c-28,5 -32,37 -65,32 -32,-5 -51,-42 -69,-65 -37,-47 -54,-77 -97,-90 -4,15 -6,31 -6,47 0,99 80,179 179,179 70,0 130,-40 160,-98 -31,6 -67,-12 -102,-6z"/>
   <path fill="#EFAB16" d="M2129 625c-42,9 -69,46 -111,42 -60,-14 -74,-115 -139,-139 -5,-1 -11,-2 -16,-3 -3,13 -4,26 -4,39 0,99 80,179 179,179 77,0 142,-48 167,-116 -23,0 -48,-7 -76,-3z"/>
   <path fill="#FBBE3B" d="M2037 385c-85,0 -157,60 -175,140 6,0 11,1 16,3 65,23 79,125 139,139 42,5 69,-32 111,-42 28,-4 53,2 76,3 7,-20 12,-41 12,-63 0,-99 -80,-179 -179,-179z"/>
   <path fill="#FBBE3B" d="M3000 744c0,-99 -80,-179 -179,-179 -64,0 -120,34 -152,84 1,8 2,16 4,22 23,79 102,60 134,106 28,37 -9,97 32,139l5 5c88,-12 155,-87 155,-177z"/>
   <path fill="#EFAB16" d="M2807 777c-32,-46 -111,-28 -134,-106 -2,-7 -4,-14 -4,-22 -17,28 -27,60 -27,95 0,99 80,179 179,179 8,0 16,-1 24,-2l-5 -5c-42,-42 -5,-102 -32,-139z"/>
   <path fill="#F3B932" d="M1486 1830c-22,0 -46,-16 -76,-52 -33,-39 -146,-137 -146,-185 0,-46 122,-128 155,-164 15,-21 61,-82 76,-88l228 231c12,58 -110,152 -146,192 -36,41 -62,67 -91,67z"/>
   <path fill="#5BBBE9" d="M1501 1329c-23,52 -69,103 -117,149 13,-1 17,6 14,27 -4,23 -33,79 -9,97 19,13 49,-12 67,-12 7,20 -15,79 7,89 25,13 76,-59 97,-35 13,14 -12,66 10,76 51,-54 103,-117 144,-167 -41,-41 -213,-226 -213,-226z"/>
   <path fill="#1491A4" d="M1560 1645c-21,-24 -72,48 -97,35 -21,-11 0,-69 -7,-89 -17,0 -48,25 -67,12 -24,-19 5,-75 9,-97 3,-22 -1,-28 -14,-27 -34,33 -68,63 -96,88 68,74 146,150 213,224 22,-20 45,-43 69,-69 -22,-10 3,-62 -10,-76z"/>
   <path fill="#8DD3F5" d="M1493 1427c-10,15 -2,38 11,52 24,25 42,32 53,67 5,19 8,62 27,71 23,13 36,-14 41,-31 9,-33 2,-62 -22,-87 -21,-22 -49,-56 -78,-67l-32 -6z"/>
   <path fill="#F3B932" d="M1510 1321l-36 -2 -18 -1c-7,0 -13,-2 -19,-2 -12,-2 -24,-3 -36,-5 -48,-9 -95,-22 -137,-45 -42,-22 -76,-54 -102,-88 -27,-34 -45,-70 -61,-103 -16,-33 -27,-65 -38,-93 -11,-28 -20,-52 -27,-72 -16,-40 -24,-62 -24,-62 0,0 3,5 8,16 5,10 13,25 21,45 9,19 19,43 31,70 12,27 26,58 42,90 16,32 36,66 62,98 26,31 59,59 98,80 39,21 84,32 130,41 12,1 23,3 35,4 6,1 12,2 17,2l18 1 36 1 35 -2c23,0 47,-6 70,-9 12,-3 23,-6 34,-9 11,-3 23,-6 33,-11 11,-4 22,-8 33,-13 10,-5 21,-11 31,-16l15 -8 14 -9c9,-6 19,-12 28,-19 34,-28 67,-57 92,-90 14,-16 24,-33 34,-49 11,-16 18,-34 26,-49 15,-33 26,-64 33,-93 9,-28 10,-54 14,-75 2,-21 3,-38 4,-49 1,-11 1,-18 1,-18 0,0 0,6 0,18 0,11 1,28 0,50 -3,21 -3,48 -10,77 -5,30 -15,62 -29,96 -8,17 -14,35 -25,52 -10,17 -20,35 -34,52 -24,35 -57,67 -93,96 -10,7 -19,13 -29,20l-15 10 -16 8c-11,6 -21,11 -32,17 -11,5 -23,9 -34,14 -11,5 -23,9 -35,12 -12,3 -24,7 -36,10 -25,4 -49,10 -74,10l-38 2z"/>
   <path fill="#F3B932" d="M2282 1253c0,0 7,-3 20,-8 7,-3 15,-6 24,-9 9,-3 19,-8 30,-13 11,-5 22,-10 34,-16 12,-6 24,-14 37,-20 13,-7 26,-14 39,-23 13,-9 26,-17 39,-26 12,-10 24,-20 36,-29 12,-9 23,-20 33,-30 10,-11 22,-19 30,-30 9,-10 17,-20 24,-29 8,-9 14,-18 19,-26 5,-8 10,-15 14,-21 8,-12 13,-18 13,-18 0,0 -3,7 -8,20 -3,6 -6,14 -10,23 -2,5 -4,9 -6,14 -2,5 -6,10 -9,15 -7,10 -14,21 -22,33 -7,12 -18,22 -28,34 -11,11 -20,24 -33,33 -12,10 -25,21 -37,31 -13,9 -27,18 -41,26 -13,9 -28,16 -41,22 -14,6 -27,13 -40,18 -13,4 -26,9 -37,12 -11,4 -22,7 -32,8 -10,2 -18,3 -25,5 -14,2 -22,4 -22,4z"/>
   <path fill="#F3B932" d="M704 1239c0,0 -8,-1 -22,-4 -7,-1 -16,-3 -26,-5 -10,-2 -21,-5 -33,-10 -12,-4 -24,-9 -38,-14 -13,-6 -26,-13 -40,-20 -14,-7 -28,-15 -42,-25 -14,-9 -27,-19 -41,-29 -13,-11 -25,-22 -38,-33 -13,-10 -23,-23 -34,-34 -11,-12 -21,-22 -30,-34 -8,-12 -16,-23 -24,-33 -8,-10 -14,-20 -18,-29 -5,-9 -9,-17 -12,-23 -7,-13 -10,-20 -10,-20 0,0 5,6 14,18 4,6 10,13 16,21 6,8 13,17 22,26 8,9 17,19 26,29 9,10 21,20 31,31 11,11 22,22 35,32 12,10 25,21 37,31 13,9 26,19 39,28 13,10 26,18 39,26 13,8 25,16 37,23 12,6 24,12 35,18 11,6 21,11 30,14 9,4 17,7 24,10 13,5 21,9 21,9z"/>
  </g>
 </g>
</svg>
