

<!-- Creator: CorelDRAW X6 -->
<svg xmlns="http://www.w3.org/2000/svg" x="0" y="0" xml:space="preserve" width="34mm" height="25mm" version="1.1" shape-rendering="geometricPrecision" text-rendering="geometricPrecision" image-rendering="optimizeQuality" fill-rule="evenodd" clip-rule="evenodd"
viewBox="0 0 3400 2500"
 xmlns:xlink="http://www.w3.org/1999/xlink"
 enable-background="new 0 0 600 785.8">
 <g id="Layer_x0020_1">
  <metadata id="CorelCorpID_0Corel-Layer"/>
 </g>
 <g id="Layer_x0020_1_0">
  <metadata id="CorelCorpID_1Corel-Layer"/>
 </g>
 <g id="Layer_x0020_1_0_1">
  <metadata id="CorelCorpID_2Corel-Layer"/>
 </g>
 <g id="Layer_x0020_1_0_2">
  <metadata id="CorelCorpID_3Corel-Layer"/>
 </g>
 <g id="Layer_x0020_1_3">
  <metadata id="CorelCorpID_4Corel-Layer"/>
 </g>
 <g id="Layer_x0020_1_0_4">
  <metadata id="CorelCorpID_5Corel-Layer"/>
 </g>
 <g id="Layer_x0020_1_0_5">
  <metadata id="CorelCorpID_6Corel-Layer"/>
 </g>
 <g id="Layer_x0020_1_0_6">
  <metadata id="CorelCorpID_7Corel-Layer"/>
 </g>
 <g id="Layer_x0020_1_0_7">
  <metadata id="CorelCorpID_8Corel-Layer"/>
 </g>
 <g id="Layer_x0020_1_0_2_8">
  <metadata id="CorelCorpID_9Corel-Layer"/>
 </g>
 <g id="Layer_x0020_1_0_2_8_9">
  <metadata id="CorelCorpID_10Corel-Layer"/>
 </g>
 <g id="Layer_x0020_1_0_10">
  <metadata id="CorelCorpID_11Corel-Layer"/>
 </g>
 <g id="Layer_x0020_1_1">
  <metadata id="CorelCorpID_12Corel-Layer"/>
 </g>
 <g id="Layer_x0020_1_11">
  <metadata id="CorelCorpID_13Corel-Layer"/>
 </g>
 <g id="Layer_x0020_1_12">
  <metadata id="CorelCorpID_14Corel-Layer"/>
 </g>
 <g id="Layer_x0020_1_12">
  <metadata id="CorelCorpID_15Corel-Layer"/>
 </g>
 <g id="Layer_x0020_1_13">
  <metadata id="CorelCorpID_16Corel-Layer"/>
 </g>
 <g id="Layer_x0020_1_13">
  <metadata id="CorelCorpID_17Corel-Layer"/>
  <g id="_630219960">
   <path fill="#FFD54D" d="M2714 2300c0,0 -54,-241 102,-809 156,-568 402,-999 402,-999l-111 -45c0,0 -399,603 -569,412 -221,-250 -159,-568 -159,-568l-126 0 0 7c2,156 -31,320 -137,451 -104,129 -247,225 -406,229 -190,3 -369,-95 -443,-279 -10,-26 -123,-406 -95,-406l-126 0c0,0 45,246 -136,527 -181,282 -592,-371 -592,-371l-111 45c0,0 246,432 402,999 156,568 102,809 102,809l985 0 1018 0 0 -1z"/>
   <path fill="#E38C1D" d="M2707 2322c0,91 -446,165 -998,165 -551,0 -998,-74 -998,-165 0,-91 446,-165 998,-165 551,0 998,74 998,165z"/>
   <path fill="#FFE390" d="M2707 2322c-1,0 1,9 -8,21 -9,12 -28,27 -54,38 -52,24 -130,46 -227,64 -95,17 -209,33 -330,40 -121,9 -251,13 -380,15 -130,-1 -259,-6 -380,-15 -121,-9 -234,-24 -330,-40 -95,-17 -175,-39 -227,-64 -26,-12 -45,-26 -54,-38 -9,-12 -8,-22 -8,-21 0,0 -1,9 9,20 9,11 28,24 55,34 52,21 131,38 227,53 95,15 209,25 329,33 121,8 250,11 379,10 129,1 258,-3 379,-10 121,-8 233,-17 329,-33 95,-15 175,-31 227,-53 26,-10 45,-22 55,-34 10,-11 9,-21 9,-20z"/>
   <path fill="#FFE390" d="M711 2322c1,0 -1,-9 8,-21 9,-12 28,-27 54,-38 52,-24 130,-46 227,-64 95,-17 209,-33 330,-40 121,-9 251,-13 380,-15 129,1 259,6 380,15 121,9 234,24 330,40 95,17 175,39 227,64 26,12 45,26 54,38 9,12 7,22 8,21 0,0 1,-9 -9,-20 -9,-11 -28,-24 -55,-34 -52,-21 -131,-38 -227,-53 -95,-15 -209,-25 -329,-33 -121,-8 -250,-11 -379,-10 -129,-1 -258,3 -379,10 -121,8 -233,17 -329,33 -95,15 -175,31 -227,53 -26,10 -45,22 -55,34 -10,11 -9,21 -9,20z"/>
   <path fill="#FAB51A" d="M2672 1797c-116,-70 -502,-121 -963,-121 -442,0 -815,47 -948,113 0,0 -137,56 -123,144 9,63 73,58 73,58 0,-91 446,-165 998,-165 551,0 998,74 998,165 0,0 75,-39 37,-121 -25,-54 -73,-73 -73,-73l1 0z"/>
   <path fill="#FAB51A" d="M2672 2128c-116,-70 -502,-121 -963,-121 -442,0 -815,47 -948,113 0,0 -137,56 -123,144 9,63 73,58 73,58 0,-91 446,-165 998,-165 551,0 998,74 998,165 0,0 75,-39 37,-121 -25,-54 -73,-73 -73,-73l1 0z"/>
   <path fill="#D47724" d="M2672 1797c-36,-19 -75,-29 -113,-39 -39,-10 -79,-17 -119,-22 -39,-6 -80,-11 -120,-16 -40,-4 -80,-8 -120,-11 -81,-6 -160,-11 -241,-13 -81,-2 -160,-4 -241,-4l-121 1c-40,0 -81,1 -121,3 -40,1 -81,2 -120,6 -40,2 -81,4 -120,8l-120 10c-40,6 -80,10 -120,16l-59 10c-20,3 -39,7 -59,12 -19,4 -39,9 -58,15l-56 20 0 0 -18 8c-6,2 -11,7 -17,9l-34 19 31 -22c6,-3 10,-8 17,-10l17 -9 0 0 56 -24c19,-7 39,-11 58,-18 39,-12 79,-18 119,-27 40,-7 80,-12 120,-19l120 -15c40,-4 81,-7 121,-10 40,-3 81,-4 121,-7 40,-2 81,-3 121,-4 40,-1 81,-2 121,-1 81,1 162,2 242,7 40,2 81,4 121,8 40,2 81,7 121,11 40,4 81,9 120,15 40,6 80,12 120,20 39,9 80,17 118,29 38,11 77,25 112,46l1 0z"/>
   <path fill="#D47724" d="M711 1991c1,0 -1,-8 7,-20 8,-12 26,-26 50,-37 48,-24 123,-46 214,-63 91,-17 197,-33 313,-41 116,-9 238,-15 361,-17 62,0 123,1 183,2 61,1 120,4 177,8 57,4 113,8 166,13 53,6 102,11 148,19 46,6 87,15 124,22 37,7 68,17 94,22 26,7 46,16 59,20 13,4 20,8 20,8 0,0 -8,-2 -21,-6 -13,-3 -34,-11 -61,-16 -27,-4 -58,-13 -95,-18 -37,-6 -79,-12 -125,-17 -46,-6 -95,-10 -148,-13 -53,-4 -108,-6 -165,-10 -57,-2 -117,-4 -177,-6 -61,0 -121,-1 -183,0 -122,0 -245,4 -359,12 -114,8 -221,18 -312,33 -91,15 -166,30 -214,52 -25,10 -43,22 -52,34 -9,11 -8,20 -8,20l1 -2z"/>
   <path fill="#D47724" d="M2672 2128c-36,-19 -75,-29 -114,-39 -39,-10 -79,-17 -119,-22 -39,-6 -80,-11 -120,-16 -40,-4 -80,-8 -120,-11 -81,-6 -160,-11 -241,-15 -81,-2 -160,-4 -241,-3l-121 1c-40,0 -81,1 -121,3 -40,1 -81,2 -120,6l-120 8 -120 10c-40,6 -80,10 -120,16l-59 10c-20,3 -39,7 -59,11 -19,4 -39,9 -58,15l-57 20 0 0c-15,6 -28,13 -42,20 13,-8 26,-17 40,-24l0 0 56 -24c19,-7 39,-11 58,-18 19,-7 39,-11 58,-15l59 -12c39,-7 80,-12 120,-19l120 -15c40,-4 81,-7 121,-10 40,-3 81,-4 121,-7 40,-2 81,-3 121,-4 40,0 81,-2 121,-2 81,1 162,3 242,7 40,2 81,4 121,8 40,2 81,7 121,11 40,4 81,9 120,15 40,6 80,12 120,20 39,9 80,17 118,29 38,11 77,25 112,46l2 0z"/>
   <path fill="#EFAB16" d="M183 455c-52,24 -101,15 -141,9 34,64 101,107 177,107 111,0 201,-90 201,-201 0,-28 -6,-54 -16,-77 -21,17 -45,31 -71,44 -52,31 -99,93 -150,119z"/>
   <path fill="#FBBE3B" d="M218 169c-111,0 -201,90 -201,201 0,34 9,66 24,94 40,6 90,15 141,-9 52,-26 99,-89 150,-119 26,-13 49,-27 71,-44 -30,-73 -102,-123 -185,-123z"/>
   <path fill="#FBBE3B" d="M1112 26c-93,0 -170,63 -194,148 47,15 67,48 109,101 20,26 42,67 77,73 36,6 42,-31 73,-36 38,-7 80,13 114,7 13,-27 21,-58 21,-91 0,-111 -90,-201 -201,-201l0 -1z"/>
   <path fill="#EFAB16" d="M1177 311c-31,6 -36,42 -73,36 -36,-6 -57,-47 -77,-73 -42,-53 -61,-86 -109,-101 -4,17 -7,35 -7,53 0,111 90,201 201,201 79,0 146,-45 179,-110 -35,7 -75,-13 -114,-7l0 1z"/>
   <path fill="#EFAB16" d="M2405 269c-47,10 -77,52 -124,47 -67,-16 -83,-129 -156,-156 -6,-1 -12,-2 -18,-3 -3,15 -4,29 -4,44 0,111 90,201 201,201 86,0 159,-54 187,-130 -26,0 -54,-8 -85,-3l0 1z"/>
   <path fill="#FBBE3B" d="M2302 0c-95,0 -176,67 -196,157 7,0 12,1 18,3 73,26 89,140 156,156 47,6 77,-36 124,-47 31,-4 59,2 85,3 8,-22 13,-46 13,-71 0,-111 -90,-201 -201,-201l0 -1z"/>
   <path fill="#FBBE3B" d="M3382 403c0,-111 -90,-201 -201,-201 -72,0 -135,38 -170,94 1,9 2,18 4,25 26,89 114,67 150,119 31,42 -10,109 36,156l6 6c99,-13 174,-98 174,-199l1 0z"/>
   <path fill="#EFAB16" d="M3166 440c-36,-52 -124,-31 -150,-119 -2,-8 -4,-16 -4,-25 -19,31 -30,67 -30,107 0,111 90,201 201,201 9,0 18,-1 27,-2l-6 -6c-47,-47 -6,-114 -36,-156l-1 0z"/>
   <path fill="#F3B932" d="M1684 1621c-25,0 -52,-18 -85,-58 -37,-44 -164,-154 -164,-207 0,-52 137,-144 174,-184 17,-24 68,-92 85,-99l256 259c13,65 -123,170 -164,215 -40,46 -70,75 -102,75l0 -1z"/>
   <path fill="#5BBBE9" d="M1701 1059c-26,58 -77,116 -131,167 15,-1 19,7 16,30 -4,26 -37,89 -10,109 21,15 55,-13 75,-13 8,22 -17,89 8,100 28,15 85,-66 109,-39 15,16 -13,74 11,85 57,-61 116,-131 162,-187 -46,-46 -239,-253 -239,-253l0 2z"/>
   <path fill="#1491A4" d="M1767 1413c-24,-27 -81,54 -109,39 -24,-12 0,-77 -8,-100 -19,0 -54,28 -75,13 -27,-21 6,-84 10,-109 3,-25 -1,-31 -16,-30 -38,37 -76,71 -108,99 76,83 164,168 239,251 25,-22 50,-48 77,-77 -25,-11 3,-70 -11,-85l0 -1z"/>
   <path fill="#8DD3F5" d="M1692 1169c-11,17 -2,43 12,58 27,28 47,36 59,75 6,21 9,70 30,80 26,15 40,-16 46,-35 10,-37 2,-70 -25,-98 -24,-25 -55,-63 -87,-75l-36 -7 0 1z"/>
   <path fill="#F3B932" d="M1711 1050l-40 -2 -20 -1c-8,0 -15,-2 -21,-2 -13,-2 -27,-3 -40,-6 -54,-10 -107,-25 -154,-50 -47,-25 -85,-61 -114,-99 -30,-38 -50,-79 -68,-116 -18,-37 -30,-73 -43,-104 -12,-31 -22,-58 -30,-81 -18,-45 -27,-70 -27,-70 0,0 3,6 9,18 6,11 15,28 24,50 10,21 21,48 35,79 13,30 29,65 47,101 18,36 40,74 70,110 29,35 66,66 110,90 44,24 94,36 146,46 13,1 26,3 39,4 7,1 13,2 19,2l20 1 40 1 39 -2c26,0 53,-7 79,-10 13,-3 26,-7 38,-10 12,-3 26,-7 37,-12 12,-4 25,-9 37,-15 11,-6 24,-12 35,-18l17 -9 16 -10c10,-7 21,-13 31,-21 38,-31 75,-64 103,-101 16,-18 27,-37 38,-55 12,-18 20,-38 29,-55 17,-37 29,-72 37,-104 10,-31 11,-61 16,-84 2,-24 3,-43 4,-55 1,-12 1,-20 1,-20 0,0 0,7 0,20 0,12 1,31 0,56 -3,24 -3,54 -11,86 -6,34 -17,70 -33,108 -9,19 -16,39 -28,58 -11,19 -22,39 -38,58 -27,39 -64,75 -104,108 -11,8 -21,15 -33,22l-17 11 -18 9c-12,7 -24,12 -36,19 -12,6 -26,10 -38,16 -12,6 -26,10 -39,13 -13,3 -27,8 -40,11 -28,4 -55,11 -83,11l-43 2 3 0z"/>
   <path fill="#F3B932" d="M2577 974c0,0 8,-3 22,-9 8,-3 17,-7 27,-10 10,-3 21,-9 34,-15 12,-6 25,-11 38,-18 13,-7 27,-16 41,-22 15,-8 29,-16 44,-26 15,-10 29,-19 44,-29 13,-11 27,-22 40,-33 13,-10 26,-22 37,-34 11,-12 25,-21 34,-34 10,-11 19,-22 27,-33 9,-10 16,-20 21,-29 6,-9 11,-17 16,-24 9,-13 15,-20 15,-20 0,0 -3,8 -9,22 -3,7 -7,16 -11,26 -2,6 -4,10 -7,16 -2,6 -7,11 -10,17 -8,11 -16,24 -25,37 -8,13 -20,25 -31,38 -12,12 -22,27 -37,37 -13,11 -28,24 -42,35 -15,10 -30,20 -46,29 -15,10 -31,18 -46,25 -16,7 -30,15 -45,20 -15,4 -29,10 -42,13 -12,4 -25,8 -36,9 -11,2 -20,3 -28,6 -16,2 -25,4 -25,4l-1 0z"/>
   <path fill="#F3B932" d="M807 958c0,0 -9,-1 -25,-4 -8,-1 -18,-3 -29,-6 -11,-2 -24,-6 -37,-11 -13,-4 -27,-10 -43,-16 -15,-7 -29,-15 -45,-22 -16,-8 -31,-17 -47,-28 -16,-10 -30,-21 -46,-33 -15,-12 -28,-25 -43,-37 -15,-11 -26,-26 -38,-38 -12,-13 -24,-25 -34,-38 -9,-13 -18,-26 -27,-37 -9,-11 -16,-22 -20,-33 -6,-10 -10,-19 -13,-26 -8,-15 -11,-22 -11,-22 0,0 6,7 16,20 4,7 11,15 18,24 7,9 15,19 25,29 9,10 19,21 29,33 10,11 24,22 35,35 12,12 25,25 39,36 13,11 28,24 41,35 15,10 29,21 44,31 15,11 29,20 44,29 15,9 28,18 42,26 13,7 27,13 39,20 12,7 24,12 34,16 10,4 19,8 27,11 15,6 24,10 24,10l2 -3z"/>
  </g>
 </g>
</svg>
