

<!-- Creator: CorelDRAW X8 -->
<svg xmlns="http://www.w3.org/2000/svg" xml:space="preserve" x="0" y="0" width="25.0001mm" height="25mm" version="1.1" shape-rendering="geometricPrecision" text-rendering="geometricPrecision" image-rendering="optimizeQuality" fill-rule="evenodd" clip-rule="evenodd"
viewBox="0 0 347 347"
 xmlns:xlink="http://www.w3.org/1999/xlink">
 <g id="Katman_x0020_1">
  <metadata id="CorelCorpID_0Corel-Layer"/>
  <g id="_2525762253984">
   <path fill="#FDD333" fill-rule="nonzero" d="M0 174c0,-96 78,-174 174,-174 95,0 173,78 173,174 0,95 -78,173 -173,173 -96,0 -174,-78 -174,-173z"/>
   <path fill="#FDEBA2" fill-rule="nonzero" d="M174 0c0,0 0,0 0,0l0 0z"/>
   <path fill="#FCC427" fill-rule="nonzero" d="M174 347c-96,0 -174,-78 -174,-173 0,-96 78,-174 174,-174 0,0 0,0 0,0 0,0 0,0 0,0 12,0 25,1 37,4 -63,5 -116,43 -143,96 -9,5 -18,11 -28,19l0 0 1 0c-4,3 -6,7 -6,12 0,3 1,7 4,10l0 0c3,4 8,6 12,6 0,0 0,0 0,0l0 -14c-1,0 -1,0 -2,-1l0 0 0 0c0,0 0,-1 0,-1 0,-1 0,-2 1,-2l0 0c3,-3 6,-6 10,-8 -1,3 -2,5 -3,8 -1,1 -3,2 -4,3l0 0c-1,1 -1,1 -2,1l0 14c0,0 0,0 0,0 1,0 1,0 2,0 -2,9 -3,20 -3,30 0,83 59,152 137,169 -4,1 -9,1 -13,1l0 0z"/>
   <path fill="#FBE443" fill-rule="nonzero" d="M53 147c1,-7 3,-13 4,-18 8,-6 15,-11 23,-13 8,-4 16,-5 24,-5 0,0 0,0 0,0 12,0 22,3 29,7 7,3 12,7 12,7l0 0 0 0c1,1 1,1 2,1 1,0 1,0 2,-1 0,0 0,-1 0,-1 0,-1 0,-2 -1,-2l0 0 0 0 0 -1c-1,0 -2,-1 -3,-1 -2,-2 -5,-4 -9,-6 -8,-4 -19,-8 -33,-8 0,0 0,0 0,0 -7,0 -16,2 -25,5 -6,2 -12,6 -18,10 2,-7 5,-14 8,-21 2,0 4,-1 5,-2 11,-4 21,-5 30,-5 0,0 0,0 0,0 16,0 29,4 38,8 9,5 15,9 16,10l0 0 0 0c4,4 6,8 6,13 0,3 -1,7 -4,10l0 0 0 0c-3,4 -8,6 -12,6 0,0 0,0 0,0 0,0 0,0 0,0 -4,0 -8,-2 -11,-4l1 0c-1,0 -4,-3 -10,-6 -6,-3 -14,-5 -23,-5 0,0 0,0 0,0 -6,0 -12,1 -20,3 -7,3 -14,8 -22,15 -3,2 -6,3 -9,4z"/>
   <path fill="#FCDB36" fill-rule="nonzero" d="M51 147c-4,0 -9,-2 -12,-6l0 0c-3,-3 -4,-7 -4,-10 0,-5 2,-9 6,-12l-1 0 0 0c10,-8 19,-14 28,-19 -3,7 -6,14 -8,21 -4,2 -7,5 -10,8l0 0c-1,0 -1,1 -1,2 0,0 0,1 0,1l0 0c1,1 1,1 2,1l0 14c0,0 0,0 0,0zm0 0c0,0 0,0 0,0l0 -14c1,0 1,0 2,-1l0 0c1,-1 3,-2 4,-3 -1,5 -3,11 -4,18 -1,0 -1,0 -2,0z"/>
   <path fill="#612423" fill-rule="nonzero" d="M51 140c-3,0 -5,-1 -7,-3 -3,-4 -3,-10 1,-13 57,-50 107,-8 108,-7 4,3 4,9 1,13 -3,3 -9,4 -13,1 -2,-2 -39,-33 -84,7 -2,1 -4,2 -6,2z"/>
   <path fill="#FBE643" fill-rule="nonzero" d="M224 145c-4,0 -8,-2 -11,-6l0 0c-3,-2 -4,-6 -4,-9 0,-5 2,-9 5,-12l0 0c10,-9 20,-15 30,-18 10,-4 19,-6 27,-6 0,0 0,0 0,0 14,0 25,4 34,8 8,4 13,8 15,9l0 1 0 0c4,3 6,7 6,11 0,3 -2,7 -4,10l0 0c-3,3 -7,5 -11,5 0,0 0,0 0,0 0,0 0,0 -1,0 -3,0 -6,-1 -9,-3l0 0c0,-1 -3,-3 -9,-6 -5,-2 -12,-4 -20,-4 0,0 0,0 0,0 -5,0 -11,1 -18,3 -6,3 -13,7 -20,13 -3,2 -6,4 -10,4 0,0 0,0 0,0l0 -14c0,0 1,0 1,0 8,-8 17,-13 25,-16 7,-3 15,-4 22,-4 0,0 0,0 0,0 11,0 20,3 26,6 7,3 11,6 12,7l0 0c0,0 0,0 1,0 0,0 0,0 1,0l0 0c0,0 0,-1 0,-1 0,0 0,-1 -1,-1l0 0 0 -1c-1,0 -1,0 -2,-1 -2,-1 -5,-3 -9,-5 -7,-3 -17,-7 -29,-7 0,0 0,0 0,0 -7,0 -14,1 -22,4 -8,4 -17,9 -26,16l0 0c0,1 0,1 0,2 0,0 0,0 0,0 0,1 1,1 1,1l0 14c0,0 0,0 0,0zm-1 -15l0 0z"/>
   <path fill="#612423" fill-rule="nonzero" d="M224 138c-2,0 -5,-1 -6,-3 -3,-3 -3,-9 1,-12 51,-45 96,-7 97,-6 3,3 4,8 1,11 -3,4 -8,4 -12,1 -1,-1 -35,-29 -76,7 -1,1 -3,2 -5,2z"/>
   <path fill="#F8AC31" fill-rule="nonzero" d="M328 172c2,18 -13,34 -34,37 -22,2 -41,-10 -43,-27 -2,-18 13,-34 35,-37 21,-3 40,9 42,27z"/>
   <path fill="#F8AC31" fill-rule="nonzero" d="M128 179c2,21 -15,39 -40,42 -24,4 -46,-10 -48,-30 -3,-20 15,-39 39,-42 24,-3 46,10 49,30z"/>
   <path fill="#FBE443" fill-rule="nonzero" d="M189 273l0 0c-21,0 -39,-8 -51,-17 -13,-8 -21,-16 -22,-17l0 0c-3,-3 -4,-7 -4,-10 0,-4 2,-9 5,-11l0 0 0 0c3,-3 6,-5 10,-5 0,0 0,0 0,0 0,0 0,0 0,0 4,0 8,2 11,5l0 0 0 0 1 1c0,0 1,1 1,1 2,2 4,4 7,6 6,4 14,10 23,13 6,2 13,4 19,4l1 0 0 0c8,-1 15,-2 23,-6 7,-4 15,-10 22,-18l0 0c3,-4 7,-6 11,-6 0,0 0,0 0,0 0,0 0,0 0,0 4,0 7,2 10,4l0 0c3,3 5,7 5,12 0,3 -1,7 -4,10l0 0c-9,11 -20,19 -31,25 -11,6 -23,9 -36,9l0 0 -1 0 0 0zm0 -14l0 7 0 -7 1 0c11,0 20,-2 30,-7 9,-5 18,-13 27,-22l0 0c0,-1 0,-1 0,-1 0,-1 0,-1 0,-1l0 0c0,-1 -1,-1 -1,-1 0,0 -1,0 -1,1l0 0c-8,9 -17,16 -26,21 -9,5 -19,7 -29,7l0 0 -1 0 0 0c-8,0 -16,-2 -24,-4 -7,-3 -14,-6 -19,-10 -11,-7 -17,-14 -18,-14l0 0c0,-1 -1,-1 -1,-1 0,0 -1,0 -1,1 0,0 0,0 0,1 0,0 0,0 0,1l0 0c0,0 8,7 19,15 11,7 27,14 44,14 0,0 0,0 0,0l0 0 0 0 0 0zm-51 -41c0,0 0,0 0,0l0 0zm51 41l0 0z"/>
   <path fill="#612423" fill-rule="nonzero" d="M189 266c-38,0 -67,-30 -68,-32 -3,-3 -3,-8 0,-11 4,-4 9,-3 12,0 0,0 25,26 56,26l1 0c18,0 35,-9 50,-26 3,-3 8,-4 12,-1 3,3 3,9 0,12 -18,21 -39,32 -62,32l-1 0z"/>
   <path fill="#FCE581" fill-rule="nonzero" d="M165 46c5,-6 12,-9 19,-11 8,-2 15,-3 22,-2 8,0 15,2 22,5 7,3 13,8 18,14 -8,0 -15,0 -21,0 -7,0 -13,-1 -20,-1 -6,0 -13,-1 -19,-1 -7,-1 -14,-2 -21,-4z"/>
  </g>
  <rect fill="none" width="347" height="347"/>
 </g>
</svg>
