

<!-- Creator: CorelDRAW X8 -->
<svg xmlns="http://www.w3.org/2000/svg" xml:space="preserve" x="0" y="0" width="25mm" height="25mm" version="1.1" shape-rendering="geometricPrecision" text-rendering="geometricPrecision" image-rendering="optimizeQuality" fill-rule="evenodd" clip-rule="evenodd"
viewBox="0 0 347 347"
 xmlns:xlink="http://www.w3.org/1999/xlink">
 <g id="Katman_x0020_1">
  <metadata id="CorelCorpID_0Corel-Layer"/>
  <g id="_2525678789472">
   <path fill="#FDD333" fill-rule="nonzero" d="M8 181c0,-91 74,-166 166,-166 91,0 166,75 166,166 0,92 -75,166 -166,166 -92,0 -166,-74 -166,-166z"/>
   <path fill="#FDEBA2" fill-rule="nonzero" d="M8 181l0 0c0,-36 11,-69 30,-96 -19,27 -30,60 -30,96l0 0z"/>
   <path fill="#FCC427" fill-rule="nonzero" d="M174 347l0 0c-92,0 -166,-74 -166,-166 0,-36 11,-69 30,-96 5,-6 10,-12 15,-18 14,4 32,7 48,9 -10,12 -18,26 -24,41 -2,1 -3,1 -4,2 -11,4 -22,10 -33,20l0 0c-3,3 -5,8 -5,12 0,4 1,8 4,11l0 0c3,3 7,5 12,5 0,0 0,0 0,0l0 -14c-1,0 -1,0 -2,0 0,-1 0,-1 -1,-2 1,-1 1,-1 1,-2l0 0c8,-6 15,-11 21,-14 0,2 -1,4 -1,6 -6,3 -11,7 -17,12l0 0c0,0 -1,0 -1,0l0 14c0,0 0,0 0,0 4,0 7,-1 10,-4l0 0c2,-1 3,-2 4,-3 -1,7 -1,14 -1,21 0,82 59,150 138,164 -9,1 -19,2 -28,2l0 0zm-57 -287c-20,-2 -36,-4 -49,-7 21,-17 46,-29 73,-35 9,0 18,0 28,0 0,0 0,0 0,0 0,0 0,0 0,0 0,0 0,0 0,0 0,0 0,0 0,0 0,0 0,0 0,0 0,0 1,0 1,0 0,0 0,0 0,0 0,0 0,0 1,0 0,0 0,0 0,0 0,0 0,0 0,0 0,0 0,0 0,0 0,0 0,0 0,0 0,0 0,0 0,0 0,0 0,0 1,0 0,0 0,0 0,0 0,0 0,0 0,0 0,0 0,0 0,0 0,0 0,0 0,0 0,0 0,0 0,0 0,0 0,0 0,0 0,0 0,0 0,0 0,0 0,0 1,0 0,0 0,0 0,0 0,0 0,0 0,0 0,0 0,0 0,0 0,0 0,0 0,0 0,0 0,0 0,0 0,0 0,0 0,0 0,0 0,0 0,0 0,0 0,0 1,0l0 0c0,0 0,0 0,0 0,0 0,0 0,0 0,0 0,0 0,0 0,0 0,0 0,0 0,0 0,0 0,0 0,0 0,0 0,0 0,0 1,0 1,0 0,0 0,0 0,0 0,0 0,0 0,0 0,0 0,0 0,0 0,0 0,0 0,0 0,0 0,0 0,0 0,0 1,0 1,0 0,0 0,0 0,0 0,0 0,0 0,0 0,0 0,0 0,0 0,0 0,0 0,0l0 0c0,0 1,0 1,0 0,0 0,0 0,0 0,0 0,0 0,0 0,0 0,0 0,0 0,0 0,0 1,0 0,0 0,0 0,0 0,0 0,0 1,0 0,0 0,0 0,0 0,0 0,0 1,0 0,0 0,0 0,0 6,0 12,0 17,0 0,0 0,0 0,0 0,0 0,0 1,0 0,0 0,0 0,0 0,0 0,0 0,0l0 0c0,0 0,0 0,0 0,0 0,0 0,0 0,0 0,0 0,0 0,0 0,0 0,0 1,0 1,0 1,0 0,0 0,0 0,0 0,0 0,0 0,0 0,0 0,0 0,0 0,0 0,0 0,0 0,0 0,0 0,0 -31,6 -60,21 -82,42z"/>
   <path fill="#FBE443" fill-rule="nonzero" d="M65 160c1,-6 2,-13 4,-19 3,-2 7,-4 10,-5 9,-3 18,-5 25,-5 0,0 0,0 0,0 12,0 22,4 29,7 8,3 12,7 13,8l0 0 0 0c0,0 1,0 1,0 1,0 2,0 2,-1 0,0 1,-1 1,-1 0,-1 -1,-1 -1,-2l0 0 0 0 -1 0c-1,-1 -1,-1 -2,-2 -3,-2 -6,-4 -10,-6 -8,-4 -19,-7 -32,-7 0,0 0,0 0,0 -8,0 -17,1 -26,4 -2,1 -5,3 -8,4 2,-6 4,-12 7,-18 9,-3 18,-4 27,-4 0,0 0,0 0,0 15,0 28,4 37,9 10,4 15,9 17,10l0 0 0 0c3,3 5,7 5,12 0,4 -1,7 -4,10l0 0c-3,4 -7,6 -12,6 0,0 0,0 0,0 0,0 0,0 0,0 -3,0 -7,-1 -10,-4l0 0c0,0 -4,-3 -10,-6 -5,-2 -13,-5 -23,-5 0,0 0,0 0,0 -6,0 -12,1 -20,4 -6,2 -12,6 -19,11zm72 -4l0 0c0,0 0,0 0,0z"/>
   <path fill="#FCDB36" fill-rule="nonzero" d="M51 167c-5,0 -9,-2 -12,-5l0 0c-3,-3 -4,-7 -4,-11 0,-4 2,-9 5,-12l0 0c11,-10 22,-16 33,-20 1,-1 2,-1 4,-2 -3,6 -5,12 -7,18 -6,3 -13,8 -21,14l0 0c0,1 0,1 -1,2 1,1 1,1 1,2 1,0 1,0 2,0l0 14c0,0 0,0 0,0zm-2 -14l0 0zm2 14c0,0 0,0 0,0l0 -14c0,0 1,0 1,0l0 0c6,-5 11,-9 17,-12 -2,6 -3,13 -4,19 -1,1 -2,2 -4,3l0 0c-3,3 -6,4 -10,4z"/>
   <path fill="#612423" fill-rule="nonzero" d="M51 160c-3,0 -5,-1 -7,-3 -3,-4 -3,-9 1,-13 57,-50 108,-8 108,-7 4,3 5,9 1,13 -3,4 -9,4 -13,1 -1,-1 -39,-32 -84,7 -2,2 -4,2 -6,2z"/>
   <path fill="#FBE643" fill-rule="nonzero" d="M225 165c-4,0 -9,-2 -12,-5l0 0c-2,-3 -3,-7 -3,-10 0,-4 1,-9 5,-12l0 0c10,-8 20,-14 30,-18 10,-4 19,-5 27,-5 0,0 0,0 0,0 14,0 26,3 34,7 8,4 14,8 15,9l1 1 0 0c3,3 5,7 5,11 0,4 -1,7 -4,10l0 0c-3,4 -7,6 -11,6 0,0 0,0 0,0 0,0 0,0 0,0 -4,0 -7,-2 -10,-4l0 0c0,0 -3,-3 -8,-5 -5,-3 -13,-5 -21,-5 0,0 0,0 0,0 -5,0 -11,1 -18,3 -6,3 -13,7 -20,13l0 0c-3,3 -7,4 -10,4 0,0 0,0 0,0l0 -14c0,0 1,0 1,0l0 0c8,-7 16,-12 24,-15 8,-4 16,-5 23,-5 0,0 0,0 0,0 11,0 20,3 27,6 6,4 10,7 11,7l0 0c0,1 1,1 1,1 0,0 1,0 1,-1 0,0 0,0 0,-1 0,0 0,0 0,-1l0 0 -1 0c0,-1 -1,-1 -2,-2 -2,-1 -5,-3 -8,-5 -8,-3 -18,-7 -30,-7 0,0 0,0 0,0 -7,0 -14,2 -22,5 -8,3 -17,8 -26,16l0 0c0,0 -1,0 -1,1 0,0 1,1 1,1l0 0c0,0 0,0 1,0l0 14c0,0 0,0 0,0z"/>
   <path fill="#612423" fill-rule="nonzero" d="M225 158c-2,0 -5,-1 -6,-3 -3,-3 -3,-8 0,-11 52,-46 98,-7 98,-7 4,3 4,8 1,12 -3,3 -8,4 -12,1 -1,-2 -35,-29 -76,6 -1,1 -3,2 -5,2z"/>
   <path fill="#FBE443" fill-rule="nonzero" d="M190 294c0,0 0,0 0,0l0 -14 1 0 0 0 0 0c10,0 20,-2 29,-7 10,-5 19,-13 28,-23 0,0 0,0 0,0 0,-1 0,-1 0,-2l0 1 0 -1c0,0 -1,0 -1,0 0,0 -1,0 -1,1l0 0c-8,9 -17,16 -26,21 -9,5 -19,7 -29,7l0 0 -1 0 0 0c-8,0 -16,-1 -24,-4 -7,-2 -13,-6 -19,-9 -10,-7 -17,-14 -19,-15l0 0 0 0c0,-1 0,-1 -1,-1 0,0 0,0 -1,1l0 0c0,0 0,0 0,1 0,0 0,0 0,0l0 0c1,1 8,8 19,16 12,7 28,14 45,14 0,0 0,0 0,0l0 14c-21,0 -39,-8 -52,-17 -13,-8 -21,-16 -22,-17l0 0c-3,-3 -4,-7 -4,-10 0,-5 2,-9 5,-12l0 0c3,-2 7,-4 10,-4 0,0 0,0 0,0 0,0 0,0 0,0 4,0 8,2 11,5l0 0 0 0 1 0 0 1c0,0 1,1 2,1 1,2 3,4 6,6 6,4 14,10 23,13 7,2 13,4 20,4l1 0 0 0c8,0 15,-2 23,-6 7,-4 14,-10 22,-19l0 0c3,-3 7,-5 11,-5 0,0 0,0 0,0 0,0 0,0 0,0 4,0 7,2 10,4l0 0c3,3 5,7 5,12 0,3 -1,7 -4,10 -9,11 -20,19 -31,25 -11,6 -23,9 -36,9 0,0 -1,0 -1,0z"/>
   <path fill="#612423" fill-rule="nonzero" d="M190 287c-39,0 -68,-30 -69,-32 -3,-3 -3,-8 1,-12 3,-3 8,-2 11,1 1,0 26,27 57,27l1 0c18,-1 34,-10 50,-27 3,-3 8,-4 12,-1 3,3 3,9 0,12 -18,21 -39,32 -62,32 0,0 -1,0 -1,0z"/>
   <path fill="#46A7DD" fill-rule="nonzero" d="M174 18c-86,0 -137,14 -141,23 4,6 55,21 141,21 83,0 133,-14 140,-22 -7,-8 -57,-22 -140,-22zm0 62c-17,0 -159,-1 -159,-40 0,-39 142,-40 159,-40 16,0 158,1 158,40 0,39 -142,40 -158,40z"/>
   <path fill="#FEFEFE" fill-rule="nonzero" d="M35 39c0,0 0,0 0,0 7,-6 34,-14 77,-18 -44,4 -70,12 -77,18zm269 -5c-16,-6 -49,-13 -98,-16l0 0c49,3 82,10 98,16 0,0 0,0 0,0z"/>
   <path fill="#FCDE7C" fill-rule="nonzero" d="M206 18c-2,0 -4,0 -7,0l0 0c3,0 5,0 7,0l0 0z"/>
   <path fill="#FED575" fill-rule="nonzero" d="M199 18c0,0 0,0 0,0 0,0 0,0 0,0l0 0z"/>
   <path fill="#FEFEFE" fill-rule="nonzero" d="M112 21c0,0 0,0 0,0 0,0 0,0 0,0zm0 0c0,0 0,0 0,0 0,0 0,0 0,0z"/>
   <path fill="#FED575" fill-rule="nonzero" d="M199 18c0,0 0,0 0,0 0,0 0,0 0,0zm0 0c0,0 0,0 0,0 0,0 0,0 0,0zm-1 0c0,0 0,0 0,0 0,0 0,0 0,0zm0 0c0,0 0,0 0,0 0,0 0,0 0,0zm0 0l0 0zm0 0c0,0 0,0 0,0 0,0 0,0 0,0zm-1 0c0,0 0,0 0,0 0,0 0,0 0,0zm-17 0c0,0 0,0 0,0l0 0zm-1 0c0,0 0,0 0,0l0 0zm-10 0c0,0 0,0 0,0 0,0 0,0 0,0zm0 0c0,0 0,0 0,0 0,0 0,0 0,0zm0 0c0,0 0,0 0,0 0,0 0,0 0,0zm9 0c0,0 0,0 0,0 0,0 0,0 0,0zm-8 0l0 0c0,0 0,0 0,0zm7 0c0,0 0,0 0,0 0,0 0,0 0,0zm0 0c0,0 0,0 0,0 0,0 0,0 0,0zm-6 0c0,0 0,0 0,0 0,0 0,0 0,0zm5 0l0 0 0 0zm-5 0c0,0 0,0 0,0 0,0 0,0 0,0zm5 0c0,0 0,0 0,0 0,0 0,0 0,0zm-5 0c0,0 0,0 0,0 0,0 0,0 0,0zm5 0c0,0 0,0 0,0 0,0 0,0 0,0zm-4 0c0,0 0,0 0,0 0,0 0,0 0,0zm0 0c0,0 0,0 0,0 0,0 0,0 0,0zm3 0c0,0 0,0 0,0 0,0 0,0 0,0zm-3 0c0,0 0,0 0,0 0,0 0,0 0,0zm3 0c0,0 0,0 0,0 0,0 0,0 0,0zm-3 0c0,0 0,0 0,0 0,0 0,0 0,0zm3 0c0,0 0,0 0,0 0,0 0,0 0,0zm-2 0c0,0 0,0 0,0 0,0 0,0 0,0zm0 0c0,0 0,0 0,0 0,0 0,0 0,0zm1 0c0,0 0,0 0,0 0,0 0,0 0,0zm-1 0c0,0 0,0 0,0 0,0 0,0 0,0zm1 0c0,0 0,0 0,0 0,0 0,0 0,0zm-1 0c0,0 0,0 0,0 0,0 0,0 0,0zm1 0c0,0 0,0 0,0 0,0 0,0 0,0z"/>
   <path fill="#40C0F0" fill-rule="nonzero" d="M35 39c-6,-2 -9,-4 -10,-6 4,-8 55,-23 141,-23 83,0 133,14 140,23 -1,0 -1,1 -2,1 -16,-6 -49,-13 -98,-16 -2,0 -4,0 -7,0 0,0 0,0 0,0 0,0 0,0 0,0 0,0 0,0 0,0 0,0 0,0 0,0 0,0 0,0 0,0 0,0 0,0 -1,0 0,0 0,0 0,0 0,0 0,0 0,0 0,0 0,0 0,0 0,0 0,0 0,0l0 0c0,0 0,0 0,0 0,0 0,0 0,0 -1,0 -1,0 -1,0 0,0 0,0 0,0 -5,0 -11,0 -17,0l0 0c-1,0 -1,0 -1,0l0 0c-1,0 -1,0 -1,0 0,0 0,0 0,0 -1,0 -1,0 -1,0 0,0 0,0 0,0 0,0 0,0 0,0 0,0 0,0 0,0 0,0 -1,0 -1,0l0 0c0,0 0,0 0,0 0,0 0,0 0,0 0,0 0,0 0,0 0,0 0,0 0,0 0,0 -1,0 -1,0 0,0 0,0 0,0 0,0 0,0 0,0 0,0 0,0 0,0 0,0 0,0 0,0 0,0 0,0 0,0 0,0 -1,0 -1,0 0,0 0,0 0,0 0,0 0,0 0,0 0,0 0,0 0,0 0,0 0,0 0,0 0,0 0,0 0,0 0,0 0,0 0,0l0 0c-1,0 -1,0 -1,0 0,0 0,0 0,0 0,0 0,0 0,0 0,0 0,0 0,0 0,0 0,0 0,0 0,0 0,0 0,0 0,0 0,0 0,0 0,0 0,0 0,0 -1,0 -1,0 -1,0 0,0 0,0 0,0 0,0 0,0 0,0 0,0 0,0 0,0 0,0 0,0 0,0 0,0 0,0 0,0 0,0 0,0 0,0 0,0 0,0 0,0 -1,0 -1,0 -1,0 0,0 0,0 0,0 0,0 0,0 0,0 0,0 0,0 0,0 0,0 0,0 0,0 0,0 0,0 0,0 -1,0 -1,0 -1,0l0 0c0,0 -1,0 -1,0 0,0 0,0 0,0 0,0 0,0 0,0 0,0 0,0 0,0 0,0 0,0 0,0 0,0 0,0 0,0 -22,0 -41,1 -57,3 0,0 0,0 0,0 0,0 0,0 0,0 0,0 0,0 0,0 0,0 0,0 0,0 -43,4 -70,12 -77,18z"/>
   <path fill="#FEFEFE" fill-rule="nonzero" d="M332 40c0,0 0,0 0,0 0,0 0,0 0,0z"/>
   <path fill="#40C0F0" fill-rule="nonzero" d="M174 80l0 0c-15,0 -134,-1 -155,-31 33,23 133,23 147,23 16,0 158,-1 158,-39 0,-4 -2,-7 -4,-10 7,5 12,10 12,17 0,0 0,0 0,0 0,0 0,0 0,0 0,39 -142,40 -158,40z"/>
   <path fill="#FCE581" fill-rule="nonzero" d="M164 44c6,-5 12,-8 18,-10 7,-2 14,-3 21,-2 6,0 13,2 20,4 6,3 12,7 16,13 -7,1 -13,0 -19,0 -7,0 -12,0 -18,0 -6,-1 -12,-1 -18,-2 -7,-1 -13,-2 -20,-3z"/>
  </g>
  <rect fill="none" width="347" height="347"/>
 </g>
</svg>
