

<!-- Creator: CorelDRAW X8 -->
<svg xmlns="http://www.w3.org/2000/svg" xml:space="preserve" x="0" y="0" width="25mm" height="25mm" version="1.1" shape-rendering="geometricPrecision" text-rendering="geometricPrecision" image-rendering="optimizeQuality" fill-rule="evenodd" clip-rule="evenodd"
viewBox="0 0 709 709"
 xmlns:xlink="http://www.w3.org/1999/xlink">
 <g id="Katman_x0020_1">
  <metadata id="CorelCorpID_0Corel-Layer"/>
  <g id="_2525688603008">
   <path fill="#FDD333" fill-rule="nonzero" d="M0 355c0,-196 159,-355 355,-355 195,0 354,159 354,355 0,195 -159,354 -354,354 -196,0 -355,-159 -355,-354z"/>
   <path fill="#FDEBA2" fill-rule="nonzero" d="M355 709c0,0 0,0 0,0l0 0z"/>
   <path fill="#FCC427" fill-rule="nonzero" d="M355 709c-196,0 -355,-159 -355,-354 0,-196 159,-355 355,-355 8,0 17,1 25,1 -150,41 -262,179 -262,342 0,187 146,340 329,354 -29,8 -60,12 -92,12 0,0 0,0 0,0 0,0 0,0 0,0l0 0z"/>
   <path fill="#FCE581" fill-rule="nonzero" d="M308 80c14,-12 30,-19 46,-24 17,-5 34,-7 51,-6 18,1 35,5 51,12 16,7 31,18 42,32 -19,2 -34,1 -50,1 -15,-1 -30,-2 -45,-2 -15,-1 -30,-2 -46,-4 -15,-2 -31,-4 -49,-9z"/>
   <path fill="#FBE63F" fill-rule="nonzero" d="M242 322c0,0 0,0 0,0 0,0 0,0 0,0 -11,0 -21,-3 -29,-8 -9,-5 -16,-12 -22,-20 -12,-16 -19,-37 -19,-60 0,-17 4,-33 11,-47 7,-14 17,-26 30,-33 8,-5 18,-8 29,-8 0,0 0,0 0,0 0,0 0,0 0,0 10,0 20,3 29,8 9,5 16,12 22,20 12,16 19,37 19,60l0 0c0,17 -4,33 -11,47 -7,14 -17,26 -30,33 -9,5 -19,8 -29,8zm0 -140c-4,0 -8,1 -11,3 -4,3 -8,6 -11,10 -7,10 -12,23 -12,39 0,12 3,22 7,31 4,8 10,14 16,18 3,2 7,3 11,3 3,0 7,-1 11,-3 3,-3 7,-6 11,-10 6,-9 11,-23 11,-39l0 0c0,-12 -3,-22 -7,-31 -4,-8 -10,-14 -15,-18 -4,-2 -8,-3 -11,-3zm70 52l0 0z"/>
   <path fill="#612423" fill-rule="nonzero" d="M293 234c0,39 -23,70 -51,70 -29,0 -52,-31 -52,-70 0,-39 23,-70 52,-70 28,0 51,31 51,70z"/>
   <path fill="#FBE63F" fill-rule="nonzero" d="M509 322c0,0 0,0 0,0 0,0 0,0 0,0 -11,0 -21,-3 -29,-8 -9,-5 -16,-12 -22,-20 -12,-16 -19,-37 -19,-60 0,-17 4,-33 11,-47 7,-14 17,-26 30,-33 8,-5 18,-8 29,-8 0,0 0,0 0,0 0,0 0,0 0,0 10,0 20,3 29,8 9,5 16,12 22,20 12,16 19,37 19,60l0 0c0,17 -4,33 -11,47 -7,14 -17,26 -30,33 -9,5 -19,8 -29,8zm0 -140c-4,0 -7,1 -11,3 -4,3 -8,6 -11,10 -7,10 -11,23 -11,39 0,12 2,22 6,31 5,8 10,14 16,18 4,2 7,3 11,3 4,0 7,-1 11,-3 4,-3 7,-6 11,-10 7,-9 11,-23 11,-39l0 0c0,-12 -2,-22 -7,-31 -4,-8 -9,-14 -15,-18 -4,-2 -7,-3 -11,-3zm70 52l0 0z"/>
   <path fill="#612423" fill-rule="nonzero" d="M561 234c0,39 -24,70 -52,70 -29,0 -52,-31 -52,-70 0,-39 23,-70 52,-70 28,0 52,31 52,70z"/>
   <path fill="#FBE33C" fill-rule="nonzero" d="M369 629c0,0 0,0 0,0 0,0 0,0 0,0 -37,0 -71,-17 -95,-44 -24,-26 -38,-63 -38,-102 0,-40 14,-77 38,-103 24,-27 58,-44 95,-44 0,0 0,0 0,0 0,0 0,0 0,0 38,0 72,17 95,44 24,26 39,63 39,103l0 0c0,39 -15,76 -39,102 -23,27 -57,44 -95,44zm0 -18l0 0c64,0 116,-58 116,-128 0,-71 -52,-128 -116,-128 -63,0 -115,57 -115,128 0,70 51,127 115,128 0,0 0,0 0,0 0,0 0,0 0,0 0,0 0,0 0,0 0,0 0,0 0,0zm134 -128l0 0z"/>
   <path fill="#612423" fill-rule="nonzero" d="M485 483c0,70 -52,128 -116,128 -63,0 -115,-58 -115,-128 0,-71 52,-128 115,-128 64,0 116,57 116,128z"/>
   <path fill="#EA5153" fill-rule="nonzero" d="M349 521c-33,-11 -67,-2 -82,20 19,41 58,70 102,70 10,0 19,-2 28,-4 1,-3 3,-6 4,-9 9,-30 -14,-65 -52,-77z"/>
   <path fill="#E84242" fill-rule="nonzero" d="M369 611l0 0c-2,0 -4,-1 -6,-1 7,0 14,-2 20,-3 2,-3 3,-6 4,-9 10,-30 -13,-65 -51,-77 -7,-3 -14,-3 -20,-4 2,0 5,0 7,0 9,0 17,1 26,4 32,10 54,36 54,63 0,4 -1,9 -2,14 -1,3 -3,6 -4,9 -9,2 -18,4 -28,4z"/>
  </g>
  <rect fill="none" width="709" height="709"/>
 </g>
</svg>
