

<!-- Creator: CorelDRAW X8 -->
<svg xmlns="http://www.w3.org/2000/svg" xml:space="preserve" x="0" y="0" width="25mm" height="25mm" version="1.1" shape-rendering="geometricPrecision" text-rendering="geometricPrecision" image-rendering="optimizeQuality" fill-rule="evenodd" clip-rule="evenodd"
viewBox="0 0 781 781"
 xmlns:xlink="http://www.w3.org/1999/xlink">
 <g id="Katman_x0020_1">
  <metadata id="CorelCorpID_0Corel-Layer"/>
  <g id="_2525549725168">
   <path fill="#FDD333" fill-rule="nonzero" d="M0 390c0,-215 175,-390 390,-390 216,0 391,175 391,390 0,216 -175,391 -391,391 -215,0 -390,-175 -390,-391z"/>
   <path fill="#FDEBA2" fill-rule="nonzero" d="M390 781c-215,0 -390,-175 -390,-391l0 0c0,216 175,391 390,391 0,0 0,0 0,0zm-390 -391c0,-215 175,-390 390,-390 0,0 0,0 0,0 -215,0 -390,175 -390,390z"/>
   <path fill="#FCC427" fill-rule="nonzero" d="M390 781c-215,0 -390,-175 -390,-391l0 0c0,-215 175,-390 390,-390 23,0 45,2 67,6 -68,12 -130,41 -181,83 -6,0 -12,2 -17,5 -6,3 -11,7 -15,13l0 0c-10,16 -23,29 -37,39 -22,15 -47,25 -67,30 -10,3 -18,4 -24,5 -3,1 -5,1 -7,2 0,0 -1,0 -1,0l-1 0 0 0c-10,1 -19,6 -26,13 -6,7 -10,16 -10,26 0,2 0,3 0,4l0 0c1,10 6,19 13,26 7,6 17,10 27,10l0 0 1 0 2 0 0 0 0 0c3,0 20,-2 43,-8 -10,29 -18,59 -22,91 -7,8 -15,17 -22,27 -5,7 -7,15 -7,23 0,12 6,25 17,32l0 0c3,3 8,5 12,6 19,174 152,313 322,342 -22,3 -44,6 -67,6zm-283 -598l0 0 0 0z"/>
   <path fill="#FCE581" fill-rule="nonzero" d="M366 77c10,-9 22,-14 34,-18 12,-3 24,-5 37,-4 13,1 25,4 37,9 12,5 22,13 30,23 -13,1 -24,1 -36,1 -11,-1 -22,-1 -33,-2 -11,0 -22,-1 -33,-3 -12,-1 -23,-3 -36,-6z"/>
   <path fill="#FBE43C" fill-rule="nonzero" d="M157 254c4,-9 7,-17 11,-25 40,-13 93,-39 126,-91 5,-8 3,-20 -6,-26 -3,-1 -7,-2 -10,-2 -7,0 -13,3 -16,8 -17,27 -41,46 -65,58 22,-33 48,-62 79,-87 0,0 1,0 2,0 0,0 0,0 0,0 7,0 14,2 21,6l0 0 0 0c6,4 11,9 14,15 3,5 4,12 4,18 0,8 -2,15 -6,21l0 0c-15,26 -35,45 -57,60 -3,3 -6,5 -9,7 -3,0 -5,0 -8,0 -16,0 -27,2 -29,2l0 0c-9,2 -18,7 -23,14 -4,5 -7,10 -8,16 -7,2 -14,4 -20,6z"/>
   <path fill="#FCDB32" fill-rule="nonzero" d="M111 262l0 0c-10,0 -20,-4 -27,-10 -7,-7 -12,-16 -13,-26l0 0c0,-1 0,-2 0,-4 0,-10 4,-19 10,-26 7,-7 16,-12 26,-13l0 0 1 0c0,0 1,0 1,0 2,-1 4,-1 7,-2 6,-1 14,-2 24,-5 20,-5 45,-15 67,-30 14,-10 27,-23 37,-39l0 0c4,-6 9,-10 15,-13 5,-3 11,-5 17,-5 -31,25 -57,54 -79,87 -44,23 -87,28 -88,28 -10,1 -18,10 -17,20 1,10 9,17 19,17l2 0c2,0 25,-2 55,-12 -4,8 -7,16 -11,25 -23,6 -40,8 -43,8l0 0 0 0 -2 0 -1 0zm-3 -74l0 0zm0 0l0 0zm-1 -5l0 0 0 0z"/>
   <path fill="#7D5924" fill-rule="nonzero" d="M111 241c-10,0 -18,-7 -19,-17 -1,-10 7,-19 17,-20 1,-1 106,-11 153,-86 5,-8 17,-11 26,-6 9,6 11,18 6,26 -57,91 -176,103 -181,103l-2 0z"/>
   <path fill="#FBE63F" fill-rule="nonzero" d="M691 262c-3,0 -6,0 -10,-1 -9,-3 -19,-6 -28,-9 -2,-5 -5,-9 -9,-13 -7,-7 -16,-11 -27,-11l-1 0c0,0 0,0 0,0l0 0 0 0c-1,0 -6,0 -13,1 -17,-10 -32,-21 -45,-31 -29,-23 -45,-42 -47,-45l0 0c-6,-7 -9,-16 -9,-25 0,-11 5,-23 15,-30l0 -1c7,-5 16,-8 25,-8 0,0 0,0 0,0 0,0 0,0 0,0 11,0 23,5 31,14l0 0 0 0c0,1 0,1 0,1l0 -1 0 1 0 0c1,0 1,1 2,2 1,1 3,4 6,7 6,6 15,14 26,23 23,18 55,38 94,48 9,2 17,7 22,14 5,7 8,15 8,24 0,4 0,7 -1,10l0 0c-2,9 -8,17 -14,22 -7,5 -16,8 -25,8l0 -21c9,0 16,-5 19,-14 2,-10 -4,-20 -14,-23 -86,-22 -139,-87 -139,-87 -4,-5 -10,-7 -15,-7 -4,0 -8,1 -12,4 -8,6 -9,18 -3,26 3,3 61,75 160,101 1,0 3,0 4,0l0 21zm-9 -1l0 0zm-109 -158l0 0 0 0 0 0z"/>
   <path fill="#7D5924" fill-rule="nonzero" d="M691 241c-1,0 -3,0 -4,0 -99,-26 -157,-98 -160,-101 -6,-8 -5,-20 3,-26 8,-7 20,-5 27,3 0,0 53,65 139,87 10,3 16,13 14,23 -3,9 -10,14 -19,14z"/>
   <path fill="#FBE43C" fill-rule="nonzero" d="M146 435c0,0 0,0 0,0l0 -40 0 40c0,0 0,0 0,0 -4,0 -7,-1 -11,-2 -1,-14 -2,-28 -2,-43 0,-15 1,-30 2,-45 21,-22 44,-38 67,-50 0,0 0,0 0,0 -4,-2 -8,-4 -12,-7 -7,-6 -12,-14 -14,-24l0 0 0 0c0,-2 0,-5 0,-7 0,-3 0,-6 1,-9 4,-1 9,-3 14,-5 17,-7 36,-15 54,-27 16,1 35,3 56,10 24,7 51,21 74,45 8,7 12,18 12,28 0,5 -1,11 -3,16l0 0c-3,7 -8,12 -14,17 -6,4 -14,7 -22,7 0,0 0,0 0,0 -1,0 -2,-1 -2,-1l-1 0c0,0 0,0 0,0 -5,0 -22,1 -44,5 -23,5 -51,14 -76,30 -17,12 -33,26 -47,45l0 0c-8,11 -20,17 -32,17zm0 -40l0 0 0 0zm-2 -1l0 0c0,0 0,0 0,0l0 0zm202 -77l0 0zm0 0l0 0zm0 -17l0 0 0 0zm1 -1l0 0zm0 0l0 0zm-129 -23l0 0z"/>
   <path fill="#FCDB32" fill-rule="nonzero" d="M135 433c-4,-1 -9,-3 -12,-6l0 0c-11,-7 -17,-20 -17,-32 0,-8 2,-16 7,-23 7,-10 15,-19 22,-27 -1,15 -2,30 -2,45 0,15 1,29 2,43z"/>
   <path fill="#FAEB50" fill-rule="nonzero" d="M177 248c1,-6 4,-11 8,-16 5,-7 14,-12 23,-14l0 0c2,0 13,-2 29,-2 3,0 5,0 8,0 -18,12 -37,20 -54,27 -5,2 -10,4 -14,5z"/>
   <path fill="#FBE43C" fill-rule="nonzero" d="M375 271c0,0 0,0 0,0 0,0 0,0 0,0l0 0z"/>
   <path fill="#612423" fill-rule="nonzero" d="M146 414c-4,0 -8,-1 -11,-4 -9,-6 -11,-17 -5,-26 48,-66 115,-90 163,-99 -38,-15 -74,-9 -75,-9 -10,1 -19,-5 -21,-16 -2,-10 5,-20 15,-21 3,-1 87,-15 149,46 5,6 7,14 4,21 -4,7 -11,12 -18,12 -2,0 -120,-4 -186,88 -4,5 -10,8 -15,8z"/>
   <path fill="#FBE43C" fill-rule="nonzero" d="M692 435c0,0 0,0 -1,0l0 -40 0 40c0,0 0,0 0,0 -11,0 -22,-5 -30,-14 -21,-25 -45,-40 -69,-48 -24,-8 -47,-11 -64,-11 0,0 0,0 0,0l0 0c-16,0 -27,2 -28,2l1 0c-3,1 -5,1 -8,1 -13,0 -26,-7 -33,-19 -4,-6 -6,-13 -6,-21 0,-8 2,-16 7,-23 14,-19 30,-32 47,-43 17,-10 34,-17 50,-21 18,-6 34,-8 45,-9 15,8 32,16 50,23 2,4 3,10 3,15l0 1c0,10 -4,20 -11,27 -3,4 -8,7 -12,9 0,0 0,0 0,0 30,13 62,34 89,66 6,7 9,16 9,25 0,11 -5,23 -14,30 -7,7 -16,10 -25,10zm-1 -40l0 0 0 0zm-193 -73c0,0 0,0 0,1 1,-1 2,-1 3,-1l-3 0z"/>
   <path fill="#FAEC54" fill-rule="nonzero" d="M653 252c-18,-7 -35,-15 -50,-23 7,-1 12,-1 13,-1l1 0c11,0 20,4 27,11 4,4 7,8 9,13z"/>
   <path fill="#FBE43C" fill-rule="nonzero" d="M460 346l0 0c0,0 0,0 0,0 0,0 0,0 0,0zm1 -44l0 0c0,0 0,0 0,0 0,0 0,0 0,0z"/>
   <path fill="#FAEC54" fill-rule="nonzero" d="M616 228l0 0c0,0 0,0 0,0l0 0z"/>
   <path fill="#612423" fill-rule="nonzero" d="M691 414c-5,0 -10,-2 -14,-7 -70,-83 -176,-64 -180,-63 -8,1 -16,-2 -20,-9 -4,-6 -3,-15 1,-21 47,-64 135,-65 139,-65 9,0 18,8 19,18 0,11 -9,19 -19,19 -1,0 -37,1 -70,19 45,3 109,19 159,78 7,8 6,20 -2,27 -4,3 -8,4 -13,4z"/>
   <path fill="#FBE63F" fill-rule="nonzero" d="M278 628c-5,0 -10,-2 -14,-5 -6,-5 -8,-13 -6,-21 0,-2 4,-19 18,-41 13,-22 36,-49 73,-67 25,-12 55,-19 92,-19 0,0 0,0 0,0 0,0 0,0 0,0 28,0 51,4 72,11 20,8 36,18 49,29 27,23 39,50 46,68 4,12 5,20 5,21 1,8 -3,16 -10,21 -3,2 -7,3 -11,3 -4,0 -8,-1 -11,-4l0 0 0 0 -1 0 -1 -1c-2,-1 -4,-2 -7,-4 -6,-3 -15,-7 -27,-12 -24,-9 -59,-18 -102,-18 -44,0 -97,9 -156,37l0 0c-3,1 -6,2 -9,2zm20 -16l0 0 -20 -5 20 5zm143 -95c-29,0 -51,5 -69,13 -18,8 -32,18 -43,29 -2,3 -4,5 -6,8 44,-14 84,-20 120,-20 0,0 0,0 0,0 45,0 82,9 109,18 -2,-3 -5,-7 -8,-10 -8,-8 -18,-17 -31,-23 -18,-9 -41,-15 -72,-15z"/>
   <path fill="#612423" fill-rule="nonzero" d="M278 607c0,0 28,-111 163,-111 136,0 151,111 151,111 0,0 -127,-87 -314,0z"/>
  </g>
  <rect fill="none" width="781" height="781"/>
 </g>
</svg>
