

<!-- Creator: CorelDRAW X8 -->
<svg xmlns="http://www.w3.org/2000/svg" xml:space="preserve" x="0" y="0" width="25mm" height="25mm" version="1.1" shape-rendering="geometricPrecision" text-rendering="geometricPrecision" image-rendering="optimizeQuality" fill-rule="evenodd" clip-rule="evenodd"
viewBox="0 0 810 810"
 xmlns:xlink="http://www.w3.org/1999/xlink">
 <g id="Katman_x0020_1">
  <metadata id="CorelCorpID_0Corel-Layer"/>
  <g id="_2525678755328">
   <path fill="#EA5153" fill-rule="nonzero" d="M0 405c0,-224 181,-405 405,-405 224,0 405,181 405,405 0,224 -181,405 -405,405 -224,0 -405,-181 -405,-405z"/>
   <path fill="#E94A4A" fill-rule="nonzero" d="M405 810c-224,0 -405,-181 -405,-405 0,-224 181,-405 405,-405 26,0 51,3 76,7 -117,22 -215,94 -274,193 -1,0 -2,0 -3,0 -1,0 -2,0 -3,0l-1 0 0 0c-11,0 -20,5 -27,12 -6,7 -10,16 -10,27l0 1 0 0c0,6 1,11 4,15 2,5 5,9 9,12 -16,43 -24,90 -24,138 0,198 141,363 329,398 -25,5 -50,7 -76,7l0 0z"/>
   <path fill="#EC6767" fill-rule="nonzero" d="M285 656c-6,0 -12,-2 -18,-4l0 0 0 0c-7,-4 -13,-10 -17,-16 -4,-6 -6,-14 -6,-21 0,-6 1,-13 4,-19l0 0c2,-3 15,-28 38,-58 22,-30 55,-66 99,-90 29,-17 63,-28 100,-28 0,0 0,0 0,0 10,0 21,1 31,2l0 0c60,10 102,34 130,62 27,28 41,58 48,79 4,14 5,23 6,26l0 0 0 0c0,1 0,3 0,4 0,11 -4,20 -11,28 -6,7 -16,12 -26,13 -2,0 -3,0 -5,0 0,0 0,0 0,0 -10,0 -20,-4 -27,-11 -7,-6 -12,-15 -13,-26l0 0 -1 -1c0,-1 0,-3 -1,-6 -1,-4 -3,-11 -7,-18 -7,-14 -19,-32 -42,-46 -16,-10 -36,-18 -64,-22l0 0c-6,-1 -11,-1 -17,-1 -23,0 -44,7 -64,18 -19,12 -37,28 -52,44 -29,32 -47,66 -48,68l0 0 0 0 0 0c-4,7 -9,13 -16,17 -6,4 -13,6 -21,6l0 -41 0 41c0,0 0,0 0,0zm0 -41l0 0 0 0zm0 0l0 0 0 0zm-2 -1l0 0 0 0 0 0zm227 -153l0 0z"/>
   <path fill="#612423" fill-rule="nonzero" d="M285 634c-3,0 -6,0 -9,-2 -9,-5 -13,-16 -8,-26 3,-8 95,-186 245,-162 151,24 165,146 165,147 1,11 -7,20 -17,22 -11,1 -21,-7 -22,-18 0,-4 -12,-94 -132,-113 -122,-19 -204,140 -204,142 -4,6 -11,10 -18,10z"/>
   <path fill="#EC6767" fill-rule="nonzero" d="M312 421c0,0 0,0 0,0 0,0 0,0 0,0 -23,0 -43,-9 -58,-24 -15,-15 -24,-36 -24,-58 0,-19 6,-36 16,-49 1,-2 3,-4 4,-5 -6,-2 -12,-4 -18,-5 -15,-3 -26,-3 -29,-3 0,0 0,0 0,0l-1 0c-8,0 -15,-2 -21,-6 -2,-1 -4,-2 -5,-4 8,-23 19,-46 31,-67 9,0 25,1 44,5 22,5 49,14 74,31 17,11 33,26 46,45 14,15 24,35 24,58 0,22 -10,43 -24,58 -15,15 -36,24 -59,24zm14 -128l-26 9c-8,2 -15,7 -19,14 -5,6 -8,14 -8,23 0,11 4,20 11,27 8,8 17,12 28,12 11,0 21,-4 28,-12 7,-7 11,-16 11,-27 0,-11 -4,-21 -12,-29l15 -15 18 -12 -18 12 -15 15 -1 -1 -2 -2c-3,-5 -7,-9 -10,-14zm-125 -71l0 0z"/>
   <path fill="#EB5D5E" fill-rule="nonzero" d="M176 267c-4,-3 -7,-7 -9,-12 -3,-4 -4,-9 -4,-15l0 0 0 -1c0,-11 4,-20 10,-27 7,-7 16,-12 27,-12l0 0 1 0c1,0 2,0 3,0 1,0 2,0 3,0 -12,21 -23,44 -31,67z"/>
   <path fill="#612423" fill-rule="nonzero" d="M354 295c-52,-76 -149,-74 -153,-73 -10,0 -17,8 -17,17 1,10 9,16 18,16 1,0 50,-1 91,26 -24,8 -42,31 -42,58 0,33 28,61 61,61 34,0 61,-28 61,-61 0,-18 -7,-33 -19,-44z"/>
   <path fill="#EC6767" fill-rule="nonzero" d="M575 414c0,0 0,0 0,0 0,0 0,0 0,0 -23,0 -44,-10 -58,-25 -15,-15 -25,-35 -25,-58 0,-25 12,-48 30,-63 13,-17 29,-30 45,-40 17,-10 34,-17 49,-22 32,-9 58,-10 67,-10 2,0 3,0 3,0l0 21 -1 17 1 -17 0 -21 0 0c11,0 20,5 27,12 6,7 10,16 10,26l0 2 0 0 0 0c0,10 -5,20 -12,27 -7,6 -17,10 -27,10l0 0c0,0 0,0 0,0 -2,0 -13,0 -27,2 -5,1 -11,3 -18,5 2,1 3,2 4,4 9,13 14,30 14,47 0,23 -9,43 -24,58 -15,15 -35,25 -58,25zm-10 -129c-4,4 -7,7 -11,12l-1 2 -2 1c-10,8 -15,19 -15,31 0,11 4,21 11,28 7,7 17,11 28,11 11,0 20,-4 28,-11 7,-7 11,-17 11,-28 0,-8 -2,-16 -7,-22 -4,-7 -11,-12 -18,-14l-24 -10zm-28 -2l0 0zm147 -35l0 0zm0 0l0 0zm1 -14l0 0zm0 0l0 0zm0 0l0 0zm-1 -1l0 0zm0 0l0 0z"/>
   <path fill="#612423" fill-rule="nonzero" d="M686 217c-4,0 -96,-2 -149,66 -14,12 -23,29 -23,48 0,34 27,61 61,61 34,0 61,-27 61,-61 0,-26 -16,-48 -39,-57 41,-24 87,-23 87,-23 9,0 17,-7 18,-16 0,-9 -7,-17 -16,-18z"/>
   <path fill="#EF8183" fill-rule="nonzero" d="M573 119c-19,0 -35,-2 -51,-3l-50 -2c-16,-1 -33,-2 -50,-4 -17,-1 -34,-3 -53,-6 15,-13 33,-20 50,-24 15,-4 30,-6 45,-6 4,0 7,1 10,1 19,0 37,5 55,12 17,7 33,17 46,32 -1,0 -1,0 -2,0z"/>
  </g>
  <rect fill="none" width="810" height="810"/>
 </g>
</svg>
