

<!-- Creator: CorelDRAW X8 -->
<svg xmlns="http://www.w3.org/2000/svg" xml:space="preserve" x="0" y="0" width="25mm" height="25mm" version="1.1" shape-rendering="geometricPrecision" text-rendering="geometricPrecision" image-rendering="optimizeQuality" fill-rule="evenodd" clip-rule="evenodd"
viewBox="0 0 1141 1141"
 xmlns:xlink="http://www.w3.org/1999/xlink">
 <g id="Katman_x0020_1">
  <metadata id="CorelCorpID_0Corel-Layer"/>
  <g id="_2525724246144">
   <path fill="#FDD333" fill-rule="nonzero" d="M0 571c0,-315 256,-571 571,-571 315,0 570,256 570,571 0,315 -255,570 -570,570 -315,0 -571,-255 -571,-570z"/>
   <path fill="#FCC427" fill-rule="nonzero" d="M571 1141c-315,0 -571,-255 -571,-570 0,-315 256,-571 571,-571 37,0 73,4 108,10 -264,51 -463,282 -463,561 0,278 199,510 463,560 -35,7 -71,10 -108,10l0 0z"/>
   <path fill="#FBE443" fill-rule="nonzero" d="M413 545c0,0 0,0 0,0 0,0 0,0 0,0 -16,0 -31,-5 -44,-12 -13,-8 -24,-18 -33,-31 -19,-24 -29,-56 -29,-91 0,-26 6,-51 16,-72 11,-21 26,-39 46,-50 13,-8 28,-12 44,-12 0,0 0,0 0,0 0,0 0,0 0,0 16,0 31,4 44,12 13,7 24,18 34,30 18,25 28,57 28,92l0 0c0,26 -6,50 -16,71 -11,21 -26,39 -46,51 -13,7 -28,12 -44,12zm0 -214c-6,0 -11,2 -17,5 -6,3 -12,8 -17,15 -10,14 -18,36 -18,60 0,18 4,34 11,47 6,13 15,23 24,28 6,3 11,4 17,4 6,0 11,-1 17,-4 6,-4 12,-9 17,-16 10,-14 18,-35 18,-59l0 0c0,-18 -4,-35 -11,-48 -6,-13 -15,-22 -24,-27 -6,-3 -11,-5 -17,-5zm106 80l0 0z"/>
   <path fill="#612423" fill-rule="nonzero" d="M492 411c0,59 -35,106 -79,106 -43,0 -79,-47 -79,-106 0,-59 36,-107 79,-107 44,0 79,48 79,107z"/>
   <path fill="#FBE443" fill-rule="nonzero" d="M726 499c0,0 0,0 0,0l0 -43 0 43c0,0 0,0 0,0 -10,0 -20,-4 -27,-10l0 0 0 0c-10,-8 -16,-21 -16,-33 0,-9 4,-19 10,-27l0 0c21,-25 45,-45 70,-59 26,-14 54,-22 83,-23 3,-1 6,-1 9,-1 26,0 49,5 71,13 21,7 40,17 55,26 32,20 52,39 54,42l0 0c8,8 12,19 12,29 0,11 -4,22 -12,30l0 0c-8,9 -19,13 -30,13 0,0 0,0 0,0 0,0 0,0 0,0 -11,0 -21,-4 -30,-12l0 0 0 0 0 -1 -1 -1c-1,0 -2,-2 -4,-3 -4,-4 -9,-8 -16,-13 -14,-10 -34,-22 -55,-30 -15,-5 -30,-8 -45,-8 0,0 0,0 0,0 -2,0 -3,0 -5,0 -16,1 -31,5 -46,14 -15,8 -30,21 -45,39l0 0c-8,9 -20,15 -32,15zm288 -51l0 0 0 0 0 0z"/>
   <path fill="#612423" fill-rule="nonzero" d="M726 472c-4,0 -7,-1 -10,-4 -7,-5 -7,-15 -2,-21 38,-46 83,-71 133,-73 92,-5 166,69 169,72 6,6 6,15 0,21 -6,6 -16,6 -22,0 0,0 -68,-66 -146,-63 -41,2 -78,23 -111,62 -3,4 -7,6 -11,6z"/>
   <path fill="#FBE643" fill-rule="nonzero" d="M620 917c-48,0 -88,-12 -120,-29 -31,-18 -55,-41 -72,-64 -33,-47 -41,-91 -42,-93l0 0c-1,-10 2,-20 10,-26 5,-4 11,-6 17,-6 4,0 8,1 11,2 75,34 145,45 204,45 0,0 0,0 1,0 114,0 193,-42 195,-44l0 0c4,-2 9,-3 13,-3 5,0 10,1 14,3 8,5 13,13 14,23l0 2c0,5 -1,21 -6,41 -6,21 -17,46 -37,70 -14,17 -32,32 -55,45 -31,17 -70,29 -121,32 -8,1 -17,2 -25,2 0,0 -1,0 -1,0zm-160 -144c6,11 14,22 23,32 11,13 26,25 44,35 23,13 54,22 94,22 7,0 14,0 21,-1 50,-3 84,-16 107,-31 24,-15 38,-32 47,-49 1,-3 3,-7 4,-10 -39,14 -98,29 -172,29 0,0 0,0 0,0 -50,0 -107,-7 -168,-27zm-47 -47l-11 25 0 0 11 -25z"/>
   <path fill="#612423" fill-rule="nonzero" d="M413 726c0,0 33,178 231,162 199,-15 193,-162 193,-162 0,0 -188,107 -424,0z"/>
   <path fill="#FCE581" fill-rule="nonzero" d="M552 153c23,-21 50,-33 77,-41 28,-8 57,-11 86,-9 28,1 57,8 84,20 27,11 51,29 69,54 -31,2 -56,0 -82,0 -26,-1 -50,-2 -75,-3 -25,-2 -51,-4 -77,-7 -26,-3 -52,-6 -82,-14z"/>
  </g>
  <rect fill="none" width="1141" height="1141"/>
 </g>
</svg>
