

<!-- Creator: CorelDRAW X8 -->
<svg xmlns="http://www.w3.org/2000/svg" xml:space="preserve" x="0" y="0" width="25mm" height="25mm" version="1.1" shape-rendering="geometricPrecision" text-rendering="geometricPrecision" image-rendering="optimizeQuality" fill-rule="evenodd" clip-rule="evenodd"
viewBox="0 0 516 516"
 xmlns:xlink="http://www.w3.org/1999/xlink">
 <g id="Katman_x0020_1">
  <metadata id="CorelCorpID_0Corel-Layer"/>
  <g id="_2525762196608">
   <path fill="#FDD333" fill-rule="nonzero" d="M0 258c0,-142 116,-258 258,-258 143,0 258,116 258,258 0,143 -115,258 -258,258 -142,0 -258,-115 -258,-258z"/>
   <path fill="#FDEBA2" fill-rule="nonzero" d="M258 516l0 0c0,0 0,0 0,0 0,0 0,0 0,0zm0 -516c0,0 0,0 0,0 0,0 0,0 0,0 0,0 0,0 0,0z"/>
   <g>
    <path fill="#FCC427" fill-rule="nonzero" d="M258 516c-132,0 -241,-99 -256,-227 -1,-10 -2,-21 -2,-31 0,-142 116,-258 258,-258 0,0 0,0 0,0 13,0 25,1 37,3 -125,18 -221,125 -221,255 0,1 0,2 0,3 -9,9 -17,19 -25,30 -4,4 -5,10 -5,15 0,9 4,17 11,22l0 0c5,4 10,5 16,5 0,0 0,0 0,0l0 -27 0 27c0,0 0,0 0,0 4,0 9,-1 13,-3 28,96 110,169 211,183 -12,2 -24,3 -37,3 0,0 0,0 0,0l0 0zm-187 -210l0 0 0 0 0 0zm1 -2l0 0c0,0 0,0 0,0zm0 0c1,-1 2,-3 3,-4 -1,1 -2,3 -3,4z"/>
   </g>
   <path fill="#FCE581" fill-rule="nonzero" d="M211 80c12,-11 26,-18 41,-22 15,-4 30,-5 45,-5 16,1 31,5 45,11 4,1 7,3 10,5 4,2 7,4 10,7l5 3c1,2 3,3 4,4 3,3 6,6 8,9 -16,2 -30,1 -44,1 -13,-1 -27,-1 -40,-2 -13,-1 -27,-2 -40,-3 -14,-2 -28,-4 -44,-8z"/>
   <path fill="#FBE643" fill-rule="nonzero" d="M182 437c-3,0 -7,-2 -10,-4 -4,-5 -5,-11 -1,-17 0,0 6,-10 16,-23 11,-14 26,-30 44,-42 12,-7 26,-13 42,-14l0 0c2,-1 5,-1 7,-1 0,0 1,0 1,0 25,0 46,9 63,22 16,13 27,31 35,49 2,5 1,12 -4,15 -2,2 -6,4 -9,4 -2,0 -5,-1 -7,-2l0 0 -1 -1c0,0 -1,-1 -3,-2 -3,-1 -7,-3 -13,-5 -13,-4 -30,-8 -52,-8 -28,0 -62,6 -101,27l0 0c-2,1 -5,2 -7,2zm0 -14l12 7 -12 -7zm92 -59c-9,0 -18,4 -28,10 -7,4 -14,10 -20,16 23,-7 45,-9 64,-9 0,0 0,0 0,0 17,0 32,2 44,5 -2,-3 -5,-5 -7,-7 -12,-10 -27,-16 -47,-16 -2,0 -4,0 -6,1l0 0z"/>
   <path fill="#612423" fill-rule="nonzero" d="M182 423c0,0 42,-70 91,-73 50,-3 79,27 93,62 0,0 -76,-47 -184,11z"/>
   <path fill="#FBE643" fill-rule="nonzero" d="M84 330c-7,-22 -10,-45 -10,-69 7,-8 15,-15 23,-20 18,-13 36,-21 56,-23l0 0c5,-1 10,-2 15,-2 19,0 35,5 46,10 11,5 17,10 18,11l1 0c6,5 10,13 10,21 0,6 -2,12 -6,17l0 0c-5,7 -13,10 -21,10 0,0 0,0 0,0 0,0 0,0 0,0 -6,0 -12,-2 -17,-5l0 0 0 -1c0,0 -1,0 -2,-1 -1,-1 -3,-2 -6,-3 -5,-2 -13,-5 -22,-5 0,0 0,0 0,0 -3,0 -6,1 -9,1l0 0c-11,2 -22,6 -33,15 -11,8 -23,20 -34,36l0 0 0 0c-3,3 -6,6 -9,8zm73 -86c0,0 0,0 0,0l0 0c-15,2 -30,8 -44,19 -2,1 -3,2 -5,3 1,-1 2,-1 3,-2 14,-10 29,-17 45,-20l0 0c0,0 1,0 1,0zm59 14l0 0z"/>
   <path fill="#FCDC36" fill-rule="nonzero" d="M71 333c0,0 0,0 0,0l0 -27 0 27c0,0 0,0 0,0 -6,0 -11,-1 -16,-5l0 0c-7,-5 -11,-13 -11,-22 0,-5 1,-11 5,-15 8,-11 16,-21 25,-30 0,24 3,47 10,69 -4,2 -9,3 -13,3zm0 -27l0 0 0 0 0 0zm0 0l0 0 0 0zm1 -2l0 0c0,0 0,0 0,0zm3 -4c-1,1 -2,3 -3,4 1,-1 2,-3 3,-4z"/>
   <path fill="#612423" fill-rule="nonzero" d="M71 320c-3,0 -6,-1 -8,-3 -6,-4 -8,-12 -3,-19 28,-39 60,-62 95,-67 40,-6 68,16 69,17 6,4 7,13 3,18 -5,6 -13,7 -19,3 -1,-1 -21,-16 -50,-11 -27,4 -52,23 -76,56 -3,4 -7,6 -11,6z"/>
   <path fill="#FBE443" fill-rule="nonzero" d="M455 311c0,0 -1,0 -1,0l0 -27 0 27c0,0 0,0 0,0 -7,0 -14,-3 -20,-9l0 0c-9,-11 -19,-19 -28,-24 -9,-6 -18,-8 -26,-9 -1,0 -1,0 -2,0 0,0 0,0 0,0 -8,0 -15,2 -20,4 -5,3 -8,5 -8,6 -5,4 -12,6 -18,6 0,0 0,0 0,0 0,0 0,0 0,0 -8,0 -15,-3 -20,-9 -5,-5 -7,-11 -7,-18 0,-7 3,-15 9,-20l0 0 0 0c0,0 1,-1 2,-1 1,-1 2,-2 3,-3 4,-3 8,-5 13,-8 11,-5 27,-11 46,-11 2,0 3,0 5,0l0 0c16,1 33,6 48,15 15,8 30,20 44,36 4,5 6,11 6,18 0,7 -3,15 -9,20 -5,5 -11,7 -17,7zm-1 -27l0 0zm0 0l0 0zm0 0l0 0zm0 0l0 0 0 0c-2,-3 -5,-6 -8,-9 3,3 6,6 8,9l0 0 0 0zm0 0l0 0zm-74 -15l0 0zm7 -26c11,1 22,5 32,11 3,2 5,3 8,5 -3,-2 -6,-4 -9,-6 -11,-6 -21,-9 -31,-10zm-9 -1c-13,0 -24,4 -33,8 8,-4 19,-8 33,-8 0,0 0,0 0,0 0,0 0,0 0,0zm3 0l0 0zm73 42c0,0 0,0 0,0l0 0 0 0z"/>
   <path fill="#612423" fill-rule="nonzero" d="M454 297c-3,0 -7,-1 -10,-4 -21,-24 -42,-36 -63,-37 -24,-1 -40,12 -40,12 -6,5 -14,5 -19,-1 -5,-5 -5,-14 1,-19 1,-1 24,-21 59,-19 29,1 56,17 83,46 5,5 4,14 -2,19 -2,2 -5,3 -9,3z"/>
  </g>
  <rect fill="none" width="516" height="516"/>
 </g>
</svg>
