

<!-- Creator: CorelDRAW X8 -->
<svg xmlns="http://www.w3.org/2000/svg" xml:space="preserve" x="0" y="0" width="25mm" height="25mm" version="1.1" shape-rendering="geometricPrecision" text-rendering="geometricPrecision" image-rendering="optimizeQuality" fill-rule="evenodd" clip-rule="evenodd"
viewBox="0 0 365 365"
 xmlns:xlink="http://www.w3.org/1999/xlink">
 <g id="Katman_x0020_1">
  <metadata id="CorelCorpID_0Corel-Layer"/>
  <g id="_2525724260320">
   <path fill="#FDD333" fill-rule="nonzero" d="M0 183c0,-101 82,-183 183,-183 100,0 182,82 182,183 0,100 -82,182 -182,182 -101,0 -183,-82 -183,-182z"/>
   <path fill="#FDEBA2" fill-rule="nonzero" d="M183 365c-72,0 -134,-41 -164,-101 30,60 92,101 164,101l0 0zm0 0c0,0 0,0 0,0 0,0 0,0 0,0zm-183 -182l0 0c0,-1 0,-2 0,-2 0,0 0,1 0,2zm0 -3c0,0 0,0 0,0 0,0 0,0 0,0zm0 0c0,0 0,0 0,0 0,0 0,0 0,0zm0 0c0,0 0,0 0,0 0,0 0,0 0,0zm0 0c0,0 0,0 0,0 0,0 0,0 0,0zm0 0c0,0 0,0 0,0 0,0 0,0 0,0zm0 0c0,0 0,0 0,0 0,0 0,0 0,0zm0 0c0,0 0,0 0,-1 0,1 0,1 0,1zm0 -1c0,0 0,0 0,0 0,0 0,0 0,0zm0 0c0,0 0,0 0,0 0,0 0,0 0,0zm0 0c0,0 0,0 0,0 0,0 0,0 0,0zm0 0c0,0 0,0 0,0 0,0 0,0 0,0zm0 0c0,0 0,0 0,0 0,0 0,0 0,0zm0 0c0,0 0,0 0,0 0,0 0,0 0,0zm0 0c0,0 0,0 0,-1 0,1 0,1 0,1zm0 -1c0,0 0,0 0,0 0,0 0,0 0,0zm0 0c0,0 0,0 0,0 0,0 0,0 0,0zm0 0c0,0 0,0 0,0 0,0 0,0 0,0zm0 0c0,0 0,0 0,0 0,0 0,0 0,0zm0 0c0,0 0,0 0,0 0,0 0,0 0,0zm0 0c0,0 0,0 0,0 0,0 0,0 0,0zm0 0c0,0 0,0 0,0 0,0 0,0 0,0z"/>
   <path fill="#FCC427" fill-rule="nonzero" d="M183 365c-72,0 -134,-41 -164,-101 -12,-25 -19,-52 -19,-81 0,-1 0,-2 0,-2 0,-1 0,0 0,-1 0,0 0,0 0,0l0 0c0,0 0,0 0,0l0 0c0,0 0,0 0,0 0,0 0,0 0,0 0,0 0,0 0,0 0,0 0,0 0,0 0,0 0,0 0,0 0,0 0,0 0,0 0,0 0,0 0,0 0,0 0,0 0,0 0,0 0,0 0,-1 0,0 0,0 0,0 0,0 0,0 0,0 0,0 0,0 0,0 0,0 0,0 0,0 0,0 0,0 0,0 0,0 0,0 0,0 0,0 0,0 0,0 0,0 0,0 0,0 0,0 0,0 0,0 0,0 0,0 0,0 0,0 0,0 0,0 0,0 0,0 0,0 0,0 0,0 0,0 0,0 0,0 0,-1 0,0 0,0 0,0 0,0 0,0 0,0 0,0 0,0 0,0 0,0 0,0 0,0 0,0 0,0 0,0 0,0 0,0 0,0 0,0 0,0 0,0 0,0 0,0 0,0 0,0 0,0 0,0 0,0 0,0 0,0 0,0 0,0 0,0 0,0 0,0 0,0 0,0 0,0 0,0 0,0 0,0 0,0 1,-28 8,-55 20,-78 1,2 2,5 4,8 6,10 15,19 29,25 0,0 1,0 1,0 -3,13 -5,27 -5,41 0,101 82,183 183,183 2,0 4,-1 6,-1 -17,6 -36,9 -55,9 0,0 0,0 0,0 0,0 0,0 0,0l0 0zm-93 -318c0,0 -6,-6 -19,-9 9,-7 18,-12 27,-17 -5,6 -8,15 -8,26zm60 -36c-5,-2 -10,-4 -14,-5 12,-3 26,-5 40,-6 -9,3 -18,7 -26,11z"/>
   <path fill="#EA5153" fill-rule="nonzero" d="M90 47c0,0 -17,-15 -49,-11 -32,5 -42,72 12,97 54,24 75,31 75,31 0,0 65,-82 43,-129 -21,-46 -81,-34 -81,12z"/>
   <path fill="#F49A2F" fill-rule="nonzero" d="M89 149c-10,-5 -22,-10 -35,-16l0 0c13,6 25,11 35,16z"/>
   <path fill="#F2902B" fill-rule="nonzero" d="M54 133c0,0 -1,0 -1,0 -14,-6 -23,-15 -29,-25 6,10 15,19 29,25 0,0 1,0 1,0l0 0z"/>
   <path fill="#E84242" fill-rule="nonzero" d="M128 164c0,0 -11,-4 -39,-15 -10,-5 -22,-10 -35,-16 0,0 -1,0 -1,0 -14,-6 -23,-15 -29,-25 -15,-24 -10,-53 4,-66 -13,22 -8,62 30,79 51,23 71,29 71,29 0,0 49,-62 45,-107 12,48 -46,121 -46,121z"/>
   <path fill="#EA5153" fill-rule="nonzero" d="M289 56c0,0 -7,-49 -55,-37 -47,13 -6,106 20,145 0,0 117,-48 101,-102 -15,-53 -66,-6 -66,-6z"/>
   <path fill="#E84242" fill-rule="nonzero" d="M254 164c-25,-37 -64,-125 -25,-143 -19,28 9,99 29,131 0,0 60,-21 89,-52 -26,36 -93,64 -93,64z"/>
   <path fill="#FBEC50" fill-rule="nonzero" d="M207 297c-16,0 -31,-5 -42,-12 -12,-7 -21,-17 -27,-27 -5,-6 -7,-13 -9,-19l9 -2 -9 2c0,-3 1,-6 3,-8 1,-1 3,-2 6,-2 0,0 0,0 1,0l0 0 1 0c0,0 1,0 2,1 2,0 5,0 9,1 8,0 18,1 30,1 0,0 0,0 0,0 15,0 32,-1 47,-5 16,-3 30,-9 41,-18 1,-1 3,-1 5,-1 1,0 2,0 3,0 2,1 4,3 5,6 0,0 1,6 1,14 0,7 0,16 -4,25 -3,9 -9,19 -19,27 -7,5 -15,9 -25,13 -10,3 -19,4 -28,4 0,0 0,0 0,0 0,0 0,0 0,0zm-57 -50c0,1 1,2 1,3 4,5 8,10 13,14 11,10 26,17 43,17 7,0 15,-2 23,-4 9,-3 15,-6 20,-10 5,-4 8,-8 11,-13 4,-8 6,-16 6,-24 -11,7 -23,11 -35,14 -18,3 -35,4 -51,4 -12,0 -23,0 -31,-1z"/>
   <path fill="#EA5153" fill-rule="nonzero" d="M138 237c0,0 92,15 136,-21 0,0 12,52 -41,69 -54,17 -91,-23 -95,-48z"/>
   <path fill="#71252E" fill-rule="nonzero" d="M245 249c9,0 17,3 23,8 11,-20 6,-41 6,-41 -44,36 -136,21 -136,21 3,20 29,51 67,52 0,-22 18,-40 40,-40z"/>
  </g>
  <rect fill="none" width="365" height="365"/>
 </g>
</svg>
