

<!-- Creator: CorelDRAW X8 -->
<svg xmlns="http://www.w3.org/2000/svg" xml:space="preserve" x="0" y="0" width="25.0002mm" height="25mm" version="1.1" shape-rendering="geometricPrecision" text-rendering="geometricPrecision" image-rendering="optimizeQuality" fill-rule="evenodd" clip-rule="evenodd"
viewBox="0 0 365 365"
 xmlns:xlink="http://www.w3.org/1999/xlink">
 <g id="Katman_x0020_1">
  <metadata id="CorelCorpID_0Corel-Layer"/>
  <g id="_2525549765328">
   <path fill="#FDD333" fill-rule="nonzero" d="M0 183c0,-101 82,-183 183,-183 100,0 182,82 182,183 0,100 -82,182 -182,182 -101,0 -183,-82 -183,-182z"/>
   <path fill="#FDEBA2" fill-rule="nonzero" d="M183 365c-101,0 -183,-82 -183,-182l0 0c0,100 82,182 183,182l0 0z"/>
   <path fill="#FCC427" fill-rule="nonzero" d="M183 365c-101,0 -183,-82 -183,-182 0,-101 82,-183 183,-183 13,0 26,2 39,4 -66,5 -122,45 -150,102 -10,4 -20,10 -29,19l0 0c-4,3 -6,8 -6,13 0,3 1,7 4,11l0 0c3,3 8,5 13,5 0,0 0,0 0,0l0 -14c-1,0 -2,0 -2,-1l0 0c-1,0 -1,-1 -1,-1 0,-1 1,-2 1,-2l0 0c4,-3 7,-6 11,-9 -1,3 -2,6 -3,8 -1,1 -3,3 -5,4l0 0c0,1 -1,1 -1,1l0 14c0,0 0,0 0,0 0,0 1,0 2,0 -2,11 -3,21 -3,32 0,88 62,161 144,178 -5,1 -10,1 -14,1l0 0z"/>
   <path fill="#FBE443" fill-rule="nonzero" d="M56 154c1,-6 2,-13 4,-19 8,-6 16,-10 24,-13 9,-4 17,-5 25,-5 0,0 0,0 0,0 13,0 24,3 31,7 8,3 12,7 13,8l0 0 0 0c0,0 1,0 1,0 1,0 2,0 2,0 1,-1 1,-1 1,-2 0,-1 0,-1 -1,-2l0 0 0 0 -1 0c0,-1 -1,-2 -2,-2 -3,-2 -6,-4 -10,-6 -8,-4 -20,-8 -34,-8 0,0 0,0 0,0 -8,0 -17,1 -27,5 -6,2 -13,6 -19,10 2,-7 5,-14 9,-21 2,-1 3,-2 5,-3 11,-4 22,-6 32,-6 0,0 0,0 0,0 16,0 30,5 39,10 10,4 16,9 17,10l0 0 0 0c4,3 6,8 6,13 0,4 -1,8 -4,11l0 0 0 0c-3,4 -8,6 -13,6 0,0 0,0 0,0 0,0 0,0 0,0 -3,0 -7,-2 -10,-4 -1,-1 -4,-3 -10,-6 -6,-3 -15,-6 -25,-6 0,0 0,0 0,0 -6,0 -13,1 -20,4 -8,3 -16,8 -24,15l0 0c-3,2 -6,4 -9,4zm88 -11l0 0c0,0 0,0 0,0z"/>
   <path fill="#FCDB36" fill-rule="nonzero" d="M54 154c-5,0 -10,-2 -13,-5l0 0c-3,-4 -4,-8 -4,-11 0,-5 2,-10 6,-13l0 0c9,-9 19,-15 29,-19 -4,7 -7,14 -9,21 -4,3 -7,6 -11,9l0 0c0,0 -1,1 -1,2 0,0 0,1 1,1l0 0c0,1 1,1 2,1l0 14c0,0 0,0 0,0zm0 0c0,0 0,0 0,0l0 -14c0,0 1,0 1,-1l0 0c2,-1 4,-3 5,-4 -2,6 -3,13 -4,19 -1,0 -2,0 -2,0z"/>
   <path fill="#612423" fill-rule="nonzero" d="M54 147c-3,0 -6,-1 -8,-3 -3,-4 -3,-10 1,-14 60,-52 113,-8 114,-7 4,3 4,9 1,13 -4,4 -10,5 -14,1 -1,-1 -41,-33 -88,8 -2,1 -4,2 -6,2z"/>
   <path fill="#FBE643" fill-rule="nonzero" d="M236 152c-5,0 -9,-2 -12,-5l0 0c-3,-3 -4,-7 -4,-11 0,-4 2,-9 5,-12l0 0c11,-9 21,-15 32,-19 10,-4 19,-6 28,-6 0,0 0,0 0,0 15,0 27,4 36,8 8,4 14,9 16,10l0 0 0 0c4,3 6,8 6,12 0,4 -2,8 -4,11l0 0c-3,3 -8,5 -12,5 0,0 0,0 0,0 0,0 0,0 0,0 -4,0 -8,-1 -11,-4l0 0c0,0 -3,-2 -8,-5 -6,-2 -13,-5 -22,-5 0,0 0,0 0,0 -6,0 -12,1 -18,4 -7,2 -14,7 -22,13 -3,3 -7,4 -10,4 0,0 0,0 0,0l0 -14c0,0 0,0 1,-1 8,-7 17,-13 25,-16 9,-3 17,-4 24,-4 0,0 0,0 0,0 11,0 21,3 28,6 7,3 11,7 12,7l0 0c0,1 0,1 1,1 0,0 0,0 1,-1l0 0c0,0 0,0 0,-1 0,0 0,0 0,-1l-1 0 0 0c-1,-1 -1,-1 -2,-2 -2,-1 -5,-3 -9,-5 -8,-4 -18,-7 -31,-7 0,0 0,0 0,0 -7,0 -15,1 -23,4 -9,4 -18,9 -27,17l0 0 0 0c-1,0 -1,1 -1,1 0,1 0,1 1,1 0,1 0,1 1,1l0 14c0,0 0,0 0,0zm-1 -15l0 0zm93 -9l0 0z"/>
   <path fill="#612423" fill-rule="nonzero" d="M236 145c-3,0 -5,-1 -7,-3 -3,-4 -3,-9 1,-12 54,-48 102,-8 102,-7 4,3 4,8 1,12 -3,4 -8,4 -12,1 -2,-1 -37,-30 -80,7 -1,1 -3,2 -5,2z"/>
   <path fill="#F8AC31" fill-rule="nonzero" d="M345 181c3,18 -14,36 -36,39 -22,2 -42,-10 -45,-29 -2,-18 14,-35 36,-38 23,-3 43,9 45,28z"/>
   <path fill="#F8AC31" fill-rule="nonzero" d="M134 189c3,21 -16,41 -41,44 -26,3 -49,-11 -51,-32 -3,-21 15,-41 41,-44 26,-4 48,11 51,32z"/>
   <path fill="#FCE581" fill-rule="nonzero" d="M173 48c6,-6 14,-9 21,-11 7,-2 15,-3 23,-2 8,0 16,2 23,5 7,3 14,8 19,15 -9,0 -16,0 -23,0 -7,0 -13,-1 -20,-1 -7,-1 -14,-1 -21,-2 -7,-1 -14,-2 -22,-4z"/>
   <path fill="#FBE443" fill-rule="nonzero" d="M182 301c-3,0 -6,0 -8,-2 -3,-1 -5,-4 -6,-6l0 0c-1,-2 -1,-5 -1,-7 0,-3 0,-6 2,-8 1,-3 4,-5 6,-6l0 0c12,-6 24,-7 36,-7 8,0 15,1 21,2l0 0c1,0 1,0 2,0 0,0 0,0 0,0 2,0 3,0 5,-1 1,-1 2,-2 3,-3 0,0 1,-1 1,-2 0,0 0,0 0,0l0 -1 0 0 0 0c0,0 -1,-1 -2,-1 -1,-1 -3,-2 -5,-2 -3,-1 -6,-2 -8,-2l0 0c-6,0 -12,-5 -14,-12l0 0c0,-1 0,-2 0,-3 0,-6 3,-11 8,-14l0 0c4,-2 6,-4 7,-6 1,-2 1,-3 1,-4 0,-2 0,-3 0,-4l0 0c-1,-1 -2,-3 -3,-4 -7,5 -14,8 -21,10 -8,2 -15,3 -20,3 -2,0 -4,0 -5,0 -1,0 -1,-1 -1,-1 -4,0 -7,-2 -10,-5 -2,-3 -3,-6 -3,-10 0,-1 0,-1 0,-2l0 0c0,-4 2,-7 5,-10 3,-2 6,-3 10,-3 0,0 0,0 0,0 0,0 0,0 0,0 1,0 1,0 2,0l0 0 1 0c0,0 1,0 1,0 0,0 0,0 0,0 3,0 7,0 12,-2 4,-1 10,-4 16,-8l0 0c3,-3 8,-4 13,-4 0,0 0,0 0,0 4,0 7,0 11,2l0 0c6,3 11,7 15,13 5,7 8,14 8,23l0 0c0,0 0,1 0,2 0,3 0,7 -2,12 0,1 -1,3 -2,5 0,0 0,0 1,0 3,2 6,5 9,8l0 0c4,6 7,13 7,20 0,2 0,4 -1,6 -2,9 -7,17 -14,22 -7,6 -15,9 -25,9 -2,0 -4,0 -7,-1l0 0c-5,-1 -11,-1 -16,-1 0,0 0,0 0,0 0,0 -1,0 -1,0 -7,0 -15,1 -21,4l0 0c-2,1 -5,1 -7,1l0 -15 0 15zm0 -17l0 2 0 -2zm0 0l0 0zm61 -23l0 0c0,0 0,0 0,0zm10 -9l0 0zm-23 -14c0,0 0,0 0,0l0 0 0 0zm-5 -32l0 0zm21 0l0 0zm-62 -16l0 0zm54 -12l0 0z"/>
   <path fill="#612423" fill-rule="nonzero" d="M182 293c-2,0 -5,-2 -6,-4 -1,-3 0,-7 3,-9 17,-8 38,-7 52,-5 8,2 19,-3 20,-12 1,-3 0,-6 -1,-8 -5,-6 -17,-8 -21,-9 -3,0 -5,-2 -6,-5 -1,-3 1,-5 3,-7 15,-9 14,-19 12,-25 -3,-8 -10,-11 -11,-11 -22,17 -45,14 -46,14 -3,-1 -6,-4 -6,-8 1,-3 4,-6 8,-5 1,0 19,2 36,-12 4,-3 10,-3 15,-1 9,4 18,15 18,28 1,5 0,14 -8,22 6,2 12,6 16,11 4,5 6,11 4,18 -2,16 -19,27 -35,24 -13,-3 -30,-4 -44,3 -1,0 -2,1 -3,1z"/>
  </g>
  <rect fill="none" width="365" height="365"/>
 </g>
</svg>
