

<!-- Creator: CorelDRAW X8 -->
<svg xmlns="http://www.w3.org/2000/svg" xml:space="preserve" x="0" y="0" width="91.632mm" height="25mm" version="1.1" shape-rendering="geometricPrecision" text-rendering="geometricPrecision" image-rendering="optimizeQuality" fill-rule="evenodd" clip-rule="evenodd"
viewBox="0 0 9163 2500"
 xmlns:xlink="http://www.w3.org/1999/xlink">
 <g id="Layer_x0020_1">
  <metadata id="CorelCorpID_0Corel-Layer"/>
  <path fill="#ffffff" d="M1249 595l662 -552c42,-30 141,-76 179,-7 16,26 -15,64 -38,83l-605 480c148,-4 289,12 430,65l548 -267c137,-64 290,-156 370,-293 53,-87 133,-34 99,54 -92,236 -644,449 -876,552 464,186 834,601 369,1031 -186,183 -674,449 -894,137 -84,-118 26,-350 121,-278 58,38 -156,175 8,259 381,198 864,-240 815,-624 -38,-274 -320,-400 -552,-476 -152,61 -312,129 -472,179 -149,49 -309,61 -465,57l-871 685c-19,15 -69,4 -77,-19 0,-38 46,-80 65,-95l723 -598c-102,-26 -197,-125 -99,-220 149,-141 370,-153 560,-153zm-373 309l0 0 251 -210c-110,-19 -224,-11 -323,50 -111,72 -16,156 72,160zm209 -16l0 0c80,19 145,8 225,-11 152,-38 297,-95 438,-164 -126,-42 -259,-38 -389,-49l-274 224zm1717 431l0 0c12,-4 23,-8 27,-19 15,-23 15,-99 -4,-118 -30,-31 -88,0 -99,30 -19,46 27,114 76,107zm518 -130l0 0c-88,149 -156,404 80,449 297,54 586,-171 807,-338 -42,144 103,175 209,99l541 -370c-61,84 -141,172 -153,282 -7,88 42,141 130,118 160,-34 320,-156 445,-247 -4,49 12,95 61,102 80,19 168,-38 236,-80 38,137 198,23 267,-30l624 -468 -175 274c-34,45 -114,167 -34,221 102,64 289,-141 338,-191 0,42 19,80 69,80 72,4 126,-45 175,-84 15,84 84,99 164,61 99,-49 167,-160 243,-239 -22,60 -72,159 -34,220 61,92 171,-30 213,-68l598 -537 -221 339c-61,15 -133,46 -152,110 -4,27 4,57 15,88l-91 129c-23,31 -42,92 0,111 64,26 106,-88 125,-115l61 -106c107,-15 213,-42 301,-103 415,91 982,472 917,959 -53,377 -1267,400 -1305,404 -229,23 -2623,255 -2973,46 -88,-50 23,-111 72,-115 221,-30 506,61 552,50 141,-31 -34,-130 -76,-137 -152,-35 -693,-103 -670,175 15,236 1035,224 1153,221 731,-23 1466,-92 2201,-164 255,-23 959,-126 1122,-335 50,-289 -137,-697 -346,-872 -167,-137 -354,-240 -563,-293 68,-68 331,-354 133,-419 -99,-38 -84,27 -34,80 80,92 -126,263 -187,313l-160 -35 320 -476 228 -22c27,0 107,30 111,-12 11,-61 -42,-72 -92,-72l-209 15c19,-19 99,-76 80,-114 -11,-34 -61,0 -76,15l-122 118 -1290 141 186 -164c50,-45 -11,-99 -61,-53l-262 244 -1356 201 252 -239c26,-23 19,-77 -23,-80 -42,0 -76,41 -107,68l-304 289 -339 65c-190,31 -274,190 -202,171 61,-7 84,-72 145,-80l274 -45 -792 578c-15,16 -46,38 -65,8 -22,-30 31,-80 50,-107l438 -521c19,-19 26,-65 -16,-72 -53,-8 -114,64 -144,95 26,-118 -4,-236 -134,-259 -148,-31 -312,57 -449,122 19,-19 61,-99 -7,-80 -202,49 -685,498 -815,651 -49,57 -221,209 -228,289 -8,133 125,-30 129,-42 61,-80 126,-148 202,-217zm346 -293l0 0c202,-175 491,-335 762,-343 194,0 49,271 -4,354 -225,309 -552,526 -921,625 -160,42 -191,-88 -134,-221 65,-160 168,-305 297,-415zm2018 228l0 0c-42,50 -274,160 -225,12 38,-107 320,-305 347,-187 3,38 -96,134 -122,175zm-328 -426l0 0 1337 -213 -807 632c-19,19 -88,61 -73,-4 19,-80 149,-103 172,-183 19,-64 -84,-30 -107,-11 -11,-50 -38,-72 -91,-76 -38,0 -73,11 -111,26 4,-38 -23,-99 -65,-60 -137,117 -72,129 -342,338 -53,42 -263,229 -343,206 -49,-15 -7,-84 8,-103l422 -552zm1531 -240l0 0 1248 -141 -723 632c46,-83 148,-255 19,-319 -76,-42 -87,53 -80,110l-232 228c-38,35 -95,38 -61,-11l126 -160c41,-61 -54,-46 -80,-46 -50,99 -141,187 -244,225 -87,30 -4,-107 4,-122 15,-45 -34,-38 -53,-19 -50,38 -313,263 -354,263 -61,0 19,-103 26,-111l404 -529zm106 236l0 0c-83,-19 8,-99 31,-122 45,-38 137,-38 99,39 -31,45 -73,95 -130,83zm179 -45l0 0c-42,-27 19,-96 42,-115 61,-41 91,19 50,65 -19,27 -58,65 -92,50zm739 266l0 0 45 -72 122 23c-45,34 -106,45 -167,49z"/>
 </g>
</svg>
