

<!-- Creator: CorelDRAW X8 -->
<svg xmlns="http://www.w3.org/2000/svg" xml:space="preserve" x="0" y="0" width="52.198mm" height="20mm" version="1.1" shape-rendering="geometricPrecision" text-rendering="geometricPrecision" image-rendering="optimizeQuality" fill-rule="evenodd" clip-rule="evenodd"
viewBox="0 0 5220 2000"
 xmlns:xlink="http://www.w3.org/1999/xlink">
 <g id="Layer_x0020_1">
  <metadata id="CorelCorpID_0Corel-Layer"/>
  <path fill="#ffffff" d="M2215 1499c-1,-6 -4,-9 -8,-8 -30,8 -15,151 33,113 10,-8 20,-23 29,-42 50,-103 83,-241 114,-352 59,-211 107,-456 48,-521 -32,-34 -54,3 -81,15 -32,14 -25,-22 -50,-33 -6,-3 -13,-4 -20,-4 -43,4 -91,71 -126,100 -11,10 -22,16 -23,5 -1,-27 -11,-80 -26,-100 -7,-9 -17,-14 -31,-10 -5,1 -10,3 -16,5 -27,11 -66,32 -79,39 -21,13 -43,27 -62,45 -23,21 -39,46 -40,78 0,9 2,17 7,18 21,6 20,-16 25,-26 6,-11 16,-23 28,-34 16,-15 35,-30 53,-42 3,-2 6,-4 9,-6 15,-11 31,-21 50,-23 32,-3 37,30 37,61l0 7c0,20 -6,47 -13,72 -3,14 -21,54 -17,67 5,17 29,17 42,-6 4,-7 7,-15 10,-23 13,-35 39,-60 62,-87 16,-17 63,-65 83,-76 10,-5 19,-5 23,10 5,18 4,41 -1,60 -3,13 -10,47 13,48 5,0 11,-3 17,-12 13,-19 23,-54 31,-67 5,-7 10,-12 16,-17 9,-8 21,-21 33,-21l0 0 0 0 0 0 0 0 0 0 0 0c5,0 8,1 11,3 42,43 -13,291 -65,491 -3,8 -100,400 -113,303 -1,-12 -2,-27 -3,-30l0 0zm-1316 -923c3,-4 6,-8 10,-12 26,-34 50,-64 72,-112 14,-32 20,-68 -18,-81 -71,-24 -191,27 -242,52 -37,18 -74,37 -113,54 -14,7 -25,7 -27,-16 -2,-39 -30,-35 -62,-9l-146 122 -68 61c-117,104 -259,220 -297,377 -34,145 41,218 173,178 56,-17 106,-47 154,-80 19,-13 55,-46 78,-48 16,-1 11,21 9,34l-8 62c-1,11 -19,38 -25,49 -19,32 -39,65 -59,99 -66,108 -331,516 -238,646 10,13 21,24 34,33 66,44 118,-17 153,-68 55,-81 95,-201 123,-324 24,-108 36,-224 47,-297l14 -113c2,-13 1,-29 10,-38l88 -98 76 -71 5 -5c7,-6 20,-18 31,-20 12,-3 0,33 0,50l0 0c0,24 11,33 28,35 39,5 70,-6 99,-35l5 -5c24,-23 35,-45 57,-4 4,6 7,12 11,16 43,36 101,13 139,-17 15,-13 29,-27 45,-40 33,-26 67,-36 109,-36l0 0c9,0 11,4 8,10 -16,32 -65,73 -89,101 -19,19 -29,32 -41,56 -11,34 -4,64 5,97l7 23c11,41 3,39 -16,77 -8,15 -18,30 -26,46 -14,27 -30,83 -9,108 9,11 26,14 54,5l11 -5c38,-19 60,-73 60,-115 0,-19 0,-36 -5,-55 -3,-16 -5,-28 5,-49l10 -15 107 -142 94 -121c14,-18 37,-55 51,-27 4,8 7,14 11,19 18,22 74,12 82,-16 2,-8 0,-16 -11,-18 -18,-4 -29,-3 -29,-25l0 -20c0,-3 1,-8 1,-14 0,-7 0,-14 -2,-20 -3,-16 -21,-21 -33,-14 -27,15 -48,51 -66,75l-206 266c-20,26 -41,48 -52,19 -3,-9 -6,-22 -7,-31 -2,-14 -1,-25 10,-48l40 -50 66 -67 67 -71c22,-23 20,-25 20,-56l0 0 0 0c0,-2 0,-3 -1,-5 -6,-27 -151,46 -172,46l0 0 -5 0 0 0 0 0 0 0 0 0 0 0 0 0 0 0c-5,0 -6,-3 -6,-6 3,-23 31,-44 31,-60l0 0c0,-17 -3,-35 -10,-42 -25,-25 -71,82 -71,83 -11,29 -33,69 -56,91 -13,13 -41,31 -59,32 -14,1 -29,-7 -31,-22 -6,-57 39,-97 39,-142l0 0c0,-11 -6,-11 -15,-20l0 0c-45,0 -81,-17 -123,10 -107,67 -176,142 -273,234 -24,23 -74,97 -51,5l5 -26 5 -10c52,-79 260,-216 276,-268 9,-31 -20,-18 -32,-6 -24,24 -51,47 -76,71 -9,9 -86,81 -87,81l0 0 0 0 0 0c-16,0 -28,-5 -40,-5l0 0 -5 0 0 0 -5 0 0 0c-41,0 -56,66 -72,97l-5 10 0 0 -5 5 0 0 -5 5 -5 5 -5 5c-56,38 -107,72 -167,107 -48,24 -133,64 -173,29 -78,-69 42,-266 90,-321 57,-66 128,-124 189,-181l149 -129c3,-3 8,-7 14,-12 17,-13 35,-9 28,4 -6,11 -29,26 -47,37 -31,21 -62,47 -87,76 -75,90 -95,183 -123,299l-17 91c-15,82 16,53 24,2l23 -114 21 -66c21,-67 45,-122 84,-171 82,-103 194,-150 308,-206 45,-17 88,-36 135,-46 34,-7 66,-9 78,5 10,13 5,36 -9,58 -19,29 -38,65 -60,94 -8,11 -17,20 -24,30 -2,2 -3,4 -3,6 -3,9 2,14 9,13 2,0 5,-2 8,-4 9,-7 17,-21 25,-31l0 0zm181 737c6,2 5,22 -3,44 -8,22 -20,38 -26,35 -7,-2 -5,-22 3,-44 8,-21 19,-37 26,-35zm-260 -380c38,-42 60,-86 49,-99 -11,-12 -52,11 -90,53 -39,41 -61,86 -50,98 12,13 52,-11 91,-52zm-413 436c-13,176 -103,476 -190,560 -37,35 -90,23 -103,-30 -15,-61 30,-156 51,-206 29,-71 63,-138 100,-205 39,-72 77,-145 118,-215 7,-12 12,-20 13,-21 2,-1 5,0 6,2 2,3 3,8 3,14 3,33 5,67 2,101l0 0zm1135 -751c14,0 26,16 26,35 0,20 -12,36 -26,36 -14,0 -26,-16 -26,-36 0,-19 12,-35 26,-35zm1125 79c19,0 34,18 34,40 0,22 -15,39 -34,39 -19,0 -35,-17 -35,-39 0,-22 16,-40 35,-40zm1007 -34c-11,31 -1,45 17,47 10,1 23,-1 36,-6l24 -8 42 -15 63 -18c15,-4 32,-10 45,-1 1,1 3,2 4,4l2 2 3 3c10,10 18,14 31,15 27,2 68,-12 93,-27 41,-25 80,-21 130,-24l2 0c32,-6 68,-10 99,-18 3,0 7,-1 9,-3 13,-5 23,-16 13,-30 -6,-9 -18,-10 -33,-10 -29,2 -57,5 -85,9 -11,2 -20,3 -30,3 -41,3 -61,8 -95,23 -14,6 -26,9 -41,14 -10,3 -20,6 -29,7 -20,4 -16,-7 -32,-15 -16,-8 -44,-4 -62,-1 -4,0 -7,1 -11,2 -31,5 -66,13 -92,23 -17,7 -27,8 -32,6 -9,-4 -5,-18 -2,-35 8,-33 -38,-43 -67,-28l-107 53 -39 20c-27,14 -66,30 -96,34 -13,2 -24,1 -31,-7 -11,-13 -7,-23 2,-31 13,-12 41,-19 57,-27 29,-14 68,-40 80,-63 9,-18 -6,-35 -21,-40 -68,-22 -107,21 -149,68 -15,16 -23,31 -53,11l-9 -5 -5 -4c-34,-22 -40,-37 -12,-48 24,-10 53,-14 78,-20l254 -61 1162 -231 30 -6c15,-3 36,-4 41,-21 5,-18 -14,-26 -31,-23 -5,1 -11,3 -18,4l-1537 319c-47,10 -89,22 -133,39l-26 10c-13,5 -29,13 -43,11 -16,-3 -14,-22 -14,-34 1,-84 10,-167 10,-251 0,-1 0,-2 0,-3 -2,-16 -21,-19 -32,-12 -4,3 -7,7 -8,13 -1,10 -1,21 -1,33 0,29 -3,58 -6,88l-3 44 -10 115c-1,11 -9,31 -15,41 -14,21 -31,31 -45,54 -10,18 -10,49 -2,76 8,28 22,63 51,76 17,7 32,-6 37,-50l13 -95c5,-38 14,-51 57,-64l61 -18c35,-10 50,-11 47,18 -6,58 -25,104 -27,163 0,30 7,52 19,50 12,-2 21,-24 26,-35 13,-34 11,-59 17,-92 4,-20 9,-37 17,-49 5,-8 11,-10 25,1 9,7 22,13 33,18 9,4 18,8 24,14 8,8 9,41 15,53 15,32 50,26 87,17l12 -3 15 -5 20 -11 106 -53c18,-8 52,-29 72,-27 13,1 6,18 3,27l0 0zm-222 -108c16,-6 33,-2 37,8 4,11 -7,25 -23,31 -17,6 -34,2 -38,-9 -4,-10 7,-24 24,-30zm404 -251c15,0 27,15 27,34 0,19 -12,35 -27,35 -16,0 -28,-16 -28,-35 0,-19 12,-34 28,-34zm1364 -211c0,-17 -3,-34 -7,-45 -16,-50 -89,-62 -128,-32 -6,4 -11,10 -17,17 -73,86 -122,140 -157,245 -21,63 -29,121 -30,186 -1,21 -14,46 -30,57l-32 23 -35 20 -26 14c-32,17 -66,41 -102,48 -21,4 -37,0 -41,-28l-9 -70 -2 -12 -1 -8c-3,-14 9,-60 1,-74 -5,-8 -15,-14 -24,-9 -13,8 -19,24 -30,30 -4,3 -11,4 -19,5 -20,3 -36,2 -55,10 -32,14 -69,42 -87,72 -8,13 -9,21 -13,43 -4,31 -23,7 -17,-16 4,-19 17,-42 26,-54 22,-30 13,-66 -27,-32 -16,13 -35,45 -44,70 -13,33 -20,72 13,96 22,17 46,10 72,0 38,-16 65,-29 95,-60 7,-6 35,-36 51,-52 19,-16 19,-1 21,19l4 28 5 31c2,16 8,31 19,42 26,29 68,19 99,3l10 -4 35 -21 95 -57c28,-17 39,-15 44,-5 26,53 41,159 57,220l7 24 167 765c5,23 9,40 15,49 3,5 7,7 11,8 29,6 21,-47 20,-60 -18,-243 -53,-423 -116,-651 -32,-119 -56,-239 -83,-359 -7,-33 -5,-46 0,-60 3,-11 10,-20 18,-30 25,-31 51,-61 75,-93l20 -25 15 -19c4,-6 37,-55 38,-60 0,-6 -3,-11 -9,-9 -3,0 -5,2 -8,5 -10,8 -18,20 -26,30 -26,32 -123,176 -131,98 -1,-8 0,-20 1,-35 6,-51 22,-100 44,-146 23,-48 51,-88 78,-134 1,-2 3,-5 5,-8 7,-13 19,-32 35,-42 16,-11 52,-13 67,1 13,11 19,32 19,49l0 0c0,17 -8,29 -10,44 -2,14 2,19 7,18 20,-2 27,-45 27,-60l0 0zm-757 460c14,-12 20,-28 13,-36 -7,-8 -24,-5 -38,7 -14,12 -20,28 -13,36 7,9 24,5 38,-7zm721 -382c-11,-6 -32,8 -48,32 -15,25 -19,50 -8,57 11,7 32,-7 48,-32 15,-24 19,-50 8,-57z"/>
 </g>
</svg>
