

<!-- Creator: CorelDRAW X8 -->
<svg xmlns="http://www.w3.org/2000/svg" xml:space="preserve" x="0" y="0" width="20.848mm" height="25mm" version="1.1" shape-rendering="geometricPrecision" text-rendering="geometricPrecision" image-rendering="optimizeQuality" fill-rule="evenodd" clip-rule="evenodd"
viewBox="0 0 2085 2500"
 xmlns:xlink="http://www.w3.org/1999/xlink">
 <g id="Layer_x0020_1">
  <metadata id="CorelCorpID_0Corel-Layer"/>
  <path fill="#ffffff" d="M902 0c-10,14 -38,8 -54,5 16,-6 36,-5 54,-5zm226 24l0 0 2 -3c3,2 4,6 8,5l3 -2 13 10 -3 3c5,8 18,-6 11,8l2 2 11 -13 -8 -5c16,0 27,26 47,34 -1,2 1,3 2,5l6 -5c7,9 22,28 31,39l-2 3 -14 -11 -5 16 -10 -13c-2,1 -3,3 -6,2 -1,-1 -3,-3 -2,-5l5 -5c-4,-16 -23,-19 -29,-34 -9,4 -10,-6 -13,-10 -4,3 -8,10 -15,7 -1,-2 1,-4 2,-5 -1,-2 -3,-3 -5,-2l-5 5 -3 -13 -10 8c-7,-20 -9,-7 -21,-16l2 -3c-12,5 -24,-13 -34,-18 17,5 26,4 40,16l0 0zm-66 -3l0 0c-1,3 -5,2 -8,3l0 -6c3,0 7,0 8,3zm-131 18l0 0c-6,-8 -15,-6 -23,-10 42,-6 92,16 112,42 11,-3 16,7 24,10l-6 5c8,1 14,10 21,3 10,11 19,-1 29,10l6 -5c-15,-6 -26,-20 -40,-26l-3 3c-4,-15 -27,-23 -39,-40l3 -2c26,15 45,33 68,50 9,0 28,-3 32,13l-19 2c-3,7 6,9 8,13l3 -2c2,3 8,5 8,10l-3 3 -5 -6 -8 8c7,13 21,15 31,13 -11,3 -6,10 -5,16 1,7 12,9 8,18l13 13 3 -2c0,8 6,23 15,29l6 -6 -8 -5 5 -5 -8 -5c17,-3 5,9 16,15l-5 6 2 2 -8 5c15,3 0,19 16,21 4,9 0,26 16,26l0 6c-3,1 -4,-2 -6,-3 -3,2 -2,5 -2,8 5,2 16,3 21,-5l0 -19c15,27 3,61 10,84l-5 0c-2,-8 5,-24 -3,-31l3 -3c-2,-5 -7,-2 -11,-3l-5 11 8 5c-6,16 -8,13 -21,24 9,4 3,12 3,18l-5 0c-7,-10 2,-18 -13,-18l-3 2 8 8 -5 5 10 8 -10 5c13,6 -9,13 2,21l-10 3 2 3c-1,3 -5,2 -8,2l-2 -2 8 -6c-14,-11 4,-6 5,-18 -3,-3 -6,-7 -11,-5l-2 8 2 -3c-2,-5 -7,-2 -10,-3 -7,4 2,9 3,11l-16 5c4,2 2,7 3,11l-19 13 8 10 -8 5c5,-6 -12,-5 -2,-13 -6,-7 -11,2 -16,3 -9,-4 -4,-18 -16,-16l-2 3c-2,-4 -1,-10 -8,-11l-5 6c15,9 11,28 23,36 -9,21 10,47 0,73l-5 -28c-9,-3 -5,-24 -13,-34l-27 -3 3 -3c-3,-3 -7,-5 -5,-10l5 -5c-5,-3 -14,-4 -11,-13l8 -6c-18,2 -7,-21 -15,-26l-6 5 -8 -7 3 -3c-3,-4 -10,-6 -8,-13l3 -3 -11 -10 -7 8c-1,-8 -9,-9 -11,-16 -3,0 -6,0 -8,3 -3,7 5,7 8,10 -3,2 -4,6 -8,5 6,-11 -13,-25 -8,-39l-10 -5c5,-8 8,3 13,3l3 7c13,-5 22,16 36,16 23,11 35,35 53,52l13 -2c7,-11 -13,-14 -19,-13l3 -3c-29,-42 -82,-63 -126,-86l0 -11c10,4 21,13 29,11 -11,-8 -5,-25 -18,-29 -1,1 -3,3 -5,3l-3 -3c6,0 11,-9 5,-13 -2,-10 -11,-9 -15,-18 9,-7 -6,-10 -6,-16 -21,-15 -52,-12 -68,-37 -1,2 -3,3 -2,6l5 5 3 -3 2 3c-2,4 -23,7 -13,18 -2,5 3,8 5,11l-2 2 10 5 -2 3 5 5 -3 3c12,2 15,16 24,21l-3 2c-5,-10 -24,-12 -23,-26 -2,-4 -9,-1 -8,-8l2 -2 -23 -16c3,-2 3,-5 3,-8 -4,-7 -9,2 -11,3l3 -11 -13 -5 2 -2c-16,-4 -22,-37 -42,-29l11 13 -3 3c15,6 25,22 32,36 -4,14 -15,-6 -16,8 6,4 15,2 21,5l-3 3 3 2 -8 0 3 -2c-7,-9 -16,7 -19,-8l-5 8c-11,2 -15,-21 -26,-11 13,15 18,15 29,27 -2,4 -10,-1 -13,-6 -13,13 13,23 7,39l8 8c-15,5 -21,-25 -36,-28 2,9 2,17 2,28l-26 -21c-2,10 12,23 11,32l-21 -19c-5,6 1,15 8,16 -3,3 -7,6 -6,11l6 5c-2,3 -5,2 -8,2 -6,-5 -11,-13 -19,-15 -5,9 11,15 16,23 -12,8 -22,-14 -34,-8 6,7 8,18 18,21 -3,5 -6,-1 -10,6 -7,-12 -19,-13 -29,-19 -2,15 -15,6 -23,11 7,11 -5,23 13,28 -22,11 -40,-8 -58,6 4,11 11,-3 16,5 7,1 12,8 18,10 -11,-2 -23,0 -36,3 -2,2 -4,3 -3,5 3,5 7,-1 11,-2 3,1 2,4 2,7 -2,1 -4,0 -5,-2l-5 5 5 5 -37 6c12,5 31,10 34,15 -4,3 -10,1 -13,5l5 6c-1,1 -2,3 -5,2 2,-23 -19,-7 -29,-10 -3,-1 -5,3 -7,5 7,13 17,-2 28,3l-13 7 3 3c-5,12 -20,-5 -16,13l13 3c-3,2 -2,5 -2,8l-19 2 8 5c-12,8 -25,7 -39,14l0 7c-3,1 -4,0 -5,-2 -2,2 -6,4 -5,8 5,0 27,5 23,-8 -4,4 9,12 8,21 -11,7 -31,-5 -39,10l5 5c-5,8 -20,6 -24,16 14,1 30,-13 45,-8l-11 5 8 6 -10 10 2 3c-4,1 -8,7 -13,8 -1,-4 4,-6 6,-8 -6,-7 -11,2 -16,2 -1,12 -13,16 -21,19l3 2c0,2 -9,1 -6,8 2,5 7,2 11,3l10 -11 6 5c0,-7 7,-14 15,-15 7,-1 15,0 16,8 -6,14 -15,-5 -21,2 3,4 7,6 5,11 -2,3 -5,2 -8,2 2,-4 -2,-7 -5,-10 -2,5 -8,9 0,13 -3,4 -8,3 -10,8l-6 -5c-14,8 -1,22 -13,34l16 10c-5,2 -9,7 -13,11l-5 -6c-11,18 17,16 21,29 -2,4 -9,2 -8,8l13 3c-7,4 -7,12 -11,18l11 3 -18 31c11,4 15,-14 23,-21 6,15 -22,25 -16,39l14 -15c7,6 -16,25 0,26 -9,8 5,15 -8,21 0,4 -2,15 5,21 11,-9 -2,-27 13,-34l-3 -3 3 -2c5,5 -10,15 3,20 -1,13 -10,27 -3,40l8 2c-17,12 1,30 -16,42l3 3c-9,4 -2,7 0,13 17,-1 -2,-17 13,-24 5,1 2,9 2,13l-10 11c5,1 2,7 3,10l-8 8c8,6 -5,3 -3,10 -5,9 -2,24 -2,32 24,-3 -6,-25 15,-29 -2,2 7,23 -8,24l6 20 5 -5c-2,-1 -4,-2 -3,-5 6,15 12,14 -2,29l-6 -11 -5 8c-6,-12 8,-22 -5,-34 1,14 -11,18 -21,24 1,-3 -1,-4 -3,-6 -5,1 -8,7 -13,8 9,2 15,7 16,16l-8 5c7,1 14,10 21,3l0 8c-4,0 -8,-6 -10,0 2,15 18,25 23,39l8 -8 3 13c6,0 12,-13 7,-10 2,2 7,4 6,8 -9,3 -2,7 0,13l2 2 -8 11c3,2 6,7 11,5l3 -8c4,2 1,7 2,11 -5,0 -7,5 -10,7 -1,9 5,0 8,6l-6 5 -18 -21 5 -5c-15,3 -22,-20 -34,-26 -1,-22 -20,-31 -29,-50 2,-5 -2,-8 -5,-11l3 -2c-11,-6 -11,-21 -21,-29l3 -3c-3,-3 -9,-6 -8,-10l2 -3c-5,-5 -12,1 -18,3l0 3c-11,-8 -20,-26 -26,-40 1,-3 5,-2 8,-2 5,13 22,14 26,31 8,-14 -11,-22 -8,-31l8 -3 -8 -26 -8 5c8,5 6,12 3,16 -5,-7 -6,-20 2,-26 0,-3 0,-6 3,-8 5,10 17,10 18,23 5,-5 2,-13 3,-20 -6,-4 -13,-4 -18,-8 14,-8 -6,-15 -3,-24 3,-11 6,-19 -3,-29l6 -5c-5,-5 -7,-15 -3,-23 -3,-4 -8,-4 -10,-8l-3 26 -3 -3c-2,3 -6,4 -5,8 21,-4 3,19 16,29 -7,4 -11,-1 -16,8l5 5c-2,3 -6,4 -5,8l3 3c-3,1 -5,6 -8,5l-3 -3 8 -5c-2,-3 -6,-4 -5,-8l5 -5c-2,-2 -3,-4 -5,-3l-5 5c5,-9 -12,-20 0,-28l-8 -8c9,-6 3,-18 5,-26 -3,-3 -7,-6 -5,-11l16 -8 -14 -5c1,-2 10,-7 3,-10l-3 0c15,-12 -3,-44 11,-66 -1,-3 0,-6 -3,-7l-10 10 2 3 -2 2 -3 -2 5 -6c-1,-1 -3,-3 -2,-5l10 -2c-15,-23 3,-56 8,-82 12,-13 12,-33 29,-42l2 11c2,-2 3,-4 6,-3 1,2 3,3 2,5 -5,2 -7,-2 -10,-5 -2,8 -9,17 -5,24 5,-5 9,-12 15,-13 3,12 17,24 11,36 -11,2 -14,5 -24,8l16 5c-5,12 -20,8 -29,16 2,5 7,2 11,3 2,13 -6,0 -11,7l8 8 -5 6c14,4 18,-20 23,-27l8 -8 3 3c-6,4 -5,9 -8,13 4,5 10,-8 16,0l-16 16c0,-3 0,-6 -3,-8 -4,21 -38,15 -23,37l8 -16c1,10 -2,19 -8,26l2 3 -5 5c6,6 0,13 -2,19l2 31c15,-17 2,-41 18,-55l-7 -3c10,-6 20,-7 23,-20 4,-10 12,-14 21,-19l3 3c14,-5 9,-15 10,-24 -5,-13 -17,-3 -26,-3l10 -8 -15 -5c5,-2 9,-6 13,-10 4,-31 -28,-43 -24,-71 -19,-31 -7,-59 -10,-94 -2,-23 23,-56 10,-73 4,-3 4,-8 8,-11l13 -2 -2 -3c6,-5 15,-8 23,-10 -3,-5 -3,-10 3,-13 2,8 11,14 18,8 9,-3 21,-15 26,0 12,-7 31,2 42,-8 8,-2 18,-1 29,2l0 -10c-15,-1 -47,2 -63,-3l-3 -2c8,-11 22,-5 29,-16 -13,2 -27,-5 -39,8l-3 8 0 -3c-13,-6 -18,10 -26,18 -5,-1 -2,-7 -2,-10 5,-1 11,-9 5,-13l-3 -3c38,-6 79,-29 118,-31 2,-4 11,-4 8,-11 8,3 24,-6 26,8l10 -13c2,3 5,3 8,3l3 -3c-6,-12 -22,2 -26,-13 -13,7 -22,-9 -34,5 -7,3 -11,-3 -16,-5 13,-11 27,1 39,-13l-13 -8c19,-1 31,-16 52,-2l3 -3c-9,-18 -31,-15 -44,-26 15,-8 35,-3 49,-8l-21 -13c20,3 46,-7 66,8l2 -3c8,6 13,11 21,8l5 5 6 -5c-7,-13 -27,-3 -27,-21 -3,-4 -9,-2 -13,-5l0 -5c6,6 13,0 19,-3 -6,-3 -12,-5 -16,-10 19,-3 34,-2 47,18l-8 5c14,1 15,21 29,13 -8,-11 -2,-23 -18,-29l7 -5c-17,-16 -40,-28 -67,-26 -22,5 -51,2 -71,3 6,-12 29,1 39,-11 10,12 23,-14 34,3 6,-6 14,-6 21,-3 9,14 21,-4 31,5 9,4 18,15 27,11l-8 -8c5,-4 21,-3 28,3 5,4 9,10 16,7l37 37 -3 3c14,4 15,21 29,8l-8 -8 3 -3c-5,-9 -24,-13 -11,-23 18,-4 -4,13 13,10l-8 5c2,5 7,2 11,3 5,14 30,21 23,39 3,5 9,2 13,3l6 -6c-14,-25 -38,-46 -50,-70 -5,-6 -10,-10 -18,-8l-3 3 11 13 -8 8c-3,-14 -15,-17 -21,-29l-5 8 -3 -19c-13,5 -11,-11 -21,-15l-39 -8c14,-8 30,-5 47,-13 0,4 -5,7 -8,10 3,5 8,6 13,5 8,-18 28,7 39,-5 -12,-8 -30,-13 -36,-26 30,3 54,-17 86,-3 12,7 28,10 39,8l0 0zm291 16l0 0c-2,1 -3,4 -6,3l-5 -6 3 -2 -11 -8 3 -3 16 16zm-296 13l0 0c-24,0 -55,-8 -78,-23l-21 -3c38,-5 67,14 99,26l0 0zm199 -18l0 0 3 2 -19 0 0 -5c6,1 11,10 16,3zm-429 10l0 0c-12,14 -34,13 -47,16 14,-8 33,-16 47,-16zm319 8l0 0 -39 -3c13,-8 27,-8 39,3zm-152 5l0 0 -21 -10 19 8 2 2zm307 11l0 0 5 -5c18,12 36,33 52,52l3 -3c1,3 6,4 5,8l-3 3c7,1 12,7 21,5 5,-3 -1,-8 -2,-11l-6 0 6 -5c-3,-5 -12,0 -11,-8l3 -2c-2,-2 -3,-4 -6,-3 0,-3 1,-4 3,-5l5 0c1,2 -1,3 -2,5 1,3 4,2 8,3 -2,11 12,20 5,26l-8 5c4,2 7,7 13,5 -14,14 18,9 5,21 -13,-7 -9,-18 -23,-21l2 -2c-18,0 -29,-21 -47,-21 13,14 30,29 47,39 -7,19 26,27 19,50l5 5c-7,5 -14,-5 -21,-8 -2,-8 -13,-16 -21,-21 -5,12 14,24 8,37 5,5 5,17 16,15 -6,9 -12,-6 -16,6 8,2 11,5 16,10 -7,-1 -12,7 -16,-3 -7,7 2,14 2,21 -1,2 -3,4 -5,3 -11,-10 -11,-37 -10,-42 -1,5 5,7 8,11 3,-3 3,-8 7,-11 -16,-9 -21,-35 -26,-49 -10,-1 -12,-14 -21,-19 4,-7 15,2 16,8 1,3 5,3 8,3 1,2 -1,4 -3,5 2,1 3,3 5,3 7,-6 0,-14 -2,-19 -14,-9 -26,-25 -42,-29 -1,-2 1,-3 3,-5 -10,-16 -34,-6 -42,-23 -7,-2 -12,2 -13,8 -4,-6 -1,-15 2,-21 12,17 28,-2 42,10l13 -8c-19,-2 -8,-31 -26,-26 0,-3 1,-6 -2,-8l-8 0c6,-11 23,3 29,11l0 0zm177 -8l0 0c-5,9 -18,5 -23,5 0,-3 -1,-6 2,-8 3,3 6,7 11,6 4,-4 5,-7 2,-11l8 8zm34 0l0 0c3,5 9,2 13,3 -4,0 -13,8 -15,13 1,1 2,3 5,2l5 -5c1,9 -1,23 -8,31 10,-1 25,25 34,8l-13 -2c8,-8 18,-19 29,-11 4,-12 10,3 16,-5l-8 -8 8 -8c-15,-8 -23,14 -40,8l-13 13c-3,-9 9,-18 16,-26l10 5c3,-5 8,-14 16,-10 21,-7 0,21 21,8l3 2 -8 8c7,4 11,7 18,8 -5,1 -10,6 -8,13 15,-1 24,-11 42,-11 7,-2 19,-7 23,0 -8,3 -22,16 -36,6 -6,8 -19,3 -21,15l13 11c9,-11 25,-13 37,-11l-13 8 2 3 -21 21c13,7 27,-25 37,-3l5 -5 -5 -5 2 -3 3 8c5,-7 15,2 18,-8l-15 -3c44,-10 92,-5 133,16 7,-9 18,5 24,8 -17,-5 -47,3 -63,-10 -37,-2 -77,-12 -102,20 -10,0 -14,14 -24,16 10,10 17,-19 26,-2l16 -8c5,9 -4,16 -16,21 -16,3 -35,11 -44,28l-5 -7c1,8 -12,11 -11,20 9,5 17,-6 24,-13l3 3 -19 21 3 2c13,-10 40,-25 39,-33 4,5 18,-3 13,-8 3,1 4,-2 5,-3l3 8c23,-18 45,-13 68,-29 15,2 37,-3 50,-8l5 8c2,-3 5,-2 8,-2l2 2 -10 8c9,7 22,8 31,8l0 5c6,7 13,-5 18,3 3,2 -2,13 8,10 3,-2 -1,-11 8,-8l5 6 -13 2c30,21 57,42 79,65l-3 3 -8 -8 -2 3c-36,-40 -87,-79 -141,-71 -20,8 -33,16 -53,24 15,2 22,7 34,5 -1,3 2,4 3,5 15,-9 35,-4 50,-13 4,4 10,12 15,5l-2 8c17,9 41,19 60,32 -1,4 3,5 5,7l-3 3 -2 -8 -34 -15c-7,5 -5,16 2,15l-21 11c-3,-3 -3,-8 -7,-11l-13 5 -6 -13c-15,4 -32,15 -47,13 5,7 -6,10 -13,8l-2 3c1,1 3,3 5,3 1,2 -1,3 -3,5 -10,-2 -13,-11 -23,-3l-6 5 8 8c-3,4 -7,4 -10,8 3,5 9,2 13,3 -1,2 1,4 3,5l10 -11c10,12 16,-17 26,0 38,1 68,7 102,21 5,-1 12,3 16,-2 -16,-4 -29,-12 -42,-24 12,-18 26,3 39,8 4,2 2,9 8,8l3 -3c-3,13 27,16 18,32 13,1 11,21 26,23l0 13c-3,1 -6,0 -8,3 1,7 9,4 0,10 24,14 13,43 37,55l-19 3c1,14 24,3 19,21 3,5 12,8 11,15l-6 6c12,9 17,18 11,34l-3 2 11 5c-12,23 11,49 0,71 1,5 9,12 0,16 11,18 -1,34 10,52 16,33 -42,49 -3,79 13,17 4,33 14,52 -3,-1 -4,1 -6,3 -13,-16 -9,-40 -21,-58 -9,-10 -21,-2 -31,0 4,4 10,12 16,5l-6 13c14,3 8,23 6,37 2,9 -15,14 -6,24l32 -21 21 15c0,30 -20,62 -13,94 -10,6 -10,9 -6,19l6 5 -6 5c7,15 -2,30 -2,45 9,9 -9,26 5,36 -4,16 -6,28 -5,45 4,2 2,8 2,13l-5 5c12,5 -2,13 3,21 -18,6 2,19 -8,29 -13,7 -6,13 -13,23 -5,-2 -2,-7 -3,-10l8 -6 -13 -7 3 -3 -9 -10c3,-2 5,-7 9,-6l2 8c10,1 3,-9 8,-13l-2 -3 10 -7c-20,-2 -9,-18 -8,-29l5 -5c-3,-4 -7,-4 -10,-8 -6,15 -8,34 -27,42l11 2c-1,9 -8,9 -13,16 15,2 5,17 2,23 -1,13 13,20 8,34 -3,5 -8,-2 -13,3 2,10 -4,19 5,29 -10,-5 -9,8 -13,15 3,7 -2,12 -7,14 -2,11 -19,29 2,36 -1,8 -4,17 -13,18l-3 -2c-5,9 -14,21 -26,23l-15 -5c0,24 -21,45 -8,68 -21,0 -2,19 -8,27 -41,41 -14,101 -55,143 -13,34 30,48 44,71l37 31 -3 3c4,6 17,-3 8,8 12,-1 12,10 21,13l-2 2c15,-2 6,19 21,16l-3 3 10 2 -7 6 7 7 -2 3 15 13c-10,7 -29,15 -34,31 3,5 9,2 14,3 -4,7 5,7 7,11l-15 15c2,3 6,4 5,8 -1,3 -5,3 -8,3 0,-6 -7,-14 3,-19l-8 -7c-7,5 -8,9 -3,15 1,3 -1,4 -2,5 -3,-3 -8,-5 -8,-10l2 -3c-7,-1 -13,-7 -21,-7 -1,6 4,17 6,26 4,-2 8,-2 10,-6 10,5 11,12 21,16l-13 11 3 2c-9,1 -4,8 -6,13 8,1 16,-2 21,3 -8,7 -25,-5 -31,10 9,18 21,-12 26,8l5 -5c4,2 3,5 3,8 -6,-5 -20,10 -24,-3 -1,1 -2,4 -5,3l-5 -5c-3,3 -7,5 -5,10 8,0 22,9 31,5l-16 8c2,2 3,4 6,3 0,2 -1,4 -3,5 5,-8 -11,-10 -13,-16 -13,8 3,16 5,21 -4,-5 -12,-2 -18,-3 2,6 -5,11 5,16 2,-1 3,-3 5,-2l-5 5c-1,-2 -3,-4 -5,-3l-3 3 5 5 -2 3 8 5c-6,10 -17,23 -32,29l13 2c-4,4 2,7 -5,11 39,2 74,-17 113,-21 14,-5 16,-24 31,-26 2,21 18,7 29,5 19,-1 38,-11 55,3 2,6 -3,11 -8,13 -27,-13 -56,1 -81,7 -25,42 -45,86 -63,131 27,2 43,-30 60,-47 4,-13 15,-26 11,-39 -13,0 -17,10 -26,18 -8,-6 6,-11 5,-18 10,-5 16,-17 29,-13 21,4 12,29 10,42 -17,24 -37,54 -63,68 92,49 211,81 257,191 -2,2 -6,4 -6,8 9,9 -5,22 -7,34 -93,106 -243,95 -375,120 -173,30 -355,23 -535,39 -39,-5 -92,0 -126,-16 -4,-4 -12,-10 -5,-15 40,-28 92,-12 136,-24 22,3 48,-6 65,8l-10 10c-41,4 -86,-8 -123,11 74,16 153,3 230,5 107,-7 214,-6 321,-21 128,-30 273,-19 380,-99 8,-25 21,-58 5,-84 -9,-28 -37,-61 -68,-70 -56,-33 -107,-87 -175,-82 -11,18 -11,41 -29,53l-19 -3c-7,-18 38,-41 3,-55 0,-10 7,-22 18,-21 22,5 13,-23 27,-29 -3,-21 25,-32 18,-52 -20,19 -45,27 -58,52l-96 94c-7,1 -13,-5 -19,-7 12,-9 22,-23 21,-40l-2 -2c-3,18 -25,21 -27,39 -12,-1 -8,12 -7,16 2,-1 4,1 5,3 -9,3 -23,15 -34,10 -7,2 -13,13 -21,5l-11 -18c-15,12 -29,28 -49,29 -15,-7 -5,-26 -8,-35 -27,21 -47,68 -81,48 3,-10 -5,-14 -8,-21l5 -5 3 2c13,-48 56,-84 84,-126 -2,-3 -5,-2 -8,-2l-84 89c1,4 2,8 5,10 -4,8 -7,-3 -13,-2 -33,27 -50,64 -91,84 -6,-1 -13,1 -16,-6 -1,-6 2,-14 -2,-18 -21,20 -47,39 -74,50l0 5c-33,-2 -3,-30 -5,-44 2,-4 8,-8 3,-11 -7,6 -22,12 -26,24 -1,12 10,-4 7,10l-5 0c0,-9 -5,1 -8,-5 -21,4 -35,27 -54,36 -17,8 -38,29 -55,13 13,-57 51,-106 89,-151l-16 0c-46,34 -79,77 -123,115 3,9 -7,6 -11,10 -25,34 -74,46 -89,89 -8,6 -15,23 -23,19 11,-24 52,-44 39,-71 16,-75 84,-131 123,-194 -44,-24 -32,45 -58,63 -69,90 -151,165 -245,212 -6,-1 -10,0 -14,5 -10,-10 -32,0 -33,-21 -12,-23 0,-52 0,-73 -28,21 -38,55 -48,86 -9,5 -2,20 -15,19 -5,-53 34,-87 60,-126 -2,-3 -5,-2 -8,-2 7,-10 7,-21 18,-24l-5 5 5 6c54,-48 91,-117 157,-150 7,-2 14,-13 21,-5 -25,16 -54,38 -76,63l3 3c45,-32 95,-50 141,-79l-3 0 0 -5 3 0 0 2c24,7 57,-26 76,8 15,-7 33,-17 45,-21 10,-2 13,-4 23,-8 3,-5 4,-11 11,-15 1,1 3,3 2,5l-5 5c8,3 18,7 21,16 25,4 51,-10 68,-29 -3,-3 -7,-5 -5,-10l7 7c11,-7 1,-34 19,-28 8,-5 5,-26 18,-16l13 -11c-3,-3 -8,-3 -10,-7l-5 5 -3 -3c2,-2 6,-4 5,-8 -4,-4 -10,-1 -16,-2 0,-11 16,1 16,-11 5,-4 15,0 16,-10 -7,-9 -13,12 -18,-3 12,-1 14,-3 28,-10 3,-15 4,-23 21,-34 -3,-3 1,-11 -8,-8l-2 -3c8,-17 15,13 23,-5 -5,-6 -11,3 -13,-8l8 -10 -21 -3 -18 16c-28,6 -15,-49 -39,-21l10 11c1,-2 3,-4 5,-3 -5,11 -16,0 -23,10 -6,-2 -11,-7 -19,-5 -1,1 -3,3 -2,5 -8,-13 -20,0 -26,-7 -12,3 -37,15 -50,0 -8,7 -16,-2 -23,-3 -3,9 0,20 -16,16l-5 -6 -19 19c5,-13 -20,-28 -5,-42 -21,-25 39,-24 5,-47l3 -3 13 18 16 -7c-3,-3 -7,-6 -6,-11 7,13 16,7 24,8l-3 -8c3,-1 4,2 6,3 -1,17 -28,10 -37,15 3,5 2,10 8,14l10 -3 -2 -8 13 16 5 -5 3 2 -6 5 3 3 -10 10 5 6 5 -6 5 8c-10,-30 24,-4 34,-23 -2,-2 -4,-6 -8,-5 3,-3 15,-7 19,-6 1,4 -4,6 -6,8 8,12 12,-4 21,-2 6,3 7,14 -2,15 15,10 9,-13 18,-18l-3 -3 13 0c4,4 0,10 -5,13 5,2 9,9 13,0 1,-5 -2,-12 3,-15l8 0c-1,2 1,4 2,5l-10 8c4,1 9,9 13,2l8 8c6,-8 -14,-18 0,-26 -5,-9 -21,-3 -11,-16l-15 -7c2,5 22,-11 18,5 9,3 6,-8 10,-11 -4,-6 -15,-15 -5,-21 -12,9 -21,-17 -31,-5 1,2 3,3 2,5l-2 3c1,-16 -17,-7 -24,-13 -14,2 -33,-3 -49,-5 5,-8 23,5 21,-11 17,0 45,3 57,-13 21,9 9,-23 24,-15 1,-3 6,-4 5,-8 5,-2 7,2 10,5 2,-9 24,-19 6,-26 -21,-18 -14,22 -35,5 -8,-13 -20,2 -28,-3 -2,2 -4,3 -3,6 -4,-4 -12,-3 -13,-11l11 5c6,-8 -5,-9 -11,-18 -22,10 -35,-19 -52,-5 -21,4 -35,-1 -39,23l2 3 -10 10 2 3c-3,6 -14,-2 -13,8 -20,6 2,-17 -18,-11 2,-7 6,-15 13,-20 10,4 14,-7 16,-16 -4,-3 -11,-5 -11,-11l3 -2 8 8 8 -8c2,2 4,6 7,5l6 -5c10,9 19,5 31,2l8 -7 -5 -6c16,6 9,-21 26,-23 -2,-6 3,-17 9,-29 9,-21 21,-46 4,-63 15,-11 1,-29 -1,-51 -1,-19 -4,-38 -17,-45 1,-6 8,-9 0,-13 13,-49 -26,-108 -37,-155 3,0 6,0 8,3 -6,-20 12,-37 -5,-55 7,-5 -4,-8 -3,-13 -19,-12 -41,-32 -50,-50l3 -3c3,3 5,7 10,6 9,-17 12,-19 24,-34 -12,-5 2,-13 3,-19 1,2 2,4 5,3l0 -11c11,5 5,17 10,24 12,7 9,19 13,29l-2 2 10 13c30,-21 -1,-54 26,-75 -9,-5 -8,-12 -15,-19 5,-2 0,-11 7,-10l3 3c3,-2 2,-5 3,-8l8 0c-17,14 6,24 15,31 17,-1 21,-16 18,-21 15,8 -1,-8 8,-13 3,2 4,6 8,5 -1,-18 21,-8 34,-18l5 8c3,-2 3,-5 3,-8 11,3 20,-4 23,-13l3 3c12,-5 0,-13 0,-19l-5 -5c20,-10 -6,-23 2,-34 3,4 5,10 11,10l3 -2c-17,-8 1,-30 -21,-21 -3,0 -7,0 -8,-3l13 -10c-3,-4 -8,-6 -8,-11 7,-3 13,13 18,0 3,-18 -18,2 -10,-15l5 5 3 -10 13 10 2 -3c-4,-3 -6,-7 -5,-13l3 -2 5 8 13 -8c0,-8 -5,-14 -10,-19 -4,0 -8,6 -11,0 -1,-4 4,-5 5,-7 -6,-9 -12,6 -18,-3 -3,3 1,10 5,13 -11,-3 -11,-16 -23,-13 0,8 7,-21 -11,-11 -3,4 -7,6 -5,11l8 8 -3 2c-9,-16 -25,1 -36,3 -10,-11 -16,10 -24,3l8 -6c-3,-3 -11,-3 -8,-10l3 -3c-3,-1 -5,-6 -8,-5l-3 3 -5 -8 -2 2 0 -13c7,-4 9,13 15,3 3,9 9,22 21,13l5 -5c-7,-6 -9,-12 -2,-18 2,-2 4,-7 8,-6l10 11c3,-2 2,-5 3,-8l-8 -8 2 -2c5,2 7,10 14,7l5 -5c1,2 -2,4 -3,5 13,1 19,1 26,-13l-2 -2c13,-1 4,-22 21,-21l-6 -5c-1,3 -4,2 -8,2l-2 -2c6,-6 18,-14 23,0 3,0 4,-2 6,-3 4,-10 -8,-12 -11,-11 3,-3 7,-5 5,-10l-2 -3 -11 13 -2 -2 5 -5c-12,2 -10,-16 -21,-13l3 -3c-11,-1 -4,-13 -13,-16 3,-1 2,-5 2,-8 -1,3 1,4 3,6l8 -11c-3,-3 -7,-5 -6,-10l11 10 -11 13c5,8 15,10 21,6 19,-18 -12,-19 -13,-34 10,9 12,-6 19,-8l7 10 -15 3c1,3 5,2 8,2 -7,5 0,9 0,13 3,0 6,1 7,-2 -2,-11 15,-12 19,-18l-6 5c7,2 13,17 21,8 0,-5 -5,-8 -7,-11 4,-2 1,-7 2,-10 -7,-6 -13,5 -21,5 1,-8 9,-8 13,-11 -1,-3 -5,-2 -8,-2 2,-13 -9,-15 -7,-18 4,2 6,10 13,7l5 -5 -8 -8 3 -2 8 10c2,-2 3,-6 7,-5 0,9 5,17 6,23 20,-11 13,21 28,24l-2 3c-3,-3 -6,-7 -11,-6l-2 3 10 10 -8 6c4,3 4,7 8,10l8 -5c-3,7 -3,9 -3,18l13 11c6,-10 10,-5 19,-6 3,2 2,5 2,8 -3,4 -14,2 -10,11 11,8 18,2 29,5 -3,5 -12,0 -11,8 3,5 8,5 13,5l5 -8 8 8 8 -10c-6,-6 -11,-11 -2,-19 -3,-5 -9,-2 -14,-2 -3,-12 18,-20 3,-29l3 -3 -11 -10c1,18 -15,3 -21,8 8,0 15,-10 8,-16 5,-4 11,6 18,3 -4,-8 8,-15 8,-24 -12,-6 0,-16 0,-23 -3,-4 -8,-4 -10,-8l-8 10 -5 -5c-5,-24 -5,-53 -8,-74l5 6c-5,-10 7,-16 16,-19l10 19 3 -3c-2,8 7,11 13,18 2,-3 5,-2 8,-2l-8 8 13 0c-8,4 -2,8 0,13l13 0 -3 8c4,3 11,-4 16,-5 0,5 1,12 -5,15l10 0c-11,18 21,9 16,26 -2,-4 -7,-2 -10,-2 -4,5 5,14 10,10 -3,2 -3,5 -3,8 8,1 18,24 29,8 -6,-3 -7,-12 -2,-16 -12,-8 -9,-24 -24,-29 9,-4 2,-8 3,-13 -15,1 -9,-16 -21,-21l-3 3 5 -5c-7,-2 -14,-8 -23,-6l10 -5c1,-3 -6,-7 0,-10 13,-4 13,11 16,18l3 -3c9,4 24,27 36,22 5,10 10,0 16,0 3,3 -3,9 5,13 2,-3 6,-5 5,-8l-2 -3 10 -8 -2 -2 7 -6c-22,-1 -4,-25 -28,-23l13 -6c4,-7 -10,-11 -16,-13l-3 0c0,-1 9,0 6,-8l-3 -2c3,-2 4,-6 8,-5l8 7c-6,4 -6,9 -3,13 2,4 5,3 8,3l5 -5 5 5c5,-2 2,-7 3,-10 -7,-2 -11,-6 -13,-13 1,-5 -4,-6 -8,-6 -16,5 0,-15 -16,-13 0,-7 8,-11 3,-18l-8 -3c2,-9 18,-16 13,-26 4,1 3,8 5,11 -4,7 -3,15 0,26l3 2 5 -5 -2 -2 2 -3c6,2 -1,9 -2,13l26 29c5,-3 2,-9 3,-13l-8 -6 5 -5c4,3 6,11 13,8l3 -3c4,-13 -20,-8 -27,-20 15,-17 28,12 45,10 3,3 -1,11 8,8l2 -3c10,10 22,15 37,13l3 -2c-7,-12 -21,-9 -29,-16l18 -3c-1,-3 4,-5 5,-7 1,5 -2,12 3,15 13,0 -4,-8 5,-13l16 13c3,-1 2,-5 2,-8 3,1 4,0 6,-2 -20,-9 -35,-25 -58,-26 7,-5 32,-2 42,-3 4,5 12,2 18,3l3 -3c-13,-10 -32,-6 -45,-18l0 8c0,-9 -3,-9 -10,-16 24,-7 52,10 71,23 -3,2 -4,7 -8,6l-6 -6 -5 6c17,3 29,25 47,18 7,11 18,10 26,16l6 -6c-15,-1 -16,-18 -32,-18 2,-2 7,-4 6,-8 -3,-5 -8,4 -8,-5l2 -3c-12,-1 -23,-17 -34,-15l-13 -16c2,-1 4,-3 3,-5 -25,-8 -54,-30 -81,-11 -1,-13 12,-16 0,-26 12,-1 38,5 47,-5 10,10 27,2 36,13l-10 8c7,11 20,11 31,10l3 -2 -18 -11c5,-8 14,2 21,-2 14,13 28,22 47,31 5,6 6,16 15,16l3 -3c-10,-22 -31,-19 -42,-42 2,-1 4,-2 3,-5 -16,6 -34,-14 -55,-13 -17,-29 -65,4 -73,-29l-6 -2c20,-14 48,16 66,13 2,1 4,-1 5,-3 -11,-16 -41,-19 -44,-39l2 -3 8 8c7,-13 17,3 24,-2l2 2 -10 8c3,5 8,2 13,3 3,-3 -1,-11 8,-8 0,10 10,11 15,15 14,3 31,11 45,19 -17,15 13,18 15,28 7,6 19,14 24,0 -3,-3 -1,-10 -8,-10 -5,12 -12,-2 -18,-3l-8 -10 5 -5c-14,-9 -20,-20 -29,-32 -5,-7 -10,2 -15,3 -9,-22 -24,-8 -37,-24 -16,7 -51,-14 -55,8 -6,2 -14,6 -15,13l-19 -2c7,0 20,-13 32,-16 -18,-11 -30,14 -47,5 -5,7 -17,15 -27,8 -3,-9 9,-14 16,-16 -5,-10 -15,4 -23,3l-3 3 -5 -8c-4,3 -4,8 -8,10 7,-11 -17,-3 -18,-13 19,2 41,-8 60,-15 -19,-10 -40,19 -60,5 1,-3 6,-4 5,-8l-3 -3 5 -5c-1,-3 -4,-3 -7,-3 7,-8 26,-13 28,-28 13,-1 26,-9 34,-13l-2 -3 8 -8c-6,-8 -17,1 -24,5 -5,3 -23,6 -29,16l-5 -5c-3,6 -9,5 -16,5 -3,-6 6,-9 8,-13 -2,-5 -8,-2 -13,-3 -2,-7 12,-11 3,-18 -16,12 -35,21 -47,37l-11 -3c10,-16 26,-24 40,-36 -7,-9 -10,6 -16,5 -1,-4 2,-9 -3,-11 -4,9 -14,16 -21,24l-2 -11c-5,1 -11,10 -16,3 4,-6 11,-7 16,-10l5 5c3,-2 3,-5 3,-8 -3,-6 -14,2 -13,-8l7 -8 -5 -5c-1,13 -15,4 -21,10 -8,-6 6,-9 5,-15 3,0 7,0 8,-3 -18,-1 -6,-20 -10,-29l-5 6c-6,-3 8,-17 13,-13 1,-3 -2,-4 -3,-6 -12,-6 -7,12 -18,8 -9,-5 6,-15 -8,-13 -9,-24 25,-41 23,-63 -13,10 -20,29 -34,34 11,-6 -7,-17 -5,-28l-8 -8c-3,3 -3,7 -7,10 2,-15 -9,-27 2,-42l-2 -2c-5,8 -13,14 -14,23 -13,-18 10,-21 6,-36 -6,2 -9,11 -19,8l16 -13 -16 -8c12,-4 28,-4 40,0l-11 5 0 0zm-669 3l0 0c-3,1 -4,6 -8,5l-3 -3c3,-3 8,-9 11,-2zm321 13l0 0 -21 0 3 -3 -8 -8 5 -5c0,13 14,10 21,16zm481 0l0 0c-5,9 -17,3 -26,5 7,-6 18,-12 26,-5zm-638 7l0 0c3,-4 9,-1 13,-2 -10,-5 -23,12 -26,-5 7,-2 12,2 13,7zm714 3l0 0c-7,12 -17,0 -26,0l-8 -10c13,0 23,8 34,10l0 0zm-766 -5l0 0 3 -3 8 5 -11 -2zm170 0l0 0c-4,7 -6,-8 -13,-3l13 3zm63 5l0 0c8,8 21,6 31,10 -3,0 -5,4 -7,6 -6,-7 -16,-9 -22,-8l-5 -5c-3,1 -2,4 -3,7l-5 -5 -5 5c13,18 31,-3 42,19l13 -3c-4,-1 -5,4 -8,5 16,0 7,22 19,16 10,7 14,18 21,29 9,13 24,35 26,57 -4,-3 -4,-14 -11,-15 -4,4 -2,12 -2,18 -2,-1 -3,-4 -5,-3 -4,3 -7,6 -6,11 9,-15 -27,-29 -18,-52 -13,-18 -17,-41 -37,-53 -3,2 -2,5 -2,8l-35 -39c3,-11 18,-1 21,-13 1,2 -1,3 -2,5l0 0zm-53 26l0 0c18,31 17,72 42,97 11,-12 3,-20 -2,-31l-11 -37c10,10 6,26 21,34 -2,16 14,25 11,42 -3,1 -4,-2 -6,-3 -14,8 5,15 3,24l6 5c-14,6 3,23 0,36l-11 -7 5 -6c-7,-10 -18,2 -26,-10 -16,-26 -25,-58 -47,-78 -9,3 -2,7 0,13 6,17 19,32 26,49 -1,2 -3,4 -5,3 -7,-18 -24,-46 -42,-63 2,6 -5,22 8,26l-3 3c-27,-21 -47,-35 -57,-65l-6 0c0,-4 1,-7 -2,-8 5,1 7,-3 10,-6l-13 -13 -3 3c-6,-7 -8,-18 -18,-21l0 -5c12,2 26,15 37,2 6,-2 33,19 42,-7l-11 -6c20,4 38,14 52,29l0 0zm24 3l0 0c-9,0 -19,-16 -26,-21 5,-3 -1,-8 -3,-11 14,7 13,26 29,32l0 0zm583 -16l0 0c-2,5 -7,2 -10,3l5 -11c2,3 6,4 5,8zm-1142 0l0 0c-17,8 -33,16 -50,24l0 -3c13,-13 32,-13 47,-24l3 3zm193 3l0 0c-8,15 -33,13 -50,21l-7 7 7 6c-15,11 -41,19 -52,36 -18,-15 -7,19 -26,8 -7,9 -14,14 -24,21 -22,7 -35,35 -60,37 -10,26 -45,35 -60,62 12,4 16,-14 29,-13 -20,17 -24,41 -50,53 2,7 -4,10 -8,10l-41 50c-9,-6 6,-12 -6,-16l3 -3 5 6c2,-3 8,-8 3,-11 -5,1 14,-6 2,-13l3 -3c8,1 -6,9 5,8l3 -13 3 3c6,-9 12,-30 28,-34l3 -8c1,4 5,3 8,3l2 -3 -7 -8c19,-13 22,-35 39,-47l-3 -2c13,-4 16,-21 29,-29 -3,-18 24,-7 23,-26 6,-1 10,-10 16,-11 -3,-3 -8,-3 -10,-8l10 -7c-2,-2 -3,-3 -3,-6l3 -2c1,1 4,2 3,5l-6 5c6,7 11,-2 16,-2l-5 -6c2,-2 6,-4 5,-8 22,-6 56,-36 84,-54 27,-7 57,-21 86,-8l0 0zm536 5l0 0c-5,7 -10,-2 -15,-3l-3 -8c7,1 13,5 18,11zm-125 18l0 0c1,-6 -15,-9 -5,-15 1,5 8,11 5,15zm-299 -2l0 0 -5 0c1,-4 -3,-6 -5,-8l-11 0c4,-4 12,-4 16,0 -1,3 4,5 5,8zm27 -6l0 0 7 8 -7 -8zm138 11l0 0 -5 -8 5 0 0 8zm-314 -3l0 0c-2,2 -4,6 -7,5l0 -5 7 0zm440 39l0 0c-11,-5 -22,-19 -21,-34 11,8 17,22 21,34zm664 3l0 0 -3 3 -31 -26c17,-10 22,18 34,23zm-1192 -13l0 0c-3,3 -6,7 -11,5l0 -5 11 0zm483 37l0 0c-15,-7 -34,-17 -50,-32l6 -5c10,19 29,24 44,37zm596 -24l0 0 -2 3c-5,-12 -12,0 -18,0 -9,0 -24,-2 -35,2 14,-8 39,-21 55,-5zm21 3l0 0c-3,7 -10,-2 -15,-3 4,-10 11,-2 15,3zm-209 -6l0 0c-4,0 -5,4 -8,6 0,4 1,-10 8,-6zm-549 19l0 0 -10 5 0 -8c3,1 8,-2 10,3zm500 23l0 0 -3 3c-9,-7 -19,-18 -16,-29 5,14 12,15 19,26l0 0zm-76 -10l0 0c-2,-1 -7,-8 -3,-11 2,3 8,8 3,11zm180 10l0 0 16 -21 -13 19 -3 2zm-1025 -13l0 0 0 -5 11 5 -11 0zm1307 8l0 0c-9,4 -14,-7 -18,-13 6,4 21,1 18,13zm-556 11l0 0c-9,-4 -8,-16 -8,-21 2,7 17,12 8,21zm426 -19l0 0c-6,10 -23,12 -34,21 -13,1 -24,4 -34,11l2 2c-4,-2 -7,3 -10,5 1,-2 -1,-4 -3,-5 9,4 14,-5 16,-10 10,-4 24,-3 29,-13 -16,-4 -32,8 -50,8 28,-7 56,-21 84,-19zm-1010 5l0 0 -10 -5 5 0 5 5zm511 -5l0 0c0,4 -4,5 -6,8l-2 0c-1,-4 4,-8 8,-8zm-82 16l0 0c4,10 -17,5 -26,-3l0 -5c13,-1 13,19 26,8zm251 0l0 0 8 5c-5,8 -8,-3 -13,-2l3 -11 5 5 -3 3zm139 8l0 0 10 -16 -2 8 -8 8zm65 -8l0 0c-3,3 -8,3 -10,8l-3 -3c4,-5 10,-9 13,-5zm-520 26l0 0 -13 8c14,6 28,20 36,36 5,0 6,5 11,3l2 -3c-3,-4 -9,-7 -10,-13l23 24c-4,-2 -7,3 -10,5 6,14 21,16 21,31l-18 -18c1,-1 3,-2 2,-5l-5 -5 -5 5c1,-5 -2,-7 -6,-10 -20,6 -15,-24 -31,-29l-3 2c-6,-3 -7,-24 -18,-34l-10 -23c13,5 33,9 34,26l0 0zm-445 -10l0 0 -7 7 0 -13c3,-1 5,4 7,6zm1240 -6l0 0 5 8 -5 -8zm-879 32l0 0 -8 -11 3 -2 8 10 -3 3zm236 13l0 0c-4,0 -5,-5 -5,-8l5 5c2,-3 6,-6 5,-10l-5 -6c-2,2 -3,4 -5,3 -3,-9 3,-6 7,-10 0,6 14,23 -2,26zm-510 -5l0 0 0 2c-11,2 -21,-15 -29,-2l3 -3c-11,-13 -25,14 -37,-3 16,3 34,-18 44,0 6,4 12,4 19,6l0 0zm1022 -8l0 0 10 0 -10 0zm-722 13l0 0c-5,2 -7,-3 -10,-5l5 -6c4,3 4,7 5,11zm184 39l0 0 5 -5 -3 -3c-4,3 12,21 3,29l8 8c-2,-1 -14,12 -24,10 11,5 11,-9 18,-13 5,-8 -7,-15 -15,-16 1,-2 6,-4 5,-7 -2,-3 -5,-3 -8,-3 5,-11 -12,-12 -13,-24l3 -2c-12,-8 -8,-15 -16,-24 17,15 20,37 37,50l0 0zm-571 -39l0 0 16 -8c1,16 -9,0 -16,8zm157 -3l0 0 -8 -5 8 3 0 2zm542 5l0 0 0 -10 10 10 -10 0zm-790 -5l0 0c-3,2 -4,6 -8,5l-3 -2c4,-2 8,-8 11,-3zm1192 0l0 0c-8,-1 -16,1 -21,8 -2,-3 -8,-7 -2,-10 7,3 15,2 23,2zm-483 50l0 0 -6 5 6 5 -3 3 -5 -5 2 -3c-3,-7 -10,-5 -15,-5l-3 2c7,6 9,10 8,16l3 -3 -16 -7c19,-14 15,-37 16,-53 4,12 0,36 13,45zm28 -45l0 0 3 0 0 13 -3 0 0 -13zm11 8l0 0 5 -8 -3 6 -2 2zm397 -5l0 0c-1,3 1,4 3,5l-8 0 0 -5 5 0zm-363 21l0 0c-7,-3 -7,-12 -3,-16l5 0 -2 16zm23 -11l0 0 -5 6 0 -8c2,-1 4,1 5,2zm-599 6l0 0 -23 -6 21 3 2 3zm1112 23l0 0c-3,9 5,5 7,8l-5 5c-12,-11 -30,-12 -42,-26 2,-2 7,-4 6,-8l-3 -2 -8 8 -8 -8c10,-10 19,-1 29,2 7,10 12,18 24,21zm-66 -10l0 0 -10 10c-3,-2 -4,-6 -8,-5l-3 3c-15,-16 -43,-3 -62,-11 24,-19 61,2 83,3l0 0zm-1100 -3l0 0 -19 -2 16 0 3 2zm904 3l0 0c-4,0 -8,2 -13,8l-2 -3c5,-1 11,-9 15,-5zm-839 8l0 0 -3 2 0 -10c3,1 3,5 3,8zm567 0l0 0 -2 2 0 -10c3,1 2,5 2,8zm-159 18l0 0c-3,1 -11,-5 -10,-13l10 13zm-633 18l0 0c-4,-9 7,-8 8,-13 15,-1 33,-10 52,-10 -12,7 -40,15 -60,23zm717 -5l0 0c-11,-5 -15,13 -16,3l13 -8c-1,2 1,4 3,5zm-171 13l0 0 -2 3c4,-9 -12,-11 -16,-13 15,-4 11,5 18,10zm37 3l0 0 -5 -6 2 -2 -5 -5c10,-1 2,10 8,13zm-614 -8l0 0c-3,3 -7,4 -11,5l8 -8 3 3zm656 5l0 0 3 -8 2 8 -5 0zm29 3l0 0 8 7 5 -5 -3 -2 6 -6c1,0 -4,18 7,13 -4,4 -12,-7 -18,0 8,8 -16,16 0,24l-5 0c-1,-15 -3,-6 -3,-18l-13 5c2,-1 3,-3 3,-5 -7,-2 1,-16 2,-24l8 13 3 -2zm-617 -8l0 0c-18,10 -27,22 -47,18 0,-3 -1,-6 2,-8 3,10 12,1 19,0 6,-3 14,-14 26,-10l0 0zm465 15l0 0c-4,-3 -4,-12 -3,-15 1,5 10,10 3,15zm246 -2l0 0 -8 -3 3 -2 -5 -6c10,-9 7,6 10,11zm421 -8l0 0c-5,11 -13,-1 -21,3l0 -6 21 3zm-1224 8l0 0c4,8 -6,12 -8,16 -6,-6 0,-18 8,-16zm819 5l0 0 5 5 -3 3c2,-4 -7,-9 -2,-13l7 0 -7 5zm-733 5l0 0c-12,8 -26,19 -41,11 4,-2 1,-9 7,-8 6,14 11,-5 19,-3l15 0 0 0zm-99 8l0 0c1,3 -1,4 -2,5 -4,0 -7,1 -8,-2l5 -5c1,1 3,3 5,2zm834 3l0 0c-2,3 -11,0 -10,-5 5,-2 7,2 10,5zm390 8l0 0c-3,0 -6,-1 -8,2 -3,7 5,9 8,13l-13 11c12,2 29,-5 41,-3 -6,6 -25,8 -39,11 -1,-4 -1,-9 -8,-11l-26 18c-1,-1 -3,-2 -2,-5l5 -5c-1,-1 -4,-3 -3,-5 14,-6 22,-8 32,-21l-6 -5c3,-3 11,-4 8,-11l11 11 0 0zm-1148 2l0 0 5 -5c5,6 -2,14 -8,18 -3,-16 -33,0 -23,-18 -4,15 15,7 26,5zm-65 3l0 0c-4,7 -20,6 -19,18 2,4 5,3 8,3l-10 15 -6 -7 -13 15 -2 -2c15,-14 21,-36 39,-45l3 3 0 0zm1166 2l0 0c-3,10 -12,-7 -16,6 -3,-3 -9,-8 -3,-11 6,7 15,-7 19,5zm-447 11l0 0 -3 2c-3,-2 -9,-7 -2,-10 1,3 6,4 5,8zm-680 0l0 0 -5 5 5 5 8 -8c7,-1 -3,12 -8,16 -2,8 9,12 13,18l10 -7 -5 5c4,8 8,2 13,0l5 -5 -2 -3c4,-13 14,0 23,-8 -18,12 -36,27 -49,42l2 3 -13 0c9,-10 -8,-21 -2,-32l-6 -5c11,-7 2,-23 8,-31 1,1 4,3 3,5l0 0zm21 10l0 0 13 -10 -5 10 -8 0zm674 -10l0 0 3 0 0 10 -3 0 0 -10zm698 10l0 0c-2,-3 -7,-7 -2,-10 2,3 7,8 2,10zm-1469 3l0 0c-3,3 -6,7 -10,5l7 -8 3 3zm173 8l0 0 13 -5 -8 5 -5 0zm546 2l0 0c-1,4 2,9 -2,11 -5,-3 -8,-10 -3,-13 2,-1 3,1 5,2zm523 0l0 0c-8,11 -23,0 -26,16 -4,-9 -19,-3 -26,-10l0 -3c3,-3 10,1 13,5 14,0 26,-12 39,-8l0 0zm-1255 6l0 0c1,4 -4,5 -5,7l-3 0c1,-1 6,-6 8,-7zm1297 10l0 0 13 0 -13 0zm-1200 13l0 0 -3 -2 8 -8 2 2 -7 8zm1176 -8l0 0c-19,0 -46,24 -57,0 16,1 35,-2 49,3l6 -5 2 2zm89 0l0 0 -18 -2 15 0 3 2zm-81 11l0 0c-2,3 -5,2 -8,2l-2 -2c3,-3 10,-4 7,-11 5,2 2,7 3,11zm146 21l0 0 -31 -19c15,0 24,12 31,19zm-1375 18l0 0c0,3 2,16 -8,16l8 8 -15 20 2 3c-17,6 -7,21 -21,31 2,2 3,3 3,6l-3 2c-3,-11 -7,-36 8,-47l-3 -2 14 -8c-2,-2 -4,-4 -6,-3 9,-10 20,-16 21,-26zm1344 21l0 0 3 -5 7 5 -10 0zm-165 8l0 0c-2,-1 -6,-8 -2,-11 2,1 7,9 2,11zm71 2l0 0c-2,0 -4,2 -5,3 -1,4 3,5 5,8l-3 2 -8 -7c-1,3 -4,2 -7,2 -10,-3 -3,-12 -3,-18l21 10zm-1326 63l0 0 6 5 -11 11c-1,-20 8,-44 24,-58 -4,15 -14,28 -19,42zm1119 -18l0 0c8,8 -5,-6 -7,2l2 -7 5 5zm272 8l0 0 -2 2 5 5c6,0 -2,5 -5,3l-6 -5 8 -8 -10 -8c4,3 13,4 10,11zm-109 -8l0 0 15 15 -15 -15zm232 2l0 0 3 19 -3 -19zm-154 3l0 0 13 5 -13 -5zm-188 8l0 0c-4,-1 -12,2 -16,8l3 2 -8 6c-1,-4 3,-6 5,-8l-3 -3c5,-6 13,-11 19,-5zm177 10l0 0c14,7 34,-2 45,8 -2,5 -9,2 -8,8l8 8c-6,1 -15,-3 -18,5 -6,-15 -27,-21 -34,-26 -2,-10 -12,-7 -13,-13 6,3 16,2 20,10zm-1322 27l0 0c12,2 -4,12 7,18 -10,7 -1,12 -7,21 -17,-13 10,-27 -3,-39l3 -16 7 8 -7 8 0 0zm1186 -8l0 0 6 -8 2 2 -8 6zm-1022 2l0 0c-3,-3 -11,6 -15,11l0 11c-12,5 -10,-9 -14,-14 8,6 20,-21 29,-8l0 0zm845 0l0 0c-1,4 2,9 -3,11l0 -11 3 0zm-79 3l0 0 3 0 0 8 -3 0 0 -8zm-962 16l0 0 -2 3 0 -14c4,0 1,7 2,11zm1247 -5l0 0 -5 5c-6,-4 0,-8 3,-11 1,2 3,3 2,6zm139 2l0 0c17,8 37,16 52,24 -17,-9 -32,-10 -50,-11l0 8c-7,-2 -7,-5 -13,-10l3 -3 -10 -8c7,-10 11,9 18,0zm-1266 13l0 0 6 -13 0 13 -6 0zm889 -7l0 0c-1,1 -6,7 -10,7 2,-1 6,-7 10,-7zm264 2l0 0c3,-2 -5,5 -10,3 5,2 7,-10 10,-3zm-298 5l0 0c8,-4 -3,7 -7,3l2 -8 5 5zm142 -2l0 0 5 13 -5 -13zm125 5l0 0c8,7 -6,-6 -8,3l-8 0c7,1 11,-17 16,-3zm-253 8l0 0 -3 2 -3 -10c-1,4 4,5 6,8zm305 16l0 0c1,-12 -21,-8 -13,-21 9,0 6,15 13,21zm-1176 -11l0 0c-3,-1 -4,1 -5,3l2 -11 3 8zm-123 3l0 0 3 2 -3 3 -3 -3c7,-3 1,-7 6,-10l2 2 -5 6zm1422 2l0 0c-8,-6 -19,-4 -21,6 -11,-18 14,-12 21,-6zm-1396 3l0 0 -3 3 0 -11c4,1 3,5 3,8zm1124 5l0 0 6 5c-3,3 -6,7 -11,6l-2 -3c4,1 7,-3 10,-5l-5 -8 5 3 -3 2zm-1119 13l0 0 6 5c-2,2 -4,3 -6,3 -2,-8 -1,-12 3,-21 5,1 -1,9 -3,13zm1078 21l0 0 -11 -13c-6,8 11,25 5,26l-18 -21c10,-2 -2,-12 5,-8l5 6c14,-8 -3,-15 -2,-24 8,10 18,23 16,34l0 0zm60 -23l0 0c-2,2 -6,4 -6,7 4,5 11,2 16,3 -4,3 -2,9 -5,13l16 3c4,7 -9,13 -6,23 9,1 13,16 26,11 2,-3 7,-5 6,-8l-16 -5 29 8c-10,3 -27,7 -42,2 -1,-8 -9,-9 -16,-8 -1,2 -3,3 -2,6l-11 -6c11,9 22,-5 26,-13 -1,-3 -4,-2 -8,-2l3 -3c-9,-14 -19,13 -31,0l5 -5 8 8c4,-7 14,-10 13,-19 -3,-3 -6,-7 -11,-5l-5 5 -8 -8c7,0 11,-9 19,-7l0 0zm-1164 10l0 0c-7,7 4,-3 -5,-5l3 -3 2 8zm126 18l0 0c1,3 -5,-14 5,-15l-3 -3 8 -5 -10 23zm839 -18l0 0c-8,0 -16,10 -23,3 2,-1 16,2 20,-8 2,1 4,2 3,5zm392 34l0 0c-12,-8 -19,-22 -26,-34l26 34zm60 -23l0 0 -10 -8c3,2 11,1 10,8zm-1396 13l0 0 -3 0 11 -11 -3 -2c0,2 6,11 -5,13zm931 -6l0 0 -5 6c1,1 3,2 2,5l-7 0c10,-5 -3,-8 5,-13 2,-1 3,1 5,2zm272 3l0 0 2 -3 3 0 0 8 -3 0c1,-3 -2,-6 -5,-5l-10 0c-1,-9 11,-6 13,0zm191 0l0 0 -11 -5 5 0 6 5zm-434 10l0 0c-2,4 -2,8 -6,11l0 -11 6 0zm15 6l0 0 11 2 -11 -2zm21 8l0 0 -2 -8 8 0 -6 8zm225 2l0 0 5 -8 0 8 -5 0zm-1072 -5l0 0 -5 8 5 -8zm978 13l0 0 -5 -13 5 5 0 8zm-1161 -3l0 0 2 -2 6 10 -8 -8zm1182 8l0 0c-2,-3 -5,-2 -8,-2 -10,6 0,8 -10,7 -5,-17 17,2 20,-15l-2 10zm196 13l0 0 -16 -18c7,3 16,10 16,18zm-144 8l0 0c-1,-1 1,-12 8,-16l0 -2c-4,-5 9,2 13,-5 -3,1 -20,10 -21,23zm-8 -16l0 0 0 -5 8 0 -8 5zm105 -2l0 0c-2,5 -7,2 -11,2l3 -5c2,3 5,2 8,3zm39 44l0 0c9,19 15,38 26,55l-8 5c15,20 -14,13 -13,34l-5 -8c-1,2 -3,3 -3,6 0,-3 -11,-13 0,-16l-10 -8c4,-1 5,4 8,5 9,-9 -5,-21 2,-34l-5 -5 -8 13c0,-3 1,-6 -2,-8l-5 0 7 -7 -5 -6 -13 11 -3 -13c4,1 6,-4 8,-5 0,-11 2,-17 -8,-27 -3,10 -14,3 -20,8 3,-11 13,-22 20,-29 24,-5 19,25 37,29l0 0zm-285 -26l0 0c5,9 28,14 21,26 -8,2 -3,-12 -13,-8l-5 6c5,4 8,10 10,15 -30,-4 10,-6 -18,-15l-5 5c1,-1 -2,-17 -11,-21l-13 3c3,-2 2,-6 3,-8 12,3 19,-6 31,-3l0 0zm-31 21l0 0 5 -5 3 2c-4,3 -11,10 -8,19l10 5 -10 0c1,-4 -4,-5 -5,-8l-6 5c0,-5 -16,-7 -7,-13 -3,-2 -5,-6 -8,-5l-6 5 3 3 -10 10c-1,-9 11,-10 5,-18 2,-1 9,-10 13,0l10 -10c3,3 5,10 11,10zm-139 0l0 0c-3,3 -8,3 -10,8l-3 -3c4,-2 8,-13 13,-5zm-816 29l0 0c-4,-2 -7,-12 -2,-16 9,5 -6,11 2,16zm743 -11l0 0c1,14 -8,2 -13,11l-18 0c8,-2 21,-15 31,-11l0 0zm-714 3l0 0c1,3 -3,5 -5,8l0 -8 5 0zm657 36l0 0c-1,14 -23,5 -19,19 -8,-15 -16,5 -26,2l-5 8c-5,-9 14,-18 7,-29 9,-2 17,-6 24,-5l-5 -8c12,1 14,9 24,13l0 0zm564 16l0 0 -16 -5c14,-5 -6,-12 3,-18 4,7 3,18 13,23zm-462 -8l0 0c-2,3 -6,3 -8,3l-5 -5c-11,1 -8,14 -19,13 1,-11 18,-11 21,-21l11 10zm-748 26l0 0c-12,5 -2,13 -8,21 -4,-14 -3,-22 -11,-39 2,6 6,22 19,18l0 0zm75 -2l0 0c-7,-2 2,-9 3,-13 5,1 -1,8 -3,13zm1125 -3l0 0 8 -2 -8 7 -6 -13c0,4 4,6 6,8zm233 5l0 0c-13,7 -7,27 -16,37 0,21 -12,44 0,63l-3 2c-3,-6 -6,-15 -2,-21 -6,-16 -22,14 -19,-10 5,0 8,-5 11,-8 4,-26 14,-44 21,-65 2,0 6,-1 8,2l0 0zm-1496 8l0 0c2,11 -11,26 -3,39l-2 3c-4,-7 -16,-18 -8,-29 7,-3 4,-12 13,-13zm1310 58l0 0c-7,-10 -1,-15 -3,-26 11,-5 -1,-9 3,-16 6,8 2,32 0,42l0 0zm-638 -8l0 0 -11 10 3 3 -8 -8 10 -8c-1,-3 -4,-2 -7,-2l0 -13c9,7 0,14 13,18zm332 -13l0 0c-5,-2 -13,5 -21,2 4,-9 17,1 21,-2zm-16 39l0 0 5 5 6 -5 2 3c-4,6 -14,10 -13,18l-10 -5 -3 10c1,-7 -12,-12 -5,-18 -2,5 2,7 5,10 4,-8 15,-4 16,-13l-8 -2c7,-7 8,-20 8,-26l10 -8c4,16 -16,15 -13,31l0 0zm-946 0l0 0c-2,8 1,14 8,18l7 0c-8,23 14,34 29,47 4,-1 2,-9 8,-7l3 2c-6,5 -10,11 -8,19l2 2c7,-5 7,-12 16,-13 7,8 12,15 21,24l-13 2c8,9 12,22 23,26l-7 8 18 18 -3 3c2,5 12,14 16,3 3,0 6,-1 8,2l-11 6c7,15 28,10 34,26 3,-2 3,-5 3,-8l-5 -5 15 -3c12,-8 -4,-18 -2,-29 -4,-1 -5,4 -8,5 -3,-3 -7,-5 -5,-10l8 8 5 -11c7,5 7,15 15,16l3 -3 -5 -5c21,-11 5,36 31,19 -3,-13 -13,-27 -23,-32 -7,-5 -9,-25 -21,-16 -7,-7 3,-12 -8,-18l3 -2 5 5 -3 2c2,4 5,3 8,3 10,-7 -7,-8 -3,-16l13 16c3,-2 4,-6 8,-5l3 13c4,0 6,-5 10,-3 -2,9 3,22 13,29 7,-11 -13,-21 -2,-34l16 10 -3 3c3,5 9,2 13,3l5 -6 8 8c-5,13 -29,-5 -23,16 3,5 10,2 15,3l3 -3 -3 3c17,4 33,16 50,13l-13 -11 5 -5c7,1 18,10 29,10 32,-17 56,-29 128,-34 7,-9 26,-1 26,-18l-3 -2c2,-15 31,-3 13,-19 7,0 9,-11 16,-8 3,3 7,6 5,11l-5 5c18,-7 4,18 16,24l5 -8c13,19 -5,36 10,52 7,4 20,4 27,0l-11 -5 8 -16 3 11 20 -11c-17,11 7,25 -10,39 2,4 5,3 8,3 1,3 -2,9 2,10 10,3 5,-5 8,-7 11,3 16,2 24,-8 1,-2 -1,-4 -3,-5l21 -11c-7,15 19,8 11,24 12,-2 13,7 21,13 -9,-2 -19,7 -29,10 -15,-8 -39,6 -47,-10 -13,4 -19,-9 -29,-13 -1,-5 3,-20 -10,-19l-3 3 5 5 -2 0c1,19 -2,37 10,55 -6,8 0,14 0,21l5 -5c0,10 -10,21 -8,34 -5,-3 4,-8 -5,-8l-5 5c-1,12 2,-2 -3,-3 6,-5 12,-13 6,-20 -10,-8 -21,-30 -40,-21 -2,9 6,4 8,7 7,6 15,20 26,21 -4,9 -17,6 -23,3l-3 -3c-2,5 -7,7 -5,13 9,12 31,20 26,34 -7,-1 -19,2 -26,8l5 6 -8 5 3 2c-5,4 -18,-1 -16,11 -15,-5 -8,-10 -10,-21 5,3 0,12 8,10 -10,-14 17,-22 7,-36 -28,11 -58,20 -88,29 -16,-1 -19,-17 -13,-29 9,-6 37,3 36,-19 -6,-4 -12,2 -18,-5 7,-3 12,-20 21,-10 8,-6 13,-19 26,-19l5 -5c-4,-9 -13,-16 -23,-15 -3,27 -26,34 -49,40 -11,2 -31,2 -56,-33 -3,-4 -9,-1 -13,-2 -2,5 -7,8 -5,15 8,7 15,11 13,24 -3,5 -9,2 -13,3 -7,-11 -19,-13 -29,-8l-8 5c0,-14 -9,4 -13,-5 -11,-9 -24,8 -31,-11 5,-19 54,-12 31,-39 -9,1 -19,-2 -26,3l0 5c-15,0 -36,-3 -39,13 -13,-5 -36,1 -39,-16l2 -2c-11,-10 -23,-16 -36,-21l-6 5 -2 -10c-7,-1 -5,7 -8,10l8 8 -3 2c5,5 14,-1 11,11l-6 5c6,8 9,8 16,3l3 0 0 5c-5,-2 -8,3 -11,5l8 13c12,-28 -1,0 16,21l2 -2c2,24 43,203 45,214 4,9 11,13 21,19 -3,6 -14,-2 -13,7l15 0 -5 6c2,4 9,1 8,8l-3 2c19,7 -4,17 0,24l11 5c-9,4 -23,9 -19,21l8 10 -2 3 -6 -5c-3,1 -2,5 -2,8l5 5 -3 2c19,-6 5,21 21,16l-5 5c1,-8 -13,-13 -18,-21 -3,0 -6,1 -8,-2 -10,18 37,21 18,42 -8,5 0,14 -8,20 5,24 20,43 21,68 2,3 6,4 6,8 -2,3 -5,3 -8,3 -27,-40 -34,-89 -55,-131 15,-17 -17,-28 -13,-47l-5 0c5,-7 -38,-140 -55,-181 -18,3 4,-12 -11,-13l-2 -10 -6 5c-4,-2 4,-10 6,-16 6,-3 4,-9 5,-15l-8 -3c6,-13 10,-24 3,-36 -6,7 1,33 -16,23 -61,-51 -23,-109 -55,-154l-3 2 -2 -2 2 -3 6 5c3,-1 2,-4 2,-7l8 5c4,-14 6,-25 -5,-34l-8 26 -3 -21 -2 0c-6,-6 12,-24 -3,-23l-13 13c-15,-5 1,-17 -8,-26 2,-13 -8,-23 -5,-34 -2,-3 -6,-4 -5,-8l2 -3c-3,-3 -7,-3 -10,-8 -3,3 -6,7 -10,5l-3 -2c11,-4 10,-14 16,-21 -3,-5 -8,-2 -11,-3 -8,-8 5,-15 -8,-21l3 -2 8 8 2 -13c15,-4 22,13 32,23l0 0zm622 5l0 0c-5,1 -10,0 -13,-5l13 -5 0 10zm452 8l0 0 -8 -8c3,-4 9,-1 14,-2l-6 10zm-967 -2l0 0c-1,2 1,3 3,5l-3 2 -5 -7 5 0zm512 7l0 0c-1,3 -5,3 -8,3l0 -5c3,0 7,-1 8,2zm-123 11l0 0c1,6 0,-3 3,-3l-5 -5 2 -3 6 6 -6 5zm591 26l0 0c3,-1 -6,-29 8,-37 -2,13 6,29 -8,37zm-604 -31l0 0 3 -3 2 8 -5 -5zm-373 13l0 0 -3 0 0 -13c-1,5 10,8 3,13zm504 15l0 0c-3,-7 0,-11 3,-18l-3 18zm421 -7l0 0 8 -11 -3 11 -5 0zm-552 -3l0 0 3 -5 16 2 -19 3zm461 0l0 0c-10,0 -6,11 -11,16 13,10 22,-13 37,-6 2,-2 6,-4 5,-7 3,7 10,3 16,0 -9,3 -4,11 -6,18 -20,-13 -33,12 -57,0l-8 8 -5 -6 1 3 -26 18 -1 -2c16,-3 15,-26 36,-24 6,-3 6,-9 8,-13l-2 -2c9,5 4,-13 13,-3l0 0zm-848 21l0 0c-7,3 -8,-6 -7,-11 2,4 10,4 7,11zm523 8l0 0c-2,4 -7,1 -10,2l-3 -2 8 -11c3,3 7,6 5,11zm-588 10l0 0 0 -18 8 10 -8 8zm1158 0l0 0c-1,1 -2,4 -5,3l-8 -8c6,-5 12,-2 13,5zm-1119 3l0 0c-4,0 -8,-6 -10,0 -1,5 0,10 5,13 -8,12 7,2 11,8l-8 13c-1,-5 2,-11 -3,-13l-5 0c0,-3 -1,-6 2,-8 -7,-3 -7,-16 0,-18 4,-1 6,3 8,5zm554 15l0 0c-1,4 -4,3 -7,3l-3 -18 -5 0c0,-3 4,-5 8,-5 3,6 -1,13 7,20zm254 -18l0 0c-7,10 -6,1 -13,11 3,1 2,4 3,7 -5,-6 -13,0 -13,6l-39 -3c4,-21 20,-1 28,-18 8,11 23,-10 34,-3l0 0zm563 3l0 0c-6,1 -9,7 -13,10 -4,1 6,-12 13,-10zm-953 8l0 0 -5 5c-10,3 10,-5 3,-11 2,2 3,3 2,6zm-363 0l0 0c-2,1 -4,6 -8,5l-2 -3c3,-2 7,-8 10,-2zm866 0l0 0c4,7 -6,-5 -8,5 -4,1 3,-9 8,-5zm-892 20l0 0 -13 -13 3 -2 13 13 -3 2zm1109 -15l0 0c6,15 -18,21 -26,31 8,-10 16,-23 26,-31zm-1088 5l0 0c-1,3 2,9 -3,10l-5 -10 8 0zm18 8l0 0 -2 2 -3 -10c-1,4 4,5 5,8zm481 16l0 0c-6,-7 -2,-11 0,-19l3 3 5 -5c-10,1 -1,15 -8,21zm-619 -6l0 0 -3 3 0 -13c5,2 2,7 3,10zm253 0l0 0 -2 -8 5 0 -3 8zm-138 11l0 0 -13 -13 2 -3c2,8 19,7 11,16zm1093 -8l0 0c3,3 7,6 5,10 -3,4 -8,4 -11,8l6 5c-5,-3 -13,-3 -13,-10 16,2 3,-17 18,-21 1,4 -4,5 -5,8zm-1054 5l0 0c6,0 -3,5 -5,3l0 -8 5 5zm-81 3l0 0 3 0 0 13 -3 0 0 -13zm575 15l0 0c-1,2 -3,4 -5,3l-6 -5 6 -5c2,2 6,4 5,7zm-139 -2l0 0 3 0 0 10 -3 0 0 -10zm-428 26l0 0 -3 -3c-12,5 1,12 -2,16 1,4 4,3 7,3 -5,3 -6,8 -2,13l-8 0c-1,-14 -10,-43 10,-53 9,4 -4,20 -2,24l0 0zm852 -3l0 0c-8,0 -12,-8 -21,-2 -9,12 14,24 13,39 -4,-2 -7,3 -10,5 12,8 39,-5 50,13 -17,5 -34,11 -50,16 8,17 36,8 39,31l5 0c-7,5 -1,19 -13,16l-5 -5c-3,3 -8,6 -8,10l3 3c-9,-1 -17,-8 -21,-16l-18 21c5,9 10,17 15,26l6 -5 -3 -3c3,0 6,1 8,-2 -2,5 2,7 5,10 6,-4 10,-14 18,-13 -5,2 -1,8 -2,11 3,8 14,4 15,13 -1,-12 15,-10 16,-21 -1,-2 -3,-3 -3,-5 13,9 -14,15 -2,28 -8,5 -6,12 -13,16 1,3 5,3 8,3 -9,8 6,7 5,15 4,4 9,3 13,-2 -2,4 -8,7 -5,13l5 5c2,-4 7,-2 10,-3 -4,16 -12,17 -23,26l5 6 -16 16 6 5 2 -3c1,0 -2,11 5,13l8 0c1,4 -3,6 -5,8l5 5 3 -2c-14,1 -8,18 -24,16l-5 -6c-10,4 -1,11 0,16 -3,-1 -4,1 -5,3 -6,14 21,12 10,26l0 8c-49,-36 -61,-62 -91,-113 -1,-10 -9,-23 -13,-34 2,-9 -12,-21 -3,-24 4,-10 -9,-13 -13,-21 -2,4 -5,3 -8,3l3 -13c9,-3 17,12 26,0l-5 -5c10,-2 14,-16 10,-24l0 -2c10,-3 6,8 13,10l13 -16c-7,-9 -19,-5 -28,-10 -9,-10 -11,-32 -26,-29l0 8 -14 -34c15,-13 35,-7 50,-5 6,1 9,-14 16,-5l5 -6 -5 -5c-2,2 -3,4 -5,3 -24,-42 51,-63 49,-32l0 0zm-261 6l0 0c-2,-5 2,-8 5,-11l-3 -2 6 -3c4,3 2,17 -8,16zm298 7l0 0 -21 3 0 -5c6,2 13,3 21,2zm-641 8l0 0c-8,7 -22,10 -34,5 -7,3 -11,-3 -16,-7l-23 0c24,1 50,-3 73,2zm8 3l0 0 10 -3 -2 3 -8 0zm1083 8l0 0 2 0 0 10 -2 0 0 -10zm-9 31l0 0c-5,-5 1,-11 6,-16 1,3 2,13 -6,16zm-1343 8l0 0 2 -13 8 8 -10 5zm1061 26l0 0c-9,12 -14,-1 -21,11 3,3 6,6 11,5 -2,1 -4,3 -3,5 -7,0 -11,-16 -18,-8l5 16c-15,-14 -16,19 -29,2 -14,1 -4,20 -18,19 1,-4 -3,-5 -5,-8l-8 8c1,-5 0,-10 -5,-13l8 -8 -3 -3c12,-6 7,-14 10,-23 2,1 3,3 6,2 1,-2 6,-4 5,-8l-5 -5c9,-4 11,8 18,8l3 -13c1,2 2,3 5,3 5,-2 2,-7 2,-11 7,3 18,5 19,-5 9,6 26,11 23,26l0 0zm-21 -5l0 0c-6,-1 -15,4 -15,13 -13,-14 10,-16 15,-13zm-277 0l0 0c-1,5 2,7 6,10l-6 0c3,-5 -4,-9 -8,-10l8 0zm259 29l0 0 -3 2c-5,-5 -16,-15 -13,-23 2,11 17,9 16,21zm-248 -13l0 0 8 -6 -3 11 -5 -5zm130 13l0 0 6 -13 0 7 -6 6zm-68 -6l0 0 -5 6 3 -11c1,2 3,3 2,5zm87 3l0 0 -6 0 11 -8c1,4 -4,5 -5,8zm-162 10l0 0 2 -2 -10 5c3,4 1,10 5,13 -4,1 -8,2 -10,5 -6,-12 0,-24 2,-36 4,5 4,11 11,15l0 0zm177 -15l0 0 3 0 0 8 -3 0 0 -8zm58 8l0 0c3,7 -5,8 -8,13l-3 -3c1,-4 7,-10 11,-10zm-34 5l0 0c-4,2 -3,5 -3,8l-5 0c6,-2 -1,-12 8,-8zm-120 2l0 0 5 8 -5 -8zm47 21l0 0c1,-3 -4,-5 -6,-7l3 -3 -8 -11c20,-1 2,13 11,21zm-421 -2l0 0 -3 2c0,-4 -11,-8 -5,-13 2,4 8,6 8,11zm491 8l0 0c-9,3 -8,19 -10,18 1,-12 -18,-1 -11,-16l11 -10c-4,12 9,3 10,8zm13 5l0 0 -5 -8 5 0 0 8zm-183 8l0 0 0 2 -7 0 0 -8c3,0 5,4 7,6zm139 5l0 0 -3 -11 6 0 -3 11zm206 -5l0 0 -5 0 0 -6 5 0 0 6zm-761 15l0 0 3 -15 11 5 -14 10zm521 -10l0 0c-3,2 -4,6 -8,5l-3 -3c3,-2 8,-8 11,-2zm3 31l0 0 -3 3 10 0 -10 10 -3 -13 -5 5c0,-4 -3,-8 -8,-13 11,-10 9,9 19,8zm-693 45l0 0c-3,-1 -7,-8 -3,-11 5,2 2,8 3,11zm962 3l0 0 5 -6 -10 11 5 5c-14,4 5,-17 -8,-24 13,1 -4,10 8,14zm-934 28l0 0c-1,5 -6,9 -8,13l-7 -10c3,-6 11,-7 15,-3zm921 32l0 0c-5,-14 -15,6 -3,-8l-8 -5c13,2 9,2 11,13zm-16 -5l0 0c-2,2 -6,4 -5,7 2,2 4,7 8,6l2 -3 -2 10c14,-7 4,16 18,19 -6,5 0,12 3,18 -2,-2 -20,12 -6,18l0 3 -5 0c2,-14 -10,-22 -10,-34l-8 8c-12,4 12,-8 2,-13l-5 5 -5 -5c5,-3 15,-5 13,-13 3,-12 -12,-15 -10,-26 4,3 7,-7 10,0l0 0zm-889 10l0 0c4,-6 8,5 13,5 3,7 -5,7 -8,11 7,8 11,-6 18,-3 5,-3 -4,-11 6,-10l2 -3 3 3c-8,5 -6,10 -3,18 9,0 0,-5 6,-8 -4,4 8,11 -3,16 2,3 5,2 8,2l5 -5 3 3c-13,5 -17,23 -32,26 -5,-3 4,-8 -5,-8l-5 5 -5 -5c-8,1 -7,9 -11,13l11 3c-2,1 -3,3 -6,2l-5 -5c-3,3 -3,8 -8,11l11 2 -5 11c16,5 9,-8 23,-16l-3 -3c7,-8 8,7 13,6 -8,-5 -13,7 -20,13l2 2 -8 6c5,3 8,9 13,10 5,17 -47,27 -15,31 -6,4 2,19 -11,16 -1,-5 2,-12 -2,-16 -9,0 1,6 -6,8 -3,-2 -7,-3 -13,-2l11 -6c-3,-3 -8,-3 -11,-7l6 -6c-2,-1 -4,-3 -3,-5 14,-6 -5,-11 -3,-18l-7 8c-9,-7 6,-10 5,-16l-8 -3c6,-15 17,-31 26,-42 1,-4 -4,-6 -3,-10l6 -5 5 5c12,-9 -1,-17 16,-21 -3,-5 -9,-2 -13,-3l-8 8c-3,-1 -3,-5 -3,-8 6,-6 9,-35 21,-10l0 0zm560 24l0 0c2,1 4,6 8,5l-8 8c18,2 3,14 8,26 -4,-2 -6,3 -8,5 8,5 -4,8 -3,13l-10 -8c-20,7 0,34 -21,34 -4,-8 -3,-24 -8,-26 6,4 5,12 13,13 7,-7 7,-17 10,-26 -20,-8 8,-21 -13,-31l-10 0c4,0 7,-6 10,-8l-2 -13c2,0 3,-2 5,-3 -1,-12 -8,3 -5,-10l5 -6 -3 -2c23,-13 18,20 32,29l0 0zm-646 -14l0 0 -5 -5 2 -2 -5 -6c0,6 17,5 8,13zm269 3l0 0c-17,26 -21,58 -26,89 -14,18 -36,37 -42,60 -6,18 -21,-4 -29,11 -13,7 -4,26 -18,31 0,5 0,10 5,13l-2 3c-9,-3 -5,-16 -14,-21 10,-5 4,-15 3,-21 -6,-6 -11,-14 -5,-21 2,-2 14,2 10,-8l-2 -3c15,5 9,-13 18,-18l8 13c9,1 2,-10 8,-13 -18,7 3,-11 -11,-16l16 -2 -5 -5 8 -8 -6 -5 3 -3 -5 -5c3,-4 11,-4 8,-11 -5,-1 -9,0 -11,-8l3 -2c2,2 4,6 8,5 -3,-21 24,-21 34,-39l2 2c2,-1 4,-3 3,-5l-8 -8c16,-5 24,-10 39,-15l8 10 0 0zm-8 0l0 0 -13 3c-7,4 9,-9 13,-3zm727 24l0 0c-2,-1 -6,-9 -3,-11 2,3 8,8 3,11zm-980 5l0 0c0,2 0,6 -3,8l-3 -8 6 0zm20 16l0 0c-2,-4 -17,7 -15,-8l15 8zm-62 20l0 0c-4,-13 -29,-4 -19,-20l19 20zm232 -7l0 0c1,-4 -3,-6 -5,-8 2,-5 7,-2 11,-3l-6 11zm429 -6l0 0 -2 -5 13 0 -11 5zm-499 16l0 0c-5,8 -15,0 -21,3 5,-5 14,-2 21,-3zm-50 11l0 0c-2,-1 -4,0 -5,2l-5 -5c4,-3 8,-4 10,3zm510 5l0 0 -2 8 2 -8zm-539 49l0 0 -7 6c-2,2 1,-16 7,-6zm309 24l0 0c-9,4 -26,-6 -34,-13l5 -8c18,-1 13,27 29,21zm-353 0l0 0c-5,-2 -7,-7 -3,-11l3 0 0 11zm986 37l0 0c-7,-7 -17,10 -13,13 -4,-10 6,-18 10,-29 -2,6 5,9 3,16l0 0zm-531 13l0 0c-3,4 -9,2 -13,5 1,-6 8,-11 13,-5zm-290 13l0 0 5 5 -11 5c20,-3 18,15 34,21l6 -8c0,5 0,15 -8,18 3,3 5,7 10,6l3 -8c-1,2 1,4 2,5 10,0 0,-12 14,-8 10,-22 32,-10 44,-15 6,6 13,8 18,15 -25,4 -51,46 -76,13l-2 13 -5 -5c1,6 -9,16 5,18l-11 11 6 5c-6,6 -12,-3 -13,8l-8 -8 2 -2c-23,-14 0,-28 -15,-45 -2,-4 -1,-9 -8,-10 14,-13 -27,-37 2,-42l3 10 3 -2 0 0zm805 0l0 0c-12,1 -7,14 -16,21 -20,13 -21,43 -42,57 5,4 9,11 16,8 -4,0 -7,5 -10,8l13 13c16,-10 11,-39 36,-24l6 -5 -8 -8c-5,-6 9,0 8,5 3,3 5,7 10,6 4,-6 -3,-16 -10,-19l0 -2c11,-2 9,12 18,15 -7,5 -6,11 -3,19 8,4 16,-7 24,-11 -1,4 -4,17 5,24l-3 2c-6,-5 -8,-13 -15,-18l-5 5c11,8 15,23 23,34 -3,43 7,103 -8,139 4,9 -9,17 -5,29 -34,13 -73,15 -107,28 12,-21 35,-37 44,-60 -3,-10 -12,-2 -18,-2l-92 81c-47,11 -95,18 -141,34 -39,7 -77,17 -115,26 92,-43 189,-114 254,-209l-3 -3c29,-43 57,-97 97,-131 -3,-1 -2,-4 -3,-7 13,2 7,-15 16,-16 12,-14 17,-34 29,-45l5 6 0 0zm-167 21l0 0c-11,15 10,25 -5,36 1,1 2,4 5,3 1,10 -23,10 -11,23l0 8c-4,-1 -5,4 -8,5l6 11c-3,1 -4,-1 -6,-3 -6,4 -5,10 -5,16 -5,-2 -7,2 -10,5 2,7 7,12 5,21 -5,-7 1,-27 -16,-26 12,-11 -15,-15 -2,-26 -4,-3 -10,1 -13,5l0 13c-3,-1 -4,1 -6,3 -3,-23 -28,-15 -39,-32 -21,12 8,21 8,32 3,0 6,0 8,-3l-5 -5 7 8 -10 7 -3 -2c-3,10 -13,4 -15,16l2 13 -2 0 2 -3c-15,0 -11,-39 -28,-16 0,7 -3,15 5,19 2,-3 5,-3 8,-3 -7,6 2,19 -8,24 -3,-5 -3,-10 -8,-14l-5 0c3,-5 12,-16 2,-20 -12,12 -26,14 -31,31l-21 -13 5 -8c-3,7 6,9 8,13 11,-9 29,-9 32,-26 12,7 20,-13 20,-24l-2 -13c-2,3 -6,4 -5,8 -11,-12 11,-24 7,-42 28,0 57,11 79,-15 3,-15 -9,-41 10,-45 8,18 41,-3 45,19l0 0zm-790 15l0 0c-12,7 -10,-12 -16,-18l3 -5c8,4 9,15 13,23zm1116 19l0 0c0,3 1,6 -2,7 -1,-10 -19,-10 -18,-23 3,8 12,15 20,16zm-1106 2l0 0c18,40 48,76 74,110l5 -5c-1,-2 -4,-3 -3,-6 16,-6 4,12 19,14 1,-3 6,-4 5,-8l-3 -3 3 -3c7,13 -5,37 10,50 7,-7 -4,-22 11,-16l-6 6c11,7 -9,11 0,18l0 5c-13,-2 -14,-12 -20,-23 1,-2 3,-3 2,-6l-5 -5 -3 3 -13 -16c-8,5 5,13 -8,11l-26 -37c-17,6 2,22 -10,29 5,28 -10,49 -11,76l8 7c-8,7 5,11 3,19 -1,20 3,34 -3,49 7,36 9,60 8,92l8 8 -5 5c1,2 2,3 5,3l-11 5 8 5c-2,9 6,14 3,27l3 2c-5,3 -6,8 -6,13l3 3c-3,3 -8,3 -11,8 12,4 11,21 8,28l-5 0 5 -5c-1,-3 -4,-2 -8,-2 0,-4 4,-6 6,-8 -2,-5 -7,-2 -11,-3 0,-6 3,-11 5,-16 -1,-1 -2,-3 -5,-2 -1,-7 3,-12 8,-13 -5,-10 -12,-5 -18,-8 3,-4 8,-4 10,-8 -9,-7 -3,-20 -15,-26l7 -6c-2,-7 -14,-3 -10,-13 3,-5 11,0 10,-8 -32,-3 9,-28 -18,-36 -3,3 -3,8 -8,10l-5 0 8 -8 -16 -13c2,-3 5,-2 8,-2l5 10 8 -10c-2,-4 -9,-2 -8,-8l5 -5c-1,-3 -4,-3 -7,-3 6,-12 -16,-22 -13,-34 2,1 3,-1 5,-3 -2,-4 -7,-1 -11,-2 2,-8 -7,-11 -13,-13l8 -6 -16 -5 16 -21c-3,-3 -8,-3 -10,-7 14,-6 0,-15 -3,-24l-5 5c1,2 3,3 2,6 -1,3 -4,2 -7,2 -2,-7 -6,-16 -6,-21 -4,2 12,0 11,8 2,-12 -14,-26 -8,-39 -2,-3 -5,-2 -8,-3 6,-2 3,-7 0,-13 -2,-1 -4,1 -5,3 -1,-4 -2,-8 -5,-13l-3 0c-10,10 10,-9 3,-13 8,-6 26,-6 15,-21l-2 -3c-5,13 -23,13 -21,29 -4,-1 -5,3 -8,5 -2,5 2,7 5,11l-2 2 -3 -8c-6,-4 -9,8 -13,0 9,-4 4,-13 10,-18l-2 -3 -34 40c9,14 -14,14 -21,20 -13,15 -24,21 -37,29l-5 11 -5 -5 18 -19c-2,-3 -5,-2 -8,-2l8 -8c-2,-5 -11,5 -10,-6 4,-3 10,4 15,6l3 2c13,-10 -10,-25 13,-31l-13 -3 5 -7c27,-16 56,-26 81,-48 4,0 6,5 11,3l10 -10 -2 -3c7,-16 23,-18 34,-31 -8,-7 6,-12 5,-19 16,3 3,-18 18,-18 5,4 0,16 10,13l0 0zm1159 -10l0 0c1,2 -1,4 -3,5l-5 0 0 -8c3,0 6,-1 8,3zm-188 10l0 0c0,3 -11,-5 -8,-10l8 10zm-534 11l0 0c-15,11 -45,0 -68,0 -8,-8 -19,-7 -29,-11 34,4 56,-9 84,8 3,-3 9,0 13,3zm753 2l0 0 -10 5c-5,-7 -8,-15 -18,-15 11,-13 22,3 28,10l0 0zm-274 0l0 0c0,3 1,6 -3,8l-5 -8 8 0zm285 11l0 0c-4,2 -6,7 -11,5l-2 -3 8 -10c1,2 6,4 5,8zm-657 0l0 0c0,3 1,6 -2,8l-3 0 0 -11c2,-1 4,1 5,3zm110 13l0 0c1,2 -1,4 -2,5l-6 -10c4,-1 6,3 8,5zm60 5l0 0 -7 -8 2 -2 8 7 -3 3zm-214 0l0 0c-7,0 -23,-2 -18,8 -4,-1 -5,3 -8,5l-3 -8c0,-5 1,5 6,3l5 -5c-2,-2 -3,-4 -5,-3 2,-14 15,-4 23,-5l0 5zm-552 8l0 0 13 -13 6 0 -19 13zm516 0l0 0 -6 10c-4,-1 -8,-2 -10,-5 2,-2 13,2 10,-8 2,-1 4,2 6,3zm80 10l0 0 -7 8 -8 -8 -3 3 -10 -11c-4,2 -3,5 -3,8l5 5c-8,0 -5,13 -15,8l8 -5c-8,-10 -12,4 -19,-3 13,10 9,-19 21,-10 5,-4 21,-4 29,0 1,1 3,3 2,5l0 0zm29 13l0 0c-5,-4 -13,-17 -2,-23l2 23zm-604 -13l0 0c-7,11 -12,-9 -18,0l0 -2 18 2zm698 8l0 0c-2,1 -4,-1 -5,-3l11 -5c0,4 -4,5 -6,8zm432 -3l0 0c0,10 -10,3 -13,8l5 -13c2,2 4,6 8,5zm-32 11l0 0c3,11 14,17 8,26 6,-8 -9,-20 -13,-26l5 0zm13 5l0 0 8 0 -8 0zm-21 13l0 0 -13 16c4,10 12,2 19,3 -7,1 -17,9 -21,0 -5,-2 -2,-11 -3,-16l5 -5 -8 -6c9,10 18,-8 21,8zm-1116 3l0 0 -8 -8 13 3 -5 5zm557 0l0 0 -8 5 -5 -10c3,4 7,6 13,5zm-693 29l0 0c-37,21 -78,48 -118,60 35,-24 75,-37 110,-60l8 0zm105 23l0 0 2 -3 -18 -5c6,-5 27,-1 31,-2l-15 10 0 0zm-24 -5l0 0c1,4 -3,5 -5,8l-3 -3c0,-3 5,-5 8,-5zm24 18l0 0c0,3 -2,4 -3,5l13 6c1,6 -7,5 -10,8l-6 -6 6 -5 -8 -10 -5 5c-7,-1 1,-7 2,-11 12,0 -3,11 11,8zm708 3l0 0c-3,2 -2,5 -2,8l-3 -8 5 0zm-842 8l0 0c-9,8 -8,30 -15,39 4,3 -1,7 -3,10 1,-6 -3,-16 5,-21 8,-10 -1,-26 11,-34 1,2 3,3 2,6zm850 18l0 0 -5 -5 -5 5 2 3c-3,4 -8,1 -13,2 5,2 8,-2 11,-5 1,-4 -4,-5 -6,-8 7,2 9,-5 16,-2l0 10zm-829 -5l0 0c-3,3 -5,7 -10,5l0 -8c3,1 8,-2 10,3zm55 13l0 0 -8 -11 8 8 0 3zm86 0l0 0 -5 5 -8 -16c15,-6 5,11 13,11zm1098 2l0 0 -2 3c1,-2 -1,-3 -3,-5l-8 10c5,11 18,2 24,8 -4,-1 -5,4 -8,5 3,-3 -11,-2 -16,3l-7 0c0,-6 15,-13 2,-18l0 -6c4,0 9,3 11,-2l-11 -11c10,3 12,5 18,13zm-1257 -10l0 0c-1,3 2,9 -3,10l0 -10 3 0zm133 10l0 0c-4,3 -6,11 -13,8 0,-5 -11,-8 -5,-13 3,8 12,5 18,5zm-55 13l0 0 -2 3c-3,-2 -5,-6 -8,-5l-3 2 -8 -7c8,8 16,-6 21,7zm1294 0l0 0c-44,47 -94,94 -143,136 0,-18 -25,-21 -29,-34 2,-4 6,-8 10,-13l-2 -2c8,-3 19,-14 16,-26l-8 -6c30,9 -6,-28 21,-10l5 -5 -3 -3c10,-13 16,14 24,-3l0 6c3,3 10,-1 13,-6l-5 -5c21,-13 52,-16 78,-23 8,-2 14,-8 23,-6l0 0zm-970 21l0 0c-3,0 -6,1 -7,-2 -4,-9 7,-6 10,-11 7,7 -2,6 -3,13zm416 -10l0 0c-11,-1 2,2 3,-3l-3 3zm-714 2l0 0c-1,5 -6,2 -10,3 0,-2 8,-6 10,-3zm42 6l0 0c-1,5 -7,1 -10,2l5 -10c2,2 6,4 5,8zm-23 0l0 0 2 -3c7,5 -5,22 13,18 -4,10 -18,10 -26,19 1,-6 4,-20 16,-24 -5,-12 -10,2 -18,-2l0 -11c-5,3 9,9 13,3zm42 18l0 0c1,2 2,4 5,3l0 2 -11 0c5,-3 -4,-8 6,-10l5 0 -5 5zm593 11l0 0c-7,-5 2,-9 3,-14 7,5 -2,9 -3,14zm-727 -8l0 0c6,16 -20,21 -26,34 -29,11 -45,38 -73,52 -32,26 -64,43 -92,74l97 13c49,-17 93,-41 139,-66l-8 -8 3 -3c15,22 34,-8 52,-13 19,-1 29,-45 49,-21 -16,27 -46,31 -68,50 -46,20 -91,44 -135,68 61,13 115,61 128,123 8,30 -3,64 -21,89 -51,47 -117,75 -188,55 -15,-10 -37,-20 -32,-42 8,-10 15,-24 29,-26l5 5c-17,6 -18,26 -13,40 55,33 127,9 173,-29 25,-32 19,-74 13,-113 -16,-49 -64,-80 -110,-94 -57,-3 -100,18 -155,29 -8,15 -32,3 -47,10 -35,15 -68,35 -99,61 -29,13 -48,35 -76,52 -10,-1 -13,14 -23,13 -3,-3 -7,-6 -6,-10 53,-37 105,-74 157,-110 -12,-9 -30,-4 -39,-21 11,-38 54,-43 86,-50 83,15 130,-71 194,-107 31,-13 56,-40 86,-55l0 0zm126 10l0 0 -16 5 3 3 -8 5c-1,-3 3,-5 5,-8l-5 -5c5,-4 16,-4 21,0zm1009 68l0 0c-3,11 10,7 16,11l-3 7c1,6 -3,-18 -13,-2 1,-4 -3,-5 -5,-8l-13 0c-28,18 -39,59 -71,66 4,-20 31,-40 13,-58l-8 0 -78 73 0 -10c23,-40 47,-79 70,-118 37,-16 76,-24 116,-31 10,35 -64,38 -24,70l0 0zm-1098 -44l0 0 -5 0 5 -13c2,5 8,9 0,13zm128 -6l0 0 0 3 -13 -5 5 -5c6,1 -3,10 8,7zm-37 3l0 0c-3,4 -7,4 -10,8 -7,-1 2,-7 3,-11 3,1 6,0 7,3zm-75 13l0 0 -13 -5 13 2 0 3zm83 5l0 0c-2,0 -5,-8 -10,-5l-3 3 -2 -3 10 -5 5 10zm983 8l0 0c-5,6 -14,11 -21,5 -10,-6 -2,-17 3,-23 0,15 21,2 18,18zm-1066 0l0 0 -3 -2c3,-4 6,-4 10,-6l-7 8zm923 -2l0 0c-39,41 -79,83 -121,128 0,-16 22,-34 29,-53 -3,-3 -3,-7 -8,-10 -15,-2 -15,15 -26,21 -7,-9 -18,-18 -29,-11 -4,6 -9,9 -15,8 0,-5 -1,-9 -6,-13l-7 0c-29,31 -59,56 -92,76l-26 -28c17,-20 28,-48 52,-58 57,-4 107,-34 162,-34 24,-16 56,-22 87,-26l0 0zm-495 7l0 0 0 3 -8 0 0 -5c2,3 6,2 8,2zm-324 8l0 0c-2,5 -9,2 -13,3l0 -5c4,0 11,-2 13,2zm1002 5l0 0c-3,1 -4,0 -6,-2l11 -5c1,4 -4,5 -5,7zm-618 6l0 0c-2,60 -61,91 -94,139 -53,47 -106,102 -167,125 -7,0 -17,2 -18,-8 3,-44 11,-82 36,-120l19 -29c69,-46 137,-96 219,-113l5 6zm145 2l0 0c-6,12 -21,21 -32,26 -26,11 -64,7 -73,40 3,3 5,7 10,5 7,-23 32,-16 47,-24 -13,13 -37,16 -39,37l-84 76c21,-56 52,-113 103,-152 20,1 46,-1 68,-8l0 0zm452 24l0 0c-9,0 -6,11 -11,13l0 -13 11 0zm-24 29l0 0 -2 -3c3,-3 5,-7 10,-5l-8 8zm-353 84l0 0c11,-30 34,-64 66,-77 -8,31 -41,52 -66,77zm165 -66l0 0c-4,-1 -9,2 -11,-2l11 -6 0 8zm212 13l0 0c-5,2 -7,7 -13,6 -1,-9 10,-6 13,-6zm-243 19l0 0 7 -13 0 5 -7 8zm-1146 -11l0 0c-30,17 -57,57 -97,34 5,-12 20,-19 32,-23 20,-8 44,-8 65,-11l0 0zm113 5l0 0c-35,11 -73,10 -108,21 13,-6 24,-14 34,-26l74 5zm1257 8l0 0 -2 3 -13 -11 5 -5c-1,5 5,6 10,13zm-426 24l0 0 -62 44c13,-24 20,-51 39,-73 0,12 19,17 23,29l0 0zm186 -21l0 0 -8 13 8 -13zm230 23l0 0c-3,5 -8,0 -11,-2l8 -8c5,-1 2,7 3,10zm-5 13l0 0 -6 6c-1,-4 -7,-8 -2,-11 2,2 4,6 8,5zm-952 16l0 0 -5 -10 8 8 -3 2zm89 -2l0 0 -5 13 5 -13zm857 5l0 0c1,9 -10,1 -13,8 2,1 4,2 3,5 -2,1 -4,-1 -5,-3 7,-3 1,-7 5,-10l10 0zm-345 18l0 0c-1,3 -5,2 -7,3l0 -11c3,2 10,1 7,8zm32 31l0 0 -5 6c0,-8 -10,-15 -13,-16l2 -3c-2,-10 -16,-1 -13,-13 19,-2 15,22 29,26l0 0zm-602 6l0 0 -2 -11 5 8 -3 3zm651 55l0 0c12,-1 3,16 16,13l0 7c-4,1 -5,-3 -8,-5l3 -2c-22,-16 -40,-40 -55,-60l3 -3c16,15 31,32 41,50zm-656 -32l0 0 -8 0 0 -8c2,4 9,2 8,8zm340 26l0 0c14,17 16,42 18,60 3,4 8,6 8,11 -7,4 3,20 -8,26 -6,-10 -9,-21 -8,-34l-5 0c0,-5 4,-20 -8,-21l8 -5 -10 -5 2 -55c0,5 12,18 3,23l0 0z"/>
 </g>
</svg>
