

<!-- Creator: CorelDRAW X8 -->
<svg xmlns="http://www.w3.org/2000/svg" xml:space="preserve" x="0" y="0" width="17.04mm" height="25mm" version="1.1" shape-rendering="geometricPrecision" text-rendering="geometricPrecision" image-rendering="optimizeQuality" fill-rule="evenodd" clip-rule="evenodd"
viewBox="0 0 1704 2500"
 xmlns:xlink="http://www.w3.org/1999/xlink">
 <g id="Layer_x0020_1">
  <metadata id="CorelCorpID_0Corel-Layer"/>
  <path fill="#ffffff" d="M1397 2500l0 0c0,0 -1,0 -1,-1 0,-10 0,-10 3,-24 1,-1 1,-1 2,-2 4,0 9,0 14,0 0,4 2,8 3,12 -2,0 -4,1 -7,2 -2,4 -4,8 -6,13l-1 0 0 0 0 0 0 0 0 0 0 0 0 0 0 0 0 0 0 0 -1 0 0 0 0 0 0 0 0 0 0 0 0 0 0 0 0 0 0 0 -1 0 0 0 0 0 0 0 0 0 0 0 0 0 0 0 0 0 -1 0 0 0 0 0 0 0 0 0 0 0 0 0 0 0 0 0 -1 0 0 0 0 0 0 0 0 0 0 0 0 0 0 0 0 0 -1 0 0 0 0 0 0 0 0 0 0 0 0 0 0 0 -1 0 0 0 0 0 0 0 0 0 0 0 0 0 0 0 -1 0 0 0zm307 -323l0 -10c-1,-5 -3,-9 -4,-13 -1,-2 -2,-3 -3,-4 -2,-4 -3,-9 -4,-13 -2,-3 -4,-7 -6,-10 -2,-7 -3,-14 -4,-21 -10,-18 -20,-36 -30,-54 -7,-6 -13,-13 -20,-20 -3,-3 -5,-6 -7,-10 0,-3 -1,-5 -1,-7 -7,-1 -14,-1 -21,-2 -8,-9 -17,-17 -25,-25 -3,-5 -5,-9 -7,-14 -1,-9 -1,-18 -1,-27 -3,1 -5,2 -7,2 -1,1 -3,2 -3,3 -4,0 -7,1 -11,2 3,-10 5,-20 7,-31 5,1 9,2 14,2 3,2 5,4 6,6 4,1 7,2 11,3 -1,-4 -2,-7 -2,-11 -2,-2 -4,-4 -5,-5 -5,-2 -11,-3 -16,-5 -3,-13 -6,-27 -10,-40 -4,-4 -8,-9 -11,-13 -4,0 -7,0 -10,0 -8,4 -8,4 -13,9 -2,5 -5,10 -7,14 -1,13 -2,25 -3,37 -9,14 -17,27 -24,41 -5,4 -5,4 -24,16 0,10 0,19 0,28 -4,9 -9,18 -14,27 0,8 0,16 0,24 2,1 3,2 4,3 3,6 5,11 7,17 5,8 5,8 19,22 15,6 30,13 45,20 6,7 6,7 37,27 13,14 25,27 37,40l0 0c3,1 4,2 6,2 0,-4 0,-9 0,-13 11,1 11,1 17,4 5,0 10,0 14,0 1,-1 3,-2 3,-3 8,0 16,0 24,0 6,2 11,3 17,3 3,3 6,5 10,7 4,0 9,0 14,0 1,-1 1,-1 1,-8zm-701 -2177l-11 0c-3,0 -9,2 -9,6 -4,0 -4,10 -9,10 -13,16 -27,32 -45,44l0 4c0,0 -14,7 -14,11 -5,1 1,5 -4,11 -5,5 -19,11 -23,21 -9,6 -14,16 -23,22 -10,13 -19,10 -17,26 -5,0 -10,6 -10,11 -4,10 7,2 4,17 -5,2 -7,8 -10,15 -21,53 -15,50 26,85 0,5 1,10 6,14 5,0 0,0 1,5 0,0 5,4 9,-1l5 -5c15,-2 15,-2 29,-3 -3,20 -11,41 14,54 5,-1 6,4 16,3l-1 -5c1,5 10,-5 5,-5 -6,-5 -6,-5 -11,-14l-6 -4c0,0 -1,-15 0,-10 0,0 -1,-5 5,-1 8,-10 -1,-14 18,-11 0,0 -3,15 -3,20 5,0 10,-1 15,-1 -1,-10 -2,-15 3,-25 5,-1 4,-5 4,-5 10,-6 15,3 15,3 10,-1 15,-1 20,4l6 9c5,4 15,-1 25,-2 0,0 16,14 21,13 0,0 -5,10 0,10 -5,0 -14,1 -19,2l0 4c21,13 25,8 28,43 -5,0 -4,5 -9,5 -1,-5 -17,-28 -17,-28 0,0 -10,1 -15,1 -10,1 -17,-23 -23,-33 -4,6 -9,6 -13,12 0,0 -1,-5 -5,0 -5,5 -4,15 -9,20 -9,6 -24,7 -28,13 -4,10 1,19 -3,29 0,0 -5,1 -4,6l-10 1c0,-5 -1,-10 -6,-15 -10,1 -20,2 -30,-2 -11,-9 -12,-24 -22,-33 -1,-5 -11,-4 -11,-9 0,-5 -1,-10 -6,-14 -1,-5 -11,-9 -16,-14 -1,-5 -6,-14 -11,-14l-5 1c5,4 0,5 1,9l5 0c5,4 17,33 22,33 5,4 0,5 0,5 0,0 -9,10 -3,15l5 4c5,5 1,10 1,15l-9 1c0,0 -1,-5 -1,-10 -15,-8 -35,-20 -46,-34 -1,1 -1,2 -2,2 -4,-4 -8,-9 -15,-15 -6,-5 -13,-9 -20,-14 -3,0 -7,0 -10,0 -2,2 -4,5 -5,6 -2,5 -4,10 -5,15 -7,0 -14,1 -20,2 0,2 1,5 1,7 2,1 2,1 36,1 3,2 5,5 6,7 28,10 28,10 36,16 0,3 0,5 0,7 -2,1 -2,1 -12,1 -1,-1 -2,-3 -3,-3 -8,-2 -16,-3 -24,-4 -11,0 -23,0 -34,0 -14,4 -29,7 -44,10 -6,6 -12,12 -17,17 -3,1 -5,2 -7,2 -1,3 -3,6 -3,8 -10,7 -20,14 -31,21 -4,4 -9,9 -13,13 -3,2 -6,4 -9,5 -11,12 -23,23 -34,34 -30,51 -47,84 -57,107 -20,44 -20,99 -28,147 -2,9 -5,22 -9,44 0,7 0,14 0,20 3,31 3,31 7,48 0,6 0,11 0,16 -3,7 -5,14 -7,21 -3,29 -5,59 -7,88 -22,52 -40,109 -65,159 -25,103 -24,134 1,194 55,131 90,228 102,373 2,25 -7,40 13,63 10,13 8,29 -8,39 -34,22 -46,47 -63,74 -23,35 -54,95 -76,153 -3,8 -13,6 -17,14 -1,4 2,11 0,16 -2,4 -10,10 -12,14 -2,4 -7,10 -9,14 -6,11 -5,25 -14,31 -10,9 -7,19 -15,22 -18,5 -5,-16 4,-39 2,-2 2,-2 12,-3 -2,-6 -3,-11 -4,-15 -10,-7 -10,-7 -16,-14 -17,0 -34,0 -51,0 -7,-3 -7,-3 -24,-7 -6,0 -11,0 -17,0 -6,3 -13,5 -20,7 -15,0 -30,0 -44,0 -4,2 -7,4 -9,5 -3,4 -5,7 -7,11 0,6 0,13 0,20 1,5 3,9 3,13 2,2 5,4 6,5 9,0 18,1 27,2 -1,3 -1,5 -2,7 -8,6 -15,12 -22,18 -7,0 -13,0 -20,0 -8,5 -16,10 -24,13 -2,3 -4,5 -6,7 -15,-1 -30,-1 -44,-1 -1,5 -2,9 -2,13 -2,2 -4,4 -5,5 -12,2 -17,3 -22,4l-11 10 4 9c7,1 9,1 15,1 7,-3 7,-3 31,-11 11,0 23,-1 34,-1 0,-3 1,-6 1,-10 2,-3 4,-6 5,-8 10,-2 18,-3 27,-4 4,-2 8,-3 12,-5 2,-4 4,-9 5,-13 3,-1 5,-2 7,-2 9,0 19,0 28,0 10,6 10,6 31,25 2,6 3,12 4,17 2,5 5,10 7,14 2,2 4,3 5,5 8,0 16,0 24,0 8,-9 16,-17 23,-24 4,-3 7,-5 10,-7 4,0 7,-1 11,-1 -4,8 -7,16 -9,23 -3,4 -5,7 -7,11 -7,6 -14,17 -20,23 -3,5 -5,10 -7,15 -7,10 -7,10 -14,16 0,4 -1,7 -1,11 3,-1 7,-2 10,-3 12,-11 23,-23 34,-33 3,0 7,0 10,0 1,2 1,2 1,15 -10,10 -20,21 -30,31 -3,3 -5,6 -7,10 -2,6 -4,13 -6,20 -4,6 -9,12 -12,18 -7,7 -13,14 -20,20 -6,0 -12,0 -17,0 -7,-3 -7,-3 -14,-4 0,3 -1,7 -2,10 -2,3 -4,7 -6,10 -1,3 -2,7 -2,10 5,1 10,1 14,1 6,5 13,10 20,14 7,7 14,13 20,20 4,3 7,5 10,7 3,0 5,0 7,0 10,-3 10,-3 18,-8 7,-17 7,-17 13,-26 18,-18 36,-36 54,-54 8,-5 8,-5 14,-11 7,-12 14,-23 21,-34 7,-20 20,-39 32,-58 77,-114 170,-219 255,-329 32,-40 87,-92 103,-142 13,-42 -8,-68 -8,-106 0,-25 12,-30 30,-14 20,17 40,37 55,61 26,40 31,47 73,55 6,7 10,13 11,19 4,18 -13,27 -25,46 -39,61 -47,142 -45,215 1,9 3,18 3,27 0,6 -2,13 -2,19 0,4 6,8 6,12 0,2 -1,4 -3,6 -15,14 -7,11 -5,26 2,24 -9,47 -23,65 -40,24 -105,32 -147,26 0,3 1,5 1,7 12,5 16,8 29,13 0,5 0,8 0,12 -3,0 -5,1 -7,1 -5,5 -10,11 -15,15 -3,4 -5,7 -7,11 0,3 0,6 0,10 2,2 3,4 4,6 3,2 6,4 8,5 4,4 8,8 12,12 0,6 0,12 0,17 -8,8 -8,8 -17,14 0,3 0,6 0,10 2,1 2,1 29,4 14,14 24,21 31,27 3,1 7,2 10,2 -1,-4 -1,-9 -2,-13 -1,-1 -3,-3 -3,-3 -2,-4 -3,-7 -4,-10 0,-11 0,-21 0,-31 2,-2 4,-4 6,-5 6,0 11,0 16,0 2,1 3,2 4,3 3,0 5,0 7,0 2,-3 4,-7 6,-10 21,-5 -21,-74 14,-92 20,-3 38,-7 57,-10 34,-23 53,-35 95,-37 11,-5 23,-7 29,-18 23,-116 64,-255 108,-366 3,-3 7,-7 10,-10 0,-7 0,-7 -1,-9 -19,0 -37,-1 -54,-1 0,-3 0,-7 0,-10 10,-2 10,-2 64,-5 2,-2 2,-2 4,-22 2,-2 3,-3 4,-3 4,-28 4,-28 4,-39 -4,-13 -4,-13 -10,-30 -5,-5 -5,-5 -26,-19 -5,-1 -9,-2 -13,-3 -15,-1 -30,-1 -44,-1 -2,-5 -4,-10 -6,-14 -1,-2 -3,-4 -4,-5 -4,-1 -7,-2 -10,-2 -2,-10 -2,-10 -2,-20 12,-13 17,-37 23,-54 5,-6 5,-6 24,-17 0,-11 0,-23 0,-33 -2,-4 -4,-7 -5,-9 -2,0 -5,0 -7,0 -12,21 -29,48 -32,73 -17,17 -21,-28 -27,6 -1,1 -1,2 -2,2 -6,0 -12,-3 -19,-6 -21,-10 -45,-32 -62,-41 -20,-10 -95,-52 -111,-73 -19,-24 -45,-54 -55,-67 -15,-21 1,-18 11,-11 10,7 21,16 31,24 15,12 28,24 43,39 6,4 13,9 20,13 25,13 48,17 68,37 4,2 9,4 13,6 1,-7 1,-7 3,-9 5,0 10,0 14,0 2,1 3,3 3,3 17,0 38,-3 52,-3 10,3 10,3 17,3 2,-2 5,-3 8,-5 0,-3 0,-6 0,-10 -4,-3 -8,-6 -12,-9 -31,-7 -49,-18 -78,-26 -1,-2 -3,-3 -4,-5 -9,-6 -20,-11 -30,-16 -28,-11 -15,-31 7,-17 17,6 17,6 44,13 3,4 4,7 7,10 10,5 20,10 30,15 3,0 5,0 7,0 2,-2 2,-2 2,-40 -4,-3 -6,-6 -9,-8 -49,-10 -95,-22 -147,-28 -66,-7 -119,-56 -182,-76 -78,-26 -112,-21 -172,-13 0,-3 0,-6 0,-10 3,0 5,0 7,0 -1,-6 -2,-13 -3,-20 3,-1 5,-1 7,-2 4,-5 4,-5 11,-18 0,-3 0,-7 0,-10 -1,-2 -3,-3 -3,-4 0,-3 0,-7 0,-10 3,-4 6,-8 8,-12 4,-3 7,-5 11,-7 8,0 16,0 23,0 2,-1 2,-1 4,-18 2,-2 5,-3 8,-4 2,-4 4,-6 5,-9 5,-5 10,-9 14,-13 4,-1 9,-2 13,-2 1,10 3,20 4,31 3,0 6,0 10,0 1,-21 1,-21 3,-27 16,-2 32,-4 47,-6 4,-1 7,-3 11,-3 6,0 11,0 16,0 7,1 14,3 21,3 2,2 4,3 6,4 14,0 28,0 42,0 2,2 4,4 6,6 5,2 10,3 14,4 3,3 5,6 8,8 0,3 0,5 0,8 -2,1 -2,1 -8,1 -3,-3 -5,-5 -7,-7 -7,0 -7,0 -13,2 0,3 0,5 0,7 4,1 9,2 13,4 -1,2 -1,5 -2,6 -4,2 -8,3 -11,4 0,-3 0,-5 0,-7 -3,0 -5,0 -7,0 0,-3 0,-5 0,-7 -7,-3 -14,-6 -21,-9 -14,0 -14,0 -41,3 0,1 -1,2 -2,3 0,2 0,5 0,7 8,2 15,5 23,8 7,1 14,3 20,3 14,10 28,19 41,27 5,5 10,10 13,14 7,3 12,4 17,6 7,7 7,7 17,14 14,4 14,4 20,7 7,0 12,0 18,0 1,1 2,3 3,3 10,5 20,10 30,14 2,3 4,6 5,8 0,7 0,14 0,21 -2,3 -3,5 -5,8 -6,0 -11,0 -17,0 -3,-3 -6,-5 -10,-7 -11,-1 -23,-3 -34,-3 -6,-6 -11,-12 -16,-17 -4,-3 -7,-5 -11,-7 -9,-3 -18,-5 -27,-7 -2,-3 -4,-4 -6,-6 -4,-1 -7,-2 -10,-2 0,-2 0,-5 0,-7 -5,-1 -9,-2 -13,-3 -3,-13 -3,-13 -6,-20 -3,-2 -6,-4 -9,-6 -10,0 -20,0 -31,0 -4,-4 -9,-9 -13,-13 -3,0 -5,0 -7,0 -2,3 -4,6 -5,9 -1,4 -1,9 -1,13 12,2 25,4 37,5 4,6 9,11 13,17 4,1 7,3 11,3 7,8 13,16 20,24 4,2 7,4 10,7 17,3 17,3 24,6 2,8 3,15 5,23 5,4 5,4 12,6 0,-3 0,-6 0,-10 7,1 13,2 20,2 3,1 7,2 10,3 2,4 3,8 3,12 14,-2 14,-2 38,-2 2,2 3,4 5,6 0,6 1,11 1,16 3,0 5,0 7,0 1,-2 2,-4 2,-6 2,-3 4,-4 5,-6 6,0 11,0 17,0 5,3 9,5 14,7 13,3 26,5 40,7 4,2 9,4 13,7 3,0 5,0 7,0 2,-2 2,-2 2,-9 -4,-6 -4,-6 -11,-13 -1,-3 -2,-7 -3,-10 -2,-2 -4,-4 -5,-6 -6,-1 -11,-2 -17,-3 -3,-3 -6,-5 -10,-7 -3,-1 -4,-1 -7,-1 0,3 0,5 0,7 -3,-2 -6,-3 -8,-4 -1,-3 -1,-5 -1,-6 -7,-3 -7,-3 -11,-6 -4,-1 -9,-1 -13,-1 -1,-12 -2,-23 -2,-34 2,-2 4,-4 5,-5 4,-1 7,-2 10,-2 -1,-9 -2,-18 -3,-27 5,1 9,1 14,1 1,3 3,5 4,6 2,7 3,13 3,20 0,8 0,17 0,24 2,1 2,1 9,1 2,-2 4,-5 5,-8 0,-3 0,-5 0,-7 -3,-17 -3,-17 -7,-23 0,-8 0,-16 0,-24 4,-9 7,-18 11,-27 -1,-7 -2,-14 -2,-20 -3,0 -5,0 -7,0 -2,10 -4,20 -5,30 -2,1 -2,1 -15,1 -2,-1 -4,-3 -5,-4 -4,-17 -4,-17 -7,-24 0,-8 0,-16 0,-24 3,-4 6,-6 9,-9 4,0 9,0 13,0 5,5 10,10 14,14 2,0 5,1 6,1 2,-13 2,-13 5,-26 7,-14 13,-27 20,-41 3,-3 5,-5 7,-7 3,-4 5,-9 7,-13 1,-2 3,-3 4,-4 3,-6 7,-13 10,-20 0,-3 0,-4 0,-7 -2,-2 -5,-4 -7,-6 -4,-9 -8,-18 -12,-26 -3,0 -4,0 -7,0 -5,5 -10,11 -15,16 -7,10 -7,10 -12,21 -13,0 -13,0 -15,-1 0,-6 0,-12 0,-17 3,-7 7,-14 10,-20 2,-2 4,-4 5,-6 4,0 7,-1 11,-1 0,-20 1,-41 1,-61 0,-1 1,-1 2,-2 6,0 11,0 17,0 2,1 5,3 7,3 6,0 12,0 17,0 8,-8 15,-18 22,-25 8,-12 16,-25 23,-37 0,-14 0,-14 -1,-16 -4,-1 -7,-1 -10,-1 -1,3 -1,5 -2,6 -7,11 -14,21 -20,31 -4,7 -9,15 -12,22 -3,3 -4,5 -7,7 -4,0 -7,0 -10,0 -2,-2 -5,-3 -6,-5 0,-3 0,-7 0,-10 3,-5 5,-9 7,-14 3,-3 5,-5 7,-7 3,-5 5,-9 7,-13 14,-21 14,-21 20,-27 3,-7 5,-12 7,-17 0,-7 0,-14 0,-21 2,-1 2,-1 17,-6 3,-24 3,-24 3,-37 -2,-8 -4,-14 -7,-20 -3,-9 -7,-14 -16,-7 -3,2 -5,5 -8,11 -4,0 -7,0 -11,0 -5,-4 -6,-17 -13,-24 -7,-3 -14,-10 -24,-17 -14,-3 -18,-3 -27,-13 -7,-4 -13,-8 -19,-11 -1,-4 -1,-7 -1,-10 9,-1 20,-2 30,-3 3,11 6,14 16,13 5,0 9,0 12,2 16,9 25,21 47,25 -1,-10 -2,-19 -2,-27 16,-15 37,-23 54,-41 0,-12 -7,-28 -14,-9 -3,8 -8,14 -15,20 -15,10 -27,20 -45,21 -13,1 -25,1 -33,-9 -6,-9 -1,-17 10,-28 17,-8 26,-12 39,-26 14,-20 14,-20 26,-43 8,-4 15,-8 24,-8 0,-3 0,-7 0,-10 -7,2 -14,5 -38,12 -23,0 -26,1 -18,-22 8,-13 17,-26 26,-39 7,-9 9,-12 -4,-12 -1,3 -2,5 -4,8 -11,19 -29,42 -46,56 -7,11 -14,17 -34,48 -4,1 -8,3 -11,3 0,3 0,5 0,7 2,0 5,0 6,0 1,14 2,28 2,41 -2,1 -2,1 -15,1 -4,-2 -6,-5 -9,-8 -1,-4 -1,-9 -1,-13 3,0 4,0 6,0 0,-3 0,-5 0,-8 -4,0 -9,0 -13,0 0,3 0,6 0,8 -3,0 -5,0 -7,0 0,-8 0,-14 0,-21 3,0 5,0 7,0 0,-3 0,-7 0,-10 -6,0 -11,0 -17,0 -1,3 -1,5 -2,7 -3,1 -5,2 -8,3 -2,-27 -2,-27 -2,-54 1,-3 1,-5 2,-7 7,-1 14,-3 20,-3 1,5 2,9 2,13 5,5 5,5 12,7 -6,-14 -6,-14 -9,-30 0,-9 0,-18 0,-27 0,-27 -1,-22 0,-41 2,0 7,0 12,-1 12,-1 19,4 29,14 16,14 42,34 63,20 7,-5 6,-12 11,-19 6,-9 22,-11 22,-17 0,-6 -2,-7 4,-8 10,-1 10,-7 11,-13 0,-4 1,-8 5,-12 3,-3 10,1 18,3 28,4 24,-7 26,-28 1,-23 4,-52 7,-55 3,-15 38,-13 48,-23 9,-6 3,-15 7,-26 4,-10 8,-20 13,-26 4,-15 3,-20 7,-30l5 -5c4,-5 -2,-15 3,-20 5,-5 14,-16 13,-21 9,-20 16,-51 19,-66 0,0 0,-5 0,-10 0,0 -38,-36 -38,-41l0 0c-11,-4 -10,6 -20,2 -10,-4 -22,-33 -33,-37 -4,0 -14,6 -24,2 -10,-4 -12,-24 -27,-23 -5,1 -4,6 -10,1 0,0 0,-5 0,-10 -7,-19 -26,-7 -40,-1 -9,-8 -14,-15 -26,-17zm341 2493c-1,0 -1,0 -2,-1 0,-10 0,-20 0,-30 -1,-1 -2,-2 -4,-4 0,-3 0,-6 -1,-10 6,0 11,1 17,1 3,8 7,15 11,23 0,3 0,7 0,10 -3,3 -7,7 -11,11 -4,0 -7,0 -10,0l0 0zm-61 -11c0,-2 0,-4 1,-7 4,-7 9,-13 14,-20 0,-3 2,-7 3,-10 7,-7 16,-12 26,-22 4,-1 8,-3 13,-4 3,-1 6,-3 8,-5 0,-4 0,-8 0,-13 0,-1 -2,-2 -3,-4 -3,-16 -3,-16 -7,-50 -1,-2 -3,-3 -5,-6 -5,0 -10,0 -16,0 -2,2 -4,4 -6,6 0,3 0,6 0,10 1,1 2,2 4,3 0,2 0,4 0,7 -7,6 -15,12 -22,18 -5,0 -11,0 -17,0 -1,-1 -3,-2 -5,-4 0,-10 0,-21 0,-31 -3,-4 -5,-8 -8,-12 -4,0 -7,0 -10,0 -5,4 -9,8 -13,12 -7,10 -7,10 -14,17 -3,1 -8,2 -11,4 0,-3 1,-5 1,-7 3,-4 7,-9 10,-14 2,-5 5,-11 7,-17 5,-4 10,-8 14,-13 1,-4 1,-9 2,-14 -6,0 -13,-1 -21,-2 -4,-3 -8,-5 -12,-8 0,-12 0,-24 -1,-37 5,-1 11,-1 16,-2 1,-1 2,-2 4,-3 7,0 7,0 18,3 5,6 12,12 18,19 7,13 7,13 10,17 0,3 0,7 0,10 -8,4 -8,4 -17,13 0,4 0,9 0,14 2,1 2,1 12,1 2,0 5,-2 7,-3 10,-1 20,-2 30,-3 4,-3 7,-5 10,-7 2,0 5,0 7,0 8,3 16,7 24,10 12,1 24,2 37,3 4,2 9,4 14,7 2,2 4,4 6,7 8,2 16,4 24,6 0,3 2,6 3,9 -5,0 -11,0 -16,0 0,4 0,9 1,14 2,3 5,5 9,8 7,0 15,0 23,0 7,-1 16,-2 24,-4 15,1 30,2 45,3 0,2 0,3 0,6 -12,2 -24,3 -35,5 -21,0 -42,0 -64,0 -4,-1 -9,-2 -14,-3 -1,-1 -2,-2 -3,-4 -6,0 -11,0 -17,0 -20,14 -20,14 -26,19 -2,4 -4,9 -6,14 -4,3 -8,7 -12,11 -17,4 -17,4 -19,6 0,3 -2,6 -3,10 -20,20 -20,20 -32,35 -3,0 -7,1 -10,2l0 0zm-1073 -33c-3,-1 -6,-2 -9,-4 0,-2 -1,-4 -1,-7 5,1 10,3 17,5 0,2 2,5 3,9 -3,-1 -7,-2 -10,-3l0 0zm-177 -209c12,-5 23,-10 34,-15 8,-4 16,-9 24,-13 4,-1 9,-3 13,-4 4,-2 7,-4 11,-6 7,0 15,0 23,0 4,-5 9,-9 14,-14 0,-3 2,-6 3,-8 2,0 4,0 7,0 -1,4 -1,9 -2,13 -4,5 -8,10 -12,15 -6,1 -13,2 -20,4 -1,1 -3,3 -5,5 0,3 0,7 0,10 6,10 6,10 13,25 0,1 0,3 0,6 -2,2 -4,4 -7,7 0,3 0,7 0,10 2,1 4,3 6,5 9,0 17,0 27,0 14,3 14,3 15,5 0,10 0,10 -1,12 -11,0 -23,2 -34,3 -34,7 -34,7 -44,10 -7,7 -14,14 -21,20 -1,3 -3,6 -5,9 0,6 -1,11 -1,17 -4,0 -7,-1 -10,-2 -41,-27 -41,-27 -50,-35 0,-2 0,-4 -1,-7 7,2 7,2 37,2 3,-3 7,-4 10,-7 4,-1 7,-2 10,-3 1,-1 2,-3 4,-4 5,-1 10,-2 17,-3 13,-7 13,-7 16,-11 5,-1 10,-2 15,-4 1,-4 2,-9 2,-14 -20,2 -20,2 -37,5 -7,3 -13,7 -20,10 -24,7 -24,7 -30,7 -5,-2 -9,-4 -14,-7 -7,-1 -13,-2 -20,-3l0 -1 13 -21 20 -18 0 0zm129 179c-2,-2 -4,-4 -7,-7 -4,0 -9,0 -13,-1 0,-2 0,-4 0,-7 6,0 13,1 20,2 1,1 3,3 5,5 1,3 2,7 2,10 -2,-1 -4,-1 -7,-2l0 0zm1215 -41c-1,-1 -3,-2 -5,-4 0,-7 0,-14 0,-21 1,-1 3,-3 5,-5 6,0 11,0 18,0 1,2 1,2 1,26 -3,1 -6,3 -9,4 -2,0 -6,0 -10,0l0 0zm-548 -6c-7,-7 -7,-7 -27,-21 -5,-7 -5,-7 -9,-18 0,-3 0,-7 -1,-10 3,0 7,1 10,2 1,0 2,1 3,3 8,1 16,2 24,3 10,7 10,7 20,17 4,1 9,2 14,2 0,3 0,7 0,10 -5,0 -11,1 -17,2 -2,3 -4,6 -7,10 -3,0 -6,0 -10,0l0 0zm-572 -15c0,-4 0,-9 0,-13 -10,1 -10,1 -12,0 0,-4 0,-7 0,-11 1,-1 1,-1 2,-2 4,0 9,0 13,0 14,7 14,7 15,9 0,13 0,13 -1,15 -5,1 -11,1 -17,2l0 0zm508 -36c-4,-1 -7,-2 -10,-3 -7,-7 -7,-7 -16,-12 0,-4 -1,-8 -1,-13 5,0 11,1 17,1 3,4 7,8 11,12 0,15 0,15 -1,15l0 0zm-383 -32c0,-2 1,-4 1,-6 6,-6 6,-6 13,-9 6,-1 13,-2 20,-4 2,0 4,-2 7,-3 8,-1 16,-3 24,-5 -1,3 -2,6 -4,8 -5,1 -11,3 -17,4 -3,2 -7,4 -10,7 -17,3 -24,6 -34,8l0 0zm-318 -12c-2,0 -4,-1 -7,-1 0,-6 0,-11 0,-17 6,0 11,0 17,0 0,5 0,11 0,17 -3,0 -7,0 -10,1l0 0zm1442 -13c-4,-2 -7,-4 -10,-7 -6,-1 -11,-2 -17,-3 -5,-5 -9,-10 -14,-15 -10,-6 -17,-13 -23,-16 -6,0 -11,0 -17,0 -10,4 -20,8 -30,13 -2,1 -4,3 -6,6 0,3 -1,6 -2,10 3,0 5,1 8,2 0,2 1,5 2,8 -10,-2 -10,-2 -26,-8 -3,-4 -7,-7 -11,-11 -5,-4 -10,-7 -16,-10 -12,-2 -24,-4 -37,-7 -11,-7 -17,-14 -38,-27 -6,-7 -16,-14 -31,-27 -3,-2 -7,-4 -10,-7 -7,-6 -13,-13 -20,-20 -4,-2 -9,-4 -14,-7 -16,-3 -23,-7 -47,-13 -3,-3 -6,-4 -10,-7 -3,0 -7,0 -10,0 -11,7 -23,13 -34,20 -3,1 -7,2 -10,3 -4,0 -9,0 -14,0 -2,-2 -5,-5 -8,-7 -2,-6 -5,-12 -7,-18 -14,-13 -14,-13 -20,-23 0,-3 -1,-7 -2,-10 14,1 27,2 41,5 10,0 20,0 30,0 51,-7 51,-7 52,-9 0,-5 0,-10 0,-16 -3,-5 -6,-9 -10,-14 0,-2 -1,-4 -1,-7 -27,2 -27,2 -51,0 0,-2 1,-4 2,-6 5,-6 5,-6 12,-9 3,0 7,0 10,0 2,2 4,4 7,6 5,0 10,0 17,-1 -2,-19 -4,-39 -6,-58 -2,-6 -4,-11 -7,-17 0,-12 0,-24 0,-37 2,-5 4,-11 7,-17 1,-5 2,-11 4,-17 17,-17 35,-36 53,-54 7,-10 7,-10 16,-19 10,0 23,0 34,0 4,5 8,10 12,16 2,5 4,10 7,17 2,3 4,6 7,10 15,11 28,18 30,20 0,2 0,4 0,7 -3,2 -4,4 -7,7 0,13 0,13 2,20 7,1 7,1 14,5 3,0 8,0 13,0 5,-2 11,-5 17,-7 4,-4 9,-9 13,-14 21,-3 58,-6 59,-8 1,-5 1,-11 2,-17 7,-2 7,-2 14,-2 0,1 2,2 3,4 4,0 7,0 10,0 4,-1 7,-2 10,-4 4,-2 7,-4 11,-7 1,0 3,0 6,-1 -1,4 -1,9 -2,14 -6,6 -6,6 -14,17 -7,4 -14,8 -23,13 0,4 -1,9 -1,13 7,0 15,1 23,2 1,2 1,2 1,9 -6,7 -13,17 -19,23 -3,1 -6,2 -8,4 -1,-4 -2,-8 -4,-13 -3,0 -7,-1 -10,-3 -1,-1 -2,-2 -3,-3 -10,0 -10,0 -18,2 -2,7 -2,7 -5,10 0,4 0,9 -1,14 4,0 6,0 10,1 1,0 2,2 4,3 13,3 13,3 14,6 0,2 0,4 0,6 0,3 -2,5 -3,8 -4,4 -9,8 -14,13 -2,2 -5,3 -7,5 -11,1 -21,2 -31,3 -1,-1 -4,-2 -6,-4 0,-4 0,-7 0,-10 2,-2 4,-4 6,-6 17,-3 17,-3 18,-5 0,-5 1,-11 2,-17 -9,0 -17,1 -27,1 -1,2 -3,3 -5,6 -2,13 -4,27 -7,41 -5,5 -5,5 -12,8 -7,1 -15,2 -23,3 -4,3 -7,4 -10,7 -5,5 -10,10 -16,16 -3,11 -6,22 -10,33 -1,1 -2,2 -3,4 -3,7 -5,15 -7,23 0,14 0,14 3,34 2,1 12,1 14,0 0,-9 2,-18 3,-27 4,-4 8,-10 12,-15 2,0 5,0 7,0 3,2 7,3 10,6 4,1 7,2 10,2 0,3 1,4 2,7 0,1 2,2 3,3 2,6 4,11 7,18 1,1 3,2 5,4 14,0 14,0 34,-3 3,-3 6,-6 8,-8 0,-5 1,-9 2,-14 -10,-2 -10,-2 -24,-2 -3,1 -6,1 -10,2 2,-7 2,-23 0,-30 3,0 5,0 7,1 3,2 7,4 10,7 8,0 15,1 24,2 0,2 1,4 1,7 7,10 14,16 20,27 11,10 23,22 34,33 9,15 18,30 27,44 0,2 0,4 0,7 -2,2 -4,4 -6,7 0,2 -1,4 -2,6 17,2 17,2 27,0 0,5 1,9 2,14 8,5 12,9 18,12 28,0 28,0 35,-1 0,3 0,6 0,10 -6,0 -11,1 -17,1 -1,1 -2,2 -4,4 -3,0 -6,0 -10,0l0 0zm-1036 -4c0,0 -1,0 -2,-1 0,-2 0,-4 0,-7 7,-6 13,-13 19,-19 2,-1 4,-2 7,-4 7,0 14,-2 20,-3 2,-1 5,-2 7,-3 21,0 21,0 22,-2 0,-4 0,-9 0,-13 -1,-2 -3,-4 -5,-6 -5,-3 -10,-5 -16,-8 0,-2 0,-4 -1,-7 4,0 9,1 14,2 1,-2 2,-3 4,-5 2,-7 4,-16 6,-24 2,0 4,0 6,0 0,5 1,9 2,14 2,7 4,13 7,20 0,7 2,14 3,20 0,6 0,11 0,17 -10,5 -21,11 -32,16 -2,0 -4,0 -7,0 -2,-2 -4,-3 -6,-4 -6,0 -11,0 -17,0 -5,9 -5,9 -14,17 -5,0 -10,0 -17,0l0 0zm1155 -3c-2,-2 -4,-4 -7,-7 -7,-1 -16,-2 -24,-3 -2,-2 -2,-2 -3,-12 7,0 15,0 24,1 3,3 6,7 10,11 8,-1 17,-2 27,-2 0,2 0,4 0,7 -4,0 -9,1 -14,2 0,0 -2,1 -3,3 -4,0 -7,0 -10,0l0 0zm-1036 -22c0,-4 0,-9 0,-14 3,0 7,-1 10,-2 34,0 34,0 40,-1 0,3 0,6 0,10 -12,-1 -24,-1 -37,-2 -2,2 -4,4 -6,7 -3,0 -5,1 -7,2l0 0zm125 -76c-5,-5 -8,-12 -33,-36 0,-2 0,-4 -1,-7 4,0 9,1 13,2 2,-2 3,-3 5,-5 1,-7 1,-13 2,-20 4,0 7,1 11,1 3,18 7,35 11,53 0,10 0,10 -1,12 -2,0 -4,0 -7,0l0 0zm-531 -21c-1,0 -2,-1 -2,-1 0,-4 0,-9 0,-14 0,-1 1,-1 2,-2 3,0 6,0 10,0 1,2 1,2 1,13 -1,1 -2,2 -5,4 -1,0 -3,0 -6,0l0 0zm1398 -7c-3,-1 -5,-2 -9,-4 0,-4 -1,-7 -1,-11 3,0 6,1 10,2 3,1 5,3 8,5 0,7 0,7 -1,8 -2,0 -4,0 -7,0l0 0zm-1260 -74c-2,0 -4,-2 -7,-3 -5,0 -10,-1 -16,-2 0,-4 0,-8 0,-13 13,1 13,1 23,5 2,2 4,4 7,6 1,3 2,6 3,9 -3,-1 -6,-1 -10,-2l0 0zm745 -21c2,-14 2,-14 5,-24 1,-1 3,-4 5,-6 4,0 7,0 10,-1 0,3 -1,7 -2,10 0,1 -2,2 -3,4 -1,4 -3,9 -5,14 -3,1 -7,2 -10,3l0 0zm257 -84c0,0 -1,-1 -2,-2 0,-6 0,-13 0,-20 3,-1 6,-3 9,-5 9,0 18,0 27,0 2,-2 3,-3 5,-5 1,-2 1,-4 2,-7 7,0 13,0 21,0 -2,4 -2,9 -3,14 -1,1 -2,2 -5,4 -5,1 -10,3 -17,4 -3,5 -7,10 -12,15 -2,1 -5,2 -8,4 0,-4 -2,-9 -3,-14 -2,0 -4,0 -7,0 0,4 -1,7 -2,10 -1,0 -3,1 -5,2l0 0zm85 -24c-3,0 -7,-1 -11,-1 0,-4 1,-7 2,-11 3,-1 6,-3 9,-5 3,0 7,-1 10,-1 0,4 1,9 2,13 -4,2 -8,3 -12,5l0 0zm-91 -57c-2,-2 -2,-2 -4,-8 7,-1 14,-2 20,-3 8,-3 16,-8 24,-13 11,-4 20,-9 30,-14 24,-6 24,-6 51,-11 -1,3 -2,5 -3,8 -4,3 -9,7 -13,10 -11,1 -21,2 -31,4 -10,4 -20,8 -31,13 -5,3 -10,7 -16,10 -17,4 -17,4 -27,4l0 0zm254 -11c-5,-4 -8,-9 -12,-14 0,-2 0,-4 0,-7 12,-12 12,-12 22,-19 2,0 4,0 7,-1 -1,14 -2,29 -4,44 -4,-1 -8,-2 -13,-3l0 0zm-481 -118c-2,0 -4,-2 -7,-3 -18,1 -36,1 -54,2 0,-4 0,-7 0,-10 -2,0 -4,0 -7,0 0,3 -2,5 -3,8 -7,1 -14,1 -20,2 -2,-7 -2,-7 -2,-17 1,-1 3,-3 5,-5 11,-1 22,-2 34,-4 5,-3 10,-6 17,-10 5,0 11,0 16,0 1,2 2,5 4,9 2,0 4,1 7,1 6,7 13,14 20,21 -2,1 -2,1 -3,8 -2,0 -5,-1 -7,-2l0 0zm-115 -3c-10,-2 -20,-4 -31,-7 -7,-3 -7,-3 -20,-7 -4,-2 -8,-5 -13,-7 -1,-5 -2,-9 -4,-13 -4,-3 -8,-6 -12,-9 0,-2 -1,-4 -2,-6 -2,0 -4,0 -6,0 -1,2 -2,4 -3,6 -1,-2 -1,-2 -8,-3 0,-2 0,-4 0,-7 -2,0 -5,-2 -8,-3 0,-4 -1,-7 -2,-10 6,0 11,0 17,1 4,2 9,4 14,7 2,2 4,4 7,7 5,2 10,4 16,6 1,1 2,2 4,4 5,2 11,4 17,7 5,3 10,6 16,10 9,2 19,4 28,6 -2,16 -2,16 -3,18 -2,0 -4,0 -7,0l0 0zm118 -20c-7,-8 -15,-15 -22,-23 0,-4 0,-8 0,-13 0,-1 1,-1 2,-2 7,0 16,0 24,0 1,3 2,5 5,9 0,28 0,28 -2,29 -2,0 -4,0 -7,0l0 0zm-37 -90c0,-2 0,-4 0,-7 -3,0 -5,-2 -9,-3 -3,-21 -3,-21 -4,-41 2,0 3,0 6,0 2,8 3,16 5,24 7,17 7,17 9,27 -2,0 -4,0 -7,0l0 0zm-281 -59c-2,-1 -4,-3 -7,-4 -4,0 -8,-1 -13,-1 -1,-7 -2,-14 -4,-20 2,0 5,0 7,0 0,1 0,4 0,6 2,0 4,0 7,0 -1,-3 -1,-6 -2,-10 -2,-1 -3,-3 -5,-5 3,0 7,0 10,0 7,6 7,6 15,19 0,13 0,13 -1,15 -2,0 -4,0 -7,0l0 0zm172 -38c-8,-6 -17,-12 -25,-18 0,-2 -1,-4 -2,-7 4,0 7,1 10,2 7,6 7,6 17,13 3,1 4,2 7,2 0,4 0,7 0,10 -2,0 -4,-1 -7,-2l0 0zm-54 -213c-2,-3 -5,-5 -9,-8 0,-3 0,-7 -1,-10 2,0 4,0 7,1 5,5 9,10 15,16 -1,1 -1,1 -12,1l0 0zm-358 -69c0,-10 0,-20 1,-30 2,-2 2,-2 9,-4 -1,-3 -2,-5 -3,-9 -4,0 -7,0 -11,-1 0,-2 0,-4 0,-6 6,0 11,0 17,1 2,2 2,2 2,22 -1,1 -3,2 -4,3 0,8 -1,16 -1,24 -3,0 -7,0 -10,0l0 0zm321 -9c-4,-3 -8,-5 -12,-8 0,-2 -1,-4 -1,-7 -14,-5 -14,-5 -28,-8 -10,-7 -10,-7 -22,-18 -1,-5 -2,-9 -4,-13 -3,-1 -6,-2 -9,-5 -2,-2 -3,-5 -5,-8 -2,-1 -4,-2 -7,-4 1,-3 2,-5 4,-8 3,0 6,0 10,1 4,3 9,7 13,11 4,1 9,2 14,3 10,7 17,14 27,20 4,1 9,3 13,4 5,4 10,8 15,12 2,3 4,7 7,10 0,17 0,17 -1,18 -4,0 -9,0 -14,0l0 0zm-250 -25c0,-2 0,-4 0,-6 -2,-1 -5,-2 -7,-3 -3,-2 -6,-5 -9,-7 0,-3 0,-5 0,-8 1,0 1,-1 2,-1 4,0 7,0 10,0 2,1 4,4 7,6 17,0 17,0 24,-1 0,-4 0,-7 0,-10 6,1 6,1 8,3 0,3 0,7 0,11 -2,1 -4,3 -7,6 -10,4 -19,7 -28,10l0 0zm27 -44c0,-3 0,-7 0,-10 -4,0 -7,0 -11,0 0,-4 0,-7 0,-11 8,1 16,3 24,4 -1,5 -3,9 -5,14 -3,1 -6,2 -8,3l0 0zm260 -53c-1,0 -1,-1 -2,-1 0,-4 0,-7 0,-10 1,-5 4,-9 6,-14 5,0 10,0 16,0 0,4 -1,7 -2,10 -3,4 -3,4 -7,15 -4,0 -7,0 -11,0l0 0zm-30 -18c-1,-4 -2,-9 -2,-14 -2,-2 -4,-4 -7,-6 -1,-8 -2,-16 -3,-24 -3,-5 -6,-10 -8,-16 -6,0 -11,0 -17,0 -2,3 -4,6 -6,9 -3,1 -7,2 -11,3 0,-6 0,-13 0,-20 4,0 9,-1 13,-2 3,-1 6,-3 8,-5 3,-5 5,-10 7,-16 7,-10 7,-10 14,-17 3,-17 3,-17 5,-19 4,0 9,0 14,0 2,2 4,4 6,7 5,8 10,16 15,25 0,14 0,27 0,41 -3,6 -3,6 -4,13 5,0 10,1 17,2 1,2 1,12 0,13 -6,1 -12,2 -17,3 -5,7 -9,13 -13,20 -3,0 -7,1 -11,3l0 0zm-24 -33c-1,0 -2,-2 -3,-3 -2,0 -4,-1 -7,-1 0,-6 0,-11 0,-17 4,0 7,0 10,0 0,3 1,6 2,10 0,1 2,2 3,3 1,4 1,7 2,10 -2,0 -4,-1 -7,-2l0 0zm-57 -31c-1,-4 -1,-9 -2,-14 -2,-1 -3,-3 -5,-5 -5,-2 -11,-4 -17,-7 -11,-2 -22,-4 -34,-7 -1,-3 -3,-5 -5,-8 0,-3 -1,-7 -1,-10 10,1 10,1 54,1 4,-2 9,-4 13,-6 7,-7 17,-14 30,-27 2,-3 3,-6 5,-9 4,-4 8,-8 13,-12 3,0 6,0 10,0 2,5 5,10 8,16 0,3 0,7 0,10 -8,5 -8,5 -17,13 -1,7 -2,14 -4,21 -2,4 -4,8 -6,13 -4,2 -8,3 -12,5 -5,4 -10,8 -15,12 -2,3 -4,7 -7,10 -3,1 -6,2 -8,4l0 0zm-92 -77c-15,0 -31,-2 -47,-3 -4,-2 -7,-4 -10,-7 -2,-2 -4,-5 -6,-8 0,-4 0,-9 -1,-14 13,2 13,2 92,2 4,-1 8,-2 13,-3 16,-9 31,-18 47,-27 3,-3 5,-5 7,-8 2,-1 4,-2 7,-3 4,0 9,0 13,0 7,7 15,15 22,23 0,4 0,8 0,13 -3,3 -7,7 -10,10 0,2 -1,4 -2,7 -1,0 -3,1 -6,1 -8,5 -16,9 -24,14 -3,0 -7,0 -10,0 -2,-1 -4,-2 -7,-3 -3,0 -7,0 -10,0 0,0 -2,2 -3,3 -7,1 -14,2 -20,3 -15,0 -30,0 -45,0l0 0zm71 -18c0,-2 0,-4 0,-7 3,0 5,-1 7,-2 4,-4 7,-8 10,-13 4,0 7,-1 11,-2 -1,2 -2,5 -2,7 -4,4 -9,9 -14,14 -3,0 -7,2 -12,3l0 0zm-277 -9c-1,-1 -3,-2 -5,-5 0,-3 -1,-6 -2,-10 2,0 4,1 7,2 5,4 9,8 15,12 -2,1 -2,1 -15,1l0 0zm416 0c-5,-5 -5,-5 -9,-11 0,-8 0,-16 0,-25 1,-2 2,-4 4,-6 0,-11 2,-23 3,-34 1,-1 3,-3 6,-5 3,0 6,0 9,0 2,2 3,5 5,8 0,27 0,27 -3,68 -2,2 -3,3 -5,5 -3,0 -6,0 -10,0l0 0zm-396 -6c0,-1 -2,-2 -3,-4 -2,0 -4,0 -7,-1 0,-2 0,-4 0,-7 -5,-1 -11,-2 -17,-3 0,-8 1,-17 2,-25 1,-2 3,-5 5,-8 5,-2 11,-5 17,-7 2,-2 4,-4 7,-7 6,0 13,0 20,0 1,2 1,2 1,19 -3,11 -7,24 -11,36 -4,2 -9,4 -14,7l0 0zm366 -14c-2,-1 -4,-3 -6,-5 -2,-6 -4,-13 -6,-21 0,-4 0,-8 0,-13 0,-1 1,-1 1,-2 6,0 11,-1 17,-1 5,31 5,31 5,41 -1,1 -1,1 -11,1l0 0zm-152 -21c-1,0 -2,-1 -2,-1 0,-4 0,-7 0,-10 1,-2 3,-4 5,-6 5,-2 11,-4 17,-7 4,-3 9,-6 13,-10 6,0 11,0 17,0 3,3 6,6 8,9 0,4 0,9 0,14 -2,1 -5,2 -8,4 -12,2 -24,4 -37,7 -4,0 -9,0 -13,0l0 0zm-65 -1c-1,-8 -1,-16 -2,-24 6,-6 12,-12 19,-19 3,0 6,-2 10,-3 2,-2 4,-4 7,-7 8,-3 16,-7 24,-10 7,-6 14,-12 22,-18 0,-4 1,-7 2,-10 -6,0 -11,0 -17,0 0,-4 0,-7 0,-11 6,-2 10,-5 20,-8 3,-4 7,-9 10,-14 3,-2 7,-4 10,-7 4,0 9,0 14,-1 -1,5 -2,11 -2,17 -14,13 -14,13 -21,24 0,6 -2,13 -3,20 -11,17 -22,36 -34,54 -4,3 -8,7 -12,11 -16,2 -31,4 -47,6l0 0zm-51 -6c-2,0 -4,0 -6,-1 0,-2 0,-4 0,-7 -7,0 -14,-1 -21,-2 -4,-3 -8,-7 -12,-11 -1,-4 -2,-9 -3,-14 -1,0 -2,-2 -4,-3 0,-2 0,-4 -1,-7 -7,-2 -7,-2 -12,-7 -1,-5 -2,-10 -4,-17 0,-8 0,-17 0,-27 3,-5 4,-10 7,-16 7,-7 7,-7 14,-17 0,-7 2,-14 3,-21 5,-13 11,-27 17,-40 0,-2 0,-4 0,-7 -4,-5 -7,-11 -10,-17 -1,-5 -2,-11 -4,-16 -2,-4 -4,-7 -6,-11 -5,-11 -10,-21 -15,-33 -2,0 -4,0 -7,0 -1,1 -1,1 -2,2 0,17 0,34 0,51 -3,2 -7,3 -12,5 -2,2 -4,4 -6,7 -4,1 -9,1 -14,2 0,-4 0,-9 0,-14 -4,0 -8,-1 -12,-3 0,-3 -1,-6 -1,-10 11,1 22,2 33,4 0,-3 -2,-6 -3,-9 -2,-2 -5,-3 -9,-5 0,-5 0,-10 0,-14 4,-10 4,-10 6,-24 3,0 6,0 10,0 -2,-7 -2,-7 -2,-20 1,-1 2,-2 3,-4 1,-3 2,-6 2,-10 4,0 7,0 11,0 -1,-2 -2,-4 -3,-6 0,-7 0,-14 0,-21 1,0 3,-2 4,-3 2,-6 4,-11 7,-17 1,-2 3,-4 6,-7 4,-7 9,-15 14,-23 6,-7 6,-7 13,-17 12,-11 24,-22 36,-33 31,-20 31,-20 37,-27 8,-3 16,-6 24,-10 1,0 2,-2 3,-3 8,-2 16,-4 24,-7 1,-1 3,-2 4,-3 7,-2 15,-4 24,-7 21,1 42,2 64,3 2,2 4,4 6,7 6,2 11,4 17,7 12,12 19,22 25,29 10,19 21,32 34,51 0,1 -1,2 -1,4 -2,0 -4,0 -7,0 -2,-2 -4,-4 -7,-7 -2,0 -4,0 -7,-1 0,2 1,4 2,7 1,3 3,5 5,8 2,1 4,1 7,2 1,7 2,15 3,24 2,0 4,0 7,0 0,-2 0,-4 0,-7 4,0 7,0 10,0 -1,4 -1,9 -2,13 -1,3 -2,6 -4,8 -7,4 -7,4 -17,6 -4,-11 -9,-22 -12,-34 -7,-8 -13,-17 -19,-26 -24,-13 -24,-13 -27,-16 -5,-2 -11,-4 -17,-7 -12,0 -24,0 -37,0 -11,3 -22,7 -34,10 -2,1 -5,3 -8,5 0,4 -1,9 -2,14 23,-5 45,-10 68,-16 7,0 15,0 23,0 5,2 9,4 14,7 2,2 4,4 7,7 6,11 12,21 18,32 2,7 4,14 7,20 0,14 0,14 -2,15 -3,0 -6,0 -10,0 -4,-4 -9,-8 -13,-13 -7,-4 -7,-4 -14,-5 0,3 1,7 2,10 -4,5 -8,10 -12,15 -7,1 -13,2 -20,3 -4,3 -9,5 -14,7 -5,1 -10,2 -17,4 -4,2 -8,4 -13,7 -10,1 -20,3 -31,5 0,2 1,4 2,7 13,13 13,13 27,23 13,18 13,18 27,31 3,2 5,3 9,5 6,7 13,14 20,20 7,4 15,7 23,10 2,2 3,4 5,6 0,3 0,7 0,10 -1,1 -2,3 -5,5 -3,0 -6,0 -10,0 -10,-7 -10,-7 -16,-14 -8,-3 -16,-7 -24,-10 -7,0 -14,0 -20,0 -7,1 -14,2 -21,3 -15,4 -31,9 -48,14 -11,6 -23,12 -35,19 0,3 -1,7 -2,10 11,-2 11,-2 17,-5 8,-1 16,-3 24,-4 7,-3 7,-3 20,-7 12,0 23,-2 35,-3 22,1 44,2 67,3 1,2 1,2 1,13 -1,2 -2,5 -4,8 -4,2 -7,4 -10,6 -5,1 -9,2 -14,4 -3,1 -5,3 -9,5 -2,4 -4,7 -6,10 0,-2 -1,-4 -2,-6 -7,-3 -7,-3 -10,-6 -12,0 -24,0 -37,0 -2,1 -5,2 -7,3 -8,0 -16,0 -24,0 -4,1 -9,3 -14,4 -9,5 -19,10 -29,16 0,3 0,6 0,10 2,1 2,1 13,1 2,-1 3,-2 6,-3 41,-7 41,-7 51,-7 2,2 2,2 2,12 -2,2 -5,4 -8,7 0,6 0,13 0,20 -1,1 -2,3 -4,5 -6,2 -11,4 -17,6 -13,13 -26,26 -39,40 -7,10 -7,10 -15,18 -7,1 -14,1 -20,2 -1,3 -2,7 -4,11l0 0zm224 0c-6,-1 -11,-2 -17,-4 0,-4 0,-9 0,-14 -4,0 -9,1 -14,1 -5,-4 -5,-4 -8,-11 0,-3 -1,-7 -2,-10 4,0 9,0 14,0 0,3 0,7 0,10 6,-2 6,-2 10,-5 13,-4 13,-4 24,-4 2,4 5,8 8,12 0,6 0,11 0,17 -2,3 -3,6 -5,8 -3,0 -7,0 -10,0l0 0zm30 -37c-1,0 -1,0 -2,-1 0,-4 0,-9 0,-14 1,0 2,-2 4,-3 0,-3 1,-7 3,-10 4,-6 8,-12 12,-19 4,0 9,0 14,0 2,5 5,10 8,15 0,4 0,7 0,11 -3,5 -4,10 -7,16 -1,2 -3,3 -5,5 -9,0 -17,0 -27,0l0 0zm-362 -35c-1,-5 -1,-11 -2,-17 -1,0 -2,-2 -3,-3 0,-4 0,-9 0,-14 3,-10 3,-10 5,-12 3,0 7,-1 10,-1 5,34 5,34 5,44 -1,1 -1,1 -15,3l0 0zm132 -2c-1,0 -2,-1 -2,-1 0,-2 0,-4 0,-7 5,-3 10,-6 15,-9 13,0 25,-2 37,-3 2,2 2,2 2,9 -3,1 -5,2 -8,4 -11,2 -23,4 -34,7 -3,0 -7,0 -10,0l0 0zm227 -7c-2,-1 -2,-1 -4,-8 -4,0 -8,0 -13,0 -1,-6 -2,-12 -3,-19 23,4 23,4 33,7 2,2 2,2 2,12 -3,3 -6,6 -9,8 -1,0 -4,0 -6,0l0 0zm71 -3c-14,-14 -24,-20 -37,-34 -7,-4 -14,-9 -21,-13 -20,-7 -20,-7 -29,-12 0,-3 0,-7 -1,-10 13,0 27,1 40,1 2,1 4,2 7,2 0,-3 0,-6 0,-10 -3,0 -7,-1 -10,-2 -1,-1 -3,-3 -5,-4 0,-2 -1,-5 -2,-7 14,-2 14,-2 31,-2 7,4 15,9 23,13 4,1 9,2 14,4 1,1 3,3 4,5 0,5 0,11 0,17 -3,20 -3,20 -3,30 1,4 2,7 3,10 0,11 0,11 -1,12 -4,0 -8,0 -13,0l0 0zm-352 -1c0,-3 1,-4 1,-7 9,-6 9,-6 19,-9 4,0 7,-1 10,-1 0,2 0,4 0,6 -5,2 -11,3 -17,5 0,1 -2,2 -3,3 -3,1 -7,2 -10,3l0 0zm-44 -33c-1,0 -1,-1 -2,-1 0,-8 -1,-16 -2,-24 6,0 11,0 18,0 -1,7 -2,14 -3,21 -1,1 -2,2 -4,4 -2,0 -4,0 -7,0l0 0zm-14 -47c-1,-1 -3,-3 -5,-5 -1,-10 -3,-20 -5,-30 4,0 7,0 10,0 0,2 0,4 0,7 5,0 9,0 14,0 -1,7 -1,15 -2,23 -2,2 -3,3 -5,5 -2,0 -4,0 -7,0l0 0zm301 -54c-1,-2 -3,-4 -6,-7 -14,-9 -27,-17 -41,-27 -4,-4 -8,-8 -12,-12 0,-3 -2,-7 -3,-10 -1,-1 -2,-2 -4,-4 0,-3 0,-6 -1,-10 4,0 9,-1 13,-2 1,0 3,-2 4,-3 4,0 9,0 13,0 5,3 9,7 14,10 9,3 18,7 27,10 1,6 3,13 5,20 2,4 4,9 6,13 0,20 0,20 -1,22 -4,0 -9,0 -14,0l0 0zm-226 -3c-2,-3 -4,-6 -6,-8 0,-6 -2,-11 -3,-18 -1,0 -2,-2 -4,-3 -3,-14 -6,-21 -13,-44 -1,-1 -2,-3 -3,-4 0,-17 0,-17 2,-27 7,1 15,2 23,4 0,2 0,4 0,6 -2,0 -4,0 -6,0 1,10 2,21 4,31 2,1 13,1 14,0 0,-6 0,-11 0,-17 -1,-1 -2,-2 -4,-4 0,-1 0,-4 0,-6 4,-7 7,-21 9,-23 17,0 17,0 24,2 0,3 0,4 0,7 -4,0 -9,0 -14,0 2,7 2,7 4,8 13,0 13,0 14,-1 1,-7 3,-14 4,-20 0,-14 -1,-27 -1,-41 2,-1 4,-1 6,-2 4,-5 8,-9 12,-15 8,-8 17,-17 25,-25 4,-2 7,-4 11,-7 6,-7 13,-14 20,-20 5,0 9,-1 14,-2 -1,2 -1,4 -2,7 -7,7 -7,7 -15,11 -15,15 -31,31 -46,46 0,4 0,7 0,11 2,1 5,2 8,4 1,4 2,8 4,12 3,0 6,-1 10,-2 1,0 2,-2 3,-3 7,-1 14,-2 21,-3 1,-1 2,-2 3,-4 4,0 7,0 11,0 6,4 20,7 27,10 7,0 15,0 23,-1 0,2 0,4 0,7 -12,1 -24,3 -37,4 -7,4 -7,4 -24,7 -1,1 -2,2 -3,4 -11,2 -23,4 -34,6 -4,0 -7,0 -10,0 -1,0 -2,-2 -4,-3 -4,0 -9,0 -13,0 -1,1 -2,1 -2,2 0,6 0,11 0,17 15,5 15,5 17,7 0,3 0,6 0,10 -2,1 -3,3 -5,4 -4,1 -9,3 -14,4 -4,4 -8,8 -12,12 -2,4 -4,9 -7,14 -2,2 -4,4 -6,6 -1,5 -2,10 -4,14 -4,9 -9,17 -14,26 -3,0 -5,0 -7,0l0 0zm84 -15c0,-4 1,-7 2,-11 0,0 1,-2 3,-3 1,-3 2,-7 3,-11 0,-4 0,-8 0,-13 -2,-2 -4,-4 -6,-7 0,-3 0,-7 0,-10 0,-1 1,-1 1,-2 3,0 5,0 7,0 4,5 8,10 12,15 2,1 5,3 9,4 0,3 0,7 0,10 -5,-1 -9,-2 -14,-3 -1,6 -3,13 -6,20 -1,3 -2,6 -4,9 -2,0 -4,1 -7,2l0 0zm310 -168l1 10c9,-6 9,-6 -1,-10l0 0zm-16 -19l5 10c10,4 10,-6 -5,-10l0 0zm25 -56c0,5 1,15 1,20 0,5 -14,11 -13,16 -4,10 0,5 1,10 5,4 14,3 9,-1 15,-2 24,-7 34,-13l-1 -5c-5,-4 -20,-13 -20,-13 -1,-5 -6,-9 -6,-14l-5 0 0 0zm73 -6c1,5 1,10 1,15l5 0c5,-1 6,9 11,8l9 -5c0,-5 -1,-15 -1,-20l-25 2 0 0zm-143 -122c0,5 -5,6 -10,6l7 15c5,-1 4,-6 9,-6l-1 -5c10,-6 5,-10 -5,-10l0 0zm14 -11l5 10c0,0 6,4 11,4 0,0 9,-11 -1,-15 -5,1 -10,1 -15,1l0 0zm73 -258l4 0 -4 0 0 0zm50 598c0,-6 -1,-13 -3,-20 2,0 4,1 7,1 5,9 5,9 6,19 -3,0 -6,0 -10,0l0 0z"/>
 </g>
</svg>