

<!-- Creator: CorelDRAW X8 -->
<svg xmlns="http://www.w3.org/2000/svg" xml:space="preserve" x="0" y="0" width="82.449mm" height="25mm" version="1.1" shape-rendering="geometricPrecision" text-rendering="geometricPrecision" image-rendering="optimizeQuality" fill-rule="evenodd" clip-rule="evenodd"
viewBox="0 0 11962 3627"
 xmlns:xlink="http://www.w3.org/1999/xlink">
 <g id="Katman_x0020_1">
  <metadata id="CorelCorpID_0Corel-Layer"/>
  <g id="_2525678755680">
   <path fill="#4A7CBC" fill-rule="nonzero" d="M11962 1112l-2035 24c3,-30 4,-66 0,-103 174,-69 732,-105 732,-105l-768 -45c-51,-124 -157,-234 -362,-244 -390,-18 -590,133 -672,218 88,-250 420,-298 420,-298 -381,-13 -593,245 -681,390 -29,-62 -90,-122 -210,-156 -221,-64 -415,28 -514,90 64,-85 193,-165 384,-195 234,-37 345,92 345,92 80,-110 202,-190 202,-190 0,0 -110,-314 -417,-375 -308,-61 -480,92 -480,92 0,0 185,-55 375,-12 191,43 258,166 258,166 -369,-203 -719,43 -719,43 -39,-94 -117,-234 -356,-326 -63,-24 -120,-34 -172,-36l-23 0c-109,3 -191,46 -237,83 -115,94 -140,223 -140,223 387,44 418,388 418,388 0,0 -18,-129 -252,-246 -161,-81 -324,-56 -411,-33 -48,-123 -159,-272 -419,-268 -491,6 -749,454 -749,454 0,0 44,19 96,66 52,-68 192,-224 426,-262 0,0 -271,157 -334,374 10,18 42,170 51,191l-65 -80c-72,-144 -241,-360 -604,-344 -541,25 -769,369 -769,369 0,0 50,-264 283,-400 0,0 -412,105 -584,431l-74 166c0,0 -722,-242 -946,252 -69,-50 -159,-131 -307,-142 -619,-44 -754,363 -781,590 -227,178 -485,221 -642,249 -91,-1 -270,5 -415,71 -203,92 -313,203 -295,399 0,0 126,-63 267,-74 -169,62 -351,150 -420,375 0,0 -225,10 -366,114l2592 0c31,-80 145,-114 224,-102 24,4 51,13 77,26 38,-115 194,-182 336,-178l3 0 6 1 3 0c24,-1 48,0 71,5 130,29 254,132 292,262 35,-8 69,-3 102,10 19,8 38,17 57,28l583 0c-27,-84 39,-178 125,-208 31,-13 65,-16 99,-13 55,6 108,24 153,54 66,-49 172,-31 250,19 1,-10 3,-19 6,-27 10,-29 30,-58 53,-78 7,-6 15,-12 23,-17 63,-81 178,-118 277,-91 85,24 173,80 223,156 53,-52 130,-76 204,-81 15,-1 30,-2 45,-2 85,-12 176,-10 259,6 59,-76 193,-119 271,-110 91,10 181,46 242,107 74,-87 204,-125 320,-112 17,2 35,5 53,10 66,-383 764,-392 876,-33 56,-27 119,-44 183,-56 27,-62 71,-119 109,-155 44,-40 97,-81 154,-100 57,-33 121,-55 187,-64 77,-11 160,-10 235,12l6 0c30,4 60,12 90,25 87,-103 275,-111 391,-60 34,14 67,37 98,65 42,-15 88,-18 133,-5l8 2c28,-76 94,-161 122,-184 11,-9 22,-18 33,-26 0,-43 3,-84 10,-123 -3,-42 11,-88 24,-123 11,-30 27,-57 49,-80 63,-202 326,-324 525,-348 45,-5 120,-4 202,5 91,-19 194,-2 282,38 -22,-81 -54,-155 -99,-216l-8 -10 -268 -8c116,-43 305,-60 387,-80 147,-37 1284,-117 1284,-117z"/>
   <path fill="#F6B502" fill-rule="nonzero" d="M3770 1702c-30,166 -270,252 -270,252l74 -405c0,0 227,-13 196,153zm495 363c129,-203 184,-277 166,-507 -19,-231 -157,-443 -498,-489 -341,-46 -1272,9 -1272,9 0,0 -249,775 -424,1060l-83 -451 -267 -19c0,0 -341,498 -341,461 0,-37 55,-258 55,-258l111 -765 -664 -31c0,0 -111,1469 -55,1912l460 -19 388 -507 202 553 415 -27 489 -996 -129 996 55 18c0,0 267,-323 535,-147l92 46 74 193c0,0 193,-9 258,129l553 -37c0,0 -461,-645 -461,-857 0,0 212,-64 341,-267z"/>
   <path fill="#F6B502" fill-rule="nonzero" d="M7691 1118l-160 719 -135 621c0,0 184,19 234,86 49,68 92,105 92,105l37 116 172 -80c0,0 166,-651 160,-633 -7,19 196,302 196,302l80 -37 369 -320 -31 350 74 19c0,0 178,-86 301,-49 123,37 172,37 172,37l62 -129 153 -1027 154 -215 -775 -12 -411 578 -179 -455 -565 24z"/>
   <path fill="#8D8A89" fill-rule="nonzero" d="M4403 1432c0,0 473,-584 1020,-461 0,0 381,74 523,418 0,0 295,-387 670,-406 375,-18 762,74 903,658l-31 350 -67 277 -92 184c0,0 -185,18 -252,98 -68,80 -246,197 -246,197l-351 -19 -295 -12 -135 135 -104 -36 -191 -252 -258 264c0,0 -104,-92 -203,-80 -98,12 -196,37 -196,37l-129 147 -308 6c0,0 -295,-184 -313,-215 -18,-30 -117,-227 -123,-245 -6,-19 -43,-302 -43,-302 0,0 154,-227 160,-245 6,-19 92,-203 92,-203l-31 -295z"/>
   <path fill="#5A87AC" fill-rule="nonzero" d="M4612 1751c0,0 -86,240 -80,357 6,117 86,332 222,387 135,55 258,86 436,6 178,-80 350,-246 387,-467 37,-221 38,-582 -387,-633 -357,-43 -578,350 -578,350z"/>
   <path fill="#5A87AC" fill-rule="nonzero" d="M6179 1647c0,0 271,-320 547,-240 223,64 351,185 363,412 12,227 -197,627 -424,694 -228,68 -313,45 -406,-12 -110,-68 -172,-227 -172,-227 0,0 154,-252 92,-627z"/>
   <path fill="#8D8A89" fill-rule="nonzero" d="M10469 2114c0,0 43,18 37,49 -6,31 -37,117 -135,123 -99,6 -130,-55 -93,-117 37,-61 129,-110 191,-55z"/>
   <path fill="#8D8A89" fill-rule="nonzero" d="M5970 3134c0,0 68,-43 166,25 99,67 111,116 56,147 -56,31 -129,12 -179,-12 -49,-25 -110,-105 -43,-160z"/>
   <path fill="#8D8A89" fill-rule="nonzero" d="M8490 2618c0,0 86,-68 166,-31 80,37 68,117 -43,141 -111,25 -197,-24 -123,-110z"/>
   <path fill="#97BCCD" fill-rule="nonzero" d="M4459 2974c0,0 -13,203 288,222 0,0 197,61 351,-25 0,0 49,-172 252,-160 0,0 -80,-43 -172,-6 0,0 104,-80 252,-37 0,0 92,62 116,160 0,0 314,-338 529,-135 0,0 104,-142 239,-129 136,12 130,172 130,172l61 24c0,0 61,-80 160,-61 0,0 67,-166 258,-160l-6 -31c0,0 92,-12 178,50 0,0 43,-130 166,-203 0,0 227,-37 307,153 0,0 80,-141 -166,-245 0,0 197,-50 295,55 99,104 105,147 105,147l172 -61 153 31c0,0 31,-326 437,-369l67 -37 123 43 209 -80 166 25 98 86c0,0 -159,61 -159,252 0,0 98,-160 270,-197 172,-37 246,74 246,74l37 80c0,0 74,-99 203,-129 129,-31 282,6 338,61 0,0 -277,-25 -308,148 0,0 148,-105 271,-86 123,18 196,202 160,338 0,0 135,-93 301,-37 166,55 227,233 73,344 0,0 -264,209 -381,-12l-61 0 123 -80 67 -68c0,0 -245,148 -479,68l-258 -25 43 -147 0 -74c0,0 -49,184 -246,233 -197,50 -276,-37 -307,-80 0,0 -166,130 -375,123 0,0 234,-49 307,-282 0,0 -117,172 -325,215 -209,43 -381,-25 -381,-25l-105 62 -141 43 104 -129c0,0 -332,196 -559,-13 0,0 -252,252 -492,68 0,0 62,-49 68,-178 0,0 -49,178 -301,196 0,0 61,74 117,68 55,-6 -154,37 -203,18 -49,-18 -31,43 -185,37 -153,-6 -258,-37 -258,-37l-203 -6c0,0 -116,-129 -196,-117 -80,13 -92,19 -99,50 -6,30 13,80 13,80l-406 -13c0,0 -215,148 -387,31 0,0 -104,-18 -141,6 -37,25 -240,37 -240,37 0,0 -355,9 -452,18 -136,14 -479,74 -479,74l58 -209 467 0 -61 -104c0,0 49,-99 154,-105z"/>
   <path fill="#97BCCD" fill-rule="nonzero" d="M9436 2364c0,0 0,-143 125,-152 0,0 -23,-143 18,-226 42,-83 143,-225 143,-225l88 -70c0,0 -194,277 -14,494 0,0 18,-222 175,-314 0,0 -111,198 23,360 0,0 -51,-268 102,-429 0,0 152,-111 359,-88 207,24 332,231 332,231 0,0 4,-106 -83,-235 0,0 198,92 184,378l-9 106 -55 180 -120 106c0,0 124,-56 198,-10 74,46 69,166 -9,245 0,0 138,50 157,189 18,138 -129,267 -129,267 0,0 115,-493 -498,-378 0,0 -28,-392 -484,-424 0,0 4,-19 -79,9 -83,28 -152,65 -152,65l-87 106c0,0 0,-129 -185,-185z"/>
   <path fill="#97BCCD" fill-rule="nonzero" d="M10971 1867c0,0 116,271 0,516 0,0 125,41 92,184 0,0 97,-74 217,-78 0,0 -23,-129 83,-203 106,-74 189,-55 207,-18 19,36 23,-120 -184,-120 -207,0 -263,101 -263,101 0,0 -4,-267 -152,-382z"/>
   <path fill="#97BCCD" fill-rule="nonzero" d="M1762 3093c0,0 397,59 447,87 51,28 42,88 42,88 0,0 106,-102 170,-102 65,0 139,-18 139,-18l32 -92 -138 0c0,0 -904,-23 -692,37z"/>
   <path fill="#97BCCD" fill-rule="nonzero" d="M2836 3028l129 88 74 -28c0,0 -14,-32 -42,-88 0,0 111,-110 245,-87 133,23 203,110 152,281 0,0 295,-74 327,60 32,134 -106,230 -106,230 0,0 157,14 217,-119 60,-134 -69,-314 -240,-263 0,0 -74,-258 -313,-277 -240,-18 -328,88 -328,88l-115 115z"/>
   <path fill="#B66A28" fill-rule="nonzero" d="M1994 1708c0,0 86,455 203,615l37 -92 -80 -535c0,0 -215,-43 -160,12z"/>
   <path fill="#B66A28" fill-rule="nonzero" d="M1509 1241c0,0 24,258 49,320 24,61 0,289 0,289l-19 239 -147 185c0,0 37,-824 117,-1033z"/>
   <path fill="#B66A28" fill-rule="nonzero" d="M2123 2827l19 135c0,0 289,74 289,55 0,-18 301,-608 301,-608l202 -547c0,0 68,-363 74,-602 0,0 -80,270 -233,620 -154,351 -418,928 -418,928l-234 19z"/>
   <polygon fill="#B66A28" fill-rule="nonzero" points="3205,2827 3316,2495 3383,2642 3371,2815 "/>
   <path fill="#B66A28" fill-rule="nonzero" d="M3672 2280l209 442 184 332 -252 -6 -92 37 148 123 479 -25 -295 -528 -148 -344 320 -166 148 -252 67 -209 -12 -197 -68 -172 -141 -104c0,0 147,313 37,553 -50,107 -179,247 -301,331 -151,104 -295,142 -295,142l12 43z"/>
   <path fill="#B66A28" fill-rule="nonzero" d="M1122 2593c0,0 -62,301 -68,400 -6,98 283,30 283,30l110 -24 203 -283 215 -276 -74 -93 -233 228 -240 270 -160 -12 -36 -240z"/>
   <path fill="#B66A28" fill-rule="nonzero" d="M3463 1383l-80 565 123 -49 86 -375c0,0 184,-61 258,61 0,0 -37,-233 -387,-202z"/>
   <path fill="#676363" fill-rule="nonzero" d="M5227 1278c0,0 135,6 215,141 0,0 -111,-36 -178,-24 0,0 -234,-14 -437,117 -258,166 -289,485 -289,485l0 228c0,0 -12,245 37,319 49,74 215,191 215,191l523 -117 270 -185 142 -381 92 -356 -6 -227c0,0 -56,-228 -191,-357 -135,-129 258,191 270,215 13,25 111,-18 111,-18 0,0 49,-49 111,117 61,166 61,430 61,430l-24 264 -129 350 86 172 24 105 -74 98 -135 -37 -172 -202 -276 239c0,0 -62,-80 -209,-80 -148,0 -215,50 -215,50l-93 122 -153 -12 -166 6c0,0 -295,-116 -363,-301 -67,-184 -86,-418 -86,-418 0,0 117,-153 166,-239 49,-86 160,-363 160,-363l270 -191c0,0 240,-172 443,-141z"/>
   <path fill="#676363" fill-rule="nonzero" d="M6487 1297c0,0 331,-105 467,135 0,0 -111,-43 -148,-31 0,0 -141,-43 -258,0 -117,43 -264,123 -264,123l-92 80 0 -86c0,0 129,-203 295,-221z"/>
   <path fill="#676363" fill-rule="nonzero" d="M6997 1051c0,0 202,178 270,405 68,228 12,553 12,553l-110 320c0,0 -148,270 -129,264 18,-6 282,-160 282,-160l129 -301 80 -301 -24 -252 -86 -209 -123 -153c0,0 -332,-271 -301,-166z"/>
   <path fill="#B66A28" fill-rule="nonzero" d="M7962 1880l-74 332 -99 363 -24 196 160 -98 104 -528 31 -148c0,0 -86,-190 -98,-117z"/>
   <path fill="#B66A28" fill-rule="nonzero" d="M8152 1223c0,0 138,418 203,430 64,12 67,-79 67,-79l-96 -200c0,0 -200,-218 -174,-151z"/>
   <polygon fill="#B66A28" fill-rule="nonzero" points="8238,2200 8490,1966 8773,1721 8754,1880 8533,2151 8293,2366 "/>
   <path fill="#B66A28" fill-rule="nonzero" d="M9289 1352l-191 891 86 141 86 -24 50 -228c0,0 49,-461 43,-479 -6,-18 -56,-436 -74,-301z"/>
   <path fill="#44627D" fill-rule="nonzero" d="M5294 2016c-36,113 -135,190 -222,184 -35,-3 -65,-12 -89,-31 35,12 74,12 114,-9 27,-14 48,-34 65,-56 10,-7 21,-15 30,-24 100,-87 77,-258 -52,-298l-9 -2c11,-2 21,-3 32,-3 101,0 174,103 131,239zm136 -523c36,111 24,160 24,160 -86,-80 -215,-80 -215,-80l-190 37c0,0 -173,117 -185,135 -12,19 -123,240 -153,295 -31,55 -68,154 -68,154 -62,-92 -62,-209 -62,-209 0,0 -92,246 68,436 160,191 455,160 658,6 202,-153 276,-356 282,-577 6,-222 -196,-467 -159,-357z"/>
   <path fill="#44627D" fill-rule="nonzero" d="M6788 2016c-37,113 -136,190 -223,184 -34,-3 -65,-12 -88,-31 34,12 74,12 113,-9 27,-14 48,-34 65,-56 11,-7 21,-15 31,-24 99,-87 77,-258 -53,-298l-9 -2c11,-2 22,-3 33,-3 101,0 174,103 131,239zm135 -523c37,111 24,160 24,160 -86,-80 -215,-80 -215,-80l-190 37c0,0 -172,117 -184,135 -13,19 -123,240 -154,295 -31,55 -68,154 -68,154 -6,-9 -11,-19 -16,-28 -3,51 -18,105 -39,153 14,35 34,69 61,102 160,191 455,160 658,6 203,-153 277,-356 283,-577 6,-222 -197,-467 -160,-357z"/>
   <path fill="#FEFEFE" fill-rule="nonzero" d="M1062 1097l-26 235 -31 449 18 405c0,0 76,-688 142,-854 0,0 -31,535 -25,805 0,0 92,-725 123,-922l190 -6c0,0 157,-78 231,-103 74,-25 -108,-38 -108,-38l-514 29z"/>
   <path fill="#FEFEFE" fill-rule="nonzero" d="M1417 2372c0,0 116,-74 534,-584l25 -104 -80 18 -479 670z"/>
   <path fill="#FEFEFE" fill-rule="nonzero" d="M4133 1149c0,0 -185,-61 -344,-68 -160,-6 -996,-6 -996,-6l-135 19 -430 1118 -9 134c0,0 310,-380 537,-1123 0,0 181,-20 432,-38 -19,131 -84,600 -100,831 0,0 127,-679 201,-839 220,-15 476,-28 709,-28l135 0z"/>
   <path fill="#FEFEFE" fill-rule="nonzero" d="M3383 1954l-24 117c0,0 387,-6 510,-357 0,0 -74,68 -148,105 -74,37 -154,98 -154,98l-184 37z"/>
   <polygon fill="#FEFEFE" fill-rule="nonzero" points="3371,2292 3371,2489 3580,3097 3733,3079 "/>
   <path fill="#FEFEFE" fill-rule="nonzero" d="M4452 1395c0,0 467,-602 1051,-369 0,0 -301,-12 -479,129 0,0 104,-43 234,-6 0,0 -234,55 -326,141 -92,86 -197,160 -197,160l-160 142 -92 55 -31 -252z"/>
   <path fill="#FEFEFE" fill-rule="nonzero" d="M4643 1776c0,0 80,-80 172,-141 0,0 -61,73 -49,202 0,0 153,-184 258,-221 104,-37 240,-49 240,-49 0,0 -74,-74 -185,-80 0,0 62,-49 154,-68 92,-18 -179,-50 -332,50 -246,159 -258,307 -258,307z"/>
   <path fill="#FEFEFE" fill-rule="nonzero" d="M7009 1026c-449,-180 -829,135 -980,290 43,71 93,129 111,203 1,6 2,11 4,17l97 -86c0,0 104,-74 196,-160 93,-86 326,-141 326,-141 -129,-37 -233,6 -233,6 178,-141 479,-129 479,-129z"/>
   <path fill="#FEFEFE" fill-rule="nonzero" d="M6182 1696c0,0 60,-46 139,-61 0,0 -62,73 -50,202 0,0 154,-184 259,-221 104,-37 239,-49 239,-49 0,0 -73,-74 -184,-80 0,0 61,-49 154,-68 92,-18 -179,-50 -332,50 -246,159 -225,227 -225,227z"/>
   <path fill="#65A1D7" fill-rule="nonzero" d="M4483 2802c0,0 271,105 584,25l-86 74 -31 55c0,0 -393,18 -467,-154z"/>
   <path fill="#65A1D7" fill-rule="nonzero" d="M5909 1463c0,0 55,356 -49,583 -105,228 -240,381 -240,381l-184 209 -123 117 153 62c0,0 369,-320 467,-572 99,-252 105,-535 -24,-780z"/>
   <path fill="#65A1D7" fill-rule="nonzero" d="M7117 2537c36,-14 73,-27 110,-38 76,-91 146,-190 181,-281 99,-252 105,-534 -24,-780 0,0 86,338 -49,621 -108,225 -240,344 -240,344l-180 203c67,-25 133,-52 202,-69z"/>
   <path fill="#65A1D7" fill-rule="nonzero" d="M4661 2378l111 43 301 37 197 -117 117 -123 86 -209 24 -135c0,0 55,-80 37,-215 -18,-135 98,129 43,338 -55,209 -215,504 -510,541 -295,37 -375,-117 -406,-160z"/>
   <path fill="#65A1D7" fill-rule="nonzero" d="M6155 2378l110 43 301 37 197 -117 117 -123 86 -209 25 -135c0,0 55,-80 36,-215 -18,-135 99,129 43,338 -55,209 -215,504 -510,541 -295,37 -375,-117 -405,-160z"/>
   <path fill="#65A1D7" fill-rule="nonzero" d="M4913 2071c0,0 -56,-169 80,-277 117,-92 185,6 185,6 0,0 -105,-30 -166,80 -62,111 -99,191 -99,191z"/>
   <path fill="#65A1D7" fill-rule="nonzero" d="M6407 2071c0,0 -57,-169 80,-277 116,-92 184,6 184,6 0,0 -105,-30 -166,80 -61,111 -98,191 -98,191z"/>
   <path fill="#FEFEFE" fill-rule="nonzero" d="M7710 1186c0,0 6,147 0,301 -7,154 -62,559 -62,559 0,0 172,-688 184,-829l283 -19 111 -86 -504 -24c0,0 -56,73 -12,98z"/>
   <path fill="#FEFEFE" fill-rule="nonzero" d="M8810 1020l-240 393 -135 185 -86 147c0,0 129,-37 282,-246 154,-209 320,-393 320,-393l332 -12c0,0 209,-80 221,-105 12,-24 -283,-24 -283,-24 0,0 -375,-13 -411,55z"/>
   <path fill="#FEFEFE" fill-rule="nonzero" d="M8934 1562c0,0 -94,269 -124,398 -31,129 -68,209 -68,209l-25 185 25 12 92 -92c0,0 69,-386 100,-712z"/>
   <path fill="#252422" fill-rule="nonzero" d="M3567 1887l62 -283c92,18 130,77 86,166 -37,74 -148,117 -148,117zm234 -191c43,-246 -264,-221 -264,-221 0,0 -49,307 -74,442 0,0 -31,-24 -24,-110 7,-98 2,-248 6,-308 0,0 -62,301 -80,510 0,0 386,-29 436,-313z"/>
   <path fill="#252422" fill-rule="nonzero" d="M4286 1536c0,0 31,523 -694,658 0,0 78,185 191,399 28,55 61,112 94,168 -24,17 -56,34 -101,47l129 0c6,11 12,21 18,31 -20,22 -63,61 -147,86l198 0c16,27 30,52 42,74 0,0 -71,-5 -141,6 -57,9 -111,37 -148,74l406 0c0,0 -320,-572 -430,-818 0,0 639,-202 583,-725z"/>
   <path fill="#252422" fill-rule="nonzero" d="M4775 1973c43,-207 220,-374 394,-374 174,0 281,167 237,374 -43,207 -220,374 -394,374 -175,0 -281,-167 -237,-374zm-66 385c68,80 165,124 273,124 252,0 495,-232 540,-518 21,-129 -2,-252 -63,-345 2,21 7,40 7,40 13,71 0,114 -10,133 -35,-150 -153,-255 -310,-255 -213,0 -416,192 -454,429 -11,68 -6,132 9,189 -5,66 16,119 16,119 -43,-31 -74,-123 -74,-123 -9,18 3,74 -1,93 16,42 39,81 67,114z"/>
   <path fill="#252422" fill-rule="nonzero" d="M4987 1966c19,-76 85,-135 148,-133 39,2 67,26 79,62 -133,24 -191,128 -212,176 -18,-26 -25,-63 -15,-105zm229 8c-18,76 -85,135 -148,133 -6,-1 -12,-2 -17,-3 16,-104 121,-147 170,-162 -1,11 -2,21 -5,32zm-168 214c99,0 199,-94 223,-209 25,-115 -35,-208 -134,-208 -99,0 -199,93 -224,208 -25,115 36,209 135,209z"/>
   <path fill="#252422" fill-rule="nonzero" d="M5190 1721c18,0 37,-18 42,-40 4,-22 -7,-40 -26,-40 -18,0 -37,18 -42,40 -4,22 7,40 26,40z"/>
   <path fill="#252422" fill-rule="nonzero" d="M4997 2231c-18,0 -37,18 -42,40 -4,22 7,40 26,40 18,0 37,-18 42,-40 4,-22 -7,-40 -26,-40z"/>
   <path fill="#252422" fill-rule="nonzero" d="M4898 1920c5,-22 -7,-40 -25,-40 -19,0 -38,18 -42,40 -5,22 6,40 25,40 18,0 37,-18 42,-40z"/>
   <path fill="#252422" fill-rule="nonzero" d="M5323 2052c19,0 37,-17 42,-39 5,-23 -7,-40 -25,-40 -19,0 -38,17 -42,40 -5,22 6,39 25,39z"/>
   <path fill="#252422" fill-rule="nonzero" d="M6480 1966c19,-76 85,-135 149,-133 38,2 67,26 79,62 -133,24 -192,128 -212,176 -19,-26 -26,-63 -16,-105zm230 8c-19,76 -85,135 -149,133 -6,-1 -11,-2 -17,-3 17,-104 121,-147 170,-162 -1,11 -2,21 -4,32zm-169 214c99,0 199,-94 224,-209 24,-115 -36,-208 -135,-208 -99,0 -199,93 -223,208 -25,115 35,209 134,209z"/>
   <path fill="#252422" fill-rule="nonzero" d="M6683 1721c19,0 37,-18 42,-40 5,-22 -7,-40 -25,-40 -19,0 -38,18 -42,40 -5,22 6,40 25,40z"/>
   <path fill="#252422" fill-rule="nonzero" d="M6491 2231c-19,0 -38,18 -42,40 -5,22 6,40 25,40 19,0 37,-18 42,-40 5,-22 -7,-40 -25,-40z"/>
   <path fill="#252422" fill-rule="nonzero" d="M6816 2052c19,0 38,-17 42,-39 5,-23 -6,-40 -25,-40 -19,0 -37,17 -42,40 -5,22 7,39 25,39z"/>
   <path fill="#252422" fill-rule="nonzero" d="M6366 1880c-19,0 -37,18 -42,40 -5,22 7,40 25,40 19,0 38,-18 42,-40 5,-22 -6,-40 -25,-40z"/>
   <path fill="#252422" fill-rule="nonzero" d="M2154 2790l-117 -209 86 277 240 0c0,0 442,-849 602,-1432 0,0 -381,872 -639,1345l-172 19z"/>
   <path fill="#252422" fill-rule="nonzero" d="M10468 2170c0,42 -39,85 -88,96 -49,12 -89,-13 -89,-55 0,-41 40,-84 89,-96 49,-11 88,13 88,55zm-76 -108c-80,18 -144,89 -144,156 0,68 64,108 144,89 80,-18 144,-88 144,-156 0,-68 -64,-108 -144,-89z"/>
   <path fill="#252422" fill-rule="nonzero" d="M8673 2661c-8,36 -55,63 -106,63 -51,-1 -86,-31 -78,-66 8,-36 55,-63 106,-63 51,1 85,31 78,66zm-228 -7c-13,58 44,106 126,107 83,2 160,-44 173,-101 12,-58 -44,-106 -127,-107 -82,-2 -159,44 -172,101z"/>
   <path fill="#252422" fill-rule="nonzero" d="M11440 2212c-200,23 -193,233 -191,261 -47,8 -99,25 -153,53 0,0 -11,-101 -77,-155 19,-75 97,-454 -157,-675 0,0 227,311 68,643 -18,0 -39,2 -62,8 0,0 136,-190 -12,-442 0,0 92,264 -98,485 0,0 -92,68 -111,154 0,0 111,-160 270,-123 160,37 111,203 111,203 0,0 307,-209 436,-12 129,196 -67,368 -165,411 0,0 36,-55 49,-196 0,0 -68,221 -295,325 0,0 350,-30 479,-288 80,-160 2,-391 -210,-396 -4,-83 14,-180 112,-200 233,-50 129,202 129,202 80,-80 92,-282 -123,-258z"/>
   <path fill="#252422" fill-rule="nonzero" d="M10782 2784c0,0 -135,-86 -332,-19 0,0 7,-37 -24,-147 0,0 92,-25 117,-154 0,0 -112,134 -172,74 -44,-43 -123,-80 -173,-86 0,0 222,86 173,393 0,0 153,-67 362,-12 209,55 209,246 148,399 0,0 221,-295 -99,-448z"/>
   <path fill="#252422" fill-rule="nonzero" d="M10690 3263c0,0 43,-37 19,-178 0,0 -7,172 -197,252 0,0 135,24 233,-31 99,-55 154,-233 62,-338 0,0 80,166 -117,295z"/>
   <path fill="#252422" fill-rule="nonzero" d="M7660 2925c21,-71 0,-190 -110,-276 0,0 129,141 49,387 0,0 44,-53 61,-111z"/>
   <path fill="#252422" fill-rule="nonzero" d="M6144 3291c-41,21 -109,5 -152,-36 -44,-40 -46,-91 -5,-112 41,-21 110,-5 153,35 44,41 46,91 4,113zm3821 -34c-283,5 -307,-74 -307,-74 5,-7 9,-14 13,-22 42,17 145,48 282,10 178,-49 233,-160 233,-160 0,0 -263,198 -476,70 3,-8 5,-15 7,-23 194,23 272,-78 272,-78 -100,61 -221,31 -261,18 6,-79 -21,-128 -21,-128 0,160 -74,319 -283,369 -209,49 -252,-80 -252,-80 -418,178 -860,30 -860,30 98,-86 98,-153 98,-153 -61,80 -184,116 -184,116 67,-86 61,-159 61,-159 -184,319 -608,166 -608,166l18 -68c0,0 -92,129 -282,160 -191,31 -271,-111 -271,-111 -123,135 -289,43 -289,43 -227,166 -454,-61 -454,-61 7,34 15,58 23,74 -11,-4 -17,-7 -17,-7l-182 0c-7,-9 -15,-17 -24,-26 -71,-66 -182,-92 -249,-57 -37,19 -52,53 -46,91l-9 -8 -345 7 0 -50c0,0 -92,93 -233,111 -141,18 -209,-61 -209,-61 -141,116 -406,73 -406,73 160,74 400,13 400,13 270,116 436,-31 436,-31l388 0c8,12 18,25 31,37 71,66 182,92 249,57 34,-17 50,-48 48,-82l212 0c215,123 406,-6 406,-6 166,61 246,-25 246,-25 0,0 92,80 245,86 154,7 277,-92 277,-92 276,105 541,-6 541,-6 418,184 971,49 971,49 83,78 299,90 437,-17 50,32 194,108 405,79 264,-37 393,-154 442,-283 0,0 -141,203 -473,209z"/>
   <path fill="#252422" fill-rule="nonzero" d="M9165 2281c57,-315 167,-1064 167,-1064 -80,221 -252,946 -252,946 -166,-18 -258,62 -258,62l-15 68c-25,10 -46,21 -60,28l93 -711c0,0 -350,332 -516,510 0,0 80,-55 197,-160 116,-104 227,-172 227,-172l-12 68 -436 436c0,0 -234,-412 -320,-522 0,0 -128,484 -186,719 -92,-92 -281,-92 -281,-92l-12 57c-13,-5 -25,-9 -36,-13l257 -1298 491 -12c0,0 101,236 174,437 -4,6 -9,12 -14,17 0,0 -67,-55 -203,-313 0,0 86,264 185,473 0,0 160,-184 258,-344 98,-160 252,-381 252,-381l670 -12c0,0 -95,91 -117,141 -18,42 -43,227 -43,227l-150 936c-20,-12 -40,-22 -60,-31zm-495 40c-76,-18 -144,-24 -206,-20l247 -230 -41 250zm-665 263l98 -452 135 230c-116,61 -191,154 -233,222zm-140 95c-54,16 -82,43 -82,43 0,0 0,-4 -1,-10l7 -8c0,0 117,-486 203,-774 0,0 25,61 25,98 0,32 -120,521 -152,651zm-1597 -706c44,-207 220,-374 395,-374 174,0 280,167 236,374 -43,207 -220,374 -394,374 -174,0 -280,-167 -237,-374zm-65 385c68,80 165,124 272,124 253,0 495,-232 541,-518 20,-129 -3,-252 -64,-345 3,21 8,40 8,40 12,71 -1,114 -10,133 -36,-150 -154,-255 -311,-255 -189,0 -371,152 -435,353 5,-75 4,-148 -4,-218 111,-152 278,-252 451,-252 270,0 449,246 401,549 -48,304 -307,550 -577,550 -159,0 -287,-87 -355,-220 6,-17 12,-34 17,-51 16,40 38,78 66,110zm7 -84c-24,-17 -44,-53 -57,-82 10,-40 20,-80 28,-121 2,29 6,57 14,84 -6,66 15,119 15,119zm1060 166c-38,8 -72,20 -98,32 107,-142 183,-311 212,-493 47,-294 -37,-555 -205,-719 66,133 94,338 94,338 -55,-129 -135,-191 -135,-191 55,129 74,258 74,258 -40,-99 -118,-157 -168,-186 105,122 155,299 123,497 -60,365 -376,662 -708,662 -123,0 -229,-41 -313,-111 -45,-50 -56,-107 -57,-144l3 -9c80,126 213,205 377,205 302,0 590,-270 644,-603 55,-334 -146,-604 -448,-604 -178,0 -350,94 -473,238 -4,-21 150,-292 482,-297 53,-1 103,9 149,23 -48,-70 -196,-101 -343,-76 -215,37 -313,153 -313,153 52,-118 142,-203 224,-261 -117,53 -232,145 -325,243 5,13 116,247 60,595 -57,357 -232,587 -238,596 50,76 113,140 188,189 -20,20 -30,40 -35,52 -97,-63 -176,-150 -234,-256 129,-168 220,-371 256,-589 35,-220 8,-424 -67,-593 195,-227 467,-372 745,-372 479,0 798,430 712,962 -27,167 -92,324 -183,461zm-1705 442c0,0 -13,-16 -35,-38 84,-61 161,-133 231,-214 -5,7 -10,13 -15,20 33,59 72,112 117,160 -157,3 -298,72 -298,72zm-984 -913c48,-303 306,-549 576,-549 270,0 450,246 402,549 -49,304 -307,550 -577,550 -270,0 -450,-246 -401,-550zm864 809c-20,-11 -41,-22 -64,-30 257,-158 457,-444 510,-769 47,-294 -37,-555 -205,-719 65,133 94,338 94,338 -55,-129 -135,-191 -135,-191 55,129 73,258 73,258 -39,-99 -117,-157 -168,-186 105,122 156,299 124,497 -60,365 -377,662 -708,662 -141,0 -261,-54 -349,-143 -51,-86 -72,-167 -77,-254 56,200 220,338 435,338 302,0 591,-270 645,-603 54,-334 -147,-604 -449,-604 -119,0 -235,42 -336,113 50,-80 138,-127 201,-152 48,-13 96,-20 145,-20 53,0 102,9 149,23 -48,-70 -197,-101 -343,-76 -215,37 -313,153 -313,153 52,-118 141,-203 224,-261 -166,75 -315,202 -427,361 -4,-21 -9,-43 -16,-65 197,-260 491,-431 793,-431 479,0 797,430 711,962 -53,333 -254,627 -514,799zm-507 141c-74,-3 -149,-5 -202,-6 -300,-84 -502,-358 -522,-706 49,-43 99,-96 143,-161 -13,163 1,407 163,584 0,0 -97,-44 -177,-137 108,234 325,386 598,386 6,0 11,0 17,0 -15,23 -20,40 -20,40zm-630 72c-114,-172 -256,-405 -347,-631 0,0 79,-27 177,-94 23,261 139,483 319,622 -75,22 -125,74 -149,103zm-468 153c-46,-46 -118,-73 -199,-68 -6,0 -12,1 -19,2l-300 -694c-28,105 -110,348 -126,397 -198,10 -317,187 -317,187l-9 -2c30,-231 159,-1222 224,-1620 0,0 -433,1143 -691,1594l-350 -9c0,0 -157,-470 -203,-682 0,0 -218,197 -538,559l-141 7c0,0 -37,-240 -43,-351 0,0 -19,264 -6,400l221 0c0,0 239,-283 418,-406 -90,104 -267,323 -363,464l-341 9c0,0 -46,-1014 37,-1797l544 0c0,0 -96,270 -135,929l-68 131c0,0 43,-670 43,-805 0,0 -111,602 -108,1017 0,0 268,-295 535,-692l194 0c0,0 55,369 120,581 0,0 267,-470 479,-1161l562 -14c0,0 398,-23 601,2 121,15 244,45 330,104 121,82 208,231 185,433 0,0 -65,486 -572,627 289,558 290,551 498,866l-462 -8zm-519 -350l-55 -10c-8,-1 -15,-2 -23,-2 9,-27 27,-73 48,-115 31,-61 61,-68 61,-68l-31 195zm-667 193l-106 5c58,-119 263,-539 334,-752 0,0 -66,477 -95,710 -53,-2 -94,15 -133,37zm-1139 9c57,-84 202,-296 326,-433 0,0 86,275 136,433l-462 0zm8370 -1343c400,-289 891,-61 891,-61 -154,-117 -510,-216 -909,-19 -400,197 -326,584 -326,584 -116,37 -146,150 -152,182 -19,-1 -37,-1 -55,0l188 -1128c0,0 62,-185 246,-283l-952 0c0,0 -203,333 -366,557l-157 -428 -639 0 -103 526c-79,-391 -379,-667 -781,-667 -302,0 -596,156 -811,399 -136,-243 -380,-399 -682,-399 -322,0 -635,177 -852,449 -13,-29 -28,-58 -46,-87 -65,-101 -186,-176 -344,-209 -276,-56 -648,-26 -756,-26 -391,-1 -646,8 -646,8 0,0 -193,581 -368,977 0,0 -37,-194 -46,-387l-360 0 -267 387 64 -148c0,0 40,-387 103,-684l8 -4c213,-111 614,-138 614,-138l-1388 -3c0,0 -63,1194 -47,1952 -62,12 -179,38 -322,94l1906 0c-9,11 -20,37 -20,37 -190,-12 -252,135 -252,135 0,0 87,-92 246,-80 111,9 172,68 172,68 -12,-55 -86,-105 -86,-105 0,0 31,-122 166,-122 112,0 197,122 197,122 80,-73 221,-92 221,-92 -110,-18 -197,25 -197,25l-61 -62c0,0 80,-159 320,-165 239,-7 319,233 319,233l17 -3c-62,18 -114,55 -147,101 45,-39 87,-65 155,-69 136,-8 246,75 246,186 0,52 -6,101 -46,139 68,-41 113,-107 113,-179 0,-7 0,-14 -1,-21l603 9c0,0 -59,-76 -141,-195 117,-156 283,-79 283,-79l-13 50c87,-117 308,-43 308,-43 6,61 55,98 55,98 0,0 -27,-201 197,-270 258,-80 356,178 356,178l19 -49c325,-142 510,-37 510,-37 0,0 55,-142 252,-136 196,7 202,154 202,154 37,0 80,6 80,6 111,-203 381,-67 381,-67 13,-123 129,-369 412,-363 283,6 350,307 350,307 302,-141 449,25 449,25 -10,-61 -74,-104 -132,-131 9,-78 58,-206 218,-281 277,-129 486,0 486,0 176,-132 344,-65 405,-33 -110,69 -110,205 -110,205 0,0 49,-178 288,-184 240,-6 277,203 277,203 74,-240 362,-246 362,-246 -34,-10 -65,-14 -95,-15 -33,-26 -92,-93 -83,-231 0,0 -44,117 -6,240l-8 2c-30,-40 -97,-150 -78,-328 0,0 -69,184 -6,363 -61,36 -92,80 -92,80 -32,-65 -86,-103 -147,-123 20,-105 91,-117 91,-117l74 80c0,0 -170,-363 246,-664z"/>
  </g>
  <rect fill="none" width="11962" height="3627"/>
 </g>
</svg>
