

<!-- Creator: CorelDRAW X8 -->
<svg xmlns="http://www.w3.org/2000/svg" xml:space="preserve" x="0" y="0" width="38.824mm" height="25mm" version="1.1" shape-rendering="geometricPrecision" text-rendering="geometricPrecision" image-rendering="optimizeQuality" fill-rule="evenodd" clip-rule="evenodd"
viewBox="0 0 906 584"
 xmlns:xlink="http://www.w3.org/1999/xlink">
 <g id="Katman_x0020_1">
  <metadata id="CorelCorpID_0Corel-Layer"/>
  <g id="_2525683379584">
   <path fill="#BE6356" fill-rule="nonzero" d="M249 209l8 -14 18 -13 15 -25 14 7 36 4 31 -21 16 -8 28 13 44 -6 33 7 18 -4 27 -15 38 0 -3 15 18 18 6 9 9 5 20 -15 26 1 13 -7 -5 18 43 -9c0,0 23,-3 24,-3 2,0 24,0 24,0l-13 25 -10 18 -10 81 15 65 -7 11 -10 28 -10 -17 -17 -13 -41 -25 -17 19 -19 8 -25 10 -4 19 -3 12 -26 20 -19 14 -9 14 -16 -6 -20 -8 -25 10 -20 -17 -16 -18 -8 -5 -1 -11 -16 -4 -10 9 -13 -14 -12 -3 -24 0 -2 -4 -19 -9 -13 -9 -7 -10c0,0 -49,-73 -49,-76 -1,-4 -14,-50 -5,-71z"/>
   <path fill="#FEFEFE" fill-rule="nonzero" d="M230 216c0,0 -31,-17 -45,-14 -14,3 -37,4 -58,22 -20,19 -29,42 -29,42l0 22 2 12 2 17 7 24c0,0 19,28 33,31 13,4 50,5 50,5l31 -11 22 -10 5 20 56 -8 22 -3 43 -5 41 -1 20 -36 17 -2 18 32 54 -1 33 13 36 5 21 -1 21 -14 13 -13 2 23 49 6 7 -32 22 27c0,0 14,11 16,11 2,-1 51,1 51,1l-15 -26 -22 -50c0,0 -14,-11 -11,-20 3,-9 20,-32 20,-32l26 -42c0,0 1,-10 -4,-10 -4,0 -40,3 -40,3l-14 4 -29 34 -1 -42c0,0 -53,15 -54,20 0,6 3,77 3,77l-10 17 4 9 4 6 -4 8 -9 11 -15 -32c0,0 -7,2 -12,4 -4,1 -25,7 -34,-1 -9,-8 -15,-31 -5,-41 11,-9 27,-9 27,-9l12 2 11 -17 12 -28c0,0 0,-1 -15,-8 -14,-6 -27,-10 -42,-4 -15,5 -44,16 -51,24 -6,7 -15,30 -17,40 -1,9 0,24 0,24l2 24 -21 -31 -23 -55 -9 -17 -49 3 -13 29 -17 51 -16 40 -15 -22 -17 -20c0,0 19,-14 24,-26 4,-12 13,-42 -24,-65l-13 12 -11 -16 -29 1 -24 4c0,0 -20,3 -22,5z"/>
   <path fill="#B6B4B3" fill-rule="nonzero" d="M103 317c0,0 1,-16 4,-25 3,-8 8,-18 8,-18 0,0 -2,29 1,37 3,9 14,30 19,36 5,6 29,12 41,15 12,3 47,-5 62,-17l6 -20 1 -17c0,0 6,-29 7,-45l4 41 7 54 21 -1 11 10 -45 10 -3 -18 -36 16 -41 4c0,0 -44,-14 -48,-21 -4,-7 -18,-25 -18,-25l-1 -16z"/>
   <path fill="#B6B4B3" fill-rule="nonzero" d="M287 208c0,0 12,13 14,15 3,1 15,6 15,6l-5 -14 -5 -7c0,0 -20,-5 -19,0z"/>
   <path fill="#B6B4B3" fill-rule="nonzero" d="M294 335l0 -13c0,0 14,5 23,14 10,9 15,13 15,13l28 -1c0,0 21,-2 31,-6 10,-3 14,-4 17,-10 3,-6 12,-25 12,-25l39 -2 15 28c0,0 17,6 22,5 5,0 16,0 16,0l7 7 -14 9 -42 -3 -14 -25 -17 0 -24 34 -43 0 -37 6 -25 -15 -9 -16z"/>
   <path fill="#A0B7C3" fill-rule="nonzero" d="M163 274c0,0 0,-17 14,-24 14,-8 32,-7 32,-7l14 4 -3 12 -18 1 -25 6 -14 8z"/>
   <path fill="#B6B4B3" fill-rule="nonzero" d="M327 303c-5,-1 -11,-14 -11,-14l15 -6c0,0 14,-9 16,-10 1,-1 8,-8 8,-8l-4 14 -6 13c0,0 -13,12 -18,11z"/>
   <path fill="#B6B4B3" fill-rule="nonzero" d="M512 304c0,0 12,17 18,26 7,9 12,18 21,20 10,3 36,5 36,5l30 -10 0 -11c0,0 -3,-11 0,-16 3,-5 10,9 10,9l14 15 -9 9 -25 16 -20 3 -23 -5 -33 -11 -12 -9 -7 -22 0 -19z"/>
   <path fill="#B6B4B3" fill-rule="nonzero" d="M553 299c0,0 7,-10 11,-13 3,-4 12,-16 12,-16l29 0 10 1c0,0 6,-18 6,-21 1,-2 9,-30 9,-30l-4 1c0,0 -11,8 -14,13 -4,5 -11,16 -11,16l-22 4c0,0 -13,8 -16,10 -3,2 -8,10 -8,10l-2 25z"/>
   <path fill="#B6B4B3" fill-rule="nonzero" d="M688 225l-2 43 13 -13 2 -10c0,0 -10,-10 -13,-20z"/>
   <path fill="#B6B4B3" fill-rule="nonzero" d="M782 200c0,0 -20,24 -29,33 -8,9 -30,44 -30,44l3 13 21 40 17 27 -18 0 -14 7 5 5 22 9 27 -1 -11 -27 -32 -68 11 -22 22 -33 16 -27c0,0 -7,-3 -10,0z"/>
   <path fill="#B6B4B3" fill-rule="nonzero" d="M645 318c0,0 5,-6 9,-8 5,-3 9,-5 9,-5l5 19 -11 6 -7 8 -2 -12 -3 -8z"/>
   <path fill="#B6B4B3" fill-rule="nonzero" d="M649 359l6 -5c0,0 17,-3 22,-3 4,0 3,-7 3,-7l6 -21 12 -6 -4 18c0,0 1,27 1,30 0,3 -28,-2 -28,-2 0,0 -20,4 -18,-4z"/>
   <polygon fill="#A0B7C3" fill-rule="nonzero" points="385,426 400,420 410,411 414,405 420,405 416,425 403,430 389,440 380,434 "/>
   <polygon fill="#A0B7C3" fill-rule="nonzero" points="293,374 305,389 322,395 328,402 341,404 350,407 361,406 374,409 388,416 395,403 380,392 360,389 347,390 340,382 319,372 310,366 "/>
   <path fill="#A0B7C3" fill-rule="nonzero" d="M195 446l17 -19 3 5 5 6 -3 5 -11 16 -3 8c0,0 -7,-2 -8,-21z"/>
   <path fill="#A0B7C3" fill-rule="nonzero" d="M212 410l6 3 9 0 6 12 7 9 4 14 -3 -33 -1 -11 -8 -5 -3 -30 -13 3 -36 6 -44 -11c0,0 -21,-11 -21,-13 -1,-1 -11,-21 -11,-21l-7 -22c0,0 -11,2 -19,10 0,0 11,44 22,66 0,0 19,14 28,18 10,4 22,8 22,8l31 3 25 -20 6 14z"/>
   <path fill="#A0B7C3" fill-rule="nonzero" d="M242 369l2 21c0,0 6,6 7,9 2,3 3,6 3,6 0,0 19,6 21,8 2,3 13,12 13,12 0,0 2,11 2,13 0,3 5,12 5,12l3 14 4 -15 9 -40c0,0 -14,-7 -16,-10 -3,-2 -9,-22 -11,-25 -1,-4 -13,-1 -13,-1l-21 4 -3 -14 -5 6z"/>
   <path fill="#A0B7C3" fill-rule="nonzero" d="M169 271c0,0 -7,13 -8,18 0,6 6,22 6,22 0,0 9,10 14,10 4,1 23,-3 23,-3l23 -8 0 -20 2 -19 -5 -8c0,0 -21,-3 -22,-3 -2,1 -26,-1 -33,11z"/>
   <path fill="#79443C" fill-rule="nonzero" d="M617 306c-3,2 -17,4 -18,2 -4,-5 13,-16 17,-19 4,-2 15,-8 15,-8 0,0 4,9 4,15 0,0 -14,8 -18,10zm117 -140l-33 1 -38 15 -1 -14 -32 -4 -13 10 -15 4 -11 -11 -11 -10 -11 -13 6 -11 -45 4 -23 16 -14 -2 -30 -5 -49 7 -26 -18 -14 12 -33 20 -18 -1 -14 -3 -22 2 -19 21 -17 17 -6 8 19 -1 20 -4 22 2 10 12 7 -6 3 -1c0,-1 -1,-3 0,-4 1,-4 9,-16 9,-16 13,-6 41,-16 49,-16 9,0 12,4 12,4 0,0 2,24 0,28 -2,5 -11,14 -11,14 -11,5 -31,3 -31,3l-6 0 9 15 -1 21 -7 24 -18 15 29 43 5 -11 8 -20 22 -61 10 -29 12 -1 6 0c0,-4 0,-13 0,-19 1,-7 3,-18 3,-18 6,-2 37,-1 37,-1 11,6 29,12 29,12 0,0 1,13 0,15 0,1 -9,10 -9,10 -12,3 -23,2 -23,2l-1 1 14 32 14 27 22 43 -3 -46c-13,-20 -17,-41 -17,-41l10 -7 7 -2 13 17 14 -18 12 -9c0,0 -21,1 -27,-1 -5,-2 -8,-9 -9,-15l0 -1c3,-4 19,-11 29,-15 10,-3 25,-1 28,-1 4,1 20,13 20,13l8 1 -1 8 19 2 18 9 -10 30 -8 15 -13 6 -23 -1 -8 7 -2 18 3 14 7 8c0,0 17,4 21,3 5,0 23,-7 23,-7l16 37 11 -16 2 -9 -10 -12 9 -14 3 -8 -2 -35 1 -44 34 -12 20 -3 -4 45 26 -31 10 -20 16 -25 -18 0z"/>
   <path fill="#A0B7C3" fill-rule="nonzero" d="M253 105c-5,3 -30,28 -30,28 0,0 6,9 8,12 2,4 3,6 6,9 3,3 1,8 1,8l6 5 -9 0 -6 -1 -4 -11c0,0 -8,-10 -9,-13 -1,-3 -8,-9 -8,-9 19,-19 49,-35 49,-35 0,0 1,4 -4,7zm539 37c-3,1 -12,1 -12,1 0,0 -13,6 -19,7 -5,1 -23,-8 -23,-8 -16,4 -42,12 -42,12l-4 -3 6 -11 4 -13c0,0 11,-20 12,-23 1,-2 3,-12 3,-12l12 -15 15 -30 -10 9c0,0 -14,16 -17,19 -4,3 -11,6 -11,6 0,0 -25,20 -40,29 -4,3 -21,32 -21,32 0,0 -12,3 -19,3 -6,0 -23,-2 -23,-2 0,0 -9,-31 -12,-43 -4,-11 -12,-37 -12,-37l3 -49c-2,6 -10,43 -13,50 -2,7 -5,46 -5,46l-10 4c-18,-10 -73,-28 -73,-28l-4 -7c0,0 -4,-3 -7,-5 -3,-3 -13,-16 -13,-16 4,16 16,33 16,33l6 14 7 5 20 11c-5,6 -12,6 -20,6 -8,-1 -23,-7 -23,-7 0,0 -12,1 -14,2 -3,1 -9,11 -9,11l-3 -11c0,0 0,-5 -1,-10 -1,-6 -5,-18 -5,-18 -12,3 -26,12 -27,14 -2,2 -3,11 -3,11 -6,-2 -8,-9 -11,-13 -4,-5 -10,-22 -10,-22 0,0 -3,-19 -5,-31 -1,-11 -3,-53 -3,-53l-9 38c0,0 0,33 1,47 1,13 -2,40 -2,40 -22,6 -54,19 -54,19 -4,1 -10,-13 -10,-13 -6,-2 -12,-13 -13,-15 -1,-3 -7,-7 -11,-12 -3,-6 -17,-37 -17,-37l-12 -14 14 30 4 9c-3,-5 -13,0 -13,0 -12,5 -40,21 -45,22 -6,1 -26,-11 -35,-20 -10,-10 -22,-21 -22,-21 18,30 49,60 49,60l6 4c5,14 16,32 16,32 -8,10 -16,21 -16,21 0,0 -37,-12 -41,-12 -4,0 -24,0 -35,-3 -5,-2 -13,-9 -19,-9 -6,0 -18,-8 -18,-8 7,11 14,13 14,13l33 17c0,0 -33,0 -41,-1 -8,-2 -29,-12 -29,-12 -26,-5 -66,-3 -66,-3l49 11 38 19c0,0 10,6 18,6 7,1 27,10 27,10l17 -8 23 -7c0,0 11,-1 17,-1 5,0 43,15 43,15l12 -12 22 -20 20 -19 -1 -6 1 1 13 2 18 1 20 5 49 -32c0,0 17,15 30,13 12,-2 86,5 86,5l32 -20 26 2 12 11 18 24 9 9 17 -8 12 -9 32 0 1 17 45 -13 38 1 -12 32 17 -4 9 -15c0,0 5,-6 8,-9 3,-4 6,-14 6,-14l18 -7 33 -22c0,0 -29,10 -32,12z"/>
   <path fill="#A0B7C3" fill-rule="nonzero" d="M20 338l23 -7c0,0 14,-13 16,-14 3,-1 17,-6 17,-6l13 -4 2 -25c0,0 -7,3 -12,5 -5,3 -14,8 -14,8 0,0 -8,3 -10,6 -3,3 -6,10 -6,10l-2 6c0,0 -5,3 -7,4 -2,2 -5,6 -5,6l-15 11z"/>
   <path fill="#A0B7C3" fill-rule="nonzero" d="M701 329l-5 11 -1 26 -51 -1 0 -24 -10 12 -14 18 -9 10 13 6 10 13 -4 4 -7 3 -4 -3 -5 7c0,0 8,14 12,20 3,5 13,16 18,21 6,4 16,14 16,14 0,0 -4,-10 -6,-14 -1,-5 -2,-15 -2,-15l4 -8c0,0 17,-7 24,-10 -1,-7 -1,-17 1,-16 3,1 11,4 13,8 3,-1 4,-2 4,-2l12 1 4 -18 8 -14 3 -10 -24 -39z"/>
   <path fill="#A0B7C3" fill-rule="nonzero" d="M800 287c0,0 8,-5 11,-7 3,-2 11,-11 11,-11l24 -1 4 -5 11 -5 29 -11 -14 1 -23 5 -20 1 -13 -1 -16 4 4 -16 30 -13 1 -4 -7 -10 -22 12 -3 -8 9 -7 -2 -4 -25 4 -19 23 -26 44 0 13 18 35 20 36 4 15 -40 1 -14 -3c0,0 -6,21 -6,25 1,4 1,9 -1,11 -2,2 -8,11 -8,11l-8 15c0,0 12,-8 15,-10 3,-2 11,-7 15,-7 4,0 10,2 10,2l34 2 12 -11c0,0 -8,-4 -9,-6 -1,-2 -15,-9 -15,-9l-18 -8 37 7 27 13 37 16 -12 -12c0,0 -14,-7 -19,-13 -5,-6 -12,-25 -12,-25l-10 -3c0,0 -6,-11 -8,-16 -2,-4 -10,-21 -11,-31 0,-10 -6,-30 -6,-30 0,0 -6,-1 -9,-1 -3,-1 -12,-4 -12,-4l21 -4 24 0z"/>
   <path fill="#A0B7C3" fill-rule="nonzero" d="M280 529l23 -43 9 -21 14 -47c0,0 11,-4 14,-3 3,1 9,1 12,1 3,0 14,0 14,0l7 4 -4 12c0,0 2,5 5,7 4,2 15,9 15,9 0,0 13,-5 15,-6 2,-1 8,-2 8,-2 0,0 6,9 10,18 4,9 10,21 10,21l2 4 -3 26c0,0 -7,-8 -9,-11 -3,-2 -7,-11 -7,-11 0,0 -26,-3 -34,-3 -7,0 -27,-2 -27,-2l-15 8 -5 6 -17 -1c0,0 -7,7 -11,10 -4,3 -26,24 -26,24z"/>
   <path fill="#A0B7C3" fill-rule="nonzero" d="M440 536c0,0 9,-35 14,-45 0,0 13,-9 16,-11 3,-1 16,-8 16,-8 0,0 9,7 17,8 7,2 24,11 24,11 0,0 7,7 8,10 1,3 7,15 7,15 0,0 -9,-4 -14,-3 -4,2 -27,12 -29,13 -2,1 -32,-13 -32,-13 0,0 -9,3 -12,7 -3,4 -6,8 -6,8l-9 8z"/>
   <path fill="#A0B7C3" fill-rule="nonzero" d="M547 462c0,0 -3,9 -3,11 0,1 11,21 13,25 2,3 4,9 4,9l0 11c0,0 4,22 6,28 2,5 11,31 11,31l4 -2c0,0 0,-34 3,-42 4,-9 10,-18 10,-18l1 -11c0,0 -7,-10 -5,-15 2,-6 11,-18 15,-22 3,-3 18,-23 18,-23l-15 -18 -6 -4c0,0 -10,12 -16,16 -6,4 -40,24 -40,24z"/>
   <path fill="#A0B7C3" fill-rule="nonzero" d="M587 378l-5 5 -2 21 -10 9 -23 18 -18 13 -3 8 -17 -3 -14 -8 -15 3 -18 5 -16 -13 -13 -16 -13 -9 -3 14 12 21 16 33 23 -9 19 -9 9 5 16 3 19 8 -1 -13c0,0 12,-10 16,-12 3,-3 28,-18 28,-18l18 -15 6 -2 2 -6 8 -17 -7 -9 4 -10 -9 -2 -9 5z"/>
   <path fill="#79443C" fill-rule="nonzero" d="M546 418c-4,4 -18,15 -18,15l-7 2 -3 -12c0,0 -4,-13 0,-15 5,-3 13,-8 13,-8 2,-1 21,-2 21,-2l10 7c0,0 -12,9 -16,13zm-75 -34l-11 -9c0,0 34,-1 43,-1 9,0 18,9 18,9l-4 3c0,0 -5,-2 -13,-2 -8,-1 -33,0 -33,0zm5 46l-3 -2c0,0 -20,-6 -25,-9 -5,-3 -10,-15 -10,-15 11,-7 41,2 44,5 2,3 6,11 6,11l-12 10zm-50 -32c0,0 -17,-2 -15,-5 0,0 2,-7 8,-13 7,-6 16,-9 16,-9l2 13 -11 14zm151 -9l4 -18 -27 -2 -27 -3 -21 -12 -39 -2 -11 -20 -9 -8 -15 3 -10 29c0,0 -19,7 -21,8 -3,1 -23,4 -23,4l-36 10 1 12 32 0 9 3 9 14 6 -7 6 -4 12 6 3 9 17 13 25 25 9 -2 15 -4 12 0 20 9 8 0 10 -13 21 -14 22 -17 3 -11 -5 -8z"/>
   <path fill="#252422" fill-rule="nonzero" d="M315 106c0,0 2,6 4,10l9 -4 -4 -9c0,0 -5,-1 -9,3z"/>
   <path fill="#252422" fill-rule="nonzero" d="M682 413l-1 -7c-1,-2 8,2 8,2l-7 5zm13 -7c-1,-1 -13,-6 -13,-6 0,0 -4,-2 -4,1 0,0 0,12 0,14 0,2 2,4 4,4 2,0 8,-5 9,-6 2,0 5,-3 5,-3 0,0 1,-4 -1,-4z"/>
   <path fill="#252422" fill-rule="nonzero" d="M824 188c0,0 2,3 5,2 2,0 12,-12 12,-12 0,0 -7,-4 -9,-2 -2,2 -8,12 -8,12z"/>
   <path fill="#252422" fill-rule="nonzero" d="M828 211c-1,1 -25,13 -25,13l-1 -2c0,0 17,-10 21,-12 4,-2 5,-1 5,1zm6 -1c0,0 -3,-6 -5,-6 -2,0 -22,10 -33,18 0,0 0,2 1,5 1,2 3,5 6,5 3,0 17,-8 20,-10 3,-1 11,-5 11,-6 1,-2 0,-6 0,-6z"/>
   <path fill="#252422" fill-rule="nonzero" d="M819 358l-10 -4 0 -2c0,0 6,-1 9,0 3,0 3,1 3,3 0,1 -2,3 -2,3zm6 -11c0,0 -10,-2 -20,1 0,0 0,9 1,10 0,1 8,4 8,4l6 3c0,0 10,-7 10,-9 0,-2 -5,-9 -5,-9z"/>
   <path fill="#252422" fill-rule="nonzero" d="M634 131l-2 0 -5 1 -2 -1 0 -7c3,-1 9,0 9,0l0 7zm4 -8c0,-2 -2,-5 -17,-4 0,0 -2,2 -2,3 0,2 1,12 1,13 0,1 5,2 5,2 0,0 9,1 10,0 1,-1 4,-5 4,-5 0,0 0,-7 -1,-9z"/>
   <path fill="#252422" fill-rule="nonzero" d="M175 397c0,0 -7,2 -8,2 -2,0 -4,-2 -4,-2 2,0 6,-2 9,-2 2,0 6,2 6,2l-3 0zm6 -5c-2,0 -14,0 -14,0 0,0 -6,2 -9,4l1 3 5 6c0,0 3,2 5,1 1,-1 9,-4 11,-5 1,-2 4,-5 4,-5 0,0 -1,-4 -3,-4z"/>
   <path fill="#252422" fill-rule="nonzero" d="M188 425c-2,0 -4,-8 -4,-8 0,0 18,-16 20,-16 2,-1 4,6 4,6 0,0 -17,17 -20,18zm25 -17c-1,-2 -4,-11 -4,-11 0,0 -4,-4 -6,-3 -1,1 -24,21 -24,21l-1 4c0,0 3,8 3,10 1,2 3,4 3,4 0,0 4,2 5,1 2,-1 20,-19 22,-21 2,-3 2,-4 2,-5z"/>
   <path fill="#252422" fill-rule="nonzero" d="M254 283c0,0 9,60 12,71 0,0 12,3 20,3l-27 6c0,0 2,-16 0,-27 -2,-11 -5,-37 -5,-37 0,0 -1,-7 0,-16z"/>
   <path fill="#252422" fill-rule="nonzero" d="M315 289l5 5c0,0 15,-8 22,-19 0,0 -15,9 -27,14z"/>
   <path fill="#252422" fill-rule="nonzero" d="M117 264c0,0 -4,36 -2,42 2,7 19,36 26,42 8,5 26,11 39,11 13,0 37,-3 37,-3 0,0 -16,5 -36,9 0,0 -28,-2 -44,-12 0,0 -15,-13 -25,-39 0,0 -1,-11 -1,-18 0,-6 2,-22 6,-32z"/>
   <path fill="#252422" fill-rule="nonzero" d="M301 327c0,0 20,13 27,25l24 -3c0,0 -11,-2 -13,-3 -2,-1 -8,-1 -12,-4 -4,-3 -10,-6 -13,-9 -3,-2 -13,-6 -13,-6z"/>
   <path fill="#252422" fill-rule="nonzero" d="M375 346c0,0 19,-2 30,-1 0,0 13,-30 16,-36l35 -2 19 32 25 0c0,0 -15,-4 -19,-6 -4,-1 -8,-6 -12,-14 -3,-8 -8,-18 -8,-18 0,0 -30,2 -43,3 0,0 -11,26 -14,30 -4,4 -15,7 -19,9 -5,1 -10,3 -10,3z"/>
   <path fill="#252422" fill-rule="nonzero" d="M554 298c0,0 2,-19 6,-26 3,-6 14,-15 19,-16 5,-1 26,-2 26,-2l12 -24c0,0 -13,14 -17,16 -4,3 -18,2 -22,4 -4,3 -18,13 -20,16 -3,2 -5,12 -6,15 0,3 2,17 2,17z"/>
   <path fill="#252422" fill-rule="nonzero" d="M529 330c0,0 8,17 13,20 6,2 38,9 44,9 5,0 26,-9 34,-14l-7 -18c0,0 -1,11 0,14 0,0 -15,6 -18,8 -3,1 -7,3 -12,4 -6,0 -33,-5 -37,-6 -6,-3 -17,-17 -17,-17z"/>
   <path fill="#252422" fill-rule="nonzero" d="M688 225c0,0 -2,36 -2,42l6 -6c0,0 -3,-27 -4,-36z"/>
   <path fill="#252422" fill-rule="nonzero" d="M762 224c0,0 -21,24 -32,36 -11,13 -14,18 -14,18 0,0 13,22 21,38 7,16 19,27 23,39 0,0 -13,2 -20,4l30 4c0,0 -20,-35 -27,-47 -4,-9 -17,-36 -17,-36 0,0 9,-17 13,-23 5,-8 23,-33 23,-33z"/>
   <path fill="#252422" fill-rule="nonzero" d="M664 352l19 1 3 -29c0,0 -3,7 -4,9 -2,3 -4,14 -4,14 0,0 -9,3 -14,5z"/>
   <path fill="#252422" fill-rule="nonzero" d="M766 284c-2,0 -6,0 -6,0 4,-4 28,-14 28,-14 0,0 7,-4 10,-5 2,-1 22,-9 22,-9l-15 12c0,0 -17,6 -19,7 -1,1 -19,9 -20,9zm-32 -3c12,24 46,90 46,90l-49 -8 -29 -52 -10 11 -2 39 -40 -3 4 -31c0,0 6,-5 8,-8 3,-3 4,-4 4,-8 0,-3 0,-10 -1,-12 -1,-2 -9,-7 -9,-7 0,-19 -3,-77 -3,-77 15,-5 45,-12 45,-12l-1 56c8,-12 41,-52 41,-52 11,-2 46,-6 46,-6 -11,22 -50,80 -50,80zm-19 106l-8 -15c0,0 -1,-3 -4,-6l0 -14 16 24 -4 11zm-70 -73c-1,-2 0,-4 1,-6 1,-2 6,-8 6,-8 1,-2 8,1 9,2 1,1 0,7 -1,10 0,3 -6,6 -8,6 -2,1 -6,-3 -7,-4zm-9 27c0,-6 -12,-34 -14,-35 -2,-1 -13,10 -23,11 -11,1 -21,-3 -26,-9 -5,-7 -4,-15 -3,-20 2,-5 9,-13 15,-14 5,-1 26,2 26,2 8,-11 14,-27 20,-39 3,-6 5,-11 5,-14 1,-4 -6,-7 -10,-9 -13,-5 -33,-12 -42,-11 -14,3 -46,14 -60,27 -12,13 -17,33 -20,45 -4,13 2,37 2,37 -12,-14 -45,-97 -45,-97 -15,2 -59,2 -59,2 -3,8 -40,118 -40,118 -8,-13 -27,-31 -27,-31 14,-11 24,-25 26,-39 2,-15 -4,-31 -12,-42 -8,-12 -21,-17 -21,-17l-10 8 -9 -12c-18,-1 -37,1 -49,3 0,0 0,0 0,0l2 -6 5 0c0,0 8,-8 11,-11 4,-3 8,-4 8,-4l9 -9 -2 -9 8 5c0,0 9,-1 16,0 6,1 21,2 21,2 0,0 10,-6 15,-9 5,-3 24,-13 24,-13l10 -6c0,0 15,13 23,15 0,0 15,0 22,-1 8,-1 28,-3 28,-3 0,0 32,5 43,10 0,0 12,-9 16,-13 5,-4 15,-13 15,-13l30 2 -3 7c0,0 17,12 19,17 2,6 1,7 5,10 5,3 13,10 13,10l5 1c0,0 9,-5 11,-6 3,-2 9,-6 9,-6 0,0 12,-1 15,-1 3,0 9,-1 9,-1l3 1 4 -2 -3 5 2 14c0,0 9,-4 16,-6 8,-1 19,-3 23,-4 4,-2 19,-5 19,-5 0,0 15,-3 28,-3 0,0 -14,24 -16,29 -2,4 -5,12 -6,17l-10 12 0 -39c0,0 -59,14 -65,20 0,0 5,60 5,84 0,0 -10,12 -11,15 -1,3 8,13 8,13l2 4c-3,4 -8,11 -10,13zm-38 21c-10,4 -17,3 -25,2 -7,-1 -28,-7 -38,-11 -10,-5 -14,-18 -17,-29 -3,-10 -6,-35 -5,-43 0,-9 9,-30 9,-30 3,-7 8,-15 20,-23 13,-8 40,-16 40,-16 19,1 45,9 45,9 -4,15 -18,41 -18,41 -19,-3 -32,3 -38,7 -6,5 -9,12 -10,20 -1,9 4,23 8,27 4,4 12,9 19,9 8,0 28,-5 28,-5 6,6 14,27 14,27 -8,6 -22,12 -32,15zm27 27c1,2 5,10 5,10l-8 2c0,0 -12,-6 -14,-8 -1,-3 -4,-8 -4,-8l2 -2c0,0 10,4 11,4 1,1 7,1 8,2zm-27 15c-1,3 -2,10 -2,10l-10 -4c0,0 1,-7 1,-9 1,-3 0,-6 0,-9 1,-4 3,-8 3,-8l3 -2c0,0 7,-5 6,-3 -2,2 -3,6 -3,6 0,0 0,2 1,4 1,2 4,3 4,6 0,2 -1,6 -3,9zm-25 28c-3,3 -25,15 -27,16 -2,1 -12,9 -12,9 0,0 0,-7 1,-10 1,-2 3,-5 3,-5 0,0 17,-11 21,-14 4,-3 19,-12 19,-12l9 4c0,0 -10,9 -14,12zm-207 -89c5,-10 41,-114 41,-114 24,0 49,-2 49,-2 18,51 50,106 57,119 -14,0 -28,0 -42,0l-20 -32 -26 2 -16 37c-14,1 -26,-1 -39,1 -2,-4 -4,-11 -4,-11zm163 95l-8 10c0,0 -16,-4 -20,-6 -3,-2 -12,-7 -12,-7 0,0 -5,2 -9,4 -3,2 -17,7 -17,7 0,0 -16,-16 -21,-22 -5,-6 -11,-13 -11,-13l-7 -4c0,0 2,-9 0,-10 -2,-1 -20,-5 -20,-5 0,0 -6,1 -9,7 0,0 -6,-3 -8,-4 -2,-2 -6,-9 -9,-9 -4,1 -30,0 -30,0 0,0 -2,-5 -5,-5 -4,-1 -17,-9 -20,-10l1 -1c24,-5 93,-5 93,-5 3,-9 17,-38 17,-38l13 0c0,0 6,11 9,20 4,8 9,10 9,10 11,0 62,2 62,2 9,6 30,13 39,15 6,1 10,1 13,2l-4 29c0,0 -15,12 -19,15 -4,2 -23,17 -23,17l-4 1zm-16 29c0,0 -6,-3 -8,-3 -1,-1 -9,-4 -11,-5 -2,-2 -5,-4 -5,-4l-1 -7c2,-1 6,0 6,0 0,0 4,3 6,4 3,1 21,7 21,7l2 9 3 5 -13 -6zm-46 -4c-3,2 -8,5 -13,7 3,-5 8,-16 8,-16 0,0 4,-1 6,-2 3,-1 16,-5 16,-5l1 10c0,0 -13,3 -18,6zm-20 6c-1,-2 -5,-9 -5,-9 0,0 -10,-15 -13,-21 -3,-6 -11,-15 -11,-15 3,-5 4,-9 4,-9l3 3c0,0 9,11 13,15 4,4 13,14 15,17 3,3 5,3 5,3 -2,4 -7,14 -10,20 0,-1 -1,-3 -1,-4zm-36 -46c0,0 -4,1 -9,3 -5,3 -12,9 -12,9l-4 -5c0,0 10,-15 11,-19 2,-4 2,-6 2,-6l4 -4c3,0 13,6 13,6l-5 16zm-26 -12c-5,-2 -12,-8 -12,-8l6 -7c3,1 9,8 9,8 -1,5 -3,7 -3,7zm-22 -11c-2,0 -10,2 -10,2 0,0 -7,0 -12,-1l12 -8c0,0 7,-1 8,-1 1,0 3,1 5,1 2,0 10,0 10,0l-6 8c0,0 -6,-1 -7,-1zm-32 -6l-2 -3c0,0 -6,-1 -10,-1 -4,-1 -6,-2 -8,-4 -2,-1 -11,-7 -11,-7l-1 -2c2,-2 9,-4 9,-4 4,1 9,5 12,7 3,1 12,5 14,5 3,0 6,2 6,2l-9 7zm-77 -23c-1,-12 -8,-62 -10,-78 -2,-19 -7,-74 -7,-74 26,-10 65,-8 65,-8l12 18c8,-4 17,-13 17,-13 0,0 7,2 15,14 8,12 9,28 4,41 -5,13 -27,31 -27,31 24,23 34,46 37,52 -13,1 -24,3 -35,4 -10,-16 -31,-26 -31,-26l0 31c-23,4 -38,7 -40,8zm-36 -96l-22 -6c12,-1 24,2 24,2l-2 4zm-52 23c0,0 0,-12 1,-16 2,-7 9,-10 15,-11 0,0 14,1 16,3 2,1 2,1 6,2 4,1 10,1 10,1l-2 15c0,0 -18,6 -21,6 -3,0 -25,0 -25,0zm31 5c6,-1 19,-2 19,-2l4 5 -6 4c0,0 -17,-1 -24,3 -8,3 -11,4 -11,4 0,0 -7,-1 -9,-7 0,0 22,-6 27,-7zm-13 69c0,0 -17,0 -26,-2 -9,-2 -23,-5 -28,-11 -6,-5 -23,-26 -26,-48 -2,-21 -1,-52 13,-70 14,-18 22,-23 34,-27 11,-5 30,-9 42,-7 11,2 37,14 37,14l-10 21c-4,-1 -14,-4 -21,-3 -10,2 -25,10 -34,18 0,0 14,-7 21,-8 8,-1 20,-2 23,-2 2,0 6,1 8,2l-3 6c0,0 -25,-4 -33,1 -8,4 -17,7 -21,19 -3,12 -2,29 4,38 6,9 18,19 38,12 19,-7 34,-13 34,-13 0,0 -2,6 -13,12 0,0 12,20 15,28 0,0 -25,15 -54,20zm56 -201l7 1c0,0 6,5 10,11l-7 5 -10 -17zm-14 -18c-2,-3 -14,-20 -14,-20 0,0 13,-12 18,-15 5,-4 14,-12 17,-13 3,-1 12,-7 15,-9l8 23c0,3 -1,10 0,18 1,10 6,27 6,27l-15 18 -11 -15c0,0 -5,-1 -8,-1 -2,0 -9,-2 -9,-2 0,0 -5,-8 -7,-11zm116 -10l3 13 -8 4c-8,-5 -12,-12 -12,-12 6,-4 17,-5 17,-5zm172 -22c0,0 -11,-5 -14,-7 -4,-2 -17,-9 -17,-9l-1 -3 16 5c0,0 9,7 13,9 5,2 15,8 15,8l-12 -3zm89 37c4,0 13,3 13,3l-1 5c0,0 -12,8 -13,7 -1,0 -2,-5 -3,-9 0,-4 4,-6 4,-6zm81 -29c0,-3 1,-11 4,-13 2,-2 8,-7 8,-7 0,0 8,-8 13,-12 0,0 -8,12 -10,15 -3,3 -7,13 -7,13l-12 13c0,0 4,-5 4,-9zm128 141c0,0 3,-3 4,-5 2,-2 12,-8 12,-8l8 0 18 -1c0,0 16,-5 21,-6 5,-2 31,-7 31,-7 0,0 -24,2 -31,4 -8,1 -41,5 -41,5l-13 -3 -12 5c0,0 -21,9 -25,11 -4,2 -26,9 -26,9l31 -51 2 -9 6 -12 -9 -11 -48 6 22 -33 32 -12 3 -3c0,0 9,-5 15,-9 7,-4 24,-20 24,-20 0,0 -14,8 -18,12 -5,4 -34,19 -34,19 0,0 -23,6 -27,7 -4,1 -29,2 -35,2 -5,0 -11,-2 -11,-2 -25,6 -42,14 -42,14l5 -16c0,0 11,-14 13,-17 2,-2 12,-14 12,-14 0,0 3,-10 5,-13 1,-3 13,-15 13,-15 3,-6 8,-15 13,-23 5,-7 19,-36 19,-36 0,0 -12,17 -15,23 -3,6 -16,25 -16,25 0,0 -8,5 -10,6 -1,2 -12,12 -12,12 0,0 -12,5 -15,11 -3,5 -13,27 -13,27 -9,12 -19,18 -19,18l-26 0 -2 -6c-10,-2 -22,-2 -22,-2 -5,3 -7,11 -7,11l-10 -10c3,-8 12,-24 12,-24 0,0 -5,-12 -6,-19 -1,-6 -4,-31 -4,-37 -1,-5 -3,-13 -3,-13 0,0 1,-17 1,-23 0,-6 -1,-27 -1,-27 0,0 -5,63 -5,69 0,7 2,41 2,41l-4 8 -27 -1c0,0 -3,-5 -11,-10 -9,-5 -51,-20 -54,-22 -4,-1 -8,-6 -11,-10 -2,-5 -8,-13 -8,-13 0,0 8,22 10,26 3,5 6,11 6,11 0,0 22,10 26,12 4,1 6,6 6,6l12 6 -15 7 -38 -5 -11 6c-15,-1 -49,5 -49,5 -5,-6 -22,-21 -22,-21 0,0 -2,-16 -4,-25 -1,-10 -3,-26 -5,-33 -2,-6 -6,-29 -6,-29 0,0 0,52 0,58 0,6 -1,15 -1,17 0,3 2,23 2,23l-25 11c-1,-5 -3,-11 -3,-11 -5,1 -24,6 -26,8 -1,2 3,11 3,11l-19 -1c0,0 -16,-15 -19,-18 -3,-3 -5,-11 -8,-17 -1,-2 -1,-3 -2,-3l-13 -28 -8 -23c0,0 -6,-9 -12,-16 0,0 9,18 12,27 3,7 6,14 7,17 -3,1 -14,8 -19,11 -6,3 -14,6 -14,6l-29 20 -8 -11c0,0 -8,-3 -10,-7 -3,-3 -13,-16 -13,-16l-19 -20c0,0 15,21 19,25 4,4 11,15 13,17 1,3 4,7 7,10 3,3 10,11 10,11l10 -1c0,0 9,10 10,13 2,2 5,6 6,9 1,3 4,8 4,8l5 1 13 27 -15 15c-9,-4 -28,-12 -38,-14 -4,0 -10,0 -16,2 -3,-2 -11,-6 -13,-7 -3,-1 -10,-5 -10,-5 0,0 -13,-1 -15,-2 -3,0 -23,-9 -23,-9l-16 -7c0,0 10,8 13,9 2,1 19,8 22,10 3,2 7,5 7,5l13 1c0,0 5,5 9,8 -3,1 -6,2 -8,2 -6,0 -13,0 -20,0 -13,-1 -33,-2 -33,-2l-9 -3c0,0 -17,-9 -19,-10 -2,-1 -9,-5 -9,-5l-19 -6c0,0 -11,-3 -26,-4 -6,-1 -16,-1 -21,-1 0,0 27,3 37,6 9,4 19,9 21,11 1,1 13,5 13,5l18 14c0,0 26,2 32,2 5,0 12,1 16,2 -4,2 -10,6 -13,9 -7,5 -16,16 -16,16 0,0 -3,6 -6,13 -5,4 -12,12 -12,12 -7,14 -7,27 -7,30 0,1 1,6 2,9 -4,2 -8,4 -11,5 -4,1 -7,1 -10,4 -4,2 -16,10 -16,10 0,0 -2,5 -9,8 -7,3 -16,6 -16,6l-13 7c0,0 9,-3 15,-4 5,-2 11,-2 18,-6 7,-5 23,-15 33,-19 8,-3 18,-5 22,-6l1 3 -10 4c0,0 2,13 7,27 5,13 10,20 11,22 2,3 31,15 45,19 14,4 29,4 47,-2 8,-2 18,-5 26,-7l5 31 6 2 8 32 -3 -39 -4 -3 -4 -26c4,-1 7,-2 9,-2 1,10 5,15 5,15 8,-3 43,-7 43,-7 0,0 7,15 11,16 3,1 22,5 22,5 0,0 -9,37 -12,49 -3,11 -7,34 -7,34l-4 4c0,0 -7,15 -10,23 -4,8 -15,29 -15,29l11 -15c0,0 18,-33 21,-38 3,-4 10,-16 10,-16l2 -12c0,0 10,-30 12,-36 1,-6 3,-8 7,-11 5,-2 9,2 9,2 0,0 18,0 21,0 3,0 16,9 16,9 -4,6 -6,15 -6,15 3,4 11,9 11,9l5 -2c0,0 2,-3 6,-5 4,-2 14,-4 14,-4l5 3c0,0 7,15 12,25 4,10 12,21 12,21 -4,16 -5,29 -5,29 0,0 5,-16 7,-22 2,-7 12,-9 12,-9 0,0 12,-5 17,-9 6,-5 13,-5 13,-5 3,2 13,6 19,6 6,1 12,7 12,7 0,0 9,3 13,5 5,2 11,15 13,18 2,3 7,15 7,15 0,0 5,14 7,19 3,5 23,49 23,49 0,0 -15,-40 -18,-49 -4,-9 -9,-31 -9,-31 0,0 -6,-9 -9,-16 -4,-7 -10,-18 -10,-20 0,-1 6,-12 6,-12 0,0 8,-5 13,-7 4,-3 21,-12 26,-16 5,-4 13,-8 13,-8l13 -1c0,0 19,26 23,29 3,3 32,21 32,21l-26 -24c0,0 -12,-15 -18,-22 -5,-6 -14,-14 -14,-14l5 -13c0,0 11,8 14,9 3,1 7,-2 10,-3 3,-1 7,-3 6,-7 -2,-4 -8,-10 -10,-13 -2,-3 -7,-5 -7,-5l3 -5 11 -12 1 -5 6 -7c-1,10 0,18 0,18 11,2 60,8 60,8l5 8c0,0 1,17 1,21 0,4 -2,6 -2,6 0,0 -2,8 -3,11 -1,4 -3,12 -3,12l18 -33c-1,-8 8,-30 8,-30 0,0 10,10 15,13 5,3 10,9 10,9l7 -1c0,0 21,4 25,6 5,1 16,5 22,7 6,2 25,12 25,12l30 9c0,0 -38,-17 -41,-19 -3,-3 -21,-10 -21,-10l-6 -6c0,0 -7,-1 -18,-4 -11,-2 -19,-4 -19,-4l43 3 0 -11c0,0 -10,-13 -16,-25 -5,-11 -20,-38 -20,-38l-4 -19 -6 -1 -6 -8 7 3 5 2c0,0 15,-2 18,-3 4,-1 8,1 12,1 3,-1 15,-1 19,-2 5,-1 9,2 13,2 4,1 17,3 17,3l-21 -9c0,0 -16,1 -21,2 -4,0 -17,-3 -17,-3l17 -6 17 -7z"/>
   <path fill="#252422" fill-rule="nonzero" d="M267 205c0,0 5,-6 13,-10l4 3 -1 5c0,0 -22,8 -16,2z"/>
   <path fill="#252422" fill-rule="nonzero" d="M422 168c-2,0 -4,7 -4,7 0,0 2,11 1,13 0,1 1,12 1,12 0,0 4,-15 5,-18 0,-2 1,-6 2,-8 1,-2 15,-9 15,-9 0,0 -14,1 -20,3z"/>
   <path fill="#252422" fill-rule="nonzero" d="M627 167l-11 2 -3 4 -1 0 -8 6 -11 -8 -2 -9 -18 -21c0,0 -16,-8 -18,-8 -2,0 -16,0 -18,1 -1,0 -12,4 -2,7 0,0 18,6 27,11 -16,0 -43,0 -44,0 -2,0 -18,-4 -18,-4l-54 -3c0,0 -24,3 -25,3 0,1 -6,2 -12,3 0,0 -1,-1 -1,-1l-17 -6 -26 5 -13 9 -25 8c0,0 -16,-8 -18,-8 -1,0 -21,5 -21,5l-17 18 -15 15 -9 13 8 0 11 -9c0,0 10,-11 13,-12 2,0 6,-2 6,-2l5 -4c0,0 1,8 1,11 0,3 -2,11 -2,11l10 1c0,0 0,-15 0,-18 0,-3 5,-16 5,-16l4 2c0,0 0,8 -1,11 0,3 -1,10 -1,10l-2 11 8 9c0,0 1,-16 1,-20 1,-3 16,-16 23,-19 7,-3 39,-13 60,-12 0,0 5,4 5,9 0,4 2,33 0,43 0,3 -7,11 -10,15 -2,3 -8,5 -10,6 -3,0 -25,-1 -25,-1l2 11c0,0 28,-4 32,-2 5,2 4,6 4,6l12 -29 5 -1c0,0 0,-46 0,-50 0,-3 -1,-6 2,-9 1,-1 3,-1 5,-1 9,0 23,-1 29,-2 6,-1 13,-1 20,0 7,1 26,5 26,5l11 11 -1 39 -7 15c0,0 -7,2 -10,3 -3,1 -15,2 -18,2 -4,0 -1,8 -1,8l4 8c0,0 13,-2 18,-4 4,-1 11,-2 13,-4 2,-1 5,-4 5,-4 0,0 7,7 11,8 3,0 6,-12 6,-12 0,0 -12,-6 -14,-11 0,0 -1,-20 -1,-28 0,-8 1,-16 1,-16 0,0 7,-12 10,-14 4,-2 40,-2 55,-3 2,2 3,3 5,3 -6,1 -14,2 -17,2 -4,0 -7,2 -12,2 -5,1 -13,2 -13,2 0,0 -11,-1 -16,4 0,0 -3,7 -3,10 0,3 0,6 0,6 0,0 10,-8 17,-11 6,-3 22,-7 32,-6 5,0 9,-1 14,0l12 10c0,0 1,6 2,8 0,3 1,9 1,9l1 2c0,0 6,-10 7,-13 1,-3 2,-5 4,-6 0,2 1,5 1,8 0,7 -3,19 -3,19l13 4c0,0 -2,-6 -2,-13 0,-7 1,-19 1,-19 0,0 7,-5 8,-7 1,-3 0,-8 0,-8z"/>
   <path fill="#252422" fill-rule="nonzero" d="M645 178c0,0 -9,1 -11,2 -2,2 -9,8 -9,8 0,0 0,13 -1,17 0,4 0,12 0,12l8 4 -6 19c0,0 12,0 15,0 3,0 8,-2 8,-2l1 -27 51 -15 2 26c0,0 10,-16 19,-32l4 -11c0,0 -13,1 -21,4 -8,3 -29,8 -34,10 -6,2 -25,10 -25,10 0,0 0,-5 0,-9 -1,-5 0,-11 -1,-16z"/>
   <path fill="#252422" fill-rule="nonzero" d="M574 279c0,0 -4,17 7,27 0,0 7,-9 12,-12 5,-4 9,-7 11,-8 2,0 14,-6 16,-7 2,-1 8,-1 8,-1 0,0 8,-13 10,-14 0,0 9,-2 11,-2 3,1 0,-15 0,-15 0,0 -19,1 -25,3 -6,2 -12,16 -12,16l-15 -2c0,0 -23,2 -23,15z"/>
   <path fill="#252422" fill-rule="nonzero" d="M628 321c0,0 12,2 17,0 5,-1 2,11 2,11l-3 9 -8 -1c0,0 -16,-22 -8,-19z"/>
   <path fill="#252422" fill-rule="nonzero" d="M473 256c0,0 7,-2 16,-3 0,0 7,18 13,25 6,8 7,49 7,49l-33 -58 -3 -13z"/>
   <path fill="#252422" fill-rule="nonzero" d="M358 252c0,0 6,1 14,6 0,0 -2,13 -3,18 -1,6 -5,14 -5,14l12 12 -5 16 -23 -2 -16 -16 14 -13 9 -13 3 -22z"/>
   <path fill="#252422" fill-rule="nonzero" d="M352 325c0,0 11,-4 15,-1 7,4 -5,18 -5,18l-10 -17z"/>
   <path fill="#252422" fill-rule="nonzero" d="M571 379c0,2 -3,1 -7,4 -7,3 -33,7 -36,7 -6,1 -44,6 -49,6 -5,0 -17,-4 -20,-5 -3,-2 -14,-9 -15,-12 -1,-2 0,-20 0,-25 -1,-5 -2,-11 -2,-11l2 -3c3,2 5,5 6,8 1,6 2,12 2,12l4 5c0,0 14,1 26,1 12,0 24,0 24,0 0,0 21,14 24,15 3,0 25,-4 40,-5 1,1 1,2 1,3zm13 -6c1,-2 -2,-5 -2,-5l-24 -3 -18 -6c0,0 -19,-11 -20,-11 -1,0 -14,3 -14,3l-42 -2 -10 -22 -9 -7 -3 2 -9 -2 -5 5 1 2 -3 0 -18 32 -46 0 -24 2 -25 -3 10 13 16 10 7 8c0,0 4,-5 9,-6 5,-1 30,-2 32,-2 2,1 12,2 12,2 0,0 25,-16 28,-18 2,0 4,0 6,0l0 5c0,0 1,13 0,15 0,2 -12,11 -12,11l-3 4 4 5c0,0 29,0 35,0 6,0 17,1 20,3 3,1 15,6 15,6 0,0 0,15 0,17 -1,1 -12,7 -16,12 -4,4 18,-3 18,-3l12 6 4 0c0,0 -5,-5 -6,-11 0,-6 0,-20 1,-23 1,-2 7,-8 9,-9 3,0 27,-1 33,-2 7,-1 23,-2 23,-2 0,0 6,0 8,0 2,0 4,-10 4,-10l4 -16 -2 0z"/>
  </g>
  <rect fill="none" width="906" height="584"/>
 </g>
</svg>
