

<!-- Creator: CorelDRAW X8 -->
<svg xmlns="http://www.w3.org/2000/svg" xml:space="preserve" x="0" y="0" width="25mm" height="25mm" version="1.1" shape-rendering="geometricPrecision" text-rendering="geometricPrecision" image-rendering="optimizeQuality" fill-rule="evenodd" clip-rule="evenodd"
viewBox="0 0 251 251"
 xmlns:xlink="http://www.w3.org/1999/xlink">
 <g id="Katman_x0020_1">
  <metadata id="CorelCorpID_0Corel-Layer"/>
  <g id="_2525714372032">
   <path fill="#F93E26" fill-rule="nonzero" d="M40 108c2,3 5,6 8,9 4,-1 7,-3 11,-4 -2,2 -5,6 -7,10 2,2 4,5 5,8 -2,-1 -5,-1 -8,-2 -2,3 -4,6 -5,7 -1,-2 -2,-5 -2,-8 -4,-1 -8,-2 -12,-2 4,-2 7,-4 11,-5 0,-5 0,-9 -1,-13z"/>
   <path fill="#FEFEFE" fill-rule="nonzero" d="M33 126c2,0 5,0 9,1 0,0 0,0 0,0 1,4 1,6 2,8 1,-2 2,-4 4,-6l0 -1c0,0 0,0 1,0 2,1 3,1 5,1 1,0 1,1 2,1 -1,-2 -2,-5 -4,-7 0,0 0,-1 0,-1 2,-3 3,-6 5,-8 -3,1 -6,3 -9,4 0,0 0,0 -1,0 0,-1 -1,-2 -1,-2 -2,-2 -4,-4 -5,-5 0,3 1,6 1,9l0 1c0,0 0,0 -1,0 -2,2 -5,3 -8,5zm11 11c0,0 0,0 0,0 0,0 0,0 -1,0 -1,-2 -1,-5 -2,-9 -4,-1 -8,-1 -11,-1 0,0 0,0 0,0 0,-1 0,-1 0,-1 3,-2 7,-4 10,-6l0 0c0,-4 0,-8 -1,-12 0,0 0,0 1,0 0,-1 0,0 0,0 2,2 5,5 7,7 0,0 1,1 1,1 4,-1 7,-3 11,-4 0,0 0,0 1,0 0,0 0,1 0,1 -2,2 -4,5 -7,9 2,3 4,6 5,8 0,1 0,1 0,1 0,0 -1,0 -1,0 -1,0 -2,0 -3,0 -2,-1 -3,-1 -5,-1 -2,3 -3,5 -4,7 0,0 -1,0 -1,0z"/>
   <polygon fill="#FEFEFE" fill-rule="nonzero" points="27,114 35,119 28,114 "/>
   <polygon fill="#FEFEFE" fill-rule="nonzero" points="68,119 58,122 69,121 "/>
   <polygon fill="#FEFEFE" fill-rule="nonzero" points="67,123 57,123 66,125 "/>
   <polygon fill="#FEFEFE" fill-rule="nonzero" points="45,104 48,114 46,101 "/>
   <polygon fill="#FEFEFE" fill-rule="nonzero" points="56,103 50,114 56,106 "/>
   <polygon fill="#FEFEFE" fill-rule="nonzero" points="32,136 32,137 40,130 "/>
   <polygon fill="#FEFEFE" fill-rule="nonzero" points="39,132 34,140 36,139 "/>
   <polygon fill="#FEFEFE" fill-rule="nonzero" points="50,141 51,142 50,132 "/>
   <polygon fill="#FEFEFE" fill-rule="nonzero" points="51,133 54,141 55,140 "/>
   <path fill="#231F20" fill-rule="nonzero" d="M172 125c-2,0 -4,0 -5,0 1,-1 3,-2 6,-3 -9,3 -11,0 -9,-9 -1,4 -2,6 -4,7 0,-1 -1,-3 -1,-6 0,3 -1,5 -1,7 -2,0 -4,-2 -7,-4 4,3 5,6 5,8 -2,1 -4,1 -8,2 2,0 4,0 5,1 -1,0 -3,1 -5,1 9,-2 12,0 10,9 0,-2 1,-4 2,-5 0,2 0,3 1,5 0,-3 0,-5 0,-7 3,-1 5,0 9,4 -3,-4 -5,-6 -4,-8 1,-1 3,-1 6,-2z"/>
   <path fill="#FE9A11" fill-rule="nonzero" d="M98 213c-2,-1 -5,-1 -7,-1 -2,1 -4,1 -6,2 -1,1 -3,2 -5,4 0,0 -1,1 -1,1 0,-1 0,-2 -1,-3 0,-5 -1,-10 -3,-14 -1,-2 -3,-4 -4,-5 -2,-1 -4,-2 -5,-3 -4,0 -7,1 -9,2 0,-2 1,-4 1,-6 0,-2 0,-5 0,-8 0,-2 0,-5 -1,-8 0,-3 -1,-5 -2,-8 -1,-3 -3,-5 -4,-7 -2,-2 -3,-3 -5,-4 0,0 0,-1 -1,-1 2,0 3,-1 5,-1 4,-2 8,-6 12,-11 4,-5 6,-11 7,-16 1,-3 1,-6 1,-9 2,2 4,3 6,4 3,1 5,1 8,1 3,0 6,-1 9,-2 2,-2 5,-3 7,-6 3,-2 5,-4 7,-7 3,-4 5,-9 6,-13 1,2 2,3 3,5 3,3 7,5 12,4 3,0 5,0 7,-1 3,-1 5,-3 7,-4 3,-3 6,-7 8,-9 0,3 2,8 4,12 2,2 4,3 6,4 2,1 4,2 7,2 4,0 9,-2 13,-4 3,-1 5,-3 8,-5 -1,1 -1,2 -2,3 0,2 -1,5 -1,7 -1,3 0,6 1,8 1,3 2,5 4,5 3,1 5,1 7,1 2,0 4,-1 5,-1 3,-1 5,-2 7,-3 0,1 -1,2 -1,3 -2,3 -3,6 -4,10 -1,4 -2,8 -1,12 0,4 1,8 2,12 1,4 3,7 5,10 2,3 4,5 6,7 2,1 3,2 5,3 -1,0 -1,0 -2,0 -2,0 -4,0 -6,0 -2,0 -5,0 -7,1 -3,0 -6,1 -8,2 -3,2 -6,3 -9,5 -2,2 -5,5 -7,7 -2,3 -4,6 -6,9 -1,4 -2,7 -2,10 0,1 0,1 0,1 -3,1 -6,2 -10,4 -2,1 -4,3 -6,6 -1,2 -3,5 -4,8 -2,3 -3,6 -3,9 -1,3 -2,6 -2,9 0,2 0,4 0,5 0,0 0,0 0,0 -3,-5 -5,-11 -8,-17 -2,-3 -4,-6 -6,-8 -2,-2 -4,-4 -7,-5 -2,-1 -5,0 -7,0 -2,1 -4,3 -6,5 -1,1 -2,3 -3,5 0,-2 -1,-3 -1,-5 -1,-2 -2,-4 -3,-5 -1,-2 -3,-4 -4,-5 -2,-2 -4,-3 -6,-3z"/>
   <path fill="#FFF006" fill-rule="nonzero" d="M100 203c-2,-1 -4,-1 -6,-1 -2,1 -4,1 -6,2 -2,1 -3,2 -5,3 0,1 -1,1 -1,2 0,-1 -1,-2 -1,-3 0,-5 -1,-9 -3,-13 -1,-2 -3,-4 -4,-5 -2,-1 -3,-2 -5,-2 -3,-1 -6,0 -8,1 1,-2 1,-3 1,-5 0,-3 1,-5 0,-7 0,-3 0,-6 0,-8 -1,-3 -2,-5 -3,-8 -1,-2 -2,-4 -4,-6 -1,-1 -3,-3 -4,-4 0,0 -1,0 -1,0 2,-1 3,-1 4,-2 4,-2 8,-5 12,-9 3,-5 6,-10 7,-16 0,-3 0,-5 0,-8 2,2 4,3 6,4 2,1 5,1 7,1 3,0 6,-1 8,-2 3,-1 5,-3 8,-5 2,-2 4,-4 6,-7 2,-4 4,-8 6,-12 0,2 1,3 2,4 3,4 7,5 12,5 2,0 4,-1 6,-2 3,-1 5,-2 6,-3 4,-3 6,-6 9,-9 0,4 1,8 3,12 2,1 3,3 5,4 2,0 4,1 7,1 4,0 9,-1 12,-3 3,-1 5,-3 7,-5 0,1 0,2 -1,3 0,2 -1,4 -1,7 0,2 0,4 1,7 1,2 2,4 4,5 2,0 4,0 6,0 2,0 4,0 5,-1 3,-1 5,-2 7,-3 -1,1 -1,2 -2,3 -1,3 -2,6 -3,9 -1,4 -1,8 -1,11 0,4 1,8 2,12 1,3 3,6 5,9 2,2 4,5 6,6 1,2 2,3 4,3 -1,0 -1,0 -2,0 -1,0 -3,0 -5,0 -3,0 -5,0 -7,1 -3,0 -5,1 -8,2 -2,1 -5,3 -8,5 -2,2 -5,4 -7,6 -2,3 -4,6 -5,9 -1,3 -2,6 -2,9 0,0 0,0 0,1 -3,0 -6,1 -9,3 -2,1 -4,3 -6,5 -1,2 -3,5 -4,8 -1,3 -2,5 -3,8 -1,3 -1,6 -1,8 -1,2 -1,4 -1,6 0,0 0,0 0,0 -2,-6 -4,-11 -7,-17 -2,-2 -3,-5 -5,-7 -2,-2 -4,-4 -7,-4 -2,-1 -5,-1 -7,0 -2,1 -4,2 -5,4 -1,1 -2,3 -3,4 -1,-1 -1,-2 -1,-4 -1,-1 -2,-3 -3,-5 -1,-2 -2,-3 -4,-4 -2,-2 -3,-3 -5,-3z"/>
   <path fill="#FE9A11" fill-rule="nonzero" d="M145 215c-2,-3 -3,-6 -5,-8 -3,-3 -6,-5 -9,-6 -1,0 -1,0 -2,0 -3,-1 -6,0 -9,1 -2,0 -3,1 -5,2 0,0 0,0 0,-1 -1,-2 -3,-4 -6,-6 -2,-2 -5,-3 -7,-4l0 0c-1,0 -1,0 -1,0 -3,-1 -5,-1 -7,0 -3,0 -5,1 -7,2 -1,-3 -2,-6 -3,-8 -2,-3 -4,-5 -6,-7 -2,-2 -4,-3 -7,-4l0 0c0,0 -1,0 -1,0 0,-1 0,-2 0,-3 0,-4 -1,-7 -1,-10 -1,-3 -2,-6 -3,-9 -1,-1 -1,-2 -2,-3 2,-2 5,-4 7,-7 3,-5 6,-10 8,-16 0,0 0,0 1,0 2,1 4,1 6,0 3,0 7,-1 10,-2 3,-2 6,-4 9,-6 3,-3 5,-6 8,-9 0,-1 1,-2 2,-3 2,2 4,3 7,3 2,1 4,1 6,0 2,0 5,-1 8,-2 2,-1 5,-2 7,-4 1,-1 1,-1 2,-1 0,1 1,2 2,3 2,2 4,4 7,6 2,0 3,1 5,1 1,0 2,1 4,1 3,0 7,-1 11,-2 0,2 0,4 1,6 2,4 5,7 8,9 1,0 2,0 3,1 2,0 3,0 5,0 -1,4 -1,8 -1,11 1,5 2,10 3,14 1,3 2,5 3,7 -1,0 -3,1 -4,1 -3,1 -6,3 -9,5l-1 0c-3,3 -6,6 -8,9 -3,3 -6,7 -7,11 -1,2 -2,4 -2,6 -2,0 -4,1 -6,3 -2,1 -5,4 -7,7 -3,3 -5,6 -6,10 -1,0 -1,1 -1,2z"/>
   <path fill="#FEFEFE" fill-rule="nonzero" d="M208 168c-2,0 -3,-1 -5,-1 -2,0 -5,1 -7,1 -2,1 -4,2 -7,3 -2,1 -5,2 -7,4 -3,1 -5,3 -7,6 -2,2 -3,5 -5,8 -1,2 -1,5 -2,8 0,0 0,1 0,1 -2,0 -5,1 -8,3 -2,1 -4,3 -5,5 -2,2 -3,4 -4,7 -2,3 -2,5 -3,8 -1,3 -1,5 -1,8 -1,1 -1,3 -1,5 0,-1 0,-1 0,-1 -2,-5 -4,-10 -7,-15 -1,-2 -3,-5 -4,-7 -2,-2 -4,-3 -7,-4 -2,0 -4,0 -6,1 -2,0 -4,2 -5,3 -1,1 -2,3 -3,4 0,-1 -1,-2 -1,-3 -1,-2 -1,-4 -2,-5 -2,-2 -3,-3 -4,-4 -2,-2 -3,-3 -5,-3 -2,-1 -4,-1 -6,0 -2,0 -4,0 -5,1 -2,1 -3,2 -4,3 -1,1 -2,1 -2,2 0,-1 0,-2 0,-3 0,-4 -2,-9 -4,-12 -1,-2 -2,-4 -3,-5 -2,-1 -3,-2 -5,-2 -2,-1 -5,0 -7,1 0,-1 1,-3 1,-5 0,-2 0,-4 0,-6 0,-3 0,-5 -1,-8 0,-2 -1,-4 -2,-6 -1,-3 -2,-5 -4,-6 -1,-2 -2,-3 -4,-4 0,0 0,-1 0,-1 1,0 2,0 4,-1 3,-2 7,-5 10,-9 4,-4 6,-9 7,-14 0,-3 0,-5 0,-8 1,2 3,3 6,4 2,0 4,1 6,1 3,-1 5,-1 8,-2 2,-1 5,-3 7,-5 2,-2 4,-4 5,-6 3,-4 5,-8 6,-12 0,2 1,3 2,4 3,4 7,5 11,5 2,0 4,-1 6,-2 2,-1 4,-2 6,-3 3,-3 5,-6 7,-8 1,3 1,7 4,11 1,1 3,2 5,3 2,1 4,2 6,2 4,0 8,-2 11,-3 3,-1 5,-3 7,-5 0,1 -1,2 -1,3 -1,2 -1,4 -1,6 -1,2 0,5 0,7 1,2 3,4 5,4 1,1 3,1 5,1 2,0 4,-1 5,-1 2,-1 4,-2 6,-3 0,1 -1,2 -1,3 -2,2 -3,5 -4,8 0,4 -1,7 -1,11 1,3 1,7 3,10 1,4 2,6 4,9 2,2 4,4 6,6 1,1 2,2 3,3 0,0 -1,0 -1,0zm4 -5c-2,-2 -4,-4 -5,-7 -2,-2 -3,-5 -5,-8 -1,-3 -2,-7 -2,-10 0,-4 0,-7 1,-10 0,-3 1,-6 3,-9 0,-2 1,-4 2,-5 1,-1 1,-1 2,-2 0,0 0,0 0,0 -1,0 -1,0 -2,1 0,0 0,0 0,0 -3,1 -6,2 -9,2 -1,1 -3,1 -5,1 -2,0 -3,0 -5,0 -1,-1 -3,-2 -3,-4 -1,-2 -2,-4 -2,-6 0,-2 1,-4 1,-5 1,-1 1,-2 1,-3 1,-1 1,-1 1,-2 0,0 0,0 0,0 1,-2 2,-3 2,-4 0,0 0,1 -1,1l0 0c0,0 -1,0 -1,1 -3,2 -6,3 -9,5 -4,1 -8,2 -12,2 -2,0 -4,0 -6,-1 -1,0 -3,-1 -4,-3 -3,-2 -4,-6 -5,-10 0,0 0,0 0,0 0,-1 0,-1 0,-2 0,1 0,1 0,1 -1,0 -1,0 -1,1 -2,2 -5,5 -9,7 -3,2 -7,4 -11,5 -2,0 -4,0 -6,-1 -2,0 -3,-1 -5,-3 -1,-1 -2,-3 -3,-4 0,0 0,0 0,0 0,-1 0,-1 0,-2 0,1 -1,1 -1,1 0,1 0,1 0,1l0 0c-1,4 -4,9 -7,13 -1,2 -3,4 -5,6 -2,2 -5,3 -7,4 -3,2 -5,2 -8,3 -2,0 -4,0 -6,-1 -3,-1 -5,-2 -7,-4 -1,0 -1,0 -1,-1 0,1 0,2 0,2 0,3 0,6 -1,9 -1,5 -3,10 -6,14 -4,4 -7,7 -11,9 -2,1 -4,2 -5,3 -1,0 -2,0 -3,0 0,1 1,1 1,1l0 0c1,1 2,1 3,2 1,1 3,3 4,4 1,2 2,4 3,6 1,2 2,5 2,7 1,2 1,5 1,7 1,2 1,4 1,7 -1,2 -1,4 -1,5 0,1 0,1 0,1 0,0 0,1 0,1 0,0 0,0 1,0 0,-1 0,-1 0,-1 2,-1 5,-1 8,0 2,1 5,3 7,7 1,2 2,3 2,5 1,2 1,4 1,6 1,2 1,3 1,5 0,0 0,1 0,1 0,0 0,0 0,0 1,-1 1,-1 1,-1 1,-1 2,-2 3,-2 1,-1 3,-2 4,-3 2,0 4,-1 5,-1 2,0 4,0 6,1 2,0 3,1 5,2 1,1 2,3 3,4 2,1 2,3 3,4 1,2 2,4 2,5l0 0c0,0 0,0 0,0 0,0 0,1 0,1 0,-1 1,-1 1,-2 0,0 0,0 0,0 0,0 0,0 0,0 1,-2 2,-3 3,-4 2,-2 4,-3 6,-3 1,-1 4,-1 6,0 2,1 3,2 5,4 2,2 3,5 5,8 3,5 5,10 7,15 1,2 2,4 2,6 0,0 0,0 0,0 1,0 1,1 1,1 0,1 0,1 0,1 0,0 0,-1 0,-1 0,-1 0,-3 0,-5l0 0c1,-3 1,-5 1,-8 1,-5 2,-11 5,-16 1,-3 2,-5 4,-7 1,-2 3,-4 5,-5 3,-2 5,-3 8,-3 0,-1 1,-1 1,-1 0,0 0,-1 0,-1 0,0 0,-1 0,-1 1,-3 2,-6 3,-8 1,-3 3,-5 5,-8 2,-2 4,-4 6,-5 3,-2 5,-4 8,-5 2,-1 5,-2 7,-2 2,-1 4,-2 6,-2 1,0 2,0 3,0 1,0 2,0 3,0 1,0 1,0 1,0 1,0 2,0 3,0 0,0 2,-1 3,0 -3,-2 -5,-5 -8,-7z"/>
   <path fill="#FEFEFE" fill-rule="nonzero" d="M224 149c0,0 0,1 0,1 -5,1 -11,0 -16,-2 0,0 0,0 0,0 5,-2 11,-1 16,1z"/>
   <path fill="#FEFEFE" fill-rule="nonzero" d="M207 142c2,-1 4,-2 6,-2 3,-1 5,-1 8,-1 0,1 0,1 0,2 -3,1 -5,1 -7,1 -3,0 -5,0 -7,0 -1,0 -1,0 0,0z"/>
   <path fill="#FEFEFE" fill-rule="nonzero" d="M210 130c2,-2 4,-4 6,-5 1,0 1,1 1,2 -1,2 -3,3 -5,5 -2,2 -5,3 -7,5 0,0 0,0 0,0 2,-3 3,-5 5,-7z"/>
   <path fill="#FEFEFE" fill-rule="nonzero" d="M181 197c4,1 7,2 11,3 2,1 6,2 8,4 0,1 0,2 -1,2 -3,0 -6,-2 -8,-3 -4,-2 -7,-3 -10,-6 0,0 0,0 0,0z"/>
   <path fill="#FEFEFE" fill-rule="nonzero" d="M194 192c1,0 0,1 0,1 -3,1 -7,0 -9,-1 -1,0 -1,-1 0,-1 3,0 7,0 9,1z"/>
   <path fill="#FEFEFE" fill-rule="nonzero" d="M189 213c-5,-3 -8,-7 -12,-12 0,0 0,-1 0,0 5,3 9,6 12,11 1,1 0,1 0,1z"/>
   <path fill="#FEFEFE" fill-rule="nonzero" d="M175 84c-2,4 -5,9 -8,12 -1,1 -1,0 -1,0 2,-5 5,-10 8,-13 1,-1 1,0 1,1z"/>
   <path fill="#FEFEFE" fill-rule="nonzero" d="M173 71c-2,8 -6,17 -10,24 0,1 -1,1 -1,0 3,-8 5,-18 10,-25 0,-1 1,0 1,1z"/>
   <path fill="#FEFEFE" fill-rule="nonzero" d="M160 92c-1,0 -1,1 -1,0 0,-2 0,-5 0,-7 -1,-2 -1,-5 0,-7 0,-1 1,-1 1,-1 0,3 0,5 0,8 0,2 0,5 0,7z"/>
   <path fill="#FEFEFE" fill-rule="nonzero" d="M100 221c0,2 -1,4 -2,7 -1,3 -2,5 -3,8 0,1 -1,0 -1,0 1,-3 2,-6 3,-9 0,-2 1,-5 3,-7 0,0 0,1 0,1z"/>
   <path fill="#FEFEFE" fill-rule="nonzero" d="M82 244c4,-10 11,-21 17,-30 0,0 0,0 0,0 -4,11 -10,22 -16,31 -1,1 -1,0 -1,-1z"/>
   <path fill="#FEFEFE" fill-rule="nonzero" d="M96 213c-3,3 -5,5 -8,7 -2,3 -5,5 -8,7 0,0 -1,-1 0,-2 2,-3 5,-5 7,-7 3,-2 6,-4 8,-5 1,-1 1,0 1,0z"/>
   <path fill="#FEFEFE" fill-rule="nonzero" d="M101 101c0,1 -1,1 -1,0 0,-8 -2,-17 0,-24 0,-1 1,-2 2,-1 1,8 -1,17 -1,25z"/>
   <path fill="#FEFEFE" fill-rule="nonzero" d="M95 108c-2,-5 -3,-9 -4,-14 -1,-4 -2,-7 -2,-11 1,-2 2,-2 2,-1 2,3 2,8 3,13 0,4 1,8 1,13 0,0 0,0 0,0z"/>
   <path fill="#FEFEFE" fill-rule="nonzero" d="M86 96c1,4 3,7 5,11 0,0 0,1 -1,0 -2,-3 -4,-6 -6,-9 -2,-2 -4,-5 -4,-8 0,-1 1,-1 1,-1 3,1 4,4 5,7z"/>
   <path fill="#FEFEFE" fill-rule="nonzero" d="M38 184c4,-5 10,-7 15,-8 0,0 0,1 0,1 -5,2 -9,6 -14,9 -1,0 -1,-1 -1,-2z"/>
   <path fill="#FEFEFE" fill-rule="nonzero" d="M51 171c-4,2 -8,4 -11,6 -3,2 -6,4 -10,4 -1,0 -1,-1 0,-2 2,-3 5,-4 8,-5 4,-1 8,-2 12,-4 1,0 1,1 1,1z"/>
   <path fill="#FEFEFE" fill-rule="nonzero" d="M53 165c-7,1 -13,3 -20,2 0,0 0,-1 0,-1 7,-3 13,-1 20,-1 0,0 0,0 0,0z"/>
   <path fill="#F93E26" fill-rule="nonzero" d="M210 51c0,3 1,7 1,10 4,1 7,1 10,2 -3,1 -6,2 -9,4 0,3 0,5 0,8 -2,-1 -4,-3 -6,-5 -3,1 -5,2 -7,3 1,-2 2,-5 3,-7 -3,-3 -5,-5 -8,-7 4,1 7,1 11,1 1,-3 3,-6 5,-9z"/>
   <path fill="#FEFEFE" fill-rule="nonzero" d="M206 209c-3,2 -5,5 -7,7 1,3 3,5 4,8 -2,-1 -5,-3 -8,-5 -2,2 -4,4 -6,5 0,-2 0,-5 1,-7 -3,-2 -5,-3 -6,-4 2,-1 4,-1 7,-2 0,-3 0,-6 0,-9 2,3 4,6 5,8 3,0 7,0 10,-1z"/>
   <path fill="#FEFEFE" fill-rule="nonzero" d="M83 56c2,3 5,6 7,9 3,-1 6,-2 10,-3 -3,2 -5,5 -7,8 2,2 3,4 4,7 -2,-1 -5,-1 -8,-2 -1,2 -3,5 -4,6 -1,-2 -1,-5 -1,-8 -4,-1 -7,-1 -10,-2 3,-1 6,-2 10,-4 0,-3 0,-7 -1,-11z"/>
   <path fill="#FEFEFE" d="M177 125c5,29 -15,56 -43,61 -29,4 -56,-15 -61,-44 -4,-28 15,-55 44,-60 28,-4 55,15 60,43z"/>
   <path fill="#1C1B17" fill-rule="nonzero" d="M176 126c5,28 -14,54 -43,59 -28,4 -54,-15 -59,-43 -4,-28 15,-54 43,-59 28,-5 55,14 59,43z"/>
   <path fill="#FEFEFE" d="M131 60l3 20 -1 -1c-10,0 -21,1 -30,5l-1 1 -3 -20 0 0c10,-4 21,-5 31,-5l1 0z"/>
   <path fill="#1C1B17" fill-rule="nonzero" d="M130 61c-10,0 -21,1 -31,5l3 17c10,-3 20,-5 31,-4l-3 -18z"/>
   <path fill="#FDFDFD" fill-rule="nonzero" d="M114 174c-3,-1 -23,-11 -26,-36 -2,-20 8,-34 11,-37 -13,6 -21,23 -18,40 2,19 17,32 33,33z"/>
   <path fill="#FDFDFD" fill-rule="nonzero" d="M107 79c0,0 -2,1 -3,1 0,-4 -1,-9 -2,-13 0,0 2,-1 3,-1 0,4 1,10 2,13z"/>
   <path fill="#FEFEFE" fill-rule="nonzero" d="M137 6c-1,0 -2,0 -2,1 2,8 3,15 0,22 -4,8 -11,12 -16,17 -4,4 -7,9 -6,15 1,-1 2,-1 3,-1 3,-11 18,-17 23,-28 3,-8 3,-18 -2,-26z"/>
   <path fill="#1C1B17" d="M113 60c1,0 2,-1 3,-1 2,-11 17,-16 22,-27 4,-8 3,-18 -2,-25 0,0 0,0 0,0 2,8 3,15 -1,23 -3,7 -10,11 -16,17 -3,3 -6,8 -6,13zm23 -53c0,0 0,0 0,0 0,0 0,0 0,0z"/>
   <path fill="#F59415" fill-rule="nonzero" d="M158 23c0,0 0,1 0,1 0,0 0,0 1,0 1,1 2,1 3,2 -2,0 -5,0 -6,2 0,1 1,1 2,2 -1,0 -3,0 -4,0 -2,0 -4,1 -4,2 -1,1 0,2 0,4 0,0 -1,-1 -1,-1 -2,0 -4,-1 -5,0 -2,1 -2,2 -2,4 -2,-2 -3,-3 -6,-3 -1,0 -2,1 -3,1 0,0 -1,1 -1,1 0,0 0,-2 -1,-3 -2,-1 -5,-1 -7,0 -1,0 -2,0 -2,0 4,-3 5,-4 5,-5 0,0 0,0 0,0 -1,-1 -3,-1 -4,-1 -1,0 -3,-1 -4,0 0,0 -1,0 -1,0 0,0 1,0 2,-1 2,-1 4,-3 4,-4 0,-1 -2,-1 -3,-2 0,0 3,0 3,0 1,0 2,-1 2,-1 1,-1 1,-3 -1,-5 3,2 7,4 10,4 1,0 3,-1 3,-1 3,-2 3,-5 3,-7 1,1 2,3 3,4 2,0 5,1 6,0 3,-1 4,-3 6,-4 0,0 0,0 0,0 0,0 0,0 0,0 -1,3 -2,6 -1,7 1,0 3,1 5,1 0,-1 1,-1 2,-1 1,0 1,0 1,0 0,0 0,0 0,0 -1,0 -2,1 -2,1 -2,1 -3,2 -3,3z"/>
   <path fill="#F9DC30" fill-rule="nonzero" d="M141 36c-1,-1 -3,-1 -5,-1 0,0 0,0 0,0 -1,0 -2,0 -3,1 0,-1 0,-1 -1,-2 -1,-1 -3,-1 -5,-1 1,-2 2,-3 1,-4 0,0 0,0 0,0 -1,-1 -2,-1 -5,-2 2,-1 3,-2 3,-3 0,0 0,-1 -1,-1 1,0 2,-1 3,-2 0,0 0,-1 0,-2 3,2 5,2 7,2 0,0 1,0 1,0 1,0 3,-1 4,-2 1,-1 2,-2 2,-3 0,0 1,0 1,1 2,0 4,1 6,0 1,0 2,0 2,0 1,-1 2,-1 2,-1 0,1 0,3 1,3 1,1 2,2 4,2 -1,0 -2,1 -2,3 0,0 0,0 0,0 0,1 1,1 2,1 -1,1 -2,1 -3,3 0,0 0,1 0,1 -1,0 -1,0 -1,0 -1,0 -1,0 -1,0 -2,1 -4,2 -4,2 -1,1 -1,2 -1,3 -1,0 -2,0 -3,0 -1,0 -1,0 -2,0 -1,1 -2,1 -2,2z"/>
   <path fill="#FEFEFE" fill-rule="nonzero" d="M165 33c-12,-3 -17,-3 -11,6 0,0 -15,-10 -9,6 -5,-6 -6,-13 -17,0 3,-8 5,-12 -14,-7 12,-7 13,-9 4,-8l0 -1c1,-1 3,0 5,0 2,0 3,0 4,1 0,1 -1,2 -5,5 0,0 1,0 2,0 2,-1 5,-1 7,0 1,1 1,3 1,3 0,0 1,-1 1,-1 1,0 2,-1 3,-1 3,0 4,1 6,3 0,-2 0,-3 2,-4 1,-1 3,0 5,0 0,0 1,1 1,1 0,-2 -1,-3 0,-4 0,-1 2,-2 4,-2 1,0 3,0 4,0 -1,-1 -2,-1 -2,-2 1,-2 4,-2 6,-2l0 0c-5,2 -3,4 3,7z"/>
   <path fill="#FEFEFE" fill-rule="nonzero" d="M140 5c4,10 8,16 20,0 -6,13 -6,16 11,11 -13,6 -14,9 -1,10 -3,0 -6,0 -8,0l0 0c-1,-1 -4,-1 -4,-2 -1,-3 2,-4 5,-5 0,0 -3,0 -3,1 -2,0 -4,-1 -5,-1 -1,-1 0,-4 1,-7 -1,1 -3,3 -6,4 -1,1 -4,0 -6,0 -1,-1 -2,-3 -3,-4 0,2 0,5 -3,7 0,0 -2,1 -3,1 -3,0 -7,-2 -10,-4l1 0c6,3 14,5 14,-11z"/>
   <path fill="#FEFEFE" fill-rule="nonzero" d="M126 16l-1 0c2,2 2,4 1,5 0,0 -1,1 -2,1 0,0 -3,0 -3,0 1,1 3,1 3,2 0,2 -3,4 -6,5l0 1c-3,0 -6,1 -10,2 13,-6 19,-8 3,-12 17,2 14,0 8,-9 0,-1 3,2 7,5z"/>
   <path fill="#FEED00" fill-rule="nonzero" d="M149 43c-1,1 -3,3 -2,4l0 0 0 0c-2,0 -3,1 -3,2l0 1 -1 -1c-1,-1 -2,0 -2,1l-1 1 0 -1c0,-1 -2,-2 -3,-2l0 0 0 -1c0,-1 0,-2 -1,-2l0 -1 0 0c1,-1 1,-3 0,-3l0 -1 1 0c1,0 2,0 2,-1l0 -1 1 1c1,0 2,0 2,0l1 -1 0 2c1,0 1,0 2,0l2 -1 -1 2c0,2 3,2 3,2z"/>
   <path fill="#FEFEFE" fill-rule="nonzero" d="M137 47c2,0 3,1 3,2 1,0 2,-1 2,-1 1,0 1,0 2,0 0,-1 1,-1 2,-2 0,-1 1,-2 1,-2 0,0 -1,-1 -1,-1 0,-1 -1,-1 0,-2l0 -1 -1 1c-1,0 -2,-1 -2,-1l0 -1c-1,1 -2,1 -3,0 0,1 -1,1 -2,2 0,0 -1,0 -1,0l0 0c0,1 1,2 0,3 1,1 1,2 0,3zm3 5l-1 -2c0,-1 -1,-2 -2,-2l-1 1 0 -2c0,-1 1,-1 0,-2l-2 0 2 -2c0,0 0,-1 0,-2l-1 -2 2 0c0,0 1,0 1,0 0,0 0,0 0,0l1 -2 1 1c1,1 2,1 2,0l1 -1 1 2c0,1 0,1 0,1l4 -2 -1 3c0,0 0,1 0,1 0,1 2,1 2,1l2 0 -2 1c-1,1 -2,2 -2,3l1 1 -1 0c-1,0 -2,0 -2,1l-1 2 -1 -2c0,0 0,0 0,0 -1,0 -2,1 -2,1l-1 2z"/>
   <path fill="#FEED00" fill-rule="nonzero" d="M118 47c-1,1 -3,3 -2,4l0 0 -1 0c-1,0 -2,1 -2,2l0 1 -1 -1c-1,-1 -2,0 -3,1l0 1 0 -1c-1,-1 -2,-2 -3,-2l-1 0 1 -1c0,-1 0,-2 -1,-2l-1 0 1 -1c1,-1 0,-2 0,-3l0 -1 1 0c0,0 2,0 2,-1l0 -1 1 1c1,1 2,0 2,0l1 -1 0 2c0,0 1,0 1,0l3 -1 -1 2c-1,2 3,2 3,2z"/>
   <path fill="#FEFEFE" fill-rule="nonzero" d="M106 51c1,0 3,1 3,2 1,0 1,-1 2,-1 1,0 1,0 1,1 1,-1 2,-2 3,-2 0,-1 1,-2 1,-3 0,0 -1,-1 -1,-1 0,0 -1,-1 0,-2l0 -1 -2 1c0,0 -1,0 -1,-1l0 -1c-1,1 -3,1 -3,1 -1,0 -1,1 -2,1 0,0 -1,0 -1,0l0 0c0,1 0,3 0,3 1,1 1,2 0,3zm3 5l-1 -2c0,-1 -1,-1 -2,-1l-2 0 1 -2c0,0 0,-1 0,-2l-2 0 2 -1c0,-1 0,-2 -1,-3l0 -2 2 0c0,0 1,0 1,0 0,0 0,0 0,0l1 -2 1 1c1,1 1,1 2,0l1 -1 1 2c0,1 0,1 0,1l4 -2 -1 3c0,0 0,1 0,1 0,1 1,1 2,1l2 0 -2 1c-1,1 -2,2 -2,3l1 1 -2 0c-1,0 -1,0 -2,1l0 2 -1 -1c0,0 0,-1 -1,-1 0,0 -1,1 -1,1l-1 2z"/>
   <path fill="#F9DC30" fill-rule="nonzero" d="M155 1c2,3 4,6 5,9 4,-1 8,-1 11,-2 -2,2 -5,5 -8,7 2,3 3,6 3,9 -2,-1 -4,-2 -7,-4 -2,3 -4,5 -5,6 -1,-2 -1,-5 -1,-8 -3,-1 -7,-3 -10,-3 4,-1 7,-2 11,-3 0,-4 1,-8 1,-11z"/>
   <path fill="#FEFEFE" fill-rule="nonzero" d="M146 15c2,0 4,1 7,2 1,0 1,1 1,1 0,3 0,5 0,7 1,-1 3,-3 4,-5l1 0c0,0 0,0 0,0 2,0 3,1 5,2 0,0 1,0 1,0 0,-2 -1,-4 -2,-6 0,0 0,-1 0,-1 2,-2 4,-4 6,-6 -3,1 -6,1 -8,2 -1,0 -1,0 -1,-1 0,0 -1,-1 -1,-2 -1,-1 -2,-3 -3,-5 -1,3 -1,5 -1,8l0 1c0,0 -1,0 -1,0 -3,1 -6,2 -8,3zm8 12c0,0 -1,0 -1,0 0,0 0,0 0,-1 -1,-2 -1,-4 -1,-8 -3,-1 -6,-2 -9,-3 0,0 0,0 0,0 0,0 0,-1 0,-1 4,-1 7,-2 10,-3l0 0c1,-4 1,-7 2,-10 0,-1 0,-1 0,-1 0,0 1,0 1,0 1,3 2,5 4,8 0,0 0,1 1,1 3,0 7,-1 10,-2 0,0 1,0 1,1 0,0 0,0 0,0 -3,2 -5,4 -8,8 2,3 2,5 3,7 0,1 0,1 0,1 -1,0 -1,0 -1,0 -1,0 -2,-1 -3,-1 -1,-1 -2,-1 -4,-2 -2,2 -4,4 -5,6 0,0 0,0 0,0z"/>
   <path fill="#F93E26" fill-rule="nonzero" d="M94 171c1,0 1,1 -1,3 -1,1 -3,2 -4,2 0,1 -1,1 -2,1 0,-2 -1,-4 -2,-7 0,0 1,0 2,-1 2,0 4,0 5,0 2,1 2,1 2,2zm-16 -17c0,0 0,0 1,0 2,-1 4,-1 6,0 0,0 1,1 0,4 0,1 -1,2 -3,3 -1,0 -1,0 -1,0 -1,-2 -2,-4 -3,-7zm17 6c1,-5 0,-9 -3,-13 -3,-4 -9,-5 -16,-3 -2,1 -3,2 -4,2 -1,0 -1,1 -1,1 -1,0 -1,0 -1,0 -3,1 -3,4 -2,6 4,11 9,21 13,31 1,1 2,2 3,3 1,1 2,1 3,0 0,0 0,0 0,0 1,0 2,0 3,-1 3,0 6,-2 8,-3 4,-3 7,-6 7,-10 0,-6 -4,-11 -10,-13z"/>
   <path fill="#1C1B17" fill-rule="nonzero" d="M81 161c3,-1 4,-3 4,-3 0,-3 -1,-3 -1,-4 -1,-1 -3,-1 -5,0 0,0 0,0 0,1 1,2 1,4 2,6zm1 1c0,0 -1,0 -1,0 0,0 0,0 0,0 -2,-3 -3,-5 -4,-8 1,0 1,-1 2,-1 2,-1 4,-1 6,0 1,1 1,3 1,5 0,2 -3,3 -4,4zm3 9c1,2 2,3 3,5 0,0 0,0 1,0 1,-1 2,-2 4,-3 0,0 1,-1 1,-2 0,0 0,-1 -2,-1 -1,-1 -3,-1 -4,0 -1,0 -2,0 -3,1zm2 7c-1,-3 -2,-5 -3,-8 0,0 0,0 0,0 1,-1 2,-1 3,-1 2,-1 4,-1 5,-1 2,1 3,2 3,3 0,0 0,1 -1,3 -2,1 -3,2 -5,3 0,0 -1,0 -1,1 0,0 -1,0 -1,0zm0 9c1,-1 2,-1 3,-1 3,-1 5,-2 8,-4 4,-2 6,-6 6,-9 0,-6 -3,-11 -9,-12 0,-1 -1,-1 -1,-1 0,0 0,0 0,0 2,-5 1,-9 -2,-12 -4,-4 -9,-5 -16,-3 -2,1 -4,2 -5,2 0,0 0,0 0,0 0,0 0,0 0,0 0,1 -1,1 -1,1 -2,1 -3,3 -2,5 5,10 9,21 14,31 0,1 1,2 2,3 1,0 2,0 3,0 0,0 0,0 0,0zm4 0c-1,0 -2,1 -3,1 0,0 -1,0 -1,0 -1,0 -2,0 -3,0 -2,-1 -3,-2 -3,-4 -5,-10 -9,-20 -14,-30 -1,-3 0,-6 2,-7 1,-1 1,-1 1,-1 1,0 3,-1 6,-2 7,-3 13,-2 17,3 3,3 4,8 3,12 6,3 9,8 9,14 0,4 -2,7 -6,10 -3,2 -6,3 -8,4z"/>
   <path fill="#F93E26" fill-rule="nonzero" d="M113 165c0,2 -2,3 -3,3 -2,0 -4,0 -5,-1 -1,-1 -2,-2 -2,-4 -1,-4 -1,-8 1,-11 1,-2 3,-3 4,-3 1,0 1,0 1,-1 4,0 5,2 6,6 1,4 0,8 -2,11zm-6 -25c0,0 0,0 0,0 -5,1 -8,4 -10,8 -2,5 -2,11 -1,16 1,4 3,7 5,9 3,3 6,4 10,4 4,-1 7,-3 10,-7 2,-5 3,-11 2,-17 -1,-11 -7,-15 -16,-13z"/>
   <path fill="#1C1B17" fill-rule="nonzero" d="M108 149c-1,1 -2,2 -3,3 -2,3 -3,7 -2,11 1,1 1,3 2,3 1,1 3,2 5,2 1,-1 2,-1 3,-3 2,-3 2,-7 2,-11 -1,-4 -3,-5 -6,-5 0,0 0,0 -1,0zm2 20c-2,0 -4,0 -5,-2 -1,-1 -2,-2 -3,-4 0,-4 0,-8 2,-11 1,-3 3,-4 5,-4 4,-1 6,1 7,6 0,4 0,8 -2,12 -1,1 -2,2 -4,3zm-3 -29c-4,2 -7,4 -9,9 -2,5 -3,10 -1,15 0,4 2,7 4,9 3,2 6,4 10,3 4,0 7,-2 9,-6 3,-5 3,-11 3,-17 -2,-10 -7,-15 -16,-13 0,0 0,0 0,0zm4 37c-4,1 -7,0 -10,-4 -3,-2 -4,-5 -5,-9 -2,-5 -1,-11 1,-16 2,-4 5,-8 10,-9 0,0 0,0 0,0 9,-2 15,3 17,14 1,6 0,12 -3,17 -2,5 -5,7 -10,7z"/>
   <path fill="#F93E26" fill-rule="nonzero" d="M138 164c-1,1 -2,2 -4,2 -2,0 -3,0 -5,-2 0,0 -1,-2 -1,-3 -1,-4 0,-7 2,-10 1,-2 3,-3 5,-3 0,0 0,0 0,0 4,0 5,1 6,5 0,4 -1,8 -3,11zm-4 -25c0,0 0,0 0,0 -5,1 -9,3 -11,7 -3,5 -4,10 -3,16 1,3 2,6 4,9 3,3 7,4 11,4 4,0 8,-2 11,-6 3,-4 4,-10 4,-16 0,-11 -6,-16 -16,-14z"/>
   <path fill="#1C1B17" fill-rule="nonzero" d="M135 149c-2,0 -3,1 -4,2 -2,3 -3,6 -3,10 1,1 1,2 2,3 1,1 2,1 4,1 2,0 3,0 3,-2 2,-3 3,-6 3,-10 0,-3 -2,-5 -5,-4 0,0 0,0 0,0zm-1 18c-2,0 -4,-1 -5,-2 -1,-1 -2,-2 -2,-4 0,-4 0,-8 3,-11 1,-2 3,-3 5,-3 4,0 6,2 6,6 1,4 0,8 -3,11 0,2 -2,2 -4,3zm0 -28c-5,1 -8,4 -11,8 -2,4 -3,9 -2,15 0,3 1,6 4,8 2,3 6,5 10,5 4,-1 8,-3 10,-6 3,-5 5,-10 4,-16 0,-10 -6,-15 -15,-14 0,0 0,0 0,0zm1 37c-4,0 -8,-2 -11,-5 -2,-2 -4,-5 -5,-9 0,-6 1,-11 3,-16 3,-4 7,-7 12,-8l0 0c10,-1 16,4 17,15 0,6 -2,12 -5,16 -3,5 -6,7 -11,7z"/>
   <path fill="#F93E26" fill-rule="nonzero" d="M185 144c-1,-5 -5,-6 -7,-6 -1,0 -5,1 -6,6 -1,3 -2,6 -3,9 -1,-3 -2,-7 -3,-10 -1,-4 -4,-4 -5,-4 0,0 0,0 -1,0 -1,1 -4,2 -5,6 -1,7 -2,15 -4,22 0,4 2,6 3,7 1,1 2,1 2,1 1,0 4,0 4,-4 1,-2 1,-4 2,-6 0,1 0,3 1,4 1,5 3,6 5,6 0,0 0,0 0,0 3,0 5,-1 6,-5 1,-2 2,-4 2,-6 1,2 1,5 2,7 1,5 4,6 5,7 1,0 1,0 1,0 2,0 3,-1 4,-2 1,-1 1,-3 1,-5 -1,-9 -3,-18 -4,-27z"/>
   <path fill="#1C1B17" fill-rule="nonzero" d="M177 161c0,3 1,7 1,10 1,5 4,6 5,6 1,0 1,0 1,0 2,0 3,-1 3,-1 1,-1 1,-3 1,-5 -1,-9 -3,-18 -4,-27 -1,-4 -4,-5 -6,-5 -1,0 -4,1 -6,5 -1,4 -2,8 -3,12 -1,-4 -2,-9 -3,-13 -1,-3 -4,-3 -5,-3 0,0 0,0 -1,0 -1,0 -3,1 -4,5 -1,7 -3,15 -4,22 -1,4 1,6 2,7 1,0 2,0 2,0 1,0 3,0 4,-3 0,-3 1,-6 1,-9 1,2 2,5 2,7 1,4 3,5 5,5 0,0 0,0 0,0 2,1 4,-1 5,-4 1,-3 2,-6 4,-9zm6 17c-1,0 -5,-1 -6,-7 0,-1 -1,-3 -1,-4 0,1 -1,2 -1,3 -2,4 -4,6 -7,6l0 0c-2,0 -5,-1 -6,-6 0,-1 0,-2 0,-2 -1,1 -1,2 -1,3 -1,5 -4,5 -5,5 -1,0 -1,-1 -2,-1 -1,-1 -4,-3 -3,-8 1,-7 2,-15 4,-22 1,-5 4,-6 5,-6 1,0 1,0 1,0 2,-1 5,1 6,4 1,2 1,5 2,7 0,-2 1,-4 2,-6 2,-6 5,-7 7,-7 3,0 7,1 8,7 1,9 3,18 4,27 0,2 0,4 -1,6 -1,1 -3,2 -5,1 0,0 0,0 -1,0z"/>
   <path fill="#F93E26" fill-rule="nonzero" d="M204 170c-7,-8 -20,2 -11,9 7,5 17,-2 11,-9 0,0 0,0 0,0z"/>
   <path fill="#1C1B17" fill-rule="nonzero" d="M200 168c-4,-1 -7,1 -9,4 -1,2 0,5 3,7 1,0 1,1 2,1 3,1 6,-1 8,-3 1,-2 1,-5 0,-7 -1,-1 -3,-2 -4,-2zm-4 14l0 0c-1,-1 -2,-1 -3,-2 -3,-3 -4,-6 -3,-9 1,-3 6,-6 10,-5 2,1 4,2 5,3 2,3 3,6 1,9 -2,3 -6,4 -10,4z"/>
   <path fill="#F93E26" fill-rule="nonzero" d="M197 164c2,0 3,0 5,0 1,1 3,0 3,-2 0,0 0,0 0,0 2,-11 5,-22 8,-32 1,-5 -1,-8 -6,-9 0,0 0,0 0,0 -2,0 -4,1 -6,2 -1,1 -2,3 -3,5 -1,11 -2,22 -3,32 0,0 0,0 0,1 0,1 1,2 2,3z"/>
   <path fill="#1C1B17" fill-rule="nonzero" d="M207 122c-2,0 -4,1 -5,2 -2,1 -2,2 -3,4 -1,11 -2,22 -3,32 0,2 0,2 1,3 2,0 3,0 5,0 1,1 2,0 2,-1 2,-11 5,-22 8,-33 0,-2 0,-4 -1,-5 -1,-1 -2,-2 -4,-2 0,0 0,0 0,0zm-6 43c-1,0 -2,0 -4,-1 -2,0 -3,-2 -3,-4 0,0 0,0 0,0 1,-10 2,-21 3,-32 1,-2 2,-4 3,-5 2,-2 4,-3 7,-3 0,0 0,0 0,1 3,0 4,0 6,2 1,1 2,4 1,7 -3,11 -5,22 -8,33 0,1 -2,3 -5,2z"/>
   <path fill="#F93E26" fill-rule="nonzero" d="M57 205c1,4 2,8 3,12 4,1 8,1 12,2 -3,1 -7,3 -11,6 0,3 1,7 0,10 -1,-2 -4,-4 -7,-6 -3,1 -6,3 -8,4 0,-3 1,-6 3,-9 -4,-3 -7,-6 -10,-7 4,0 8,0 13,0 2,-4 4,-8 5,-12z"/>
   <path fill="#FEFEFE" fill-rule="nonzero" d="M41 217c3,2 5,4 8,6 0,0 0,1 0,1 -1,3 -2,6 -2,8 2,-1 4,-2 6,-4l1 0c0,0 0,0 1,0 1,1 3,3 4,4 1,0 1,1 2,1 0,-2 0,-5 -1,-8 0,-1 0,-1 1,-1 3,-2 6,-4 9,-5 -4,0 -7,0 -10,-1 -1,0 -1,0 -1,0 0,-1 -1,-2 -1,-3 0,-3 -1,-5 -1,-7 -1,3 -3,5 -4,8l-1 1c0,1 0,1 0,1 -4,0 -7,-1 -11,-1zm5 17c0,0 0,0 0,0 -1,0 -1,-1 -1,-1 0,-2 1,-5 3,-9 -4,-3 -7,-5 -10,-7 0,0 0,0 0,0 0,-1 0,-1 1,-1 4,0 8,0 12,0l0 0c2,-4 4,-8 5,-11 0,-1 1,-1 1,-1 0,0 1,0 1,1 0,3 1,6 2,9 0,1 0,2 0,3 4,0 8,1 13,1 0,0 0,1 0,1 0,0 0,1 0,1 -3,1 -7,2 -11,5 0,4 0,7 0,10 0,0 0,0 0,0 -1,0 -1,0 -1,0 -1,0 -2,-1 -3,-2 -1,-1 -2,-2 -4,-4 -3,2 -6,4 -8,5 0,0 0,0 0,0z"/>
   <polygon fill="#FEFEFE" fill-rule="nonzero" points="39,206 46,212 40,204 "/>
   <polygon fill="#FEFEFE" fill-rule="nonzero" points="42,204 47,212 44,204 "/>
   <polygon fill="#FEFEFE" fill-rule="nonzero" points="77,229 67,227 77,232 "/>
   <polygon fill="#FEFEFE" fill-rule="nonzero" points="74,233 66,228 72,234 "/>
   <polygon fill="#FEFEFE" fill-rule="nonzero" points="64,204 62,215 66,201 "/>
   <polygon fill="#FEFEFE" fill-rule="nonzero" points="74,208 63,216 73,211 "/>
   <polygon fill="#FEFEFE" fill-rule="nonzero" points="35,226 34,227 45,225 "/>
   <polygon fill="#FEFEFE" fill-rule="nonzero" points="44,227 35,231 37,232 "/>
   <polygon fill="#FEFEFE" fill-rule="nonzero" points="49,241 49,242 54,232 "/>
   <polygon fill="#FEFEFE" fill-rule="nonzero" points="54,234 53,243 54,242 "/>
  </g>
  <rect fill="none" width="251" height="251"/>
 </g>
</svg>
