

<!-- Creator: CorelDRAW X8 -->
<svg xmlns="http://www.w3.org/2000/svg" xml:space="preserve" x="0" y="0" width="25mm" height="25mm" version="1.1" shape-rendering="geometricPrecision" text-rendering="geometricPrecision" image-rendering="optimizeQuality" fill-rule="evenodd" clip-rule="evenodd"
viewBox="0 0 251 251"
 xmlns:xlink="http://www.w3.org/1999/xlink">
 <g id="Katman_x0020_1">
  <metadata id="CorelCorpID_0Corel-Layer"/>
  <g id="_2527124068240">
   <path fill="#FEFEFE" fill-rule="nonzero" d="M208 103c0,-1 -1,-1 -1,0 7,23 0,46 -15,66 0,1 1,1 1,1 18,-19 23,-45 15,-67z"/>
   <path fill="#FEFEFE" fill-rule="nonzero" d="M219 101c0,0 -1,0 -1,0 3,20 0,37 -9,55 0,1 1,2 2,1 10,-17 14,-37 8,-56z"/>
   <path fill="#FEFEFE" fill-rule="nonzero" d="M227 111c0,-1 -1,-1 -1,0 4,12 4,25 0,37 0,1 1,1 1,0 5,-12 5,-25 0,-37z"/>
   <path fill="#FEFEFE" fill-rule="nonzero" d="M251 155c-21,-2 -43,-1 -64,2 -21,2 -43,6 -63,15 -1,0 0,1 1,1 20,-3 40,-9 61,-12 22,-3 43,-4 65,-5 1,0 1,-1 0,-1z"/>
   <path fill="#231F20" fill-rule="nonzero" d="M240 132c-1,0 -1,0 0,0 0,0 0,0 0,0z"/>
   <path fill="#FEFEFE" fill-rule="nonzero" d="M158 137c26,2 52,-1 77,-3 2,0 2,-2 0,-2 -25,0 -52,0 -77,4 -1,0 -1,1 0,1z"/>
   <path fill="#FEFEFE" fill-rule="nonzero" d="M249 120c-14,0 -28,-2 -42,-6 -12,-3 -24,-9 -36,-13 -1,0 -2,1 -1,1 21,16 53,21 79,19 1,0 1,-1 0,-1z"/>
   <path fill="#FEFEFE" fill-rule="nonzero" d="M164 148c-1,0 0,1 1,1 17,-2 34,-2 51,-2 1,0 1,-1 0,-1 -16,-3 -35,-3 -52,2z"/>
   <path fill="#F9DC30" fill-rule="nonzero" d="M95 191c-1,0 -3,1 -4,1 -1,0 -2,0 -3,-1 0,0 -1,0 -2,0 -1,0 -1,0 -2,0 -1,0 -2,0 -2,-1 -2,0 -3,0 -5,-1 -1,-1 -2,-1 -4,-2 -1,-1 -2,-2 -3,-2 -2,-1 -3,-2 -4,-3l-1 -1 -1 0 0 0c-1,1 -3,2 -4,2 -2,1 -3,1 -5,1 -1,0 -2,0 -2,0 -1,0 -2,0 -3,0 -1,0 -3,0 -4,-1 -2,0 -3,-1 -4,-2 -1,0 -2,-1 -2,-1 -1,0 -1,-1 -2,-1 -1,-1 -1,-1 -2,-2 0,-1 -1,-1 -1,-2 -1,0 -1,-1 -1,-2 -1,0 -1,-1 -2,-2l0 -1 -1 0 0 0 -2 1 -2 0 -3 -1 -2 0 -2 0 -2 -1 -2 -1 -2 -1c-1,-1 -2,-1 -3,-2 -1,-1 -2,-2 -3,-3 0,-1 -1,-3 -2,-4 0,0 0,-1 0,-1l-1 -2 0 -2 0 -2 0 -2 0 -2 1 -2 0 -2 1 -2c0,-1 1,-1 1,-2 1,-1 2,-2 3,-3 1,-1 2,-2 3,-3 1,-1 2,-2 4,-2 0,0 1,-1 2,-1 0,0 1,-1 2,-1l1 0 0 -1 0 0 0 -3c0,0 0,-1 0,-2 0,-1 0,-2 0,-2 0,-1 1,-2 1,-3 0,0 0,-1 1,-2 0,0 0,-1 1,-2 0,-1 0,-1 1,-2 0,0 1,-1 1,-2 1,0 1,-1 2,-1 0,-1 1,-2 2,-2 0,-1 1,-1 2,-2 0,0 1,-1 2,-1 0,0 1,-1 2,-1l1 -1c0,0 1,0 1,0 0,0 1,0 1,0l1 -1c1,0 2,0 3,-1l1 0 0 -1 0 0c0,-2 1,-3 1,-5 0,-2 1,-4 2,-6l1 -2c0,-1 1,-2 1,-3 0,0 1,-1 1,-2 1,-1 1,-2 2,-2 1,-2 2,-3 4,-5 1,-1 2,-3 4,-4 1,-1 3,-2 4,-3 2,-2 3,-3 5,-3 1,-1 2,-1 3,-2 1,0 2,-1 2,-1l3 -1 3 -1c2,0 4,0 6,-1 2,0 4,0 6,0 4,0 7,0 11,1 4,1 8,2 11,3l1 1 1 -1 0 0c4,-3 8,-5 12,-6 1,0 3,0 4,0 1,-1 2,-1 3,-1 1,0 2,0 3,0 2,0 3,1 4,1 1,0 2,0 3,0 1,1 2,1 3,2 1,0 2,0 3,1 1,0 2,1 3,2 1,0 2,1 3,1 1,1 1,2 2,3 1,1 2,1 2,2 1,1 1,2 2,3l1 1 1 -1 0 0c2,-1 5,-2 7,-3 2,0 3,0 4,0 1,0 3,1 4,1 1,0 2,1 3,2 1,0 2,1 3,2 1,1 1,2 2,3 0,0 0,1 1,1 0,0 0,1 0,2 0,1 0,2 0,3 0,0 0,1 0,1 0,1 0,1 0,2 0,0 0,1 -1,2 0,1 0,1 -1,2 0,0 0,1 0,1 -1,1 -2,2 -3,2 0,1 0,1 -1,1 0,1 -1,1 -1,1 -1,0 -1,1 -2,1l0 0 -1 1 -1 0 -1 0 -1 0 -3 1 2 1 0 0c2,2 4,4 5,7 1,1 1,2 2,3 0,1 0,2 0,2l0 1 0 1c1,2 1,3 1,4 0,1 0,3 -1,4 0,1 0,1 0,2 0,1 -1,1 -1,2 0,1 -1,2 -1,3l-1 2 -2 2c-1,1 -1,2 -3,3 -1,1 -2,1 -3,2 0,1 -1,1 -2,1l-1 1c-2,1 -3,1 -4,2l-1 0c-1,0 -1,0 -1,0 -1,1 -2,1 -2,1 -2,0 -3,0 -5,0 -1,0 -3,0 -4,0l0 0 -1 0 0 0 -1 0 -1 1 0 1 0 0c0,1 0,1 0,2 0,1 0,2 0,3 0,1 0,3 -1,4 0,2 -1,3 -2,4 -1,2 -2,3 -3,4 -1,1 -1,1 -2,2 -1,0 -1,0 -2,1 -1,0 -2,1 -2,1l-1 0 -2 1 0 0c0,0 -1,0 -1,0l0 0c0,0 -1,0 -1,1 -1,0 -2,0 -3,0 -1,0 -3,0 -5,0l-1 0 0 1 0 0c-1,1 -1,3 -2,4l0 2 -2 2c0,2 -1,3 -2,4 -1,1 -2,2 -3,3 -2,2 -4,4 -7,6 -1,1 -3,1 -4,2 -1,0 -2,0 -2,1l-1 0 -1 0 -2 1 -1 0c0,0 -1,0 -2,0zm-49 -70c2,-1 3,-1 5,-1 0,-1 1,-1 1,-1 1,0 1,0 1,0 0,0 0,0 -1,0 0,0 -1,0 -1,0 -2,0 -4,0 -6,1 -2,0 -5,2 -8,4 -2,2 -4,5 -5,9 -1,2 -1,3 0,5 0,2 0,3 1,5 1,3 3,5 5,6 1,1 2,1 3,2 1,0 2,0 3,0 0,1 1,1 1,1 0,0 0,0 0,0 0,0 0,0 0,0 0,-1 -1,-1 -1,-1 -1,-1 -3,-2 -4,-3 -2,-2 -3,-4 -4,-6 0,-2 -1,-3 -1,-4 0,-2 0,-3 0,-5 1,-1 1,-2 2,-4 1,-1 2,-2 3,-3 1,-2 4,-4 6,-5zm38 -40c0,0 0,0 0,0 1,-1 1,-1 2,-1 1,-1 2,-3 5,-4 2,-1 5,-2 8,-3 4,0 8,0 11,0 4,1 7,2 10,4 3,1 6,3 7,5 2,1 3,3 4,4 0,0 0,1 0,1 -1,0 -3,0 -5,0 -2,1 -3,1 -5,2 -2,1 -3,2 -4,3 -3,1 -4,3 -5,4 -1,1 -1,1 -1,2 0,0 0,0 -1,0 1,0 1,0 1,0 0,0 1,-1 1,-1 1,-1 2,-2 2,-2 1,-1 2,-1 4,-2 2,-1 5,-2 9,-3 2,0 4,0 5,0 2,1 4,1 6,2 2,0 3,1 5,2 1,1 3,2 4,4 2,2 4,5 5,7 1,2 1,4 1,6 0,1 0,1 0,2 0,0 0,0 0,0 0,0 0,0 0,0 0,-1 1,-1 1,-2 0,-1 0,-2 0,-3 0,-1 0,-2 0,-4 -1,-1 -1,-2 -2,-4 0,-1 -1,-3 -2,-5 -1,-1 -3,-3 -4,-4 -2,-1 -4,-2 -6,-3 -3,-1 -5,-1 -7,-1 -1,0 -1,0 -1,0 0,0 0,0 0,0 0,-1 0,-1 -1,-1 0,-1 -1,-3 -3,-5 -1,-2 -3,-5 -6,-7 -3,-1 -7,-3 -11,-4 -4,0 -9,0 -12,1 -4,1 -7,3 -9,4 -2,2 -4,3 -5,4 0,1 -1,1 -1,2 0,0 0,0 0,0zm11 78c0,0 0,1 -1,2 -1,0 -2,2 -4,3 -2,1 -4,2 -7,2 -3,1 -6,1 -9,1 -1,0 -3,-1 -4,-1 -2,-1 -3,-1 -4,-2 -2,-1 -4,-3 -6,-4 -1,-2 -2,-3 -3,-4 0,-1 0,-2 0,-2 0,0 0,1 0,2 0,1 1,3 2,5 1,2 3,4 5,6 2,2 6,3 9,4 4,0 8,0 11,-2 3,-1 5,-2 7,-4 2,-2 3,-3 4,-4 0,-1 0,-2 0,-2z"/>
   <path fill="#FE9A11" fill-rule="nonzero" d="M45 154c1,0 2,-1 1,-2 -5,-6 -10,-14 -5,-22 4,-5 13,-6 14,-13 0,-1 -1,-3 -2,-3 -9,-7 -22,8 -24,16 -3,11 6,22 16,24z"/>
   <path fill="#FE9A11" fill-rule="nonzero" d="M52 104c-2,-10 2,-15 9,-21 5,-5 11,-10 18,-12 5,-2 10,-3 15,-3 -7,3 -14,10 -13,17 0,2 2,3 3,2 1,0 1,0 1,-1 10,-16 27,-6 41,-7 2,0 3,-2 2,-3 -4,-5 -10,-8 -16,-9 2,0 5,-1 7,-1 2,-1 2,-3 0,-4 -17,-7 -39,-6 -54,5 -11,8 -26,25 -13,37 0,1 0,0 0,0z"/>
   <path fill="#FE9A11" fill-rule="nonzero" d="M61 155c0,0 0,0 0,0 -5,8 6,13 12,14 8,1 24,-3 24,-13 0,-2 -1,-4 -3,-3 -5,0 -9,5 -14,6 -5,2 -16,3 -19,-4z"/>
   <path fill="#FE9A11" fill-rule="nonzero" d="M104 112c1,1 3,1 3,0 -1,-14 17,-17 27,-14 7,3 12,9 17,15 1,1 3,0 3,-1 0,-14 -15,-23 -28,-22 -10,1 -28,10 -22,22z"/>
   <path fill="#FE9A11" fill-rule="nonzero" d="M179 69c-3,0 -6,2 -5,5 2,4 6,6 5,11 -2,5 -6,8 -10,8 -1,1 -1,1 0,1 6,2 13,0 16,-6 2,-6 1,-17 -6,-19z"/>
   <path fill="#FE9A11" fill-rule="nonzero" d="M173 106c-3,4 -1,8 -1,12 0,8 -5,12 -12,14 -2,0 -20,0 -21,1 0,1 0,1 0,1 0,1 0,2 0,2 1,1 1,1 1,1 0,1 0,2 0,3 -1,4 -2,8 -5,12 -3,4 -10,7 -16,6 0,0 -1,0 -2,0 0,0 0,0 0,0 -2,0 -3,-1 -4,-2 0,0 -1,0 -1,1 -1,2 -1,3 0,5 -4,9 -8,15 -19,17 -9,3 -15,3 -23,-1 0,0 0,0 0,0 1,-2 0,-3 -1,-4 -7,0 -14,3 -21,2 -4,0 -17,-5 -12,-12 0,-1 -1,-1 -1,-1 0,0 0,0 -1,0 0,0 0,0 -1,0 -8,1 -16,3 -20,-7 -2,-3 -3,-8 -3,-12 0,-2 2,-5 2,-7 0,-1 -1,-1 -1,0 0,2 -3,2 -4,4 -1,1 -1,4 -1,6 0,6 3,12 6,17 4,5 12,7 18,5 -2,5 2,11 7,14 9,4 24,4 31,-3 1,10 16,12 24,10 15,-2 25,-10 30,-24 4,0 9,-2 13,-4 5,-3 9,-7 11,-13 1,-2 2,-5 2,-8 8,2 20,-1 25,-6 4,-4 7,-9 7,-14 0,-5 0,-13 -5,-15 -1,-1 -2,0 -2,0z"/>
   <path fill="#FE9A11" fill-rule="nonzero" d="M66 116c-5,7 -7,16 0,21 7,5 19,5 24,-2 1,-2 0,-4 -1,-4 -6,-2 -11,1 -16,0 -7,-2 -7,-9 -7,-15 0,0 0,0 0,0z"/>
   <path fill="#FEFEFE" fill-rule="nonzero" d="M186 159c-7,-2 -15,-5 -23,-8 -1,0 -1,-1 0,0 7,1 14,3 22,5 6,2 13,2 19,4 1,0 1,2 0,2 -6,1 -12,-1 -18,-3z"/>
   <path fill="#FEFEFE" fill-rule="nonzero" d="M172 163c-4,-3 -8,-5 -13,-8 0,-1 0,-1 1,-1 4,2 9,5 13,7 4,3 9,5 12,8 1,0 0,1 -1,1 -4,-1 -8,-4 -12,-7z"/>
   <path fill="#FEFEFE" fill-rule="nonzero" d="M162 160c0,0 0,-1 0,0 3,4 8,7 12,10 3,3 7,6 8,10 0,1 -1,1 -1,1 -4,-2 -7,-5 -9,-8 -3,-5 -6,-9 -10,-13z"/>
   <path fill="#FEFEFE" fill-rule="nonzero" d="M119 42c1,-3 1,-6 3,-9 0,-1 1,-1 1,0 0,3 -1,6 -2,9 -1,3 -1,6 -3,9 0,1 -1,1 -1,0 1,-3 1,-6 2,-9z"/>
   <path fill="#FEFEFE" fill-rule="nonzero" d="M115 36c0,6 0,12 0,17 0,0 -1,0 -1,0 -1,-5 -1,-10 -1,-16 0,-5 -1,-11 0,-16 0,-1 1,-1 2,0 1,5 0,10 0,15z"/>
   <path fill="#FEFEFE" fill-rule="nonzero" d="M102 30c2,2 3,7 4,10 1,5 3,9 3,13 1,1 0,1 0,0 -2,-3 -4,-7 -5,-11 -1,-4 -3,-8 -4,-12 0,-1 1,-1 2,0z"/>
   <path fill="#231F20" fill-rule="nonzero" d="M112 97c0,0 -1,1 -1,1 0,0 0,0 -1,0 1,0 1,0 1,0 0,-1 0,-1 1,-2 1,-1 2,-3 5,-4 1,-1 2,-2 4,-3 2,-1 3,-1 5,-2 2,0 4,0 5,0l1 0c0,0 0,0 0,0 0,0 0,0 1,0 2,0 4,0 7,1 2,1 4,2 6,3 1,1 3,3 4,4 1,2 2,4 2,5 1,2 1,3 2,4 0,2 0,3 0,4 0,1 0,2 0,3 0,1 -1,1 -1,2 0,0 0,0 0,0 0,0 0,0 0,0 0,-1 0,-1 0,-2 0,-2 0,-4 -1,-6 -1,-2 -3,-5 -5,-7 -1,-2 -3,-3 -4,-4 -2,-1 -3,-2 -5,-2 -2,-1 -4,-1 -6,-2 -1,0 -3,0 -5,0 -4,1 -7,2 -9,3 -2,1 -3,1 -4,2 0,0 -1,1 -2,2z"/>
   <path fill="#231F20" fill-rule="nonzero" d="M85 79c1,-1 3,-2 5,-4 2,-1 5,-3 9,-4 3,-1 8,-1 12,-1 4,1 8,3 11,4 3,2 5,5 6,7 2,2 3,4 3,5 1,0 1,0 1,1l-1 0c0,0 0,-1 0,-1 -1,-1 -2,-3 -4,-4 -1,-2 -4,-4 -7,-5 -3,-2 -6,-3 -10,-4 -4,0 -7,0 -11,0 -3,1 -6,2 -8,3 -3,1 -4,3 -5,4 -1,0 -1,0 -2,1 0,0 0,0 0,0 0,0 0,0 0,0 0,-1 1,-1 1,-2z"/>
   <path fill="#231F20" fill-rule="nonzero" d="M95 161c-1,1 -2,2 -4,4 -2,2 -4,3 -7,4 -3,2 -7,2 -11,2 -3,-1 -7,-2 -9,-4 -2,-2 -4,-4 -5,-6 -1,-2 -2,-4 -2,-5 0,-1 0,-2 0,-2 0,0 0,1 0,2 1,1 2,2 3,4 2,1 4,3 6,4 1,1 2,1 4,2 1,0 3,1 4,1 3,0 6,0 9,-1 3,0 5,-1 7,-2 2,-1 3,-3 4,-3 1,-1 1,-2 1,-2 0,0 0,1 0,2z"/>
   <path fill="#FEFEFE" fill-rule="nonzero" d="M62 230c-1,-11 1,-22 3,-33 0,0 0,0 0,0 0,11 0,22 -2,33 0,1 -1,1 -1,0z"/>
   <path fill="#231F20" fill-rule="nonzero" d="M44 151c0,0 1,0 1,1 0,0 0,0 0,0 0,0 0,0 0,0 0,0 -1,0 -1,-1 -1,0 -2,0 -3,0 -1,-1 -2,-1 -3,-2 -2,-1 -4,-3 -5,-6 -1,-2 -1,-3 -1,-5 -1,-2 -1,-3 0,-5 1,-4 3,-7 5,-9 3,-2 6,-4 8,-4 2,-1 4,-1 6,-1 0,0 1,0 1,0 1,0 1,0 1,0 0,0 0,0 -1,0 0,0 -1,0 -1,1 -2,0 -3,0 -5,1 -2,1 -5,3 -6,5 -1,1 -2,2 -3,3 -1,2 -1,3 -2,4 0,2 0,3 0,5 0,1 1,2 1,4 1,2 2,4 4,6 1,1 3,2 4,3z"/>
   <path fill="#FEFEFE" fill-rule="nonzero" d="M54 208c-2,4 -4,9 -8,12 0,0 -1,0 -1,-1 1,-4 4,-8 6,-11 3,-4 6,-9 9,-13 0,0 0,0 0,0 -2,4 -4,9 -6,13z"/>
   <path fill="#FEFEFE" fill-rule="nonzero" d="M54 199c-7,8 -13,16 -21,21 -1,1 -2,0 -1,0 6,-8 14,-14 22,-21 0,0 0,0 0,0z"/>
   <path fill="#FEFEFE" fill-rule="nonzero" d="M24 174l-2 -1 -3 0 -2 -1 -3 0 -2 -1c-1,-1 -1,-1 -2,-2 -1,0 -1,-1 -2,-1 -1,-1 -2,-3 -3,-4 -1,-1 -2,-2 -3,-4 0,-1 -1,-1 -1,-2 0,-1 0,-1 0,-2l-1 -3 0 -2 0 -3 1 -2 0 -2 1 -3c0,0 1,-1 1,-2 1,-1 1,-1 2,-2 1,-1 2,-2 3,-4 1,-1 3,-2 4,-3 1,0 3,-1 5,-2 0,0 1,0 2,0 0,-1 1,-1 1,-1 0,0 0,-1 0,-1 -1,-1 -1,-2 -1,-3 0,-1 0,-2 0,-3 0,0 0,-1 1,-2 0,-2 0,-4 1,-6 1,0 1,-1 2,-2 0,-1 1,-2 1,-2 1,-1 2,-2 2,-3 1,0 2,-1 2,-2 1,0 2,-1 3,-1 1,-1 2,-1 2,-2 1,0 2,0 3,-1 1,0 2,0 3,0l2 -1 1 0c1,0 1,0 2,0 0,-1 0,-3 0,-5 1,-2 1,-3 2,-5l1 -3c0,-1 0,-2 1,-3 0,-1 1,-2 1,-3 1,0 1,-1 2,-2 1,-2 2,-4 3,-5 2,-2 3,-3 5,-5 1,-1 3,-2 5,-4 2,-1 3,-2 5,-3 1,0 2,-1 3,-1 1,-1 2,-1 3,-2l3 -1c1,0 2,0 3,0 2,-1 4,-1 6,-2 2,0 5,0 7,0 4,0 8,0 12,2 4,1 7,2 11,4 3,-3 7,-6 12,-8 1,0 3,0 4,0 1,-1 3,-1 4,-1 1,0 3,0 4,0 1,0 2,0 4,0 1,1 2,1 4,1 1,1 2,1 3,2 1,0 3,1 4,1 1,1 2,2 3,2 1,1 2,2 3,3 0,1 1,2 2,3 1,1 1,2 2,3 0,0 1,1 1,2 2,-2 4,-3 7,-4 1,0 3,0 4,0 2,0 4,0 5,0 2,1 3,1 5,2 1,1 2,2 3,3 1,1 2,2 3,3 0,1 1,2 1,3 0,0 1,1 1,2l0 0c0,1 0,2 0,4 0,0 0,1 0,1 0,1 0,2 0,2 -1,2 -1,3 -2,4 0,1 0,1 -1,2 0,0 -1,1 -1,1 -1,1 -2,2 -3,3 -1,0 -1,1 -2,1 0,0 -1,1 -2,1 0,0 -1,1 -1,1 -1,0 -2,0 -2,0l-1 0 0 0c1,2 3,4 4,5 1,2 1,3 2,4 0,1 0,2 1,2l0 1 0 2c0,1 1,2 1,4 0,1 0,3 -1,5 0,0 0,1 0,2 0,0 0,1 -1,2 0,1 -1,3 -2,4l-1 2 -1 2c-1,1 -2,3 -4,4 -1,1 -2,2 -3,2 -1,1 -2,1 -2,2l-3 1c-1,0 -3,1 -4,1l-1 1c-1,0 -1,0 -2,0 0,0 -1,0 -2,0 -3,0 -6,0 -9,-1 0,1 0,1 0,2 0,1 1,2 0,3 1,2 0,3 0,5 -1,2 -2,4 -3,5 -1,2 -2,3 -3,5 -1,0 -2,1 -3,2 0,0 -1,1 -2,1 -1,1 -2,1 -3,1l-1 1c-1,0 -1,0 -2,0l0 0 -1 0 0 1c-1,0 -1,0 -2,0 -1,0 -2,0 -3,0 -1,0 -3,0 -4,-1l0 2 -1 2 0 2 -1 3c-1,1 -1,3 -2,4 -1,1 -2,3 -3,4 -3,3 -5,5 -8,7 -2,1 -3,2 -5,2 -1,1 -2,1 -3,1l-1 1 -1 0 -1 0c-1,1 -1,1 -2,1 -1,0 -1,0 -2,0 -2,0 -4,1 -6,0 -1,0 -1,0 -2,0 -1,0 -2,0 -3,0 -2,0 -3,-1 -5,-1 -3,-1 -6,-3 -9,-5 -1,-1 -3,-2 -4,-3 0,-1 -1,-2 -1,-2l-1 -1c-1,1 -2,2 -4,3 -1,0 -2,0 -2,1 -1,0 -2,0 -3,1 -2,0 -4,0 -6,0 -2,0 -4,0 -6,-1 -1,0 -2,-1 -3,-1 -1,-1 -2,-1 -3,-2 0,0 -1,-1 -2,-1 -1,-1 -1,-2 -2,-2 0,-1 -1,-2 -2,-3 0,0 0,-1 -1,-2 0,-1 0,-2 -1,-3 0,0 0,-1 0,-1l-1 0 -2 0 -3 1zm-4 -4l2 0 2 0 -4 0 9 1 2 -1 0 0 1 0 0 1c1,1 1,2 2,2 0,1 0,2 1,2 0,1 1,1 1,2 1,1 1,1 2,2 1,0 1,1 2,1 0,0 1,1 2,1 1,1 2,2 4,2 1,1 3,1 4,1 1,0 2,0 3,0 0,0 1,0 2,0 2,0 3,0 5,-1 1,0 3,-1 4,-2l0 0 1 0 1 1c1,1 2,2 4,3 1,0 2,1 3,2 2,1 3,1 4,2 2,1 3,1 5,1 0,1 1,1 2,1 1,0 1,0 2,0 1,0 2,0 2,0 1,1 2,1 3,1 1,0 3,-1 4,-1 1,0 2,0 2,0l1 0 2 -1 1 0 1 0c0,-1 1,-1 2,-1 1,-1 3,-1 4,-2 3,-2 5,-4 7,-6 1,-1 2,-2 3,-3 1,-1 2,-2 2,-4l2 -2 0 -2c1,-1 1,-3 2,-4l0 0 0 -1 1 0c2,0 4,0 5,0 1,0 2,0 3,0 0,-1 1,-1 1,-1l0 0c0,0 1,0 1,0l0 0 2 -1 1 0c0,0 1,-1 2,-1 1,-1 1,-1 2,-1 1,-1 1,-1 2,-2 1,-1 2,-2 3,-4 1,-1 2,-2 2,-4 1,-1 1,-3 1,-4 0,-1 0,-2 0,-3 0,-1 0,-1 0,-2l0 0 0 -1 1 -1 1 0 0 0 1 0 0 0c1,0 3,0 4,0 2,0 3,0 5,0 0,0 1,0 2,-1 0,0 0,0 1,0l1 0c1,-1 2,-1 4,-2l1 -1c1,0 2,0 2,-1 1,-1 2,-1 3,-2 2,-1 2,-2 3,-3l2 -2 1 -2c0,-1 1,-2 1,-3 0,-1 1,-1 1,-2 0,-1 0,-1 0,-2 1,-1 1,-3 1,-4 0,-1 0,-2 -1,-4l0 -1 0 -1c0,0 0,-1 0,-2 -1,-1 -1,-2 -2,-3 -1,-3 -3,-5 -5,-7l0 0 -2 -1 3 -1 1 0 1 0 1 0 1 -1 0 0c1,0 1,-1 2,-1 0,0 1,0 1,-1 1,0 1,0 1,-1 1,0 2,-1 3,-2 0,0 0,-1 0,-1 1,-1 1,-1 1,-2 1,-1 1,-2 1,-2 0,-1 0,-1 0,-2 0,0 0,-1 0,-1 0,-1 0,-2 0,-3 0,-1 0,-2 0,-2 -1,0 -1,-1 -1,-1 -1,-1 -1,-2 -2,-3 -1,-1 -2,-2 -3,-2 -1,-1 -2,-2 -3,-2 -1,0 -3,-1 -4,-1 -1,0 -2,0 -4,0 -2,1 -5,2 -7,3l0 0 -1 1 -1 -1c-1,-1 -1,-2 -2,-3 0,-1 -1,-1 -2,-2 -1,-1 -1,-2 -2,-3 -1,0 -2,-1 -3,-1 -1,-1 -2,-2 -3,-2 -1,-1 -2,-1 -3,-1 -1,-1 -2,-1 -3,-2 -1,0 -2,0 -3,0 -1,0 -2,-1 -4,-1 -1,0 -2,0 -3,0 -1,0 -2,0 -3,1 -1,0 -3,0 -4,0 -4,1 -8,3 -12,6l0 0 -1 1 -1 -1c-3,-1 -7,-2 -11,-3 -4,-1 -7,-1 -11,-1 -2,0 -4,0 -6,0 -2,1 -4,1 -6,1l-3 1 -3 1c0,0 -1,1 -2,1 -1,1 -2,1 -3,2 -2,0 -3,1 -5,3 -1,1 -3,2 -4,3 -2,1 -3,3 -4,4 -2,2 -3,3 -4,5 -1,0 -1,1 -2,2 0,1 -1,2 -1,2 0,1 -1,2 -1,3l-1 2c-1,2 -2,4 -2,6 0,2 -1,3 -1,5l0 0 0 1 -1 0c-1,1 -2,1 -3,1l-1 1c0,0 -1,0 -1,0 0,0 -1,0 -1,0l-1 1c-1,0 -2,1 -2,1 -1,0 -2,1 -2,1 -1,1 -2,1 -2,2 -1,0 -2,1 -2,2 -1,0 -1,1 -2,1 0,1 -1,2 -1,2 -1,1 -1,1 -1,2 -1,1 -1,2 -1,2 -1,1 -1,2 -1,2 0,1 -1,2 -1,3 0,0 0,1 0,2 0,1 0,2 0,2l0 3 0 0 0 1 -1 0c-1,0 -2,1 -2,1 -1,0 -2,1 -2,1 -2,0 -3,1 -4,2 -1,1 -2,2 -3,3 -1,1 -2,2 -3,3 0,1 -1,1 -1,2l-1 2 0 2 -1 2 0 2 0 2 0 2 0 2 1 2c0,0 0,1 0,1 1,1 2,3 2,4 1,1 2,2 3,3 1,1 2,1 3,2l2 1 2 1 2 1z"/>
   <path fill="#F9DC30" fill-rule="nonzero" d="M25 84c3,3 7,6 10,9 4,-2 9,-5 13,-7 -3,3 -5,8 -7,12 3,2 5,5 7,8 -3,0 -7,-1 -11,-1 -1,4 -3,7 -4,9 -2,-2 -3,-6 -4,-9 -5,0 -9,0 -13,0 4,-3 8,-5 12,-8 -1,-4 -2,-9 -3,-13z"/>
   <path fill="#FEFEFE" fill-rule="nonzero" d="M19 104c3,0 6,0 10,0 1,0 1,0 1,1 1,3 2,5 3,7 1,-1 2,-4 3,-7l1 0c0,0 0,-1 0,-1 3,1 5,1 7,1 1,0 1,0 2,0 -1,-2 -3,-4 -6,-7 0,0 0,0 0,0 2,-4 4,-7 6,-10 -4,2 -7,4 -10,5 -1,1 -1,1 -1,0 -1,0 -2,-1 -3,-2 -2,-1 -4,-3 -5,-5 0,4 1,7 1,10l1 1c0,0 -1,1 -1,1 -3,2 -6,4 -9,6zm14 11c0,0 0,0 0,0 0,0 -1,0 -1,-1 -1,-2 -3,-5 -4,-9 -5,0 -9,0 -12,1 0,0 -1,0 -1,-1 0,0 0,0 0,-1 4,-2 8,-5 12,-7l0 -1c-1,-4 -2,-8 -3,-12 0,0 0,0 1,-1 0,0 0,0 1,0 2,3 5,5 8,7 0,1 1,1 1,2 4,-2 8,-4 12,-6 1,-1 1,-1 1,0 1,0 1,0 1,1 -2,2 -5,6 -7,11 3,3 5,5 6,8 0,0 0,0 0,0 0,1 0,1 -1,1 -1,0 -2,0 -3,-1 -2,0 -4,0 -6,0 -2,3 -3,6 -4,8 -1,1 -1,1 -1,1z"/>
   <path fill="white" fill-rule="nonzero" d="M234 97c0,2 0,5 1,7 2,1 5,1 8,2 -3,0 -5,1 -8,2 0,3 0,5 0,6 -1,-1 -3,-2 -4,-3 -2,1 -4,2 -6,2 1,-2 1,-4 3,-5 -2,-2 -4,-4 -6,-5 2,0 5,0 8,1 1,-3 3,-5 4,-7z"/>
   <path fill="#FEFEFE" fill-rule="nonzero" d="M223 104c2,1 3,2 5,3 0,0 0,1 0,1 -1,2 -2,3 -2,4 1,0 3,-1 4,-2l1 0c0,0 0,0 0,0 1,1 2,2 3,3 0,0 0,0 1,0 0,-1 0,-3 0,-4 0,-1 0,-1 0,-1 2,-1 4,-2 6,-2 -2,-1 -4,-1 -6,-1 0,0 -1,0 -1,-1 0,0 0,-1 0,-1 0,-2 0,-3 0,-5 -1,2 -2,4 -3,5l-1 1c0,0 0,0 0,0 -2,0 -5,0 -7,0zm2 9c0,0 0,0 0,0 0,0 0,0 0,0 0,-2 1,-3 2,-5 -2,-2 -4,-4 -6,-4 0,-1 0,-1 0,-1 0,0 1,0 1,0 2,0 5,0 8,0l0 0c1,-2 2,-4 3,-6 1,0 1,-1 1,-1 0,0 0,1 0,1 0,2 1,4 1,6 0,0 0,0 0,1 3,0 5,1 8,1 0,0 0,0 0,1 0,0 0,0 0,0 -2,1 -4,1 -7,3 0,2 0,4 -1,5 0,1 0,1 0,1 0,0 0,0 0,0 -1,-1 -1,-1 -2,-2 -1,0 -1,-1 -2,-2 -2,1 -4,2 -5,2 0,0 -1,0 -1,0z"/>
   <path fill="#F93E26" fill-rule="nonzero" d="M214 62c3,3 7,7 11,11 5,-3 10,-6 15,-8 -3,4 -6,9 -8,14 3,3 6,6 8,10 -3,0 -7,-1 -12,-1 -2,4 -4,8 -5,10 -2,-3 -3,-7 -4,-11 -6,0 -11,0 -15,0 4,-3 8,-6 13,-9 -1,-6 -2,-11 -3,-16z"/>
   <path fill="#F9DC30" fill-rule="nonzero" d="M207 86c3,0 7,0 12,0 0,0 0,0 1,1 1,4 2,7 3,10 1,-3 2,-6 4,-9l0 -1c0,0 1,0 1,0 3,0 5,0 7,1 1,0 2,0 3,0 -2,-3 -4,-5 -7,-8 0,-1 0,-1 0,-2 2,-4 4,-8 6,-11 -4,2 -7,4 -11,6 0,1 -1,1 -1,0 -1,-1 -2,-1 -3,-2 -2,-2 -4,-4 -7,-6 1,3 2,8 3,11l0 2c0,0 0,0 -1,1 -3,2 -7,4 -10,7zm16 13c0,0 0,0 0,0 0,0 -1,0 -1,0 -1,-3 -3,-6 -4,-11 -6,0 -11,0 -14,0 -1,0 -1,0 -1,-1 0,0 0,0 0,-1 4,-3 9,-6 13,-9l0 0c-1,-5 -2,-10 -3,-15 0,-1 0,-1 0,-1 0,0 1,0 1,0 3,3 6,6 9,8 1,1 2,2 3,2 4,-2 9,-5 13,-7 1,0 1,0 1,0 1,0 1,1 0,1 -2,4 -4,8 -7,14 3,3 6,6 7,9 1,1 1,1 0,1 0,1 0,1 0,1 -2,0 -3,0 -5,-1 -2,0 -4,0 -6,0 -2,4 -4,8 -5,10 0,0 0,0 -1,0z"/>
   <path fill="#F9DC30" fill-rule="nonzero" d="M227 142c1,5 3,10 5,15 5,-1 11,-1 16,-1 -4,3 -9,6 -13,9 1,4 2,9 2,13 -2,-2 -6,-4 -10,-7 -3,3 -7,6 -9,7 0,-3 0,-7 1,-12 -4,-2 -9,-5 -13,-7 5,0 11,-1 16,-2 2,-5 4,-10 5,-15z"/>
   <path fill="#FEFEFE" fill-rule="nonzero" d="M209 160c3,1 7,3 11,6 0,0 0,0 0,1 -1,4 -1,7 -1,10 2,-2 4,-4 7,-6l1 0c0,-1 1,-1 1,-1 2,2 4,3 6,4 1,1 1,1 2,2 0,-3 -1,-7 -2,-11 0,0 0,0 0,-1 4,-3 8,-5 11,-7 -5,0 -9,0 -13,1 0,0 -1,-1 -1,-1 0,-1 -1,-2 -1,-3 -1,-3 -2,-6 -3,-9 -1,4 -2,8 -4,12l0 1c0,0 0,0 -1,0 -4,1 -8,1 -13,2zm9 19c0,0 0,0 0,0 -1,0 -1,0 -1,0 0,-4 0,-7 1,-12 -5,-3 -9,-5 -12,-7 -1,0 -1,0 -1,-1 0,0 1,0 1,0 5,-1 10,-2 15,-2l1 -1c1,-5 3,-10 4,-14 0,-1 0,-1 1,-1 0,0 0,0 0,0 2,4 3,8 5,12 0,1 0,2 1,3 5,-1 10,-1 15,-1 0,0 1,1 1,1 0,0 0,1 -1,1 -3,2 -7,5 -12,9 1,4 2,8 2,12 0,0 0,0 0,0 -1,1 -1,1 -1,0 -1,0 -3,-1 -4,-2 -2,-1 -4,-2 -6,-4 -3,3 -6,6 -8,7 -1,0 -1,0 -1,0z"/>
   <path fill="#DB711F" fill-rule="nonzero" d="M37 141c1,0 2,-1 2,-1 3,-1 5,-3 5,-4 1,-2 1,-4 -1,-6 -2,-1 -4,-1 -8,0 -1,0 -1,1 -2,1 1,3 2,7 4,10zm5 16c1,0 2,-1 2,-1 1,0 1,0 2,-1 2,-1 3,-2 5,-3 2,-2 2,-3 2,-4 0,-2 -1,-3 -3,-3 -2,-1 -4,0 -6,0 -2,1 -4,1 -5,2 0,0 0,0 0,0 1,3 2,6 3,10zm4 5c-1,1 -3,1 -4,2 0,0 0,0 -1,0 0,0 -1,0 -2,0 -1,0 -1,-1 -2,-2 -4,-11 -8,-21 -12,-32 0,-1 0,-3 2,-4 0,0 1,0 1,0 0,0 1,0 1,-1 1,0 3,-1 5,-1 7,-2 12,-1 15,3 3,3 3,7 1,11 0,0 0,0 0,1 1,0 1,0 2,0 5,1 8,5 8,10 0,3 -2,6 -6,9 -3,2 -5,3 -8,4z"/>
   <path fill="#DB711F" fill-rule="nonzero" d="M32 130c1,4 3,8 4,12 6,-2 9,-3 9,-6 1,-3 0,-5 -1,-6 -2,-2 -5,-2 -9,-1 -1,1 -2,1 -3,1zm6 16c1,4 3,8 4,12 2,-1 3,-1 4,-2 2,-1 4,-2 6,-4 1,-1 2,-3 2,-4 0,-2 -2,-4 -4,-4 -2,-1 -4,0 -7,0 -2,1 -4,2 -5,2zm-11 -19c1,0 1,0 1,0 1,-1 3,-1 6,-2 7,-2 11,-1 14,2 3,3 3,7 2,11 -1,0 -1,1 -1,1 1,0 2,0 2,0 6,2 8,5 8,10 0,3 -2,6 -6,8 -3,3 -7,5 -12,6 0,0 0,0 0,0 -1,1 -2,0 -3,-2 -4,-10 -8,-21 -12,-31 0,-1 0,-2 1,-3z"/>
   <path fill="#DB711F" fill-rule="nonzero" d="M73 132c1,0 2,0 3,-1 -1,-1 -2,-3 -3,-4 0,2 0,4 0,5zm17 11c-2,1 -3,0 -4,-1 -2,-2 -4,-4 -6,-6 -2,0 -5,1 -7,2 0,3 0,6 0,9 0,2 -1,3 -2,3 -1,0 -1,0 -1,0 -1,1 -2,0 -2,0 -1,-1 -1,-2 -1,-3 0,-8 0,-17 0,-25 0,-3 0,-4 2,-5 1,-1 3,0 5,2 5,7 11,13 16,19 1,1 2,2 1,3 0,1 0,2 -1,2 0,0 0,0 0,0z"/>
   <path fill="#DB711F" fill-rule="nonzero" d="M72 124c0,3 0,7 0,10 2,-1 4,-2 6,-3 -2,-2 -4,-4 -6,-7zm1 -4c6,6 11,13 17,19 1,1 1,3 0,3 -1,1 -2,1 -4,-1 -1,-2 -3,-4 -5,-6 -3,1 -6,2 -9,3 0,3 0,6 0,9 0,2 -1,3 -2,3 -1,0 -2,-1 -2,-3 0,-8 0,-17 0,-25 0,-2 0,-4 1,-4 1,-1 3,0 4,2z"/>
   <path fill="#DB711F" fill-rule="nonzero" d="M100 139c0,0 -1,0 -1,0 -2,0 -4,-1 -4,-4 -1,-9 -3,-18 -4,-27 0,-3 1,-4 2,-5 0,-1 1,-1 1,-1 1,0 2,0 4,2 4,5 8,11 12,17 -1,-7 -1,-13 -1,-20 0,-3 1,-5 3,-6 2,0 3,1 5,3 5,8 10,17 15,25 1,1 1,2 1,3 0,1 -1,1 -2,2 0,0 0,0 0,0 -2,0 -3,0 -5,-3 -3,-5 -6,-10 -10,-15 0,6 1,12 1,17 0,4 -1,6 -3,6 -2,1 -3,0 -5,-3 -3,-4 -6,-8 -10,-13 1,6 2,12 3,18 0,3 -1,4 -2,4z"/>
   <path fill="#DB711F" fill-rule="nonzero" d="M114 132c-2,1 -3,0 -4,-2 -4,-5 -8,-11 -12,-16 1,7 2,14 3,21 0,2 0,4 -2,3 -2,0 -3,-1 -3,-4 -1,-9 -3,-18 -4,-26 0,-3 0,-4 2,-5 1,0 2,0 3,1 5,7 9,13 14,20 -1,-8 -1,-15 -1,-23 0,-3 0,-4 2,-5 1,0 3,1 4,3 5,8 10,16 15,24 2,2 1,3 0,4 -2,1 -3,0 -5,-2 -3,-6 -7,-12 -10,-18 0,7 0,14 0,20 0,3 -1,5 -2,5z"/>
   <path fill="#DB711F" fill-rule="nonzero" d="M142 125c0,0 -1,0 -1,0 -1,0 -3,-1 -3,-4 -2,-7 -3,-15 -5,-23 0,-2 1,-3 2,-4 0,0 1,0 1,0 1,-1 2,-1 3,1 4,4 7,9 11,14 -1,-6 -1,-11 -2,-17 0,-2 1,-4 2,-5 0,0 1,0 1,0 1,0 3,1 4,3 5,6 10,13 14,20 1,1 1,2 1,3 0,0 -1,1 -1,1 -1,1 -1,1 -1,1 -2,0 -3,-1 -5,-3 -2,-4 -5,-8 -8,-12 1,5 1,10 1,14 0,2 0,5 -2,6 0,0 0,0 0,0 -2,0 -3,-1 -5,-3 -2,-3 -5,-7 -8,-10l3 14c0,3 -1,4 -2,4z"/>
   <path fill="#DB711F" fill-rule="nonzero" d="M154 119c-1,0 -3,-1 -4,-2 -3,-5 -7,-9 -10,-14 1,6 2,12 3,18 0,2 0,3 -2,3 -1,0 -2,-1 -3,-3 -1,-8 -2,-15 -4,-23 0,-1 0,-3 1,-3 2,-1 3,-1 3,0 5,6 9,11 13,17 -1,-7 -1,-13 -2,-20 0,-2 0,-3 2,-4 1,0 2,0 3,2 5,7 10,14 14,20 2,2 1,3 0,4 -1,0 -3,0 -4,-2 -3,-5 -6,-10 -10,-15 1,6 1,12 1,18 0,2 0,3 -1,4z"/>
   <path fill="#DB711F" fill-rule="nonzero" d="M175 106c-2,0 -3,-1 -3,-2 -3,-8 -5,-16 -8,-23 0,-1 0,-2 0,-2 1,-1 1,-1 2,-2 0,0 0,0 0,0 2,0 4,0 4,2 2,8 5,16 7,23 1,2 0,3 -2,4 0,0 0,0 0,0zm2 8c0,0 -1,0 -1,0 -1,0 -2,-1 -2,-1 -1,-1 -1,-1 -1,-2 0,0 -1,-1 0,-1 0,-1 0,-1 0,-2 0,0 1,-1 1,-1 1,0 1,0 1,0l0 0c1,0 1,0 1,0 1,0 1,0 2,0 1,0 1,1 1,1 1,1 1,1 1,1 0,1 0,1 0,1 0,1 0,1 -1,2 0,1 -1,1 -1,1 0,0 -1,1 -1,1 0,0 0,0 0,0z"/>
   <path fill="#DB711F" fill-rule="nonzero" d="M167 78c1,0 2,0 2,1 3,8 5,16 7,24 1,1 0,1 -1,2 0,0 0,0 0,0 -2,0 -2,0 -3,-1 -2,-8 -4,-16 -7,-24 0,0 0,0 0,0 0,-1 0,-2 1,-2 1,0 1,0 1,0zm8 30c0,0 0,0 0,0 1,0 1,-1 1,-1 1,0 1,1 2,1 0,0 0,0 1,1 0,0 0,0 0,0 0,1 0,1 0,1 0,1 0,1 0,2 -1,0 -1,0 -2,1 0,0 0,0 0,0 0,0 -1,0 -1,0 -1,0 -1,0 -2,-1 0,0 0,-1 0,-1 -1,0 -1,-1 -1,-1 0,-1 1,-1 1,-1 0,-1 0,-1 1,-1z"/>
   <path fill="#231F20" fill-rule="nonzero" d="M34 140c1,0 2,-1 3,-1 3,-1 5,-3 5,-4 1,-3 0,-4 -1,-6 -2,-1 -4,-1 -8,0 -1,0 -2,1 -2,1 1,3 2,7 3,10zm6 16c1,-1 1,-1 2,-1 1,0 1,-1 2,-1 2,-1 3,-2 5,-3 1,-2 2,-3 2,-4 0,-2 -1,-3 -3,-3 -2,-1 -4,-1 -7,0 -1,1 -3,1 -4,2 0,0 0,0 0,0 1,3 2,6 3,10zm4 5c-2,1 -3,1 -4,2 0,0 -1,0 -1,0 -1,0 -1,0 -2,0 -1,-1 -1,-1 -2,-2 -4,-11 -8,-21 -12,-32 -1,-2 0,-3 2,-4 0,0 1,0 1,0 0,0 1,0 1,-1 1,0 3,-1 5,-1 7,-2 11,-1 15,2 3,4 3,8 1,12 0,0 0,0 0,0 1,0 1,0 1,1 6,1 9,5 9,10 0,3 -2,6 -6,9 -3,1 -5,3 -8,4z"/>
   <path fill="#231F20" fill-rule="nonzero" d="M29 129c2,4 3,8 5,12 5,-2 8,-4 9,-6 1,-3 0,-5 -1,-6 -2,-2 -5,-2 -9,-1 -1,1 -2,1 -4,1zm7 16c1,4 2,8 4,12 1,-1 3,-1 4,-2 2,-1 4,-2 5,-4 2,-1 3,-3 3,-5 -1,-2 -2,-3 -4,-3 -2,-1 -4,0 -7,0 -2,1 -4,2 -5,2zm-11 -19c1,0 1,0 1,0 1,-1 3,-2 6,-2 6,-2 11,-1 14,2 3,3 3,7 1,11 0,0 0,1 0,1 1,0 2,0 2,0 5,2 8,5 8,10 0,3 -2,5 -6,8 -3,3 -7,5 -12,6 0,0 0,0 0,0 -1,0 -2,0 -3,-2 -4,-10 -8,-21 -12,-31 -1,-1 0,-2 1,-3z"/>
   <path fill="#231F20" fill-rule="nonzero" d="M70 131c2,0 3,-1 4,-1 -1,-2 -2,-3 -4,-5 0,2 0,4 0,6zm18 11c-2,1 -3,0 -4,-1 -2,-2 -4,-5 -6,-7 -2,1 -5,2 -8,3 0,3 0,6 1,8 0,3 -1,4 -2,4 -1,0 -1,0 -1,0 -1,0 -2,0 -2,0 -1,-1 -1,-2 -1,-3 0,-8 0,-17 0,-25 0,-3 0,-5 2,-5 1,-1 3,0 5,2 5,6 11,13 16,19 1,1 2,2 1,3 0,1 0,1 -1,2 0,0 0,0 0,0z"/>
   <path fill="#231F20" fill-rule="nonzero" d="M70 123c0,3 0,6 0,10 2,-1 4,-2 6,-3 -2,-2 -4,-5 -6,-7zm1 -4c6,6 11,12 17,19 1,1 1,2 0,3 -1,1 -2,1 -4,-1 -2,-2 -3,-4 -5,-7 -3,1 -6,3 -9,4 0,3 0,6 0,9 0,1 -1,2 -2,2 -2,1 -2,0 -2,-2 0,-9 -1,-17 -1,-25 0,-3 1,-4 2,-4 1,-1 2,0 4,2z"/>
   <path fill="#231F20" fill-rule="nonzero" d="M98 138c0,0 -1,0 -1,0 -2,0 -4,-1 -4,-5 -1,-9 -3,-18 -4,-27 0,-2 0,-4 2,-5 0,0 1,0 1,0 1,0 2,0 4,2 4,5 8,11 12,17 -1,-7 -1,-14 -1,-20 0,-3 1,-5 3,-6 1,0 3,1 5,3 5,8 10,16 15,24 1,2 1,3 1,4 0,1 -1,1 -2,2 0,0 0,0 0,0 -2,0 -4,0 -5,-3 -3,-5 -7,-10 -10,-15 0,6 0,11 1,17 0,3 -1,5 -3,6 -2,0 -4,0 -5,-3 -3,-4 -7,-9 -10,-13 1,6 2,12 3,18 0,2 -1,3 -2,4z"/>
   <path fill="#231F20" fill-rule="nonzero" d="M112 131c-2,1 -3,0 -4,-2 -4,-6 -8,-11 -12,-16 1,7 2,14 3,21 0,2 0,3 -2,3 -2,0 -3,-1 -3,-4 -2,-9 -3,-18 -4,-27 0,-2 0,-3 2,-4 1,-1 2,0 3,1 5,7 9,13 14,20 -1,-8 -1,-16 -1,-23 0,-3 0,-5 2,-5 1,0 3,0 4,3 5,8 10,16 15,24 2,2 1,3 0,4 -2,1 -3,0 -5,-2 -3,-6 -7,-12 -11,-18 0,7 1,13 1,20 0,3 -1,5 -2,5z"/>
   <path fill="#231F20" fill-rule="nonzero" d="M140 124c0,0 -1,0 -1,0 -1,0 -3,-1 -3,-4 -2,-8 -3,-15 -5,-23 0,-2 1,-4 2,-4 0,0 0,-1 1,-1 1,0 2,0 3,2 4,4 7,9 11,13 -1,-5 -1,-11 -2,-16 0,-3 1,-4 2,-5 0,0 0,0 1,0 1,0 3,0 4,2 5,7 10,14 14,21 1,1 1,2 1,2 0,1 -1,2 -1,2 -1,0 -1,0 -1,0 -2,1 -3,0 -5,-2 -2,-4 -5,-8 -8,-12 0,5 1,9 1,14 0,1 0,4 -2,5 0,0 0,0 0,0 -2,1 -3,0 -5,-2 -2,-4 -5,-7 -8,-11 1,5 2,10 3,15 0,2 -1,3 -2,4z"/>
   <path fill="#231F20" fill-rule="nonzero" d="M152 117c-1,1 -3,0 -4,-2 -3,-4 -7,-8 -11,-13 2,6 3,12 4,18 0,2 0,3 -2,3 -1,0 -2,-1 -3,-3 -1,-8 -2,-15 -4,-23 0,-2 0,-3 1,-4 1,0 2,0 3,1 5,5 9,11 13,16 -1,-6 -1,-13 -2,-19 0,-2 0,-4 2,-4 1,-1 2,0 3,2 5,7 10,13 14,20 2,2 1,3 0,3 -1,1 -3,0 -4,-1 -3,-5 -6,-10 -10,-15 0,6 1,11 1,17 0,3 0,4 -1,4z"/>
   <path fill="#231F20" fill-rule="nonzero" d="M173 104c-2,1 -3,0 -3,-2 -3,-7 -5,-15 -8,-23 0,-1 0,-1 0,-2 1,0 1,-1 2,-1 0,0 0,0 0,0 2,-1 3,0 4,2 2,7 5,15 7,23 1,2 0,3 -2,3l0 0zm2 8c0,0 -1,0 -1,0 -1,0 -2,0 -2,-1 -1,0 -1,-1 -1,-1 0,-1 0,-1 0,-2 0,0 0,-1 0,-1 0,-1 1,-1 1,-1 1,0 1,0 1,-1 0,0 0,0 0,0 1,0 1,0 1,0 1,0 1,0 2,1 1,0 1,0 1,1 1,0 1,0 1,1 0,0 0,0 0,1 0,0 0,1 -1,2 0,0 -1,1 -1,1 0,0 -1,0 -1,0 0,0 0,0 0,0z"/>
   <path fill="#231F20" fill-rule="nonzero" d="M165 77c1,-1 2,0 2,1 3,8 5,15 7,23 1,1 0,2 -1,2 0,0 0,0 0,1 -1,0 -2,-1 -3,-2 -2,-7 -4,-15 -7,-23 0,0 0,0 0,0 0,-1 0,-2 1,-2 0,0 1,0 1,0zm8 29c0,0 0,0 0,0 1,0 1,0 1,0 1,0 1,0 2,0 0,1 0,1 1,1 0,1 0,1 0,1 0,0 0,1 0,1 0,0 0,1 0,1 -1,1 -1,1 -2,1 0,0 0,0 0,0 0,1 -1,1 -1,0 -1,0 -1,0 -2,0 0,-1 0,-1 0,-1 -1,-1 -1,-1 -1,-1 0,-1 1,-1 1,-2 0,0 0,0 1,-1z"/>
  </g>
  <rect fill="none" width="251" height="251"/>
 </g>
</svg>
