

<!-- Creator: CorelDRAW X8 -->
<svg xmlns="http://www.w3.org/2000/svg" xml:space="preserve" x="0" y="0" width="30.2484mm" height="25mm" version="1.1" shape-rendering="geometricPrecision" text-rendering="geometricPrecision" image-rendering="optimizeQuality" fill-rule="evenodd" clip-rule="evenodd"
viewBox="0 0 3026 2501"
 xmlns:xlink="http://www.w3.org/1999/xlink">
 <g id="Katman_x0020_1">
  <metadata id="CorelCorpID_0Corel-Layer"/>
  <g id="_2525678786592">
   <path fill="#ACBCC0" fill-rule="nonzero" d="M1490 1145c-14,-5 -30,-12 -46,-19 -76,66 -115,115 -115,115 21,-41 55,-82 97,-123 -64,-32 -131,-80 -167,-151l-2 1c-61,-81 -93,-193 -93,-193l-26 20c8,113 46,187 72,225 -34,39 -76,75 -101,108 8,26 32,58 46,76 28,33 -89,-37 -113,-96 -35,-48 -55,-98 -55,-98l-29 26c24,93 74,155 100,181 -32,48 -50,80 -56,91 -23,40 -64,43 -64,43l0 4c-22,-9 -50,-44 9,-186 0,0 -139,188 -128,252 12,63 113,14 113,14l2 -5 -2 28 128 119 217 139 95 -75 -14 -368c41,-47 86,-90 132,-128z"/>
   <path fill="#ACBCC0" fill-rule="nonzero" d="M1293 931c29,41 86,111 165,156 58,-51 126,-101 195,-146 -33,-29 -66,-66 -92,-114 -23,-40 -37,-70 -44,-92l-5 3c-52,-106 -64,-264 -64,-264l-23 9c-32,127 -5,249 15,313 -54,45 -103,90 -147,135z"/>
   <path fill="#ACBCC0" fill-rule="nonzero" d="M1901 317l-74 -144 -93 69c-41,69 -59,141 -65,203 87,-51 209,-116 232,-128z"/>
   <path fill="#ACBCC0" fill-rule="nonzero" d="M1678 960c-81,46 -147,94 -200,138 15,7 31,14 47,19 66,-51 134,-93 197,-127 -14,-9 -29,-18 -44,-30z"/>
   <path fill="#ACBCC0" fill-rule="nonzero" d="M1728 939c15,11 31,21 47,30 131,-64 240,-104 240,-104l17 -54c-23,8 -49,18 -80,28 -79,25 -160,68 -224,100z"/>
   <path fill="#ACBCC0" fill-rule="nonzero" d="M1930 374c-83,33 -200,82 -263,108 -2,83 15,142 15,142 -44,27 -86,54 -126,83 24,45 68,143 149,204 166,-103 325,-182 325,-182 0,0 12,-1 28,-2l21 -65 -149 -288z"/>
   <path fill="#FAD700" fill-rule="nonzero" d="M730 2043l-116 21 46 26 -243 57 220 27 -162 150 249 -72 -90 89 64 15 66 -116c0,0 21,-6 38,55 17,61 35,159 35,159l133 -165c0,0 43,-46 142,-5 98,40 168,57 168,57l-87 -162 159 -34 -153 -79 -44 -5c0,0 -240,-73 -425,-18z"/>
   <path fill="#EA5E20" fill-rule="nonzero" d="M2629 456c0,246 -199,445 -445,445 -246,0 -445,-199 -445,-445 0,-246 199,-445 445,-445 246,0 445,199 445,445z"/>
   <path fill="#EA5E20" fill-rule="nonzero" d="M1339 1741c0,208 -168,376 -376,376 -207,0 -375,-168 -375,-376 0,-207 168,-375 375,-375 208,0 376,168 376,375z"/>
   <path fill="#65B337" fill-rule="nonzero" d="M284 1548c0,0 11,336 6,533 0,0 211,17 277,-55 67,-72 56,-133 56,-133l-44 -128 -35 -92c0,0 44,-241 -260,-125z"/>
   <path fill="#65B337" fill-rule="nonzero" d="M1042 1345l0 519c0,0 0,194 203,200 0,0 185,11 232,-209l8 206 171 -9 9 -252 130 255 145 -6 23 -200c0,0 101,238 287,226 185,-11 269,-130 269,-130l6 119 440 -3 0 -229 -235 9 12 -145 214 -15 3 -211 -226 20 12 -182 217 -44 -3 -228 -437 72 -3 782 -26 20 -90 -122c0,0 -182,131 -263,-52 -81,-182 20,-385 171,-350l46 6 35 6 87 -206c0,0 -148,-110 -278,-49 -131,61 -189,124 -232,217l-15 -81 0 -96 -191 23 -11 328 -142 -304c0,0 -145,17 -275,58l-12 292 0 206c0,0 -7,107 -81,84 -46,-15 -38,-247 -38,-247l-2 -309 -160 31z"/>
   <polygon fill="#FAD700" fill-rule="nonzero" points="1094,2370 1141,2460 1202,2423 "/>
   <path fill="#ACBCC0" fill-rule="nonzero" d="M510 911c26,-11 47,-20 66,-27 -23,-13 -46,-25 -69,-35 -23,-10 -60,-21 -84,-28 -21,7 -37,17 -50,28 22,8 42,18 61,31 0,0 -31,-8 -78,-13 -28,38 -31,81 -29,119 16,12 44,35 60,51 15,-44 48,-93 123,-126z"/>
   <path fill="#ACBCC0" fill-rule="nonzero" d="M336 838c10,-12 7,-23 18,-31 -80,-11 -151,1 -232,40 0,0 110,-27 214,-9z"/>
   <path fill="#ACBCC0" fill-rule="nonzero" d="M320 866c-24,0 -48,1 -74,5 -65,9 -127,36 -203,101 0,0 111,-78 255,-2 0,-44 9,-78 22,-104z"/>
   <path fill="#ACBCC0" fill-rule="nonzero" d="M548 1185c-39,-68 -70,-112 -70,-112 30,4 66,38 100,86 29,-21 65,-38 108,-45 87,-13 148,-13 185,-11 -39,-35 -138,-112 -241,-179 -26,-8 -64,-10 -106,16 -60,37 -93,93 -98,138 31,37 63,83 95,139 8,-10 17,-21 27,-32z"/>
   <path fill="#ACBCC0" fill-rule="nonzero" d="M866 1163c0,0 -152,-29 -258,43 66,108 119,244 119,244 0,0 83,-181 148,-298l-9 11z"/>
   <path fill="#ACBCC0" fill-rule="nonzero" d="M547 1268c35,69 69,152 102,251l34 -23 2 -2c-27,-95 -70,-187 -110,-261 -10,11 -19,22 -28,35z"/>
   <path fill="#F0811A" fill-rule="nonzero" d="M941 1613c-67,71 -171,94 -228,51 -54,-41 -44,-127 20,-193 63,-65 159,-89 217,-53 60,37 57,124 -9,195z"/>
   <path fill="#FEFEFE" fill-rule="nonzero" d="M290 1550l-2 76 11 87c0,0 14,-67 17,-139 0,0 64,-30 115,-24 31,4 111,42 74,168 -13,46 42,-31 42,-31 0,0 32,-85 -24,-132 -57,-48 -150,-59 -233,-5z"/>
   <path fill="#FEFEFE" fill-rule="nonzero" d="M501 1754l61 5 30 43 31 76 4 52 -52 55c0,0 43,-113 -31,-183 0,0 13,20 7,55 0,0 -4,-83 -126,-85 0,0 48,-16 76,-18z"/>
   <path fill="#FEFEFE" fill-rule="nonzero" d="M399 1620l-20 -5 -4 100c0,0 26,-6 33,-13 6,-6 -9,-82 -9,-82z"/>
   <path fill="#FEFEFE" fill-rule="nonzero" d="M912 1508c-9,17 -29,27 -45,22 -16,-5 -21,-24 -12,-41 9,-17 29,-27 45,-21 16,5 21,23 12,40z"/>
   <path fill="#FEFEFE" fill-rule="nonzero" d="M856 1570c-6,7 -16,9 -24,5 -7,-4 -9,-13 -3,-20 5,-6 16,-8 23,-4 8,4 9,13 4,19z"/>
   <path fill="#FEFEFE" fill-rule="nonzero" d="M1047 1380c0,0 85,-26 104,-8 19,17 16,199 16,199 0,0 3,238 23,268 23,34 9,-217 10,-221 2,-5 3,-299 3,-299l-152 29 -4 32z"/>
   <path fill="#FEFEFE" fill-rule="nonzero" d="M1716 1463l-106 -236 -282 55c0,0 -2,1 -4,4 1,9 3,18 4,28 43,-10 71,11 78,34 7,24 13,164 13,164 0,0 6,-97 7,-148 1,-50 22,-58 22,-58 0,0 79,-30 121,-21 22,4 52,100 81,150 29,51 92,138 92,138l-26 -110z"/>
   <path fill="#FEFEFE" fill-rule="nonzero" d="M1766 1250c0,0 87,-9 96,0 8,9 10,32 17,52 7,20 15,140 15,140 0,0 8,-102 7,-133 -2,-30 1,-74 26,-79 31,-8 10,-44 10,-44l-165 20 -6 44z"/>
   <path fill="#F0811A" fill-rule="nonzero" d="M2530 270c17,127 -104,205 -253,165 -133,-36 -225,-151 -218,-251 7,-93 96,-153 209,-141 125,14 247,111 262,227z"/>
   <path fill="#FEFEFE" fill-rule="nonzero" d="M2423 254c-22,33 -73,38 -115,11 -42,-28 -58,-77 -37,-110 22,-33 74,-38 115,-10 42,27 59,76 37,109z"/>
   <path fill="#FEFEFE" fill-rule="nonzero" d="M2223 239c-3,13 -17,21 -31,18 -13,-4 -22,-17 -18,-30 3,-14 17,-22 30,-18 14,3 22,17 19,30z"/>
   <path fill="#FEFEFE" fill-rule="nonzero" d="M1645 2051l-38 -37 4 -76c0,0 10,-73 15,-99 4,-26 17,-98 17,-98l12 95 -2 154 -8 61z"/>
   <path fill="#FEFEFE" fill-rule="nonzero" d="M1938 2053l-43 -49c0,0 -1,-103 6,-137 7,-35 14,-141 17,-160 3,-18 15,-133 15,-133l8 255 5 132 -8 92z"/>
   <path fill="#FEFEFE" fill-rule="nonzero" d="M2526 1104l44 30c0,0 153,-29 340,-46l0 17c-33,6 -141,15 -223,38 0,0 165,-9 217,0l4 50 -144 47c0,0 124,-19 140,-19 16,0 55,40 55,40l2 -221c0,0 -286,25 -435,64z"/>
   <path fill="#FEFEFE" fill-rule="nonzero" d="M2712 1694c0,0 -29,100 -29,195l233 -9c0,0 -9,96 24,142l19 19 -2 -208 -224 2c0,0 -2,-180 -21,-141z"/>
   <path fill="#FEFEFE" fill-rule="nonzero" d="M2716 1298c0,0 -17,34 -23,79 -7,46 0,162 0,162l216 -15c0,0 7,107 39,139l7 -41 2 -146 -224 3 -17 -181z"/>
   <path fill="#FEFEFE" fill-rule="nonzero" d="M2110 1722c0,0 24,115 120,148 40,13 85,21 156,-13l58 79 63 18 -102 -154c0,0 -223,113 -295,-78z"/>
   <path fill="#FEFEFE" fill-rule="nonzero" d="M2446 1172l1 -6c0,0 -155,-59 -254,-26 -100,32 -146,115 -146,115 0,0 156,-124 326,-54 0,0 -143,-44 -252,69 0,0 125,-92 277,-31 -6,17 -14,37 -21,60 0,0 -72,-1 -95,17 0,0 60,-7 92,15l3 56 31 -17 71 -137 7 -37 -40 -24z"/>
   <path fill="#2F863D" fill-rule="nonzero" d="M376 1985l3 -165c0,0 116,-37 119,58 3,99 -122,107 -122,107zm191 -147c0,0 9,40 -8,84 0,0 17,-180 -203,-136 0,0 -17,-21 -29,-55 0,0 6,208 0,309 0,0 165,0 200,-104 0,0 0,38 -20,73 0,0 118,-58 60,-171z"/>
   <path fill="#2F863D" fill-rule="nonzero" d="M1425 1576c-2,5 -5,11 -10,13 -11,7 -19,15 -9,24 13,11 10,21 5,35 -2,1 -2,3 -4,4 -23,12 -49,9 -49,9l-6 174c0,0 -20,96 -98,90 -89,-8 -93,-79 -93,-206 0,0 -58,17 -61,-84 -3,-101 3,-127 3,-127 0,0 -14,-32 -17,-76l-3 426c0,0 0,110 72,133 73,23 142,-14 142,-14 0,0 -49,46 -101,52 0,0 208,29 234,-203l6 -310c0,0 -10,33 -11,60z"/>
   <path fill="#2F863D" fill-rule="nonzero" d="M412 1728c0,0 48,-19 54,-52 7,-32 -11,-65 -11,-65 0,0 37,24 33,63 -4,39 -39,59 -76,54z"/>
   <path fill="#984226" fill-rule="nonzero" d="M709 1481c0,0 -84,98 -39,258 0,0 11,113 157,128 0,0 -22,9 -52,13 0,0 41,33 125,24 0,0 -41,24 -91,33 0,0 87,24 176,-18 0,0 -113,-78 -100,-234 0,0 -2,-76 76,-133 0,0 -61,57 -52,168 9,110 94,173 128,191l20 30 24 50 71 63 -17 24c0,0 -141,67 -267,28 -126,-39 -200,-106 -243,-208 -44,-102 -52,-296 84,-417z"/>
   <path fill="#2F863D" fill-rule="nonzero" d="M1526 1429l-3 591 81 0 20 -428 204 419 69 -2 2 -563c0,0 -10,80 -28,102 -17,22 -67,35 -67,35l-9 184 -119 -251c0,0 -48,21 -81,32 0,0 46,2 61,7 0,0 -71,26 -100,11 -11,-7 -10,-32 -15,-59 -6,-37 -15,-78 -15,-78z"/>
   <polygon fill="#F4A40A" fill-rule="nonzero" points="1098,2371 1139,2462 1198,2421 "/>
   <path fill="#F4A40A" fill-rule="nonzero" d="M566 2119c0,0 163,-17 156,-8 -6,8 -27,52 -62,80 0,0 99,-50 123,-52 24,-2 20,28 20,28 0,0 26,-28 50,-22 24,7 17,89 8,146 0,0 46,-100 115,-122 70,-22 155,26 155,26 0,0 -44,-52 17,-65 17,-3 38,-6 61,-2 36,6 72,19 72,19l76 -15 -192 -82c0,0 -106,82 -223,65 -118,-17 -202,-70 -202,-70l-124 20 41 22 -91 32z"/>
   <path fill="#2F863D" fill-rule="nonzero" d="M2064 1288c0,0 -105,140 -98,361 3,118 28,205 92,268 56,56 154,75 274,44 0,0 -61,71 -218,21 0,0 65,49 150,44 52,-3 113,-26 167,-85l-43 -80c0,0 -158,87 -254,-32 -101,-126 -76,-418 43,-468 0,0 -58,5 -110,89 0,0 6,-34 34,-78 0,0 -54,48 -76,122 0,0 -6,-50 3,-91 13,-66 36,-115 36,-115z"/>
   <path fill="#2F863D" fill-rule="nonzero" d="M2681 1646l224 -13 -2 -107 -210 13 -6 -196c0,0 -21,43 -69,27 -32,-11 -26,-56 -32,-89 -7,-33 -24,-106 -24,-106l4 359c19,8 44,26 44,68 0,41 -24,63 -42,74l5 337 331 1 0 -130 -217 9 -6 -247z"/>
   <path fill="#984226" fill-rule="nonzero" d="M2023 617c-124,-70 -119,-189 -119,-189 84,-76 187,-92 187,-92 0,0 6,48 6,55 0,6 -13,93 -30,145 -18,52 -44,81 -44,81zm-69 -476c41,9 78,54 108,98 15,21 22,44 25,63 -59,9 -122,31 -181,73l-22 13c0,-9 -8,-166 70,-247zm525 -2c0,0 152,171 41,412 0,0 -89,-167 -23,-325 0,0 -107,119 -7,384 0,0 -43,50 -78,78 -35,28 -93,39 -93,39l17 -58c0,0 32,-220 -2,-320 0,0 -11,244 -57,330 -45,87 -200,-21 -200,-21l5 -33c0,0 63,-143 45,-286 0,0 35,-22 146,-22l43 -2c0,0 -87,-28 -197,-17 -43,-162 -152,-185 -152,-185 0,0 50,-57 167,-87 117,-31 -124,-31 -276,121 0,0 -132,131 -124,307 9,176 98,343 289,414 191,72 328,11 432,-71 105,-83 150,-170 159,-283 9,-112 -13,-273 -135,-375z"/>
   <path fill="#984226" fill-rule="nonzero" d="M1219 1508l0 327c0,0 14,61 52,43 38,-17 46,-58 49,-118 3,-61 0,-139 0,-139 0,0 -75,-171 -101,-113z"/>
   <polygon fill="#66A0D6" fill-rule="nonzero" points="2528,2064 2577,2011 2904,2009 2965,2058 "/>
   <path fill="#66A0D6" fill-rule="nonzero" d="M2038 1965c0,0 238,151 391,-23l58 12c0,0 -107,141 -269,112 -162,-29 -180,-101 -180,-101z"/>
   <polygon fill="#66A0D6" fill-rule="nonzero" points="1488,2061 1523,2020 1598,2017 1639,2058 "/>
   <polygon fill="#66A0D6" fill-rule="nonzero" points="1795,2049 1830,2011 1891,2009 1934,2052 "/>
   <path fill="#66A0D6" fill-rule="nonzero" d="M287 2072l37 -29c0,0 215,0 272,-118l-5 95 -70 35c0,0 -127,37 -234,17z"/>
   <path fill="#66A0D6" fill-rule="nonzero" d="M631 1916c0,0 55,127 241,188 138,46 280,-46 280,-46l-40 -35 -90 23 -46 6c0,0 -76,-15 -133,-58 -59,-44 -21,29 -21,29l-37 -6c0,0 -84,-40 -154,-101z"/>
   <path fill="#66A0D6" fill-rule="nonzero" d="M1106 2011c0,0 122,53 229,-11 107,-64 127,-139 127,-139 0,0 -17,165 -130,197 -113,32 -174,8 -226,-47z"/>
   <path fill="#66A0D6" fill-rule="nonzero" d="M1245 1508l41 46 29 49 8 75 -3 90c0,0 0,128 -66,104 -67,-23 -38,-136 -38,-136 0,0 -23,-269 29,-228z"/>
   <path fill="#66A0D6" fill-rule="nonzero" d="M1766 584c0,0 81,104 186,168 0,0 52,-35 136,-156l-9 95 -23 72 87 35 63 32c0,0 21,17 78,-52l-5 38 124 -55c0,0 133,-67 194,-189 0,0 -8,151 -153,241 -145,89 -432,176 -643,-125 0,0 -93,-159 -35,-104z"/>
   <path fill="#252422" fill-rule="nonzero" d="M2476 643c-12,-28 -22,-55 -30,-75 -1,13 -3,32 -8,50 -3,3 -6,5 -9,8 -5,-15 -11,-32 -19,-51 0,0 -1,36 -10,69 -2,1 -4,3 -6,4 -4,-18 -9,-44 -17,-73 0,0 -6,52 -22,91l-3 1c4,-35 -8,-76 -13,-91 -5,41 -16,103 -42,171 68,-18 132,-53 179,-104z"/>
   <path fill="#252422" fill-rule="nonzero" d="M2287 773c-12,26 -25,52 -41,78 106,-17 197,-74 255,-157 -5,-8 -9,-17 -13,-26 -49,55 -114,93 -201,105z"/>
   <polygon fill="#252422" fill-rule="nonzero" points="2526,542 2524,544 2501,523 2519,583 2544,525 2523,504 "/>
   <path fill="#252422" fill-rule="nonzero" d="M2413 140l-3 30 16 -19c-4,-4 -9,-8 -13,-11z"/>
   <path fill="#252422" fill-rule="nonzero" d="M2456 179l-1 4 -8 42 24 -27c-5,-7 -10,-13 -15,-19z"/>
   <path fill="#252422" fill-rule="nonzero" d="M2447 171c-5,-5 -9,-9 -14,-14l-11 42 25 -28z"/>
   <path fill="#252422" fill-rule="nonzero" d="M440 1652c-3,-55 -55,-40 -55,-40 0,0 3,39 7,96 22,-6 50,-22 48,-56z"/>
   <path fill="#252422" fill-rule="nonzero" d="M398 1838c2,42 2,83 2,121 0,0 75,-3 75,-75 0,-52 -42,-48 -77,-46z"/>
   <path fill="#252422" fill-rule="nonzero" d="M1142 2441l-31 -59 72 41 -41 18zm-7 34l85 -47 -144 -81 59 128z"/>
   <path fill="#252422" fill-rule="nonzero" d="M284 1021c12,40 35,73 64,96 -29,-35 -47,-84 -47,-137 0,-103 63,-183 145,-183 8,0 35,3 62,23 -22,-24 -40,-35 -77,-38 -24,-2 -47,4 -68,15 -162,-18 -238,52 -238,52 0,0 86,-44 211,-33 -37,32 -61,86 -61,144 0,9 1,18 2,26 -11,-5 -30,-13 -41,-16 -168,-37 -236,77 -236,77 0,0 121,-118 275,-32 3,2 6,4 9,6z"/>
   <path fill="#252422" fill-rule="nonzero" d="M2539 2043l-8 -926c127,-29 333,-52 408,-61l3 194c-77,12 -226,38 -226,38l0 222 226 -15 0 166 -228 15 -1 183 231 -7 1 191 -406 0zm-46 -162l-81 -121c0,0 -29,27 -81,40 -62,14 -131,-6 -148,-113 -26,-165 67,-246 67,-246 0,0 -113,47 -97,266 -14,-52 -15,-120 -2,-173 35,-143 115,-133 142,-134 58,-4 104,27 104,27l79 -154 -55 182 79 -156 4 544 -72 -104 61 142zm-247 175c-179,-1 -300,-181 -303,-421 0,-81 14,-200 50,-280 55,-123 154,-203 268,-206 75,-2 139,14 191,48l-69 177c0,0 -174,-60 -249,76 -35,63 -49,197 -12,289 43,106 160,159 275,78l82 125c-67,73 -151,115 -233,114zm-323 -19l-115 3 -169 -359 -8 362 -134 3 0 -779 98 -16 177 384 6 -412 147 -22 -2 836zm-487 -139c-27,68 -69,148 -185,154 -179,9 -194,-174 -194,-174l0 -521 130 -26 0 469c0,0 -6,104 73,101 83,-3 78,-136 78,-136l0 -463 116 -26 0 463c0,0 5,102 -18,159zm-113 235c0,0 -107,23 -165,35l96 150c0,0 -191,-78 -249,-60 -58,17 -157,170 -157,170 0,0 -23,-205 -72,-197l-2 1 31 -61c-12,10 -39,35 -69,63 -39,12 -162,50 -218,68 0,0 91,-92 152,-139 0,0 -154,-16 -195,-20 0,0 182,-40 206,-52 18,-9 -48,-24 -48,-24 0,0 62,-9 103,-12 5,4 10,7 15,10 -6,8 -16,17 -35,28 0,0 69,-15 59,0 -12,16 -68,61 -68,61 0,0 78,-43 94,-48 15,-4 34,0 19,33 0,0 41,-22 54,-18 13,5 24,44 -2,126 0,0 26,-52 52,-86 9,-13 28,-24 40,-31l0 0c17,0 34,-1 50,-3 23,7 58,25 112,64 0,0 -54,-51 -50,-77 38,-14 122,5 122,5l-65 -28c11,-5 21,-11 31,-17l2 0c12,6 30,12 49,17 41,14 90,31 108,42zm-631 210l-37 -7c37,-39 104,-104 104,-104l-67 111zm-110 -288c33,-20 54,-49 66,-77 13,18 34,44 55,57 -20,5 -57,13 -127,23 2,-1 4,-2 6,-3zm-278 6c9,-206 -9,-504 -9,-504 102,-47 217,-41 232,66 13,96 -75,139 -75,139 78,-4 116,29 134,63 4,18 9,36 16,53 0,7 0,12 0,12 -8,194 -298,171 -298,171zm461 -93c-6,-3 -12,-7 -17,-11 -9,-12 -21,-37 -29,-78 0,0 -5,28 -2,55 -5,-5 -10,-10 -15,-16 -19,-19 -31,-46 -36,-71 13,-23 27,-67 26,-108 17,-5 34,-9 50,-13 4,123 40,203 69,249 -17,-10 -48,-35 -64,-81 0,0 4,44 18,74zm263 -267l0 179c-32,-16 -96,-62 -107,-179 49,-3 87,-2 107,0zm-107 -28c3,-34 20,-126 107,-168l0 167c-39,-1 -75,-1 -107,1zm43 -295c22,0 43,2 64,5l0 24c-20,-3 -60,-6 -101,4 0,0 67,5 101,33l0 34c-27,14 -120,73 -127,197 -57,5 -104,15 -142,26 -1,-36 3,-187 115,-279 0,0 -132,69 -132,284 -20,7 -36,14 -50,20 -8,-83 -49,-105 -49,-105 0,0 34,36 33,113 -29,14 -42,26 -42,26 14,-6 27,-11 41,-15 -3,42 -17,73 -28,91 0,0 36,181 227,228 14,3 54,10 61,11 -50,-35 -172,-145 -176,-353 51,-11 100,-17 142,-20 3,115 68,179 113,206 -18,11 -43,22 -77,30 0,0 44,4 94,-11 -16,19 -51,45 -128,53 0,0 76,18 148,-15 4,7 8,15 13,22 -27,9 -92,26 -166,20 23,25 59,54 105,67 41,-4 76,-16 106,-34 8,7 16,13 24,18 -50,27 -108,43 -169,43 -198,0 -359,-162 -359,-362 0,-200 161,-361 359,-361zm278 312c19,0 39,8 53,15 0,-25 -1,-44 -1,-44 -8,-30 -22,-58 -33,-77l-2 -51c22,33 40,69 51,108l-1 159c-5,37 -19,54 -34,61 2,-2 17,-23 19,-58 1,-15 1,-41 1,-67 -21,-12 -53,-17 -53,-17l0 -29zm674 -1566c8,3 17,7 27,11 17,8 35,20 53,35 18,15 35,33 48,56 14,23 25,50 31,78 1,7 2,14 3,20 -75,22 -141,58 -190,97 -2,1 -3,3 -5,4 -1,-3 -2,-7 -3,-10 12,-22 35,-42 35,-42 -19,4 -32,9 -40,14l0 -2c10,-20 34,-39 34,-39 -17,3 -30,7 -37,11 -1,-9 -2,-18 -2,-27 0,-12 1,-24 2,-36 -10,34 -16,70 -16,108 0,15 1,29 3,44 -11,9 -21,19 -30,28 -5,-24 -8,-48 -8,-74 0,-96 37,-183 98,-250 -86,74 -141,183 -141,305 0,24 2,48 6,71 -1,2 -2,3 -3,5 -6,7 -10,14 -14,20 -7,-30 -11,-62 -11,-94 0,-135 63,-255 160,-333zm258 -93c1,1 2,2 4,3 11,7 24,16 38,29 13,13 27,29 39,48 13,19 24,42 34,67 9,25 16,52 21,81 3,15 6,32 7,48 -39,-4 -78,-6 -117,-3 -34,2 -67,7 -99,15 -1,-7 -2,-13 -4,-19 -7,-31 -18,-60 -33,-85 -15,-26 -34,-46 -53,-63 -10,-8 -19,-14 -28,-20 76,-61 165,-66 165,-66 -93,-7 -164,31 -193,50l-2 -1c-6,-3 -10,-5 -15,-7 67,-47 148,-75 236,-77zm433 426c0,79 -21,153 -59,216 -2,-4 -5,-8 -8,-12 -3,-5 -6,-11 -10,-17 15,-29 26,-61 32,-95 -12,28 -26,54 -42,77 -1,-3 -3,-7 -5,-10 -5,-8 -8,-17 -12,-25 -2,-5 -4,-9 -6,-13 -2,-5 -4,-9 -5,-13 -4,-9 -7,-18 -10,-27 -3,-9 -7,-19 -9,-28 -2,-9 -5,-18 -7,-28 -1,-9 -3,-19 -5,-29 -1,-8 -2,-18 -3,-27 -2,-10 -2,-19 -2,-28 -1,-11 -1,-21 -1,-31 29,16 55,36 75,61 3,3 6,7 9,11 3,4 5,8 8,12 5,7 19,31 20,32 -1,-3 -10,-27 -15,-35 -2,-5 -4,-9 -6,-13 -3,-5 -5,-9 -8,-13l-4 -6 -4 -6c-3,-5 -6,-9 -9,-13 -3,-4 -7,-7 -11,-11 -3,-3 -6,-8 -11,-11 -8,-6 -15,-13 -24,-18l-14 -9c-1,-1 -3,-1 -5,-2 1,-17 4,-32 7,-46 2,-7 3,-14 5,-20 2,-7 4,-13 6,-18 3,-5 5,-11 7,-15 2,-5 5,-9 7,-12 5,-8 9,-13 12,-16 3,-4 5,-6 5,-6 0,0 -3,2 -6,4 -4,3 -9,8 -15,15 -5,7 -12,15 -18,26 -3,5 -5,12 -8,18 -3,6 -6,13 -8,20 -4,13 -8,27 -10,42 -2,-1 -5,-3 -7,-4l-15 -5c-5,-2 -10,-4 -15,-6l-15 -4c-6,-1 -11,-3 -16,-4l-15 -3 -15 -2 -7 -1c-2,-18 -4,-36 -7,-53 -5,-30 -13,-58 -22,-85 -10,-26 -21,-50 -34,-71 -18,-28 -38,-51 -57,-67 220,17 392,200 392,424zm-418 425l1 -1c20,-21 44,-54 66,-98 22,-43 42,-96 56,-154 14,-59 23,-122 26,-186 1,-32 1,-64 0,-95 -1,-6 -1,-12 -1,-17l1 0 15 2 16 3c5,1 9,2 14,3l14 4c5,1 10,3 15,4l14 5c4,2 7,4 11,6 -1,13 -1,27 -1,41 0,9 -1,19 0,28 1,10 2,19 3,30 1,10 3,20 4,29 2,10 4,20 6,30 2,10 6,20 9,29 2,10 6,20 9,29 2,5 4,9 6,14 1,4 3,9 5,13 4,9 8,18 12,27 8,17 17,33 25,48 5,7 9,15 13,22l2 3c-75,108 -200,179 -341,181zm-66 -122c16,2 32,3 49,3 24,0 48,-1 72,-5 -2,5 -5,10 -8,15 0,2 -1,3 -2,5 -4,0 -9,0 -13,0 -26,0 -71,-9 -98,-18zm49 104c-7,8 -13,13 -18,17 -85,-5 -164,-36 -228,-84 31,-34 63,-76 91,-124 32,-53 60,-114 75,-179 8,-32 13,-65 14,-98 0,-8 0,-17 0,-25 -1,-8 -1,-16 -2,-24l0 -2c31,-8 64,-14 98,-17 39,-4 78,-3 117,1 0,6 1,13 1,19 1,32 1,63 0,94 -3,63 -12,125 -27,182 -3,13 -7,26 -11,39 6,-42 5,-83 5,-83 -14,37 -39,74 -60,101 15,-48 24,-106 24,-106 -16,35 -44,69 -67,94 17,-46 28,-100 28,-100 -17,32 -45,63 -68,87 13,-46 16,-98 16,-98 -15,27 -33,54 -49,75 3,-41 -2,-82 -5,-99 -20,64 -63,170 -144,258 9,6 19,12 29,17 24,0 53,-3 79,-11 0,0 -18,14 -42,28 8,4 16,6 24,9 26,0 61,-2 91,-11 0,0 -16,12 -37,25 24,5 49,7 74,7 -3,3 -5,6 -8,8zm-268 -85c-59,-50 -103,-116 -127,-191 1,-2 2,-4 4,-7 4,-8 12,-19 23,-34 21,-28 54,-66 101,-104 46,-36 106,-71 176,-92 1,7 1,14 1,21 0,7 0,15 0,23 -1,31 -6,63 -14,93 -12,47 -30,92 -52,133 -2,-1 20,-91 20,-91 -18,18 -41,42 -56,59 11,-30 35,-83 35,-83 -21,16 -47,38 -64,53l-2 -3c16,-29 40,-68 40,-68 -19,12 -43,27 -61,39l-2 -3c17,-26 42,-62 42,-62 -18,10 -41,22 -58,32l-1 -1c10,-18 24,-39 32,-50 -28,19 -51,39 -71,60 20,69 59,130 112,176l-1 2c-61,-40 -107,-91 -134,-153 -19,24 -34,46 -45,65 24,66 66,123 118,168 -5,6 -11,12 -16,18zm1107 1033l-11 228 -21 -1 0 -223 -173 4 3 -60 208 -6 -17 -261 -6 226 -214 12 -8 92 -13 0 1 -114 217 -7 0 -245 -167 13 1 -104 203 -32c0,0 -9,-122 -17,-232l0 206 -214 35 -9 133 -13 0 1 -154c30,-6 151,-25 215,-34l0 -267c0,0 -310,38 -478,70l0 91c-59,-45 -134,-68 -219,-68 -4,0 -8,0 -12,0 -100,2 -189,58 -253,147l-11 -104 -12 138c-4,7 -8,13 -12,20l0 -155c-58,8 -149,22 -237,36l-2 183 -82 -138 81 223 0 3 -124 -251c-79,13 -136,22 -136,22 0,0 -10,2 -25,5 26,-24 55,-47 86,-68 109,13 199,-28 228,-81 0,0 -214,191 -476,-116 -73,-86 -112,-176 -117,-246 -8,-99 16,-158 78,-191 25,-14 55,-16 87,-11 -2,2 -4,4 -6,6 -9,9 -19,19 -28,28 -10,10 -19,20 -28,29 -16,17 -32,34 -47,51 -1,-13 -1,-31 4,-51 0,0 -39,47 -27,121 12,-13 24,-27 37,-40 18,-20 37,-40 56,-59 9,-9 18,-19 28,-28 9,-9 19,-19 28,-28 9,-9 19,-18 28,-27 10,-9 19,-18 29,-27 5,-5 11,-10 16,-15 2,73 19,156 60,247 -81,63 -150,127 -205,185 4,7 7,13 11,19 75,-69 145,-126 208,-173 53,109 122,179 192,222 -72,39 -134,82 -179,126 3,1 5,2 8,2 1,1 3,2 5,2l1 0c4,-3 6,-5 6,-5 0,0 74,-52 185,-111 12,7 24,12 36,17 -74,36 -136,73 -187,107 13,2 25,3 38,3 62,-36 130,-68 197,-95 85,20 161,7 200,-21 0,0 -287,102 -475,-283 -51,-104 -67,-208 -64,-284 4,-107 43,-188 101,-227 44,-30 99,-26 149,-5 -2,1 -3,2 -5,3 -15,11 -31,22 -48,34 -16,12 -33,25 -51,38 -17,13 -35,27 -53,42 -8,6 -16,13 -24,19 0,-18 5,-47 24,-84 0,0 -54,37 -61,161 10,-8 19,-15 28,-23 19,-16 37,-31 56,-45 18,-14 35,-28 53,-41 17,-13 34,-25 50,-37 16,-12 33,-22 48,-33 15,-10 29,-20 43,-29 7,-5 14,-10 21,-14 -35,54 -60,117 -69,184 -46,28 -118,76 -178,128 0,0 111,-67 174,-91 -1,10 -1,19 -1,29 0,41 5,81 15,118 -68,36 -132,76 -190,118 4,12 9,23 13,33 79,-55 143,-93 188,-117 31,89 90,166 166,220 -21,15 -62,45 -100,70 0,0 86,-38 126,-53 9,6 19,11 29,17 -48,19 -132,54 -219,98l2 0c10,4 20,8 30,12 71,-34 151,-68 230,-91 21,8 43,15 65,20 -93,24 -176,54 -250,86 20,7 42,11 64,14 122,-44 233,-74 294,-89 249,-3 450,-206 450,-456 0,-252 -204,-457 -456,-457 -112,0 -214,40 -293,106 -8,5 -29,18 -60,37 -19,11 -41,26 -66,42 -34,-13 -130,-42 -205,2 -56,33 -117,123 -126,256 -4,4 -8,7 -12,11 -9,8 -18,17 -28,26 -6,6 -12,12 -18,18 -41,-6 -91,-7 -137,13 -56,25 -103,98 -105,197 0,16 1,33 3,50 -5,6 -11,13 -16,19 -15,19 -30,38 -44,57 -60,-10 -144,30 -111,155 -7,12 -15,23 -22,34 -16,25 -31,48 -45,72 -5,-1 -10,-3 -15,-4 -28,-24 -70,-59 -120,-97 -3,-69 -46,-111 -92,-126 -38,-12 -75,-13 -110,-6 -31,-17 -62,-31 -92,-41 -24,-5 -45,-1 -60,6 37,9 77,23 117,44 -81,30 -142,106 -156,183 -14,-14 -29,-27 -44,-39 5,21 11,39 18,53 7,8 15,15 23,24 -1,110 72,124 72,124 0,0 -39,-20 -48,-80 -3,-24 -2,-101 50,-159 59,-65 137,-92 187,-87 65,7 87,47 94,74 -27,-19 -54,-38 -83,-56 -15,0 -32,1 -45,2 106,67 184,130 233,174 -109,-9 -208,23 -275,76 -26,-38 -54,-73 -82,-98 0,0 30,42 68,110 -18,16 -34,34 -45,53 -24,-41 -49,-80 -76,-116 -2,13 -3,28 -1,42 22,30 43,63 63,100 -9,21 -14,44 -14,67 0,150 91,154 91,154 -45,-19 -132,-163 9,-278 109,-89 253,-74 312,-63l-2 4c-20,35 -38,68 -53,97 -14,30 -27,56 -36,78 -10,21 -17,39 -21,50 -5,12 -7,19 -7,19 0,0 3,-6 9,-18 6,-11 14,-27 25,-48 12,-21 25,-46 42,-74 8,-14 17,-29 26,-45 10,-16 20,-33 31,-50 21,-34 44,-71 70,-109 4,-6 8,-13 13,-19 1,4 2,7 3,11 83,208 261,202 261,202 -234,-63 -261,-276 -245,-324 10,-31 40,-39 60,-41 -9,13 -18,25 -27,38 -3,4 -6,8 -9,12 0,11 0,24 2,38 9,-12 17,-24 26,-36 30,-40 63,-81 96,-122l1 -1c14,58 43,121 94,184 -73,80 -112,137 -112,137 42,-45 83,-86 122,-124 70,92 194,167 268,180 -49,37 -81,67 -94,80 -33,6 -73,14 -108,21l-1 291c-14,-28 -32,-55 -53,-79l-6 -161 -19 135c-4,-4 -8,-8 -13,-12l0 -154c-69,17 -191,49 -191,49l0 14c-21,-4 -42,-6 -64,-6 -38,0 -74,6 -109,16 41,-118 115,-230 115,-230 -67,82 -131,200 -154,244 -43,18 -82,43 -116,75 -11,-29 -54,-133 -111,-231 -6,5 -12,9 -17,14 36,69 75,154 103,243 -16,18 -30,37 -43,58 -12,-35 -49,-135 -102,-240 -20,47 -18,86 -7,107 0,-22 3,-38 7,-49 29,67 56,142 80,225 -9,19 -16,39 -21,60 0,-45 -13,-131 -100,-153 0,0 86,29 68,143 -4,-61 -34,-157 -186,-122 -28,6 -66,18 -102,34 0,0 15,299 6,548 0,0 215,10 299,-31 10,4 72,26 64,30 -9,4 -285,65 -285,65l261 26 -220 191c0,0 195,-71 302,-100 -43,41 -84,81 -84,81l93 17 60 -118c12,1 42,38 60,250 0,0 125,-180 165,-209 41,-29 165,23 165,23l177 70 -130 -191c0,0 101,-35 208,-47 0,0 -75,-37 -117,-55 39,-9 98,-34 148,-100 -10,26 -31,59 -77,92 0,0 68,-17 102,-65l2 56 204 -2 3 -183 25 176 12 -149 66 154 185 -2 5 -157 18 154 15 -118c61,86 148,135 250,136l2 0c51,0 104,-14 154,-41 -21,16 -48,34 -85,52 0,0 87,-13 182,-84l1 67 474 0 47 -3 -15 -263z"/>
  </g>
  <rect fill="none" width="3026" height="2501"/>
 </g>
</svg>
