

<!-- Creator: CorelDRAW X8 -->
<svg xmlns="http://www.w3.org/2000/svg" xml:space="preserve" x="0" y="0" width="25mm" height="25mm" version="1.1" shape-rendering="geometricPrecision" text-rendering="geometricPrecision" image-rendering="optimizeQuality" fill-rule="evenodd" clip-rule="evenodd"
viewBox="0 0 237 237"
 xmlns:xlink="http://www.w3.org/1999/xlink">
 <g id="Katman_x0020_1">
  <metadata id="CorelCorpID_0Corel-Layer"/>
  <g id="_2525693745040">
   <path fill="#231F20" fill-rule="nonzero" d="M201 22c0,0 0,1 0,1 0,0 0,-1 0,-1z"/>
   <path fill="#F59415" fill-rule="nonzero" d="M183 112c0,1 0,1 1,2 0,1 1,2 2,3 3,2 8,3 11,5 -6,2 -14,2 -16,10 -1,3 3,7 6,11 -4,-1 -10,-1 -14,0 -6,0 -9,4 -11,6 -2,4 1,12 4,18 -1,-1 -5,-2 -5,-2 -6,-3 -11,-4 -17,0 -6,4 -4,9 -4,14 -5,-5 -11,-13 -21,-11 -2,1 -5,2 -7,4 -1,1 -5,5 -4,6 -1,-4 -1,-12 -4,-15 -6,-6 -16,-5 -23,-2 -2,1 -4,2 -7,2 12,-11 16,-19 14,-23 0,0 0,-1 -1,-1 -2,-4 -7,-5 -12,-5 -3,0 -9,0 -13,1 -1,0 -2,1 -3,2 2,-2 4,-3 6,-4 7,-6 13,-12 12,-18 -1,-5 -7,-6 -10,-10 0,0 8,0 9,0 3,-1 5,-2 6,-5 2,-4 1,-11 -6,-20 11,8 24,17 33,16 4,0 8,-2 10,-6 7,-9 6,-18 5,-31 3,6 7,15 13,19 5,3 14,4 19,0 6,-4 11,-11 15,-17 1,0 1,0 1,-1 0,1 0,1 0,1 -2,14 -4,26 0,30 4,4 8,5 15,4 1,0 6,-2 9,-3 1,0 2,0 2,-1 0,1 -1,1 -1,2 -2,1 -4,2 -6,4 -5,4 -9,8 -8,15z"/>
   <path fill="#F9DC30" fill-rule="nonzero" d="M136 167c-5,-3 -10,-6 -17,-4 0,0 -1,0 -1,0 -2,1 -5,2 -7,4 -1,-3 -2,-6 -4,-7 -4,-5 -10,-7 -18,-6 5,-7 6,-12 4,-16 -1,-1 -1,-2 -2,-2 -3,-4 -8,-6 -15,-7 4,-4 7,-9 6,-15 0,-2 -1,-4 -3,-5 3,-1 6,-3 7,-6 2,-3 2,-6 2,-9 8,5 15,8 22,7 1,0 1,0 2,0 5,-1 9,-4 12,-8 3,-5 5,-10 5,-15 2,1 3,3 5,4 5,3 12,5 19,3 2,0 4,-1 6,-2 2,-2 4,-3 6,-5 -1,7 0,13 4,17 3,3 7,5 12,5 -2,3 -3,8 -3,13 0,0 1,1 1,2 0,2 2,4 5,6 -4,2 -7,5 -8,10 -1,2 0,4 1,6 -2,0 -3,0 -4,1 -1,0 -2,0 -3,0 -7,2 -10,6 -12,9 -2,3 -2,7 -1,11 -3,-1 -6,-1 -10,0 -2,0 -4,1 -6,2 -3,3 -5,5 -5,7z"/>
   <path fill="#FEFEFE" fill-rule="nonzero" d="M197 178c4,2 8,5 12,8 0,1 0,2 -1,1 -5,-2 -9,-4 -13,-7 -4,-3 -8,-5 -11,-9 -1,0 0,0 0,0 4,1 9,4 13,7z"/>
   <path fill="#FEFEFE" fill-rule="nonzero" d="M211 155c-38,-15 -56,-12 -32,26 0,0 -53,-45 -25,27 -20,-26 -26,-60 -56,-3 6,-35 10,-49 -46,-29 35,-32 38,-39 8,-35l-1 -4c4,-3 11,-3 16,-3 5,1 11,2 13,6 2,4 -2,12 -14,23 3,0 5,-1 7,-2 7,-3 17,-4 23,2 3,3 3,11 3,15 0,-1 4,-5 5,-6 2,-2 5,-3 7,-4 10,-2 16,6 21,11 0,-5 -2,-10 4,-14 5,-4 11,-3 17,0 0,0 4,1 5,2 -3,-6 -6,-14 -4,-18 2,-2 5,-6 11,-6 4,-1 10,-1 14,0 -3,-4 -7,-8 -6,-11 2,-8 10,-8 16,-10l2 4c-15,5 -10,15 12,29z"/>
   <path fill="#FEFEFE" fill-rule="nonzero" d="M128 190c3,2 3,7 4,10 1,5 2,9 2,14 0,1 -2,2 -2,1 -2,-5 -3,-10 -4,-14 0,-4 -2,-8 0,-11 0,0 0,0 0,0z"/>
   <path fill="#FEFEFE" fill-rule="nonzero" d="M116 31c18,44 35,68 66,1 -12,58 -13,68 38,47 -37,27 -39,39 4,43 -11,0 -20,2 -25,4l-2 -4c-4,-2 -12,-5 -13,-8 -3,-10 4,-16 14,-23 -2,1 -9,4 -11,4 -7,1 -11,0 -15,-4 -4,-4 -2,-17 0,-31 -4,7 -9,14 -16,19 -5,3 -14,2 -19,-1 -6,-4 -10,-13 -13,-19 2,13 2,22 -5,31 -2,4 -6,6 -10,6 -9,1 -22,-8 -33,-16l3 -3c21,15 48,23 37,-46z"/>
   <path fill="#FEFEFE" fill-rule="nonzero" d="M97 74c1,0 0,1 0,0 -11,-16 -22,-32 -32,-51l6 -3c11,18 19,36 26,54z"/>
   <path fill="#FEFEFE" fill-rule="nonzero" d="M79 77l-3 3c7,9 8,16 6,20 -1,3 -3,4 -6,5 -1,0 -9,0 -9,0 3,4 9,5 10,10 1,7 -8,15 -18,22l1 4c-8,2 -18,4 -31,6 40,-24 57,-34 5,-50 54,8 44,-2 20,-42 -1,-1 11,12 25,22z"/>
   <path fill="#FEFEFE" fill-rule="nonzero" d="M98 26l-5 2c1,6 3,11 5,16 4,9 7,18 11,26 0,0 0,0 0,0 -1,-9 -4,-18 -6,-27 -2,-6 -3,-12 -5,-17z"/>
   <path fill="#FEFEFE" fill-rule="nonzero" d="M129 7c1,15 6,31 9,45 0,1 1,1 1,0 -2,-14 -2,-31 -6,-46l-4 1z"/>
   <path fill="#FEFEFE" fill-rule="nonzero" d="M156 22c-4,13 -6,28 -7,41 0,1 1,1 1,0 4,-13 7,-27 8,-40l-2 -1z"/>
   <path fill="#FEFEFE" fill-rule="nonzero" d="M214 33c-5,5 -8,11 -12,17 -5,8 -10,16 -15,24 0,0 1,0 1,0 6,-8 12,-15 18,-22 4,-5 8,-10 11,-15l-3 -4z"/>
   <path fill="#FEFEFE" fill-rule="nonzero" d="M235 92c-4,1 -8,3 -11,5 -7,3 -13,7 -20,11 0,0 0,0 0,0 7,-2 14,-4 21,-6 4,-1 8,-3 12,-5l-2 -5z"/>
   <path fill="#FEFEFE" fill-rule="nonzero" d="M221 174c-10,-5 -23,-7 -35,-10 0,0 0,0 0,0 11,5 22,11 34,13l1 -3z"/>
   <path fill="#FEFEFE" fill-rule="nonzero" d="M188 217c-7,-12 -20,-22 -29,-31 0,0 0,0 0,0 7,11 14,26 25,34l4 -3z"/>
   <path fill="#FEFEFE" fill-rule="nonzero" d="M120 231c2,-13 0,-27 -1,-40 0,0 -1,0 -1,0 -1,13 -3,27 -1,40l3 0z"/>
   <path fill="#FEFEFE" fill-rule="nonzero" d="M83 182c-6,14 -14,28 -18,42l5 2c7,-13 10,-29 13,-44 1,0 0,0 0,0z"/>
   <path fill="#FEFEFE" fill-rule="nonzero" d="M70 184c-7,8 -15,15 -20,25l2 1c8,-7 13,-17 18,-26 0,0 0,0 0,0z"/>
   <path fill="#FEFEFE" fill-rule="nonzero" d="M56 154c-16,7 -30,17 -44,28l2 2c14,-9 29,-18 42,-30 0,0 0,0 0,0z"/>
   <path fill="#FEFEFE" fill-rule="nonzero" d="M33 153c-8,3 -16,7 -23,12l1 3c8,-4 16,-8 23,-14 0,0 0,-1 -1,-1z"/>
   <path fill="#FEFEFE" fill-rule="nonzero" d="M54 117c-18,0 -36,-1 -54,2l0 4c18,0 36,-3 54,-5 0,0 0,-1 0,-1z"/>
   <path fill="#FEFEFE" fill-rule="nonzero" d="M58 89c-12,-10 -23,-15 -35,-21l-2 3c13,6 24,13 36,19 1,1 2,0 1,-1z"/>
   <path fill="#0288AD" fill-rule="nonzero" d="M70 138c-5,-2 -8,-4 -9,-5 1,0 2,-1 4,-2l0 0c2,0 6,0 8,3l1 1c0,0 1,0 1,0l1 -1c2,-2 2,-6 2,-9 -1,-1 -1,-2 -1,-2l-1 -2c0,0 0,-1 0,-1l-1 0c-5,-1 -8,-2 -11,-1l0 0c-3,1 -4,2 -6,4 -3,3 -4,8 -3,13 2,7 6,10 13,13 2,0 7,2 8,4 0,1 0,3 -4,4l0 0c-2,0 -5,0 -7,-2 -3,-1 -4,-4 -4,-5l-2 -5c0,0 0,-1 -1,-1 0,0 0,1 0,1l-2 5c-1,2 -1,5 0,8 2,8 12,12 18,12l0 0c0,0 0,0 0,0 7,-2 10,-9 8,-19 -2,-8 -6,-10 -12,-13z"/>
   <path fill="#0288AD" fill-rule="nonzero" d="M111 160c-2,-12 -2,-41 1,-44l2 -1c0,-1 0,-1 0,-2l-2 -1c-1,-3 -5,-5 -7,-5l0 0c0,0 0,0 0,0l-1 1c-1,0 -4,1 -3,26 0,-2 -1,-4 -1,-7 -1,-4 -2,-8 -2,-10l0 -1c0,0 0,0 0,0l-1 0c-1,-4 -8,-4 -10,-4l-2 1c0,0 0,0 -1,0 0,1 0,1 0,1l2 4c-2,10 -3,36 -2,43 1,4 5,5 7,6l4 1c0,0 0,0 0,0 0,0 0,0 0,0 0,0 1,-1 1,-1 -1,0 -1,-1 -1,-1l-1 -3c0,0 0,0 -1,-2 -1,-5 -1,-14 -1,-22 2,7 4,14 8,22l0 0c1,3 5,4 9,4l0 0c0,0 1,0 1,-1l3 -1c0,0 0,0 0,-1 0,0 0,0 0,-1l-2 -1z"/>
   <path fill="#0288AD" fill-rule="nonzero" d="M130 121c0,2 0,3 1,5 -1,0 -2,0 -3,0 1,-2 2,-3 2,-5zm14 -18l-1 0c-1,-4 -9,-5 -12,-4l0 0 -2 1c0,0 0,0 0,1l0 1c-4,6 -9,17 -11,28 -3,2 -5,3 -5,6l0 3c0,1 0,1 0,1 0,0 0,0 1,0l2 0c-1,6 -2,13 -1,17 1,4 5,5 7,6l3 0c0,0 0,0 0,0 0,0 0,0 0,0 1,0 1,0 1,-1l-1 -3c0,-3 -1,-7 0,-11 0,-3 0,-6 1,-10 2,0 4,0 6,-1 0,5 1,10 2,15 0,1 1,2 1,3l0 1c2,3 8,4 10,4l1 0c0,0 0,-1 1,-1l1 -1c1,0 1,0 1,-1l-1 -1c0,-3 -1,-5 -1,-7 -1,-4 -2,-9 -3,-13 -1,-13 -2,-25 0,-31l0 -1c0,0 0,0 0,-1z"/>
   <path fill="#0288AD" fill-rule="nonzero" d="M172 116c1,-7 3,-14 4,-16l0 -1c0,0 1,0 1,0l1 0c5,-2 6,2 7,3 1,5 -5,11 -13,14zm22 -16c-2,-11 -12,-16 -24,-13 -9,3 -19,9 -23,15l0 1c-1,0 -1,0 -1,1l1 1c1,3 4,7 7,8l1 1c1,0 1,0 1,0l1 -2c1,-1 1,-2 2,-2 0,2 0,5 -1,9 -2,17 -3,25 -4,29l0 1c0,0 0,1 0,1l1 1c2,2 5,6 10,6l2 1c1,0 1,0 1,0 0,0 0,-1 0,-1 0,0 1,0 1,-1l-1 -2c0,-7 1,-15 2,-24 1,1 2,1 3,0 14,-3 24,-16 21,-30z"/>
   <path fill="#0288AD" fill-rule="nonzero" d="M224 78c-2,-4 -9,-8 -14,-7l-1 0c0,0 -1,0 -1,0l-1 1c-6,8 -12,47 -9,56 0,2 1,3 1,4 0,0 0,0 0,0 -5,2 -4,11 -4,14 1,3 6,6 10,6l0 0c0,0 0,0 0,0 4,-1 5,-5 6,-7 0,-2 0,-3 1,-3l1 -2c0,0 0,-1 -1,-1l-1 -2c0,0 0,0 -1,-1 0,0 0,0 0,0 0,0 1,0 1,-1l-1 -3c-1,-17 5,-37 14,-50l1 -1c0,-1 0,-1 0,-1l-1 -2z"/>
   <path fill="#F93E26" fill-rule="nonzero" d="M60 127l1 0c2,-1 6,0 8,3l1 1 1 -1c2,-2 2,-5 2,-8 -1,-1 -1,-1 -1,-2l-1 -2 0 0c-5,-2 -8,-2 -11,-1l0 0c-2,1 -4,2 -5,3 -3,3 -4,8 -3,13 1,6 5,9 12,11 3,2 8,3 8,5 1,1 1,5 -3,6l-1 0c-2,0 -5,-1 -7,-2 -3,-2 -5,-4 -5,-6l-2 -5 -1 5c-1,2 -1,5 0,7 1,8 11,12 17,11l0 0c6,-1 9,-8 7,-17 -2,-8 -5,-10 -11,-12 -3,-1 -9,-4 -9,-6 -1,-1 1,-2 3,-3z"/>
   <path fill="#231F20" fill-rule="nonzero" d="M54 145l0 2c-1,3 -1,5 -1,7 2,7 11,11 17,10l0 0c6,-1 8,-7 6,-16 -1,-7 -4,-9 -10,-11 -5,-2 -9,-4 -10,-6 0,0 0,-1 0,-1 0,-1 1,-3 4,-4l0 0c3,-1 7,0 10,3l0 1 1 -1c1,-1 1,-4 1,-7 0,-1 0,-1 -1,-2l0 -1 -1 0c-4,-2 -7,-2 -10,-1l0 0c-2,1 -3,2 -5,3 -2,3 -3,7 -2,12 1,5 5,8 11,10 5,2 8,4 9,6 0,0 0,0 0,0 1,3 0,6 -4,7l0 0c-3,0 -6,-1 -8,-2 -3,-2 -5,-5 -6,-6l-1 -3zm16 21c0,0 0,0 0,0l0 0c-6,1 -16,-3 -18,-11 -1,-3 0,-6 0,-9l2 -4c0,-1 0,-1 0,-1 1,0 1,0 1,1l2 5c0,1 2,3 4,5 2,1 5,2 7,2l0 0c4,-1 4,-3 4,-5 -1,-1 -6,-3 -8,-4 -7,-3 -11,-5 -13,-12 -1,-5 0,-10 3,-13 2,-2 3,-3 6,-4l0 0c3,-1 6,-1 11,1l1 0c0,0 0,0 0,1l1 2c0,0 0,1 0,1 1,4 1,8 -1,10l-1 1c0,0 -1,0 -1,0l-1 -2c-3,-2 -6,-3 -8,-2l0 0c-2,1 -3,2 -4,2 1,1 4,3 9,5 6,2 10,5 12,13 2,9 -1,17 -8,18z"/>
   <path fill="#F93E26" fill-rule="nonzero" d="M107 112l1 -1 -1 -2c-1,-2 -4,-4 -6,-4l-1 0 0 0c-3,2 -3,20 -2,33 -1,-5 -3,-9 -4,-14 -1,-4 -1,-9 -2,-10l0 -1 0 0c-1,-3 -7,-3 -9,-3l0 0 -2 1 1 4c-1,9 -3,35 -1,42 1,4 3,5 6,6l3 0 -1 -3c0,0 0,-1 -1,-2 -1,-6 -2,-19 -2,-29 3,9 6,18 10,28l0 0c2,3 5,4 8,3l0 0c1,0 1,0 1,0l3 -1 -2 -2c-2,-11 -3,-41 1,-45z"/>
   <path fill="#231F20" fill-rule="nonzero" d="M82 111l1 3c0,0 0,1 0,1 -2,9 -3,35 -1,42 0,3 2,4 5,5l2 0 -1 -2c0,0 0,0 -1,-2 -1,-7 -2,-20 -1,-29 0,0 0,-1 0,-1 1,0 1,1 1,1 3,10 6,19 10,28l0 0c1,2 4,3 7,2l0 0c0,0 1,0 1,0l1 -1 -1 0c0,-1 0,-1 0,-1 -2,-10 -3,-42 1,-46l1 -1 0 0c-2,-2 -4,-4 -6,-4l0 0 0 0c-1,1 -4,3 -2,32 0,0 0,1 -1,1 0,0 -1,0 -1,-1 -1,-4 -2,-8 -4,-14 -1,-4 -1,-8 -1,-10l0 0 -1 -1c0,-1 -6,-2 -8,-2l-1 0zm9 53c-1,0 -1,0 -1,0l-3 0c-2,-1 -6,-2 -7,-7 -1,-7 0,-33 2,-42l-2 -4c0,0 0,-1 0,-1 0,0 1,0 1,0l2 -1c1,0 8,0 10,3l0 1c0,0 0,0 0,0l0 1c0,1 1,5 2,10 1,2 1,4 2,6 -1,-24 2,-25 3,-26l0 0c0,0 0,0 0,0l1 0c2,0 5,2 7,4l1 2c0,0 0,1 0,1l-1 2c-4,3 -3,32 -1,43l1 2c0,0 1,0 1,1 0,0 -1,0 -1,1l-2 1c-1,0 -1,0 -1,0l-1 0c-4,1 -7,0 -8,-3l-1 0c-3,-8 -5,-15 -8,-23 0,9 1,18 2,23 1,1 1,1 1,2l1 3c0,0 0,0 0,0 0,1 0,1 0,1 0,0 0,0 0,0z"/>
   <path fill="#F93E26" fill-rule="nonzero" d="M126 113c0,4 1,7 1,10 -2,1 -3,1 -5,2 1,-5 3,-9 4,-12 0,0 0,0 0,0zm1 -16l0 0 -2 0 0 2c0,0 0,0 0,0 -4,6 -9,17 -11,29 -2,1 -5,3 -5,5l0 3 3 -1c0,0 0,0 0,0 0,6 -2,15 -1,18 1,4 4,5 7,5l2 1 0 -3c-1,-3 -1,-8 -1,-12 0,-3 0,-6 1,-10 3,-1 6,-1 8,-1 0,5 1,10 2,15 1,1 1,2 1,3l0 1c2,2 7,3 9,3l1 0c0,0 0,0 0,0l2 -1 -1 -2c0,-2 -1,-4 -1,-6 -1,-5 -2,-9 -3,-14 -1,-13 -1,-25 0,-31l0 -1 0 0c-2,-3 -9,-4 -11,-3z"/>
   <path fill="#231F20" fill-rule="nonzero" d="M126 117c-1,2 -2,4 -2,6 0,0 1,0 2,-1 0,-1 0,-3 0,-5zm-4 9c0,0 0,0 -1,-1 0,0 0,0 0,-1 1,-4 3,-9 5,-12 0,0 0,0 1,0 0,0 0,1 0,1l0 0c0,4 1,7 1,10 0,1 0,1 -1,1 -2,1 -3,1 -5,2 0,0 0,0 0,0zm-2 7c0,0 0,0 0,0 3,-1 5,-1 7,-1 1,0 1,0 1,0 0,0 1,0 1,1 0,5 1,10 2,15 0,1 1,2 1,3l0 0c1,2 6,3 8,3l0 0c1,0 1,0 1,0l1 -1 -1 -1c0,-2 -1,-4 -1,-6 -1,-5 -2,-9 -3,-13 -1,-14 -1,-26 0,-32l0 0 0 -1c-1,-2 -8,-3 -10,-2l-1 0 0 1c0,0 0,1 0,1 -4,6 -9,16 -11,28 0,0 0,1 -1,1 -1,1 -4,2 -4,4l0 2 1 -1c1,0 1,0 1,0 1,0 1,0 1,0 0,1 0,1 0,1 -1,9 -2,15 -1,18 1,3 3,3 6,4l1 0 0 -1c-1,-3 -1,-8 -1,-12 0,-3 1,-6 1,-10 0,-1 1,-1 1,-1zm0 27c0,0 0,0 0,0l-2 -1c-3,0 -7,-1 -8,-6 -1,-3 0,-10 1,-16l-2 0c0,0 0,0 -1,0 0,-1 0,-1 0,-1l0 -3c0,-3 3,-5 5,-6 3,-12 7,-22 11,-28l0 -2c0,0 0,-1 1,-1l1 0 0 0c3,-1 11,0 13,3l0 1c0,0 0,0 0,1l0 1c-1,6 -1,17 0,30 1,4 2,9 3,14 0,2 1,4 1,6l1 2c0,0 0,1 -1,1l-1 1c0,0 -1,0 -1,0l-1 0c-2,0 -8,-1 -9,-4l-1 0c0,-2 0,-3 -1,-4 -1,-5 -2,-9 -2,-14 -2,0 -4,1 -6,1 -1,3 -1,7 -1,9 0,4 0,9 1,12l0 3c0,0 0,0 0,1 0,0 0,0 -1,0z"/>
   <path fill="#F93E26" fill-rule="nonzero" d="M169 96l1 -1c0,-1 1,-1 2,-1l0 0c3,-1 7,-1 8,4 2,6 -5,13 -14,16 1,-8 2,-16 3,-18zm18 1c-2,-11 -11,-15 -22,-12 -9,3 -18,9 -22,14l-1 1 1 1c1,3 4,7 6,8l1 0 1 -1c1,-2 3,-3 4,-5 0,4 0,7 -1,13 -2,16 -3,25 -4,28l0 1 1 1c2,3 5,6 9,6l2 1 0 -3c0,-7 0,-15 2,-25 1,1 2,1 4,0 13,-2 22,-16 19,-28z"/>
   <path fill="#231F20" fill-rule="nonzero" d="M170 96l0 0c-1,2 -2,9 -3,16 8,-3 13,-9 12,-13 0,-2 -1,-5 -7,-4l0 0c-1,0 -1,0 -2,1zm-4 19c-1,0 -1,0 -1,0 0,0 -1,-1 -1,-1 2,-8 3,-16 4,-19l1 -1c0,0 0,0 0,0 1,-1 2,-1 2,-1l1 0c0,0 0,0 0,0 5,-2 8,0 9,5 2,7 -5,14 -15,17 0,0 0,0 0,0zm-15 30l1 1c2,2 4,5 8,5l1 0 0 -1c0,-7 0,-15 2,-25 0,0 0,0 0,-1 0,0 1,0 1,0 1,1 2,1 3,0 13,-2 22,-15 19,-27 -2,-10 -10,-14 -21,-11 -8,3 -17,9 -21,14l0 0 0 1c1,2 3,6 5,7l1 0 1 -1c0,-1 2,-3 4,-5 0,0 0,0 1,0 0,0 0,1 0,1 0,4 0,7 -1,13 -2,16 -3,25 -4,29l0 0zm12 9c0,0 -1,0 -1,0l-2 0c-5,-1 -8,-4 -10,-7l-1 -1c0,0 0,-1 0,-1l0 -1c1,-4 2,-12 4,-28 1,-4 1,-7 1,-10 -1,1 -1,2 -2,3l-1 1c0,1 -1,1 -1,0l-2 0c-2,-1 -5,-6 -6,-8l-1 -2c0,0 0,0 1,-1l0 -1c4,-5 14,-11 22,-14 12,-4 22,1 24,13 3,13 -6,27 -20,30 -1,0 -2,0 -3,0 -2,9 -2,16 -2,23l0 3c0,0 0,0 0,1 0,0 0,0 0,0z"/>
   <path fill="#F93E26" fill-rule="nonzero" d="M198 144l0 0 0 0 0 0zm19 -69c-1,-4 -9,-7 -13,-7l-1 0 0 1c-6,8 -12,46 -10,55 1,3 2,5 4,6 -1,0 -2,0 -3,0 -4,1 -3,9 -3,12 1,2 5,5 8,5l0 -1c3,0 4,-3 5,-6 0,-1 1,-2 1,-3l1 -1 -1 -2c-1,-1 -3,-2 -5,-3 1,0 1,0 1,0l3 0 0 -2c-1,-18 4,-39 13,-51l1 -2 -1 -1z"/>
   <path fill="#231F20" fill-rule="nonzero" d="M194 131c-3,1 -2,8 -2,10 0,2 4,5 7,4l0 1 0 -1c-1,0 -1,0 -2,-1 0,0 1,-1 1,-1 1,0 1,0 2,1l0 0c0,1 -1,1 -1,1 2,0 3,-3 4,-5 0,-1 0,-3 1,-4l0 0 0 -1c-1,-1 -3,-2 -4,-3 -1,0 -1,-1 -1,-1 0,-1 1,-1 2,-1l1 0 0 -1c-1,-18 5,-39 14,-52l0 -1 0 0c-1,-4 -8,-7 -12,-6l0 0 -1 0c-5,7 -11,45 -9,54 1,2 2,4 3,5 1,0 1,1 1,1 0,1 -1,1 -1,1 -1,0 -2,0 -3,0zm5 17c0,0 0,0 0,0l0 0c-4,0 -8,-3 -9,-6 -1,-3 -2,-12 4,-13 0,0 0,0 0,0 -1,-2 -2,-3 -2,-5 -2,-9 4,-48 10,-56l0 0c0,-1 1,-1 1,-1l1 0c5,0 12,3 14,8l1 1c0,0 0,1 0,1l-1 1c-9,13 -14,33 -13,51l0 2c0,1 0,1 0,1 -1,0 -1,0 -1,0 1,1 1,1 2,2l1 1c0,0 0,1 0,1l-1 2c0,0 -1,2 -1,3 -1,2 -2,6 -6,7z"/>
   <path fill="#0288AD" fill-rule="nonzero" d="M230 153c-3,4 -6,9 -9,13 3,4 6,8 9,13 -4,-2 -9,-4 -14,-6 -3,4 -6,7 -9,9 0,-3 0,-7 0,-11 -5,-1 -9,-2 -11,-3 2,-3 6,-5 10,-6 -1,-5 -1,-11 -2,-15 3,4 7,8 10,12 6,-2 11,-4 16,-6z"/>
   <path fill="#FEFEFE" fill-rule="nonzero" d="M205 150c1,3 1,7 2,12 0,0 0,0 -1,1 -4,1 -6,3 -9,4 3,1 6,2 9,3l1 0c0,0 0,0 0,1 1,2 1,5 1,7 0,1 0,2 0,2 2,-1 4,-4 7,-7 0,0 1,-1 1,0 5,1 9,2 12,4 -3,-4 -5,-7 -8,-10 0,-1 0,-1 0,-1 1,-1 1,-2 2,-3 2,-3 3,-5 5,-8 -4,2 -7,3 -11,4l-1 1c-1,0 -1,0 -1,-1 -3,-3 -6,-6 -9,-9zm-10 18c0,0 0,0 0,0 0,0 0,-1 0,-1 2,-2 5,-4 10,-6 -1,-6 -1,-10 -2,-14 0,0 0,0 0,-1 1,0 1,0 1,1 4,3 7,7 11,11l0 -1c5,-1 10,-3 14,-5 1,0 1,0 1,1 1,0 1,0 0,1 -2,3 -4,6 -7,10 0,1 -1,1 -1,2 3,4 6,8 9,12 0,1 0,1 0,1 0,1 -1,1 -1,1 -3,-2 -8,-4 -14,-6 -3,4 -6,7 -8,9 -1,0 -1,0 -1,0 -1,0 -1,0 -1,-1 0,-1 0,-2 0,-4 0,-2 0,-4 0,-6 -5,-2 -8,-3 -11,-4 0,0 0,0 0,0z"/>
   <path fill="#F9DC30" fill-rule="nonzero" d="M94 186c5,1 10,2 16,3 2,-5 4,-10 7,-14 0,4 1,10 1,15 4,1 8,3 12,5 -3,1 -6,3 -10,5 0,4 1,9 1,11 -3,-1 -6,-4 -9,-7 -5,3 -9,5 -13,8 2,-5 4,-10 6,-15 -3,-4 -7,-8 -11,-11z"/>
   <path fill="#231F20" fill-rule="nonzero" d="M101 209c3,-1 6,-3 10,-6 0,0 1,0 1,0 3,3 6,5 8,7 0,-3 -1,-6 -1,-9l0 -1c0,0 0,-1 0,-1 2,-1 5,-2 6,-3 1,-1 2,-1 3,-1 -3,-2 -6,-3 -10,-4 0,0 -1,0 -1,0 0,-5 -1,-9 -1,-13 -2,4 -4,7 -6,11 0,0 0,1 -1,1 -1,-1 -2,-1 -3,-1 -3,0 -6,-1 -9,-2 3,3 6,6 8,9l1 1c0,0 0,1 0,1 -2,4 -3,8 -5,11zm21 3c0,0 0,0 0,0 -1,0 -1,0 -1,0 -3,-1 -6,-3 -10,-7 -5,3 -8,5 -11,8 -1,0 -1,0 -1,0 -1,-1 -1,-1 -1,-1 2,-5 4,-10 6,-14l0 -1c-4,-4 -7,-7 -10,-10 -1,-1 -1,-1 -1,-2 1,0 1,0 1,0 4,1 8,2 12,2 1,0 2,1 3,1 2,-5 5,-9 7,-14 1,0 1,0 1,0 1,0 1,0 1,1 0,4 0,8 1,15 5,1 8,2 11,4 1,0 1,0 1,1 0,0 0,0 -1,1 -1,0 -2,1 -4,2 -1,0 -3,1 -5,2 0,5 1,9 1,11 0,0 0,1 0,1z"/>
   <path fill="#0288AD" fill-rule="nonzero" d="M38 60c5,4 11,7 17,10 5,-5 10,-9 15,-14 -2,6 -4,13 -5,19 5,3 9,7 12,10 -3,1 -8,1 -14,2 -1,6 -2,11 -3,15 -3,-3 -6,-8 -9,-13 -6,2 -13,3 -18,5 5,-5 9,-10 14,-15 -3,-7 -6,-13 -9,-19z"/>
   <path fill="#FEFEFE" fill-rule="nonzero" d="M37 92c4,-2 9,-3 14,-4 1,0 1,0 1,1 3,5 5,8 8,11 0,-4 1,-8 2,-12l0 -1c0,0 0,-1 1,-1 3,0 6,-1 9,-1 1,0 2,0 3,-1 -3,-2 -6,-5 -11,-8 0,0 0,0 0,-1 1,-6 2,-11 3,-15 -3,3 -7,7 -11,11 0,0 -1,0 -1,0 -2,-1 -3,-2 -4,-2 -4,-2 -7,-4 -10,-6 2,5 4,9 6,14l1 1c0,1 0,1 -1,2 -3,3 -7,8 -10,12zm24 11c0,0 0,0 0,0 -1,0 -1,0 -2,0 -3,-3 -5,-7 -8,-12 -7,1 -13,2 -17,4 -1,0 -1,0 -2,0 0,-1 0,-1 0,-2 4,-5 9,-10 13,-14l0 -1c-3,-6 -5,-12 -8,-17 -1,-1 -1,-1 0,-2 0,0 1,0 1,0 5,3 9,5 14,8 1,0 2,1 3,1 5,-4 9,-9 14,-13 1,0 1,0 2,0 0,0 0,1 0,1 -2,5 -3,11 -5,19 5,3 9,6 12,9 1,1 1,1 0,2 0,0 0,0 0,0 -2,1 -4,1 -6,1 -2,1 -5,1 -8,1 -1,6 -2,11 -3,14 0,0 0,1 0,1z"/>
   <path fill="#F9DC30" fill-rule="nonzero" d="M150 16c2,4 5,8 8,12 4,-2 9,-3 13,-4 -3,3 -6,6 -9,10 2,4 3,7 4,10 -2,0 -6,-2 -9,-3 -3,3 -5,6 -7,8 -1,-3 -1,-7 -1,-11 -5,-1 -9,-2 -13,-3 4,-2 9,-3 13,-5 1,-5 1,-10 1,-14z"/>
   <path fill="#FEFEFE" fill-rule="nonzero" d="M139 35c3,0 6,1 10,3 0,0 1,0 1,0 0,4 0,7 0,9 2,-1 4,-4 6,-6l0 -1c0,0 0,0 1,0 2,1 4,2 6,2 1,1 1,1 2,1 -1,-2 -2,-5 -4,-8 0,-1 0,-1 0,-1 3,-4 5,-6 8,-9 -4,1 -8,2 -11,3 0,0 -1,0 -1,0 -1,-1 -1,-2 -2,-3 -1,-2 -3,-4 -4,-6 0,3 -1,7 -1,10l0 1c0,1 0,1 0,1 -4,1 -8,2 -11,4zm11 15c0,0 0,0 0,0 0,0 -1,-1 -1,-1 -1,-2 -1,-6 -1,-10 -5,-2 -9,-3 -12,-3 0,0 -1,-1 -1,-1 0,0 0,-1 1,-1 4,-1 8,-3 13,-4l0 -1c0,-4 0,-9 0,-13 0,-1 0,-1 1,-1 0,0 0,0 1,0 1,3 4,6 6,9 0,1 1,2 1,3 4,-2 9,-3 13,-4 0,0 1,0 1,1 0,0 0,0 0,1 -3,2 -6,5 -9,9 2,4 3,7 4,10 0,0 0,1 0,1 0,0 -1,0 -1,0 -1,0 -2,-1 -4,-1 -1,-1 -3,-1 -5,-2 -3,3 -5,6 -6,7 0,1 -1,1 -1,1z"/>
  </g>
  <rect fill="none" width="237" height="237"/>
 </g>
</svg>
