

<!-- Creator: CorelDRAW X8 -->
<svg xmlns="http://www.w3.org/2000/svg" xml:space="preserve" x="0" y="0" width="34.18mm" height="25mm" version="1.1" shape-rendering="geometricPrecision" text-rendering="geometricPrecision" image-rendering="optimizeQuality" fill-rule="evenodd" clip-rule="evenodd"
viewBox="0 0 1144 836"
 xmlns:xlink="http://www.w3.org/1999/xlink">
 <defs>
    <linearGradient id="id0" gradientUnits="userSpaceOnUse" x1="346.906" y1="492.444" x2="968.359" y2="429.416">
     <stop offset="0" stop-opacity="1" stop-color="#399D66"/>
     <stop offset="1" stop-opacity="1" stop-color="#60B238"/>
    </linearGradient>
    <linearGradient id="id1" gradientUnits="userSpaceOnUse" x1="347.943" y1="492.444" x2="969.239" y2="429.416">
     <stop offset="0" stop-opacity="1" stop-color="#2D6546"/>
     <stop offset="1" stop-opacity="1" stop-color="#317D3B"/>
    </linearGradient>
    <linearGradient id="id2" gradientUnits="userSpaceOnUse" x1="347.11" y1="492.4" x2="969.239" y2="429.356">
     <stop offset="0" stop-opacity="1" stop-color="#2D6546"/>
     <stop offset="1" stop-opacity="1" stop-color="#317D3B"/>
    </linearGradient>
    <linearGradient id="id3" gradientUnits="userSpaceOnUse" x1="347.103" y1="492.742" x2="969.242" y2="429.838">
     <stop offset="0" stop-opacity="1" stop-color="#2D6546"/>
     <stop offset="1" stop-opacity="1" stop-color="#317D3B"/>
    </linearGradient>
    <linearGradient id="id4" gradientUnits="userSpaceOnUse" x1="347.066" y1="492.444" x2="969.239" y2="429.416">
     <stop offset="0" stop-opacity="1" stop-color="#2D6546"/>
     <stop offset="1" stop-opacity="1" stop-color="#317D3B"/>
    </linearGradient>
    <linearGradient id="id5" gradientUnits="userSpaceOnUse" x1="347.083" y1="492.444" x2="969.239" y2="429.416">
     <stop offset="0" stop-opacity="1" stop-color="#2D6546"/>
     <stop offset="1" stop-opacity="1" stop-color="#317D3B"/>
    </linearGradient>
    <linearGradient id="id6" gradientUnits="userSpaceOnUse" x1="347.077" y1="492.44" x2="969.252" y2="429.416">
     <stop offset="0" stop-opacity="1" stop-color="#2D4334"/>
     <stop offset="1" stop-opacity="1" stop-color="#3A522D"/>
    </linearGradient>
 </defs>
 <g id="Katman_x0020_1">
  <metadata id="CorelCorpID_0Corel-Layer"/>
  <g id="_2525714053584">
   <path fill="#2B2A29" d="M1082 298c-3,6 -6,12 -10,18l0 1 -14 8c0,0 1,0 1,-1l11 -4 -1 2 0 0 4 3c1,0 1,1 2,2 1,0 2,1 2,1 2,2 3,3 4,4 3,3 5,6 7,9 2,3 4,6 6,10 1,1 1,3 2,5 1,1 1,3 2,5l0 0 1 5 -2 2c0,1 -1,2 -2,2l0 0 -1 2c-1,0 -1,1 -1,1 9,15 17,34 20,52 6,1 13,2 19,4l5 1 2 4c3,7 4,17 5,24 0,20 -6,40 -15,57l-3 6 -15 -1c-2,6 -5,12 -7,18 5,5 9,10 12,16l1 3 0 3c-1,7 -5,17 -8,23 -9,18 -23,34 -38,46l-5 4 -5 -2c-2,-1 -5,-2 -7,-4 -16,13 -37,21 -56,25 -5,30 -9,71 -1,100 5,21 13,67 -9,81 -4,3 -8,4 -13,3 -29,0 -24,-34 -20,-54 5,-24 4,-56 2,-81 -1,-15 -6,-30 -12,-43 -32,-1 -64,-10 -92,-25 -1,1 -1,3 -1,4 -2,11 -1,24 1,34 3,12 7,23 3,36 -5,14 -19,18 -28,3 -6,-10 -3,-26 -1,-38 2,-16 8,-36 2,-52 0,-1 -1,-2 -1,-2 -6,-3 -11,-6 -17,-9 -6,-5 -16,-9 -24,-12l-5 7 -1 0c-20,4 -43,-6 -58,-19l-1 -2 0 -2c1,-2 1,-3 1,-5 -6,0 -13,0 -19,1l1 5 -1 2c-13,15 -32,21 -51,22 -9,1 -21,0 -29,-2l-3 -1 0 -3c-3,1 -6,1 -9,2 -7,0 -13,1 -20,1l1 6 -2 1c-16,13 -36,22 -57,25 -8,2 -19,2 -27,1l-2 0 -1 -2c-2,-3 -4,-9 -5,-14 -4,1 -8,3 -13,4 -5,1 -10,3 -15,4l-7 1c-2,1 -3,1 -5,1 0,8 1,16 0,23l0 2 -2 1c-10,9 -24,12 -37,12 -14,1 -36,-1 -48,-8l-2 -1 0 -2c0,-8 0,-16 1,-24 -2,0 -4,-1 -6,-1 -5,-1 -11,-2 -16,-3 -5,-1 -10,-2 -15,-3 -5,-1 -9,-3 -14,-4 -1,-1 -2,-1 -3,-1 -6,9 -13,18 -21,26l-2 1 -1 0c-11,-1 -24,-5 -34,-9 -21,-10 -38,-26 -46,-48l0 -2 0 -1c2,-7 7,-14 12,-19 -8,-11 -14,-23 -19,-36 -5,0 -11,0 -15,-3 -23,-17 -24,-53 -23,-78 1,-13 3,-31 12,-41 3,-3 8,-6 13,-6 1,0 2,1 4,1 1,-8 3,-16 5,-23 3,-11 7,-22 10,-33 1,-7 0,-15 -2,-22 -32,10 -28,-27 -29,-47 0,-4 0,-7 -1,-11 -4,-3 -11,-5 -15,-3 -4,3 -6,4 -10,5 -8,3 -18,3 -26,3 -9,0 -19,-3 -24,-11 -4,-6 -4,-13 -1,-18 4,-6 15,-5 21,-6 11,0 21,0 31,-3 5,-1 9,-4 9,-9 -5,-7 -17,-16 -24,-21 -16,-11 -33,-21 -50,-31 -11,-6 -21,-12 -32,-17 -8,-3 -16,-6 -23,-9 -9,-4 -20,-3 -28,-10 -10,-8 -11,-20 -1,-29 15,-13 29,-3 40,9 4,4 12,9 17,13 11,7 23,14 36,21 14,8 51,26 67,26 3,0 8,2 11,3 4,1 9,3 14,4 3,0 7,1 10,1 1,-2 0,-3 0,-4l0 -1 0 -1c0,-9 5,-20 13,-26 1,-2 1,-4 0,-6 -2,-1 -5,-4 -6,-5 -3,-3 -6,-7 -9,-10 -4,-7 -4,-15 -1,-22 6,-12 18,-14 27,-5l0 1 1 0c2,4 7,13 13,12 3,-1 5,-7 5,-10 0,-4 -1,-8 -2,-12 -2,-4 -4,-9 -5,-13 -4,-10 -12,-33 -18,-41 -8,-10 -20,-37 -2,-44l0 0 0 0c10,-3 19,5 22,14 1,4 2,8 3,12 3,14 7,25 13,38 5,12 13,32 24,39 4,2 9,3 14,4 7,1 16,0 24,-2 3,-1 8,-3 9,-7 5,-21 23,-23 41,-16 9,3 18,8 26,12 9,5 23,13 33,15 4,1 10,-4 13,-7 5,-6 5,-12 15,-12 14,-1 29,16 22,30 -2,3 -5,6 -8,7 0,2 0,3 0,4 8,1 17,1 25,2l0 0 1 1c7,3 14,9 19,14 30,-7 67,-5 97,-2l2 0 1 2c3,4 0,8 -4,11 13,2 25,6 36,12l-1 0 0 -1c-1,-2 -1,-4 1,-6 0,0 0,0 1,-1l-1 0 1 -2c2,-8 14,-4 18,-2 7,3 15,6 22,9 7,2 15,7 21,12 27,-15 61,-18 91,-14l2 0 1 1c2,3 2,5 0,7 8,2 16,4 24,7 8,-8 17,-15 26,-22 -3,-5 -4,-10 -3,-16 1,-10 10,-21 18,-27 12,-9 24,-4 26,11 1,2 1,5 0,7 9,-3 17,-6 26,-8l0 0 1 0c2,0 4,1 6,3 1,1 2,3 2,5 13,-3 26,-3 40,-2 0,0 0,0 1,0 -1,-1 -2,-1 -2,-1 -5,-1 -11,-2 -13,-7 -1,-2 0,-5 2,-7l1 0 1 -1c18,-2 36,-1 53,4 -7,-4 -14,-7 -19,-9l-1 -1 0 0c-2,-2 -3,-5 -1,-7 2,-3 8,-3 11,-3 10,0 22,2 31,4 6,1 20,8 26,11 5,2 10,6 15,11 -1,-2 -3,-4 -4,-6 -2,-2 -5,-7 -4,-10 1,0 1,-1 1,-1 6,-6 16,6 19,9 14,17 25,38 30,60 1,-6 1,-12 1,-17l0 -1 0 0c1,-2 2,-4 3,-5 5,-2 9,1 11,5l1 0 0 1c7,29 7,68 3,97 -3,19 -8,41 -16,59l-4 9 -3 -9c-2,-6 -6,-11 -11,-14l-2 -2 1 -2c0,-2 1,-5 1,-7 -1,2 -2,4 -3,5l-1 3 -3 -1c-4,-1 -8,-2 -11,-2z"/>
   <path fill="#FEFEFE" fill-rule="nonzero" d="M430 148l47 56c0,0 64,-52 113,-39 48,12 90,40 90,40l16 18c0,0 54,-54 110,-32 55,21 77,55 77,55 0,0 25,-104 96,-91 71,12 86,91 86,91 0,0 -1,14 -10,44 -10,30 -72,40 -72,40l-88 27 -62 57c0,0 -78,-29 -131,-22 -54,7 -101,24 -101,24l-76 8c0,0 -36,71 -149,73l-34 15 -33 -21 8 -40 -25 -100c0,0 -18,-71 -28,-80 -11,-9 -22,-19 -22,-19l10 -69c0,0 69,-90 178,-35z"/>
   <path fill="url(#id0)" d="M418 659c-3,0 -5,0 -8,0 19,-1 38,-11 38,-11l-1 -24 28 -8 14 -3 -39 13 -2 26c-8,6 -19,7 -30,7zm-28 -3c-5,-1 -9,-2 -9,-2l0 -30c-1,1 -2,1 -3,1 -11,0 -27,-4 -40,-7 23,5 46,6 46,6l-1 28c2,2 5,3 7,4zm562 -7l0 -1c0,0 0,0 0,1 0,0 0,0 0,0zm-44 -6l-7 -1 -2 -1c2,0 3,0 4,1 2,0 3,0 5,1zm-617 -6c-45,-4 -69,-46 -69,-46l13 -23c1,1 1,2 1,2l-11 20c21,43 63,44 66,44 0,0 0,0 0,0l21 -23 -21 26zm40 -21c-10,-3 -17,-5 -18,-6l1 -1c5,3 11,5 17,7zm252 -17l-1 -4 12 -2c-5,2 -11,5 -11,5 0,0 0,1 0,1zm215 -8l-48 -18 -25 -13 44 18 29 13zm-136 -11c8,-2 16,-4 20,-6l-5 3 -15 3zm299 -2c-1,0 -1,-1 -1,-1 -3,-15 8,-27 8,-27 -24,14 -43,19 -60,19 -18,0 -35,-5 -53,-10 -36,-8 -76,-14 -76,-14l25 -4c-13,-9 -35,-11 -53,-11 -17,0 -31,2 -31,2 33,-11 95,-16 95,-16 -33,-12 -64,-16 -92,-16 -47,0 -83,12 -96,18 -5,2 -12,5 -19,7 -5,-9 -9,-33 -8,-49 0,0 -17,31 -12,56 -1,0 -2,0 -3,1 -5,-8 -9,-23 -10,-58 0,0 -16,32 -8,64 -7,2 -9,2 -9,2l0 0c-16,-16 -10,-62 -10,-62 -27,28 -15,62 -15,62 -18,-14 -12,-51 0,-70 13,-19 50,-27 50,-27l1 -1c-4,5 -6,10 -8,16 0,0 51,-56 148,-56 6,0 12,0 19,1 3,0 5,0 8,1l1 0c62,12 90,66 90,66l45 14 18 -12 -35 -32c-31,-24 -75,-36 -105,-41 -6,-1 -14,-4 -23,-6l25 5 20 5 81 23 16 -5 10 -55c0,0 3,-5 8,-12 10,-15 27,-41 39,-52 10,-9 16,-11 20,-11 3,0 4,1 4,1 0,0 -7,21 -9,28 -2,6 1,13 1,13l7 1 -8 0 0 11c0,0 5,23 49,24 0,0 0,20 22,20 0,0 13,22 12,40 0,0 -25,26 -11,57l1 4c-1,0 -2,-1 -2,-1 -11,32 -29,49 -29,49 4,-1 7,-1 10,-1 1,0 2,0 3,0l-1 1c0,0 -33,6 -47,38 0,0 -1,0 -2,1zm-275 -6c1,0 2,0 3,-1l-3 1zm-179 -31c-15,-8 -20,-27 -20,-27 3,-23 16,-31 16,-31 -7,38 4,58 4,58zm-299 -16c-8,0 -14,-5 -18,-14 4,8 9,11 9,11l11 1c0,1 0,1 1,2 -1,0 -2,0 -3,0zm137 -8l-35 -27 1 -2 34 23 31 -14c0,0 1,1 4,1 4,0 12,-1 23,-3 9,-1 20,-4 35,-7 2,-1 4,-1 6,-2 11,-3 21,-7 29,-11 -8,5 -17,11 -22,14 -12,7 -54,9 -68,10 -14,1 -38,18 -38,18zm165 -77c4,-5 5,-9 5,-9l4 -1 -9 10zm92 -20l7 -8 2 -1c-3,3 -6,6 -9,9zm-295 -3l-1 -3 -17 -69 4 18 14 54zm-100 -1c0,0 -1,0 -3,0 2,-17 6,-31 10,-44 -5,21 -7,44 -7,44z"/>
   <path fill="#EAE051" fill-rule="nonzero" d="M1129 438l-25 -5c0,0 -3,-14 -6,-24 -4,-10 -15,-34 -15,-34l5 -12 -2 -10 -18 -17 -18 7 -32 -8 -62 0 0 11c0,0 5,23 49,24 0,0 0,20 22,20 0,0 13,22 12,40 0,0 -25,26 -11,57l2 15 -20 37c0,0 -33,6 -47,38 0,0 -40,20 -109,4 0,0 -69,-6 -79,-5 -10,1 47,26 47,26 0,0 58,35 81,40 12,2 49,6 49,6 24,58 10,105 10,124 0,19 -8,55 13,54 20,-1 19,-30 19,-30 0,0 -1,-33 -6,-58 -5,-24 -5,-54 -5,-54l4 -42c0,0 16,4 33,-5 18,-9 32,-21 32,-21l13 5c0,0 10,-9 24,-24 15,-15 19,-39 19,-39l-16 -17 12 -32 17 3c0,0 9,-18 12,-37 3,-19 -4,-37 -4,-37z"/>
   <path fill="#E42424" fill-rule="nonzero" d="M614 257c-16,0 -30,-14 -30,-30 0,-4 1,-9 3,-13 -24,4 -41,24 -41,49 0,27 22,48 49,48 27,0 49,-21 49,-48 0,-8 -1,-14 -4,-20 -6,8 -15,14 -26,14z"/>
   <path fill="#A19F9F" fill-rule="nonzero" d="M406 659c-5,0 -11,-1 -16,-3 6,1 13,3 20,3 -1,0 -2,0 -4,0zm480 -23c-1,-1 -2,-1 -3,-1 -28,-11 -75,-39 -75,-39l-10 -5 6 3c10,4 18,8 18,8 0,0 37,22 64,34zm-374 -8l-8 -19 -15 4 18 -6 6 19c0,0 60,-6 70,-27l0 5c0,0 -30,24 -71,24zm-174 -10c-2,-1 -5,-1 -7,-2 2,1 4,1 7,2zm-26 -7l1 -1c0,0 0,0 0,0l-1 1zm282 -18c2,-1 4,-2 5,-2 3,-1 41,-6 41,-6l22 -5c-14,4 -28,7 -28,7l-40 6zm88 -19l4 -2c0,0 0,1 0,1 -1,0 -2,1 -4,1zm7 -3l30 -14 6 3 0 0c0,0 -26,7 -36,11zm-454 -3c-4,-4 -19,-23 -24,-43 0,0 0,0 0,0l11 19 14 23 -1 1zm-45 -57c-6,-8 -11,-21 -13,-41 -1,-36 5,-57 13,-57 0,0 0,0 1,0 5,1 10,2 13,3 0,0 0,0 0,0 0,0 -3,-1 -8,-1 -6,0 -14,3 -15,16 -3,17 -2,58 9,80zm120 -24l-3 -2 7 -20 -4 22zm163 -12c10,-8 19,-14 19,-14l0 -1c2,-1 3,-2 5,-3 -7,6 -14,12 -24,18zm-157 -19l-9 -39 10 33 0 1 -1 5zm206 -27c2,-3 3,-5 3,-5l58 -6 2 0 -5 1 -47 6 -11 4zm-308 -57c2,-9 4,-17 7,-24 10,-23 26,-55 26,-55l22 -15c0,2 1,3 2,5 -8,7 -39,32 -57,89zm75 -27l-9 -37c0,2 0,3 1,4l8 33z"/>
   <path fill="#A19F9F" fill-rule="nonzero" d="M311 488l-1 -1 4 -22 3 -6 -1 -3 1 -5 4 15 -10 22zm181 -28l18 -20c-3,5 -7,11 -13,17 -2,1 -3,2 -5,3zm27 -30l6 -7 50 -5 4 -1 4 1 -58 6c0,0 -1,2 -3,5l-3 1zm-238 -118c-1,-1 -1,-2 -1,-4l-7 -26c0,0 -1,0 -2,1 -1,-2 -2,-3 -2,-5l3 -2 9 36z"/>
   <path fill="url(#id1)" d="M410 659c-7,0 -14,-2 -20,-3 -2,-1 -5,-2 -7,-4l1 -28c0,0 -23,-1 -46,-6 -3,-1 -5,-1 -7,-2 -6,-2 -12,-4 -17,-7l-1 1c0,0 0,0 0,0l-1 1 -21 23c0,0 0,0 0,0 -3,0 -45,-1 -66,-44l11 -20c0,0 0,-1 -1,-2l1 -1 -14 -23 -11 -19c0,0 0,0 0,0 -1,-1 -1,-1 -1,-2l-11 -1c0,0 -5,-3 -9,-11 -11,-22 -12,-63 -9,-80 1,-13 9,-16 15,-16 5,0 8,1 8,1 0,0 0,0 0,0 2,0 3,0 3,0 0,0 2,-23 7,-44 18,-57 49,-82 57,-89 1,-1 2,-1 2,-1l7 26 9 37 17 69 1 3 9 39 1 3 -3 6 -7 20 3 2 1 1 -1 2 35 27c0,0 24,-17 38,-18 14,-1 56,-3 68,-10 5,-3 14,-9 22,-14 10,-6 17,-12 24,-18 6,-6 10,-12 13,-17l9 -10 3 -1 11 -4 47 -6 5 -1 3 0 21 -6 -7 8c-6,7 -13,14 -18,23l-1 1c0,0 -37,8 -50,27 -12,19 -18,56 0,70 0,0 -12,-34 15,-62 0,0 -6,46 10,62l0 0c0,0 2,0 9,-2 -8,-32 8,-64 8,-64 1,35 5,50 10,58 1,-1 2,-1 3,-1 -5,-25 12,-56 12,-56 -1,16 3,40 8,49 7,-2 14,-5 19,-7 13,-6 49,-18 96,-18 28,0 59,4 92,16 0,0 -62,5 -95,16 0,0 14,-2 31,-2 18,0 40,2 53,11l-25 4c0,0 40,6 76,14 18,5 35,10 53,10 17,0 36,-5 60,-19 0,0 -11,12 -8,27 0,0 0,1 1,1 -7,3 -26,9 -55,9 -15,0 -33,-2 -52,-6 0,0 -58,-5 -75,-5 -2,0 -3,0 -4,0 -6,0 13,10 29,18l-6 -3 -29 -13 -44 -18 -6 -3 -30 14c-1,1 -2,1 -3,1l-4 2c-4,2 -12,4 -20,6l-22 5c0,0 -38,5 -41,6 -1,0 -3,1 -5,2l-12 2 1 4c-10,21 -70,27 -70,27l-6 -19 -18 6 -14 3 -28 8 1 24c0,0 -19,10 -38,11zm93 -176c0,0 -13,8 -16,31 0,0 5,19 20,27 0,0 -11,-20 -4,-58z"/>
   <path fill="#A19F9F" fill-rule="nonzero" d="M952 648c-5,0 -13,-1 -23,-3 0,0 0,0 0,0l23 3z"/>
   <path fill="url(#id2)" d="M952 649c0,-1 0,-1 0,-1l-23 -3c12,2 23,3 23,3 0,0 0,0 0,1z"/>
   <path fill="#A19F9F" fill-rule="nonzero" d="M986 648l1 -6 0 0c2,0 5,1 9,1 -5,1 -8,3 -10,5z"/>
   <path fill="url(#id3)" d="M987 642l0 0c0,0 0,0 0,0l0 0z"/>
   <path fill="#A19F9F" fill-rule="nonzero" d="M1038 626c3,-2 6,-4 8,-6l0 2c0,0 -3,2 -8,4z"/>
   <path fill="url(#id4)" d="M998 539c0,0 18,-17 29,-49 0,0 1,1 2,1l1 11 -19 36c-1,0 -2,0 -3,0 -3,0 -6,0 -10,1z"/>
   <path fill="#A19F9F" fill-rule="nonzero" d="M1104 433l0 0c0,0 -1,0 -1,-1l1 1z"/>
   <path fill="#908A31" fill-rule="nonzero" d="M967 691c-3,0 -6,-41 -12,-42 0,0 -1,0 -3,0 0,-1 0,-1 0,-1 0,0 -11,-1 -23,-3 0,0 0,0 0,0 -13,-2 -29,-5 -43,-9 -27,-12 -64,-34 -64,-34 0,0 -8,-4 -18,-8 -16,-8 -35,-18 -29,-18 1,0 2,0 4,0 17,0 75,5 75,5 19,4 37,6 52,6 29,0 48,-6 55,-9 3,13 12,19 12,19 0,0 13,-35 60,-35 1,0 2,0 3,0 0,0 -1,-22 -25,-24l19 -36 -1 -11c2,1 7,2 12,2 4,0 8,-1 12,-3 0,0 -14,-7 -2,-39 5,-13 10,-17 15,-17 8,0 15,10 15,10 0,0 -5,-19 -21,-21 0,0 -12,-25 7,-33 2,-1 3,-1 5,-1 17,0 30,39 30,39l1 4c0,1 1,1 1,1l0 0 2 3c0,0 11,25 -4,72l-13 32c0,0 -7,40 -38,66l-5 14c-2,2 -5,4 -8,6 -10,5 -29,13 -36,15 -2,0 -5,1 -6,2 -4,0 -7,-1 -9,-1 0,0 0,0 0,0l0 0 -1 6c-1,0 -1,1 -1,1l-1 13c0,0 -14,20 -17,29 0,0 0,0 0,0z"/>
   <path fill="#A19F9F" fill-rule="nonzero" d="M269 183l-21 70c0,0 15,7 20,23 5,16 39,133 39,133l13 49 -9 30 39 30c0,0 25,-22 35,-23 10,-1 47,-1 63,-7 16,-6 46,-29 55,-39 9,-11 15,-41 15,-41l-3 -44 -26 -46 -20 -13 -37 1c0,0 53,12 58,65 5,53 -20,90 -64,97 -45,7 -74,1 -74,1 0,0 -45,-129 -58,-184 -12,-55 -16,-54 -10,-67 6,-13 12,-19 12,-19 0,0 7,-19 27,-30 20,-11 -54,14 -54,14z"/>
   <path fill="#A19F9F" fill-rule="nonzero" d="M398 161c0,0 45,18 43,73 -2,55 -9,67 -9,67l25 -6 11 -63 -4 -46c0,0 -20,-28 -66,-25z"/>
   <path fill="#A19F9F" fill-rule="nonzero" d="M384 244c0,0 -5,-36 -45,-17 0,0 -9,16 9,57 0,0 40,-17 36,-40z"/>
   <path fill="#A19F9F" fill-rule="nonzero" d="M370 356c0,0 3,42 18,59 0,0 15,-2 24,-13 9,-11 14,-23 14,-23 0,0 3,-42 -56,-23z"/>
   <path fill="#A19F9F" fill-rule="nonzero" d="M526 209c0,0 -21,20 -22,57 -1,36 28,90 105,78 76,-12 55,-93 55,-93 0,0 23,33 13,76 0,0 20,-27 22,-60 2,-34 6,47 -1,76 -7,28 -18,43 -18,43l-43 18 -49 14 -57 -5 -13 -19 -10 -42 -25 -47 -17 -14 -5 -14 8 -50 26 -30c0,0 -9,23 -9,47 0,0 10,-20 40,-35z"/>
   <path fill="#A19F9F" fill-rule="nonzero" d="M921 325c6,-9 14,-17 22,-25 -1,0 -3,-1 -4,-2 -43,-24 -33,-80 -33,-80l-17 28 13 50 18 29 1 0z"/>
   <path fill="#A19F9F" fill-rule="nonzero" d="M1063 201l-23 -8c18,66 -11,104 -44,113 -12,4 -25,3 -36,0 -3,8 -5,16 -7,23l10 2 52 -3 25 -17 23 -27 4 -35 -4 -48z"/>
   <path fill="#A19F9F" fill-rule="nonzero" d="M963 219c0,0 27,-12 38,-3 11,9 17,45 -11,52 -29,7 -32,-32 -32,-32l5 -17z"/>
   <path fill="#A19F9F" fill-rule="nonzero" d="M830 279l5 23c0,0 -8,23 -38,23 -31,0 8,-95 33,-46z"/>
   <path fill="#A19F9F" fill-rule="nonzero" d="M709 288c0,0 1,71 84,74 85,3 96,-82 78,-127 -18,-45 31,31 24,79 -7,49 -35,83 -35,83l-36 17 -40 -12 -60 -11 -29 -6 -1 -38 15 -59z"/>
   <polygon fill="#A19F9F" fill-rule="nonzero" points="639,403 666,391 703,386 712,388 676,394 "/>
   <path fill="url(#id5)" d="M887 485l-45 -14c0,0 -28,-54 -90,-66l-1 0c-3,-1 -5,-1 -8,-1 -7,-1 -13,-1 -19,-1 -97,0 -148,56 -148,56 2,-6 4,-11 8,-16l18 -23c3,-3 6,-6 9,-9l26 -7 2 -1 37 -9 36 -6 12 3 18 3c9,2 17,5 23,6 30,5 74,17 105,41l35 32 -18 12z"/>
   <path fill="url(#id6)" d="M584 443c5,-9 12,-16 18,-23l-18 23z"/>
   <path fill="#666362" fill-rule="nonzero" d="M611 411c5,-4 9,-7 9,-7l44 -12 2 -1 -27 12 -2 1 -26 7z"/>
   <path fill="#666362" fill-rule="nonzero" d="M742 394l-18 -3 -12 -3 -9 -2 4 0c0,0 18,4 35,8z"/>
   <path fill="#908A31" fill-rule="nonzero" d="M1033 384c-3,0 -7,-4 -9,-11 -3,-7 -2,-14 2,-15 1,0 1,0 1,0 4,0 8,4 10,11 3,7 1,14 -2,15 -1,0 -1,0 -2,0z"/>
   <path fill="#66A0D6" fill-rule="nonzero" d="M684 569c-36,11 -84,2 -84,2l-23 -1 -12 -2 -47 0 -23 11c0,0 -33,12 -57,18 -13,3 -35,-1 -52,-6 -3,-6 -6,-11 -6,-11l-56 -46c-1,-2 -2,-3 -3,-5l-10 -39 0 -1c-9,-4 -2,-24 -1,-33 0,-9 1,-9 4,-18l-11 -44 -29 -112c0,0 -57,31 -69,128l0 9c0,0 -21,-11 -24,13 -4,25 -4,69 6,83 9,13 24,8 24,8l26 43c0,0 -20,18 -13,28 7,10 46,39 52,40 6,1 16,0 16,0l22 -25c0,0 43,20 66,14l2 7 -3 21c0,0 12,8 30,9 19,1 39,-10 39,-10l2 -27 30 -8 26 -8 5 17c0,0 14,3 26,-1 13,-3 42,-19 42,-19l-5 -10 64 -2c0,0 81,-35 46,-23z"/>
   <path fill="#66A0D6" fill-rule="nonzero" d="M410 472l-10 0 0 -1 -28 1 -19 -3 -13 -30c0,0 -15,-50 -25,-81 -10,-30 -24,-91 -24,-91l-6 -26c0,0 -3,-9 0,-23 3,-14 12,-18 12,-18 4,-15 21,-28 21,-28 -7,-17 -52,9 -52,9l-9 23 -13 47 20 22 23 67 29 111 -5 38 30 29c0,0 12,-7 28,-19 7,-5 17,-7 25,-8l0 4 38 -2 26 -10 13 -11c-36,9 -61,0 -61,0z"/>
   <path fill="#66A0D6" fill-rule="nonzero" d="M752 560c0,0 26,0 47,9 16,6 71,36 103,39 29,3 -65,-3 -65,-3l-63 -25 -28 -12c0,0 -13,-5 6,-8z"/>
   <path fill="#66A0D6" fill-rule="nonzero" d="M532 371l62 13c0,0 57,14 92,-29l-3 19 -13 16 -31 11 -50 18 -69 -4 -3 -28 -3 -19 18 3z"/>
   <path fill="#66A0D6" fill-rule="nonzero" d="M887 340c-1,-4 2,-14 1,-17 -25,65 -107,70 -141,53 -36,-18 -42,-58 -42,-58 -10,11 3,72 3,72l32 0c0,0 74,26 115,10 16,-6 27,-31 33,-54 -1,-2 -1,-4 -1,-6z"/>
   <path fill="#66A0D6" fill-rule="nonzero" d="M927 321c0,0 -11,38 8,55 19,17 51,24 51,24 0,0 13,10 13,22 0,11 -5,23 -6,26 -2,3 -20,16 -20,16l-33 -40 -33 -34c0,0 -4,-20 -4,-23 0,-3 15,-55 24,-46z"/>
   <path fill="#F08718" fill-rule="nonzero" d="M586 307l4 -26 23 -11 27 14c0,0 -12,36 -54,23z"/>
   <path fill="#FEFEFE" fill-rule="nonzero" d="M904 518c0,0 28,0 39,0 12,0 22,-6 23,1 1,7 -8,13 -22,9 -9,-3 -20,1 -40,-10z"/>
   <path fill="#FEFEFE" fill-rule="nonzero" d="M990 511c-3,4 -9,4 -11,2 -3,-3 -2,-8 2,-12 4,-4 9,-4 12,-2 2,3 1,8 -3,12z"/>
   <path fill="#FEFEFE" fill-rule="nonzero" d="M997 565c-6,4 -13,3 -16,-2 -3,-4 0,-11 6,-15 6,-3 13,-2 16,2 2,5 0,11 -6,15z"/>
   <path fill="#FEFEFE" fill-rule="nonzero" d="M1047 450c-5,6 -12,8 -17,5 -4,-3 -4,-10 1,-16 5,-6 12,-8 17,-5 4,3 4,11 -1,16z"/>
   <path fill="#FEFEFE" fill-rule="nonzero" d="M621 456c0,0 7,-1 19,-7 0,0 6,1 13,-2 7,-3 17,-6 26,-7 0,0 -3,10 6,11 8,0 20,-6 31,-7 0,0 2,10 19,8 0,0 5,9 27,7 0,0 18,6 25,6 7,1 18,6 23,6 6,1 8,1 8,1 0,0 -10,-5 -16,-9 -6,-3 -22,-10 -22,-10 0,0 7,-28 -36,-20l-12 1c0,0 -1,-13 -38,-1 0,0 0,-11 -33,3 0,0 -4,-3 -14,2 -5,3 -15,8 -21,12 -4,3 -6,6 -5,6z"/>
   <path fill="#FEFEFE" fill-rule="nonzero" d="M220 421c10,-79 53,-116 53,-116l-11 -26c0,0 -18,25 -35,59 -17,33 -23,74 -23,77 -6,-3 -13,-3 -18,2 0,0 -11,23 -9,47 2,23 11,48 17,55 5,6 12,6 17,2 3,9 12,30 25,49l12 -11c0,0 -18,-27 -24,-49l-4 2c5,-7 9,-19 8,-42 -1,-19 -7,-36 -15,-46l1 -5 6 2z"/>
   <path fill="#252422" fill-rule="nonzero" d="M425 91c0,0 12,-3 13,-14 1,-8 -3,-16 -16,-19 -12,-3 -20,3 -22,7 0,0 -5,7 1,18 6,10 15,11 24,8z"/>
   <path fill="#252422" fill-rule="nonzero" d="M989 584c2,3 10,3 19,-1 8,-3 15,-9 13,-12 -1,-3 -9,-3 -18,1 -9,3 -15,9 -14,12z"/>
   <path fill="#252422" fill-rule="nonzero" d="M1057 475c4,1 9,-4 12,-12 2,-8 0,-15 -4,-16 -5,-1 -10,4 -12,12 -2,7 -1,15 4,16z"/>
   <path fill="#252422" fill-rule="nonzero" d="M1044 370c-2,-10 -12,-18 -21,-15 -10,3 -12,11 -12,11 0,0 12,-12 21,-5 9,7 8,22 -7,27l4 5c0,0 10,1 13,13 0,0 2,-11 -1,-19 0,0 6,-8 3,-17z"/>
   <path fill="#252422" fill-rule="nonzero" d="M714 477c0,0 -10,30 -4,58 3,-1 7,-3 12,-4 -5,-10 -8,-27 -8,-54z"/>
   <path fill="#252422" fill-rule="nonzero" d="M738 484c0,0 -9,21 -9,45 3,-1 7,-1 10,-2 -2,-10 -2,-24 -1,-43z"/>
   <path fill="#252422" fill-rule="nonzero" d="M748 525c2,0 5,0 8,-1 -1,-8 -1,-18 0,-29 0,0 -6,13 -8,30z"/>
   <path fill="#252422" fill-rule="nonzero" d="M774 523c0,-6 0,-13 1,-20 0,0 -4,8 -6,20 1,0 3,0 5,0z"/>
   <path fill="#252422" fill-rule="nonzero" d="M793 523c0,-5 0,-10 1,-15 0,0 -3,6 -5,15 1,0 3,0 4,0z"/>
   <path fill="#252422" fill-rule="nonzero" d="M686 469c0,0 -11,45 7,74 3,-1 6,-3 9,-4 1,-1 2,-1 4,-2 -7,-6 -20,-23 -20,-68z"/>
   <path fill="#252422" fill-rule="nonzero" d="M657 476c0,0 -5,49 17,77 6,-2 12,-5 17,-8 -7,-6 -26,-23 -34,-69z"/>
   <path fill="#252422" fill-rule="nonzero" d="M758 290c0,4 1,7 2,11 3,14 16,25 32,25 19,0 34,-14 34,-33 0,-11 -6,-21 -15,-27 13,5 23,20 23,37 1,3 1,6 0,9 3,-6 5,-13 4,-22 -1,-22 -18,-39 -40,-39 -22,0 -40,17 -40,39z"/>
   <path fill="#252422" fill-rule="nonzero" d="M979 275c3,0 6,-1 9,-2 12,-4 21,-15 21,-27 0,-15 -12,-25 -27,-24 -9,1 -18,6 -22,14 4,-11 16,-19 30,-21 2,0 5,0 7,0 -5,-2 -11,-3 -18,-2 -17,2 -32,17 -32,34 0,17 15,29 32,28z"/>
   <polygon fill="#252422" fill-rule="nonzero" points="1044,240 1044,240 "/>
   <path fill="#252422" fill-rule="nonzero" d="M988 310c0,0 60,-3 56,-70 0,2 0,17 -9,26 -10,10 -20,22 -25,28 -6,7 -12,13 -22,16z"/>
   <path fill="#252422" fill-rule="nonzero" d="M782 216c0,0 -27,-5 -52,21 0,0 -4,12 -3,26 0,0 13,-41 55,-47z"/>
   <path fill="#252422" fill-rule="nonzero" d="M573 275l0 0 -9 19c-3,-3 -6,-7 -8,-11l17 -8zm-21 -7l12 0 -10 10c-1,-3 -2,-6 -2,-10zm33 16l1 22c-7,-1 -13,-4 -18,-8l14 -15c1,1 2,1 3,1zm9 2l0 0c10,0 19,-5 24,-13l20 8c-7,15 -23,26 -42,26 -3,0 -6,0 -9,-1l7 -20zm47 -20c0,5 -2,10 -3,15l-11 -12 14 -3zm-3 -14c1,3 2,6 2,9l-9 -4 7 -5zm-43 64c29,0 53,-23 53,-51 0,-11 -3,-20 -8,-28 -4,9 -14,16 -25,16 -14,0 -26,-12 -26,-27 0,-5 1,-9 3,-13 -28,2 -50,24 -50,52 0,28 24,51 53,51z"/>
   <path fill="#252422" fill-rule="nonzero" d="M1116 505l-17 -1 -1 4c-1,1 -6,18 -11,29l-3 4 4 4c0,0 7,6 13,15 -2,7 -9,31 -38,54 -1,-1 -4,-2 -6,-4l-4 -4 -5 5c0,0 -13,15 -49,24 -7,-2 -14,-10 -10,-27 16,-1 35,-9 46,-17 20,-16 12,-40 -3,-49 -4,-2 -8,-4 -12,-4 3,-4 13,-18 15,-40 4,5 10,8 18,9 27,3 47,-40 33,-66 -14,-26 -35,-21 -47,-14 0,0 27,-8 38,11 10,18 -1,55 -21,56 -25,1 -30,-18 -30,-18 0,0 0,4 1,9 0,5 0,26 -17,53 -6,1 -10,3 -10,3 22,-2 35,10 36,18 3,20 -9,30 -35,37 -41,9 -39,-21 -39,-21 -42,21 -109,5 -109,5 54,20 105,6 105,6 1,15 12,21 25,22 -3,11 -8,33 -5,65 3,45 10,98 10,98 0,0 8,43 -11,44 -21,2 -9,-48 -8,-65 1,-18 1,-72 -7,-109 -26,2 -47,-2 -64,-7 16,1 33,0 46,-9 0,0 -41,5 -72,-7 35,5 65,-9 65,-9 -42,6 -113,-18 -142,-29 -13,-7 -24,-12 -32,-15 16,-3 52,1 52,1 0,0 -15,-4 -41,-11 -10,-3 -21,-3 -30,-3 1,0 3,0 4,-1 5,-1 11,-2 17,-3 6,-1 11,-2 17,-2 6,-1 12,-1 18,-1l18 0c-11,-3 -23,-6 -36,-6 -6,-1 -12,-1 -18,-1 -6,1 -13,1 -19,3 -3,0 -6,1 -9,2 -1,0 -3,0 -4,1l-5 1c-5,2 -11,4 -17,6 -6,2 -12,5 -17,7 -6,3 -11,5 -16,8 -3,1 -6,2 -8,3l-5 2 -2 1 -2 0c-5,2 -10,4 -16,5 -11,3 -23,5 -35,7 -11,1 -23,2 -35,2 -6,1 -12,1 -17,1 -6,0 -12,0 -18,-1l0 0 -2 0 -1 1c-5,2 -9,4 -13,6 -5,2 -9,4 -14,6l-7 3 -6 2c-5,2 -10,3 -14,5 -5,1 -10,2 -14,3l-7 2c-3,0 -5,1 -7,1 -5,1 -10,2 -15,2 -5,1 -9,1 -14,2 -5,0 -10,0 -15,0l-7 0 -7 0c-5,0 -10,-1 -15,-1 -5,-1 -9,-1 -14,-2 -5,0 -10,-1 -14,-2 -5,-1 -10,-2 -14,-4 -5,-1 -10,-2 -14,-4 -5,-1 -9,-3 -13,-4l-3 -3c-7,18 -21,29 -21,29 -41,-8 -58,-41 -58,-41 9,-17 22,-30 22,-30 -4,1 -8,3 -12,5 -4,-6 -14,-21 -20,-38 9,-4 17,-11 21,-19 4,-7 7,-33 5,-25 -2,9 -8,12 -8,12 0,-17 -5,-31 -5,-31 1,20 -11,50 -24,56 -13,6 -22,-15 -23,-52 -1,-36 5,-43 5,-43 20,-3 41,14 41,14 0,0 -7,-13 -21,-21l0 -1c0,0 6,-75 60,-120 0,-1 -12,18 -20,36 -8,19 -12,37 -12,37 13,-16 31,-31 43,-40l0 1c-15,14 -37,38 -47,71 0,0 13,-24 48,-43 -16,14 -37,37 -48,68 0,0 15,-27 58,-45 -20,15 -41,36 -53,59 0,0 17,-19 59,-41l0 0c-22,16 -45,38 -57,64 0,0 10,-9 31,-20 -12,20 -25,53 -21,98 0,0 2,-14 9,-28 0,9 2,18 5,27 0,0 -1,-22 6,-40 -1,11 1,22 5,33 0,0 -4,-46 19,-65 -1,17 -1,57 22,87 -6,-4 -15,-10 -23,-19 0,0 7,26 26,39 -11,-2 -18,-6 -31,-13 0,0 41,49 112,49 79,0 106,-28 120,-32 30,-7 98,7 145,-21 0,0 -5,-1 -11,-8 -10,-11 -23,-33 -31,-62 0,0 0,47 18,74l0 1c-2,0 -5,1 -9,1 -9,-8 -21,-26 -27,-64 0,0 -5,38 8,66 -3,0 -5,0 -8,0 -8,-10 -15,-24 -21,-48 0,0 -2,24 6,47 -4,0 -7,0 -11,0 -2,-8 -5,-18 -6,-29 0,0 -2,12 -2,28 -29,-2 -51,-5 -67,1 -18,8 -47,22 -87,19 18,-4 56,-12 84,-29 0,0 -52,14 -91,9 0,0 19,-5 39,-15 0,0 -50,10 -83,-4 0,0 27,3 48,-5 0,0 -26,-1 -45,-15 0,0 8,-14 26,-20 15,-1 39,-3 60,-11 20,-8 31,-18 49,-34 11,-11 23,-15 28,-17 -4,8 -9,19 -14,33 0,0 38,-37 71,-49 -7,9 -12,21 -15,37 0,0 26,-56 91,-54 0,0 1,-2 -8,-4 28,-4 82,-8 140,15 0,0 27,15 42,28 13,10 27,22 42,29 -16,-2 -42,-6 -64,-13 0,0 76,48 147,31 0,0 35,-13 42,-57 3,-19 -8,-34 -19,-41 -14,-9 -24,-5 -44,-11 0,0 11,8 33,15 8,2 18,17 16,32 -2,-8 -6,-18 -14,-21 -14,-5 -55,-18 -63,-44 -7,-27 16,-49 16,-49 0,0 23,-25 28,-20 0,3 -3,8 -5,11 -5,7 -18,26 -8,39 10,13 27,16 27,16 0,0 -14,-11 -14,-22 5,5 12,10 25,13 0,0 -6,-5 -10,-12 4,1 9,1 15,1 16,-2 35,-3 53,2l-1 8c0,0 3,-4 9,-9 1,0 2,0 2,-1 1,0 2,-1 3,-1 0,0 1,-1 2,-1 1,-1 3,-1 5,-2 0,0 1,0 2,-1l1 1c1,1 2,2 3,3 2,2 4,4 6,7 2,2 4,5 5,7 1,1 2,3 2,4 1,1 1,2 1,3l0 0c0,1 -1,2 -1,2 -1,1 -1,2 -2,3 0,1 -1,2 -2,3 -1,2 -3,3 -4,5 -1,1 -2,1 -3,2l-2 3 3 -2c1,0 2,-1 3,-1l1 -1c4,7 18,29 21,57l1 4 4 1c1,0 12,1 22,4 3,7 7,29 -9,61zm-600 113l-2 -8c5,-1 9,-4 14,-5 2,-1 4,-2 6,-3l5 8c0,0 21,-2 36,-8 0,0 -20,15 -59,16zm-74 31c0,0 -26,9 -54,1 0,0 1,-10 1,-19 2,0 4,0 6,0l8 0 7 0 0 11c0,0 11,3 24,-2l1 -10c2,0 4,0 6,-1l1 0c0,7 1,15 0,20zm-165 -458c0,0 15,-9 59,-22 45,-14 97,-10 116,37 19,47 -6,76 -6,76 9,-43 -6,-72 -6,-72 13,58 -27,102 -27,102 34,-11 64,4 83,32 8,12 19,51 11,78 -7,28 -33,44 -40,49 -31,19 -63,18 -78,19 -21,0 -42,13 -42,13 -18,-7 -29,-19 -29,-19 6,-9 8,-20 8,-20 -14,-74 -55,-209 -55,-209l-12 -8c5,-30 18,-56 18,-56zm203 36c22,-33 59,-55 101,-55 66,0 119,53 119,119 0,66 -53,119 -119,119 -22,0 -42,-5 -59,-15 0,-6 -1,-12 -2,-16 16,9 43,20 85,13 20,-3 45,-18 59,-34 -17,8 -51,23 -87,17 0,0 38,-1 64,-28 0,0 -71,37 -129,-6 -27,-21 -35,-60 -27,-98 -5,7 -12,21 -15,36 -2,-22 6,-42 10,-52zm306 -32c56,0 102,47 102,104 0,41 -23,76 -56,93 -11,4 -23,6 -35,3 0,0 19,-2 37,-16 15,-11 29,-28 37,-51 0,0 -14,27 -39,42 -17,10 -38,14 -63,2 0,0 31,7 53,-6 0,0 -21,7 -54,-2 -17,-4 -33,-11 -44,-23 0,0 3,30 29,48 0,0 -10,-1 -21,-6 -22,-19 -25,-45 -25,-58 2,-10 3,-21 3,-32 0,-18 -3,-35 -10,-51 18,-28 50,-47 86,-47zm192 -23c42,0 76,34 76,76 0,43 -34,77 -76,77 -5,0 -9,-1 -14,-1 -8,-10 15,-28 6,-35 -10,-8 -32,9 -41,18 -16,-14 -27,-35 -27,-59 0,-42 34,-76 76,-76zm158 264l-2 -3 -2 0c-9,-2 -17,-4 -22,-5 -5,-27 -18,-49 -22,-56l0 -1c1,0 2,-1 3,-2l2 -1c0,-1 0,-1 1,-2l1 -1 -1 -3 0 0c0,-1 -1,-3 -1,-5 -1,-1 -2,-3 -3,-5 -1,-3 -3,-6 -5,-9 -2,-3 -4,-5 -6,-8 -2,-1 -3,-3 -4,-4 -1,0 -2,-1 -2,-2 -1,0 -2,-1 -3,-1l-2 -2 -2 1c-2,0 -4,1 -6,2l-1 0 1 -1 1 0c-6,2 -12,5 -12,5 -14,-5 -38,-6 -38,-6 17,-3 37,-1 37,-1l21 -12c3,-6 7,-13 10,-20 5,0 10,1 15,2 12,-19 16,-40 16,-39 -1,15 -4,31 -8,44 6,3 10,8 12,16 5,-10 11,-28 16,-59 8,-49 -2,-95 -2,-95 -7,-8 -8,-1 -8,-1 0,16 -6,45 -6,45 0,-39 -20,-71 -32,-85 -7,-8 -12,-11 -13,-9 0,1 3,6 3,6 8,11 13,23 15,30 -7,-10 -19,-24 -31,-30 -20,-9 -25,-10 -25,-10 0,0 -18,-4 -30,-4 -11,0 -8,3 -8,3 0,0 32,13 41,26 -16,-8 -42,-18 -76,-13 0,0 -5,4 9,7 13,3 12,7 1,9 -22,-2 -37,1 -47,4 7,-10 -1,-11 -1,-11 -12,3 -24,8 -34,13 2,-2 5,-8 4,-15 -2,-10 -10,-16 -21,-8 0,0 -15,12 -16,25 -1,7 1,13 4,16 -13,9 -24,19 -30,25 -7,-2 -17,-5 -29,-8 -16,-3 -12,-4 -3,-4 7,0 4,-4 4,-4 -47,-6 -79,8 -91,16 -3,-3 -12,-10 -23,-14 -13,-5 -21,-8 -21,-8 0,0 -12,-5 -13,-1 0,0 4,4 9,8 -5,-3 -13,-6 -11,-1 0,0 14,11 23,24l0 1 -1 -1c-29,-25 -59,-32 -80,-33 4,-1 11,-2 16,-4 6,-3 4,-6 4,-6 -51,-5 -82,-1 -98,3 -8,-10 -20,-16 -20,-16 -10,-1 -20,-2 -27,-2 0,-4 -1,-8 -1,-10 3,-1 6,-3 8,-7 6,-11 -7,-25 -18,-25 -8,1 -8,6 -12,11 -1,1 -9,10 -17,9 -16,-3 -40,-20 -59,-27 -28,-10 -34,6 -37,13 -2,8 -16,14 -37,12 -20,-2 -27,-14 -41,-45 -14,-31 -10,-36 -16,-51 -5,-15 -17,-12 -17,-12 -14,6 -2,31 4,39 6,8 15,33 23,54 2,5 3,10 3,14 -1,7 -4,12 -8,13 -10,2 -18,-13 -18,-13 0,0 -12,-13 -20,4 -8,16 11,28 15,33 4,6 0,11 0,11 -13,10 -13,23 -13,23 2,4 1,7 -1,10 -13,1 -32,-8 -37,-8 -12,0 -39,-10 -69,-27 -30,-16 -49,-29 -54,-35 -6,-6 -19,-22 -35,-8 0,0 -13,11 2,24 6,5 16,4 26,8 14,6 29,11 56,27 41,24 69,41 76,54 0,4 -1,11 -12,14 -23,6 -46,0 -50,7 -4,6 -1,22 22,23 24,1 31,-5 34,-7 3,-1 14,-3 20,4 1,3 2,8 2,13 1,20 -3,52 24,44 1,-1 2,-1 3,-2 3,7 5,17 4,28 -8,24 -15,45 -16,60 -2,-1 -5,-2 -8,-2 0,0 -19,-2 -20,43 -2,44 8,65 21,75 4,2 9,3 16,1 4,12 10,27 21,41 -10,9 -13,20 -13,20 16,50 76,55 76,55 11,-10 19,-21 23,-28 2,1 3,1 5,2 5,2 10,3 14,4 5,2 10,3 15,4 5,1 10,2 15,2 4,1 7,1 11,2 -1,6 -3,16 -2,27 0,0 15,9 45,8 13,-1 26,-4 36,-12 0,0 1,-12 0,-26l1 0c2,0 5,-1 7,-1l7 -2c5,-1 10,-2 15,-4 5,-1 10,-2 15,-4l2 -1c1,5 3,14 5,17 0,0 43,7 82,-25l-1 -7c8,-1 16,-1 23,-2 4,-1 9,-1 13,-2l1 4c0,0 48,13 76,-19l-1 -7c7,-1 17,-3 28,-1 0,3 -1,6 -2,9 0,0 25,23 54,18l6 -8c11,4 21,9 28,13 4,4 10,7 16,9 1,2 3,4 3,5 6,17 0,37 -3,54 -1,10 -4,26 2,36 6,11 16,8 21,-4 4,-11 -1,-22 -3,-33 -3,-10 -4,-24 -2,-35 0,-4 2,-7 3,-10 17,10 52,26 96,27 4,7 12,24 14,47 3,30 1,64 -3,82 -3,18 -8,49 17,50 25,0 29,-37 18,-80 -10,-35 -1,-88 2,-104 33,-7 51,-20 58,-26 5,3 9,4 10,4l3 1 2 -2c41,-31 45,-65 45,-66l0 -2 0 -2c-5,-8 -10,-14 -14,-17 4,-8 7,-17 9,-23l16 1 2 -3c24,-47 10,-77 10,-78z"/>
   <path fill="#252422" fill-rule="nonzero" d="M350 291c0,0 27,-11 34,-29 4,-9 -1,-23 -6,-28 -10,-8 -26,-5 -26,-5 0,0 -6,7 -3,20 3,12 9,24 9,24 0,0 -3,7 -8,5 -5,-3 -13,-35 -13,-35 0,0 -2,7 2,28 3,11 11,20 11,20z"/>
   <path fill="#252422" fill-rule="nonzero" d="M396 406c0,0 -6,5 -10,-2 -5,-7 -13,-31 -13,-31 0,0 1,26 14,46 0,0 40,-1 40,-36 0,0 -6,-35 -43,-15 0,0 4,21 12,38z"/>
   <path fill="#252422" fill-rule="nonzero" d="M284 259c5,16 34,133 51,186 0,0 9,17 0,30 0,0 5,8 17,11 0,0 19,-9 51,-12 32,-2 72,-11 90,-52 9,-23 6,-47 -2,-65 -3,0 -6,1 -9,1 4,11 6,25 4,42 -6,47 -74,84 -130,58 0,0 -24,-50 -45,-121 -8,-29 -15,-61 -20,-95l-3 -8c0,0 4,-21 10,-29 6,-7 19,-15 19,-15 0,0 -22,5 -28,9 0,0 -10,14 -16,42 0,0 7,1 11,18z"/>
   <path fill="#252422" fill-rule="nonzero" d="M477 347c2,-1 5,-1 8,-2 -7,-9 -15,-16 -23,-18 0,0 8,7 15,20z"/>
   <path fill="#252422" fill-rule="nonzero" d="M502 301c0,1 0,1 0,2 0,1 1,2 1,3 1,2 2,4 3,6 2,4 5,8 8,11 6,6 13,10 19,13 6,2 12,3 15,3 4,0 6,0 6,0 0,0 -2,-2 -5,-3 -3,-2 -7,-5 -12,-8 -4,-4 -10,-8 -14,-13 -2,-3 -5,-6 -6,-9 -1,-1 -2,-3 -3,-4 0,-1 -1,-2 -1,-3l0 -1 -1 -2c-3,-7 -4,-15 -5,-22 -1,-4 -1,-7 -1,-11 0,-3 0,-6 0,-9 0,-6 1,-12 1,-15 1,-4 2,-6 2,-6 0,0 -2,2 -3,5 -2,4 -4,9 -6,15 -1,3 -1,6 -2,10 0,4 -1,7 -1,11 0,9 2,17 4,26l1 1z"/>
   <path fill="#252422" fill-rule="nonzero" d="M263 562c0,0 5,16 18,32 0,0 -16,-11 -27,-23 0,0 3,13 17,29 0,0 -14,-6 -26,-17 0,0 6,22 35,32 0,0 9,-7 19,-21 0,0 -23,-14 -36,-32z"/>
   <path fill="#252422" fill-rule="nonzero" d="M203 437c-6,1 -10,8 -9,25 1,17 6,36 12,36 6,0 10,-10 9,-27 -1,-16 -6,-34 -12,-34z"/>
   <path fill="#252422" fill-rule="nonzero" d="M670 317c7,-16 2,-36 2,-36 0,33 -21,52 -21,52 0,0 11,0 19,-16z"/>
  </g>
  <rect fill="none" width="1144" height="836"/>
 </g>
</svg>
