

<!-- Creator: CorelDRAW X8 -->
<svg xmlns="http://www.w3.org/2000/svg" xml:space="preserve" width="101.414mm" height="25mm" version="1.1" shape-rendering="geometricPrecision" text-rendering="geometricPrecision" image-rendering="optimizeQuality" fill-rule="evenodd" clip-rule="evenodd"
viewBox="0 0 559 138"
 xmlns:xlink="http://www.w3.org/1999/xlink">
 <defs>
    <linearGradient id="id0" gradientUnits="userSpaceOnUse" x1="213.143" y1="68.8747" x2="558.794" y2="68.8747">
     <stop offset="0" stop-opacity="1" stop-color="#334B98"/>
     <stop offset="1" stop-opacity="1" stop-color="#FEFEFE"/>
    </linearGradient>
    <linearGradient id="id1" gradientUnits="userSpaceOnUse" x1="213.143" y1="68.8747" x2="558.794" y2="68.8747">
     <stop offset="0" stop-opacity="1" stop-color="#334B98"/>
     <stop offset="1" stop-opacity="1" stop-color="#FEFEFE"/>
    </linearGradient>
    <linearGradient id="id2" gradientUnits="userSpaceOnUse" x1="213.143" y1="68.8747" x2="558.794" y2="68.8747">
     <stop offset="0" stop-opacity="1" stop-color="#334B98"/>
     <stop offset="1" stop-opacity="1" stop-color="#FEFEFE"/>
    </linearGradient>
    <linearGradient id="id3" gradientUnits="userSpaceOnUse" x1="213.143" y1="68.8747" x2="558.794" y2="68.8747">
     <stop offset="0" stop-opacity="1" stop-color="#334B98"/>
     <stop offset="1" stop-opacity="1" stop-color="#FEFEFE"/>
    </linearGradient>
    <linearGradient id="id4" gradientUnits="userSpaceOnUse" x1="213.143" y1="68.8747" x2="558.794" y2="68.8747">
     <stop offset="0" stop-opacity="1" stop-color="#334B98"/>
     <stop offset="1" stop-opacity="1" stop-color="#FEFEFE"/>
    </linearGradient>
    <linearGradient id="id5" gradientUnits="userSpaceOnUse" x1="213.143" y1="68.8747" x2="558.794" y2="68.8747">
     <stop offset="0" stop-opacity="1" stop-color="#334B98"/>
     <stop offset="1" stop-opacity="1" stop-color="#FEFEFE"/>
    </linearGradient>
    <linearGradient id="id6" gradientUnits="userSpaceOnUse" x1="213.143" y1="68.8747" x2="558.794" y2="68.8747">
     <stop offset="0" stop-opacity="1" stop-color="#334B98"/>
     <stop offset="1" stop-opacity="1" stop-color="#FEFEFE"/>
    </linearGradient>
    <linearGradient id="id7" gradientUnits="userSpaceOnUse" x1="213.143" y1="68.8747" x2="558.794" y2="68.8747">
     <stop offset="0" stop-opacity="1" stop-color="#334B98"/>
     <stop offset="1" stop-opacity="1" stop-color="#FEFEFE"/>
    </linearGradient>
    <linearGradient id="id8" gradientUnits="userSpaceOnUse" x1="213.143" y1="68.8747" x2="558.794" y2="68.8747">
     <stop offset="0" stop-opacity="1" stop-color="#334B98"/>
     <stop offset="1" stop-opacity="1" stop-color="#FEFEFE"/>
    </linearGradient>
    <linearGradient id="id9" gradientUnits="userSpaceOnUse" x1="-0" y1="57.7202" x2="188.064" y2="57.7202">
     <stop offset="0" stop-opacity="1" stop-color="#FEFEFE"/>
     <stop offset="1" stop-opacity="1" stop-color="black"/>
    </linearGradient>
    <linearGradient id="id10" gradientUnits="userSpaceOnUse" x1="-0" y1="74.3742" x2="188.064" y2="74.3742">
     <stop offset="0" stop-opacity="1" stop-color="#334B98"/>
     <stop offset="1" stop-opacity="1" stop-color="black"/>
    </linearGradient>
 </defs>
 <g id="Katman_x0020_1">
  <metadata id="CorelCorpID_0Corel-Layer"/>
  <g id="_2222492442048">
   <path fill="url(#id0)" fill-rule="nonzero" d="M213 42l0 -1 18 0 0 1c-1,0 -2,0 -3,1 0,0 0,0 -1,1 0,0 0,0 0,1 0,1 0,2 0,3l0 14 15 -18c0,0 1,-1 1,-1 0,0 -1,0 -2,-1 -1,0 -2,0 -4,0l0 -1 12 0 0 1c-1,0 -1,0 -2,0 0,0 -1,1 -1,1 0,0 -1,0 -1,0 0,0 -1,1 -1,1l-11 13 12 18c1,2 2,3 3,4 1,0 2,1 2,1 1,0 2,-1 3,-2 0,1 0,2 -1,3 0,1 -1,1 -2,2 -1,0 -2,1 -2,1 -1,0 -2,0 -3,0 -2,0 -2,0 -3,0 -1,0 -2,-1 -3,-1 0,-1 -1,-1 -1,-2 -1,-1 -2,-1 -2,-2l-9 -14 0 13c0,1 0,2 0,2 0,1 0,2 0,2 1,0 1,1 1,1 1,0 2,0 3,0l0 1 -18 0 0 -1c1,0 2,0 2,0 1,0 1,-1 1,-1 1,0 1,-1 1,-2 0,0 0,-1 0,-2l0 -30c0,-1 0,-2 0,-3 0,-1 0,-1 -1,-1 0,-1 0,-1 -1,-1 0,-1 -1,-1 -2,-1z"/>
   <path id="1" fill="url(#id1)" fill-rule="nonzero" d="M257 77c0,-3 1,-4 2,-5 1,-2 2,-3 4,-3 2,-1 4,-1 6,-1 2,0 3,0 5,0 0,0 1,0 1,0 1,0 1,0 2,0l0 -2c0,-3 -1,-5 -1,-6 0,-2 -1,-3 -1,-4 -1,-1 -2,-1 -2,-2 -1,0 -2,0 -3,0 -1,0 -2,0 -2,0 0,1 0,2 1,3 0,1 0,1 0,2 0,2 -1,3 -1,4 -1,0 -2,1 -4,1 -1,0 -2,0 -3,-1 -1,-1 -1,-2 -1,-4 0,0 0,-1 0,-2 1,-1 1,-2 2,-2 1,-1 2,-1 4,-2 1,0 3,0 5,0 2,0 5,0 6,1 2,0 4,1 5,2 2,2 3,3 3,5 1,1 1,3 1,5l0 12c0,1 0,1 1,2 0,0 0,0 1,0 0,0 1,0 1,0 1,0 2,-1 2,-2 0,1 0,2 0,3 -1,0 -1,1 -2,2 -1,0 -1,1 -2,1 -1,0 -2,0 -3,0 -2,0 -3,0 -4,-1 -1,-1 -2,-2 -3,-4 0,2 -2,4 -3,5 -2,1 -3,1 -5,1 -4,0 -7,-1 -9,-2 -2,-2 -3,-4 -3,-6zm14 6c1,0 1,0 2,-1 0,0 1,0 1,-1 1,0 1,-1 2,-1 0,-1 0,-2 1,-2l0 -9c-1,0 -2,0 -3,0 -1,0 -2,0 -2,0 -1,1 -3,1 -3,3 -1,1 -2,3 -2,5 0,2 1,4 1,5 1,0 2,1 3,1z"/>
   <path id="2" fill="url(#id2)" fill-rule="nonzero" d="M305 75c0,2 0,3 -1,4 0,0 0,0 0,1 0,0 0,0 0,0 0,1 0,1 0,2 1,0 1,0 2,0 0,1 1,1 2,1 0,0 1,0 1,0 2,0 3,0 4,-1 1,0 2,-2 2,-3 0,-1 -1,-1 -1,-2 0,0 0,-1 -1,-1 0,-1 -1,-1 -2,-2 -1,0 -2,-1 -3,-2 -2,-1 -4,-2 -5,-3 -2,-1 -3,-1 -4,-2 -1,-1 -1,-2 -2,-3 0,-1 0,-2 0,-2 0,-2 0,-3 1,-4 0,-1 1,-2 2,-3 2,-1 3,-1 5,-2 1,0 3,0 5,0 2,0 3,0 5,0 2,1 3,1 4,2 2,1 3,2 3,3 1,1 2,2 2,3 0,2 -1,3 -2,4 -1,1 -2,1 -3,1 -1,0 -2,0 -3,-1 -1,-1 -2,-2 -2,-3 0,-1 1,-2 1,-3 0,0 0,-1 1,-1 0,-1 0,-1 0,-1 0,-1 0,-1 -1,-2 -1,0 -2,-1 -3,-1 -2,0 -3,1 -4,1 -1,1 -1,2 -1,3 0,1 0,2 1,3 0,0 0,1 1,1 1,1 1,1 2,2 0,0 1,0 1,1 3,1 5,2 6,3 2,1 3,2 4,3 1,1 2,2 2,2 0,1 0,2 0,3 0,1 0,2 -1,4 0,1 -1,2 -3,2 -1,1 -3,2 -5,2 -1,1 -3,1 -5,1 -2,0 -3,0 -5,0 -2,-1 -3,-1 -5,-2 -1,-1 -2,-2 -3,-3 -1,-1 -1,-2 -1,-4 0,-2 0,-3 1,-4 1,-1 2,-1 4,-1 1,0 2,0 3,1 1,1 1,2 1,3z"/>
   <path id="3" fill="url(#id3)" fill-rule="nonzero" d="M332 57c0,0 -1,1 -1,1 -1,0 -2,1 -2,1 0,0 0,-1 0,-2 1,-1 1,-1 2,-2 1,0 2,-1 2,-1 1,-1 2,-1 4,-1 0,0 1,0 2,1 1,0 2,0 2,1 1,0 2,1 2,2 0,0 1,1 1,2l0 19c0,1 0,2 0,2 0,1 0,2 0,2 0,0 1,1 1,1 1,0 1,0 2,0l0 1 -17 0 0 -1c1,0 2,0 2,0 1,0 1,-1 1,-1 1,0 1,-1 1,-2 0,0 0,-1 0,-2l0 -19c0,0 0,-1 -1,-1 0,-1 0,-1 -1,-1z"/>
   <path id="4" fill="url(#id4)" fill-rule="nonzero" d="M349 59c0,0 1,-1 1,-2 0,-1 1,-1 2,-2 0,0 1,-1 2,-1 1,-1 2,-1 3,-1 2,0 3,1 4,1 2,1 2,2 3,3 2,-3 5,-4 9,-4 1,0 2,0 3,0 1,0 2,1 3,1 1,0 2,1 3,2 1,0 1,1 1,1 2,-1 3,-2 4,-3 2,-1 3,-1 5,-1 2,0 4,0 5,1 1,0 3,1 4,2 1,1 2,2 2,3 1,1 1,2 1,4l0 15c0,1 0,1 0,2 1,0 1,0 2,0 0,0 1,0 1,0 1,-1 2,-1 2,-2 0,1 0,2 0,3 -1,0 -1,1 -2,2 -1,0 -2,1 -3,1 -1,0 -2,0 -3,0 0,0 -1,0 -2,0 -1,0 -2,-1 -3,-1 0,-1 -1,-1 -1,-2 -1,-1 -1,-2 -1,-3l0 -15c0,-2 0,-3 0,-4 -1,-1 -1,-2 -1,-2 -1,-1 -1,-1 -2,-2 0,0 -1,0 -2,0 0,0 -1,0 -1,0 -1,1 -1,1 -2,1 0,1 -1,1 -1,2 0,1 -1,1 -1,2l0 18c0,1 0,2 0,2 0,1 0,2 1,2 0,0 0,1 1,1 0,0 1,0 2,0l0 1 -17 0 0 -1c1,0 1,0 2,0 0,0 1,-1 1,-1 0,0 0,-1 0,-2 0,0 0,-1 0,-2l0 -15c0,-2 0,-3 0,-4 0,-1 -1,-2 -1,-2 -1,-1 -1,-1 -2,-2 0,0 -1,0 -1,0 -1,0 -2,0 -2,0 -1,1 -1,1 -2,1 0,1 -1,1 -1,2 0,1 -1,1 -1,2l0 18c0,1 0,2 0,2 0,1 1,2 1,2 0,0 0,1 1,1 0,0 1,0 2,0l0 1 -17 0 0 -1c1,0 2,0 2,0 0,0 1,-1 1,-1 0,0 0,-1 0,-2 1,0 1,-1 1,-2l0 -19c0,0 -1,-1 -1,-1 0,-1 -1,-1 -1,-1 0,0 -1,1 -2,1 0,0 -1,1 -2,1z"/>
   <path id="5" fill="url(#id5)" fill-rule="nonzero" d="M411 59c0,0 0,-1 1,-2 0,-1 1,-1 1,-2 1,0 2,-1 3,-1 1,-1 1,-1 2,-1 1,0 2,0 3,1 0,0 1,1 2,1 0,1 1,1 1,2 1,0 1,1 1,1 0,0 0,0 0,0 0,0 0,0 0,0 1,-1 2,-3 4,-4 1,-1 3,-1 5,-1 2,0 4,0 5,1 2,0 3,1 4,3 1,1 2,3 3,5 0,2 1,4 1,7 0,3 -1,5 -1,7 -1,2 -2,4 -3,5 -1,1 -3,2 -4,3 -2,1 -4,1 -6,1 -1,0 -2,0 -3,0 -1,-1 -1,-1 -2,-1 0,0 -1,-1 -1,-1 0,0 -1,0 -1,0l0 7c0,1 0,2 0,3 0,0 0,1 1,1 0,1 0,1 1,1 0,0 1,0 2,0l0 1 -17 0 0 -1c1,0 1,0 2,0 0,0 1,0 1,-1 0,0 0,-1 0,-1 0,-1 0,-2 0,-3l0 -30c0,-1 0,-2 0,-2 0,0 -1,-1 -1,-1 -1,0 -1,1 -2,1 -1,0 -1,1 -2,1zm15 22c1,0 2,1 2,1 1,1 2,1 3,1 1,0 1,0 2,0 1,-1 1,-2 2,-3 0,-1 0,-2 1,-4 0,-2 0,-4 0,-7 0,-3 0,-5 0,-7 -1,-2 -1,-3 -1,-4 -1,-1 -1,-2 -2,-3 0,0 -1,0 -2,0 0,0 -1,0 -1,0 -1,1 -1,1 -2,2 0,0 -1,0 -1,1 0,1 -1,1 -1,2l0 21z"/>
   <path id="6" fill="url(#id6)" fill-rule="nonzero" d="M452 77c0,-3 0,-4 1,-5 2,-2 3,-3 5,-3 2,-1 3,-1 5,-1 2,0 4,0 6,0 0,0 1,0 1,0 0,0 1,0 1,0l0 -2c0,-3 0,-5 0,-6 -1,-2 -1,-3 -2,-4 0,-1 -1,-1 -2,-2 -1,0 -1,0 -3,0 0,0 -1,0 -2,0 1,1 1,2 1,3 0,1 1,1 1,2 0,2 -1,3 -2,4 -1,0 -2,1 -3,1 -1,0 -3,0 -3,-1 -1,-1 -2,-2 -2,-4 0,0 1,-1 1,-2 0,-1 1,-2 2,-2 1,-1 2,-1 3,-2 2,0 4,0 6,0 2,0 4,0 6,1 2,0 4,1 5,2 1,2 2,3 3,5 1,1 1,3 1,5l0 12c0,1 0,1 0,2 1,0 1,0 2,0 0,0 1,0 1,0 1,0 1,-1 2,-2 0,1 0,2 -1,3 0,0 0,1 -1,2 -1,0 -2,1 -3,1 0,0 -1,0 -2,0 -2,0 -3,0 -4,-1 -2,-1 -2,-2 -3,-4 -1,2 -2,4 -4,5 -1,1 -3,1 -5,1 -4,0 -6,-1 -8,-2 -2,-2 -3,-4 -3,-6zm14 6c0,0 1,0 1,-1 1,0 2,0 2,-1 1,0 1,-1 1,-1 1,-1 1,-2 1,-2l0 -9c-1,0 -2,0 -2,0 -1,0 -2,0 -2,0 -2,1 -3,1 -4,3 -1,1 -1,3 -1,5 0,2 0,4 1,5 1,0 2,1 3,1z"/>
   <path id="7" fill="url(#id7)" fill-rule="nonzero" d="M495 71c2,0 3,0 4,1 1,1 1,2 1,3 0,2 0,3 -1,4 0,0 0,0 0,1 0,0 -1,0 -1,0 0,1 1,1 1,2 0,0 1,0 1,0 1,1 2,1 2,1 1,0 2,0 2,0 2,0 3,0 4,-1 1,0 1,-2 1,-3 0,-1 0,-1 0,-2 0,0 -1,-1 -1,-1 -1,-1 -1,-1 -2,-2 -1,0 -2,-1 -3,-2 -2,-1 -4,-2 -6,-3 -1,-1 -2,-1 -3,-2 -1,-1 -2,-2 -2,-3 0,-1 0,-2 0,-2 0,-2 0,-3 0,-4 1,-1 2,-2 3,-3 1,-1 3,-1 4,-2 2,0 4,0 6,0 1,0 3,0 5,0 1,1 3,1 4,2 1,1 2,2 3,3 1,1 1,2 1,3 0,2 0,3 -1,4 -1,1 -2,1 -3,1 -2,0 -3,0 -4,-1 0,-1 -1,-2 -1,-3 0,-1 0,-2 0,-3 1,0 1,-1 1,-1 1,-1 1,-1 1,-1 0,-1 -1,-1 -2,-2 0,0 -1,-1 -3,-1 -1,0 -2,1 -3,1 -1,1 -1,2 -1,3 0,1 0,2 0,3 1,0 1,1 2,1 0,1 1,1 2,2 0,0 1,0 1,1 3,1 5,2 6,3 2,1 3,2 4,3 1,1 1,2 2,2 0,1 0,2 0,3 0,2 0,3 -1,4 -1,1 -3,2 -4,3 -2,1 -4,1 -5,2 -2,0 -4,0 -5,0l0 2c1,0 1,0 2,0 1,1 1,1 2,1 1,1 1,1 1,2 1,0 1,1 1,2 0,1 0,1 -1,2 0,1 -1,1 -1,1 -1,1 -2,1 -3,1 0,0 -1,0 -2,0 0,0 -1,0 -1,0 -1,0 -1,0 -2,0l0 -2c0,0 1,1 1,1 0,0 1,0 1,0 1,0 2,0 2,-1 1,-1 1,-1 1,-2 0,-1 0,-2 -1,-3 0,0 -1,0 -2,0l0 -4c-1,0 -3,0 -4,-1 -2,0 -3,-1 -4,-1 -1,-1 -2,-2 -3,-3 0,-1 -1,-3 -1,-4 0,-2 1,-3 2,-4 1,-1 2,-1 3,-1z"/>
   <path id="8" fill="url(#id8)" fill-rule="nonzero" d="M524 77c0,-3 1,-4 2,-5 1,-2 3,-3 4,-3 2,-1 4,-1 6,-1 2,0 4,0 5,0 1,0 1,0 2,0 0,0 0,0 1,0l0 -2c0,-3 0,-5 -1,-6 0,-2 0,-3 -1,-4 0,-1 -1,-1 -2,-2 -1,0 -2,0 -3,0 -1,0 -1,0 -2,0 0,1 1,2 1,3 0,1 0,1 0,2 0,2 0,3 -1,4 -1,0 -2,1 -3,1 -2,0 -3,0 -4,-1 0,-1 -1,-2 -1,-4 0,0 0,-1 1,-2 0,-1 1,-2 2,-2 1,-1 2,-1 3,-2 2,0 3,0 5,0 3,0 5,0 7,1 2,0 3,1 5,2 1,2 2,3 3,5 0,1 1,3 1,5l0 12c0,1 0,1 0,2 0,0 1,0 1,0 1,0 1,0 2,0 1,0 1,-1 2,-2 0,1 0,2 -1,3 0,0 -1,1 -1,2 -1,0 -2,1 -3,1 -1,0 -2,0 -3,0 -1,0 -3,0 -4,-1 -1,-1 -2,-2 -2,-4 -1,2 -2,4 -4,5 -1,1 -3,1 -5,1 -4,0 -7,-1 -9,-2 -2,-2 -3,-4 -3,-6zm14 6c1,0 2,0 2,-1 1,0 1,0 2,-1 0,0 1,-1 1,-1 0,-1 1,-2 1,-2l0 -9c-1,0 -2,0 -3,0 -1,0 -1,0 -1,0 -2,1 -3,1 -4,3 -1,1 -1,3 -1,5 0,2 0,4 1,5 1,0 1,1 2,1z"/>
   <rect fill="url(#id9)" y="51" width="188.064" height="13.6064" rx="11" ry="11"/>
   <rect fill="url(#id10)" y="68" width="188.064" height="13.6064" rx="11" ry="11"/>
  </g>
  <rect fill="none" width="559" height="138"/>
 </g>
</svg>
