

<!-- Creator: CorelDRAW X8 -->
<svg xmlns="http://www.w3.org/2000/svg" xml:space="preserve" x="0" y="0" width="66.0896mm" height="25mm" version="1.1" shape-rendering="geometricPrecision" text-rendering="geometricPrecision" image-rendering="optimizeQuality" fill-rule="evenodd" clip-rule="evenodd"
viewBox="0 0 255 96"
 xmlns:xlink="http://www.w3.org/1999/xlink">
 <defs>
   <linearGradient id="id0" gradientUnits="userSpaceOnUse" x1="0.771945" y1="48.2485" x2="254.328" y2="48.2485">
    <stop offset="0" stop-opacity="1" stop-color="#085F2B"/>
    <stop offset="1" stop-opacity="1" stop-color="#373736"/>
   </linearGradient>
   <linearGradient id="id1" gradientUnits="userSpaceOnUse" x1="0.771945" y1="48.2485" x2="254.328" y2="48.2485">
    <stop offset="0" stop-opacity="1" stop-color="#085F2B"/>
    <stop offset="1" stop-opacity="1" stop-color="#373736"/>
   </linearGradient>
   <linearGradient id="id2" gradientUnits="userSpaceOnUse" x1="0.771945" y1="48.2485" x2="254.328" y2="48.2485">
    <stop offset="0" stop-opacity="1" stop-color="#085F2B"/>
    <stop offset="1" stop-opacity="1" stop-color="#373736"/>
   </linearGradient>
   <linearGradient id="id3" gradientUnits="userSpaceOnUse" x1="0.771945" y1="48.2485" x2="254.328" y2="48.2485">
    <stop offset="0" stop-opacity="1" stop-color="#085F2B"/>
    <stop offset="1" stop-opacity="1" stop-color="#373736"/>
   </linearGradient>
   <linearGradient id="id4" gradientUnits="userSpaceOnUse" x1="0.771945" y1="48.2485" x2="254.328" y2="48.2485">
    <stop offset="0" stop-opacity="1" stop-color="#085F2B"/>
    <stop offset="1" stop-opacity="1" stop-color="#373736"/>
   </linearGradient>
   <linearGradient id="id5" gradientUnits="userSpaceOnUse" x1="0.771945" y1="48.2485" x2="254.328" y2="48.2485">
    <stop offset="0" stop-opacity="1" stop-color="#085F2B"/>
    <stop offset="1" stop-opacity="1" stop-color="#373736"/>
   </linearGradient>
   <linearGradient id="id6" gradientUnits="userSpaceOnUse" x1="0.771945" y1="48.2485" x2="254.328" y2="48.2485">
    <stop offset="0" stop-opacity="1" stop-color="#085F2B"/>
    <stop offset="1" stop-opacity="1" stop-color="#373736"/>
   </linearGradient>
   <linearGradient id="id7" gradientUnits="userSpaceOnUse" x1="0.771945" y1="48.2485" x2="254.328" y2="48.2485">
    <stop offset="0" stop-opacity="1" stop-color="#085F2B"/>
    <stop offset="1" stop-opacity="1" stop-color="#373736"/>
   </linearGradient>
   <linearGradient id="id8" gradientUnits="userSpaceOnUse" x1="0.771945" y1="48.2485" x2="254.328" y2="48.2485">
    <stop offset="0" stop-opacity="1" stop-color="#085F2B"/>
    <stop offset="1" stop-opacity="1" stop-color="#373736"/>
   </linearGradient>
   <linearGradient id="id9" gradientUnits="userSpaceOnUse" x1="0.771945" y1="48.2485" x2="254.328" y2="48.2485">
    <stop offset="0" stop-opacity="1" stop-color="#085F2B"/>
    <stop offset="1" stop-opacity="1" stop-color="#373736"/>
   </linearGradient>
   <linearGradient id="id10" gradientUnits="userSpaceOnUse" x1="0.771945" y1="48.2485" x2="254.328" y2="48.2485">
    <stop offset="0" stop-opacity="1" stop-color="#085F2B"/>
    <stop offset="1" stop-opacity="1" stop-color="#373736"/>
   </linearGradient>
 </defs>
 <g id="Katman_x0020_1">
  <metadata id="CorelCorpID_0Corel-Layer"/>
  <rect fill="none" x="1" width="253.557" height="96.4977"/>
  <path fill="#FEFEFE" d="M0 60l0 -2 1 0c0,0 1,0 1,-1 0,0 0,0 0,0 0,0 1,0 1,-1 0,0 0,-1 0,-1l0 -22c0,0 0,-1 0,-1 0,0 -1,-1 -1,-1 0,0 0,0 0,0 0,0 -1,0 -1,0l-1 0 0 -3 12 0c4,0 9,1 12,5 3,3 4,7 4,11 0,4 -1,9 -4,12 -3,3 -8,4 -12,4l-12 0zm40 -10c0,1 0,3 0,4 0,1 1,2 1,2 0,1 0,1 1,1 0,1 1,1 2,1 1,0 3,-1 4,-1 1,-1 3,-1 4,-3l1 -1 0 2c0,1 0,1 -1,2 0,1 -1,1 -1,2 -1,0 -2,1 -3,1 -1,0 -3,0 -4,0 -2,0 -4,0 -5,0 -2,-1 -3,-2 -4,-3 -2,-1 -2,-2 -3,-4 -1,-2 -1,-3 -1,-5 0,-2 0,-3 1,-5 1,-1 1,-3 2,-4 2,-1 3,-1 4,-2 2,-1 4,-1 6,-1 1,0 2,0 3,1 1,0 2,0 3,1 1,0 2,1 3,2 0,1 1,2 1,3 0,1 -1,2 -1,3 -1,1 -1,2 -2,2 -1,1 -2,1 -3,1 -1,1 -2,1 -3,1 -1,0 -2,0 -3,0 -1,0 -1,0 -2,0zm26 -11c1,-1 1,-1 2,-2 1,0 3,-1 4,-1 1,0 3,0 4,1 1,0 2,1 2,2 1,0 2,1 2,2 1,1 1,2 1,3l0 11c0,0 0,0 0,1 0,0 0,0 0,0 1,0 1,-1 1,-1 1,0 1,0 1,-1l2 -1 0 2c0,1 -1,1 -1,2 0,1 -1,1 -1,2 -1,0 -1,0 -2,1 -1,0 -2,0 -3,0 0,0 -1,0 -2,0 0,-1 -1,-1 -2,-1 0,-1 -1,-1 -1,-2 0,-1 0,-1 0,-2l0 -11c0,-1 0,-1 -1,-2 0,-1 0,-1 0,-2 -1,0 -1,0 -1,0 0,-1 -1,-1 -1,-1 0,0 -1,0 -1,1 0,0 0,0 -1,0 0,1 0,1 0,1 -1,0 -1,1 -1,1l0 13c0,0 0,1 0,1 0,1 0,1 0,1 0,0 1,0 1,0 0,1 1,1 1,1l1 0 0 2 -14 0 0 -2 1 0c0,0 1,0 1,-1 0,0 0,0 0,0 1,0 1,0 1,-1 0,0 0,-1 0,-1l0 -13c0,0 0,-1 0,-1 0,0 0,0 -1,0 0,0 0,0 0,0 -1,1 -1,1 -2,1l-1 2 0 -2c0,-1 0,-2 1,-2 0,-1 0,-1 1,-2 1,0 1,-1 2,-1 1,0 2,0 2,0 1,0 3,0 4,0 0,1 1,1 1,2zm21 2c0,0 0,0 0,0 -1,1 -1,1 -2,1l-1 2 0 -2c0,-1 0,-2 1,-2 0,-1 0,-1 1,-2 1,0 1,-1 2,-1 1,0 2,0 2,0 1,0 2,0 2,0 1,0 2,0 2,1 1,0 1,1 2,1 0,1 0,2 0,3l0 13c0,0 0,1 0,1 0,1 0,1 0,1 0,0 1,0 1,0 0,1 1,1 1,1l1 0 0 2 -14 0 0 -2 1 0c0,0 1,0 1,-1 0,0 0,0 0,0 1,0 1,0 1,-1 0,0 0,-1 0,-1l0 -13c0,0 0,-1 0,-1 0,0 0,0 -1,0zm1 -10c0,-1 1,-1 1,-2 1,0 2,-1 3,-1 0,0 1,1 2,1 0,1 1,1 1,2 0,1 -1,2 -1,3 -1,0 -2,0 -2,0 -1,0 -2,0 -3,0 0,-1 -1,-2 -1,-3zm23 26l6 0c1,0 1,0 1,0 1,0 1,-1 1,-1 0,-1 0,-1 0,-2 1,0 1,-1 1,-2l0 -1 2 0 0 9 -21 0 0 -2 11 -18 -6 0c-1,0 -1,0 -1,0 -1,0 -1,0 -1,1 0,0 0,1 0,1 0,1 0,2 0,3l0 0 -3 0 0 -8 21 0 0 2 -11 18zm16 -25c0,0 -1,1 -1,1 0,0 -1,0 -1,1l-2 1 0 -2c0,0 1,-1 1,-2 0,0 1,-1 1,-1 1,-1 2,-1 2,-1 1,-1 2,-1 3,-1 0,0 1,0 2,0 0,1 1,1 2,1 0,1 1,1 1,2 0,1 0,1 0,2l0 22c0,0 0,1 1,1 0,1 0,1 0,1 0,0 0,0 0,0 0,1 1,1 1,1l1 0 0 2 -13 0 0 -2 0 0c1,0 1,0 2,-1 0,0 0,0 0,0 0,0 0,0 0,-1 0,0 0,-1 0,-1l0 -22c0,0 0,0 0,0 0,0 0,-1 0,-1zm15 9c0,0 -1,0 -1,0 0,1 -1,1 -1,1l-1 2 0 -2c0,-1 0,-2 0,-2 1,-1 1,-1 2,-2 0,0 1,-1 2,-1 0,0 1,0 2,0 1,0 1,0 2,0 1,0 1,0 2,1 0,0 1,1 1,1 1,1 1,2 1,3l0 13c0,0 0,1 0,1 0,1 0,1 0,1 0,0 0,0 0,0 1,1 1,1 2,1l0 0 0 2 -13 0 0 -2 1 0c0,0 0,0 1,-1 0,0 0,0 0,0 0,0 0,0 0,-1 0,0 0,-1 0,-1l0 -13c0,0 0,-1 0,-1 0,0 0,0 0,0zm1 -10c0,-1 0,-1 1,-2 1,0 1,-1 2,-1 1,0 2,1 2,1 1,1 1,1 1,2 0,1 0,2 -1,3 0,0 -1,0 -2,0 -1,0 -1,0 -2,0 -1,-1 -1,-2 -1,-3zm28 16c1,1 2,2 3,2 0,1 1,2 1,2 0,1 1,2 1,2 0,1 -1,2 -1,3 -1,1 -2,2 -3,3 -1,0 -2,1 -3,1 -2,0 -3,0 -5,0 -1,0 -2,0 -3,0 -1,0 -2,-1 -3,-1 -1,-1 -2,-1 -3,-2 -1,-1 -1,-2 -1,-4 0,-1 0,-2 1,-3 1,-1 2,-1 3,-1 0,0 0,0 0,0 0,-1 -1,-1 -1,-2 -1,0 -1,-1 -2,-2 0,0 0,-1 0,-2 0,-1 0,-2 0,-3 1,-1 2,-1 3,-2 0,-1 2,-1 3,-1 1,-1 2,-1 4,-1 1,0 2,0 3,1 2,0 3,0 4,1 1,0 1,1 2,2 1,1 1,2 1,3 0,1 0,2 -1,3 -1,1 -2,1 -3,1zm-3 -7c0,0 0,0 0,0 0,0 0,-1 0,-1 -1,0 -2,0 -2,0 -1,0 -1,0 -2,1 0,0 -1,0 -1,1 0,1 0,1 1,1 0,1 0,1 1,1 0,1 0,1 1,1 0,0 0,1 1,1 0,0 0,0 0,0 0,0 0,-1 0,-2 0,0 0,-1 0,-2 0,0 1,0 1,-1zm-6 11c0,0 0,1 0,2 0,1 0,2 -1,3 0,0 0,0 0,0 0,0 0,0 0,0 0,0 0,1 0,1 0,0 1,0 1,0 0,0 1,0 1,0 0,1 1,1 1,1 1,0 2,-1 2,-1 1,0 1,-1 1,-2 0,0 0,0 0,-1 0,0 0,0 -1,0 0,-1 0,-1 -1,-1 -1,-1 -1,-1 -2,-1 0,-1 -1,-1 -1,-1zm26 -12c0,0 1,-1 2,-2 1,0 2,-1 4,-1 1,0 2,1 4,1 1,1 2,1 3,2 1,2 1,3 2,4 0,2 0,4 0,5 0,2 0,4 0,6 -1,1 -1,2 -2,3 -1,1 -2,2 -4,3 -1,0 -2,0 -4,0 0,0 -1,0 -2,0 -1,0 -1,0 -2,0 0,-1 0,-1 0,-1l0 4c0,1 0,1 0,2 0,0 0,1 0,1 0,0 0,0 1,0 0,0 0,0 1,0l1 0 0 2 -14 0 0 -2 1 0c0,0 1,0 1,0 0,0 0,0 0,0 1,0 1,-1 1,-1 0,-1 0,-1 0,-2l0 -21c0,0 0,-1 -1,-1 0,0 0,0 0,0 0,0 0,0 0,0 -1,1 -1,1 -2,1l-1 2 0 -2c0,-1 0,-2 1,-2 0,-1 0,-1 1,-2 0,0 1,-1 2,-1 0,0 1,0 2,0 0,0 1,0 2,0 0,0 1,1 1,1 1,0 1,1 1,1 1,0 1,0 1,0zm31 -3c1,0 3,0 5,1 1,1 2,1 3,2 2,2 2,3 3,4 1,2 1,4 1,5 0,2 0,4 -1,5 -1,2 -1,3 -3,4 -1,1 -2,2 -3,3 -2,0 -4,0 -5,0 -2,0 -4,0 -5,0 -2,-1 -3,-2 -4,-3 -1,-1 -2,-2 -3,-4 0,-1 -1,-3 -1,-5 0,-1 1,-3 1,-5 1,-1 2,-2 3,-4 1,-1 2,-1 4,-2 1,-1 3,-1 5,-1zm25 3c0,0 1,-1 2,-1 1,-1 2,-1 3,-1 1,0 2,0 3,0 0,0 1,1 1,1 1,1 1,1 2,2 0,0 0,1 0,2 0,1 0,2 -1,3 -1,0 -2,1 -3,1 -1,0 -1,0 -2,-1 0,0 -1,0 -1,-1 0,0 -1,-1 -1,-1 0,-1 0,-1 0,-2 0,0 0,-1 0,-1 0,0 0,0 -1,0 0,1 -1,1 -1,2 0,0 0,0 -1,1l0 12c0,0 0,1 0,1 0,1 0,1 1,1 0,0 0,0 0,0 0,1 1,1 1,1l1 0 0 2 -14 0 0 -2 1 0c0,0 1,0 1,-1 0,0 1,0 1,0 0,0 0,0 0,-1 0,0 0,-1 0,-1l0 -13c0,0 0,-1 0,-1 0,0 0,0 0,0 -1,0 -1,0 -1,0 -1,1 -1,1 -1,1l-2 2 0 -2c0,-1 1,-2 1,-2 0,-1 1,-1 1,-2 1,0 1,-1 2,-1 1,0 2,0 3,0 1,0 2,0 3,1 1,0 1,0 2,1zm-233 -8l0 26 1 0c1,0 2,0 3,0 1,-1 1,-2 2,-2 1,-2 1,-3 2,-5 0,-2 0,-4 0,-6 0,-2 0,-4 0,-6 -1,-2 -1,-3 -2,-4 -1,-1 -1,-2 -2,-2 -1,-1 -2,-1 -3,-1l-1 0zm29 17c1,-1 1,-1 2,-1 0,0 1,0 1,0 1,-1 1,-1 2,-2 0,0 0,-1 0,-2 0,-1 0,-1 0,-2 0,0 0,-1 -1,-1 0,0 0,-1 0,-1 -1,0 -1,0 -1,0 0,0 -1,0 -1,0 0,1 -1,1 -1,2 0,0 -1,2 -1,3 0,1 0,2 0,4zm149 8c0,1 1,1 1,1 1,0 1,1 2,1 0,0 0,-1 1,-1 0,0 0,0 1,-1 0,-1 0,-2 0,-3 0,-1 1,-3 1,-4 0,-2 -1,-4 -1,-5 0,-1 0,-2 0,-3 -1,-1 -1,-1 -1,-1 0,-1 -1,-1 -1,-1 0,0 -1,0 -1,1 0,0 -1,0 -1,0 0,1 0,1 0,1 -1,0 -1,1 -1,1l0 14zm30 2c0,0 0,0 1,0 0,-1 0,-1 1,-2 0,-1 0,-2 1,-3 0,-1 0,-3 0,-5 0,-1 0,-3 0,-5 -1,-1 -1,-2 -1,-3 -1,0 -1,-1 -1,-1 -1,0 -1,0 -1,0 -1,0 -1,0 -1,0 -1,0 -1,1 -2,1 0,1 0,2 0,3 -1,2 -1,4 -1,5 0,2 0,4 1,5 0,1 0,2 0,3 1,1 1,1 2,2 0,0 0,0 1,0z"/>
  <path fill="url(#id0)" fill-rule="nonzero" d="M1 59l0 -1c0,0 1,0 1,0 1,0 1,0 1,0 0,-1 0,-1 0,-2 0,0 0,-1 0,-1l0 -22c0,0 0,-1 0,-1 0,-1 0,-1 0,-1 0,-1 0,-1 -1,-1 0,0 -1,0 -1,0l0 -1 11 0c5,0 9,1 11,4 3,3 5,6 5,11 0,5 -2,8 -5,11 -2,3 -6,4 -11,4l-11 0zm11 -1c1,0 2,0 3,-1 1,0 2,-1 3,-2 0,-1 1,-3 1,-4 1,-2 1,-4 1,-7 0,-3 0,-5 -1,-7 0,-1 -1,-3 -1,-4 -1,-1 -2,-2 -3,-2 -1,-1 -2,-1 -3,-1l-2 0 0 28 2 0z"/>
  <path id="1" fill="url(#id1)" fill-rule="nonzero" d="M44 60c-2,0 -4,-1 -5,-1 -2,-1 -3,-2 -4,-3 -1,-1 -2,-2 -2,-3 -1,-2 -1,-3 -1,-5 0,-2 0,-3 1,-5 0,-1 1,-2 2,-3 1,-1 2,-2 4,-2 1,-1 3,-1 5,-1 1,0 2,0 3,0 1,1 2,1 3,1 1,1 1,2 2,2 1,1 1,2 1,3 0,1 0,2 -1,3 0,0 -1,1 -2,2 0,0 -1,0 -2,1 -1,0 -2,0 -3,0 -1,0 -2,0 -3,0 -1,0 -2,0 -3,0 0,2 0,4 0,5 1,1 1,2 1,3 1,0 1,1 2,1 0,0 1,0 2,0 1,0 3,0 4,0 2,-1 3,-2 4,-3 0,1 0,1 0,2 -1,0 -1,1 -2,1 0,1 -1,1 -2,1 -1,1 -3,1 -4,1zm-5 -12c1,0 2,0 3,0 0,0 1,0 2,-1 0,0 1,-1 1,-1 1,-1 1,-2 1,-3 0,-1 0,-1 0,-2 0,0 -1,-1 -1,-1 0,-1 0,-1 -1,-1 0,-1 -1,-1 -1,-1 -1,0 -1,0 -2,1 0,0 0,0 -1,1 0,1 0,2 0,3 -1,2 -1,3 -1,5z"/>
  <path id="2" fill="url(#id2)" fill-rule="nonzero" d="M58 40c0,0 0,0 -1,1 0,0 -1,0 -1,1 0,-1 0,-1 0,-2 1,0 1,-1 2,-1 0,-1 1,-1 1,-1 1,0 2,-1 2,-1 1,0 2,1 3,1 1,1 2,1 2,2 1,-1 2,-2 3,-2 1,-1 2,-1 3,-1 1,0 2,0 3,1 1,0 2,1 3,1 1,1 1,2 2,2 0,1 0,2 0,3l0 11c0,0 0,1 1,1 0,0 0,0 0,0 1,0 1,0 1,0 1,0 1,-1 2,-1 0,0 0,1 -1,2 0,0 0,1 -1,1 0,0 -1,1 -1,1 -1,0 -2,0 -3,0 0,0 -1,0 -1,0 -1,0 -2,-1 -2,-1 -1,0 -1,-1 -1,-1 0,-1 -1,-2 -1,-2l0 -11c0,-1 0,-2 0,-2 0,-1 0,-2 -1,-2 0,-1 0,-1 -1,-1 0,0 -1,0 -1,0 0,0 -1,0 -1,0 -1,0 -1,0 -1,1 -1,0 -1,0 -1,1 0,0 -1,1 -1,1l0 13c0,0 0,1 0,1 0,1 0,1 1,2 0,0 0,0 0,0 1,0 1,0 2,0l0 1 -12 0 0 -1c1,0 1,0 1,0 1,0 1,0 1,0 0,-1 0,-1 0,-2 0,0 0,-1 0,-1l0 -13c0,-1 0,-1 0,-1 0,-1 0,-1 -1,-1z"/>
  <path id="3" fill="url(#id3)" fill-rule="nonzero" d="M87 40c0,0 0,0 -1,1 0,0 -1,0 -1,1 0,-1 0,-1 0,-2 1,0 1,-1 1,-1 1,-1 2,-1 2,-1 1,0 2,-1 2,-1 1,0 2,1 2,1 1,0 1,0 2,0 0,1 1,1 1,2 0,0 0,1 0,2l0 13c0,0 0,1 0,1 0,1 0,1 1,2 0,0 0,0 0,0 1,0 1,0 2,0l0 1 -12 0 0 -1c1,0 1,0 1,0 1,0 1,0 1,0 0,-1 0,-1 0,-2 0,0 0,-1 0,-1l0 -13c0,-1 0,-1 0,-1 0,-1 0,-1 -1,-1zm2 -9c0,0 0,-1 1,-1 0,-1 1,-1 2,-1 0,0 1,0 1,1 1,0 1,1 1,1 0,1 0,2 -1,2 0,0 -1,1 -1,1 -1,0 -2,-1 -2,-1 -1,0 -1,-1 -1,-2z"/>
  <path id="4" fill="url(#id4)" fill-rule="nonzero" d="M106 39c-1,0 -2,0 -2,0 0,1 -1,1 -1,2 0,0 0,1 0,1 0,1 0,2 0,3l-1 0 0 -7 19 0 0 1 -12 19 8 0c1,0 1,0 2,-1 0,0 1,0 1,-1 0,0 0,-1 0,-2 0,0 0,-1 0,-2l1 0 0 7 -20 0 0 -1 13 -19 -8 0z"/>
  <path id="5" fill="url(#id5)" fill-rule="nonzero" d="M127 32c-1,0 -1,0 -1,0 -1,0 -1,1 -2,1 0,0 0,-1 1,-1 0,-1 0,-1 1,-2 0,0 1,0 2,-1 0,0 1,0 2,0 0,0 1,0 2,0 0,0 1,1 1,1 1,0 1,1 1,1 1,1 1,1 1,2l0 22c0,0 0,1 0,1 0,1 0,1 0,2 0,0 0,0 1,0 0,0 1,0 1,0l0 1 -12 0 0 -1c1,0 1,0 2,0 0,0 0,0 1,0 0,-1 0,-1 0,-2 0,0 0,-1 0,-1l0 -22c0,0 0,-1 0,-1 -1,0 -1,0 -1,0z"/>
  <path id="6" fill="url(#id6)" fill-rule="nonzero" d="M142 40c0,0 -1,0 -1,1 -1,0 -1,0 -2,1 0,-1 1,-1 1,-2 0,0 1,-1 1,-1 1,-1 1,-1 2,-1 1,0 1,-1 2,-1 1,0 1,1 2,1 0,0 1,0 1,0 1,1 1,1 2,2 0,0 0,1 0,2l0 13c0,0 0,1 0,1 0,1 0,1 0,2 0,0 1,0 1,0 0,0 1,0 2,0l0 1 -12 0 0 -1c0,0 1,0 1,0 0,0 1,0 1,0 0,-1 0,-1 0,-2 0,0 0,-1 0,-1l0 -13c0,-1 0,-1 0,-1 0,-1 -1,-1 -1,-1zm2 -9c0,0 0,-1 0,-1 1,-1 1,-1 2,-1 1,0 1,0 2,1 0,0 0,1 0,1 0,1 0,2 0,2 -1,0 -1,1 -2,1 -1,0 -1,-1 -2,-1 0,0 0,-1 0,-2z"/>
  <path id="7" fill="url(#id7)" fill-rule="nonzero" d="M161 53c0,1 0,2 0,2 0,1 -1,1 -1,1 0,0 0,0 0,0 0,1 0,1 1,1 0,1 0,1 1,1 0,0 1,0 1,0 0,0 1,0 1,0 1,0 2,0 3,0 1,-1 1,-2 1,-3 0,0 0,-1 0,-1 0,0 -1,-1 -1,-1 0,0 -1,-1 -2,-1 0,0 -1,-1 -2,-1 -1,-1 -2,-2 -3,-2 -1,-1 -2,-2 -3,-2 0,-1 -1,-1 -1,-2 0,-1 -1,-1 -1,-2 0,-1 1,-2 1,-2 1,-1 1,-2 2,-2 1,-1 2,-1 3,-2 1,0 2,0 4,0 1,0 2,0 3,0 1,1 2,1 3,2 1,0 2,1 2,1 1,1 1,2 1,3 0,1 0,2 -1,3 0,0 -1,1 -2,1 -1,0 -2,-1 -2,-1 -1,-1 -1,-2 -1,-3 0,0 0,-1 0,-1 0,-1 0,-1 1,-1 0,-1 0,-1 0,-1 0,0 0,-1 -1,-1 -1,-1 -1,-1 -2,-1 -1,0 -2,0 -2,1 -1,1 -1,1 -1,2 0,1 0,1 0,2 0,0 1,1 1,1 0,0 1,1 1,1 1,0 1,0 1,0 2,1 4,2 5,3 1,1 2,1 2,2 1,0 1,1 1,2 1,0 1,1 1,1 0,1 0,2 -1,3 -1,1 -1,1 -2,2 -1,0 -2,1 -4,1 -1,1 -2,1 -4,1 -1,0 -2,0 -3,-1 -1,0 -2,0 -3,-1 -1,0 -2,-1 -2,-2 -1,-1 -1,-2 -1,-3 0,-1 0,-2 1,-2 0,-1 1,-1 2,-1 1,0 2,0 3,0 0,1 0,2 0,3z"/>
  <path id="8" fill="url(#id8)" fill-rule="nonzero" d="M178 42c0,-1 0,-1 0,-2 0,0 1,-1 1,-1 1,-1 1,-1 2,-1 1,0 1,-1 2,-1 0,0 1,1 1,1 1,0 1,0 2,1 0,0 1,0 1,1 0,0 0,1 0,1 0,0 0,0 0,0 0,0 0,0 1,0 0,-1 1,-2 2,-3 1,-1 2,-1 4,-1 1,0 2,0 3,1 1,0 2,1 3,2 1,1 1,2 2,4 0,1 1,3 1,4 0,2 -1,4 -1,5 -1,2 -1,3 -2,4 -1,1 -2,1 -3,2 -1,0 -2,1 -4,1 0,0 -1,0 -2,-1 0,0 -1,0 -1,0 -1,0 -1,0 -1,-1 0,0 -1,0 -1,0l0 5c0,1 0,2 0,2 0,0 0,1 1,1 0,0 0,1 0,1 1,0 1,0 2,0l0 1 -12 0 0 -1c1,0 1,0 1,0 1,0 1,-1 1,-1 0,0 0,-1 0,-1 0,0 0,-1 0,-2l0 -21c0,-1 0,-1 0,-1 0,-1 0,-1 -1,-1 0,0 0,0 -1,1 0,0 -1,0 -1,1zm10 15c1,0 1,0 2,1 0,0 1,0 2,0 0,0 1,0 1,0 1,0 1,-1 1,-2 1,0 1,-1 1,-2 0,-2 0,-3 0,-5 0,-3 0,-4 0,-6 0,-1 0,-2 -1,-3 0,0 0,-1 -1,-1 0,0 -1,0 -1,0 -1,0 -1,0 -1,0 -1,0 -1,0 -1,1 -1,0 -1,0 -1,1 0,0 -1,1 -1,1l0 15z"/>
  <path id="9" fill="url(#id9)" fill-rule="nonzero" d="M219 59c0,0 1,-1 1,-1 1,0 1,-1 1,-1 1,-1 1,-2 1,-4 1,-1 1,-3 1,-5 0,-2 0,-3 -1,-5 0,-1 0,-2 -1,-3 0,-1 0,-1 -1,-1 0,-1 -1,-1 -1,-1 -1,0 -1,0 -2,1 0,0 -1,0 -1,1 -1,1 -1,2 -1,3 0,2 -1,3 -1,5 0,2 1,4 1,5 0,2 0,3 1,4 0,0 1,1 1,1 1,0 1,1 2,1zm0 -22c1,0 3,0 4,1 2,0 3,1 4,2 1,1 2,2 2,4 1,1 1,3 1,4 0,2 0,4 -1,5 0,1 -1,3 -2,4 -1,1 -2,1 -4,2 -1,0 -3,1 -4,1 -2,0 -4,-1 -5,-1 -2,-1 -3,-1 -4,-2 -1,-1 -2,-3 -2,-4 -1,-1 -1,-3 -1,-5 0,-1 0,-3 1,-4 0,-2 1,-3 2,-4 1,-1 2,-2 4,-2 1,-1 3,-1 5,-1z"/>
  <path id="10" fill="url(#id10)" fill-rule="nonzero" d="M236 40c-1,0 -1,0 -2,1 0,0 0,0 -1,1 0,-1 0,-1 1,-2 0,0 0,-1 1,-1 0,-1 1,-1 1,-1 1,0 2,-1 3,-1 1,0 2,1 3,1 0,1 1,1 1,2 1,0 2,-1 3,-2 1,0 2,-1 3,-1 1,0 2,1 2,1 1,0 1,0 2,1 0,0 1,0 1,1 0,0 0,1 0,2 0,1 0,1 -1,2 0,1 -1,1 -2,1 -1,0 -1,0 -2,0 0,-1 0,-1 -1,-1 0,-1 0,-1 0,-1 0,-1 0,-1 0,-2 0,0 0,-1 0,-1 0,-1 0,-1 1,-1 -1,0 -1,0 -2,0 0,0 -1,0 -1,1 -1,0 -1,1 -2,1 0,0 0,1 0,1l0 13c0,0 0,1 0,1 0,1 0,1 0,2 0,0 0,0 1,0 0,0 0,0 1,0l0 1 -12 0 0 -1c1,0 1,0 2,0 0,0 0,0 0,0 1,-1 1,-1 1,-2 0,0 0,-1 0,-1l0 -13c0,-1 0,-1 -1,-1 0,-1 0,-1 0,-1z"/>
 </g>
</svg>
