

<!-- Creator: CorelDRAW X8 -->
<svg xmlns="http://www.w3.org/2000/svg" xml:space="preserve" x="0" y="0" width="79.2961mm" height="25mm" version="1.1" shape-rendering="geometricPrecision" text-rendering="geometricPrecision" image-rendering="optimizeQuality" fill-rule="evenodd" clip-rule="evenodd"
viewBox="0 0 362 114"
 xmlns:xlink="http://www.w3.org/1999/xlink">
 <defs>
   <linearGradient id="id0" gradientUnits="userSpaceOnUse" x1="0.912129" y1="57.0104" x2="360.746" y2="57.0104">
    <stop offset="0" stop-opacity="1" stop-color="#E42D24"/>
    <stop offset="1" stop-opacity="1" stop-color="#363635"/>
   </linearGradient>
   <linearGradient id="id1" gradientUnits="userSpaceOnUse" x1="0.912129" y1="57.0104" x2="360.746" y2="57.0104">
    <stop offset="0" stop-opacity="1" stop-color="#E42D24"/>
    <stop offset="1" stop-opacity="1" stop-color="#363635"/>
   </linearGradient>
   <linearGradient id="id2" gradientUnits="userSpaceOnUse" x1="0.912129" y1="57.0104" x2="360.746" y2="57.0104">
    <stop offset="0" stop-opacity="1" stop-color="#E42D24"/>
    <stop offset="1" stop-opacity="1" stop-color="#363635"/>
   </linearGradient>
   <linearGradient id="id3" gradientUnits="userSpaceOnUse" x1="0.912129" y1="57.0104" x2="360.746" y2="57.0104">
    <stop offset="0" stop-opacity="1" stop-color="#E42D24"/>
    <stop offset="1" stop-opacity="1" stop-color="#363635"/>
   </linearGradient>
   <linearGradient id="id4" gradientUnits="userSpaceOnUse" x1="0.912129" y1="57.0104" x2="360.746" y2="57.0104">
    <stop offset="0" stop-opacity="1" stop-color="#E42D24"/>
    <stop offset="1" stop-opacity="1" stop-color="#363635"/>
   </linearGradient>
   <linearGradient id="id5" gradientUnits="userSpaceOnUse" x1="0.912129" y1="57.0104" x2="360.746" y2="57.0104">
    <stop offset="0" stop-opacity="1" stop-color="#E42D24"/>
    <stop offset="1" stop-opacity="1" stop-color="#363635"/>
   </linearGradient>
   <linearGradient id="id6" gradientUnits="userSpaceOnUse" x1="0.912129" y1="57.0104" x2="360.746" y2="57.0104">
    <stop offset="0" stop-opacity="1" stop-color="#E42D24"/>
    <stop offset="1" stop-opacity="1" stop-color="#363635"/>
   </linearGradient>
   <linearGradient id="id7" gradientUnits="userSpaceOnUse" x1="0.912129" y1="57.0104" x2="360.746" y2="57.0104">
    <stop offset="0" stop-opacity="1" stop-color="#E42D24"/>
    <stop offset="1" stop-opacity="1" stop-color="#363635"/>
   </linearGradient>
   <linearGradient id="id8" gradientUnits="userSpaceOnUse" x1="0.912129" y1="57.0104" x2="360.746" y2="57.0104">
    <stop offset="0" stop-opacity="1" stop-color="#E42D24"/>
    <stop offset="1" stop-opacity="1" stop-color="#363635"/>
   </linearGradient>
   <linearGradient id="id9" gradientUnits="userSpaceOnUse" x1="0.912129" y1="57.0104" x2="360.746" y2="57.0104">
    <stop offset="0" stop-opacity="1" stop-color="#E42D24"/>
    <stop offset="1" stop-opacity="1" stop-color="#363635"/>
   </linearGradient>
   <linearGradient id="id10" gradientUnits="userSpaceOnUse" x1="0.912129" y1="57.0104" x2="360.746" y2="57.0104">
    <stop offset="0" stop-opacity="1" stop-color="#E42D24"/>
    <stop offset="1" stop-opacity="1" stop-color="#363635"/>
   </linearGradient>
   <linearGradient id="id11" gradientUnits="userSpaceOnUse" x1="0.912129" y1="57.0104" x2="360.746" y2="57.0104">
    <stop offset="0" stop-opacity="1" stop-color="#E42D24"/>
    <stop offset="1" stop-opacity="1" stop-color="#363635"/>
   </linearGradient>
   <linearGradient id="id12" gradientUnits="userSpaceOnUse" x1="0.912129" y1="57.0104" x2="360.746" y2="57.0104">
    <stop offset="0" stop-opacity="1" stop-color="#E42D24"/>
    <stop offset="1" stop-opacity="1" stop-color="#363635"/>
   </linearGradient>
   <linearGradient id="id13" gradientUnits="userSpaceOnUse" x1="0.912129" y1="57.0104" x2="360.746" y2="57.0104">
    <stop offset="0" stop-opacity="1" stop-color="#E42D24"/>
    <stop offset="1" stop-opacity="1" stop-color="#363635"/>
   </linearGradient>
 </defs>
 <g id="Katman_x0020_1">
  <metadata id="CorelCorpID_0Corel-Layer"/>
  <rect fill="none" width="362" height="114"/>
  <path fill="#FEFEFE" d="M21 64l0 -10c0,0 -1,0 -1,0 0,0 0,0 -1,0 0,0 0,0 0,0l-1 0 0 -3 16 0 0 3 -1 0c0,0 -1,0 -1,0 0,0 0,0 -1,0 0,0 0,0 0,0l0 11c0,0 0,0 0,0 0,1 1,1 1,1 0,0 1,-1 1,-1 1,0 1,0 2,-1l1 -1 0 2c0,1 0,2 0,2 -1,1 -1,2 -2,2 -1,1 -2,1 -2,1 -1,1 -2,1 -3,1 -1,0 -2,0 -2,0 -1,-1 -2,-1 -2,-1 -1,-1 -2,-1 -2,-2 0,0 -1,0 -1,0 0,1 -1,1 -2,2 -2,1 -4,1 -5,1 -2,0 -4,0 -6,-1 -2,-1 -3,-2 -5,-4 -1,-2 -2,-4 -3,-6 -1,-2 -1,-5 -1,-8 0,-3 0,-6 1,-8 1,-2 2,-5 4,-6 1,-2 3,-3 5,-4 2,-1 5,-1 7,-1 1,0 3,0 4,0 2,0 3,1 4,1 1,1 2,2 3,3 1,2 1,3 1,5 0,1 0,1 0,2 0,0 -1,1 -1,1 -1,1 -1,1 -2,2 -1,0 -2,0 -3,0 -1,0 -3,0 -4,-2 -1,-1 -1,-3 -1,-4 0,-2 0,-3 0,-4 0,0 1,-1 1,-1 0,0 0,0 0,0 0,0 -1,0 -1,0 -1,0 -2,0 -3,0 -1,1 -1,2 -2,3 0,0 -1,2 -1,3 0,1 -1,2 -1,3 0,2 0,3 0,4 0,1 0,2 0,3 0,3 0,6 0,8 1,2 1,3 2,5 0,1 1,2 2,2 0,0 1,1 2,1 0,0 1,0 1,-1 0,0 1,0 1,0 1,-1 1,-1 1,-1 0,-1 1,-1 1,-2zm27 -5c0,2 0,3 0,5 0,1 0,2 1,3 0,0 0,0 1,1 1,0 1,0 2,0 2,0 3,0 5,-1 2,-1 3,-2 5,-3l1 -1 0 2c0,1 0,2 -1,2 0,1 -1,2 -2,2 -1,1 -2,1 -3,2 -2,0 -3,0 -5,0 -2,0 -4,0 -6,-1 -2,0 -3,-1 -5,-3 -1,-1 -2,-3 -3,-4 -1,-2 -1,-4 -1,-6 0,-2 0,-4 1,-6 1,-2 2,-3 3,-5 1,-1 3,-2 5,-2 2,-1 4,-1 6,-1 1,0 2,0 4,0 1,0 2,1 3,1 2,1 3,2 3,3 1,1 2,3 2,4 0,1 -1,2 -1,3 -1,1 -2,2 -3,3 -1,0 -2,1 -3,1 -1,0 -2,1 -4,1 -1,0 -2,0 -3,0 -1,0 -2,0 -2,0zm31 -13c0,-1 1,-2 2,-2 1,-1 3,-1 5,-1 1,0 2,0 4,0 1,1 2,2 3,3 1,0 2,1 2,2 1,2 1,3 1,4l0 13c0,0 0,0 0,1 0,0 0,0 0,0 1,0 1,-1 1,-1 1,0 1,0 2,-1l1 -1 0 2c0,1 0,1 0,2 -1,1 -1,1 -2,2 -1,1 -1,1 -2,1 -1,1 -2,1 -3,1 -1,0 -2,0 -2,-1 -1,0 -2,0 -3,-1 0,0 -1,-1 -1,-2 -1,-1 -1,-1 -1,-2l0 -13c0,-1 0,-2 0,-3 0,0 -1,-1 -1,-2 0,0 -1,0 -1,0 0,-1 -1,-1 -1,-1 0,0 -1,0 -1,1 0,0 -1,0 -1,0 0,1 -1,1 -1,2 0,0 0,0 0,1l0 15c0,0 0,1 0,1 0,1 0,1 0,1 0,1 0,1 0,1 1,0 1,0 2,0l1 0 0 3 -16 0 0 -3 1 0c0,0 1,0 1,0 0,0 0,0 0,-1 1,0 1,0 1,-1 0,0 0,-1 0,-1l0 -16c0,0 0,0 0,-1 0,0 0,0 -1,0 0,0 0,1 -1,1 0,0 -1,0 -1,1l-2 1 0 -2c0,-1 1,-1 1,-2 1,-1 1,-1 2,-2 0,-1 1,-1 2,-1 1,-1 2,-1 3,-1 1,0 2,1 4,1 0,1 1,1 2,2zm35 25l0 0c1,0 1,0 1,1 1,0 2,0 2,0 1,1 1,1 2,2 0,0 0,1 0,2 0,1 0,2 0,2 -1,1 -1,1 -2,2 -1,0 -1,0 -2,0 -1,1 -2,1 -2,1 -1,0 -1,0 -2,0 0,0 -1,-1 -1,-1l-1 0 0 -4 2 1c0,0 0,0 0,0 0,1 1,1 1,1 0,0 1,-1 1,-1 1,0 1,-1 1,-1 0,0 0,-1 -1,-1 0,-1 -1,-1 -1,-1l-1 0 0 -3c-3,-1 -5,-3 -7,-5 -2,-2 -2,-6 -2,-9 0,-4 1,-8 3,-10 3,-3 7,-4 11,-4 2,0 3,0 5,0 1,1 2,1 3,2 1,0 1,1 2,2 0,1 0,1 0,2 0,1 0,3 -1,4 -1,0 -2,1 -3,1 -1,0 -3,-1 -4,-2 -1,-1 -1,-2 -1,-3 0,-1 0,-2 0,-2 0,-1 1,-1 1,-1 0,0 0,0 0,0 -1,0 -1,0 -2,0 -1,0 -1,1 -2,2 0,1 -1,2 -1,3 -1,2 -1,4 -1,6 0,2 0,4 1,6 0,1 1,2 1,3 1,1 1,1 2,2 1,0 1,0 2,0 1,0 2,0 3,-1 2,-1 3,-2 4,-3l2 -1 0 2c0,1 -1,1 -1,2 0,1 -1,2 -2,2 -1,1 -2,1 -3,2 -2,0 -3,0 -5,0 0,0 -1,0 -2,0zm17 -33c0,0 0,0 -1,1 0,0 -1,0 -1,1l-2 1 0 -2c0,-1 1,-1 1,-2 0,-1 1,-2 2,-2 0,-1 1,-1 2,-1 1,-1 2,-1 3,-1 1,0 1,0 2,0 1,1 2,1 2,2 1,0 2,1 2,1 0,1 1,2 1,3l0 26c0,0 0,1 0,1 0,1 0,1 0,1 0,1 0,1 0,1 1,0 1,0 2,0l1 0 0 3 -16 0 0 -3 1 0c0,0 1,0 1,0 0,0 0,0 0,-1 1,0 1,0 1,-1 0,0 0,-1 0,-1l0 -26c0,0 0,-1 0,-1 0,0 -1,0 -1,0zm26 21c0,2 0,3 0,5 0,1 1,2 1,3 0,0 1,0 1,1 1,0 2,0 2,0 2,0 4,0 5,-1 2,-1 4,-2 5,-3l1 -1 0 2c0,1 0,2 0,2 -1,1 -2,2 -3,2 -1,1 -2,1 -3,2 -1,0 -3,0 -4,0 -3,0 -5,0 -7,-1 -2,0 -3,-1 -5,-3 -1,-1 -2,-3 -3,-4 0,-2 -1,-4 -1,-6 0,-2 1,-4 1,-6 1,-2 2,-3 3,-5 2,-1 3,-2 5,-2 2,-1 4,-1 6,-1 1,0 3,0 4,0 1,0 2,1 4,1 1,1 2,2 3,3 1,1 1,3 1,4 0,1 0,2 -1,3 -1,1 -1,2 -2,3 -1,0 -3,1 -4,1 -1,0 -2,1 -3,1 -2,0 -3,0 -4,0 -1,0 -1,0 -2,0zm31 -13c1,-1 2,-1 2,-2 2,0 3,-1 5,-1 1,0 2,0 2,1 1,0 2,0 3,1 0,0 1,1 1,2 0,0 1,1 1,2 0,1 -1,3 -2,3 -1,1 -2,2 -3,2 -1,0 -2,0 -3,-1 0,0 -1,0 -1,-1 0,0 -1,-1 -1,-2 0,0 0,-1 0,-1 0,-1 0,-2 0,-2 0,0 0,0 -1,1 0,0 -1,0 -1,1 -1,0 -1,1 -1,1l0 15c0,0 0,1 0,1 0,1 0,1 0,1 0,1 0,1 1,1 0,0 1,0 1,0l1 0 0 3 -16 0 0 -3 1 0c0,0 1,0 1,0 0,0 1,0 1,-1 0,0 0,0 0,-1 0,0 0,-1 0,-1l0 -16c0,0 0,0 0,-1 0,0 0,0 0,0 -1,0 -1,1 -1,1 -1,0 -1,0 -2,1l-1 1 0 -2c0,-1 0,-1 0,-2 1,-1 1,-1 2,-2 1,-1 1,-1 2,-1 1,-1 2,-1 3,-1 2,0 3,1 4,1 1,1 2,1 2,2zm26 -2c0,0 1,0 1,0 0,-1 1,-1 2,-1 1,0 2,0 3,0 1,0 3,0 4,1 2,0 3,1 4,2 1,2 2,3 2,5 1,2 1,4 1,6 0,2 0,4 -1,6 0,2 -1,3 -2,5 -1,1 -2,2 -3,2 -2,1 -3,1 -5,1 -2,0 -3,0 -5,-1 -1,-1 -2,-2 -2,-2 0,0 0,0 0,0 -1,0 -1,1 -2,1 0,1 -1,1 -2,1 0,1 -1,1 -2,1 -1,0 -1,0 -2,0l-1 -1 0 -31c0,0 0,-1 0,-1 0,0 0,0 0,0 0,0 -1,0 -1,1 0,0 -1,0 -1,1l-2 1 0 -2c0,-1 0,-2 1,-2 0,-1 1,-2 1,-2 1,-1 2,-1 3,-1 1,-1 2,-1 3,-1 0,0 1,0 2,0 1,1 1,1 2,1 1,1 1,2 2,2 0,1 0,2 0,3l0 5zm23 4c0,0 0,1 -1,1 0,0 -1,0 -1,1l-2 1 0 -2c0,-1 1,-1 1,-2 0,-1 1,-1 2,-2 0,-1 1,-1 2,-1 1,-1 2,-1 3,-1 1,0 1,0 2,1 1,0 2,0 2,1 1,0 2,1 2,2 0,0 1,1 1,2l0 16c0,0 0,1 0,1 0,1 0,1 0,1 0,1 0,1 0,1 1,0 1,0 2,0l1 0 0 3 -16 0 0 -3 1 0c0,0 1,0 1,0 0,0 0,0 0,-1 1,0 1,0 1,-1 0,0 0,-1 0,-1l0 -16c0,0 0,0 0,-1 -1,0 -1,0 -1,0zm1 -11c0,-1 1,-2 1,-3 1,0 2,-1 3,-1 1,0 2,1 3,1 0,1 1,2 1,3 0,1 -1,2 -1,3 -1,0 -2,1 -3,1 -1,0 -2,-1 -3,-1 0,-1 -1,-2 -1,-3zm26 9c1,-1 1,-1 2,-2 2,0 3,-1 5,-1 0,0 1,0 2,1 1,0 2,0 2,1 1,0 1,1 2,2 0,0 0,1 0,2 0,1 0,3 -1,3 -1,1 -2,2 -4,2 0,0 -1,0 -2,-1 0,0 -1,0 -1,-1 0,0 -1,-1 -1,-2 0,0 0,-1 0,-1 0,-1 0,-2 0,-2 0,0 -1,0 -1,1 -1,0 -1,0 -1,1 -1,0 -1,1 -1,1l0 15c0,0 0,1 0,1 0,1 0,1 0,1 0,1 0,1 0,1 1,0 1,0 2,0l1 0 0 3 -16 0 0 -3 1 0c0,0 1,0 1,0 0,0 0,0 1,-1 0,0 0,0 0,-1 0,0 0,-1 0,-1l0 -16c0,0 0,0 0,-1 0,0 0,0 -1,0 0,0 0,1 -1,1 0,0 -1,0 -1,1l-2 1 0 -2c0,-1 1,-1 1,-2 1,-1 1,-1 2,-2 0,-1 1,-1 2,-1 1,-1 2,-1 3,-1 1,0 3,1 4,1 1,1 1,1 2,2zm16 -8c0,0 -1,0 -1,1 -1,0 -1,0 -1,1l-2 1 0 -2c0,-1 0,-1 1,-2 0,-1 1,-2 1,-2 1,-1 2,-1 3,-1 0,-1 1,-1 2,-1 1,0 2,0 3,0 1,1 1,1 2,2 1,0 1,1 2,1 0,1 0,2 0,3l0 26c0,0 0,1 0,1 0,1 0,1 0,1 1,1 1,1 1,1 0,0 1,0 1,0l1 0 0 3 -16 0 0 -3 1 0c1,0 1,0 2,0 0,0 0,0 0,-1 0,0 0,0 0,-1 0,0 0,-1 0,-1l0 -26c0,0 0,-1 0,-1 0,0 0,0 0,0zm18 10c0,0 -1,1 -1,1 -1,0 -1,0 -2,1l-1 1 0 -2c0,-1 0,-1 1,-2 0,-1 1,-1 1,-2 1,-1 2,-1 3,-1 0,-1 1,-1 2,-1 1,0 2,0 3,1 1,0 1,0 2,1 1,0 1,1 2,2 0,0 0,1 0,2l0 16c0,0 0,1 0,1 0,1 0,1 0,1 1,1 1,1 1,1 0,0 1,0 1,0l1 0 0 3 -16 0 0 -3 1 0c1,0 1,0 2,0 0,0 0,0 0,-1 0,0 0,0 0,-1 0,0 0,-1 0,-1l0 -16c0,0 0,0 0,-1 0,0 0,0 0,0zm1 -11c0,-1 0,-2 1,-3 1,0 2,-1 3,-1 1,0 2,1 2,1 1,1 1,2 1,3 0,1 0,2 -1,3 0,0 -1,1 -2,1 -1,0 -2,-1 -3,-1 -1,-1 -1,-2 -1,-3zm18 33c-1,0 -1,0 -1,-1 -1,0 -2,-1 -2,-2 0,-1 -1,-1 -1,-2 0,-1 0,-2 1,-3 0,0 1,-1 1,-2 1,0 1,-1 2,-1 0,0 0,0 0,0 0,-1 -1,-1 -1,-2 -1,-2 -1,-3 -1,-4 0,-3 1,-5 3,-7 2,-2 6,-3 9,-3 1,0 3,0 4,1 1,0 2,0 3,1 0,-1 0,-1 0,-1 1,-1 1,-2 2,-2 0,-1 1,-1 2,-2 0,0 1,0 2,0 1,0 2,0 3,0 1,1 1,2 1,4 0,0 0,1 0,2 -1,0 -2,1 -2,1 -1,0 -2,-1 -3,-1 0,-1 0,-2 0,-3 0,0 0,0 0,0 0,0 -1,0 -1,1 0,0 0,0 -1,1 0,0 0,1 0,1 0,1 1,2 1,3 1,1 1,2 1,3 0,3 -1,5 -3,7 -3,2 -6,3 -10,3 -1,0 -2,0 -3,-1 -1,0 -2,0 -3,0 0,0 0,0 -1,0 0,0 0,0 0,1 0,0 0,0 0,0 0,0 0,0 0,0 1,0 1,0 1,0 1,0 2,0 2,0l10 0c2,0 5,1 7,3 1,1 2,3 2,6 0,1 0,3 -1,4 -1,2 -2,3 -3,4 -1,1 -3,1 -5,2 -2,0 -4,0 -6,0 -1,0 -3,0 -4,0 -1,0 -3,0 -4,-1 -1,0 -3,-1 -4,-2 -1,-1 -1,-2 -1,-3 0,-1 0,-3 1,-3 1,-1 2,-2 3,-2zm4 8c0,0 0,0 1,0 1,0 2,0 3,0 2,0 4,0 6,0 1,-1 2,-1 4,-2 0,0 1,-1 2,-1 0,-1 0,-1 0,-2 0,0 0,-1 -1,-1 -1,-1 -3,-1 -4,-1l-10 0c-1,0 -1,0 -2,0 0,0 0,0 0,1 1,1 2,2 2,3 0,1 0,1 -1,2 0,0 0,1 0,1zm4 -44c0,0 1,1 1,1 1,0 1,0 2,0 0,0 1,0 1,0 1,0 1,-1 1,-1l0 -1 3 0 0 1c0,1 0,2 0,2 -1,1 -1,2 -1,2 -1,1 -2,1 -2,1 -1,1 -2,1 -2,1 -1,0 -2,0 -3,0 0,-1 -1,-1 -1,-2 -1,0 -1,-1 -1,-2 0,0 -1,-1 -1,-2l0 -1 3 0 0 1zm23 14c0,0 0,1 -1,1 0,0 -1,0 -1,1l-2 1 0 -2c0,-1 1,-1 1,-2 0,-1 1,-1 2,-2 0,-1 1,-1 2,-1 1,-1 2,-1 3,-1 1,0 1,0 2,1 1,0 2,0 2,1 1,0 2,1 2,2 0,0 1,1 1,2l0 16c0,0 0,1 0,1 0,1 0,1 0,1 0,1 0,1 0,1 1,0 1,0 2,0l1 0 0 3 -16 0 0 -3 1 0c0,0 1,0 1,0 0,0 0,0 0,-1 1,0 1,0 1,-1 0,0 0,-1 0,-1l0 -16c0,0 0,0 0,-1 0,0 0,0 -1,0zm1 -11c0,-1 1,-2 2,-3 0,0 1,-1 2,-1 1,0 2,1 3,1 1,1 1,2 1,3 0,1 0,2 -1,3 -1,0 -2,1 -3,1 -1,0 -2,-1 -2,-1 -1,-1 -2,-2 -2,-3zm-301 19c0,0 1,0 1,0 1,0 2,-1 3,-1 0,0 1,-1 1,-2 1,0 1,-1 1,-2 0,-1 0,-2 -1,-2 0,-1 0,-1 0,-2 0,0 -1,-1 -1,-1 0,0 -1,0 -1,0 0,0 -1,0 -1,0 -1,1 -1,1 -1,2 -1,1 -1,2 -1,3 0,2 0,3 0,5zm109 0c0,0 1,0 2,0 0,0 1,-1 2,-1 1,0 1,-1 1,-2 1,0 1,-1 1,-2 0,-1 0,-2 0,-2 0,-1 -1,-1 -1,-2 0,0 0,-1 -1,-1 0,0 0,0 -1,0 0,0 -1,0 -1,0 0,1 -1,1 -1,2 0,1 -1,2 -1,3 0,2 0,3 0,5zm57 -8l0 16c1,1 1,1 1,1 0,1 0,1 1,2 0,0 0,0 1,0 0,1 0,1 1,1 0,0 0,0 1,-1 0,0 1,-1 1,-1 0,-1 0,-2 1,-3 0,-2 0,-4 0,-6 0,-2 0,-4 0,-6 -1,-1 -1,-2 -1,-3 -1,-1 -1,-1 -1,-2 -1,0 -1,0 -2,0 0,0 -1,0 -1,1 -1,0 -1,0 -2,1zm110 4c0,2 0,3 0,4 0,0 1,1 1,2 0,0 0,0 1,0 0,1 0,1 1,1 0,0 0,0 1,-1 0,0 0,0 1,0 0,-1 0,-2 0,-2 0,-1 0,-2 0,-4 0,-1 0,-2 0,-3 0,-1 0,-1 0,-2 -1,0 -1,0 -1,0 -1,-1 -1,-1 -1,-1 -1,0 -1,0 -1,1 -1,0 -1,0 -1,0 0,1 -1,1 -1,2 0,1 0,2 0,3z"/>
  <path fill="url(#id0)" fill-rule="nonzero" d="M17 69c0,0 1,0 1,-1 1,0 1,0 2,-1 0,0 1,-1 1,-1 0,0 0,-1 1,-1l0 -12c0,0 0,0 -1,0 0,0 0,0 -1,0 0,0 0,0 -1,0 0,0 0,0 0,0l0 -2 14 0 0 2c0,0 0,0 -1,0 0,0 0,0 -1,0 0,0 0,0 -1,0 0,0 0,0 0,0l0 12c0,0 0,1 0,1 1,0 1,1 2,1 0,0 1,-1 2,-1 0,0 1,-1 1,-1 0,1 0,1 0,2 0,0 -1,1 -2,1 0,1 -1,1 -2,2 -1,0 -1,0 -2,0 -1,0 -1,0 -2,0 -1,0 -1,-1 -2,-1 -1,0 -1,-1 -2,-1 0,-1 0,-1 -1,-2 0,1 -1,2 -3,3 -1,1 -3,1 -4,1 -2,0 -4,0 -6,-1 -1,-1 -3,-2 -4,-3 -1,-2 -2,-4 -3,-6 -1,-2 -1,-5 -1,-8 0,-3 0,-6 1,-8 1,-2 2,-4 3,-6 2,-1 3,-2 5,-3 2,-1 5,-1 7,-1 1,0 3,0 4,0 1,0 3,1 4,1 1,1 2,2 2,3 1,1 1,2 1,4 0,0 0,1 0,1 0,1 0,1 -1,2 0,0 -1,1 -1,1 -1,0 -2,0 -3,0 -1,0 -2,0 -3,-1 -1,-1 -1,-3 -1,-4 0,-2 0,-3 0,-4 0,-1 1,-1 1,-2 0,0 0,0 0,0 0,0 -1,0 -1,0 0,0 0,0 0,0 0,0 -1,0 -1,0 -1,0 -2,0 -3,1 -1,0 -2,1 -3,2 0,1 -1,2 -1,3 0,2 -1,3 -1,4 0,2 0,3 0,4 0,1 0,2 0,3 0,4 0,6 0,8 1,2 1,4 2,5 1,2 1,2 2,3 1,0 2,1 3,1z"/>
  <path id="1" fill="url(#id1)" fill-rule="nonzero" d="M52 70c-2,0 -4,0 -6,-1 -2,0 -3,-1 -4,-2 -1,-2 -2,-3 -3,-5 -1,-1 -1,-3 -1,-5 0,-2 0,-4 1,-6 1,-1 2,-3 3,-4 1,-1 2,-2 4,-2 2,-1 4,-1 6,-1 1,0 2,0 3,0 2,0 3,1 4,1 1,1 2,2 3,3 0,0 1,2 1,3 0,1 0,2 -1,3 -1,1 -1,1 -2,2 -1,1 -2,1 -3,1 -1,1 -3,1 -4,1 -1,0 -2,0 -3,0 -1,0 -2,0 -3,0 0,2 0,4 0,6 0,1 1,2 1,3 0,1 1,1 2,1 0,1 1,1 2,1 2,0 4,0 5,-1 2,-1 4,-2 5,-3 0,0 0,1 0,2 -1,0 -1,1 -2,2 -1,0 -2,1 -3,1 -2,0 -3,0 -5,0zm-5 -13c1,0 2,0 3,0 1,0 1,-1 2,-1 1,-1 1,-1 2,-2 0,-1 1,-2 1,-3 0,-1 -1,-2 -1,-2 0,-1 0,-2 0,-2 -1,-1 -1,-1 -1,-2 -1,0 -1,0 -2,0 -1,0 -1,0 -2,0 0,1 -1,2 -1,2 0,1 -1,3 -1,4 0,2 0,4 0,6z"/>
  <path id="2" fill="url(#id2)" fill-rule="nonzero" d="M69 47c0,0 0,1 -1,1 -1,0 -1,1 -2,1 0,0 1,-1 1,-2 0,0 1,-1 1,-1 1,-1 2,-1 2,-1 1,-1 2,-1 3,-1 1,0 2,0 3,1 1,0 2,1 2,2 1,-1 2,-2 3,-2 2,-1 3,-1 5,-1 1,0 2,0 3,0 2,1 3,1 3,2 1,1 2,2 2,3 1,1 1,2 1,3l0 13c0,0 0,1 1,1 0,0 0,1 0,1 1,0 1,-1 2,-1 0,0 1,-1 1,-1 0,0 0,1 0,2 0,0 -1,1 -1,1 -1,1 -2,1 -2,1 -1,1 -2,1 -3,1 -1,0 -1,0 -2,0 -1,-1 -2,-1 -2,-1 -1,-1 -1,-2 -1,-2 -1,-1 -1,-2 -1,-2l0 -13c0,-1 0,-2 0,-3 -1,-1 -1,-2 -1,-2 -1,-1 -1,-1 -1,-1 -1,0 -1,-1 -2,-1 0,0 -1,1 -1,1 -1,0 -1,0 -2,1 0,0 0,1 -1,1 0,1 0,1 0,1l0 16c0,0 0,1 0,2 0,0 0,1 0,1 0,0 1,0 1,1 0,0 1,0 2,0l0 1 -14 0 0 -1c0,0 1,0 1,0 1,-1 1,-1 1,-1 0,0 1,-1 1,-1 0,-1 0,-2 0,-2l0 -16c0,0 0,-1 -1,-1 0,0 0,-1 -1,-1z"/>
  <path id="3" fill="url(#id3)" fill-rule="nonzero" d="M113 70l0 2c1,0 2,0 2,0 1,1 1,1 2,1 0,0 1,1 1,1 0,1 0,1 0,2 0,1 0,1 0,2 -1,0 -1,1 -2,1 0,0 -1,0 -1,1 -1,0 -2,0 -2,0 -1,0 -1,0 -2,0 0,0 0,0 -1,-1l0 -1c0,0 1,0 1,0 0,0 1,0 1,0 1,0 1,0 2,0 0,-1 1,-1 1,-2 0,-1 -1,-2 -1,-2 -1,0 -1,-1 -2,-1l0 -3c-3,-1 -5,-2 -7,-4 -2,-3 -2,-5 -2,-9 0,-4 1,-7 3,-10 2,-2 6,-3 10,-3 2,0 3,0 5,0 1,0 2,1 2,1 1,1 2,1 2,2 0,1 1,2 1,2 0,1 -1,2 -1,3 -1,1 -2,1 -3,1 -1,0 -2,0 -3,-1 -1,-1 -1,-2 -1,-3 0,-1 0,-1 0,-2 0,-1 1,-1 1,-2 0,0 -1,0 -1,0 -1,0 -2,0 -2,0 -1,1 -2,1 -3,2 0,1 -1,2 -1,4 -1,1 -1,3 -1,6 0,2 0,4 1,6 0,1 1,3 2,3 0,1 1,2 2,2 0,1 1,1 2,1 1,0 2,0 4,-1 1,-1 3,-2 4,-3 0,0 0,1 -1,2 0,0 -1,1 -1,2 -1,0 -2,1 -3,1 -2,0 -3,0 -5,0 -1,0 -2,0 -3,0z"/>
  <path id="4" fill="url(#id4)" fill-rule="nonzero" d="M131 37c0,0 -1,1 -1,1 -1,0 -1,1 -2,1 0,-1 0,-1 1,-2 0,0 1,-1 1,-1 1,-1 2,-1 2,-2 1,0 2,0 3,0 1,0 1,0 2,0 1,1 1,1 2,1 0,1 1,1 1,2 1,0 1,1 1,2l0 26c0,0 0,1 0,2 0,0 0,1 0,1 0,0 1,0 1,1 0,0 1,0 2,0l0 1 -14 0 0 -1c0,0 1,0 1,0 1,-1 1,-1 1,-1 0,0 1,-1 1,-1 0,-1 0,-2 0,-2l0 -26c0,-1 -1,-1 -1,-1 0,-1 0,-1 -1,-1z"/>
  <path id="5" fill="url(#id5)" fill-rule="nonzero" d="M162 70c-3,0 -5,0 -6,-1 -2,0 -4,-1 -5,-2 -1,-2 -2,-3 -3,-5 0,-1 -1,-3 -1,-5 0,-2 1,-4 1,-6 1,-1 2,-3 3,-4 1,-1 3,-2 4,-2 2,-1 4,-1 6,-1 1,0 2,0 4,0 1,0 2,1 3,1 1,1 2,2 3,3 1,0 1,2 1,3 0,1 0,2 -1,3 0,1 -1,1 -2,2 -1,1 -2,1 -3,1 -1,1 -2,1 -4,1 -1,0 -2,0 -3,0 -1,0 -2,0 -3,0 0,2 0,4 0,6 0,1 1,2 1,3 1,1 1,1 2,1 0,1 1,1 2,1 2,0 4,0 6,-1 1,-1 3,-2 4,-3 0,0 0,1 0,2 -1,0 -1,1 -2,2 -1,0 -2,1 -3,1 -1,0 -3,0 -4,0zm-6 -13c1,0 2,0 3,0 1,0 2,-1 2,-1 1,-1 2,-1 2,-2 1,-1 1,-2 1,-3 0,-1 0,-2 0,-2 -1,-1 -1,-2 -1,-2 0,-1 -1,-1 -1,-2 -1,0 -1,0 -2,0 0,0 -1,0 -1,0 -1,1 -1,2 -2,2 0,1 0,3 -1,4 0,2 0,4 0,6z"/>
  <path id="6" fill="url(#id6)" fill-rule="nonzero" d="M179 47c-1,0 -1,1 -2,1 0,0 -1,1 -1,1 0,0 0,-1 0,-2 0,0 1,-1 2,-1 0,-1 1,-1 2,-1 0,-1 1,-1 2,-1 1,0 2,0 4,1 1,1 1,2 2,3 1,-1 2,-2 3,-3 1,-1 2,-1 4,-1 1,0 1,0 2,1 1,0 1,0 2,1 1,0 1,1 1,1 1,1 1,1 1,2 0,1 -1,2 -1,3 -1,1 -2,1 -3,1 -1,0 -2,0 -2,0 -1,-1 -1,-1 -1,-1 0,-1 -1,-1 -1,-2 0,0 0,-1 0,-1 0,-1 0,-2 0,-2 0,-1 1,-1 1,-2 -1,0 -1,1 -2,1 0,0 -1,0 -1,1 -1,0 -1,1 -2,1 0,1 -1,1 -1,2l0 15c0,0 0,1 0,2 0,0 0,1 0,1 1,0 1,0 1,1 1,0 1,0 2,0l0 1 -14 0 0 -1c1,0 1,0 2,0 0,-1 0,-1 1,-1 0,0 0,-1 0,-1 0,-1 0,-2 0,-2l0 -16c0,0 0,-1 0,-1 -1,0 -1,-1 -1,-1z"/>
  <path id="7" fill="url(#id7)" fill-rule="nonzero" d="M208 34c0,0 1,0 2,0 0,0 1,1 2,1 0,1 1,1 1,2 0,0 0,1 0,2l0 7c1,-1 1,-1 1,-1 0,0 1,0 1,0 1,-1 1,-1 2,-1 1,0 2,0 3,0 1,0 3,0 4,0 1,1 2,2 3,3 1,1 2,3 3,4 0,2 0,4 0,6 0,2 0,4 0,6 -1,2 -2,3 -3,4 -1,1 -2,2 -3,3 -1,0 -2,0 -4,0 -2,0 -3,0 -4,-1 -2,-1 -3,-2 -3,-3 0,0 0,0 0,0 0,0 0,0 -1,0 0,0 0,1 0,1 -1,1 -1,1 -1,1 -1,1 -1,1 -2,1 -1,1 -1,1 -2,1 -1,0 -1,0 -2,0l0 -31c0,-1 0,-1 0,-1 0,-1 -1,-1 -1,-1 0,0 -1,0 -1,1 -1,0 -1,1 -2,1 0,-1 0,-1 1,-2 0,0 0,-1 1,-1 1,-1 1,-1 2,-2 1,0 2,0 3,0zm5 13l0 18c1,0 1,0 1,1 0,0 1,1 1,1 0,1 1,1 1,1 1,0 1,1 2,1 0,0 1,-1 1,-1 1,0 1,-1 2,-2 0,0 0,-2 0,-3 1,-2 1,-4 1,-6 0,-3 0,-5 -1,-6 0,-2 0,-3 -1,-4 0,0 0,-1 -1,-1 0,-1 -1,-1 -2,-1 0,0 -1,0 -2,1 0,0 -1,1 -2,1z"/>
  <path id="8" fill="url(#id8)" fill-rule="nonzero" d="M237 47c0,0 -1,1 -1,1 -1,0 -1,1 -2,1 0,0 0,-1 1,-2 0,0 1,-1 1,-1 1,-1 1,-1 2,-1 1,-1 2,-1 3,-1 0,0 1,0 2,0 1,1 1,1 2,1 0,1 1,1 1,2 0,1 1,1 1,2l0 16c0,0 0,1 0,2 0,0 0,1 0,1 0,0 1,0 1,1 0,0 1,0 2,0l0 1 -14 0 0 -1c0,0 1,0 1,0 1,-1 1,-1 1,-1 0,0 0,-1 1,-1 0,-1 0,-2 0,-2l0 -16c0,0 -1,-1 -1,-1 0,0 0,-1 -1,-1zm2 -10c0,-1 1,-2 1,-2 1,-1 1,-1 2,-1 1,0 2,0 2,1 1,0 1,1 1,2 0,1 0,1 -1,2 0,0 -1,1 -2,1 -1,0 -1,-1 -2,-1 0,-1 -1,-1 -1,-2z"/>
  <path id="9" fill="url(#id9)" fill-rule="nonzero" d="M254 47c0,0 0,1 -1,1 -1,0 -1,1 -2,1 0,0 1,-1 1,-2 0,0 1,-1 1,-1 1,-1 2,-1 2,-1 1,-1 2,-1 3,-1 1,0 2,0 3,1 1,1 2,2 3,3 0,-1 1,-2 3,-3 1,-1 2,-1 4,-1 0,0 1,0 2,1 1,0 1,0 2,1 0,0 1,1 1,1 0,1 1,1 1,2 0,1 -1,2 -2,3 0,1 -1,1 -3,1 0,0 -1,0 -1,0 -1,-1 -1,-1 -1,-1 -1,-1 -1,-1 -1,-2 0,0 0,-1 0,-1 0,-1 0,-2 0,-2 0,-1 0,-1 1,-2 -1,0 -1,1 -2,1 0,0 -1,0 -2,1 0,0 -1,1 -1,1 -1,1 -1,1 -1,2l0 15c0,0 0,1 0,2 0,0 0,1 0,1 0,0 1,0 1,1 0,0 1,0 2,0l0 1 -14 0 0 -1c0,0 1,0 1,0 1,-1 1,-1 1,-1 0,0 1,-1 1,-1 0,-1 0,-2 0,-2l0 -16c0,0 0,-1 -1,-1 0,0 0,-1 -1,-1z"/>
  <path id="10" fill="url(#id10)" fill-rule="nonzero" d="M280 37c0,0 -1,1 -2,1 0,0 -1,1 -1,1 0,-1 0,-1 0,-2 1,0 1,-1 2,-1 0,-1 1,-1 2,-2 1,0 2,0 2,0 1,0 2,0 3,0 0,1 1,1 1,1 1,1 1,1 2,2 0,0 0,1 0,2l0 26c0,0 0,1 0,2 0,0 0,1 1,1 0,0 0,0 1,1 0,0 1,0 1,0l0 1 -14 0 0 -1c1,0 1,0 2,0 0,-1 1,-1 1,-1 0,0 0,-1 0,-1 0,-1 0,-2 0,-2l0 -26c0,-1 0,-1 0,-1 0,-1 -1,-1 -1,-1z"/>
  <path id="11" fill="url(#id11)" fill-rule="nonzero" d="M298 47c-1,0 -1,1 -2,1 0,0 -1,1 -1,1 0,0 0,-1 0,-2 1,0 1,-1 2,-1 0,-1 1,-1 2,-1 1,-1 1,-1 2,-1 1,0 2,0 2,0 1,1 2,1 2,1 1,1 1,1 2,2 0,1 0,1 0,2l0 16c0,0 0,1 0,2 0,0 0,1 1,1 0,0 0,0 1,1 0,0 1,0 1,0l0 1 -14 0 0 -1c1,0 1,0 2,0 0,-1 1,-1 1,-1 0,0 0,-1 0,-1 0,-1 0,-2 0,-2l0 -16c0,0 0,-1 0,-1 0,0 -1,-1 -1,-1zm2 -10c0,-1 0,-2 1,-2 0,-1 1,-1 2,-1 1,0 1,0 2,1 0,0 1,1 1,2 0,1 -1,1 -1,2 -1,0 -1,1 -2,1 -1,0 -2,-1 -2,-1 -1,-1 -1,-1 -1,-2z"/>
  <path id="12" fill="url(#id12)" fill-rule="nonzero" d="M314 75c0,-1 0,-2 1,-3 0,-1 1,-1 2,-1 1,0 2,0 3,1 0,1 1,2 1,3 0,1 0,1 -1,2 0,0 0,1 -1,1 1,1 2,1 3,1 1,0 2,0 3,0 2,0 4,0 6,0 2,-1 3,-1 4,-2 1,0 2,-1 3,-2 0,0 0,-1 0,-2 0,-1 0,-1 -1,-2 -1,0 -3,-1 -5,-1l-10 0c-1,0 -2,0 -3,0 -1,0 -2,-1 -3,-1 0,-1 -1,-2 -1,-2 -1,-1 -1,-2 -1,-2 0,-1 0,-2 1,-2 0,-1 0,-1 1,-2 0,0 1,-1 1,-1 1,0 1,-1 2,-1 -1,-1 -2,-2 -3,-3 0,-1 0,-2 0,-3 0,-3 0,-5 2,-6 2,-2 5,-3 9,-3 1,0 3,0 4,1 2,0 3,0 3,1 1,-1 1,-1 1,-2 0,-1 1,-1 1,-2 1,0 1,-1 2,-1 1,0 1,0 2,0 1,0 2,0 2,0 1,1 1,1 1,3 0,0 0,1 0,1 0,0 -1,1 -1,1 -1,0 -1,-1 -2,-1 0,0 0,-1 0,-2 0,0 0,0 0,-1 0,0 0,0 0,0 0,0 -1,0 -1,0 -1,0 -1,0 -1,1 -1,0 -1,1 -2,1 0,1 0,2 -1,3 1,0 2,1 2,2 1,1 1,2 1,3 0,3 -1,5 -3,6 -2,2 -5,3 -9,3 -1,0 -2,0 -3,0 -1,-1 -2,-1 -3,-1 0,0 -1,0 -1,0 -1,1 -1,1 -1,2 0,0 0,0 0,0 0,0 1,1 1,1 0,0 1,0 1,0 1,0 1,0 2,0l10 0c2,0 4,1 6,2 1,2 2,3 2,6 0,1 0,3 -1,4 0,1 -1,2 -2,3 -2,1 -3,1 -5,2 -2,0 -4,1 -6,1 -1,0 -3,-1 -4,-1 -1,0 -3,0 -4,-1 -1,0 -2,-1 -3,-1 -1,-1 -1,-2 -1,-3zm9 -23c0,2 0,3 0,4 1,1 1,2 1,2 0,1 1,1 1,1 1,0 1,1 2,1 0,0 1,-1 1,-1 1,0 1,0 1,-1 1,0 1,-1 1,-2 0,-1 0,-2 0,-4 0,-1 0,-2 0,-3 0,-1 0,-2 -1,-2 0,-1 0,-1 -1,-1 0,-1 -1,-1 -1,-1 -1,0 -1,0 -2,1 0,0 -1,0 -1,1 0,0 0,1 -1,2 0,1 0,2 0,3zm1 -18c1,1 1,2 2,2 0,0 1,0 2,0 0,0 1,0 2,0 0,0 1,-1 1,-2l1 0c0,1 0,1 0,2 0,1 -1,1 -1,2 -1,0 -1,0 -2,1 0,0 -1,0 -1,0 -1,0 -2,0 -2,0 -1,-1 -1,-1 -1,-1 -1,-1 -1,-1 -1,-2 -1,-1 -1,-1 -1,-2l1 0z"/>
  <path id="13" fill="url(#id13)" fill-rule="nonzero" d="M348 47c0,0 -1,1 -1,1 -1,0 -1,1 -2,1 0,0 1,-1 1,-2 0,0 1,-1 1,-1 1,-1 2,-1 2,-1 1,-1 2,-1 3,-1 1,0 1,0 2,0 1,1 1,1 2,1 0,1 1,1 1,2 1,1 1,1 1,2l0 16c0,0 0,1 0,2 0,0 0,1 0,1 0,0 1,0 1,1 0,0 1,0 2,0l0 1 -14 0 0 -1c0,0 1,0 1,0 1,-1 1,-1 1,-1 0,0 1,-1 1,-1 0,-1 0,-2 0,-2l0 -16c0,0 0,-1 -1,-1 0,0 0,-1 -1,-1zm2 -10c0,-1 1,-2 1,-2 1,-1 1,-1 2,-1 1,0 2,0 2,1 1,0 1,1 1,2 0,1 0,1 -1,2 0,0 -1,1 -2,1 -1,0 -1,-1 -2,-1 0,-1 -1,-1 -1,-2z"/>
 </g>
</svg>
