

<!-- Creator: CorelDRAW X8 -->
<svg xmlns="http://www.w3.org/2000/svg" xml:space="preserve" x="0" y="0" width="79.086mm" height="25mm" version="1.1" shape-rendering="geometricPrecision" text-rendering="geometricPrecision" image-rendering="optimizeQuality" fill-rule="evenodd" clip-rule="evenodd"
viewBox="0 0 360 114"
 xmlns:xlink="http://www.w3.org/1999/xlink">
 <defs>
   <linearGradient id="id0" gradientUnits="userSpaceOnUse" x1="0.910388" y1="56.8731" x2="358.921" y2="56.8731">
    <stop offset="0" stop-opacity="1" stop-color="#F1E108"/>
    <stop offset="1" stop-opacity="1" stop-color="#363635"/>
   </linearGradient>
   <linearGradient id="id1" gradientUnits="userSpaceOnUse" x1="0.910388" y1="56.8731" x2="358.921" y2="56.8731">
    <stop offset="0" stop-opacity="1" stop-color="#F1E108"/>
    <stop offset="1" stop-opacity="1" stop-color="#363635"/>
   </linearGradient>
   <linearGradient id="id2" gradientUnits="userSpaceOnUse" x1="0.910388" y1="56.8731" x2="358.921" y2="56.8731">
    <stop offset="0" stop-opacity="1" stop-color="#F1E108"/>
    <stop offset="1" stop-opacity="1" stop-color="#363635"/>
   </linearGradient>
   <linearGradient id="id3" gradientUnits="userSpaceOnUse" x1="0.910388" y1="56.8731" x2="358.921" y2="56.8731">
    <stop offset="0" stop-opacity="1" stop-color="#F1E108"/>
    <stop offset="1" stop-opacity="1" stop-color="#363635"/>
   </linearGradient>
   <linearGradient id="id4" gradientUnits="userSpaceOnUse" x1="0.910388" y1="56.8731" x2="358.921" y2="56.8731">
    <stop offset="0" stop-opacity="1" stop-color="#F1E108"/>
    <stop offset="1" stop-opacity="1" stop-color="#363635"/>
   </linearGradient>
   <linearGradient id="id5" gradientUnits="userSpaceOnUse" x1="0.910388" y1="56.8731" x2="358.921" y2="56.8731">
    <stop offset="0" stop-opacity="1" stop-color="#F1E108"/>
    <stop offset="1" stop-opacity="1" stop-color="#363635"/>
   </linearGradient>
   <linearGradient id="id6" gradientUnits="userSpaceOnUse" x1="0.910388" y1="56.8731" x2="358.921" y2="56.8731">
    <stop offset="0" stop-opacity="1" stop-color="#F1E108"/>
    <stop offset="1" stop-opacity="1" stop-color="#363635"/>
   </linearGradient>
   <linearGradient id="id7" gradientUnits="userSpaceOnUse" x1="0.910388" y1="56.8731" x2="358.921" y2="56.8731">
    <stop offset="0" stop-opacity="1" stop-color="#F1E108"/>
    <stop offset="1" stop-opacity="1" stop-color="#363635"/>
   </linearGradient>
   <linearGradient id="id8" gradientUnits="userSpaceOnUse" x1="0.910388" y1="56.8731" x2="358.921" y2="56.8731">
    <stop offset="0" stop-opacity="1" stop-color="#F1E108"/>
    <stop offset="1" stop-opacity="1" stop-color="#363635"/>
   </linearGradient>
   <linearGradient id="id9" gradientUnits="userSpaceOnUse" x1="0.910388" y1="56.8731" x2="358.921" y2="56.8731">
    <stop offset="0" stop-opacity="1" stop-color="#F1E108"/>
    <stop offset="1" stop-opacity="1" stop-color="#363635"/>
   </linearGradient>
   <linearGradient id="id10" gradientUnits="userSpaceOnUse" x1="0.910388" y1="56.8731" x2="358.921" y2="56.8731">
    <stop offset="0" stop-opacity="1" stop-color="#F1E108"/>
    <stop offset="1" stop-opacity="1" stop-color="#363635"/>
   </linearGradient>
   <linearGradient id="id11" gradientUnits="userSpaceOnUse" x1="0.910388" y1="56.8731" x2="358.921" y2="56.8731">
    <stop offset="0" stop-opacity="1" stop-color="#F1E108"/>
    <stop offset="1" stop-opacity="1" stop-color="#363635"/>
   </linearGradient>
   <linearGradient id="id12" gradientUnits="userSpaceOnUse" x1="0.910388" y1="56.8731" x2="358.921" y2="56.8731">
    <stop offset="0" stop-opacity="1" stop-color="#F1E108"/>
    <stop offset="1" stop-opacity="1" stop-color="#363635"/>
   </linearGradient>
 </defs>
 <g id="Katman_x0020_1">
  <metadata id="CorelCorpID_0Corel-Layer"/>
  <rect fill="none" width="360" height="114"/>
  <path fill="#FEFEFE" d="M13 36l0 15 5 0c0,0 1,0 1,-1 0,0 0,0 0,-1 0,0 0,0 0,-1 0,0 0,-1 0,-2l0 0 4 0 0 13 -4 0 0 -1c0,-1 0,-1 0,-2 0,0 0,-1 0,-1 0,-1 0,-1 0,-1 0,0 -1,0 -1,0l-5 0 0 13 11 0c1,0 1,0 1,0 1,0 1,-1 1,-1 0,-1 0,-1 0,-2 0,-1 0,-2 0,-2l0 -1 4 0 0 10 -30 0 0 -3 1 0c0,0 1,0 1,0 1,0 1,0 1,-1 0,0 0,0 0,-1 0,0 0,-1 0,-1l0 -26c0,0 0,-1 0,-2 0,0 0,0 0,0 0,-1 0,-1 -1,-1 0,0 -1,0 -1,0l-1 0 0 -3 29 0 0 10 -4 0 0 -1c0,0 0,-1 0,-2 0,-1 0,-1 0,-2 0,0 0,-1 -1,-1 0,0 0,-1 -1,-1l-10 0zm40 20c1,0 2,1 3,2 1,1 1,2 2,2 0,1 0,2 0,3 0,1 0,2 -1,3 0,1 -1,2 -3,3 -1,1 -2,1 -4,2 -1,0 -3,0 -5,0 -1,0 -3,0 -4,0 -1,0 -3,-1 -4,-2 -1,0 -2,-1 -3,-2 -1,-1 -1,-3 -1,-4 0,-2 0,-3 1,-4 1,-1 2,-2 4,-2 0,0 0,0 0,0 -1,0 -1,-1 -2,-1 -1,-1 -1,-2 -2,-2 0,-1 0,-2 0,-3 0,-1 0,-2 1,-3 0,-2 1,-2 2,-3 1,-1 2,-1 4,-2 1,0 3,0 4,0 2,0 3,0 5,0 1,1 3,1 4,2 1,0 2,1 3,2 0,1 1,2 1,4 0,1 -1,2 -2,3 -1,1 -2,2 -3,2zm-4 -8c0,-1 0,-1 1,-1 -1,0 -1,0 -1,-1 -1,0 -1,0 -2,0 -1,0 -2,0 -2,1 -1,0 -1,1 -1,1 0,1 0,1 0,2 1,0 1,1 1,1 1,0 1,1 2,1 0,0 1,1 1,1 0,0 0,0 1,0 -1,-1 -1,-1 -1,-2 0,-1 0,-1 1,-2 0,-1 0,-1 0,-1zm-7 12c0,1 0,2 0,2 0,2 0,3 -1,4 0,0 0,0 0,0 0,0 0,0 0,0 0,1 0,1 0,1 1,0 1,0 1,0 1,1 1,1 2,1 0,0 1,0 1,0 1,0 2,0 3,-1 0,0 0,-1 0,-2 0,0 0,0 0,-1 0,0 0,-1 -1,-1 0,0 -1,-1 -1,-1 -1,0 -2,-1 -2,-1 -1,0 -2,-1 -2,-1zm30 -6l7 -7c1,-1 1,-1 1,-1 0,0 0,0 0,0 -1,0 -1,0 -2,0l-1 0 0 -3 10 0 0 3 -1 0c0,0 -1,0 -2,0 0,1 -1,1 -1,2l-5 5 7 11c1,1 1,1 2,1 0,0 0,0 0,0 1,0 1,0 2,-1l1 -1 0 2c0,1 0,2 -1,2 0,1 -1,2 -1,2 -1,1 -2,1 -3,1 -1,1 -2,1 -3,1 -1,0 -3,-1 -4,-2 -1,0 -2,-2 -3,-3l-3 -5 0 4c0,0 0,1 0,1 0,1 0,1 0,1 1,1 1,1 1,1 0,0 1,0 1,0l1 0 0 3 -16 0 0 -3 1 0c1,0 1,0 2,0 0,0 0,0 0,-1 0,0 0,0 0,-1 0,0 0,-1 0,-1l0 -26c0,0 0,0 0,-1 0,0 0,0 0,0 0,0 -1,0 -1,1 -1,0 -1,0 -1,1l-2 1 0 -2c0,-1 0,-1 1,-2 0,-1 1,-2 1,-2 1,-1 2,-1 3,-1 0,-1 1,-1 2,-1 1,0 2,0 3,0 1,1 1,1 2,2 1,0 1,1 2,1 0,1 0,2 0,3l0 15zm21 -6c0,0 0,1 -1,1 0,0 -1,0 -1,1l-2 1 0 -2c0,-1 1,-1 1,-2 0,-1 1,-1 2,-2 0,-1 1,-1 2,-1 1,-1 2,-1 3,-1 1,0 1,0 2,1 1,0 2,0 2,1 1,0 1,1 2,2 0,0 0,1 0,2l0 16c0,0 1,1 1,1 0,1 0,1 0,1 0,1 0,1 0,1 1,0 1,0 2,0l1 0 0 3 -16 0 0 -3 0 0c1,0 2,0 2,0 0,0 0,0 0,-1 0,0 1,0 1,-1 0,0 0,-1 0,-1l0 -16c0,0 0,0 0,-1 -1,0 -1,0 -1,0zm1 -11c0,-1 1,-2 1,-3 1,0 2,-1 3,-1 1,0 2,1 3,1 0,1 1,2 1,3 0,1 -1,2 -1,3 -1,0 -2,1 -3,1 -1,0 -2,-1 -3,-1 0,-1 -1,-2 -1,-3zm34 19c1,0 2,1 3,2 0,1 1,2 1,2 1,1 1,2 1,3 0,1 -1,3 -2,4 -1,1 -2,2 -3,3 -2,0 -3,1 -5,1 -1,0 -2,0 -3,0l0 0c1,0 1,0 1,0 1,1 2,1 2,1 1,1 1,1 2,2 0,0 0,1 0,2 0,1 0,2 -1,2 0,1 -1,1 -1,2 -1,0 -2,0 -2,0 -1,1 -2,1 -2,1 -1,0 -1,0 -2,0 0,0 -1,-1 -1,-1l-1 0 0 -4 2 1c0,0 0,0 0,0 0,0 1,1 1,1 0,0 1,-1 1,-1 0,0 1,-1 1,-1 0,-1 -1,-1 -1,-1 0,-1 -1,-1 -1,-1l-1 0 0 -3c-1,0 -2,0 -3,0 -1,-1 -2,-1 -3,-2 -1,-1 -2,-1 -3,-2 0,-2 -1,-3 -1,-4 0,-2 1,-3 2,-4 0,-1 2,-2 3,-2 0,0 0,0 0,0 0,0 -1,-1 -2,-1 0,-1 -1,-2 -1,-2 -1,-1 -1,-2 -1,-3 0,-1 1,-2 1,-3 1,-2 2,-2 3,-3 1,-1 2,-1 3,-2 2,0 3,0 5,0 1,0 3,0 4,0 2,1 3,1 4,2 1,0 2,1 3,2 1,1 1,2 1,4 0,1 0,2 -1,3 -1,1 -2,2 -3,2zm-4 -8c0,-1 0,-1 0,-1 0,0 -1,0 -1,-1 0,0 -1,0 -2,0 0,0 -1,0 -2,1 0,0 -1,1 -1,1 0,1 0,1 1,2 0,0 0,1 1,1 0,0 1,1 1,1 1,0 1,1 1,1 1,0 1,0 1,0 0,-1 0,-1 0,-2 0,-1 0,-1 0,-2 0,-1 0,-1 1,-1zm-8 12c1,1 1,2 1,2 0,2 0,3 -1,4 0,0 0,0 0,0 0,0 0,0 0,0 0,1 0,1 0,1 0,0 0,0 1,0 0,1 1,1 1,1 1,0 1,0 1,0 1,0 2,0 3,-1 1,0 1,-1 1,-2 0,0 0,0 0,-1 -1,0 -1,-1 -1,-1 -1,0 -1,-1 -2,-1 0,0 -1,-1 -2,-1 -1,0 -1,-1 -2,-1zm30 -1c0,2 0,3 0,5 0,0 0,2 1,2 0,1 0,1 1,2 1,0 1,0 2,0 2,0 3,0 5,-1 2,-1 3,-2 5,-3l1 -1 0 2c0,1 0,2 -1,2 0,1 -1,2 -2,2 -1,1 -2,1 -3,2 -2,0 -3,0 -5,0 -2,0 -4,0 -6,-1 -2,0 -3,-1 -5,-3 -1,-1 -2,-3 -3,-4 0,-2 -1,-4 -1,-6 0,-2 1,-4 1,-6 1,-2 2,-3 3,-5 1,-1 3,-2 5,-2 2,-1 4,-1 6,-1 1,0 2,0 4,0 1,0 2,1 3,1 2,1 3,2 3,3 1,1 2,3 2,4 0,1 -1,2 -1,3 -1,1 -2,2 -3,3 -1,0 -2,1 -3,1 -1,0 -2,1 -4,1 -1,0 -2,0 -3,0 -1,0 -2,0 -2,0zm29 -14c2,-2 4,-2 6,-2 2,0 3,0 4,1 2,0 3,1 4,2 1,0 1,1 2,2 0,2 1,3 1,4l0 13c0,0 0,0 0,0 0,1 0,1 0,1 0,0 1,-1 1,-1 1,0 1,0 1,-1l2 -1 0 2c0,1 0,1 -1,2 0,1 -1,1 -1,2 -1,1 -2,1 -2,1 -1,1 -2,1 -3,1 -1,0 -2,0 -3,-1 -1,0 -1,0 -2,-1 -1,0 -1,-1 -2,-2 0,-1 0,-2 0,-2l0 -13c0,-1 0,-2 0,-3 -1,0 -1,-1 -1,-2 0,0 -1,0 -1,0 0,-1 -1,-1 -1,-1 -1,0 -1,0 -1,1 -1,0 -1,0 -1,0 -1,1 -1,1 -1,2 0,0 0,0 -1,1l0 15c0,0 0,1 0,1 0,1 1,1 1,1 0,1 0,1 0,1 0,0 1,0 1,0l1 0 0 3 -16 0 0 -3 1 0c1,0 1,0 2,0 0,0 0,0 0,-1 0,0 0,0 0,-1 0,0 0,-1 0,-1l0 -26c0,0 0,0 0,-1 0,0 0,0 0,0 0,0 -1,0 -1,1 0,0 -1,0 -1,1l-2 1 0 -2c0,-1 0,-1 1,-2 0,-1 1,-2 1,-2 1,-1 2,-1 3,-1 1,-1 2,-1 3,-1 0,0 1,0 2,0 1,1 2,1 2,2 1,0 1,1 2,1 0,1 0,2 0,3l0 6zm24 3c0,0 0,1 -1,1 0,0 -1,0 -1,1l-2 1 0 -2c0,-1 1,-1 1,-2 0,-1 1,-1 2,-2 0,-1 1,-1 2,-1 1,-1 2,-1 3,-1 1,0 1,0 2,1 1,0 2,0 2,1 1,0 2,1 2,2 0,0 1,1 1,2l0 16c0,0 0,1 0,1 0,1 0,1 0,1 0,1 0,1 0,1 1,0 1,0 2,0l1 0 0 3 -16 0 0 -3 1 0c0,0 1,0 1,0 0,0 0,0 0,-1 1,0 1,0 1,-1 0,0 0,-1 0,-1l0 -16c0,0 0,0 0,-1 0,0 -1,0 -1,0zm1 -11c0,-1 1,-2 2,-3 0,0 1,-1 2,-1 1,0 2,1 3,1 0,1 1,2 1,3 0,1 -1,2 -1,3 -1,0 -2,1 -3,1 -1,0 -2,-1 -2,-1 -1,-1 -2,-2 -2,-3zm26 9c1,-1 1,-1 2,-2 2,0 3,-1 4,-1 1,0 2,0 3,1 1,0 2,0 2,1 1,0 1,1 2,2 0,0 0,1 0,2 0,1 0,3 -1,3 -1,1 -2,2 -4,2 0,0 -1,0 -2,-1 0,0 -1,0 -1,-1 -1,0 -1,-1 -1,-2 0,0 0,-1 0,-1 0,-1 0,-2 0,-2 0,0 -1,0 -1,1 -1,0 -1,0 -1,1 -1,0 -1,1 -1,1l0 15c0,0 0,1 0,1 0,1 0,1 0,1 0,1 0,1 0,1 1,0 1,0 2,0l1 0 0 3 -16 0 0 -3 1 0c0,0 1,0 1,0 0,0 0,0 0,-1 1,0 1,0 1,-1 0,0 0,-1 0,-1l0 -16c0,0 0,0 0,-1 0,0 0,0 -1,0 0,0 0,1 -1,1 0,0 -1,0 -1,1l-2 1 0 -2c0,-1 1,-1 1,-2 1,-1 1,-1 2,-2 0,-1 1,-1 2,-1 1,-1 2,-1 3,-1 1,0 3,1 4,1 1,1 1,1 2,2zm35 10c1,0 2,1 3,2 1,1 1,2 2,2 0,1 0,2 0,3 0,1 0,2 -1,3 -1,1 -2,2 -3,3 -1,1 -3,1 -4,2 -2,0 -3,0 -5,0 -1,0 -3,0 -4,0 -2,0 -3,-1 -4,-2 -1,0 -2,-1 -3,-2 -1,-1 -1,-3 -1,-4 0,-2 0,-3 1,-4 1,-1 2,-2 3,-2 1,0 1,0 1,0 -1,0 -2,-1 -2,-1 -1,-1 -2,-2 -2,-2 0,-1 0,-2 0,-3 0,-1 0,-2 0,-3 1,-2 2,-2 3,-3 1,-1 2,-1 4,-2 1,0 3,0 4,0 2,0 3,0 5,0 1,1 2,1 4,2 1,0 2,1 2,2 1,1 1,2 1,4 0,1 0,2 -1,3 -1,1 -2,2 -3,2zm-4 -8c0,-1 0,-1 0,-1 0,0 0,0 0,-1 -1,0 -2,0 -2,0 -1,0 -2,0 -3,1 0,0 0,1 0,1 0,1 0,1 0,2 0,0 1,1 1,1 0,0 1,1 1,1 1,0 1,1 2,1 0,0 0,0 0,0 0,-1 0,-1 0,-2 0,-1 0,-1 0,-2 1,-1 1,-1 1,-1zm-7 12c0,1 0,2 0,2 0,2 0,3 -1,4 0,0 0,0 0,0 0,0 0,0 0,0 0,1 0,1 0,1 0,0 1,0 1,0 0,1 1,1 1,1 1,0 1,0 2,0 1,0 2,0 2,-1 1,0 1,-1 1,-2 0,0 0,0 0,-1 0,0 0,-1 -1,-1 0,0 -1,-1 -1,-1 -1,0 -2,-1 -3,-1 0,0 -1,-1 -1,-1zm30 -13c1,-1 2,-2 3,-3 1,-1 3,-1 5,-1 1,0 3,0 4,1 1,0 3,1 4,2 1,2 1,3 2,5 1,2 1,4 1,6 0,2 0,4 -1,6 -1,2 -1,3 -2,5 -1,1 -3,2 -4,2 -2,1 -3,1 -5,1 -1,0 -2,0 -3,0 0,0 -1,-1 -2,-1 0,0 0,0 0,0l0 5c0,0 0,1 0,2 0,0 0,0 0,0 0,1 0,1 1,1 0,0 1,0 1,0l1 0 0 3 -16 0 0 -3 1 0c0,0 1,0 1,0 1,0 1,0 1,-1 0,0 0,0 0,0 0,-1 0,-2 0,-2l0 -26c0,0 0,0 0,0 0,-1 0,-1 0,-1 -1,0 -1,1 -1,1 -1,0 -1,0 -2,1l-1 1 0 -2c0,-1 0,-1 0,-2 1,-1 1,-1 2,-2 1,-1 1,-1 2,-1 1,-1 2,-1 3,-1 0,0 1,0 2,1 1,0 1,0 2,1 0,0 1,1 1,1 0,0 0,0 0,1zm37 -4c2,0 4,0 6,1 1,0 3,1 4,3 2,1 3,2 3,4 1,2 1,4 1,6 0,2 0,4 -1,6 0,2 -1,3 -3,4 -1,2 -3,3 -4,3 -2,1 -4,1 -6,1 -2,0 -4,0 -6,-1 -2,0 -3,-1 -5,-3 -1,-1 -2,-2 -3,-4 0,-2 -1,-4 -1,-6 0,-2 1,-4 1,-6 1,-2 2,-3 3,-4 2,-2 3,-3 5,-3 2,-1 4,-1 6,-1zm29 3c1,-1 2,-1 3,-2 1,0 2,-1 4,-1 1,0 2,0 3,1 0,0 1,0 2,1 0,0 1,1 1,2 1,0 1,1 1,2 0,1 -1,3 -2,3 -1,1 -2,2 -3,2 -1,0 -2,0 -2,-1 -1,0 -1,0 -2,-1 0,0 0,-1 0,-2 -1,0 -1,-1 -1,-1 0,-1 0,-2 1,-2 -1,0 -1,0 -2,1 0,0 -1,0 -1,1 0,0 -1,1 -1,1l0 15c0,0 0,1 0,1 0,1 0,1 0,1 0,1 1,1 1,1 0,0 1,0 1,0l1 0 0 3 -16 0 0 -3 1 0c1,0 1,0 2,0 0,0 0,0 0,-1 0,0 0,0 0,-1 0,0 0,-1 0,-1l0 -16c0,0 0,0 0,-1 0,0 0,0 0,0 0,0 -1,1 -1,1 -1,0 -1,0 -1,1l-2 1 0 -2c0,-1 0,-1 1,-2 0,-1 1,-1 1,-2 1,-1 2,-1 3,-1 0,-1 1,-1 2,-1 2,0 3,1 4,1 1,1 2,1 2,2zm-200 10c0,0 1,0 2,0 0,0 1,-1 2,-1 0,0 1,-1 1,-2 1,0 1,-1 1,-2 0,-1 0,-2 -1,-2 0,-1 0,-1 0,-2 0,0 -1,-1 -1,-1 0,0 -1,0 -1,0 0,0 -1,0 -1,0 -1,1 -1,1 -1,2 -1,1 -1,2 -1,3 0,2 0,3 0,5zm136 10c0,1 1,1 1,1 1,1 1,1 2,1 0,0 1,0 1,0 1,-1 1,-1 1,-2 1,-1 1,-2 1,-3 0,-2 0,-4 0,-6 0,-2 0,-4 0,-6 0,-1 0,-2 -1,-3 0,0 0,-1 -1,-1 0,-1 0,-1 -1,-1 0,0 0,0 -1,1 0,0 0,0 -1,0 0,1 0,1 0,2 -1,0 -1,0 -1,1l0 16zm35 2c0,0 1,0 1,0 1,0 1,-1 1,-2 1,-1 1,-2 1,-3 1,-2 1,-4 1,-6 0,-2 0,-4 -1,-6 0,-1 0,-2 -1,-3 0,-1 0,-2 -1,-2 0,0 -1,0 -1,0 -1,0 -1,0 -1,0 -1,0 -1,1 -2,2 0,1 -1,2 -1,3 0,2 0,4 0,6 0,2 0,4 0,6 0,1 1,2 1,3 1,1 1,2 2,2 0,0 0,0 1,0z"/>
  <path fill="url(#id0)" fill-rule="nonzero" d="M1 69c1,0 1,0 2,0 0,-1 0,-1 1,-1 0,0 0,-1 0,-1 0,-1 0,-2 0,-2l0 -26c0,0 0,-1 0,-2 0,0 0,-1 0,-1 -1,0 -1,-1 -1,-1 -1,0 -1,0 -2,0l0 -1 27 0 0 8 -2 0c0,0 0,-1 0,-2 0,-1 0,-2 0,-2 0,-1 -1,-1 -1,-2 0,0 -1,0 -2,0l-11 0 0 15 6 0c1,0 1,0 1,0 1,0 1,-1 1,-1 0,-1 0,-1 0,-2 0,0 0,-1 0,-2l2 0 0 12 -2 0c0,-1 0,-1 0,-2 0,-1 0,-1 0,-2 0,0 0,0 -1,-1 0,0 0,0 -1,0l-6 0 0 15 12 0c1,0 2,0 2,0 0,-1 1,-1 1,-2 0,0 0,-1 0,-2 0,-1 0,-2 0,-2l2 0 0 8 -28 0 0 -1z"/>
  <path id="1" fill="url(#id1)" fill-rule="nonzero" d="M42 62c0,1 -1,2 -1,3 0,1 0,1 -1,1 0,0 0,0 0,0 0,1 1,1 1,1 0,1 1,1 1,1 0,0 1,1 2,1 0,0 1,0 1,0 1,0 2,-1 3,-1 1,-1 1,-1 1,-3 0,0 0,-1 0,-1 0,-1 0,-1 -1,-1 0,-1 -1,-1 -2,-2 0,0 -1,-1 -2,-1 -2,-1 -3,-2 -5,-3 -1,0 -2,-1 -2,-2 -1,0 -2,-1 -2,-2 0,-1 0,-1 0,-2 0,-1 0,-2 0,-3 1,-1 2,-2 3,-2 1,-1 2,-1 3,-2 1,0 3,0 4,0 2,0 3,0 5,0 1,0 2,1 3,1 1,1 2,2 3,3 0,1 1,2 1,3 0,1 -1,2 -1,3 -1,0 -2,1 -3,1 -1,0 -2,-1 -3,-1 0,-1 -1,-2 -1,-3 0,-1 0,-1 0,-2 1,0 1,-1 1,-1 0,-1 0,-1 0,-1 0,0 0,-1 -1,-1 0,-1 -1,-1 -2,-1 -1,0 -2,0 -3,1 -1,1 -1,1 -1,2 0,1 0,2 1,2 0,1 0,1 1,2 0,0 1,1 1,1 1,0 1,0 2,1 2,1 3,2 4,2 2,1 3,2 4,3 0,0 1,1 1,2 0,0 0,1 0,2 0,1 0,2 0,3 -1,1 -2,2 -3,2 -1,1 -3,1 -4,2 -1,0 -3,0 -5,0 -1,0 -2,0 -4,0 -1,0 -2,-1 -3,-1 -2,-1 -3,-2 -3,-3 -1,-1 -1,-2 -1,-3 0,-1 0,-3 1,-3 0,-1 1,-2 3,-2 1,0 2,1 3,2 0,0 1,1 1,2z"/>
  <path id="2" fill="url(#id2)" fill-rule="nonzero" d="M59 39c0,0 0,-1 0,-2 1,0 1,-1 2,-1 0,-1 1,-1 2,-2 1,0 2,0 2,0 1,0 2,0 3,0 0,1 1,1 1,1 1,1 1,1 2,2 0,1 0,1 0,2l0 18 9 -10c1,0 1,-1 1,-1 0,0 -1,-1 -1,-1 -1,0 -1,0 -2,0l0 -1 8 0 0 1c-1,0 -2,0 -2,1 -1,0 -1,1 -2,1l-5 6 8 12c0,1 1,1 2,1 0,0 0,0 1,0 0,0 1,-1 1,-1 0,1 0,1 0,2 -1,0 -1,1 -2,1 0,1 -1,1 -2,1 -1,1 -2,1 -3,1 -1,0 -2,-1 -3,-1 -1,-1 -2,-2 -3,-4l-5 -7 0 7c0,0 0,1 0,2 0,0 0,1 1,1 0,0 0,0 1,1 0,0 1,0 1,0l0 1 -14 0 0 -1c1,0 2,0 2,0 0,-1 1,-1 1,-1 0,0 0,-1 0,-1 0,-1 0,-2 0,-2l0 -26c0,-1 0,-1 0,-1 0,0 -1,-1 -1,-1 0,0 -1,1 -2,1 0,0 -1,1 -1,1z"/>
  <path id="3" fill="url(#id3)" fill-rule="nonzero" d="M93 47c0,0 -1,1 -1,1 -1,0 -1,1 -2,1 0,0 0,-1 1,-2 0,0 1,-1 1,-1 1,-1 1,-1 2,-1 1,-1 2,-1 3,-1 0,0 1,0 2,0 1,1 1,1 2,1 0,1 1,1 1,2 0,1 1,1 1,2l0 16c0,0 0,1 0,2 0,0 0,1 0,1 0,0 0,0 1,1 0,0 1,0 2,0l0 1 -15 0 0 -1c1,0 2,0 2,0 1,-1 1,-1 1,-1 0,0 0,-1 0,-1 1,-1 1,-2 1,-2l0 -16c0,0 -1,-1 -1,-1 0,0 0,-1 -1,-1zm2 -10c0,-1 1,-1 1,-2 1,-1 1,-1 2,-1 1,0 2,0 2,1 1,1 1,1 1,2 0,1 0,1 -1,2 0,0 -1,1 -2,1 -1,0 -1,-1 -2,-1 0,-1 -1,-1 -1,-2z"/>
  <path id="4" fill="url(#id4)" fill-rule="nonzero" d="M112 58c1,0 2,1 3,2 1,0 1,1 1,2 0,1 0,2 -1,3 0,1 0,1 0,1 0,0 0,0 0,0 0,1 0,1 0,1 1,1 1,1 1,1 1,0 1,1 2,1 0,0 1,0 1,0 2,0 3,-1 3,-1 1,-1 2,-1 2,-3 0,0 0,-1 -1,-1 0,-1 0,-1 0,-1 -1,-1 -1,-1 -2,-2 -1,0 -2,-1 -3,-1 -1,-1 -3,-2 -4,-3 -1,0 -2,-1 -3,-2 -1,0 -1,-1 -1,-2 -1,-1 -1,-1 -1,-2 0,-1 0,-2 1,-3 0,-1 1,-2 2,-2 1,-1 2,-1 3,-2 2,0 3,0 5,0 1,0 3,0 4,0 2,0 3,1 4,1 1,1 2,2 2,3 1,1 1,2 1,3 0,1 0,2 -1,3 -1,0 -1,1 -3,1 -1,0 -2,-1 -2,-1 -1,-1 -1,-2 -1,-3 0,-1 0,-1 0,-2 0,0 0,-1 1,-1 0,-1 0,-1 0,-1 0,0 0,-1 -1,-1 -1,-1 -2,-1 -3,-1 -1,0 -2,0 -2,1 -1,1 -2,1 -2,2 0,1 1,2 1,2 0,1 1,1 1,2 1,0 1,1 2,1 0,0 1,0 1,1 2,1 4,2 5,2 1,1 2,2 3,3 1,0 1,1 1,2 1,0 1,1 1,2 0,1 -1,2 -1,3 -1,1 -2,2 -4,3 -1,0 -2,1 -4,1 -1,0 -2,0 -4,0l0 2c1,0 2,0 2,0 1,1 1,1 2,1 0,0 0,1 1,1 0,1 0,1 0,2 0,1 0,1 0,2 -1,0 -1,1 -2,1 0,0 -1,0 -1,1 -1,0 -2,0 -2,0 -1,0 -1,0 -2,0 0,0 0,0 -1,-1l0 -1c0,0 1,0 1,0 0,0 1,0 1,0 1,0 1,0 2,0 0,-1 0,-1 0,-2 0,-1 0,-2 0,-2 -1,0 -1,-1 -2,-1l0 -3c-1,0 -2,0 -4,0 -1,-1 -2,-1 -3,-2 -1,0 -1,-1 -2,-2 -1,-1 -1,-2 -1,-3 0,-1 1,-3 1,-3 1,-1 2,-2 3,-2z"/>
  <path id="5" fill="url(#id5)" fill-rule="nonzero" d="M150 70c-2,0 -4,0 -6,-1 -1,0 -3,-1 -4,-2 -1,-2 -2,-3 -3,-5 -1,-1 -1,-3 -1,-5 0,-2 0,-4 1,-6 1,-1 2,-3 3,-4 1,-1 2,-2 4,-2 2,-1 4,-1 6,-1 1,0 2,0 3,0 2,0 3,1 4,1 1,1 2,2 3,3 0,0 1,2 1,3 0,1 0,2 -1,3 -1,1 -1,1 -2,2 -1,1 -2,1 -3,1 -1,1 -3,1 -4,1 -1,0 -2,0 -3,0 -1,0 -2,0 -3,0 0,2 0,4 0,6 0,1 1,2 1,3 0,1 1,1 2,1 0,1 1,1 2,1 2,0 4,0 5,-1 2,-1 4,-2 5,-3 0,0 0,1 0,2 -1,0 -1,1 -2,2 -1,0 -2,1 -3,1 -2,0 -3,0 -5,0zm-5 -13c1,0 2,0 3,0 1,0 1,-1 2,-1 1,-1 1,-1 2,-2 0,-1 1,-2 1,-3 0,-1 -1,-2 -1,-2 0,-1 0,-2 0,-2 -1,-1 -1,-1 -1,-2 -1,0 -1,0 -2,0 -1,0 -1,0 -2,0 0,1 -1,2 -1,2 0,1 -1,3 -1,4 0,2 0,4 0,6z"/>
  <path id="6" fill="url(#id6)" fill-rule="nonzero" d="M162 39c0,0 0,-1 1,-2 0,0 0,-1 1,-1 1,-1 1,-1 2,-2 1,0 2,0 3,0 0,0 1,0 2,0 0,1 1,1 2,1 0,1 1,1 1,2 0,1 0,1 0,2l0 8c2,-2 4,-3 7,-3 2,0 3,0 4,0 1,1 2,1 3,2 1,1 2,2 2,3 1,1 1,2 1,3l0 13c0,0 0,1 0,1 0,0 1,1 1,1 1,0 1,-1 2,-1 0,0 1,-1 1,-1 0,0 0,1 0,2 -1,0 -1,1 -2,1 0,1 -1,1 -2,1 -1,1 -1,1 -2,1 -1,0 -2,0 -2,0 -1,-1 -2,-1 -2,-2 -1,0 -1,-1 -2,-1 0,-1 0,-2 0,-2l0 -13c0,-1 0,-2 -1,-3 0,-1 0,-1 0,-2 -1,-1 -1,-1 -2,-1 0,0 -1,-1 -1,-1 -1,0 -1,1 -2,1 0,0 0,0 -1,1 0,0 -1,1 -1,1 0,1 0,1 -1,1l0 16c0,0 0,1 1,2 0,0 0,1 0,1 0,0 0,0 1,1 0,0 1,0 1,0l0 1 -14 0 0 -1c1,0 2,0 2,0 1,-1 1,-1 1,-1 0,0 0,-1 0,-1 0,-1 0,-2 0,-2l0 -26c0,-1 0,-1 0,-1 0,0 0,-1 -1,-1 0,0 -1,1 -1,1 -1,0 -1,1 -2,1z"/>
  <path id="7" fill="url(#id7)" fill-rule="nonzero" d="M199 47c0,0 -1,1 -1,1 -1,0 -1,1 -2,1 0,0 0,-1 1,-2 0,0 1,-1 1,-1 1,-1 2,-1 2,-1 1,-1 2,-1 3,-1 1,0 1,0 2,0 1,1 1,1 2,1 0,1 1,1 1,2 0,1 1,1 1,2l0 16c0,0 0,1 0,2 0,0 0,1 0,1 0,0 1,0 1,1 0,0 1,0 2,0l0 1 -14 0 0 -1c0,0 1,0 1,0 1,-1 1,-1 1,-1 0,0 0,-1 1,-1 0,-1 0,-2 0,-2l0 -16c0,0 -1,-1 -1,-1 0,0 0,-1 -1,-1zm2 -10c0,-1 1,-1 1,-2 1,-1 1,-1 2,-1 1,0 2,0 2,1 1,1 1,1 1,2 0,1 0,1 -1,2 0,0 -1,1 -2,1 -1,0 -1,-1 -2,-1 0,-1 -1,-1 -1,-2z"/>
  <path id="8" fill="url(#id8)" fill-rule="nonzero" d="M216 47c0,0 0,1 -1,1 -1,0 -1,1 -2,1 0,0 1,-1 1,-2 0,0 1,-1 1,-1 1,-1 2,-1 2,-1 1,-1 2,-1 3,-1 1,0 2,0 3,1 1,1 2,2 3,3 0,-1 1,-2 3,-3 1,0 2,-1 3,-1 1,0 2,0 3,1 1,0 1,0 2,1 0,0 1,1 1,1 0,1 0,1 0,2 0,1 0,2 -1,3 0,1 -1,1 -3,1 0,0 -1,0 -1,0 -1,-1 -1,-1 -1,-1 -1,-1 -1,-1 -1,-2 0,0 0,-1 0,-1 0,-1 0,-2 0,-2 0,-1 0,-1 1,-2 -1,0 -1,1 -2,1 -1,0 -1,0 -2,1 0,0 -1,1 -1,1 -1,1 -1,1 -1,2l0 15c0,0 0,1 0,2 0,0 0,1 0,1 0,0 1,0 1,1 0,0 1,0 2,0l0 1 -14 0 0 -1c0,0 1,0 1,0 1,-1 1,-1 1,-1 0,0 1,-1 1,-1 0,-1 0,-2 0,-2l0 -16c0,0 0,-1 -1,-1 0,0 0,-1 -1,-1z"/>
  <path id="9" fill="url(#id9)" fill-rule="nonzero" d="M249 62c0,1 0,2 -1,3 0,1 0,1 0,1 0,0 0,0 0,0 0,1 0,1 1,1 0,1 0,1 1,1 0,0 1,1 1,1 1,0 1,0 2,0 1,0 2,-1 3,-1 1,-1 1,-1 1,-3 0,0 0,-1 0,-1 0,-1 -1,-1 -1,-1 -1,-1 -1,-1 -2,-2 -1,0 -1,-1 -2,-1 -2,-1 -4,-2 -5,-3 -1,0 -2,-1 -3,-2 0,0 -1,-1 -1,-2 0,-1 -1,-1 -1,-2 0,-1 1,-2 1,-3 1,-1 1,-2 2,-2 1,-1 2,-1 4,-2 1,0 3,0 4,0 2,0 3,0 4,0 2,0 3,1 4,1 1,1 2,2 2,3 1,1 1,2 1,3 0,1 0,2 -1,3 0,0 -1,1 -2,1 -1,0 -2,-1 -3,-1 -1,-1 -1,-2 -1,-3 0,-1 0,-1 0,-2 0,0 1,-1 1,-1 0,-1 0,-1 0,-1 0,0 0,-1 -1,-1 0,-1 -1,-1 -2,-1 -1,0 -2,0 -3,1 -1,1 -1,1 -1,2 0,1 0,2 0,2 1,1 1,1 1,2 1,0 1,1 2,1 0,0 1,0 1,1 2,1 4,2 5,2 1,1 3,2 3,3 1,0 1,1 2,2 0,0 0,1 0,2 0,1 0,2 -1,3 0,1 -1,2 -2,2 -1,1 -3,1 -4,2 -2,0 -3,0 -5,0 -1,0 -3,0 -4,0 -1,0 -3,-1 -4,-1 -1,-1 -2,-2 -2,-3 -1,-1 -2,-2 -2,-3 0,-1 1,-3 2,-3 0,-1 1,-2 2,-2 2,0 3,1 3,2 1,0 1,1 1,2z"/>
  <path id="10" fill="url(#id10)" fill-rule="nonzero" d="M269 49c0,0 0,-1 0,-2 1,0 1,-1 2,-1 0,-1 1,-1 1,-1 1,-1 2,-1 3,-1 0,0 1,0 2,1 0,0 1,0 1,1 1,0 1,0 1,1 1,0 1,1 1,1 0,0 0,0 0,0 0,0 0,0 0,0 1,-1 2,-2 3,-3 2,-1 3,-1 5,-1 1,0 2,0 4,0 1,1 2,2 3,3 1,1 2,3 2,4 1,2 1,4 1,6 0,2 0,4 -1,6 0,1 -1,3 -2,4 -1,1 -2,2 -4,3 -1,0 -2,0 -4,0 -1,0 -2,0 -3,0 0,0 -1,0 -1,-1 -1,0 -1,0 -1,0 0,0 -1,0 -1,-1l0 7c0,0 0,1 0,2 0,0 0,1 0,1 1,0 1,1 1,1 1,0 1,0 2,0l0 1 -14 0 0 -1c1,0 1,0 2,0 0,0 0,-1 1,-1 0,0 0,-1 0,-1 0,-1 0,-2 0,-2l0 -26c0,0 0,-1 0,-1 -1,0 -1,-1 -1,-1 -1,0 -1,1 -2,1 0,0 -1,1 -1,1zm12 18c1,0 1,1 2,1 0,1 1,1 2,1 1,0 1,0 2,-1 0,0 1,-1 1,-1 0,-1 1,-2 1,-4 0,-1 0,-3 0,-6 0,-2 0,-4 0,-6 0,-1 -1,-2 -1,-3 0,-1 -1,-2 -1,-2 -1,0 -1,-1 -2,-1 0,0 -1,1 -1,1 -1,0 -1,0 -1,1 -1,0 -1,1 -1,1 -1,1 -1,1 -1,1l0 18z"/>
  <path id="11" fill="url(#id11)" fill-rule="nonzero" d="M317 69c0,0 1,0 1,0 1,-1 2,-1 2,-2 1,-1 1,-2 1,-4 1,-2 1,-4 1,-6 0,-2 0,-4 -1,-6 0,-2 0,-3 -1,-4 0,-1 -1,-1 -2,-2 0,0 -1,0 -1,0 -1,0 -1,0 -2,0 -1,1 -1,1 -1,2 -1,1 -1,2 -2,4 0,2 0,4 0,6 0,2 0,4 0,6 1,2 1,3 2,4 0,1 0,1 1,2 1,0 1,0 2,0zm0 -25c2,0 4,0 5,1 2,0 3,1 5,2 1,1 2,3 2,4 1,2 1,4 1,6 0,2 0,4 -1,6 0,1 -1,3 -2,4 -2,1 -3,2 -5,2 -1,1 -3,1 -5,1 -2,0 -4,0 -6,-1 -2,0 -3,-1 -4,-2 -1,-1 -2,-3 -3,-4 0,-2 -1,-4 -1,-6 0,-2 1,-4 1,-6 1,-1 2,-3 3,-4 1,-1 2,-2 4,-2 2,-1 4,-1 6,-1z"/>
  <path id="12" fill="url(#id12)" fill-rule="nonzero" d="M337 47c0,0 -1,1 -2,1 0,0 -1,1 -1,1 0,0 0,-1 0,-2 1,0 1,-1 2,-1 0,-1 1,-1 2,-1 1,-1 1,-1 2,-1 2,0 3,0 4,1 1,1 2,2 2,3 1,-1 2,-2 3,-3 1,0 3,-1 4,-1 1,0 2,0 2,1 1,0 2,0 2,1 1,0 1,1 1,1 1,1 1,1 1,2 0,1 0,2 -1,3 -1,1 -2,1 -3,1 -1,0 -1,0 -2,0 0,-1 -1,-1 -1,-1 0,-1 0,-1 -1,-2 0,0 0,-1 0,-1 0,-1 0,-2 1,-2 0,-1 0,-1 0,-2 0,0 -1,1 -1,1 -1,0 -2,0 -2,1 -1,0 -1,1 -2,1 0,1 -1,1 -1,2l0 15c0,0 0,1 0,2 0,0 0,1 1,1 0,0 0,0 1,1 0,0 1,0 1,0l0 1 -14 0 0 -1c1,0 1,0 2,0 0,-1 1,-1 1,-1 0,0 0,-1 0,-1 0,-1 0,-2 0,-2l0 -16c0,0 0,-1 0,-1 0,0 -1,-1 -1,-1z"/>
 </g>
</svg>
