

<!-- Creator: CorelDRAW X8 -->
<svg xmlns="http://www.w3.org/2000/svg" xml:space="preserve" x="0" y="0" width="68.648mm" height="25mm" version="1.1" shape-rendering="geometricPrecision" text-rendering="geometricPrecision" image-rendering="optimizeQuality" fill-rule="evenodd" clip-rule="evenodd"
viewBox="0 0 274 100"
 xmlns:xlink="http://www.w3.org/1999/xlink">
 <defs>
   <linearGradient id="id0" gradientUnits="userSpaceOnUse" x1="0.000361679" y1="49.9553" x2="274.348" y2="49.9553">
    <stop offset="0" stop-opacity="1" stop-color="#E8AC00"/>
    <stop offset="1" stop-opacity="1" stop-color="#9E1E33"/>
   </linearGradient>
   <linearGradient id="id1" gradientUnits="userSpaceOnUse" x1="0.000361679" y1="49.9553" x2="274.348" y2="49.9553">
    <stop offset="0" stop-opacity="1" stop-color="#E8AC00"/>
    <stop offset="1" stop-opacity="1" stop-color="#9E1E33"/>
   </linearGradient>
   <linearGradient id="id2" gradientUnits="userSpaceOnUse" x1="0.000361679" y1="49.9553" x2="274.348" y2="49.9553">
    <stop offset="0" stop-opacity="1" stop-color="#E8AC00"/>
    <stop offset="1" stop-opacity="1" stop-color="#9E1E33"/>
   </linearGradient>
   <linearGradient id="id3" gradientUnits="userSpaceOnUse" x1="0.000361679" y1="49.9553" x2="274.348" y2="49.9553">
    <stop offset="0" stop-opacity="1" stop-color="#E8AC00"/>
    <stop offset="1" stop-opacity="1" stop-color="#9E1E33"/>
   </linearGradient>
   <linearGradient id="id4" gradientUnits="userSpaceOnUse" x1="0.000361679" y1="49.9553" x2="274.348" y2="49.9553">
    <stop offset="0" stop-opacity="1" stop-color="#E8AC00"/>
    <stop offset="1" stop-opacity="1" stop-color="#9E1E33"/>
   </linearGradient>
   <linearGradient id="id5" gradientUnits="userSpaceOnUse" x1="0.000361679" y1="49.9553" x2="274.348" y2="49.9553">
    <stop offset="0" stop-opacity="1" stop-color="#E8AC00"/>
    <stop offset="1" stop-opacity="1" stop-color="#9E1E33"/>
   </linearGradient>
   <linearGradient id="id6" gradientUnits="userSpaceOnUse" x1="0.000361679" y1="49.9553" x2="274.348" y2="49.9553">
    <stop offset="0" stop-opacity="1" stop-color="#E8AC00"/>
    <stop offset="1" stop-opacity="1" stop-color="#9E1E33"/>
   </linearGradient>
   <linearGradient id="id7" gradientUnits="userSpaceOnUse" x1="0.000361679" y1="49.9553" x2="274.348" y2="49.9553">
    <stop offset="0" stop-opacity="1" stop-color="#E8AC00"/>
    <stop offset="1" stop-opacity="1" stop-color="#9E1E33"/>
   </linearGradient>
   <linearGradient id="id8" gradientUnits="userSpaceOnUse" x1="0.000361679" y1="49.9553" x2="274.348" y2="49.9553">
    <stop offset="0" stop-opacity="1" stop-color="#E8AC00"/>
    <stop offset="1" stop-opacity="1" stop-color="#9E1E33"/>
   </linearGradient>
   <linearGradient id="id9" gradientUnits="userSpaceOnUse" x1="0.000361679" y1="49.9553" x2="274.348" y2="49.9553">
    <stop offset="0" stop-opacity="1" stop-color="#E8AC00"/>
    <stop offset="1" stop-opacity="1" stop-color="#9E1E33"/>
   </linearGradient>
   <linearGradient id="id10" gradientUnits="userSpaceOnUse" x1="0.000361679" y1="49.9553" x2="274.348" y2="49.9553">
    <stop offset="0" stop-opacity="1" stop-color="#E8AC00"/>
    <stop offset="1" stop-opacity="1" stop-color="#9E1E33"/>
   </linearGradient>
 </defs>
 <g id="Katman_x0020_1">
  <metadata id="CorelCorpID_0Corel-Layer"/>
  <rect fill="none" width="274.348" height="99.9113"/>
  <path fill="url(#id0)" fill-rule="nonzero" d="M14 60c0,0 1,0 1,0 1,0 1,-1 2,-1 0,0 0,-1 0,-1 1,-1 1,-1 1,-1l0 -10c0,0 0,0 0,-1 0,0 -1,0 -1,0 0,0 0,0 -1,0 0,0 0,0 -1,0l0 -1 13 0 0 1c0,0 0,0 -1,0 0,0 0,0 0,0 -1,0 -1,0 -1,0 0,1 -1,1 -1,1l0 10c0,0 1,1 1,1 0,0 1,0 1,0 1,0 1,0 2,0 0,0 1,-1 1,-1 0,0 0,1 0,2 -1,0 -1,1 -2,1 0,0 -1,1 -1,1 -1,0 -2,0 -3,0 0,0 -1,0 -1,0 -1,0 -1,0 -2,-1 0,0 -1,0 -1,-1 -1,0 -1,-1 -1,-1 -1,1 -2,2 -3,3 -1,0 -2,1 -4,1 -2,0 -3,-1 -5,-1 -1,-1 -2,-2 -3,-3 -1,-2 -2,-4 -3,-6 -1,-2 -1,-4 -1,-6 0,-3 0,-5 1,-7 1,-2 2,-4 3,-5 1,-2 3,-3 4,-4 2,0 4,-1 6,-1 1,0 2,0 4,1 1,0 2,0 3,1 1,0 2,1 2,2 1,1 1,2 1,4 0,0 0,1 0,1 0,0 -1,1 -1,1 0,1 -1,1 -1,1 -1,0 -1,1 -2,1 -2,0 -3,-1 -3,-2 -1,-1 -1,-2 -1,-3 0,-1 0,-2 0,-3 0,-1 0,-2 1,-2 0,0 0,0 -1,0 0,0 0,0 0,0 0,0 0,0 0,-1 -1,0 -1,0 -1,0 -1,0 -2,1 -3,1 -1,1 -1,1 -2,2 0,1 -1,2 -1,3 0,1 -1,3 -1,4 0,1 0,2 0,3 0,1 0,2 0,3 0,3 0,5 0,7 1,2 1,3 2,4 0,1 1,2 2,2 0,1 1,1 2,1z"/>
  <path id="1" fill="url(#id1)" fill-rule="nonzero" d="M33 55c0,-1 1,-2 1,-3 1,-1 2,-2 4,-2 1,0 2,-1 4,-1 1,0 2,0 3,0 1,0 1,0 1,0 1,0 1,0 1,0l0 -1c0,-2 0,-3 0,-5 0,-1 -1,-2 -1,-2 0,-1 -1,-1 -1,-2 -1,0 -2,0 -3,0 0,0 -1,0 -1,0 0,1 0,2 1,2 0,1 0,1 0,2 0,1 -1,2 -1,2 -1,1 -2,1 -3,1 -1,0 -1,0 -2,-1 -1,0 -1,-1 -1,-2 0,0 0,-1 1,-2 0,0 0,-1 1,-1 1,-1 2,-1 3,-1 1,-1 2,-1 3,-1 2,0 4,0 5,1 1,0 3,1 4,2 0,1 1,2 2,3 0,1 0,2 0,4l0 9c0,0 1,1 1,1 0,0 0,0 1,0 0,0 0,0 1,0 0,0 1,-1 1,-1 0,0 0,1 0,1 -1,1 -1,1 -2,2 0,0 -1,1 -1,1 -1,0 -1,0 -2,0 -1,0 -2,0 -3,-1 -1,0 -2,-1 -2,-2 -1,1 -2,2 -3,3 -1,0 -2,1 -3,1 -3,0 -5,-1 -7,-2 -1,-1 -2,-3 -2,-5zm10 5c1,0 1,0 2,0 0,-1 0,-1 1,-1 0,-1 0,-1 1,-1 0,-1 0,-1 0,-1l0 -7c0,0 -1,0 -2,0 0,0 -1,0 -1,0 -1,0 -2,1 -2,2 -1,1 -1,2 -1,4 0,2 0,3 0,3 1,1 2,1 2,1z"/>
  <path id="2" fill="url(#id2)" fill-rule="nonzero" d="M61 33c0,0 -1,0 -1,0 -1,0 -1,1 -2,1 0,0 0,-1 1,-1 0,-1 1,-1 1,-2 1,0 1,-1 2,-1 1,0 1,0 2,0 1,0 1,0 2,0 1,0 1,1 2,1 0,0 0,1 1,1 0,1 0,1 0,2l0 23c0,0 0,1 0,1 0,1 0,1 0,1 1,1 1,1 1,1 1,0 1,0 2,0l0 1 -13 0 0 -1c1,0 2,0 2,0 0,0 1,0 1,-1 0,0 0,0 0,-1 0,0 0,-1 0,-1l0 -23c0,0 0,-1 0,-1 0,0 -1,0 -1,0z"/>
  <path id="3" fill="url(#id3)" fill-rule="nonzero" d="M75 55c0,-1 0,-2 1,-3 1,-1 2,-2 3,-2 2,0 3,-1 4,-1 2,0 3,0 4,0 0,0 1,0 1,0 0,0 1,0 1,0l0 -1c0,-2 0,-3 0,-5 -1,-1 -1,-2 -1,-2 -1,-1 -1,-1 -2,-2 0,0 -1,0 -2,0 0,0 -1,0 -1,0 0,1 0,2 0,2 0,1 0,1 0,2 0,1 0,2 -1,2 0,1 -1,1 -2,1 -1,0 -2,0 -2,-1 -1,0 -1,-1 -1,-2 0,0 0,-1 0,-2 1,0 1,-1 2,-1 0,-1 1,-1 2,-1 1,-1 2,-1 4,-1 2,0 3,0 5,1 1,0 2,1 3,2 1,1 2,2 2,3 1,1 1,2 1,4l0 9c0,0 0,1 0,1 1,0 1,0 1,0 1,0 1,0 1,0 1,0 1,-1 2,-1 0,0 0,1 -1,1 0,1 0,1 -1,2 0,0 -1,1 -2,1 0,0 -1,0 -2,0 -1,0 -2,0 -3,-1 0,0 -1,-1 -1,-2 -1,1 -2,2 -3,3 -1,0 -2,1 -4,1 -3,0 -5,-1 -6,-2 -1,-1 -2,-3 -2,-5zm10 5c0,0 1,0 1,0 1,-1 1,-1 1,-1 1,-1 1,-1 1,-1 1,-1 1,-1 1,-1l0 -7c-1,0 -1,0 -2,0 -1,0 -1,0 -1,0 -1,0 -2,1 -3,2 0,1 -1,2 -1,4 0,2 1,3 1,3 1,1 1,1 2,1z"/>
  <path id="4" fill="url(#id4)" fill-rule="nonzero" d="M106 30c1,0 1,0 2,0 1,0 1,1 2,1 0,0 1,1 1,1 0,1 0,1 0,2l0 5 7 0 0 1 -7 0 0 15c0,1 0,1 0,2 0,0 1,1 1,1 0,1 0,1 1,2 0,0 1,0 2,0 1,0 2,0 3,-1 1,0 2,-1 3,-2 0,0 0,1 0,2 -1,0 -1,1 -2,1 0,1 -1,1 -2,1 -1,1 -2,1 -4,1 -3,0 -5,-1 -6,-2 -2,-1 -3,-3 -3,-5l0 -15 -2 0 0 -1 2 0 0 -5c0,0 0,-1 0,-1 0,0 -1,0 -1,0 0,0 -1,0 -1,0 -1,0 -1,1 -2,1 0,0 1,-1 1,-1 0,-1 1,-1 1,-2 1,0 1,-1 2,-1 1,0 1,0 2,0z"/>
  <path id="5" fill="url(#id5)" fill-rule="nonzero" d="M124 55c0,-1 0,-2 1,-3 1,-1 2,-2 3,-2 1,0 3,-1 4,-1 2,0 3,0 4,0 0,0 1,0 1,0 0,0 1,0 1,0l0 -1c0,-2 0,-3 0,-5 -1,-1 -1,-2 -1,-2 -1,-1 -1,-1 -2,-2 -1,0 -1,0 -2,0 -1,0 -1,0 -2,0 1,1 1,2 1,2 0,1 0,1 0,2 0,1 0,2 -1,2 0,1 -1,1 -2,1 -1,0 -2,0 -2,-1 -1,0 -1,-1 -1,-2 0,0 0,-1 0,-2 0,0 1,-1 2,-1 0,-1 1,-1 2,-1 1,-1 2,-1 4,-1 2,0 3,0 5,1 1,0 2,1 3,2 1,1 2,2 2,3 1,1 1,2 1,4l0 9c0,0 0,1 0,1 0,0 1,0 1,0 0,0 1,0 1,0 1,0 1,-1 2,-1 0,0 0,1 -1,1 0,1 0,1 -1,2 0,0 -1,1 -2,1 0,0 -1,0 -2,0 -1,0 -2,0 -3,-1 0,0 -1,-1 -1,-2 -1,1 -2,2 -3,3 -1,0 -2,1 -4,1 -3,0 -5,-1 -6,-2 -2,-1 -2,-3 -2,-5zm10 5c0,0 1,0 1,0 1,-1 1,-1 1,-1 1,-1 1,-1 1,-1 0,-1 1,-1 1,-1l0 -7c-1,0 -1,0 -2,0 -1,0 -1,0 -1,0 -1,0 -2,1 -3,2 0,1 -1,2 -1,4 0,2 1,3 1,3 1,1 1,1 2,1z"/>
  <path id="6" fill="url(#id6)" fill-rule="nonzero" d="M159 55c0,1 -1,1 -1,2 0,0 0,1 0,1 0,0 0,0 0,0 0,1 0,1 0,1 0,0 1,1 1,1 1,0 1,0 1,0 1,0 1,0 2,0 1,0 2,0 2,0 1,-1 2,-2 2,-3 0,0 -1,-1 -1,-1 0,0 0,-1 -1,-1 0,-1 0,-1 -1,-1 -1,-1 -1,-1 -2,-1 -2,-1 -3,-2 -4,-3 -1,0 -2,-1 -3,-2 0,0 -1,-1 -1,-1 0,-1 0,-2 0,-2 0,-1 0,-2 0,-3 1,-1 1,-1 2,-2 1,-1 2,-1 3,-1 1,-1 3,-1 4,-1 1,0 3,0 4,1 1,0 2,0 3,1 1,0 2,1 2,2 1,1 1,1 1,2 0,2 0,2 -1,3 0,1 -1,1 -2,1 -1,0 -2,0 -3,-1 0,0 -1,-1 -1,-2 0,-1 0,-1 1,-2 0,0 0,-1 0,-1 0,0 1,-1 1,-1 0,0 -1,-1 -1,-1 -1,0 -2,-1 -3,-1 -1,0 -1,1 -2,1 -1,1 -1,2 -1,2 0,1 0,2 0,2 1,1 1,1 1,1 1,1 1,1 2,1 0,1 1,1 1,1 2,1 3,2 4,2 1,1 2,2 3,3 1,0 1,1 1,1 1,1 1,1 1,2 0,1 -1,2 -1,3 -1,1 -1,1 -2,2 -1,0 -3,1 -4,1 -1,1 -3,1 -4,1 -1,0 -2,0 -4,-1 -1,0 -2,0 -3,-1 -1,0 -2,-1 -2,-2 -1,-1 -1,-2 -1,-3 0,-1 0,-2 1,-3 0,0 1,-1 2,-1 1,0 2,0 3,1 0,1 1,2 1,3z"/>
  <path id="7" fill="url(#id7)" fill-rule="nonzero" d="M176 55c0,-1 1,-2 2,-3 1,-1 2,-2 3,-2 1,0 2,-1 4,-1 1,0 3,0 4,0 0,0 0,0 1,0 0,0 0,0 1,0l0 -1c0,-2 0,-3 -1,-5 0,-1 0,-2 -1,-2 0,-1 -1,-1 -1,-2 -1,0 -1,0 -2,0 -1,0 -1,0 -2,0 1,1 1,2 1,2 0,1 0,1 0,2 0,1 0,2 -1,2 -1,1 -1,1 -2,1 -1,0 -2,0 -3,-1 0,0 -1,-1 -1,-2 0,0 1,-1 1,-2 0,0 1,-1 1,-1 1,-1 2,-1 3,-1 1,-1 2,-1 4,-1 1,0 3,0 4,1 2,0 3,1 4,2 1,1 1,2 2,3 0,1 1,2 1,4l0 9c0,0 0,1 0,1 0,0 0,0 1,0 0,0 1,0 1,0 0,0 1,-1 1,-1 0,0 0,1 0,1 0,1 -1,1 -1,2 -1,0 -1,1 -2,1 -1,0 -1,0 -2,0 -1,0 -2,0 -3,-1 -1,0 -1,-1 -2,-2 0,1 -1,2 -2,3 -1,0 -3,1 -4,1 -3,0 -5,-1 -6,-2 -2,-1 -3,-3 -3,-5zm11 5c0,0 1,0 1,0 0,-1 1,-1 1,-1 0,-1 1,-1 1,-1 0,-1 0,-1 1,-1l0 -7c-1,0 -2,0 -2,0 -1,0 -1,0 -2,0 -1,0 -1,1 -2,2 -1,1 -1,2 -1,4 0,2 0,3 1,3 0,1 1,1 2,1z"/>
  <path id="8" fill="url(#id8)" fill-rule="nonzero" d="M205 42c0,0 -1,0 -1,0 -1,0 -1,1 -2,1 0,0 0,-1 1,-2 0,0 0,-1 1,-1 0,0 1,-1 2,-1 0,0 1,0 2,0 1,0 2,0 3,0 1,1 2,2 2,3 1,-1 2,-2 3,-2 1,-1 2,-1 3,-1 1,0 1,0 2,0 1,0 1,1 2,1 0,0 1,1 1,1 0,1 0,1 0,2 0,1 0,2 -1,2 0,1 -1,1 -2,1 -1,0 -1,0 -2,0 0,0 -1,0 -1,-1 0,0 0,-1 0,-1 0,0 -1,-1 -1,-1 0,-1 1,-1 1,-2 0,-1 0,-1 0,-1 0,0 -1,0 -1,0 -1,0 -1,1 -2,1 0,0 -1,1 -1,1 0,1 -1,1 -1,2l0 13c0,0 0,1 0,1 0,1 0,1 0,1 1,1 1,1 1,1 1,0 1,0 2,0l0 1 -13 0 0 -1c1,0 2,0 2,0 0,0 0,0 1,-1 0,0 0,0 0,-1 0,0 0,-1 0,-1l0 -14c0,0 0,-1 0,-1 -1,0 -1,0 -1,0z"/>
  <path id="9" fill="url(#id9)" fill-rule="nonzero" d="M226 55c0,-1 0,-2 1,-3 1,-1 2,-2 3,-2 2,0 3,-1 4,-1 2,0 3,0 4,0 0,0 1,0 1,0 0,0 1,0 1,0l0 -1c0,-2 0,-3 0,-5 -1,-1 -1,-2 -1,-2 -1,-1 -1,-1 -2,-2 0,0 -1,0 -2,0 -1,0 -1,0 -1,0 0,1 0,2 0,2 0,1 0,1 0,2 0,1 0,2 -1,2 0,1 -1,1 -2,1 -1,0 -2,0 -2,-1 -1,0 -1,-1 -1,-2 0,0 0,-1 0,-2 1,0 1,-1 2,-1 0,-1 1,-1 2,-1 1,-1 2,-1 4,-1 2,0 3,0 5,1 1,0 2,1 3,2 1,1 2,2 2,3 1,1 1,2 1,4l0 9c0,0 0,1 0,1 1,0 1,0 1,0 1,0 1,0 1,0 1,0 1,-1 2,-1 0,0 0,1 -1,1 0,1 0,1 -1,2 0,0 -1,1 -2,1 0,0 -1,0 -2,0 -1,0 -2,0 -3,-1 0,0 -1,-1 -1,-2 -1,1 -2,2 -3,3 -1,0 -2,1 -4,1 -3,0 -5,-1 -6,-2 -1,-1 -2,-3 -2,-5zm10 5c0,0 1,0 1,0 1,-1 1,-1 1,-1 1,-1 1,-1 1,-1 1,-1 1,-1 1,-1l0 -7c-1,0 -1,0 -2,0 -1,0 -1,0 -1,0 -1,0 -2,1 -3,2 0,1 -1,2 -1,4 0,2 1,3 1,3 1,1 1,1 2,1z"/>
  <path id="10" fill="url(#id10)" fill-rule="nonzero" d="M253 43c0,0 0,-1 0,-1 -1,0 -1,0 -1,0 -1,0 -1,0 -2,0 0,0 0,1 -1,1 0,-1 0,-1 1,-2 0,0 0,-1 1,-1 1,0 1,-1 2,-1 1,0 1,0 2,0 2,0 3,0 3,1 1,0 2,1 3,3l4 10 5 -12c0,0 0,0 0,-1 0,0 0,0 0,0 0,0 -1,0 -1,0 0,0 0,0 -1,0 0,0 0,0 0,0l-1 0 0 -1 7 0 0 1c-1,0 -1,0 -2,0 0,0 0,0 -1,1l-9 23c0,1 -1,2 -1,3 -1,1 -1,2 -2,2 0,1 -1,1 -1,1 -1,0 -2,1 -2,1 -2,0 -3,-1 -4,-2 0,0 -1,-1 -1,-2 0,-2 1,-3 1,-3 1,-1 2,-1 3,-1 1,0 2,0 2,1 1,1 1,1 1,2 0,1 0,1 0,2 -1,0 -1,1 -1,1 1,0 1,0 2,-1 1,-1 1,-2 2,-4l1 -2 -9 -19z"/>
 </g>
</svg>
