

<!-- Creator: CorelDRAW X8 -->
<svg xmlns="http://www.w3.org/2000/svg" xml:space="preserve" width="93.8912mm" height="25mm" version="1.1" shape-rendering="geometricPrecision" text-rendering="geometricPrecision" image-rendering="optimizeQuality" fill-rule="evenodd" clip-rule="evenodd"
viewBox="0 0 481 128"
 xmlns:xlink="http://www.w3.org/1999/xlink">
 <defs>
    <linearGradient id="id0" gradientUnits="userSpaceOnUse" x1="198.652" y1="64.0272" x2="480.931" y2="64.0272">
     <stop offset="0" stop-opacity="1" stop-color="#DB1F29"/>
     <stop offset="1" stop-opacity="1" stop-color="#FEFEFE"/>
    </linearGradient>
    <linearGradient id="id1" gradientUnits="userSpaceOnUse" x1="198.652" y1="64.0272" x2="480.931" y2="64.0272">
     <stop offset="0" stop-opacity="1" stop-color="#DB1F29"/>
     <stop offset="1" stop-opacity="1" stop-color="#FEFEFE"/>
    </linearGradient>
    <linearGradient id="id2" gradientUnits="userSpaceOnUse" x1="198.652" y1="64.0272" x2="480.931" y2="64.0272">
     <stop offset="0" stop-opacity="1" stop-color="#DB1F29"/>
     <stop offset="1" stop-opacity="1" stop-color="#FEFEFE"/>
    </linearGradient>
    <linearGradient id="id3" gradientUnits="userSpaceOnUse" x1="198.652" y1="64.0272" x2="480.931" y2="64.0272">
     <stop offset="0" stop-opacity="1" stop-color="#DB1F29"/>
     <stop offset="1" stop-opacity="1" stop-color="#FEFEFE"/>
    </linearGradient>
    <linearGradient id="id4" gradientUnits="userSpaceOnUse" x1="198.652" y1="64.0272" x2="480.931" y2="64.0272">
     <stop offset="0" stop-opacity="1" stop-color="#DB1F29"/>
     <stop offset="1" stop-opacity="1" stop-color="#FEFEFE"/>
    </linearGradient>
    <linearGradient id="id5" gradientUnits="userSpaceOnUse" x1="198.652" y1="64.0272" x2="480.931" y2="64.0272">
     <stop offset="0" stop-opacity="1" stop-color="#DB1F29"/>
     <stop offset="1" stop-opacity="1" stop-color="#FEFEFE"/>
    </linearGradient>
    <linearGradient id="id6" gradientUnits="userSpaceOnUse" x1="198.652" y1="64.0272" x2="480.931" y2="64.0272">
     <stop offset="0" stop-opacity="1" stop-color="#DB1F29"/>
     <stop offset="1" stop-opacity="1" stop-color="#FEFEFE"/>
    </linearGradient>
    <linearGradient id="id7" gradientUnits="userSpaceOnUse" x1="198.652" y1="64.0272" x2="480.931" y2="64.0272">
     <stop offset="0" stop-opacity="1" stop-color="#DB1F29"/>
     <stop offset="1" stop-opacity="1" stop-color="#FEFEFE"/>
    </linearGradient>
    <linearGradient id="id8" gradientUnits="userSpaceOnUse" x1="198.652" y1="64.0272" x2="480.931" y2="64.0272">
     <stop offset="0" stop-opacity="1" stop-color="#DB1F29"/>
     <stop offset="1" stop-opacity="1" stop-color="#FEFEFE"/>
    </linearGradient>
    <linearGradient id="id9" gradientUnits="userSpaceOnUse" x1="-0" y1="54.0834" x2="174.828" y2="54.0834">
     <stop offset="0" stop-opacity="1" stop-color="white"/>
     <stop offset="1" stop-opacity="1" stop-color="black"/>
    </linearGradient>
    <linearGradient id="id10" gradientUnits="userSpaceOnUse" x1="-0" y1="69.5653" x2="174.828" y2="69.5653">
     <stop offset="0" stop-opacity="1" stop-color="#DB1F29"/>
     <stop offset="1" stop-opacity="1" stop-color="black"/>
    </linearGradient>
 </defs>
 <g id="Katman_x0020_1">
  <metadata id="CorelCorpID_0Corel-Layer"/>
  <g id="_2187318453056">
   <path fill="url(#id0)" fill-rule="nonzero" d="M212 78c3,0 5,-1 6,-2 1,-1 2,-3 2,-5 0,0 0,-1 0,-2 -1,-1 -1,-1 -2,-2 -1,-1 -2,-2 -3,-3 -2,-1 -4,-2 -6,-3 -1,-1 -2,-1 -3,-2 -1,0 -2,-1 -3,-2 -1,-1 -2,-3 -2,-4 -1,-1 -1,-3 -1,-4 0,-2 0,-3 1,-5 0,-1 1,-2 2,-3 1,-1 3,-2 4,-2 2,-1 4,-1 7,-1 1,0 3,0 4,0 2,1 3,1 4,2 2,0 3,1 3,2 1,1 1,2 1,4 0,1 0,1 0,2 0,1 -1,1 -1,2 -1,0 -1,1 -2,1 0,0 -1,0 -2,0 0,0 -1,0 -1,0 -1,0 -1,-1 -2,-1 0,0 -1,-1 -1,-2 0,0 -1,-1 -1,-2 0,-2 1,-4 2,-6 0,0 0,0 0,0 0,0 0,0 -1,0 0,0 0,0 -1,0 0,0 -1,0 -1,0 -2,0 -3,0 -5,1 -1,1 -1,3 -1,5 0,1 0,2 0,3 1,1 1,1 2,2 1,1 2,1 2,2 1,0 2,1 3,1 2,1 3,2 5,3 2,1 3,2 4,3 1,1 2,3 3,4 0,1 0,2 0,4 0,2 0,3 -1,5 -1,1 -2,3 -3,4 -2,1 -3,1 -5,2 -2,0 -4,0 -6,0 -1,0 -3,0 -5,0 -1,0 -3,-1 -4,-2 -2,0 -3,-1 -4,-2 -1,-2 -1,-3 -1,-4 0,-1 0,-2 0,-2 0,-1 0,-1 1,-2 0,0 1,-1 1,-1 1,-1 1,-1 2,-1 1,0 1,0 2,1 1,0 1,0 2,1 0,0 1,1 1,1 0,1 1,2 1,3 0,1 -1,1 -1,2 0,1 -1,2 -1,3 0,0 -1,0 -1,0 0,0 1,1 1,1 0,0 1,0 1,0 1,1 2,1 2,1 1,0 2,0 2,0z"/>
   <path id="1" fill="url(#id1)" fill-rule="nonzero" d="M235 54c-1,0 -1,0 -2,0 0,1 -1,1 -2,2 0,-1 1,-2 1,-2 0,-1 1,-2 2,-2 0,-1 1,-1 2,-2 1,0 2,0 3,0 0,0 1,0 2,0 1,1 2,1 2,1 1,1 1,1 2,2 0,1 0,2 0,3l0 17c0,1 0,2 0,2 0,1 0,1 1,2 0,0 0,0 1,1 0,0 1,0 2,0l0 1 -16 0 0 -1c1,0 1,0 2,0 0,-1 1,-1 1,-1 0,-1 0,-1 0,-2 0,0 0,-1 0,-2l0 -17c0,-1 0,-2 0,-2 0,0 -1,0 -1,0zm2 -12c0,-1 0,-2 1,-2 1,-1 1,-1 2,-1 1,0 2,0 2,1 1,0 1,1 1,2 0,1 0,1 -1,2 0,1 -1,1 -2,1 -1,0 -1,0 -2,-1 -1,-1 -1,-1 -1,-2z"/>
   <path id="2" fill="url(#id2)" fill-rule="nonzero" d="M255 56c-1,-1 -2,-2 -2,-2 -1,0 -1,0 -2,0 0,1 -1,1 -1,2 0,-1 0,-2 0,-3 1,0 1,-1 2,-1 1,-1 1,-1 2,-2 1,0 2,0 3,0 2,0 3,0 4,1 2,1 2,2 3,4l6 13 6 -15c0,0 0,-1 0,-1 0,0 0,0 0,0 0,-1 -1,-1 -1,-1 0,0 -1,0 -1,0 0,0 -1,0 -1,0l0 0 0 -1 9 0 0 1c-2,0 -2,0 -3,0 0,1 -1,1 -1,2l-11 26 -2 0 -10 -23z"/>
   <path id="3" fill="url(#id3)" fill-rule="nonzero" d="M281 72c0,-2 0,-4 2,-5 1,-1 2,-2 4,-3 1,0 3,0 5,-1 2,0 3,0 5,0 0,0 0,0 1,0 0,0 1,0 1,0l0 -1c0,-3 0,-4 0,-6 -1,-1 -1,-2 -2,-3 0,-1 -1,-2 -2,-2 0,0 -1,-1 -2,-1 -1,0 -2,1 -2,1 0,1 1,1 1,2 0,1 0,2 0,2 0,2 0,3 -1,4 -1,0 -2,1 -3,1 -2,0 -3,-1 -3,-1 -1,-1 -2,-2 -2,-3 0,-1 1,-2 1,-3 0,0 1,-1 2,-2 1,0 2,-1 3,-1 1,0 3,-1 5,-1 2,0 4,1 6,1 2,1 3,2 4,3 2,1 3,2 3,4 1,1 1,3 1,5l0 11c0,1 0,1 1,2 0,0 0,0 1,0 0,0 1,0 1,0 1,-1 1,-1 2,-2 0,1 0,2 -1,2 0,1 -1,2 -1,2 -1,1 -2,1 -2,1 -1,1 -2,1 -3,1 -1,0 -3,-1 -4,-1 -1,-1 -2,-2 -2,-4 -1,2 -2,3 -3,4 -2,1 -4,1 -5,1 -4,0 -7,0 -8,-2 -2,-1 -3,-3 -3,-5zm13 5c0,0 1,0 2,0 0,0 1,-1 1,-1 1,-1 1,-1 1,-2 1,0 1,-1 1,-1l0 -8c-1,0 -2,0 -2,0 -1,0 -2,0 -2,0 -1,0 -2,1 -3,2 -1,2 -1,3 -1,5 0,2 0,4 1,4 0,1 1,1 2,1z"/>
   <path id="4" fill="url(#id4)" fill-rule="nonzero" d="M326 71c0,1 -1,2 -1,3 0,0 0,0 0,0 -1,1 -1,1 -1,1 0,1 1,1 1,1 0,1 1,1 1,1 1,0 1,0 2,1 1,0 1,0 2,0 1,0 2,-1 3,-1 1,-1 1,-2 1,-3 0,-1 0,-1 0,-2 0,0 0,-1 -1,-1 0,-1 -1,-1 -2,-2 -1,0 -1,-1 -3,-1 -2,-1 -3,-2 -5,-3 -1,-1 -2,-2 -3,-3 -1,0 -1,-1 -1,-2 -1,-1 -1,-1 -1,-2 0,-2 0,-3 1,-4 0,-1 1,-2 2,-2 1,-1 3,-2 4,-2 2,0 3,-1 5,-1 2,0 3,1 5,1 1,0 3,1 4,1 1,1 2,2 3,3 0,1 1,2 1,3 0,2 -1,3 -1,4 -1,1 -2,1 -3,1 -2,0 -3,0 -3,-1 -1,-1 -2,-2 -2,-3 0,-1 0,-2 1,-2 0,-1 0,-1 0,-2 1,0 1,-1 1,-1 0,0 -1,-1 -1,-1 -1,-1 -2,-1 -3,-1 -1,0 -3,0 -3,1 -1,1 -2,2 -2,3 0,1 1,1 1,2 0,1 1,1 1,2 1,0 1,0 2,1 1,0 1,0 1,1 3,1 5,2 6,3 1,1 3,2 3,2 1,1 2,2 2,3 0,0 1,1 1,2 0,1 -1,2 -1,3 -1,1 -2,2 -3,3 -2,1 -3,1 -5,2 -1,0 -3,0 -5,0 -2,0 -3,0 -5,0 -1,0 -3,-1 -4,-1 -1,-1 -2,-2 -3,-3 -1,-1 -1,-2 -1,-4 0,-1 0,-3 1,-4 1,-1 2,-1 3,-1 2,0 3,0 4,1 0,1 1,2 1,4z"/>
   <path id="5" fill="url(#id5)" fill-rule="nonzero" d="M357 71c0,1 0,2 0,3 -1,0 -1,0 -1,0 0,1 0,1 0,1 0,1 0,1 1,1 0,1 0,1 1,1 1,0 1,0 2,1 0,0 1,0 1,0 2,0 3,-1 4,-1 1,-1 1,-2 1,-3 0,-1 0,-1 0,-2 0,0 -1,-1 -1,-1 -1,-1 -1,-1 -2,-2 -1,0 -2,-1 -3,-1 -2,-1 -3,-2 -5,-3 -1,-1 -2,-2 -3,-3 -1,0 -1,-1 -2,-2 0,-1 0,-1 0,-2 0,-2 0,-3 1,-4 0,-1 1,-2 2,-2 1,-1 2,-2 4,-2 1,0 3,-1 5,-1 2,0 3,1 5,1 1,0 3,1 4,1 1,1 2,2 3,3 0,1 1,2 1,3 0,2 -1,3 -2,4 0,1 -1,1 -3,1 -1,0 -2,0 -3,-1 -1,-1 -1,-2 -1,-3 0,-1 0,-2 0,-2 1,-1 1,-1 1,-2 0,0 1,-1 1,-1 0,0 -1,-1 -2,-1 0,-1 -1,-1 -2,-1 -2,0 -3,0 -4,1 0,1 -1,2 -1,3 0,1 0,1 1,2 0,1 1,1 1,2 1,0 1,0 2,1 0,0 1,0 1,1 3,1 4,2 6,3 1,1 2,2 3,2 1,1 2,2 2,3 0,0 0,1 0,2 0,1 0,2 -1,3 0,1 -1,2 -3,3 -1,1 -2,1 -4,2 -2,0 -3,0 -5,0 -2,0 -3,0 -5,0 -1,0 -3,-1 -4,-1 -1,-1 -2,-2 -3,-3 -1,-1 -1,-2 -1,-4 0,-1 0,-3 1,-4 1,-1 2,-1 3,-1 2,0 3,0 3,1 1,1 1,2 1,4z"/>
   <path id="6" fill="url(#id6)" fill-rule="nonzero" d="M379 56c0,-1 1,-2 1,-2 0,-1 1,-2 1,-2 1,-1 2,-1 3,-2 0,0 1,0 2,0 1,0 2,0 2,0 1,1 1,1 2,2 1,0 1,1 1,1 1,1 1,1 1,2 0,0 0,0 0,0 0,0 0,0 0,0 1,-2 2,-3 4,-4 1,-1 3,-2 5,-2 1,0 3,1 4,1 2,1 3,2 4,3 1,2 2,3 2,5 1,2 1,4 1,7 0,2 0,4 -1,6 0,2 -1,3 -2,5 -1,1 -3,2 -4,3 -2,0 -3,0 -5,0 -1,0 -2,0 -3,0 -1,0 -1,0 -2,-1 0,0 -1,0 -1,0 0,0 0,-1 -1,-1l0 7c0,1 0,2 0,3 0,0 0,1 1,1 0,0 0,1 1,1 0,0 1,0 2,0l0 1 -16 0 0 -1c1,0 1,0 2,0 0,0 1,-1 1,-1 0,0 0,-1 0,-1 0,-1 0,-2 0,-3l0 -28c0,-1 0,-1 0,-2 -1,0 -1,0 -1,0 -1,0 -1,0 -2,0 0,1 -1,1 -2,2zm14 19c1,1 2,1 2,2 1,0 2,1 3,1 0,0 1,0 2,-1 0,0 1,-1 1,-2 1,-1 1,-2 1,-4 0,-1 1,-4 1,-6 0,-3 -1,-5 -1,-7 0,-2 0,-3 -1,-4 0,-1 -1,-2 -1,-2 -1,0 -1,-1 -2,-1 0,0 -1,1 -2,1 0,0 0,1 -1,1 0,0 -1,1 -1,1 0,1 -1,1 -1,2l0 19z"/>
   <path id="7" fill="url(#id7)" fill-rule="nonzero" d="M433 78c1,0 2,0 2,0 1,-1 2,-2 2,-3 1,-1 1,-2 1,-4 1,-2 1,-4 1,-7 0,-2 0,-5 -1,-6 0,-2 0,-3 -1,-5 0,-1 -1,-1 -2,-2 0,0 -1,0 -2,0 0,0 -1,0 -1,0 -1,1 -2,1 -2,2 -1,2 -1,3 -2,5 0,1 0,4 0,6 0,3 0,5 0,7 1,2 1,3 2,4 0,1 1,2 2,3 0,0 1,0 1,0zm0 -29c3,0 5,1 7,1 2,1 3,2 5,3 1,2 2,3 3,5 0,2 1,4 1,6 0,3 -1,5 -1,7 -1,2 -2,3 -3,4 -2,2 -3,3 -5,3 -2,1 -4,1 -7,1 -2,0 -4,0 -6,-1 -2,0 -3,-1 -5,-3 -1,-1 -2,-2 -3,-4 0,-2 -1,-4 -1,-7 0,-2 1,-4 1,-6 1,-2 2,-3 3,-5 2,-1 3,-2 5,-3 2,0 4,-1 6,-1z"/>
   <path id="8" fill="url(#id8)" fill-rule="nonzero" d="M456 54c0,0 -1,0 -1,0 -1,1 -2,1 -2,2 0,-1 0,-2 0,-2 1,-1 1,-2 2,-2 1,-1 1,-1 2,-2 1,0 2,0 3,0 1,0 3,0 4,1 1,1 2,2 2,3 1,-1 3,-2 4,-3 1,-1 3,-1 4,-1 1,0 2,0 3,0 1,1 1,1 2,2 1,0 1,1 1,1 1,1 1,2 1,2 0,2 -1,3 -1,4 -1,0 -2,1 -4,1 0,0 -1,0 -2,-1 0,0 0,0 -1,-1 0,0 0,-1 0,-1 -1,-1 -1,-1 -1,-2 0,-1 0,-1 1,-2 0,-1 0,-1 0,-2 0,0 -1,1 -2,1 0,0 -1,1 -1,1 -1,1 -2,1 -2,2 -1,0 -1,1 -1,1l0 17c0,1 0,2 0,2 0,1 0,1 0,2 0,0 1,0 1,1 1,0 1,0 2,0l0 1 -16 0 0 -1c1,0 2,0 2,0 1,-1 1,-1 1,-1 0,-1 0,-1 0,-2 1,0 1,-1 1,-2l0 -17c0,-1 -1,-2 -1,-2 0,0 0,0 -1,0z"/>
   <rect fill="url(#id9)" y="48" width="174.828" height="12.6488" rx="10" ry="10"/>
   <rect fill="url(#id10)" y="63" width="174.828" height="12.6488" rx="10" ry="10"/>
  </g>
  <rect fill="none" width="481" height="128"/>
 </g>
</svg>
