

<!-- Creator: CorelDRAW X8 -->
<svg xmlns="http://www.w3.org/2000/svg" xml:space="preserve" width="117.369mm" height="25mm" version="1.1" shape-rendering="geometricPrecision" text-rendering="geometricPrecision" image-rendering="optimizeQuality" fill-rule="evenodd" clip-rule="evenodd"
viewBox="0 0 742 158"
 xmlns:xlink="http://www.w3.org/1999/xlink">
 <defs>
    <linearGradient id="id0" gradientUnits="userSpaceOnUse" x1="-0" y1="66.4017" x2="215.78" y2="66.4017">
     <stop offset="0" stop-opacity="1" stop-color="#FCEB08"/>
     <stop offset="1" stop-opacity="1" stop-color="black"/>
    </linearGradient>
    <linearGradient id="id1" gradientUnits="userSpaceOnUse" x1="-0" y1="85.5101" x2="215.78" y2="85.5101">
     <stop offset="0" stop-opacity="1" stop-color="#FCEB08"/>
     <stop offset="1" stop-opacity="1" stop-color="black"/>
    </linearGradient>
 </defs>
 <g id="Katman_x0020_1">
  <metadata id="CorelCorpID_0Corel-Layer"/>
  <g id="_2222492435264">
   <path fill="#F1E108" fill-rule="nonzero" d="M245 96c1,0 1,0 2,-1 1,0 1,0 1,-1 0,0 1,-1 1,-2 0,0 0,-1 0,-2l0 -35c0,-1 0,-2 0,-3 0,-1 -1,-1 -1,-2 0,0 0,-1 -1,-1 -1,0 -1,0 -2,0l0 -1 37 0 0 11 -2 0c0,-1 0,-2 0,-4 0,-1 0,-2 -1,-3 0,0 0,-1 -1,-2 -1,0 -2,-1 -3,-1l-15 0 0 22 8 0c1,0 2,0 2,0 1,-1 1,-1 1,-2 0,-1 0,-1 0,-2 1,-1 1,-2 1,-3l2 0 0 16 -2 0c0,-1 0,-1 -1,-2 0,-1 0,-2 0,-2 0,-1 0,-2 -1,-2 0,-1 -1,-1 -2,-1l-8 0 0 22 17 0c1,0 2,0 2,-1 1,0 1,-1 2,-2 0,-1 0,-2 0,-3 0,-1 0,-2 0,-3l2 0 0 11 -38 0 0 -1z"/>
   <path id="1" fill="#F1E108" fill-rule="nonzero" d="M301 87c0,1 0,2 -1,4 0,0 0,0 0,0 -1,1 -1,1 -1,1 0,1 1,1 1,2 0,0 1,1 2,1 0,0 1,0 2,0 0,0 1,1 2,1 1,0 3,-1 4,-2 1,0 2,-1 2,-3 0,-1 0,-2 -1,-2 0,-1 0,-2 -1,-2 0,-1 -1,-1 -2,-2 -1,0 -2,-1 -4,-2 -2,-1 -4,-2 -6,-3 -1,-1 -3,-2 -4,-3 -1,-1 -1,-2 -2,-3 0,-1 -1,-2 -1,-3 0,-2 1,-3 2,-4 0,-2 1,-3 3,-4 1,0 2,-1 4,-2 2,0 4,0 6,0 3,0 5,0 6,0 2,1 4,1 5,2 2,1 3,2 4,3 1,2 1,3 1,5 0,1 0,3 -1,4 -1,1 -3,1 -4,1 -2,0 -3,0 -4,-1 -1,-1 -1,-2 -1,-4 0,-1 0,-2 0,-3 0,0 1,-1 1,-1 0,-1 0,-2 0,-2 0,0 0,-1 -1,-1 -1,-1 -2,-2 -4,-2 -1,0 -2,1 -3,2 -1,1 -2,2 -2,3 0,1 0,2 1,3 0,1 1,1 1,2 1,0 2,1 2,1 1,1 2,1 2,1 3,2 5,3 7,4 2,2 3,3 4,4 1,1 2,2 3,2 0,1 0,2 0,3 0,2 0,3 -1,4 -1,2 -2,3 -4,4 -1,1 -3,1 -5,2 -2,1 -4,1 -7,1 -2,0 -3,0 -5,-1 -2,0 -4,-1 -6,-2 -1,0 -2,-1 -3,-3 -1,-1 -2,-3 -2,-5 0,-2 1,-3 2,-4 1,-1 2,-2 4,-2 2,0 3,1 4,2 1,1 1,2 1,4z"/>
   <path id="2" fill="#F1E108" fill-rule="nonzero" d="M325 54c0,0 0,-1 1,-2 0,-1 1,-2 2,-2 1,-1 2,-2 3,-2 1,0 2,-1 3,-1 1,0 2,0 3,1 1,0 2,0 3,1 0,1 1,1 2,2 0,1 0,2 0,3l0 25 13 -14c0,0 0,-1 0,-1 0,-1 0,-1 -1,-1 -1,0 -1,0 -2,0l0 -1 11 0 0 1c-1,0 -2,0 -3,1 -1,0 -2,1 -3,1l-7 8 11 17c1,1 2,2 3,2 0,0 1,0 1,0 1,-1 2,-1 2,-2 0,1 0,2 -1,3 0,1 -1,1 -2,2 0,1 -2,1 -3,2 -1,0 -2,0 -3,0 -2,0 -4,0 -5,-1 -2,-2 -3,-3 -5,-5l-6 -10 0 9c0,1 0,2 0,2 0,1 1,2 1,2 0,1 0,1 1,1 1,1 1,1 2,1l0 1 -19 0 0 -1c1,0 2,0 2,-1 1,0 1,0 2,-1 0,0 0,-1 0,-2 0,0 0,-1 0,-2l0 -36c0,-1 0,-1 0,-2 -1,0 -1,0 -2,0 0,0 -1,0 -2,1 0,0 -1,1 -2,1z"/>
   <path id="3" fill="#F1E108" fill-rule="nonzero" d="M373 66c-1,0 -1,0 -2,1 -1,0 -2,1 -2,1 0,0 0,-1 0,-2 1,-1 2,-2 2,-2 1,-1 2,-2 3,-2 1,0 2,-1 4,-1 1,0 2,0 3,1 1,0 2,0 2,1 1,1 2,1 2,2 1,1 1,2 1,3l0 22c0,1 0,2 0,2 0,1 0,2 0,2 1,1 1,1 2,1 0,1 1,1 2,1l0 1 -20 0 0 -1c1,0 2,0 3,-1 0,0 1,0 1,-1 0,0 1,-1 1,-2 0,0 0,-1 0,-2l0 -22c0,-1 -1,-1 -1,-2 0,0 -1,0 -1,0zm3 -15c0,-1 0,-2 1,-2 1,-1 2,-1 3,-1 1,0 2,0 2,1 1,0 1,1 1,2 0,1 0,2 -1,3 0,1 -1,1 -2,1 -1,0 -2,0 -3,-1 -1,-1 -1,-2 -1,-3z"/>
   <path id="4" fill="#F1E108" fill-rule="nonzero" d="M399 81c2,0 3,1 4,2 1,1 1,2 1,4 0,1 0,2 -1,4 0,0 0,0 0,0 0,1 0,1 0,1 0,1 0,1 0,2 1,0 1,1 2,1 1,0 1,0 2,0 1,0 2,1 2,1 2,0 3,-1 5,-2 1,0 1,-1 1,-3 0,-1 0,-2 0,-2 0,-1 -1,-2 -1,-2 -1,-1 -2,-1 -3,-2 -1,0 -2,-1 -3,-2 -3,-1 -5,-2 -6,-3 -2,-1 -3,-2 -4,-3 -1,-1 -2,-2 -2,-3 -1,-1 -1,-2 -1,-3 0,-2 0,-3 1,-4 1,-2 2,-3 3,-4 1,0 3,-1 5,-2 2,0 4,0 6,0 2,0 4,0 6,0 2,1 3,1 5,2 1,1 2,2 3,3 1,2 1,3 1,5 0,1 0,3 -1,4 -1,1 -2,1 -4,1 -1,0 -2,0 -3,-1 -1,-1 -2,-2 -2,-4 0,-1 0,-2 0,-3 1,0 1,-1 1,-1 1,-1 1,-2 1,-2 0,0 -1,-1 -2,-1 0,-1 -2,-2 -3,-2 -2,0 -3,1 -4,2 -1,1 -2,2 -2,3 0,1 1,2 1,3 1,1 1,1 2,2 1,0 1,1 2,1 1,1 1,1 2,1 3,2 5,3 7,4 1,2 3,3 4,4 1,1 2,2 2,2 0,1 1,2 1,3 0,2 -1,4 -2,5 -1,2 -3,3 -5,4 -2,0 -3,1 -5,1 -2,1 -4,1 -6,1l0 2c1,0 2,0 3,1 0,0 1,0 2,0 0,1 1,1 1,2 1,1 1,2 1,2 0,1 0,2 -1,3 0,1 -1,1 -2,2 0,0 -1,0 -2,0 -1,1 -2,1 -3,1 0,0 -1,0 -2,0 0,0 -1,0 -1,-1l0 -2c0,1 0,1 1,1 0,0 1,0 1,0 1,0 2,0 3,-1 0,-1 1,-1 1,-3 0,-1 -1,-2 -1,-2 -1,-1 -2,-1 -3,-1l0 -4c-2,-1 -3,-1 -5,-1 -1,-1 -3,-1 -4,-2 -1,-1 -2,-2 -3,-3 -1,-1 -1,-3 -1,-5 0,-2 0,-3 1,-4 1,-1 2,-2 4,-2z"/>
   <path id="5" fill="#F1E108" fill-rule="nonzero" d="M452 98c-3,0 -6,-1 -8,-2 -3,-1 -5,-2 -6,-4 -2,-1 -3,-3 -4,-6 -1,-2 -2,-4 -2,-7 0,-3 1,-6 2,-8 1,-2 2,-4 3,-5 2,-2 4,-3 7,-4 2,-1 5,-1 8,-1 1,0 3,0 4,0 2,1 4,1 5,2 2,1 3,2 4,3 1,1 2,3 2,5 0,1 -1,3 -1,4 -1,1 -2,2 -3,3 -2,1 -3,1 -5,2 -1,0 -3,0 -5,0 -1,1 -3,1 -4,1 -2,0 -3,0 -5,0 0,3 1,6 1,7 0,2 1,4 1,5 1,1 1,2 2,2 1,0 2,1 4,1 2,0 5,-1 7,-2 3,-1 5,-2 7,-4 0,1 0,2 -1,3 -1,1 -1,1 -3,2 -1,1 -2,2 -4,2 -2,1 -4,1 -6,1zm-8 -19c2,0 3,0 4,0 2,0 3,-1 4,-1 1,-1 2,-2 2,-3 1,-1 1,-3 1,-5 0,-1 0,-2 0,-2 0,-1 -1,-2 -1,-3 0,-1 -1,-1 -1,-2 -1,0 -2,-1 -3,-1 0,0 -1,1 -2,1 -1,1 -1,2 -2,3 0,1 -1,3 -1,5 0,2 -1,5 -1,8z"/>
   <path id="6" fill="#F1E108" fill-rule="nonzero" d="M469 54c0,0 0,-1 0,-2 1,-1 1,-2 2,-2 1,-1 2,-2 3,-2 1,0 2,-1 4,-1 1,0 2,0 3,1 1,0 1,0 2,1 1,1 2,1 2,2 0,1 1,2 1,3l0 11c2,-3 5,-4 9,-4 2,0 4,0 5,1 2,0 4,1 5,2 1,1 2,3 3,4 0,1 0,3 0,4l0 18c0,1 1,1 1,2 0,0 1,0 1,0 1,0 1,0 2,0 1,-1 2,-1 2,-2 0,1 0,2 0,3 -1,0 -1,1 -2,2 -1,1 -2,1 -3,1 -1,1 -2,1 -3,1 -1,0 -3,0 -4,0 -1,-1 -1,-1 -2,-2 -1,0 -2,-1 -2,-2 0,-1 -1,-2 -1,-3l0 -18c0,-1 0,-3 0,-4 -1,-1 -1,-2 -1,-3 -1,0 -2,-1 -2,-1 -1,-1 -2,-1 -2,-1 -1,0 -2,0 -2,1 -1,0 -1,0 -2,1 0,1 -1,1 -1,2 -1,0 -1,1 -1,2l0 21c0,1 0,2 0,2 0,1 0,2 0,2 0,1 1,1 2,1 0,1 1,1 2,1l0 1 -20 0 0 -1c1,0 2,0 3,-1 0,0 1,0 1,-1 0,0 0,-1 0,-2 0,0 1,-1 1,-2l0 -36c0,-1 -1,-1 -1,-2 0,0 -1,0 -1,0 -1,0 -1,0 -2,1 -1,0 -2,1 -2,1z"/>
   <path id="7" fill="#F1E108" fill-rule="nonzero" d="M520 66c0,0 -1,0 -2,1 0,0 -1,1 -2,1 0,0 0,-1 1,-2 0,-1 1,-2 2,-2 1,-1 2,-2 3,-2 1,0 2,-1 3,-1 1,0 2,0 3,1 1,0 2,0 3,1 0,1 1,1 2,2 0,1 0,2 0,3l0 22c0,1 0,2 0,2 0,1 0,2 1,2 0,1 0,1 1,1 1,1 1,1 2,1l0 1 -19 0 0 -1c1,0 2,0 2,-1 1,0 1,0 1,-1 1,0 1,-1 1,-2 0,0 0,-1 0,-2l0 -22c0,-1 0,-1 0,-2 -1,0 -1,0 -2,0zm3 -15c0,-1 0,-2 1,-2 1,-1 2,-1 3,-1 1,0 2,0 3,1 0,0 1,1 1,2 0,1 -1,2 -1,3 -1,1 -2,1 -3,1 -1,0 -2,0 -3,-1 -1,-1 -1,-2 -1,-3z"/>
   <path id="8" fill="#F1E108" fill-rule="nonzero" d="M544 66c-1,0 -1,0 -2,1 -1,0 -1,1 -2,1 0,0 0,-1 1,-2 0,-1 1,-2 1,-2 1,-1 2,-2 3,-2 1,0 3,-1 4,-1 2,0 3,1 5,2 1,0 2,2 3,3 1,-1 2,-2 4,-3 2,-1 3,-2 5,-2 2,0 3,1 4,1 1,0 1,1 2,1 1,1 2,2 2,3 0,0 1,1 1,2 0,2 -1,3 -2,4 -1,1 -2,2 -4,2 -1,0 -2,-1 -2,-1 -1,0 -2,-1 -2,-1 0,-1 -1,-1 -1,-2 0,-1 0,-2 0,-2 0,-1 0,-2 0,-3 1,-1 1,-1 1,-2 -1,0 -1,0 -2,1 -1,0 -2,1 -2,1 -1,1 -2,1 -3,2 0,1 -1,2 -1,2l0 21c0,1 0,2 0,2 0,1 0,2 0,2 1,1 1,1 2,1 0,1 1,1 2,1l0 1 -19 0 0 -1c1,0 1,0 2,-1 1,0 1,0 1,-1 0,0 1,-1 1,-2 0,0 0,-1 0,-2l0 -22c0,-1 0,-1 -1,-2 0,0 0,0 -1,0z"/>
   <path id="9" fill="#F1E108" fill-rule="nonzero" d="M590 87c0,1 -1,2 -2,4 0,0 0,0 0,0 0,1 0,1 0,1 0,1 0,1 1,2 0,0 1,1 1,1 1,0 2,0 2,0 1,0 2,1 2,1 2,0 4,-1 5,-2 1,0 1,-1 1,-3 0,-1 0,-2 0,-2 0,-1 -1,-2 -1,-2 -1,-1 -2,-1 -3,-2 0,0 -2,-1 -3,-2 -2,-1 -5,-2 -6,-3 -2,-1 -3,-2 -4,-3 -1,-1 -2,-2 -2,-3 -1,-1 -1,-2 -1,-3 0,-2 0,-3 1,-4 1,-2 2,-3 3,-4 2,0 3,-1 5,-2 2,0 4,0 6,0 2,0 4,0 6,0 2,1 4,1 5,2 1,1 3,2 3,3 1,2 2,3 2,5 0,1 -1,3 -2,4 -1,1 -2,1 -3,1 -2,0 -3,0 -4,-1 -1,-1 -2,-2 -2,-4 0,-1 0,-2 1,-3 0,0 0,-1 1,-1 0,-1 0,-2 0,-2 0,0 0,-1 -1,-1 -1,-1 -2,-2 -4,-2 -1,0 -3,1 -4,2 -1,1 -1,2 -1,3 0,1 0,2 0,3 1,1 1,1 2,2 1,0 1,1 2,1 1,1 1,1 2,1 3,2 5,3 7,4 2,2 3,3 4,4 1,1 2,2 2,2 1,1 1,2 1,3 0,2 -1,3 -2,4 0,2 -2,3 -3,4 -2,1 -4,1 -6,2 -2,1 -4,1 -6,1 -2,0 -4,0 -6,-1 -2,0 -3,-1 -5,-2 -1,0 -3,-1 -4,-3 -1,-1 -1,-3 -1,-5 0,-2 0,-3 1,-4 1,-1 3,-2 4,-2 2,0 4,1 4,2 1,1 2,2 2,4z"/>
   <path id="10" fill="#F1E108" fill-rule="nonzero" d="M617 68c0,0 0,-1 0,-2 1,-1 1,-2 2,-2 1,-1 2,-2 3,-2 1,0 2,-1 3,-1 1,0 2,1 3,1 0,0 1,1 2,1 0,1 1,1 1,2 1,1 1,1 1,2 1,0 1,0 1,0 0,0 0,0 0,0 1,-2 2,-4 4,-5 2,-1 4,-1 6,-1 2,0 4,0 6,1 1,1 3,2 4,3 1,2 2,4 3,6 1,3 1,5 1,8 0,3 0,6 -1,8 -1,3 -2,5 -3,6 -1,2 -3,3 -5,4 -2,0 -4,1 -6,1 -1,0 -2,0 -3,-1 -1,0 -2,0 -3,-1 0,0 -1,0 -1,0 0,-1 -1,-1 -1,-1l0 9c0,1 0,2 0,2 0,1 0,2 0,2 1,1 1,1 2,1 0,1 1,1 2,1l0 1 -20 0 0 -1c1,0 2,0 3,-1 0,0 1,0 1,-1 0,0 0,-1 1,-2 0,0 0,-1 0,-2l0 -35c0,-1 -1,-2 -1,-2 0,-1 -1,-1 -1,-1 -1,0 -1,0 -2,1 -1,0 -2,1 -2,1zm17 25c1,0 1,1 2,2 1,0 2,1 3,1 1,0 2,-1 3,-1 0,-1 1,-1 2,-2 0,-2 1,-3 1,-5 0,-2 0,-5 0,-9 0,-3 0,-6 0,-8 0,-2 -1,-4 -1,-5 -1,-1 -1,-2 -2,-2 -1,-1 -1,-1 -2,-1 -1,0 -2,0 -2,1 -1,0 -1,0 -2,1 0,1 -1,1 -1,2 -1,0 -1,1 -1,2l0 24z"/>
   <path id="11" fill="#F1E108" fill-rule="nonzero" d="M683 96c1,0 2,0 3,-1 1,0 1,-1 2,-2 1,-2 1,-3 2,-5 0,-3 0,-5 0,-9 0,-3 0,-6 0,-8 -1,-2 -1,-4 -2,-5 -1,-2 -1,-2 -2,-3 -1,0 -2,-1 -3,-1 0,0 -1,1 -2,1 -1,1 -1,1 -2,3 -1,1 -1,3 -2,5 0,2 0,5 0,8 0,4 0,6 0,9 1,2 1,3 2,5 1,1 1,2 2,2 1,1 2,1 2,1zm0 -35c3,0 6,0 8,1 3,1 5,2 6,4 2,1 3,3 4,5 1,3 1,5 1,8 0,3 0,6 -1,8 -1,2 -2,4 -4,6 -1,1 -3,3 -6,4 -2,0 -5,1 -8,1 -2,0 -5,-1 -7,-1 -3,-1 -5,-3 -6,-4 -2,-2 -3,-4 -4,-6 -1,-2 -1,-5 -1,-8 0,-3 0,-5 1,-8 1,-2 2,-4 4,-5 1,-2 3,-3 6,-4 2,-1 5,-1 7,-1z"/>
   <path id="12" fill="#F1E108" fill-rule="nonzero" d="M711 66c0,0 -1,0 -2,1 0,0 -1,1 -2,1 0,0 0,-1 1,-2 0,-1 1,-2 2,-2 1,-1 2,-2 3,-2 1,0 2,-1 3,-1 2,0 4,1 5,2 2,0 3,2 3,3 1,-1 3,-2 4,-3 2,-1 4,-2 6,-2 1,0 2,1 3,1 1,0 2,1 3,1 0,1 1,2 1,3 1,0 1,1 1,2 0,2 -1,3 -2,4 -1,1 -2,2 -4,2 -1,0 -1,-1 -2,-1 -1,0 -1,-1 -2,-1 0,-1 0,-1 0,-2 -1,-1 -1,-2 -1,-2 0,-1 0,-2 1,-3 0,-1 0,-1 0,-2 0,0 -1,0 -2,1 0,0 -1,1 -2,1 -1,1 -1,1 -2,2 -1,1 -1,2 -2,2l0 21c0,1 0,2 0,2 0,1 1,2 1,2 0,1 1,1 1,1 1,1 2,1 3,1l0 1 -20 0 0 -1c1,0 2,0 2,-1 1,0 1,0 2,-1 0,0 0,-1 0,-2 0,0 0,-1 0,-2l0 -22c0,-1 0,-1 0,-2 -1,0 -1,0 -2,0z"/>
   <rect fill="url(#id0)" y="59" width="215.78" height="15.6117" rx="13" ry="13"/>
   <rect fill="url(#id1)" y="78" width="215.78" height="15.6117" rx="13" ry="13"/>
  </g>
  <rect fill="none" width="742" height="158"/>
 </g>
</svg>
