

<!-- Creator: CorelDRAW X8 -->
<svg xmlns="http://www.w3.org/2000/svg" xml:space="preserve" x="0" y="0" width="49.5248mm" height="25mm" version="1.1" shape-rendering="geometricPrecision" text-rendering="geometricPrecision" image-rendering="optimizeQuality" fill-rule="evenodd" clip-rule="evenodd"
viewBox="0 0 144 73"
 xmlns:xlink="http://www.w3.org/1999/xlink">
 <defs>
   <linearGradient id="id0" gradientUnits="userSpaceOnUse" x1="1.35502" y1="36.4024" x2="142.871" y2="36.4024">
    <stop offset="0" stop-opacity="1" stop-color="white"/>
    <stop offset="1" stop-opacity="1" stop-color="#363635"/>
   </linearGradient>
   <linearGradient id="id1" gradientUnits="userSpaceOnUse" x1="1.35502" y1="36.4024" x2="142.871" y2="36.4024">
    <stop offset="0" stop-opacity="1" stop-color="white"/>
    <stop offset="1" stop-opacity="1" stop-color="#363635"/>
   </linearGradient>
   <linearGradient id="id2" gradientUnits="userSpaceOnUse" x1="1.35502" y1="36.4024" x2="142.871" y2="36.4024">
    <stop offset="0" stop-opacity="1" stop-color="white"/>
    <stop offset="1" stop-opacity="1" stop-color="#363635"/>
   </linearGradient>
   <linearGradient id="id3" gradientUnits="userSpaceOnUse" x1="1.35502" y1="36.4024" x2="142.871" y2="36.4024">
    <stop offset="0" stop-opacity="1" stop-color="white"/>
    <stop offset="1" stop-opacity="1" stop-color="#363635"/>
   </linearGradient>
   <linearGradient id="id4" gradientUnits="userSpaceOnUse" x1="1.35502" y1="36.4024" x2="142.871" y2="36.4024">
    <stop offset="0" stop-opacity="1" stop-color="white"/>
    <stop offset="1" stop-opacity="1" stop-color="#363635"/>
   </linearGradient>
   <linearGradient id="id5" gradientUnits="userSpaceOnUse" x1="1.35502" y1="36.4024" x2="142.871" y2="36.4024">
    <stop offset="0" stop-opacity="1" stop-color="white"/>
    <stop offset="1" stop-opacity="1" stop-color="#363635"/>
   </linearGradient>
   <linearGradient id="id6" gradientUnits="userSpaceOnUse" x1="1.35502" y1="36.4024" x2="142.871" y2="36.4024">
    <stop offset="0" stop-opacity="1" stop-color="white"/>
    <stop offset="1" stop-opacity="1" stop-color="#363635"/>
   </linearGradient>
   <linearGradient id="id7" gradientUnits="userSpaceOnUse" x1="1.35502" y1="36.4024" x2="142.871" y2="36.4024">
    <stop offset="0" stop-opacity="1" stop-color="white"/>
    <stop offset="1" stop-opacity="1" stop-color="#363635"/>
   </linearGradient>
 </defs>
 <g id="Katman_x0020_1">
  <metadata id="CorelCorpID_0Corel-Layer"/>
  <rect fill="none" width="144.227" height="72.8052"/>
  <path fill="#FEFEFE" d="M16 33c1,0 2,0 2,0 1,1 2,2 2,2 1,1 1,3 1,4 0,1 0,1 0,2 -1,1 -1,2 -2,2 -1,1 -2,1 -3,2 -2,0 -4,0 -5,0l-10 0 0 -2 0 0c1,0 1,0 1,0 0,0 0,0 1,0 0,0 0,0 0,0 0,-1 0,-1 0,-2l0 -16c0,0 0,-1 0,-1 0,0 0,0 0,-1 -1,0 -1,0 -1,0 0,0 0,0 -1,0l0 0 0 -2 9 0c2,0 3,0 5,1 1,0 2,1 3,1 1,1 1,1 2,2 0,1 0,2 0,3 0,1 0,1 -1,2 0,1 -1,2 -1,2 -1,0 -1,0 -2,1zm14 5c0,1 0,2 0,3 0,0 0,1 1,2 0,0 0,0 0,0 1,0 1,0 2,0 1,0 2,0 3,0 1,-1 2,-1 3,-2l1 -1 0 1c0,1 0,2 -1,2 0,1 -1,1 -1,1 -1,1 -2,1 -2,1 -1,1 -2,1 -3,1 -2,0 -3,-1 -4,-1 -1,-1 -2,-1 -3,-2 -1,-1 -2,-2 -2,-3 -1,-1 -1,-2 -1,-4 0,-1 0,-2 1,-3 0,-1 1,-2 2,-3 1,-1 2,-2 3,-2 1,0 2,-1 4,-1 0,0 1,0 2,1 1,0 2,0 2,0 1,1 2,1 2,2 1,1 1,2 1,3 0,0 0,1 0,2 -1,0 -1,1 -2,1 -1,1 -1,1 -2,1 -1,0 -2,1 -3,1 0,0 -1,0 -2,0 0,0 -1,0 -1,0zm25 -2c0,0 1,1 2,1 0,1 1,1 1,2 0,0 0,1 0,1 0,1 0,2 -1,3 -1,1 -1,1 -2,2 -1,0 -2,0 -3,0 -1,0 -1,1 -2,1l0 0c0,0 1,0 1,0 0,0 1,0 1,0 0,1 1,1 1,1 0,1 0,1 0,2 0,0 0,1 0,1 -1,0 -1,1 -1,1 -1,0 -1,0 -2,0 0,1 -1,1 -1,1 0,0 -1,0 -1,0 0,0 0,-1 -1,-1l0 0 0 -2 1 0c0,0 0,1 0,1 0,0 0,0 1,0 0,0 0,0 0,-1 1,0 1,0 1,0 0,-1 0,-1 -1,-1 0,0 0,0 0,0l-1 0 0 -3c-1,0 -1,0 -2,0 -1,0 -1,0 -2,-1 -1,0 -1,-1 -2,-1 0,-1 0,-2 0,-3 0,-1 0,-2 1,-2 0,-1 1,-1 2,-1 0,0 0,0 0,0 0,-1 -1,-1 -1,-1 -1,-1 -1,-1 -1,-2 -1,0 -1,-1 -1,-1 0,-1 1,-2 1,-3 0,0 1,-1 1,-1 1,-1 2,-1 3,-1 1,-1 2,-1 3,-1 1,0 2,0 3,1 1,0 1,0 2,1 1,0 1,1 2,1 0,1 1,2 1,2 0,1 -1,2 -1,3 -1,0 -1,1 -2,1zm-3 -6c0,0 0,0 0,0 0,0 0,0 0,0 0,-1 -1,-1 -1,-1 -1,0 -1,0 -2,1 0,0 0,1 0,1 0,0 0,1 0,1 0,0 0,0 1,1 0,0 0,0 1,0 0,0 0,1 0,1 1,0 1,0 1,0 0,0 0,-1 0,-1 0,-1 0,-1 0,-2 0,0 0,0 0,-1zm-4 8c0,1 0,1 0,2 0,1 0,1 -1,2 0,0 0,0 0,0 0,0 0,0 0,0 0,1 0,1 0,1 0,0 1,0 1,0 0,0 0,0 1,0 0,0 0,0 1,0 0,0 1,0 1,0 1,0 1,-1 1,-1 0,0 0,-1 0,-1 -1,0 -1,0 -1,-1 0,0 0,0 -1,0 0,-1 -1,-1 -1,-1 -1,0 -1,0 -1,-1zm14 -7c0,0 -1,0 -1,0 0,0 0,1 -1,1l-1 1 0 -1c0,-1 0,-2 1,-2 0,0 0,-1 1,-1 0,-1 1,-1 1,-1 1,0 1,0 2,0 1,0 1,0 2,0 0,0 1,0 1,1 0,0 1,0 1,1 0,0 0,1 0,1l0 10c0,1 0,1 0,2 0,0 0,0 1,0 0,0 0,0 0,0 0,0 0,0 1,0l0 0 0 2 -10 0 0 -2 1 0c0,0 0,0 1,0 0,0 0,0 0,0 0,0 0,0 0,0 0,-1 0,-1 0,-2l0 -10c0,0 0,0 0,0 0,0 0,0 0,0zm0 -7c0,-1 1,-2 1,-2 1,0 1,-1 2,-1 1,0 1,1 2,1 0,0 0,1 0,2 0,0 0,1 0,1 -1,1 -1,1 -2,1 -1,0 -1,0 -2,-1 0,0 -1,-1 -1,-1zm17 11l5 -5c0,0 0,0 0,0 0,0 0,0 0,0 0,0 -1,-1 -1,-1l0 0 0 -1 6 0 0 1 -1 0c0,0 -1,1 -1,1 0,0 -1,0 -1,1l-3 3 5 7c0,0 0,1 1,1 0,0 0,0 0,0 0,0 1,-1 1,-1l1 -1 0 1c0,1 0,2 -1,2 0,1 0,1 -1,1 0,1 -1,1 -1,1 -1,0 -2,0 -2,0 -1,0 -2,0 -3,-1 -1,0 -1,-1 -2,-2l-2 -3 0 2c0,1 0,1 0,2 0,0 0,0 0,0 1,0 1,0 1,0 0,0 0,0 1,0l0 0 0 2 -10 0 0 -2 1 0c0,0 0,0 1,0 0,0 0,0 0,0 0,0 0,0 0,0 0,-1 0,-1 0,-2l0 -16c0,0 0,0 0,0 0,0 0,0 0,0 0,0 -1,0 -1,0 0,0 -1,0 -1,0l-1 1 0 -1c0,0 0,-1 1,-1 0,-1 0,-1 1,-2 0,0 1,0 1,0 1,-1 1,-1 2,-1 0,0 1,0 1,0 1,1 1,1 2,1 0,0 1,1 1,1 0,1 0,1 0,2l0 10zm20 -7l5 0 0 2 -5 0 0 10c0,1 0,1 0,1 0,1 0,1 0,1 0,1 0,1 1,1 0,0 0,0 1,0 0,0 1,0 2,0 0,-1 1,-1 2,-2l1 -1 0 1c0,1 0,2 -1,2 0,1 0,1 -1,1 0,1 -1,1 -2,1 -1,1 -2,1 -3,1 -1,0 -3,-1 -5,-2 -1,-1 -2,-2 -2,-4l0 -10 -2 0 0 -2 2 0 0 -3c0,0 0,0 0,0 0,0 0,0 0,0 0,0 0,0 0,0 -1,0 -1,0 -1,0l-1 1 0 -1c0,0 0,-1 0,-1 0,-1 1,-1 1,-2 1,0 1,0 2,0 0,-1 1,-1 1,-1 1,0 1,0 2,0 0,1 1,1 1,1 1,0 1,1 1,1 1,1 1,1 1,2l0 3zm18 7l0 0c0,-1 0,-2 0,-3 0,-1 -1,-1 -1,-2 0,0 0,0 -1,-1 0,0 -1,0 -1,0 0,0 0,0 0,0 0,0 0,1 0,1 0,0 0,1 0,1 0,1 0,2 -1,3 0,0 -1,0 -2,0 -1,0 -2,0 -2,0 -1,-1 -1,-2 -1,-2 0,-1 0,-2 0,-2 1,-1 1,-1 2,-1 0,-1 1,-1 2,-1 1,-1 2,-1 3,-1 1,0 2,0 3,1 1,0 2,1 3,1 1,1 1,2 2,3 0,1 0,2 0,3l0 6c0,0 0,1 0,1 0,0 0,0 1,0 0,0 0,0 0,0 0,0 1,-1 1,-1l1 -1 0 1c0,1 0,2 0,2 -1,0 -1,1 -1,1 -1,1 -1,1 -2,1 0,0 -1,0 -1,0 -1,0 -2,0 -3,-1 0,0 -1,0 -1,-1 0,1 -1,1 -2,2 -1,0 -2,1 -3,1 -1,0 -3,-1 -5,-2 -1,-1 -1,-2 -1,-3 0,-2 0,-3 1,-3 0,-1 1,-2 2,-2 1,0 2,-1 3,-1 1,0 2,0 3,0 0,0 1,0 1,0 0,0 0,0 0,0zm23 1c1,0 1,1 2,1 0,1 1,1 1,2 0,0 0,1 0,1 0,1 0,2 -1,3 0,1 -1,1 -2,2 -1,0 -2,0 -3,0 0,0 -1,1 -2,1l0 0c1,0 1,0 1,0 1,0 1,0 1,0 1,1 1,1 1,1 0,1 1,1 1,2 0,0 -1,1 -1,1 0,0 -1,1 -1,1 0,0 -1,0 -1,0 -1,1 -1,1 -2,1 0,0 0,0 0,0 -1,0 -1,-1 -1,-1l-1 0 0 -2 1 0c0,0 0,1 0,1 1,0 1,0 1,0 0,0 0,0 1,-1 0,0 0,0 0,0 0,-1 0,-1 0,-1 -1,0 -1,0 -1,0l-1 0 0 -3c0,0 -1,0 -2,0 0,0 -1,0 -2,-1 0,0 -1,-1 -1,-1 -1,-1 -1,-2 -1,-3 0,-1 0,-2 1,-2 1,-1 1,-1 2,-1 0,0 0,0 0,0 0,-1 -1,-1 -1,-1 0,-1 -1,-1 -1,-2 0,0 0,-1 0,-1 0,-1 0,-2 0,-3 1,0 1,-1 2,-1 1,-1 1,-1 2,-1 1,-1 2,-1 3,-1 1,0 2,0 3,1 1,0 2,0 3,1 0,0 1,1 1,1 1,1 1,2 1,2 0,1 0,2 -1,3 0,0 -1,1 -2,1zm-2 -6c0,0 0,0 0,0 0,0 -1,0 -1,0 0,-1 0,-1 -1,-1 0,0 -1,0 -1,1 -1,0 -1,1 -1,1 0,0 0,1 0,1 1,0 1,0 1,1 0,0 1,0 1,0 0,0 1,1 1,1 0,0 0,0 0,0 0,0 0,-1 0,-1 0,-1 0,-1 0,-2 0,0 0,0 1,-1zm-5 8c0,1 0,1 0,2 0,1 0,1 0,2 0,0 0,0 0,0 0,0 0,0 0,0 0,1 0,1 0,1 0,0 0,0 0,0 0,0 1,0 1,0 0,0 1,0 1,0 0,0 1,0 2,0 0,0 0,-1 0,-1 0,0 0,-1 0,-1 0,0 0,0 -1,-1 0,0 0,0 0,0 -1,-1 -2,-1 -2,-1 0,0 -1,0 -1,-1zm-124 -4l0 9 2 0c1,0 2,0 3,-1 0,-1 1,-2 1,-4 0,-1 -1,-2 -1,-3 -1,-1 -2,-1 -3,-1l-2 0zm0 -11l0 9 1 0c1,0 1,0 1,-1 1,0 1,0 1,0 1,-1 1,-1 1,-2 0,0 1,-1 1,-1 0,-1 -1,-2 -1,-2 0,-1 0,-1 -1,-2 0,0 0,0 -1,0 0,-1 0,-1 -1,-1l-1 0zm21 13c0,0 1,0 1,0 1,0 1,-1 1,-1 1,0 1,0 1,-1 1,0 1,-1 1,-2 0,0 0,0 0,-1 -1,0 -1,-1 -1,-1 0,0 0,0 0,0 -1,-1 -1,-1 -1,-1 0,0 -1,0 -1,1 0,0 0,0 0,1 -1,0 -1,1 -1,2 0,1 0,2 0,3zm87 5l0 -4c0,0 -1,0 -1,0 0,0 0,0 -1,0 0,0 -1,1 -1,1 -1,1 -1,2 -1,3 0,0 0,1 1,2 0,0 0,0 1,0 0,0 0,0 0,0 1,0 1,0 1,0 0,-1 0,-1 1,-1 0,0 0,-1 0,-1z"/>
  <path fill="url(#id0)" fill-rule="nonzero" d="M1 45l0 -1c1,0 1,0 1,0 1,0 1,0 1,-1 0,0 0,0 0,0 0,-1 0,-1 0,-2l0 -16c0,0 0,-1 0,-1 0,0 0,-1 0,-1 0,0 0,0 -1,0 0,0 0,-1 -1,-1l0 0 9 0c2,0 3,0 4,0 2,1 3,1 3,2 1,0 2,1 2,1 0,1 1,2 1,3 0,1 -1,1 -1,2 0,1 -1,1 -2,2 0,0 -1,0 -2,0 -1,1 -2,1 -2,1 0,0 1,0 2,0 1,0 2,0 3,1 1,0 1,1 2,2 0,1 1,2 1,3 0,0 0,1 -1,2 0,1 -1,1 -1,2 -1,0 -2,1 -4,1 -1,0 -2,1 -4,1l-10 0zm10 -1c1,0 2,-1 3,-2 1,-1 1,-2 1,-4 0,-1 0,-3 -1,-4 -1,0 -2,-1 -3,-1l-2 0 0 11 2 0zm-1 -12c1,0 1,0 2,0 0,0 1,-1 1,-1 0,0 1,-1 1,-2 0,0 0,-1 0,-1 0,-1 0,-2 0,-2 0,-1 -1,-2 -1,-2 0,0 -1,-1 -1,-1 -1,0 -1,0 -2,0l-1 0 0 9 1 0z"/>
  <path id="1" fill="url(#id1)" fill-rule="nonzero" d="M33 45c-2,0 -3,0 -4,-1 -1,0 -2,-1 -3,-1 -1,-1 -1,-2 -2,-3 0,-1 0,-2 0,-4 0,-1 0,-2 0,-3 1,-1 1,-2 2,-3 1,-1 2,-1 3,-1 1,-1 2,-1 4,-1 0,0 1,0 2,0 1,0 1,1 2,1 1,0 1,1 2,1 0,1 1,2 1,3 0,0 -1,1 -1,2 0,0 -1,0 -1,1 -1,0 -2,0 -2,1 -1,0 -2,0 -3,0 0,0 -1,0 -2,0 -1,0 -1,0 -2,0 0,2 0,3 0,4 1,1 1,1 1,2 0,0 1,1 1,1 0,0 1,0 2,0 1,0 2,0 3,-1 1,0 2,-1 3,-2 0,1 0,1 0,2 -1,0 -1,1 -1,1 -1,0 -2,0 -2,1 -1,0 -2,0 -3,0zm-4 -9c1,0 2,0 2,0 1,0 1,0 2,0 0,-1 1,-1 1,-1 0,-1 0,-2 0,-3 0,0 0,0 0,-1 0,0 0,-1 0,-1 0,0 -1,-1 -1,-1 0,0 -1,0 -1,0 0,0 -1,0 -1,0 0,0 -1,1 -1,1 0,1 0,2 -1,3 0,1 0,2 0,3z"/>
  <path id="2" fill="url(#id2)" fill-rule="nonzero" d="M45 37c1,0 1,1 2,1 0,1 0,1 0,2 0,1 0,1 0,2 0,0 0,0 0,0 0,0 0,0 0,0 0,1 0,1 0,1 0,0 0,1 1,1 0,0 0,0 1,0 0,0 0,0 1,0 0,0 1,0 1,0 1,-1 1,-1 1,-2 0,-1 0,-1 0,-1 0,0 0,-1 0,-1 -1,0 -1,0 -2,-1 0,0 0,0 -1,-1 -1,0 -2,-1 -3,-1 -1,-1 -1,-1 -2,-2 0,0 -1,-1 -1,-1 0,0 0,-1 0,-1 0,-1 0,-2 0,-2 1,-1 1,-1 2,-2 0,0 1,-1 2,-1 1,0 2,0 3,0 1,0 2,0 3,0 0,0 1,1 2,1 1,0 1,1 1,2 1,0 1,1 1,1 0,1 0,2 -1,2 0,1 -1,1 -1,1 -1,0 -2,0 -2,-1 -1,0 -1,-1 -1,-1 0,-1 0,-1 0,-2 1,0 1,0 1,0 0,-1 0,-1 0,-1 0,0 0,0 -1,-1 0,0 -1,0 -1,0 -1,0 -2,0 -2,0 0,1 -1,1 -1,2 0,0 0,1 1,1 0,1 0,1 0,1 1,0 1,1 1,1 1,0 1,0 1,0 1,1 3,2 3,2 1,1 2,1 2,2 1,0 1,0 1,1 0,0 1,1 1,1 0,1 -1,2 -1,3 -1,0 -2,1 -2,1 -1,0 -2,1 -3,1 -1,0 -2,0 -2,0l0 1c0,0 0,0 1,0 0,0 0,1 1,1 0,0 0,0 0,1 1,0 1,0 1,1 0,0 -1,0 -1,1 0,0 0,0 -1,1 0,0 0,0 -1,0 0,0 -1,0 -1,0 0,0 0,0 -1,0 0,0 0,0 -1,0l0 -1c1,0 1,0 1,0 0,0 0,0 1,0 0,0 0,0 1,0 0,-1 0,-1 0,-1 0,-1 0,-1 0,-2 -1,0 -1,0 -1,0l0 -2c-1,0 -2,0 -3,0 0,-1 -1,-1 -2,-1 0,-1 -1,-1 -1,-2 0,0 -1,-1 -1,-2 0,-1 1,-1 1,-2 0,0 1,-1 2,-1z"/>
  <path id="3" fill="url(#id3)" fill-rule="nonzero" d="M62 30c0,0 -1,0 -1,1 0,0 -1,0 -1,1 0,-1 0,-1 0,-2 0,0 1,0 1,-1 0,0 1,0 1,0 1,-1 1,-1 2,-1 0,0 1,0 1,0 1,1 1,1 2,1 0,0 0,1 0,1 1,0 1,1 1,1l0 10c0,1 0,1 0,2 0,0 0,0 0,0 0,1 0,1 1,1 0,0 0,0 1,0l0 1 -9 0 0 -1c0,0 1,0 1,0 0,0 0,0 0,-1 0,0 1,0 1,0 0,-1 0,-1 0,-2l0 -10c0,0 0,0 -1,0 0,-1 0,-1 0,-1zm1 -6c0,-1 0,-1 1,-2 0,0 0,0 1,0 0,0 1,0 1,0 0,1 1,1 1,2 0,0 -1,1 -1,1 0,0 -1,0 -1,0 -1,0 -1,0 -1,0 -1,0 -1,-1 -1,-1z"/>
  <path id="4" fill="url(#id4)" fill-rule="nonzero" d="M71 25c0,0 0,-1 0,-1 0,-1 1,-1 1,-1 0,0 1,-1 1,-1 1,0 1,0 2,0 0,0 1,0 1,0 1,0 1,0 2,1 0,0 0,0 0,1 1,0 1,0 1,1l0 11 5 -6c1,0 1,0 1,-1 0,0 0,0 -1,0 0,0 -1,0 -1,0l0 -1 5 0 0 1c0,0 -1,0 -1,0 -1,0 -1,1 -1,1l-4 4 5 7c1,1 1,1 2,1 0,0 0,0 0,0 1,0 1,0 1,-1 0,1 0,1 0,2 0,0 -1,1 -1,1 -1,0 -1,0 -2,0 0,1 -1,1 -1,1 -1,0 -2,-1 -3,-1 0,0 -1,-1 -1,-2l-3 -5 0 4c0,1 0,1 0,2 0,0 0,0 0,0 0,1 0,1 1,1 0,0 0,0 1,0l0 1 -9 0 0 -1c0,0 0,0 1,0 0,0 0,0 0,-1 0,0 0,0 1,0 0,-1 0,-1 0,-2l0 -16c0,0 -1,-1 -1,-1 0,0 0,0 0,0 -1,0 -1,0 -1,0 -1,0 -1,1 -1,1z"/>
  <path id="5" fill="url(#id5)" fill-rule="nonzero" d="M94 22c1,0 1,0 2,0 0,0 1,0 1,1 0,0 1,0 1,1 0,0 0,0 0,1l0 3 5 0 0 1 -5 0 0 11c0,1 0,1 0,1 0,1 0,1 0,2 1,0 1,0 1,1 1,0 1,0 2,0 0,0 1,0 2,-1 1,0 1,-1 2,-2 0,1 0,1 0,2 0,0 -1,1 -1,1 0,0 -1,0 -2,1 -1,0 -1,0 -3,0 -1,0 -3,0 -4,-1 -1,-1 -2,-2 -2,-4l0 -11 -2 0 0 -1 2 0 0 -3c0,0 0,-1 0,-1 0,0 -1,0 -1,0 0,0 0,0 -1,0 0,0 0,1 -1,1 0,0 0,-1 1,-1 0,-1 0,-1 0,-1 1,0 1,-1 2,-1 0,0 1,0 1,0z"/>
  <path id="6" fill="url(#id6)" fill-rule="nonzero" d="M107 41c0,-2 0,-2 1,-3 1,-1 2,-1 2,-2 1,0 2,0 3,0 1,0 2,0 3,0 0,0 1,0 1,0 0,0 0,0 1,0l0 -1c0,-1 -1,-2 -1,-3 0,-1 0,-2 0,-2 -1,-1 -1,-1 -2,-1 0,0 0,0 -1,0 0,0 -1,0 -1,0 0,0 0,1 0,1 0,1 0,1 0,1 0,1 0,2 0,2 -1,1 -1,1 -2,1 -1,0 -1,0 -2,-1 0,0 0,-1 0,-1 0,-1 0,-1 0,-2 0,0 1,-1 1,-1 0,0 1,-1 2,-1 1,0 1,0 3,0 1,0 2,0 3,0 1,1 2,1 3,2 0,0 1,1 1,2 0,1 1,2 1,3l0 6c0,1 0,1 0,1 0,0 0,1 1,1 0,0 0,0 0,-1 1,0 1,0 1,-1 0,1 0,1 0,2 0,0 0,0 -1,1 0,0 -1,0 -1,0 -1,1 -1,1 -1,1 -1,0 -2,-1 -3,-1 0,-1 -1,-1 -1,-2 0,1 -1,2 -2,2 -1,1 -2,1 -3,1 -2,0 -3,0 -4,-1 -1,-1 -2,-2 -2,-3zm8 3c0,0 0,0 1,0 0,-1 0,-1 0,-1 1,0 1,-1 1,-1 0,0 0,0 1,-1l0 -4c-1,0 -1,0 -2,0 0,0 -1,0 -1,0 -1,0 -1,0 -2,1 0,1 0,2 0,3 0,1 0,2 0,2 1,1 1,1 2,1z"/>
  <path id="7" fill="url(#id7)" fill-rule="nonzero" d="M130 37c1,0 2,1 2,1 0,1 1,1 1,2 0,1 -1,1 -1,2 0,0 0,0 0,0 0,0 0,0 0,0 0,1 0,1 0,1 0,0 1,1 1,1 0,0 1,0 1,0 0,0 1,0 1,0 1,0 1,0 2,0 0,-1 1,-1 1,-2 0,-1 0,-1 -1,-1 0,0 0,-1 0,-1 0,0 -1,0 -1,-1 -1,0 -1,0 -2,-1 -1,0 -2,-1 -3,-1 0,-1 -1,-1 -1,-2 -1,0 -1,-1 -1,-1 -1,0 -1,-1 -1,-1 0,-1 0,-2 1,-2 0,-1 1,-1 1,-2 1,0 1,-1 2,-1 1,0 2,0 3,0 1,0 2,0 3,0 1,0 2,1 2,1 1,0 1,1 2,2 0,0 0,1 0,1 0,1 0,2 0,2 -1,1 -1,1 -2,1 -1,0 -1,0 -2,-1 0,0 0,-1 0,-1 0,-1 0,-1 0,-2 0,0 0,0 0,0 0,-1 0,-1 0,-1 0,0 0,0 0,-1 -1,0 -1,0 -2,0 -1,0 -1,0 -2,0 0,1 0,1 0,2 0,0 0,1 0,1 0,1 0,1 1,1 0,0 0,1 1,1 0,0 0,0 1,0 1,1 2,2 3,2 0,1 1,1 2,2 0,0 0,0 1,1 0,0 0,1 0,1 0,1 0,2 -1,3 -1,0 -1,1 -2,1 -1,0 -2,1 -3,1 -1,0 -1,0 -2,0l0 1c0,0 1,0 1,0 0,0 1,1 1,1 0,0 0,0 1,1 0,0 0,0 0,1 0,0 0,0 0,1 -1,0 -1,0 -1,1 -1,0 -1,0 -1,0 -1,0 -1,0 -2,0 0,0 0,0 0,0 -1,0 -1,0 -1,0l0 -1c0,0 0,0 0,0 1,0 1,0 1,0 0,0 1,0 1,0 0,-1 1,-1 1,-1 0,-1 -1,-1 -1,-2 0,0 -1,0 -1,0l0 -2c-1,0 -2,0 -2,0 -1,-1 -2,-1 -2,-1 -1,-1 -1,-1 -2,-2 0,0 0,-1 0,-2 0,-1 0,-1 0,-2 1,0 1,-1 2,-1z"/>
 </g>
</svg>
