

<!-- Creator: CorelDRAW X8 -->
<svg xmlns="http://www.w3.org/2000/svg" xml:space="preserve" x="0" y="0" width="70.3996mm" height="25mm" version="1.1" shape-rendering="geometricPrecision" text-rendering="geometricPrecision" image-rendering="optimizeQuality" fill-rule="evenodd" clip-rule="evenodd"
viewBox="0 0 288 102"
 xmlns:xlink="http://www.w3.org/1999/xlink">
 <defs>
   <linearGradient id="id0" gradientUnits="userSpaceOnUse" x1="-0" y1="51.1375" x2="288.007" y2="51.1375">
    <stop offset="0" stop-opacity="1" stop-color="#2B2A29"/>
    <stop offset="1" stop-opacity="1" stop-color="#2B2A29"/>
   </linearGradient>
   <linearGradient id="id1" gradientUnits="userSpaceOnUse" x1="0.818177" y1="51.1376" x2="287.189" y2="51.1376">
    <stop offset="0" stop-opacity="1" stop-color="#DDCD0B"/>
    <stop offset="1" stop-opacity="1" stop-color="#2F2D5A"/>
   </linearGradient>
   <linearGradient id="id2" gradientUnits="userSpaceOnUse" x1="0.818177" y1="51.1376" x2="287.189" y2="51.1376">
    <stop offset="0" stop-opacity="1" stop-color="#DDCD0B"/>
    <stop offset="1" stop-opacity="1" stop-color="#2F2D5A"/>
   </linearGradient>
   <linearGradient id="id3" gradientUnits="userSpaceOnUse" x1="0.818177" y1="51.1376" x2="287.189" y2="51.1376">
    <stop offset="0" stop-opacity="1" stop-color="#DDCD0B"/>
    <stop offset="1" stop-opacity="1" stop-color="#2F2D5A"/>
   </linearGradient>
   <linearGradient id="id4" gradientUnits="userSpaceOnUse" x1="0.818177" y1="51.1376" x2="287.189" y2="51.1376">
    <stop offset="0" stop-opacity="1" stop-color="#DDCD0B"/>
    <stop offset="1" stop-opacity="1" stop-color="#2F2D5A"/>
   </linearGradient>
   <linearGradient id="id5" gradientUnits="userSpaceOnUse" x1="0.818177" y1="51.1376" x2="287.189" y2="51.1376">
    <stop offset="0" stop-opacity="1" stop-color="#DDCD0B"/>
    <stop offset="1" stop-opacity="1" stop-color="#2F2D5A"/>
   </linearGradient>
   <linearGradient id="id6" gradientUnits="userSpaceOnUse" x1="0.818177" y1="51.1376" x2="287.189" y2="51.1376">
    <stop offset="0" stop-opacity="1" stop-color="#DDCD0B"/>
    <stop offset="1" stop-opacity="1" stop-color="#2F2D5A"/>
   </linearGradient>
   <linearGradient id="id7" gradientUnits="userSpaceOnUse" x1="0.818177" y1="51.1376" x2="287.189" y2="51.1376">
    <stop offset="0" stop-opacity="1" stop-color="#DDCD0B"/>
    <stop offset="1" stop-opacity="1" stop-color="#2F2D5A"/>
   </linearGradient>
   <linearGradient id="id8" gradientUnits="userSpaceOnUse" x1="0.818177" y1="51.1376" x2="287.189" y2="51.1376">
    <stop offset="0" stop-opacity="1" stop-color="#DDCD0B"/>
    <stop offset="1" stop-opacity="1" stop-color="#2F2D5A"/>
   </linearGradient>
   <linearGradient id="id9" gradientUnits="userSpaceOnUse" x1="0.818177" y1="51.1376" x2="287.189" y2="51.1376">
    <stop offset="0" stop-opacity="1" stop-color="#DDCD0B"/>
    <stop offset="1" stop-opacity="1" stop-color="#2F2D5A"/>
   </linearGradient>
   <linearGradient id="id10" gradientUnits="userSpaceOnUse" x1="0.818177" y1="51.1376" x2="287.189" y2="51.1376">
    <stop offset="0" stop-opacity="1" stop-color="#DDCD0B"/>
    <stop offset="1" stop-opacity="1" stop-color="#2F2D5A"/>
   </linearGradient>
 </defs>
 <g id="Katman_x0020_1">
  <metadata id="CorelCorpID_0Corel-Layer"/>
  <rect fill="none" x="1" width="286" height="102"/>
  <path fill="url(#id0)" d="M18 54l-9 0 -3 6c0,1 0,1 0,1 0,0 0,0 0,0 1,0 1,0 2,0l1 0 0 2 -9 0 0 -2 1 0c0,0 1,0 1,-1 0,0 1,0 1,0l13 -31 2 0 12 29c0,0 0,0 0,0 0,0 0,1 1,1 0,0 0,-1 0,-1 1,0 1,0 2,-1l1 -1 0 2c0,1 0,1 -1,2 0,1 -1,1 -1,2 -1,0 -2,1 -2,1 -1,0 -2,0 -3,0 -1,0 -2,0 -2,0 -1,0 -2,-1 -2,-1 -1,-1 -1,-1 -2,-2 0,0 0,-1 0,-1l-3 -5zm26 -13c1,-1 2,-2 3,-2 1,-1 2,-1 4,-1 1,0 2,0 3,1 2,0 3,1 3,2 1,0 2,1 2,2 1,1 1,2 1,3l0 12c0,0 0,0 0,1 0,0 0,0 0,0 1,0 1,-1 1,-1 1,0 1,0 2,-1l1 -1 0 2c0,1 0,1 -1,2 0,1 0,1 -1,2 -1,0 -1,1 -2,1 -1,0 -2,0 -3,0 0,0 -1,0 -2,0 -1,0 -1,-1 -2,-1 0,-1 -1,-1 -1,-2 -1,-1 -1,-1 -1,-2l0 -12c0,0 0,-1 0,-2 0,-1 0,-1 -1,-2 0,0 0,0 -1,0 0,-1 0,-1 0,-1 -1,0 -1,0 -1,1 -1,0 -1,0 -1,0 -1,1 -1,1 -1,1 0,1 0,1 -1,1l0 14c0,0 0,1 0,1 0,1 0,1 1,1 0,0 0,1 0,1 0,0 1,0 1,0l1 0 0 2 -14 0 0 -2 1 0c0,0 1,0 1,0 0,0 0,-1 0,-1 0,0 0,0 0,-1 0,0 0,-1 0,-1l0 -14c0,0 0,-1 0,-1 0,0 0,0 0,0 0,0 0,0 -1,0 0,1 -1,1 -1,2l-1 1 0 -2c0,-1 0,-2 0,-2 1,-1 1,-1 2,-2 0,0 1,-1 2,-1 1,0 1,0 2,0 1,0 3,0 4,0 0,1 1,1 1,2zm31 7l7 -7c0,0 0,0 0,0 0,0 0,0 0,0 0,0 -1,0 -1,0l-1 0 0 -2 9 0 0 2 -1 0c-1,0 -1,0 -2,0 0,1 -1,1 -1,2l-4 4 6 10c0,1 1,2 1,2 1,0 1,-1 1,-1 0,0 1,0 1,-1l2 -1 0 2c0,1 -1,1 -1,2 0,1 -1,1 -2,2 0,0 -1,1 -2,1 -1,0 -2,0 -2,0 -2,0 -3,0 -4,-1 -1,-1 -2,-2 -3,-3l-3 -4 0 3c0,0 0,1 0,1 0,1 0,1 1,1 0,0 0,1 0,1 0,0 1,0 1,0l1 0 0 2 -14 0 0 -2 1 0c0,0 1,0 1,0 0,0 0,-1 0,-1 0,0 0,0 0,-1 0,0 0,-1 0,-1l0 -23c0,0 0,-1 0,-1 0,0 0,0 0,0 0,0 0,0 -1,0 0,1 -1,1 -1,1l-1 2 0 -2c0,-1 0,-2 0,-2 1,-1 1,-1 2,-2 0,0 1,-1 2,-1 1,0 1,-1 2,-1 1,0 2,1 2,1 1,0 2,0 2,1 1,0 1,1 2,1 0,1 0,2 0,3l0 13zm32 1l0 0c0,-2 0,-3 0,-5 0,0 0,-1 -1,-2 0,0 -1,-1 -1,-1 -1,0 -1,0 -2,0 0,0 0,0 0,0 0,0 0,0 0,1 0,0 0,1 0,2 0,1 0,2 -1,3 -1,1 -2,1 -3,1 -1,0 -2,0 -3,-1 -1,-1 -1,-2 -1,-3 0,-1 0,-2 0,-2 1,-1 1,-2 2,-2 1,-1 2,-1 3,-1 1,-1 3,-1 4,-1 2,0 3,0 5,1 1,0 3,1 4,2 1,1 2,2 2,3 1,2 1,3 1,5l0 9c0,0 0,0 0,1 0,0 0,0 1,0 0,0 0,0 0,-1 1,0 1,0 2,-1l1 -1 0 2c0,1 0,1 -1,2 0,1 0,1 -1,2 -1,0 -1,1 -2,1 -1,0 -1,0 -2,0 -2,0 -3,0 -4,-1 0,0 -1,-1 -1,-2 -1,1 -2,2 -2,2 -2,1 -3,2 -5,2 -2,0 -5,-1 -7,-2 -1,-2 -2,-3 -2,-5 0,-2 0,-3 1,-5 1,-1 3,-1 4,-2 1,0 3,-1 4,-1 2,0 3,0 4,0 0,0 1,0 1,0 0,0 0,0 0,0zm24 -8c1,-1 2,-1 2,-1 2,-1 3,-1 4,-1 1,0 2,0 3,0 0,0 1,1 1,1 1,0 1,1 2,2 0,0 0,1 0,2 0,1 0,2 -1,3 -1,1 -2,1 -3,1 -1,0 -1,0 -2,0 -1,-1 -1,-1 -1,-1 -1,-1 -1,-1 -1,-2 0,0 0,-1 0,-2 0,0 0,-1 0,-1 0,0 -1,0 -1,0 0,1 -1,1 -1,2 -1,0 -1,0 -1,1l0 13c0,0 0,1 0,1 0,1 0,1 0,1 0,0 0,1 1,1 0,0 0,0 1,0l1 0 0 2 -15 0 0 -2 1 0c0,0 1,0 1,0 1,0 1,-1 1,-1 0,0 0,0 0,-1 0,0 0,-1 0,-1l0 -14c0,0 0,-1 0,-1 0,0 0,0 0,0 -1,0 -1,0 -1,0 -1,1 -1,1 -1,2l-2 1 0 -2c0,-1 0,-2 1,-2 0,-1 1,-1 1,-2 1,0 2,-1 2,-1 1,0 2,0 3,0 1,0 2,0 3,0 1,1 2,1 2,2zm27 8l0 0c0,-2 0,-3 0,-5 -1,0 -1,-1 -1,-2 -1,0 -1,-1 -2,-1 0,0 -1,0 -1,0 0,0 -1,0 -1,0 0,0 0,0 1,1 0,0 0,1 0,2 0,1 -1,2 -1,3 -1,1 -2,1 -3,1 -2,0 -3,0 -3,-1 -1,-1 -2,-2 -2,-3 0,-1 1,-2 1,-2 0,-1 1,-2 2,-2 0,-1 1,-1 2,-1 2,-1 3,-1 4,-1 2,0 4,0 6,1 1,0 2,1 3,2 2,1 2,2 3,3 0,2 1,3 1,5l0 9c0,0 0,0 0,1 0,0 0,0 0,0 0,0 1,0 1,-1 0,0 1,0 1,-1l2 -1 0 2c0,1 -1,1 -1,2 0,1 -1,1 -1,2 -1,0 -2,1 -2,1 -1,0 -2,0 -3,0 -1,0 -2,0 -3,-1 -1,0 -1,-1 -2,-2 0,1 -1,2 -2,2 -1,1 -3,2 -4,2 -3,0 -5,-1 -7,-2 -2,-2 -3,-3 -3,-5 0,-2 1,-3 2,-5 1,-1 2,-1 3,-2 2,0 3,-1 5,-1 1,0 2,0 4,0 0,0 0,0 1,0 0,0 0,0 0,0zm17 14c0,-1 0,-1 -1,-1 0,-1 -1,-1 -1,-2 -1,-1 -1,-1 -1,-2 0,-1 0,-2 1,-2 0,-1 0,-2 1,-2 0,0 1,-1 1,-1 0,0 1,0 1,0 -1,-1 -2,-2 -2,-2 0,-2 -1,-3 -1,-4 0,-2 1,-4 3,-6 2,-2 5,-2 8,-2 1,0 3,0 4,0 1,0 2,0 3,1 0,-1 0,-1 0,-1 0,-1 1,-1 1,-2 1,0 1,-1 2,-1 1,0 1,-1 2,-1 1,0 2,1 2,1 1,1 2,2 2,3 0,0 0,1 -1,2 0,0 -1,1 -2,1 0,0 -1,-1 -1,-1 -1,-1 -1,-2 -1,-2 0,0 0,0 0,-1 0,1 0,1 -1,1 0,0 0,1 0,1 -1,0 -1,1 -1,1 1,1 1,2 1,3 1,1 1,2 1,3 0,2 -1,4 -3,6 -2,2 -5,2 -8,2 -1,0 -2,0 -3,0 -1,0 -2,0 -3,-1 0,0 0,1 0,1 -1,0 -1,0 -1,0 0,0 0,0 0,0 0,0 0,0 0,0 1,0 1,1 1,1 1,0 1,0 2,0l9 0c2,0 4,0 6,2 1,1 2,3 2,5 0,2 0,3 -1,4 0,1 -1,2 -2,3 -2,1 -3,2 -5,2 -2,1 -4,1 -6,1 -1,0 -2,0 -3,0 -1,-1 -3,-1 -4,-1 -1,-1 -2,-1 -3,-2 -1,-1 -1,-2 -1,-3 0,-1 0,-2 1,-3 0,-1 1,-1 2,-1zm4 7c0,0 0,0 1,0 1,0 2,0 2,0 2,0 4,0 6,-1 1,0 2,0 3,-1 1,0 2,-1 2,-1 0,-1 1,-1 1,-1 0,-1 -1,-1 -1,-2 -1,0 -3,0 -4,0l-9 0c-1,0 -1,0 -2,0 0,0 0,0 1,0 0,1 1,2 1,3 0,1 0,1 -1,2 0,0 0,0 0,1zm40 -12l0 -14c0,0 0,-1 0,-1 -1,0 -1,0 -1,0 0,0 0,0 0,0 -1,1 -1,1 -2,2l-1 1 0 -2c0,-1 0,-2 0,-2 1,-1 1,-1 2,-2 0,0 1,-1 2,-1 1,0 2,0 2,0 1,0 2,0 3,0 0,0 1,0 2,1 0,0 1,1 1,2 0,0 1,1 1,2l0 14c0,0 0,0 0,1 0,0 0,0 0,0 0,0 1,-1 1,-1 0,0 1,0 1,-1l1 -1 0 2c0,1 0,1 0,2 -1,1 -1,1 -2,2 0,0 -1,1 -2,1 -1,0 -1,0 -2,0 -1,0 -3,0 -4,-1 0,0 -1,0 -1,-1 -1,1 -2,1 -3,2 -1,0 -2,1 -4,1 -1,0 -2,0 -3,-1 -1,0 -2,-1 -3,-2 -1,-1 -2,-1 -2,-2 -1,-1 -1,-2 -1,-4l0 -11c0,0 0,-1 0,-1 0,0 0,0 0,0 -1,0 -1,0 -1,0 -1,1 -1,1 -1,2l-2 1 0 -2c0,-1 0,-2 1,-2 0,-1 1,-1 1,-2 1,0 1,-1 2,-1 1,0 2,0 3,0 0,0 1,0 2,0 1,0 1,0 2,1 0,0 1,1 1,2 1,0 1,1 1,2l0 11c0,1 0,2 0,3 0,0 1,1 1,1 0,1 0,1 1,1 0,0 0,1 1,1 0,0 0,-1 1,-1 0,0 0,0 0,0 1,-1 1,-1 1,-2 0,0 1,0 1,0zm-10 -25c0,-1 0,-2 1,-2 0,-1 1,-1 2,-1 1,0 2,0 2,1 1,0 1,1 1,2 0,1 0,2 -1,2 0,1 -1,1 -2,1 -1,0 -2,0 -2,-1 -1,0 -1,-1 -1,-2zm7 0c0,-1 0,-2 1,-2 1,-1 1,-1 2,-1 1,0 2,0 3,1 0,0 1,1 1,2 0,1 -1,2 -1,2 -1,1 -2,1 -3,1 -1,0 -1,0 -2,-1 -1,0 -1,-1 -1,-2zm31 8c0,0 0,0 0,0 0,0 -1,0 -1,0 -1,0 -1,1 -2,2 0,0 -1,2 -1,3 -1,1 -1,3 -1,5 0,1 0,3 1,5 0,1 1,2 1,3 1,0 1,1 2,1 0,1 1,1 2,1 1,0 2,-1 3,-1 1,-1 2,-2 3,-3l1 -1 0 2c0,1 0,1 0,2 -1,1 -1,1 -2,2 -1,1 -2,1 -3,1 -1,1 -3,1 -4,1 -4,0 -7,-1 -10,-4 -2,-2 -3,-6 -3,-9 0,-4 1,-7 3,-10 3,-2 7,-3 10,-3 1,0 3,0 4,1 1,0 2,0 3,1 1,0 1,1 2,2 0,0 0,1 0,2 0,1 0,2 -1,3 -1,1 -2,1 -3,1 -1,0 -2,0 -3,-1 -1,-1 -1,-2 -1,-3 0,-1 0,-2 0,-2 0,-1 0,-1 0,-1zm28 17l0 -14c0,0 0,-1 0,-1 0,0 0,0 0,0 0,0 -1,0 -1,0 0,1 -1,1 -1,2l-2 1 0 -2c0,-1 1,-2 1,-2 0,-1 1,-1 1,-2 1,0 2,-1 3,-1 0,0 1,0 2,0 1,0 1,0 2,0 1,0 2,0 2,1 1,0 1,1 2,2 0,0 0,1 0,2l0 14c0,0 0,0 0,1 0,0 0,0 0,0 1,0 1,-1 1,-1 1,0 1,0 2,-1l1 -1 0 2c0,1 0,1 -1,2 0,1 0,1 -1,2 -1,0 -1,1 -2,1 -1,0 -2,0 -3,0 -1,0 -2,0 -3,-1 -1,0 -1,0 -2,-1 0,1 -1,1 -2,2 -1,0 -3,1 -4,1 -1,0 -3,0 -4,-1 -1,0 -2,-1 -3,-2 -1,-1 -1,-1 -2,-2 0,-1 0,-2 0,-4l0 -11c0,0 0,-1 -1,-1 0,0 0,0 0,0 0,0 0,0 -1,0 0,1 -1,1 -1,2l-1 1 0 -2c0,-1 0,-2 0,-2 1,-1 1,-1 2,-2 0,0 1,-1 2,-1 1,0 1,0 2,0 1,0 2,0 2,0 1,0 2,0 2,1 1,0 2,1 2,2 0,0 0,1 0,2l0 11c0,1 0,2 1,3 0,0 0,1 0,1 1,1 1,1 1,1 1,0 1,1 1,1 0,0 1,-1 1,-1 0,0 1,0 1,0 0,-1 1,-1 1,-2 0,0 0,0 0,0zm-10 -25c0,-1 1,-2 1,-2 1,-1 2,-1 3,-1 1,0 1,0 2,1 1,0 1,1 1,2 0,1 0,2 -1,2 -1,1 -1,1 -2,1 -1,0 -2,0 -3,-1 0,0 -1,-1 -1,-2zm7 0c0,-1 1,-2 1,-2 1,-1 2,-1 3,-1 1,0 2,0 2,1 1,0 1,1 1,2 0,1 0,2 -1,2 0,1 -1,1 -2,1 -1,0 -2,0 -3,-1 0,0 -1,-1 -1,-2zm-262 18l7 0 -3 -9 -4 9zm97 6l0 -5c0,0 0,0 -1,0 0,0 -1,0 -1,0 -1,0 -2,1 -2,1 -1,2 -1,3 -1,4 0,1 0,2 1,3 0,0 0,0 1,0 0,0 1,0 1,0 0,0 1,0 1,-1 0,0 1,0 1,-1 0,0 0,0 0,-1zm51 0l0 -5c-1,0 -1,0 -1,0 -1,0 -1,0 -2,0 0,0 -1,1 -1,1 -1,2 -1,3 -1,4 0,1 0,2 0,3 1,0 1,0 1,0 1,0 1,0 2,0 0,0 0,0 0,-1 1,0 1,0 1,-1 0,0 1,0 1,-1zm24 -10c0,1 0,2 0,3 0,0 0,1 1,2 0,0 0,0 0,0 1,0 1,0 1,0 0,0 1,0 1,0 0,0 1,0 1,0 0,-1 0,-2 0,-2 1,-1 1,-2 1,-3 0,-1 0,-2 -1,-3 0,-1 0,-1 0,-2 0,0 -1,0 -1,-1 0,0 -1,0 -1,0 0,0 0,0 -1,0 0,1 0,1 0,1 -1,1 -1,1 -1,2 0,1 0,2 0,3z"/>
  <path fill="url(#id1)" fill-rule="nonzero" d="M8 62l0 0 -7 0 0 0c1,0 1,-1 2,-1 0,0 1,0 1,-1l12 -30 1 0 12 28c0,1 1,1 1,1 0,0 0,0 1,0 0,0 0,0 1,0 0,0 1,-1 1,-1 0,1 0,1 0,2 -1,0 -1,1 -2,1 0,1 -1,1 -2,1 0,0 -1,0 -2,0 -1,0 -2,0 -2,0 -1,0 -1,0 -2,-1 0,0 -1,-1 -1,-1 0,-1 -1,-1 -1,-2l-2 -5 -11 0 -3 7c0,0 0,1 0,1 0,0 0,0 1,0 1,1 1,1 2,1zm1 -10l9 0 -4 -12 -5 12z"/>
  <path id="1" fill="url(#id2)" fill-rule="nonzero" d="M36 42c0,0 -1,0 -1,1 -1,0 -1,0 -2,1 0,-1 1,-1 1,-2 0,0 1,-1 1,-1 1,-1 1,-1 2,-1 1,-1 2,-1 2,-1 1,0 2,1 3,1 1,1 2,1 2,2 1,-1 2,-2 3,-2 1,-1 2,-1 4,-1 1,0 2,0 3,1 1,0 2,1 3,1 1,1 1,2 2,3 0,0 0,1 0,2l0 12c0,0 0,1 1,1 0,0 0,0 0,0 1,0 1,0 2,0 0,0 1,-1 1,-1 0,0 0,1 0,2 -1,0 -1,1 -2,1 0,0 -1,1 -1,1 -1,0 -2,0 -3,0 0,0 -1,0 -2,0 0,0 -1,0 -1,-1 -1,0 -1,-1 -2,-1 0,-1 0,-2 0,-2l0 -12c0,-1 0,-2 0,-2 0,-1 -1,-2 -1,-2 0,-1 -1,-1 -1,-1 -1,0 -1,-1 -1,-1 -1,0 -1,1 -2,1 0,0 -1,0 -1,1 0,0 -1,0 -1,1 0,0 0,1 0,1l0 14c0,0 0,1 0,1 0,1 0,1 0,2 0,0 0,0 1,0 0,0 1,1 1,1l0 0 -12 0 0 0c0,0 1,-1 1,-1 1,0 1,0 1,0 0,-1 0,-1 0,-2 0,0 0,-1 0,-1l0 -14c0,-1 0,-1 0,-1 0,-1 0,-1 -1,-1z"/>
  <path id="2" fill="url(#id3)" fill-rule="nonzero" d="M63 35c0,-1 1,-1 1,-2 0,0 1,-1 1,-1 1,-1 1,-1 2,-1 1,-1 2,-1 2,-1 1,0 2,0 2,1 1,0 1,0 2,0 0,1 1,1 1,2 0,0 1,1 1,2l0 16 8 -9c0,0 0,-1 0,-1 0,0 0,-1 -1,-1 0,0 -1,0 -1,0l0 0 7 0 0 0c-1,0 -2,0 -2,1 -1,0 -1,1 -2,1l-4 5 7 11c0,1 1,1 1,1 1,0 1,0 2,0 0,0 0,-1 1,-1 0,1 0,1 -1,2 0,0 -1,1 -1,1 -1,1 -1,1 -2,1 -1,0 -2,0 -2,0 -2,0 -3,0 -4,-1 -1,0 -2,-1 -2,-3l-4 -6 0 6c0,0 0,1 0,1 0,1 0,1 0,2 0,0 0,0 1,0 0,0 1,1 1,1l0 0 -12 0 0 0c0,0 1,-1 1,-1 1,0 1,0 1,0 0,-1 0,-1 0,-2 0,0 0,-1 0,-1l0 -23c0,-1 0,-1 0,-1 0,-1 0,-1 -1,-1 0,0 -1,0 -1,1 -1,0 -1,0 -2,1z"/>
  <path id="3" fill="url(#id4)" fill-rule="nonzero" d="M94 57c0,-2 0,-3 1,-4 1,-1 2,-2 3,-2 1,-1 3,-1 4,-1 2,0 3,0 4,0 1,0 1,0 1,0 0,0 1,0 1,0l0 -1c0,-2 0,-4 0,-5 0,-1 -1,-2 -1,-2 -1,-1 -1,-2 -2,-2 0,0 -1,0 -2,0 -1,0 -1,0 -2,0 1,1 1,1 1,2 0,1 0,1 0,2 0,1 0,2 -1,2 0,1 -1,1 -2,1 -1,0 -2,0 -2,-1 -1,0 -1,-1 -1,-2 0,-1 0,-1 0,-2 0,-1 1,-1 2,-2 0,0 1,0 2,-1 1,0 2,0 4,0 2,0 3,0 5,1 1,0 2,1 3,2 1,1 2,2 3,3 0,1 0,2 0,4l0 9c0,0 0,1 1,1 0,0 0,1 1,1 0,0 0,-1 1,-1 0,0 1,-1 1,-1 0,1 0,1 0,2 -1,0 -1,1 -2,1 0,0 -1,1 -1,1 -1,0 -2,0 -2,0 -1,0 -2,0 -3,-1 -1,0 -2,-1 -2,-2 -1,1 -2,2 -3,3 -1,1 -2,1 -4,1 -3,0 -5,-1 -6,-2 -2,-1 -2,-3 -2,-4zm10 4c0,0 1,0 1,0 1,0 1,-1 2,-1 0,0 0,-1 0,-1 1,-1 1,-1 1,-1l0 -7c-1,0 -1,0 -2,0 -1,0 -1,0 -1,0 -1,0 -2,1 -3,2 0,1 -1,3 -1,4 0,2 1,3 1,3 1,1 1,1 2,1z"/>
  <path id="4" fill="url(#id5)" fill-rule="nonzero" d="M123 42c-1,0 -1,0 -2,1 0,0 -1,0 -1,1 0,-1 0,-1 0,-2 1,0 1,-1 2,-1 0,-1 1,-1 2,-1 0,-1 1,-1 2,-1 1,0 2,1 3,1 1,1 2,2 2,3 1,-1 2,-2 3,-3 1,0 2,-1 3,-1 1,0 2,1 2,1 1,0 1,0 2,1 0,0 1,1 1,1 0,1 1,1 1,2 0,1 -1,2 -2,2 0,1 -1,1 -2,1 -1,0 -1,0 -2,0 0,0 0,-1 -1,-1 0,0 0,-1 0,-1 0,-1 0,-1 0,-2 0,0 0,-1 0,-1 0,-1 0,-1 0,-1 0,0 -1,0 -1,0 -1,0 -1,0 -2,1 0,0 0,1 -1,1 0,1 -1,1 -1,2l0 13c0,0 0,1 0,1 0,1 0,1 0,2 1,0 1,0 1,0 1,0 1,1 2,1l0 0 -13 0 0 0c1,0 1,-1 2,-1 0,0 0,0 0,0 1,-1 1,-1 1,-2 0,0 0,-1 0,-1l0 -14c0,-1 0,-1 0,-1 -1,-1 -1,-1 -1,-1z"/>
  <path id="5" fill="url(#id6)" fill-rule="nonzero" d="M144 57c0,-2 1,-3 1,-4 1,-1 2,-2 4,-2 1,-1 2,-1 4,-1 1,0 3,0 4,0 0,0 0,0 1,0 0,0 0,0 1,0l0 -1c0,-2 0,-4 -1,-5 0,-1 0,-2 -1,-2 0,-1 -1,-2 -1,-2 -1,0 -2,0 -2,0 -1,0 -2,0 -2,0 0,1 1,1 1,2 0,1 0,1 0,2 0,1 0,2 -1,2 -1,1 -1,1 -2,1 -1,0 -2,0 -3,-1 -1,0 -1,-1 -1,-2 0,-1 0,-1 1,-2 0,-1 0,-1 1,-2 1,0 2,0 3,-1 1,0 2,0 3,0 2,0 4,0 5,1 2,0 3,1 4,2 1,1 2,2 2,3 1,1 1,2 1,4l0 9c0,0 0,1 0,1 0,0 1,1 1,1 0,0 1,-1 1,-1 1,0 1,-1 2,-1 0,1 0,1 -1,2 0,0 0,1 -1,1 0,0 -1,1 -2,1 0,0 -1,0 -2,0 -1,0 -2,0 -3,-1 -1,0 -1,-1 -2,-2 0,1 -1,2 -2,3 -2,1 -3,1 -4,1 -3,0 -5,-1 -7,-2 -1,-1 -2,-3 -2,-4zm10 4c1,0 1,0 2,0 0,0 1,-1 1,-1 0,0 1,-1 1,-1 0,-1 0,-1 1,-1l0 -7c-1,0 -2,0 -2,0 -1,0 -1,0 -2,0 -1,0 -2,1 -2,2 -1,1 -1,3 -1,4 0,2 0,3 1,3 0,1 1,1 1,1z"/>
  <path id="6" fill="url(#id7)" fill-rule="nonzero" d="M172 67c0,-1 1,-2 1,-3 1,0 2,0 3,0 1,0 1,0 2,1 1,0 1,1 1,2 0,1 0,1 0,2 -1,0 -1,1 -2,1 1,0 2,1 3,1 0,0 1,0 2,0 3,0 4,0 6,-1 1,0 3,0 4,-1 1,-1 1,-1 2,-2 0,0 0,-1 0,-1 0,-1 0,-2 -1,-2 -1,-1 -2,-1 -4,-1l-9 0c-1,0 -2,0 -3,-1 -1,0 -2,0 -2,-1 -1,0 -1,-1 -2,-1 0,-1 0,-2 0,-2 0,-1 0,-2 0,-2 1,-1 1,-1 1,-1 1,-1 1,-1 2,-2 0,0 1,0 1,0 -1,-1 -2,-2 -2,-3 -1,-1 -1,-2 -1,-3 0,-2 1,-4 3,-5 1,-2 4,-3 7,-3 2,0 3,1 4,1 1,0 2,0 3,1 0,-1 0,-1 1,-2 0,0 0,-1 1,-1 0,-1 1,-1 1,-1 1,-1 1,-1 2,-1 1,0 1,0 2,1 1,0 1,1 1,2 0,0 0,1 0,1 -1,1 -1,1 -2,1 0,0 0,0 -1,-1 0,0 0,-1 0,-1 0,-1 0,-1 0,-1 0,0 0,-1 0,-1 0,0 -1,0 -1,1 0,0 -1,0 -1,0 0,1 -1,1 -1,1 0,1 -1,2 -1,3 1,0 1,1 2,2 0,1 0,2 0,3 0,2 -1,4 -2,5 -2,2 -5,2 -8,2 -1,0 -2,0 -3,0 -1,0 -2,0 -3,-1 0,1 0,1 -1,1 0,0 -1,1 -1,1 0,0 0,0 1,1 0,0 0,0 0,0 0,0 1,0 1,0 1,1 1,1 2,1l9 0c2,0 4,0 5,1 2,2 2,3 2,5 0,2 0,3 -1,4 0,1 -1,2 -2,3 -1,0 -2,1 -4,1 -2,1 -4,1 -6,1 -1,0 -2,0 -3,0 -1,0 -2,-1 -4,-1 -1,0 -2,-1 -2,-2 -1,0 -2,-1 -2,-2zm9 -20c0,1 0,2 0,3 0,1 1,2 1,2 0,0 1,1 1,1 0,0 1,0 1,0 1,0 1,0 1,0 1,0 1,-1 1,-1 1,0 1,-1 1,-2 0,-1 0,-2 0,-3 0,-1 0,-3 0,-3 0,-1 0,-2 -1,-2 0,-1 0,-1 -1,-1 0,0 0,-1 -1,-1 0,0 -1,1 -1,1 0,0 -1,0 -1,1 0,0 -1,1 -1,2 0,0 0,2 0,3z"/>
  <path id="7" fill="url(#id8)" fill-rule="nonzero" d="M204 42c-1,0 -1,0 -2,1 0,0 -1,0 -1,1 0,-1 0,-1 0,-2 1,0 1,-1 2,-1 0,-1 1,-1 1,-1 1,-1 2,-1 3,-1 0,0 1,0 2,1 0,0 1,0 1,1 1,0 1,1 2,1 0,1 0,1 0,2l0 11c0,1 0,2 0,3 1,1 1,1 1,2 1,0 1,1 1,1 1,0 1,0 2,0 0,0 1,0 1,0 0,0 1,-1 1,-1 0,0 1,-1 1,-1 0,-1 0,-1 1,-1l0 -14c0,0 -1,-1 -1,-1 0,-1 0,-1 -1,-1 0,0 0,0 -1,1 0,0 -1,0 -1,1 0,-1 0,-1 0,-2 0,0 1,-1 1,-1 1,-1 2,-1 2,-1 1,-1 2,-1 2,-1 1,0 2,0 2,1 1,0 2,0 2,1 1,0 1,1 1,1 1,1 1,1 1,2l0 14c0,1 0,1 0,1 0,0 1,0 1,0 0,0 1,0 1,0 1,0 1,-1 2,-1 0,0 -1,1 -1,2 0,0 -1,1 -1,1 -1,0 -1,1 -2,1 -1,0 -1,0 -2,0 -1,0 -2,0 -3,0 -1,-1 -2,-1 -2,-2 -1,1 -2,2 -3,2 -1,1 -2,1 -4,1 -1,0 -2,0 -3,-1 -1,0 -2,-1 -3,-1 -1,-1 -1,-2 -2,-3 0,-1 0,-2 0,-3l0 -11c0,0 0,-1 -1,-1 0,-1 0,-1 0,-1zm6 -9c0,-1 0,-1 0,-2 1,0 1,-1 2,-1 1,0 1,1 2,1 0,1 1,1 1,2 0,1 -1,1 -1,2 -1,0 -1,0 -2,0 -1,0 -1,0 -2,0 0,-1 0,-1 0,-2zm7 0c0,-1 0,-1 0,-2 1,0 2,-1 2,-1 1,0 2,1 2,1 1,1 1,1 1,2 0,1 0,1 -1,2 0,0 -1,0 -2,0 0,0 -1,0 -2,0 0,-1 0,-1 0,-2z"/>
  <path id="8" fill="url(#id9)" fill-rule="nonzero" d="M246 39c2,0 3,0 4,0 1,1 2,1 2,1 1,1 2,1 2,2 0,1 0,1 0,2 0,1 0,2 -1,2 0,1 -1,1 -2,1 -1,0 -2,0 -2,-1 -1,0 -1,-1 -1,-2 0,-1 0,-1 0,-2 0,-1 0,-1 1,-2 -1,0 -1,0 -2,0 0,0 -1,0 -2,0 0,1 -1,1 -1,2 -1,1 -2,2 -2,3 0,2 -1,4 -1,6 0,2 1,4 1,5 0,2 1,3 2,3 0,1 1,2 2,2 0,0 1,1 2,1 1,0 2,-1 3,-1 1,-1 2,-2 4,-3 0,1 -1,1 -1,2 0,0 -1,1 -1,1 -1,1 -2,1 -3,1 -1,1 -3,1 -4,1 -4,0 -7,-1 -9,-3 -2,-2 -3,-5 -3,-9 0,-4 1,-7 3,-9 2,-2 5,-3 9,-3z"/>
  <path id="9" fill="url(#id10)" fill-rule="nonzero" d="M260 42c0,0 -1,0 -1,1 -1,0 -1,0 -2,1 0,-1 1,-1 1,-2 0,0 1,-1 1,-1 1,-1 1,-1 2,-1 1,-1 2,-1 2,-1 1,0 2,0 2,1 1,0 1,0 2,1 0,0 1,1 1,1 0,1 1,1 1,2l0 11c0,1 0,2 0,3 0,1 0,1 1,2 0,0 0,1 1,1 0,0 1,0 1,0 1,0 1,0 1,0 1,0 1,-1 2,-1 0,0 0,-1 0,-1 1,-1 1,-1 1,-1l0 -14c0,0 0,-1 0,-1 0,-1 -1,-1 -1,-1 0,0 -1,0 -1,1 -1,0 -1,0 -2,1 0,-1 0,-1 1,-2 0,0 0,-1 1,-1 0,-1 1,-1 2,-1 0,-1 1,-1 2,-1 1,0 1,0 2,1 1,0 1,0 2,1 0,0 1,1 1,1 0,1 0,1 0,2l0 14c0,1 0,1 1,1 0,0 0,0 0,0 1,0 1,0 2,0 0,0 1,-1 1,-1 0,0 0,1 0,2 -1,0 -1,1 -2,1 0,0 -1,1 -1,1 -1,0 -2,0 -3,0 -1,0 -2,0 -3,0 -1,-1 -1,-1 -2,-2 0,1 -1,2 -2,2 -1,1 -3,1 -4,1 -1,0 -2,0 -3,-1 -2,0 -2,-1 -3,-1 -1,-1 -2,-2 -2,-3 0,-1 -1,-2 -1,-3l0 -11c0,0 0,-1 0,-1 0,-1 0,-1 -1,-1zm6 -9c0,-1 0,-1 1,-2 0,0 1,-1 2,-1 0,0 1,1 1,1 1,1 1,1 1,2 0,1 0,1 -1,2 0,0 -1,0 -1,0 -1,0 -2,0 -2,0 -1,-1 -1,-1 -1,-2zm7 0c0,-1 1,-1 1,-2 1,0 1,-1 2,-1 1,0 1,1 2,1 0,1 0,1 0,2 0,1 0,1 0,2 -1,0 -1,0 -2,0 -1,0 -1,0 -2,0 0,-1 -1,-1 -1,-2z"/>
 </g>
</svg>
