

<!-- Creator: CorelDRAW X8 -->
<svg xmlns="http://www.w3.org/2000/svg" xml:space="preserve" x="0" y="0" width="45.359mm" height="25mm" version="1.1" shape-rendering="geometricPrecision" text-rendering="geometricPrecision" image-rendering="optimizeQuality" fill-rule="evenodd" clip-rule="evenodd"
viewBox="0 0 123 68"
 xmlns:xlink="http://www.w3.org/1999/xlink">
 <defs>
   <linearGradient id="id0" gradientUnits="userSpaceOnUse" x1="-2.57852e-05" y1="33.9278" x2="123.115" y2="33.9278">
    <stop offset="0" stop-opacity="1" stop-color="#E12429"/>
    <stop offset="1" stop-opacity="1" stop-color="#FECC07"/>
   </linearGradient>
   <linearGradient id="id1" gradientUnits="userSpaceOnUse" x1="-2.57852e-05" y1="33.9278" x2="123.115" y2="33.9278">
    <stop offset="0" stop-opacity="1" stop-color="#E12429"/>
    <stop offset="1" stop-opacity="1" stop-color="#FECC07"/>
   </linearGradient>
   <linearGradient id="id2" gradientUnits="userSpaceOnUse" x1="-2.57852e-05" y1="33.9278" x2="123.115" y2="33.9278">
    <stop offset="0" stop-opacity="1" stop-color="#E12429"/>
    <stop offset="1" stop-opacity="1" stop-color="#FECC07"/>
   </linearGradient>
   <linearGradient id="id3" gradientUnits="userSpaceOnUse" x1="-2.57852e-05" y1="33.9278" x2="123.115" y2="33.9278">
    <stop offset="0" stop-opacity="1" stop-color="#E12429"/>
    <stop offset="1" stop-opacity="1" stop-color="#FECC07"/>
   </linearGradient>
   <linearGradient id="id4" gradientUnits="userSpaceOnUse" x1="-2.57852e-05" y1="33.9278" x2="123.115" y2="33.9278">
    <stop offset="0" stop-opacity="1" stop-color="#E12429"/>
    <stop offset="1" stop-opacity="1" stop-color="#FECC07"/>
   </linearGradient>
   <linearGradient id="id5" gradientUnits="userSpaceOnUse" x1="-2.57852e-05" y1="33.9278" x2="123.115" y2="33.9278">
    <stop offset="0" stop-opacity="1" stop-color="#E12429"/>
    <stop offset="1" stop-opacity="1" stop-color="#FECC07"/>
   </linearGradient>
   <linearGradient id="id6" gradientUnits="userSpaceOnUse" x1="-2.57852e-05" y1="33.9278" x2="123.115" y2="33.9278">
    <stop offset="0" stop-opacity="1" stop-color="#E12429"/>
    <stop offset="1" stop-opacity="1" stop-color="#FECC07"/>
   </linearGradient>
 </defs>
 <g id="Katman_x0020_1">
  <metadata id="CorelCorpID_0Corel-Layer"/>
  <rect fill="none" width="123.115" height="67.8561"/>
  <path fill="url(#id0)" fill-rule="nonzero" d="M9 41c1,0 1,0 1,0 1,0 1,0 1,-1 0,0 1,0 1,0 0,-1 0,-1 0,-1l0 -7c0,0 0,0 0,0 0,0 0,0 0,0 -1,0 -1,0 -1,0 0,0 0,0 0,0l0 -1 8 0 0 1c0,0 0,0 0,0 -1,0 -1,0 -1,0 0,0 0,0 0,0 -1,0 -1,0 -1,0l0 7c0,0 0,0 1,1 0,0 0,0 0,0 1,0 1,0 2,0 0,-1 0,-1 1,-1 0,0 -1,1 -1,1 0,0 0,1 -1,1 0,0 0,0 -1,1 0,0 -1,0 -1,0 -1,0 -1,0 -2,0 0,0 0,-1 -1,-1 0,0 0,0 -1,0 0,-1 0,-1 0,-2 -1,1 -1,2 -2,2 -1,1 -2,1 -3,1 -1,0 -2,0 -3,-1 -1,0 -2,-1 -3,-2 0,-1 -1,-2 -1,-3 -1,-2 -1,-3 -1,-5 0,-2 0,-3 1,-5 0,-1 1,-2 2,-3 0,-1 1,-2 3,-2 1,-1 2,-1 4,-1 0,0 1,0 2,0 1,1 2,1 2,1 1,1 1,1 2,2 0,0 0,1 0,2 0,0 0,1 0,1 0,0 0,1 0,1 -1,0 -1,0 -1,1 -1,0 -1,0 -2,0 0,0 -1,-1 -2,-1 0,-1 0,-2 0,-3 0,0 0,-1 0,-2 0,0 0,-1 0,-1 0,0 0,0 0,0 0,0 0,0 0,0 0,0 0,0 0,0 0,0 -1,0 -1,0 0,0 -1,0 -2,0 0,1 -1,1 -1,2 0,0 -1,1 -1,2 0,1 0,1 0,2 -1,1 -1,2 -1,2 0,1 0,2 0,2 0,2 0,4 1,5 0,1 0,2 1,3 0,1 0,1 1,2 0,0 1,0 1,0z"/>
  <path id="1" fill="url(#id1)" fill-rule="nonzero" d="M30 41c0,0 1,0 1,0 0,0 1,-1 1,-1 0,-1 1,-1 1,-2 0,-1 0,-2 0,-4 0,-1 0,-3 0,-3 0,-1 -1,-2 -1,-3 0,0 -1,-1 -1,-1 0,0 -1,0 -1,0 0,0 -1,0 -1,0 0,0 -1,1 -1,1 0,1 0,2 -1,3 0,0 0,2 0,3 0,2 0,3 0,4 1,1 1,1 1,2 0,0 1,1 1,1 0,0 1,0 1,0zm0 -15c1,0 2,0 3,1 1,0 2,1 3,1 1,1 1,2 2,3 0,1 0,2 0,3 0,1 0,3 0,3 -1,1 -1,2 -2,3 -1,1 -2,1 -3,2 -1,0 -2,0 -3,0 -1,0 -2,0 -3,0 -1,-1 -2,-1 -3,-2 -1,-1 -1,-2 -1,-3 -1,0 -1,-2 -1,-3 0,-1 0,-2 1,-3 0,-1 0,-2 1,-3 1,0 2,-1 3,-1 1,-1 2,-1 3,-1zm-4 -4c0,0 0,-1 1,-1 0,0 0,0 1,0 0,0 1,0 1,0 0,0 0,1 0,1 0,1 0,1 0,1 0,1 -1,1 -1,1 -1,0 -1,0 -1,-1 -1,0 -1,0 -1,-1zm5 0c0,0 0,-1 0,-1 1,0 1,0 2,0 0,0 0,0 1,0 0,0 0,1 0,1 0,1 0,1 0,1 -1,1 -1,1 -1,1 -1,0 -1,0 -2,-1 0,0 0,0 0,-1z"/>
  <path id="2" fill="url(#id2)" fill-rule="nonzero" d="M43 27c-1,0 -1,1 -1,1 0,0 -1,0 -1,1 0,0 0,0 0,1 0,0 0,1 0,1l-1 0 0 -4 14 0 0 0 -9 14 6 0c0,0 1,0 1,0 1,-1 1,-1 1,-1 0,-1 0,-1 0,-2 0,0 0,-1 0,-1l1 0 0 5 -14 0 0 -1 8 -14 -5 0z"/>
  <path id="3" fill="url(#id3)" fill-rule="nonzero" d="M60 20c1,0 1,1 1,1 1,0 1,0 2,0 0,0 0,1 0,1 1,1 1,1 1,1l0 4 4 0 0 0 -4 0 0 11c0,0 0,0 0,1 0,0 0,1 0,1 0,0 0,1 1,1 0,0 0,0 1,0 1,0 1,0 2,0 1,-1 1,-1 2,-2 0,0 0,1 0,1 0,0 -1,1 -1,1 0,0 -1,1 -2,1 0,0 -1,0 -2,0 -2,0 -3,0 -5,-1 -1,-1 -1,-2 -1,-3l0 -11 -2 0 0 0 2 0 0 -4c0,0 0,0 0,0 -1,0 -1,-1 -1,-1 0,0 0,1 -1,1 0,0 0,0 -1,1 0,-1 0,-1 1,-2 0,0 0,0 0,-1 1,0 1,0 2,0 0,0 1,-1 1,-1z"/>
  <path id="4" fill="url(#id4)" fill-rule="nonzero" d="M79 42c-1,0 -2,0 -3,0 -1,-1 -2,-1 -3,-2 -1,-1 -1,-2 -2,-3 0,-1 0,-2 0,-3 0,-1 0,-2 0,-3 1,-1 1,-2 2,-3 1,0 2,-1 3,-1 1,-1 2,-1 3,-1 1,0 1,0 2,0 1,1 2,1 2,1 1,0 1,1 2,1 0,1 1,2 1,3 0,0 -1,1 -1,1 0,1 -1,1 -1,2 -1,0 -1,0 -2,0 -1,0 -1,1 -2,1 -1,0 -2,0 -2,0 -1,0 -2,0 -2,0 0,1 0,2 0,3 0,1 0,2 1,2 0,1 0,1 1,1 0,0 0,0 1,0 1,0 2,0 3,0 1,-1 2,-1 3,-2 0,0 0,1 0,1 0,0 -1,1 -1,1 -1,0 -1,1 -2,1 -1,0 -2,0 -3,0zm-3 -8c1,0 1,0 2,0 0,0 1,0 1,-1 1,0 1,0 1,-1 0,0 1,-1 1,-2 0,0 0,0 -1,-1 0,0 0,-1 0,-1 0,0 0,-1 -1,-1 0,0 0,0 -1,0 0,0 0,0 -1,0 0,1 0,1 0,1 -1,1 -1,2 -1,3 0,1 0,2 0,3z"/>
  <path id="5" fill="url(#id5)" fill-rule="nonzero" d="M88 30c0,-1 0,-1 0,-2 0,0 0,0 1,-1 0,0 1,0 1,0 0,0 1,-1 1,-1 1,0 1,1 1,1 1,0 1,0 1,0 1,1 1,1 1,1 0,0 0,1 1,1 0,0 0,0 0,0 0,0 0,0 0,0 0,-1 1,-2 1,-2 1,-1 2,-1 3,-1 1,0 2,0 2,1 1,0 2,1 2,1 1,1 1,2 2,3 0,1 0,2 0,3 0,2 0,3 0,4 -1,1 -1,1 -2,2 0,1 -1,1 -2,2 0,0 -1,0 -2,0 -1,0 -1,0 -2,0 0,0 -1,0 -1,0 0,-1 0,-1 0,-1 -1,0 -1,0 -1,0l0 4c0,0 0,1 0,1 0,0 0,0 0,1 0,0 1,0 1,0 0,0 0,0 1,0l0 1 -9 0 0 -1c1,0 1,0 2,0 0,0 0,0 0,0 0,-1 0,-1 0,-1 0,0 0,-1 0,-1l0 -15c0,-1 0,-1 0,-1 0,0 0,-1 -1,-1 0,0 0,1 0,1 -1,0 -1,0 -1,1zm7 10c0,0 1,1 1,1 1,0 1,0 1,0 1,0 1,0 1,0 1,0 1,-1 1,-1 1,-1 1,-1 1,-2 0,-1 0,-2 0,-4 0,-1 0,-2 0,-3 0,-1 0,-2 -1,-2 0,-1 0,-1 0,-1 -1,-1 -1,-1 -1,-1 -1,0 -1,0 -1,0 0,1 -1,1 -1,1 0,0 0,1 0,1 -1,0 -1,0 -1,1l0 10z"/>
  <path id="6" fill="url(#id6)" fill-rule="nonzero" d="M117 42c-2,0 -3,0 -4,0 -1,-1 -2,-1 -2,-2 -1,-1 -2,-2 -2,-3 0,-1 -1,-2 -1,-3 0,-1 1,-2 1,-3 0,-1 1,-2 2,-3 0,0 1,-1 2,-1 1,-1 2,-1 4,-1 0,0 1,0 2,0 0,1 1,1 2,1 0,0 1,1 1,1 1,1 1,2 1,3 0,0 0,1 0,1 -1,1 -1,1 -2,2 0,0 -1,0 -2,0 0,0 -1,1 -2,1 0,0 -1,0 -2,0 0,0 -1,0 -2,0 1,1 1,2 1,3 0,1 0,2 0,2 0,1 1,1 1,1 1,0 1,0 2,0 1,0 2,0 3,0 1,-1 2,-1 3,-2 0,0 0,1 -1,1 0,0 0,1 -1,1 0,0 -1,1 -2,1 0,0 -1,0 -2,0zm-4 -8c1,0 2,0 2,0 1,0 1,0 2,-1 0,0 1,0 1,-1 0,0 0,-1 0,-2 0,0 0,0 0,-1 0,0 0,-1 0,-1 -1,0 -1,-1 -1,-1 0,0 -1,0 -1,0 0,0 -1,0 -1,0 0,1 -1,1 -1,1 0,1 0,2 0,3 0,1 -1,2 -1,3z"/>
 </g>
</svg>
