

<!-- Creator: CorelDRAW X8 -->
<svg xmlns="http://www.w3.org/2000/svg" xml:space="preserve" width="110.455mm" height="25mm" version="1.1" shape-rendering="geometricPrecision" text-rendering="geometricPrecision" image-rendering="optimizeQuality" fill-rule="evenodd" clip-rule="evenodd"
viewBox="0 0 660 149"
 xmlns:xlink="http://www.w3.org/1999/xlink">
 <defs>
    <linearGradient id="id0" gradientUnits="userSpaceOnUse" x1="230.745" y1="74.6484" x2="659.625" y2="74.6484">
     <stop offset="0" stop-opacity="1" stop-color="#A72729"/>
     <stop offset="1" stop-opacity="1" stop-color="#25AADF"/>
    </linearGradient>
    <linearGradient id="id1" gradientUnits="userSpaceOnUse" x1="230.745" y1="74.6484" x2="659.625" y2="74.6484">
     <stop offset="0" stop-opacity="1" stop-color="#A72729"/>
     <stop offset="1" stop-opacity="1" stop-color="#25AADF"/>
    </linearGradient>
    <linearGradient id="id2" gradientUnits="userSpaceOnUse" x1="230.745" y1="74.6484" x2="659.625" y2="74.6484">
     <stop offset="0" stop-opacity="1" stop-color="#A72729"/>
     <stop offset="1" stop-opacity="1" stop-color="#25AADF"/>
    </linearGradient>
    <linearGradient id="id3" gradientUnits="userSpaceOnUse" x1="230.745" y1="74.6484" x2="659.625" y2="74.6484">
     <stop offset="0" stop-opacity="1" stop-color="#A72729"/>
     <stop offset="1" stop-opacity="1" stop-color="#25AADF"/>
    </linearGradient>
    <linearGradient id="id4" gradientUnits="userSpaceOnUse" x1="230.745" y1="74.6484" x2="659.625" y2="74.6484">
     <stop offset="0" stop-opacity="1" stop-color="#A72729"/>
     <stop offset="1" stop-opacity="1" stop-color="#25AADF"/>
    </linearGradient>
    <linearGradient id="id5" gradientUnits="userSpaceOnUse" x1="230.745" y1="74.6484" x2="659.625" y2="74.6484">
     <stop offset="0" stop-opacity="1" stop-color="#A72729"/>
     <stop offset="1" stop-opacity="1" stop-color="#25AADF"/>
    </linearGradient>
    <linearGradient id="id6" gradientUnits="userSpaceOnUse" x1="230.745" y1="74.6484" x2="659.625" y2="74.6484">
     <stop offset="0" stop-opacity="1" stop-color="#A72729"/>
     <stop offset="1" stop-opacity="1" stop-color="#25AADF"/>
    </linearGradient>
    <linearGradient id="id7" gradientUnits="userSpaceOnUse" x1="230.745" y1="74.6484" x2="659.625" y2="74.6484">
     <stop offset="0" stop-opacity="1" stop-color="#A72729"/>
     <stop offset="1" stop-opacity="1" stop-color="#25AADF"/>
    </linearGradient>
    <linearGradient id="id8" gradientUnits="userSpaceOnUse" x1="230.745" y1="74.6484" x2="659.625" y2="74.6484">
     <stop offset="0" stop-opacity="1" stop-color="#A72729"/>
     <stop offset="1" stop-opacity="1" stop-color="#25AADF"/>
    </linearGradient>
    <linearGradient id="id9" gradientUnits="userSpaceOnUse" x1="230.745" y1="74.6484" x2="659.625" y2="74.6484">
     <stop offset="0" stop-opacity="1" stop-color="#A72729"/>
     <stop offset="1" stop-opacity="1" stop-color="#25AADF"/>
    </linearGradient>
    <linearGradient id="id10" gradientUnits="userSpaceOnUse" x1="230.745" y1="74.6484" x2="659.625" y2="74.6484">
     <stop offset="0" stop-opacity="1" stop-color="#A72729"/>
     <stop offset="1" stop-opacity="1" stop-color="#25AADF"/>
    </linearGradient>
    <linearGradient id="id11" gradientUnits="userSpaceOnUse" x1="-0" y1="62.7573" x2="203.828" y2="62.7573">
     <stop offset="0" stop-opacity="1" stop-color="#25AADF"/>
     <stop offset="1" stop-opacity="1" stop-color="black"/>
    </linearGradient>
    <linearGradient id="id12" gradientUnits="userSpaceOnUse" x1="-0" y1="80.8074" x2="203.828" y2="80.8074">
     <stop offset="0" stop-opacity="1" stop-color="#A72729"/>
     <stop offset="1" stop-opacity="1" stop-color="black"/>
    </linearGradient>
 </defs>
 <g id="Katman_x0020_1">
  <metadata id="CorelCorpID_0Corel-Layer"/>
  <g id="_2222596628896">
   <path fill="url(#id0)" fill-rule="nonzero" d="M231 45l38 0 0 11 -2 0c0,-1 0,-2 0,-4 0,-1 0,-2 0,-2 0,-1 -1,-2 -1,-2 -1,-1 -2,-1 -3,-1l-7 0 0 38c0,1 0,2 0,2 0,1 0,2 0,2 0,1 1,1 1,1 1,0 2,0 3,0l0 1 -19 0 0 -1c1,0 1,0 2,0 1,0 1,0 1,-1 0,0 1,-1 1,-2 0,0 0,-1 0,-2l0 -38 -8 0c-1,0 -2,0 -2,1 -1,0 -1,1 -2,2 0,0 0,1 0,2 0,2 0,3 0,4l-2 0 0 -11z"/>
   <path id="1" fill="url(#id1)" fill-rule="nonzero" d="M269 62c-1,0 -2,1 -2,1 -1,0 -2,1 -2,2 0,-1 0,-2 0,-3 1,-1 1,-1 2,-2 1,-1 2,-1 3,-1 1,-1 2,-1 3,-1 2,0 3,0 5,1 1,1 2,2 3,4 1,-2 2,-3 4,-4 1,-1 3,-1 5,-1 1,0 2,0 3,1 1,0 2,0 2,1 1,0 2,1 2,2 0,1 1,2 1,2 0,2 -1,3 -2,4 -1,1 -2,1 -4,1 -1,0 -1,0 -2,0 -1,0 -1,-1 -2,-1 0,-1 0,-1 0,-2 0,-1 -1,-1 -1,-2 0,-1 1,-2 1,-3 0,0 0,-1 1,-1 -1,0 -2,0 -3,0 0,1 -1,1 -2,2 0,0 -1,1 -2,1 0,1 -1,2 -1,3l0 19c0,1 0,2 0,2 0,1 0,2 0,2 1,1 1,1 2,1 0,0 1,0 2,0l0 1 -19 0 0 -1c1,0 2,0 3,0 0,0 1,0 1,-1 0,0 0,-1 0,-2 0,0 0,-1 0,-2l0 -20c0,-1 0,-2 0,-2 -1,0 -1,-1 -1,-1z"/>
   <path id="2" fill="url(#id2)" fill-rule="nonzero" d="M300 83c0,-2 1,-4 2,-5 1,-2 3,-2 5,-3 1,-1 3,-1 6,-1 2,0 4,-1 5,-1 1,0 1,0 2,0 0,0 1,0 1,0l0 -2c0,-2 0,-4 0,-6 -1,-2 -1,-3 -2,-4 0,-1 -1,-1 -2,-2 -1,0 -2,0 -3,0 -1,0 -2,0 -3,0 1,1 1,2 1,3 1,1 1,1 1,2 0,2 -1,3 -2,4 -1,1 -2,1 -3,1 -2,0 -3,0 -4,-1 -1,-1 -1,-2 -1,-3 0,-1 0,-2 1,-3 0,-1 1,-2 2,-2 1,-1 2,-2 3,-2 2,0 4,-1 6,-1 3,0 5,1 7,1 2,1 4,2 5,3 2,2 3,3 4,5 0,2 1,3 1,5l0 14c0,1 0,1 0,2 0,0 1,0 1,0 1,0 1,0 2,0 1,-1 1,-1 2,-2 0,1 0,2 0,3 -1,0 -1,1 -2,2 -1,0 -2,1 -3,1 -1,1 -2,1 -3,1 -1,0 -3,-1 -4,-2 -2,-1 -2,-2 -3,-4 -1,2 -2,4 -4,5 -2,1 -3,1 -6,1 -4,0 -7,0 -9,-2 -2,-2 -3,-4 -3,-7zm15 7c1,0 1,0 2,-1 1,0 1,0 2,-1 0,0 1,-1 1,-2 0,0 1,-1 1,-1l0 -10c-1,0 -2,0 -3,0 -1,0 -1,0 -2,0 -1,1 -3,1 -3,3 -1,2 -2,4 -2,6 0,2 1,4 1,5 1,1 2,1 3,1z"/>
   <path id="3" fill="url(#id3)" fill-rule="nonzero" d="M347 45c1,0 2,0 3,0 1,0 2,1 2,1 1,1 2,2 2,2 1,1 1,2 1,3l0 9c0,0 0,-1 1,-1 0,0 0,0 1,0 0,-1 1,-1 2,-1 1,-1 2,-1 4,-1 2,0 4,1 5,1 2,1 4,2 5,4 1,1 2,3 3,5 1,2 1,5 1,8 0,3 0,5 -1,7 -1,3 -2,4 -3,6 -1,1 -3,3 -4,3 -2,1 -4,1 -5,1 -3,0 -5,0 -6,-1 -2,-1 -3,-3 -4,-5 0,0 0,0 0,0 0,0 0,0 -1,0 0,1 0,2 0,2 -1,1 -1,1 -2,2 -1,0 -1,1 -2,1 -1,1 -2,1 -3,1 0,0 -1,0 -2,-1l0 -40c0,-1 0,-1 0,-1 -1,-1 -1,-1 -1,-1 -1,0 -2,0 -2,1 -1,0 -2,1 -2,1 0,0 0,-1 0,-2 1,-1 1,-2 2,-2 1,-1 2,-1 3,-2 1,0 2,0 3,0zm8 17l0 23c0,0 0,1 1,2 0,0 0,1 1,1 0,1 1,1 2,2 0,0 1,0 1,0 1,0 2,0 2,-1 1,0 2,-1 2,-2 0,-1 1,-3 1,-5 1,-2 1,-4 1,-7 0,-4 0,-6 -1,-8 0,-2 -1,-4 -1,-5 -1,-1 -1,-2 -2,-2 -1,0 -1,-1 -2,-1 -1,0 -2,1 -3,1 -1,1 -2,1 -2,2z"/>
   <path id="4" fill="url(#id4)" fill-rule="nonzero" d="M388 60c-1,0 -2,0 -3,1 0,0 -1,1 -1,2 -1,1 -1,2 -1,3 0,1 0,2 0,3l-1 0 0 -11 30 0 0 2 -19 30 12 0c1,0 2,-1 3,-1 1,-1 1,-1 2,-2 0,-1 0,-2 0,-3 0,-1 0,-2 0,-3l2 0 0 10 -31 0 0 -1 19 -30 -12 0z"/>
   <path id="5" fill="url(#id5)" fill-rule="nonzero" d="M435 91c1,0 1,0 2,-1 1,0 2,-1 2,-2 1,-2 1,-3 2,-5 0,-2 0,-5 0,-8 0,-3 0,-6 0,-8 -1,-2 -1,-4 -2,-5 0,-1 -1,-2 -2,-2 -1,-1 -1,-1 -2,-1 -1,0 -2,0 -2,1 -1,0 -2,1 -2,2 -1,1 -1,3 -2,5 0,2 0,5 0,8 0,3 0,6 0,8 1,2 1,3 2,5 0,1 1,2 2,2 0,1 1,1 2,1zm0 -34c3,0 5,1 7,2 2,0 4,1 6,3 1,1 3,3 3,6 1,2 2,4 2,7 0,3 -1,5 -2,7 0,2 -2,4 -3,6 -2,1 -4,2 -6,3 -2,1 -4,1 -7,1 -3,0 -5,0 -7,-1 -3,-1 -4,-2 -6,-3 -2,-2 -3,-4 -4,-6 0,-2 -1,-4 -1,-7 0,-3 1,-5 1,-7 1,-3 2,-5 4,-6 2,-2 3,-3 6,-3 2,-1 4,-2 7,-2z"/>
   <path id="6" fill="url(#id6)" fill-rule="nonzero" d="M461 62c0,0 -1,1 -2,1 0,0 -1,1 -2,2 0,-1 1,-2 1,-3 1,-1 1,-1 2,-2 1,-1 2,-1 3,-1 1,-1 2,-1 3,-1 1,0 3,0 4,1 2,1 3,2 3,3 1,-1 3,-3 4,-3 2,-1 4,-2 6,-2 1,0 3,1 5,1 1,1 2,2 4,3 1,1 2,2 2,3 1,1 1,3 1,4l0 17c0,1 0,1 1,2 0,0 0,0 1,0 0,0 1,0 2,0 0,-1 1,-1 2,-2 0,1 -1,2 -1,2 0,1 -1,2 -2,3 -1,0 -1,1 -2,1 -1,1 -3,1 -4,1 -1,0 -2,0 -3,-1 -1,0 -1,-1 -2,-1 -1,-1 -1,-1 -2,-2 0,-1 -1,-2 -1,-3l0 -17c0,-1 0,-3 0,-4 0,-1 -1,-2 -1,-2 -1,-1 -1,-2 -2,-2 0,0 -1,0 -2,0 0,0 -1,0 -2,0 0,0 -1,1 -1,1 -1,1 -1,2 -2,2 0,1 0,1 0,2l0 20c0,1 0,2 0,2 0,1 0,2 0,2 0,1 1,1 1,1 1,0 2,0 3,0l0 1 -19 0 0 -1c1,0 2,0 2,0 1,0 1,0 1,-1 1,0 1,-1 1,-2 0,0 0,-1 0,-2l0 -20c0,-1 0,-2 0,-2 -1,0 -1,-1 -2,-1z"/>
   <path id="7" fill="url(#id7)" fill-rule="nonzero" d="M516 82c0,1 -1,3 -1,4 0,0 -1,0 -1,0 0,1 0,1 0,1 0,1 0,1 1,2 0,0 1,0 1,1 1,0 2,0 2,0 1,0 2,0 2,0 2,0 3,0 4,-1 1,0 2,-2 2,-3 0,-1 0,-2 0,-2 -1,-1 -1,-1 -2,-2 0,0 -1,-1 -2,-1 -1,-1 -2,-2 -3,-2 -2,-1 -4,-3 -6,-4 -2,-1 -3,-2 -4,-2 -1,-1 -1,-2 -2,-3 0,-1 0,-2 0,-3 0,-2 0,-3 1,-4 0,-1 1,-2 3,-3 1,-1 2,-2 4,-2 2,0 4,-1 6,-1 2,0 4,1 5,1 2,0 4,1 5,2 2,0 3,1 3,3 1,1 2,2 2,4 0,1 -1,3 -2,4 -1,1 -2,1 -3,1 -2,0 -3,0 -4,-1 -1,-1 -1,-2 -1,-4 0,-1 0,-2 0,-2 0,-1 1,-2 1,-2 0,-1 0,-1 0,-1 0,-1 0,-1 -1,-2 -1,-1 -2,-1 -3,-1 -2,0 -3,0 -4,1 -1,1 -1,2 -1,4 0,0 0,1 0,2 1,1 1,1 2,2 1,0 1,1 2,1 1,1 1,1 2,1 2,2 4,3 6,4 2,1 3,2 4,3 1,1 2,2 2,3 0,1 1,2 1,2 0,2 -1,3 -2,4 0,2 -2,3 -3,4 -2,0 -3,1 -5,2 -2,0 -4,0 -6,0 -2,0 -4,0 -6,0 -1,-1 -3,-1 -5,-2 -1,-1 -2,-2 -3,-3 -1,-1 -2,-3 -2,-4 0,-2 1,-4 2,-5 1,-1 2,-1 4,-1 1,0 3,0 3,1 1,1 2,2 2,4z"/>
   <path id="8" fill="url(#id8)" fill-rule="nonzero" d="M541 65c0,-1 0,-2 1,-3 0,-1 1,-1 2,-2 0,-1 1,-1 2,-1 1,-1 2,-1 3,-1 1,0 2,0 3,1 0,0 1,0 2,1 0,0 1,1 1,2 1,0 1,1 1,1 0,0 0,0 0,0 0,0 0,0 0,1 1,-2 3,-4 4,-5 2,-1 4,-2 6,-2 2,0 4,1 5,1 2,1 3,2 5,4 1,1 2,3 3,5 0,3 1,5 1,8 0,3 -1,5 -1,8 -1,2 -2,3 -3,5 -2,1 -3,3 -5,3 -2,1 -4,1 -6,1 -1,0 -2,0 -3,0 -1,0 -2,-1 -3,-1 0,0 0,0 -1,-1 0,0 0,0 -1,0l0 8c0,1 0,2 0,3 1,0 1,1 1,1 0,1 1,1 1,1 1,1 1,1 2,1l0 1 -18 0 0 -1c1,0 2,0 2,-1 1,0 1,0 1,-1 1,0 1,-1 1,-1 0,-1 0,-2 0,-3l0 -33c0,-1 0,-2 -1,-2 0,0 0,-1 -1,-1 0,0 -1,1 -2,1 0,0 -1,1 -2,2zm16 23c1,0 2,1 3,1 1,1 2,1 3,1 0,0 1,0 2,0 1,-1 1,-1 2,-3 0,-1 1,-2 1,-4 0,-2 0,-5 0,-8 0,-3 0,-6 0,-8 0,-2 -1,-3 -1,-4 -1,-2 -1,-2 -2,-3 -1,0 -1,0 -2,0 -1,0 -1,0 -2,0 0,1 -1,1 -1,1 -1,1 -1,2 -2,2 0,1 0,1 -1,2l0 23z"/>
   <path id="9" fill="url(#id9)" fill-rule="nonzero" d="M604 91c1,0 2,0 3,-1 0,0 1,-1 2,-2 0,-2 1,-3 1,-5 1,-2 1,-5 1,-8 0,-3 0,-6 -1,-8 0,-2 -1,-4 -1,-5 -1,-1 -2,-2 -2,-2 -1,-1 -2,-1 -3,-1 0,0 -1,0 -2,1 -1,0 -1,1 -2,2 -1,1 -1,3 -2,5 0,2 0,5 0,8 0,3 0,6 0,8 1,2 1,3 2,5 1,1 1,2 2,2 1,1 2,1 2,1zm0 -34c3,0 6,1 8,2 2,0 4,1 5,3 2,1 3,3 4,6 1,2 1,4 1,7 0,3 0,5 -1,7 -1,2 -2,4 -4,6 -1,1 -3,2 -5,3 -2,1 -5,1 -8,1 -2,0 -5,0 -7,-1 -2,-1 -4,-2 -6,-3 -1,-2 -2,-4 -3,-6 -1,-2 -1,-4 -1,-7 0,-3 0,-5 1,-7 1,-3 2,-5 3,-6 2,-2 4,-3 6,-3 2,-1 5,-2 7,-2z"/>
   <path id="10" fill="url(#id10)" fill-rule="nonzero" d="M631 62c-1,0 -1,1 -2,1 -1,0 -2,1 -2,2 0,-1 0,-2 0,-3 1,-1 2,-1 2,-2 1,-1 2,-1 3,-1 1,-1 2,-1 3,-1 2,0 3,0 5,1 1,1 2,2 3,4 1,-2 2,-3 4,-4 1,-1 3,-1 5,-1 1,0 2,0 3,1 1,0 2,0 2,1 1,0 2,1 2,2 0,1 1,2 1,2 0,2 -1,3 -2,4 -1,1 -2,1 -4,1 -1,0 -1,0 -2,0 -1,0 -1,-1 -1,-1 -1,-1 -1,-1 -1,-2 0,-1 0,-1 0,-2 0,-1 0,-2 0,-3 0,0 0,-1 1,-1 -1,0 -2,0 -2,0 -1,1 -2,1 -3,2 0,0 -1,1 -2,1 0,1 -1,2 -1,3l0 19c0,1 0,2 0,2 0,1 0,2 0,2 1,1 1,1 2,1 0,0 1,0 2,0l0 1 -19 0 0 -1c1,0 2,0 3,0 0,0 1,0 1,-1 0,0 0,-1 0,-2 0,0 0,-1 0,-2l0 -20c0,-1 0,-2 0,-2 0,0 -1,-1 -1,-1z"/>
   <rect fill="url(#id11)" y="55" width="203.828" height="14.747" rx="12" ry="12"/>
   <rect fill="url(#id12)" y="73" width="203.828" height="14.747" rx="12" ry="12"/>
  </g>
  <rect fill="none" width="660" height="149"/>
 </g>
</svg>
