

<!-- Creator: CorelDRAW X8 -->
<svg xmlns="http://www.w3.org/2000/svg" xml:space="preserve" x="0" y="0" width="64.604mm" height="25mm" version="1.1" shape-rendering="geometricPrecision" text-rendering="geometricPrecision" image-rendering="optimizeQuality" fill-rule="evenodd" clip-rule="evenodd"
viewBox="0 0 244 94"
 xmlns:xlink="http://www.w3.org/1999/xlink">
 <defs>
   <linearGradient id="id0" gradientUnits="userSpaceOnUse" x1="0.000719975" y1="47.2351" x2="244.126" y2="47.2351">
    <stop offset="0" stop-opacity="1" stop-color="#F1E108"/>
    <stop offset="1" stop-opacity="1" stop-color="#0A4781"/>
   </linearGradient>
   <linearGradient id="id1" gradientUnits="userSpaceOnUse" x1="0.000719975" y1="47.2351" x2="244.126" y2="47.2351">
    <stop offset="0" stop-opacity="1" stop-color="#F1E108"/>
    <stop offset="1" stop-opacity="1" stop-color="#0A4781"/>
   </linearGradient>
   <linearGradient id="id2" gradientUnits="userSpaceOnUse" x1="0.000719975" y1="47.2351" x2="244.126" y2="47.2351">
    <stop offset="0" stop-opacity="1" stop-color="#F1E108"/>
    <stop offset="1" stop-opacity="1" stop-color="#0A4781"/>
   </linearGradient>
   <linearGradient id="id3" gradientUnits="userSpaceOnUse" x1="0.000719975" y1="47.2351" x2="244.126" y2="47.2351">
    <stop offset="0" stop-opacity="1" stop-color="#F1E108"/>
    <stop offset="1" stop-opacity="1" stop-color="#0A4781"/>
   </linearGradient>
   <linearGradient id="id4" gradientUnits="userSpaceOnUse" x1="0.000719975" y1="47.2351" x2="244.126" y2="47.2351">
    <stop offset="0" stop-opacity="1" stop-color="#F1E108"/>
    <stop offset="1" stop-opacity="1" stop-color="#0A4781"/>
   </linearGradient>
   <linearGradient id="id5" gradientUnits="userSpaceOnUse" x1="0.000719975" y1="47.2351" x2="244.126" y2="47.2351">
    <stop offset="0" stop-opacity="1" stop-color="#F1E108"/>
    <stop offset="1" stop-opacity="1" stop-color="#0A4781"/>
   </linearGradient>
   <linearGradient id="id6" gradientUnits="userSpaceOnUse" x1="0.000719975" y1="47.2351" x2="244.126" y2="47.2351">
    <stop offset="0" stop-opacity="1" stop-color="#F1E108"/>
    <stop offset="1" stop-opacity="1" stop-color="#0A4781"/>
   </linearGradient>
   <linearGradient id="id7" gradientUnits="userSpaceOnUse" x1="0.000719975" y1="47.2351" x2="244.126" y2="47.2351">
    <stop offset="0" stop-opacity="1" stop-color="#F1E108"/>
    <stop offset="1" stop-opacity="1" stop-color="#0A4781"/>
   </linearGradient>
   <linearGradient id="id8" gradientUnits="userSpaceOnUse" x1="0.000719975" y1="47.2351" x2="244.126" y2="47.2351">
    <stop offset="0" stop-opacity="1" stop-color="#F1E108"/>
    <stop offset="1" stop-opacity="1" stop-color="#0A4781"/>
   </linearGradient>
   <linearGradient id="id9" gradientUnits="userSpaceOnUse" x1="0.000719975" y1="47.2351" x2="244.126" y2="47.2351">
    <stop offset="0" stop-opacity="1" stop-color="#F1E108"/>
    <stop offset="1" stop-opacity="1" stop-color="#0A4781"/>
   </linearGradient>
 </defs>
 <g id="Katman_x0020_1">
  <metadata id="CorelCorpID_0Corel-Layer"/>
  <rect fill="none" width="244.127" height="94.4704"/>
  <path fill="url(#id0)" fill-rule="nonzero" d="M0 58l0 -1c1,0 1,0 1,0 1,0 1,0 1,-1 0,0 0,0 0,-1 0,0 1,-1 1,-1l0 -21c0,-1 -1,-1 -1,-2 0,0 0,-1 0,-1 0,0 0,-1 -1,-1 0,0 0,0 -1,0l0 0 22 0 0 6 -1 0c0,0 0,-1 0,-2 0,0 0,-1 0,-2 0,0 -1,-1 -1,-1 0,0 -1,0 -2,0l-9 0 0 13 5 0c1,0 1,0 1,-1 1,0 1,0 1,-1 0,0 0,0 0,-1 0,0 0,-1 0,-1l1 0 0 9 -1 0c0,0 0,-1 0,-1 0,-1 0,-1 0,-2 0,0 0,-1 -1,-1 0,0 0,0 -1,0l-5 0 0 10c0,0 0,1 0,1 0,1 1,1 1,1 0,1 0,1 0,1 1,0 1,0 2,0l0 1 -12 0z"/>
  <path id="1" fill="url(#id1)" fill-rule="nonzero" d="M33 58c-1,0 -3,0 -5,0 -1,-1 -2,-2 -3,-3 -1,-1 -2,-2 -3,-3 0,-2 0,-3 0,-5 0,-2 0,-3 0,-4 1,-2 2,-3 3,-4 1,-1 2,-1 3,-2 2,0 3,-1 5,-1 1,0 2,0 3,1 1,0 2,0 3,1 1,0 2,1 2,1 1,1 1,2 1,3 0,1 0,2 0,3 -1,1 -2,1 -2,2 -1,0 -2,0 -3,1 -1,0 -2,0 -3,0 -1,0 -2,0 -3,0 -1,0 -1,0 -2,0 0,2 0,4 0,5 0,1 0,2 1,3 0,0 1,1 1,1 1,0 1,0 2,0 2,0 3,0 5,-1 1,0 3,-1 4,-2 0,0 -1,1 -1,1 0,1 -1,2 -1,2 -1,0 -2,1 -3,1 -1,0 -2,0 -4,0zm-4 -11c1,0 1,0 2,0 1,0 2,0 2,-1 1,0 1,-1 2,-1 0,-1 0,-2 0,-3 0,0 0,-1 0,-2 0,0 0,-1 0,-1 -1,-1 -1,-1 -1,-1 -1,-1 -1,-1 -2,-1 0,0 -1,0 -1,1 0,0 -1,1 -1,1 0,1 -1,2 -1,4 0,1 0,2 0,4z"/>
  <path id="2" fill="url(#id2)" fill-rule="nonzero" d="M48 39c-1,0 -1,1 -2,1 0,0 0,0 -1,1 0,-1 0,-1 1,-2 0,0 0,-1 1,-1 0,0 1,-1 1,-1 1,0 2,0 2,0 1,0 2,0 3,0 1,1 2,1 2,2 1,-1 2,-1 3,-2 1,0 2,-1 3,-1 1,0 2,0 3,1 1,0 2,1 3,1 0,1 1,2 1,3 1,0 1,1 1,2l0 11c0,0 0,1 0,1 0,0 1,0 1,0 0,0 1,0 1,0 1,0 1,-1 2,-1 0,0 -1,1 -1,1 0,1 -1,1 -1,2 -1,0 -1,0 -2,1 0,0 -1,0 -2,0 0,0 -1,0 -2,0 0,0 -1,-1 -1,-1 -1,0 -1,-1 -1,-1 -1,-1 -1,-2 -1,-2l0 -11c0,-1 0,-2 0,-2 0,-1 0,-2 -1,-2 0,0 0,-1 -1,-1 0,0 -1,0 -1,0 0,0 -1,0 -1,0 -1,0 -1,1 -1,1 -1,0 -1,1 -1,1 0,0 -1,1 -1,1l0 13c0,0 0,1 0,1 0,1 1,1 1,1 0,1 0,1 0,1 1,0 1,0 2,0l0 1 -12 0 0 -1c1,0 1,0 2,0 0,0 0,0 0,-1 0,0 1,0 1,-1 0,0 0,-1 0,-1l0 -13c0,-1 0,-1 -1,-1 0,0 0,-1 0,-1z"/>
  <path id="3" fill="url(#id3)" fill-rule="nonzero" d="M87 58c-2,0 -4,0 -5,0 -2,-1 -3,-2 -4,-3 -1,-1 -2,-2 -2,-3 -1,-2 -1,-3 -1,-5 0,-2 0,-3 1,-4 0,-2 1,-3 2,-4 1,-1 2,-1 4,-2 1,0 3,-1 5,-1 0,0 1,0 2,1 1,0 2,0 3,1 1,0 2,1 3,1 0,1 0,2 0,3 0,1 0,2 0,3 -1,1 -1,1 -2,2 -1,0 -2,0 -3,1 -1,0 -1,0 -2,0 -1,0 -2,0 -3,0 -1,0 -2,0 -3,0 0,2 0,4 0,5 1,1 1,2 1,3 0,0 1,1 1,1 1,0 2,0 2,0 2,0 3,0 5,-1 2,0 3,-1 4,-2 0,0 0,1 -1,1 0,1 0,2 -1,2 -1,0 -2,1 -3,1 -1,0 -2,0 -3,0zm-5 -11c1,0 2,0 3,0 0,0 1,0 2,-1 0,0 1,-1 1,-1 0,-1 1,-2 1,-3 0,0 0,-1 -1,-2 0,0 0,-1 0,-1 0,-1 -1,-1 -1,-1 0,-1 -1,-1 -1,-1 -1,0 -1,0 -2,1 0,0 -1,1 -1,1 0,1 0,2 -1,4 0,1 0,2 0,4z"/>
  <path id="4" fill="url(#id4)" fill-rule="nonzero" d="M101 39c0,0 -1,1 -1,1 -1,0 -1,0 -2,1 0,-1 1,-1 1,-2 0,0 1,-1 1,-1 0,0 1,-1 2,-1 0,0 1,0 2,0 1,0 2,0 3,0 1,1 1,2 1,3 1,-1 2,-2 3,-2 1,-1 2,-1 3,-1 1,0 2,0 2,0 1,0 1,1 2,1 0,0 1,1 1,1 0,1 0,1 0,2 0,1 0,1 -1,2 0,1 -1,1 -2,1 -1,0 -1,0 -2,0 0,-1 0,-1 -1,-1 0,0 0,-1 0,-1 0,-1 0,-1 0,-2 0,0 0,-1 0,-1 0,-1 0,-1 1,-1 -1,0 -1,0 -2,0 0,0 -1,1 -1,1 -1,0 -1,1 -1,1 -1,1 -1,1 -1,1l0 13c0,0 0,1 0,1 0,1 0,1 0,1 0,1 0,1 1,1 0,0 1,0 1,0l0 1 -12 0 0 -1c1,0 2,0 2,0 0,0 0,0 1,-1 0,0 0,0 0,-1 0,0 0,-1 0,-1l0 -13c0,-1 0,-1 0,-1 -1,0 -1,-1 -1,-1z"/>
  <path id="5" fill="url(#id5)" fill-rule="nonzero" d="M125 28c0,0 1,0 2,1 0,0 1,0 1,0 1,1 1,1 1,2 1,0 1,1 1,1l0 6c0,0 0,0 0,-1 1,0 1,0 1,0 0,0 1,0 2,0 0,-1 1,-1 2,-1 1,0 2,1 3,1 1,0 2,1 3,2 1,1 2,2 2,4 1,1 1,3 1,4 0,2 0,4 -1,5 0,2 -1,3 -2,4 0,1 -1,1 -2,2 -1,0 -2,0 -4,0 -1,0 -2,0 -3,-1 -2,0 -2,-1 -3,-2 0,0 0,0 0,0 0,0 0,0 0,0 0,0 0,0 -1,1 0,0 0,1 -1,1 0,0 0,0 -1,1 0,0 -1,0 -2,0 0,0 0,0 -1,0l0 -26c0,0 0,0 0,-1 0,0 -1,0 -1,0 0,0 -1,0 -1,0 -1,1 -1,1 -2,1 0,0 1,-1 1,-1 0,-1 1,-1 1,-1 1,-1 1,-1 2,-1 0,-1 1,-1 2,-1zm5 11l0 15c0,0 0,0 0,1 1,0 1,1 1,1 0,0 1,0 1,1 0,0 1,0 1,0 1,0 1,0 2,0 0,-1 0,-1 1,-2 0,-1 0,-2 0,-3 1,-1 1,-3 1,-5 0,-2 0,-3 -1,-5 0,-1 0,-2 0,-3 -1,0 -1,-1 -2,-1 0,0 0,0 -1,0 -1,0 -1,0 -2,0 0,1 -1,1 -1,1z"/>
  <path id="6" fill="url(#id6)" fill-rule="nonzero" d="M147 53c0,-2 1,-3 1,-4 1,-1 2,-1 3,-2 2,0 3,0 4,0 2,0 3,-1 4,-1 0,0 0,0 1,0 0,0 0,0 1,0l0 -1c0,-1 -1,-3 -1,-4 0,-1 0,-2 -1,-2 0,-1 0,-1 -1,-2 -1,0 -1,0 -2,0 -1,0 -1,0 -2,0 1,1 1,1 1,2 0,1 0,1 0,2 0,1 0,1 -1,2 0,1 -1,1 -2,1 -1,0 -1,0 -2,-1 -1,0 -1,-1 -1,-2 0,-1 0,-1 1,-2 0,0 0,-1 1,-1 1,-1 1,-1 2,-1 1,-1 2,-1 4,-1 1,0 3,0 4,1 2,0 3,1 4,2 0,1 1,2 2,3 0,1 0,2 0,3l0 9c0,0 0,1 1,1 0,0 0,0 0,0 1,0 1,0 1,0 1,0 1,-1 2,-1 0,0 0,1 -1,1 0,1 0,1 -1,2 0,0 -1,0 -1,1 -1,0 -2,0 -2,0 -1,0 -2,0 -3,-1 -1,-1 -1,-1 -2,-2 0,1 -1,2 -2,2 -1,1 -3,1 -4,1 -2,0 -4,0 -6,-1 -1,-1 -2,-3 -2,-4zm10 4c0,0 1,0 1,0 0,-1 1,-1 1,-1 0,-1 1,-1 1,-1 0,-1 0,-1 1,-1l0 -6c-1,0 -2,0 -2,0 -1,0 -1,0 -1,0 -1,0 -2,0 -3,1 0,1 -1,3 -1,4 0,2 1,3 1,3 1,1 1,1 2,1z"/>
  <path id="7" fill="url(#id7)" fill-rule="nonzero" d="M171 33c0,-1 0,-2 0,-2 1,-1 1,-1 2,-1 0,-1 1,-1 1,-1 1,-1 2,-1 2,-1 1,0 2,0 2,1 1,0 1,0 2,0 0,1 1,1 1,2 0,0 0,1 0,1l0 7c2,-2 3,-3 6,-3 1,0 2,0 3,1 1,0 2,1 3,1 0,1 1,2 1,3 1,0 1,1 1,2l0 11c0,0 0,1 0,1 0,0 1,0 1,0 0,0 1,0 1,0 1,0 1,-1 1,-1 0,0 0,1 0,1 0,1 -1,1 -1,2 -1,0 -1,0 -2,1 0,0 -1,0 -2,0 -1,0 -1,0 -2,0 0,0 -1,-1 -1,-1 -1,0 -1,-1 -1,-1 -1,-1 -1,-2 -1,-2l0 -11c0,-1 0,-2 0,-2 0,-1 -1,-2 -1,-2 0,0 -1,-1 -1,-1 0,0 -1,0 -1,0 -1,0 -1,0 -1,0 -1,0 -1,1 -1,1 -1,0 -1,1 -1,1 0,0 -1,1 -1,1l0 13c0,0 0,1 0,1 0,1 0,1 1,1 0,1 0,1 0,1 1,0 1,0 2,0l0 1 -12 0 0 -1c1,0 1,0 1,0 1,0 1,0 1,-1 0,0 0,0 1,-1 0,0 0,-1 0,-1l0 -22c0,0 -1,0 -1,-1 0,0 0,0 0,0 -1,0 -1,0 -2,0 0,1 -1,1 -1,2z"/>
  <path id="8" fill="url(#id8)" fill-rule="nonzero" d="M210 58l0 2c1,0 1,0 1,0 1,0 1,0 2,1 0,0 0,0 1,1 0,0 0,1 0,1 0,1 0,1 0,2 -1,0 -1,0 -2,1 0,0 0,0 -1,0 -1,0 -1,0 -2,0 0,0 0,0 -1,0 0,0 0,0 -1,0l0 -1c1,0 1,0 1,0 0,0 1,0 1,0 0,0 1,0 1,0 1,-1 1,-1 1,-2 0,-1 0,-1 -1,-2 0,0 -1,0 -1,0l0 -3c-3,0 -5,-2 -6,-4 -1,-1 -2,-4 -2,-7 0,-3 1,-6 3,-8 2,-2 5,-3 8,-3 2,0 3,0 4,1 1,0 2,0 2,1 1,0 1,1 2,1 0,1 0,1 0,2 0,1 0,2 -1,2 0,1 -1,1 -2,1 -1,0 -2,0 -2,-1 -1,-1 -1,-1 -1,-2 0,-1 0,-1 0,-2 0,0 0,-1 1,-2 -1,0 -1,0 -1,0 -1,0 -2,0 -2,1 -1,0 -1,0 -2,1 0,1 -1,2 -1,3 -1,2 -1,3 -1,5 0,2 0,4 1,5 0,1 1,2 1,3 1,1 1,1 2,2 1,0 1,0 2,0 1,0 2,0 3,-1 1,0 2,-1 3,-2 0,0 0,1 0,1 -1,1 -1,2 -2,2 0,0 -1,1 -2,1 -1,0 -2,0 -4,0 0,0 -1,0 -2,0z"/>
  <path id="9" fill="url(#id9)" fill-rule="nonzero" d="M235 58c-1,0 -3,0 -5,0 -1,-1 -2,-2 -3,-3 -1,-1 -2,-2 -3,-3 0,-2 0,-3 0,-5 0,-2 0,-3 0,-4 1,-2 2,-3 3,-4 1,-1 2,-1 3,-2 2,0 3,-1 5,-1 1,0 2,0 3,1 1,0 2,0 3,1 1,0 2,1 2,1 1,1 1,2 1,3 0,1 0,2 -1,3 0,1 -1,1 -1,2 -1,0 -2,0 -3,1 -1,0 -2,0 -3,0 -1,0 -2,0 -3,0 -1,0 -2,0 -2,0 0,2 0,4 0,5 0,1 0,2 1,3 0,0 1,1 1,1 1,0 1,0 2,0 2,0 3,0 5,-1 1,0 2,-1 4,-2 0,0 -1,1 -1,1 0,1 -1,2 -1,2 -1,0 -2,1 -3,1 -1,0 -2,0 -4,0zm-4 -11c1,0 1,0 2,0 1,0 2,0 2,-1 1,0 1,-1 2,-1 0,-1 0,-2 0,-3 0,0 0,-1 0,-2 0,0 0,-1 0,-1 -1,-1 -1,-1 -1,-1 -1,-1 -1,-1 -2,-1 0,0 -1,0 -1,1 -1,0 -1,1 -1,1 -1,1 -1,2 -1,4 0,1 0,2 0,4z"/>
 </g>
</svg>
