

<!-- Creator: CorelDRAW X8 -->
<svg xmlns="http://www.w3.org/2000/svg" xml:space="preserve" width="84.0528mm" height="25mm" version="1.1" shape-rendering="geometricPrecision" text-rendering="geometricPrecision" image-rendering="optimizeQuality" fill-rule="evenodd" clip-rule="evenodd"
viewBox="0 0 388 115"
 xmlns:xlink="http://www.w3.org/1999/xlink">
 <defs>
    <linearGradient id="id0" gradientUnits="userSpaceOnUse" x1="178.388" y1="57.6275" x2="387.502" y2="57.6275">
     <stop offset="0" stop-opacity="1" stop-color="#E12429"/>
     <stop offset="1" stop-opacity="1" stop-color="#FECC07"/>
    </linearGradient>
    <linearGradient id="id1" gradientUnits="userSpaceOnUse" x1="178.388" y1="57.6275" x2="387.502" y2="57.6275">
     <stop offset="0" stop-opacity="1" stop-color="#E12429"/>
     <stop offset="1" stop-opacity="1" stop-color="#FECC07"/>
    </linearGradient>
    <linearGradient id="id2" gradientUnits="userSpaceOnUse" x1="178.388" y1="57.6275" x2="387.502" y2="57.6275">
     <stop offset="0" stop-opacity="1" stop-color="#E12429"/>
     <stop offset="1" stop-opacity="1" stop-color="#FECC07"/>
    </linearGradient>
    <linearGradient id="id3" gradientUnits="userSpaceOnUse" x1="178.388" y1="57.6275" x2="387.502" y2="57.6275">
     <stop offset="0" stop-opacity="1" stop-color="#E12429"/>
     <stop offset="1" stop-opacity="1" stop-color="#FECC07"/>
    </linearGradient>
    <linearGradient id="id4" gradientUnits="userSpaceOnUse" x1="178.388" y1="57.6275" x2="387.502" y2="57.6275">
     <stop offset="0" stop-opacity="1" stop-color="#E12429"/>
     <stop offset="1" stop-opacity="1" stop-color="#FECC07"/>
    </linearGradient>
    <linearGradient id="id5" gradientUnits="userSpaceOnUse" x1="178.388" y1="57.6275" x2="387.502" y2="57.6275">
     <stop offset="0" stop-opacity="1" stop-color="#E12429"/>
     <stop offset="1" stop-opacity="1" stop-color="#FECC07"/>
    </linearGradient>
    <linearGradient id="id6" gradientUnits="userSpaceOnUse" x1="178.388" y1="57.6275" x2="387.502" y2="57.6275">
     <stop offset="0" stop-opacity="1" stop-color="#E12429"/>
     <stop offset="1" stop-opacity="1" stop-color="#FECC07"/>
    </linearGradient>
    <linearGradient id="id7" gradientUnits="userSpaceOnUse" x1="-0" y1="48.6775" x2="157.353" y2="48.6775">
     <stop offset="0" stop-opacity="1" stop-color="#FECC07"/>
     <stop offset="1" stop-opacity="1" stop-color="black"/>
    </linearGradient>
    <linearGradient id="id8" gradientUnits="userSpaceOnUse" x1="-0" y1="62.612" x2="157.353" y2="62.612">
     <stop offset="0" stop-opacity="1" stop-color="#E12429"/>
     <stop offset="1" stop-opacity="1" stop-color="black"/>
    </linearGradient>
 </defs>
 <g id="Katman_x0020_1">
  <metadata id="CorelCorpID_0Corel-Layer"/>
  <g id="_2187321090944">
   <path fill="url(#id0)" fill-rule="nonzero" d="M194 70c1,0 2,0 2,-1 1,0 1,0 2,-1 0,0 0,0 1,-1 0,0 0,-1 0,-1l0 -12c0,0 0,0 0,0 0,0 -1,0 -1,0 0,0 -1,0 -1,0 0,0 -1,0 -1,0l0 -2 15 0 0 2c0,0 -1,0 -1,0 0,0 -1,0 -1,0 0,0 -1,0 -1,0 0,0 0,0 0,0l0 12c0,0 0,1 0,1 1,1 1,1 2,1 0,0 1,0 2,-1 0,0 1,-1 1,-1 0,1 0,1 0,2 -1,1 -1,1 -2,2 0,0 -1,0 -2,1 -1,0 -2,0 -2,0 -1,0 -2,0 -2,0 -1,0 -2,-1 -2,-1 -1,0 -1,-1 -2,-1 0,-1 -1,-1 -1,-2 -1,1 -2,3 -3,3 -1,1 -3,2 -5,2 -2,0 -3,-1 -5,-2 -2,0 -3,-2 -4,-3 -2,-2 -3,-4 -3,-6 -1,-2 -2,-5 -2,-8 0,-3 1,-6 2,-8 0,-2 1,-4 3,-6 1,-1 3,-3 5,-4 2,0 4,-1 7,-1 1,0 2,0 4,1 1,0 2,0 4,1 1,1 2,2 2,3 1,1 1,2 1,4 0,0 0,1 0,1 0,1 -1,1 -1,2 0,0 -1,0 -2,1 0,0 -1,0 -2,0 -1,0 -3,0 -3,-1 -1,-1 -2,-3 -2,-5 0,-1 1,-2 1,-3 0,-1 0,-2 1,-2 0,0 0,0 -1,0 0,0 0,0 0,0 0,0 0,0 -1,0 0,0 0,-1 0,-1 -1,0 -3,1 -4,1 0,1 -1,2 -2,3 -1,1 -1,2 -1,3 -1,2 -1,3 -1,4 0,1 -1,3 -1,4 0,1 0,2 0,3 0,4 1,6 1,8 0,2 1,4 2,5 0,2 1,2 2,3 1,1 1,1 2,1z"/>
   <path id="1" fill="url(#id1)" fill-rule="nonzero" d="M229 70c1,0 2,0 2,0 1,-1 1,-1 2,-2 0,-1 1,-2 1,-4 0,-1 0,-4 0,-6 0,-2 0,-5 0,-6 0,-2 -1,-3 -1,-4 -1,-1 -1,-1 -2,-2 0,0 -1,0 -2,0 0,0 -1,0 -1,0 -1,1 -1,1 -2,2 0,1 -1,2 -1,4 0,1 -1,4 -1,6 0,2 1,5 1,6 0,2 1,3 1,4 1,1 1,1 2,2 0,0 1,0 1,0zm0 -26c3,0 4,1 6,1 2,1 3,2 4,3 2,1 2,3 3,4 1,2 1,4 1,6 0,2 0,4 -1,6 -1,1 -1,3 -3,4 -1,1 -2,2 -4,3 -2,0 -3,1 -6,1 -2,0 -4,-1 -5,-1 -2,-1 -3,-2 -5,-3 -1,-1 -2,-3 -2,-4 -1,-2 -1,-4 -1,-6 0,-2 0,-4 1,-6 0,-1 1,-3 2,-4 2,-1 3,-2 5,-3 1,0 3,-1 5,-1zm-6 -6c0,-1 0,-2 0,-2 1,-1 2,-1 3,-1 0,0 1,0 2,1 0,0 0,1 0,2 0,0 0,1 0,2 -1,0 -2,0 -2,0 -1,0 -2,0 -3,0 0,-1 0,-2 0,-2zm8 0c0,-1 0,-2 1,-2 0,-1 1,-1 2,-1 0,0 1,0 2,1 0,0 0,1 0,2 0,1 0,1 0,2 -1,0 -2,0 -2,0 -1,0 -2,0 -2,0 -1,-1 -1,-1 -1,-2z"/>
   <path id="2" fill="url(#id2)" fill-rule="nonzero" d="M251 47c0,0 -1,0 -2,0 0,1 0,1 -1,2 0,0 0,1 0,2 0,1 0,2 0,2l-1 0 0 -8 23 0 0 2 -15 23 10 0c1,0 2,-1 2,-1 1,-1 1,-1 1,-2 0,0 1,-1 1,-2 0,-1 0,-2 0,-2l1 0 0 8 -24 0 0 -1 15 -23 -10 0z"/>
   <path id="3" fill="url(#id3)" fill-rule="nonzero" d="M280 35c1,0 2,0 3,0 0,0 1,1 2,1 0,0 1,1 1,2 0,0 0,1 0,2l0 5 8 0 0 2 -8 0 0 17c0,1 0,1 0,2 1,0 1,1 1,2 0,0 0,1 1,1 1,1 1,1 2,1 1,0 3,0 4,-1 1,-1 2,-2 4,-3 0,1 -1,1 -1,2 0,1 -1,1 -1,2 -1,0 -2,1 -3,1 -1,0 -3,1 -4,1 -4,0 -6,-1 -8,-2 -2,-2 -3,-3 -3,-6l0 -17 -3 0 0 -2 3 0 0 -5c0,-1 0,-1 0,-1 0,-1 -1,-1 -1,-1 0,0 -1,0 -1,1 -1,0 -2,0 -2,1 0,-1 0,-1 0,-2 1,-1 1,-1 2,-2 0,0 1,-1 2,-1 1,0 2,0 2,0z"/>
   <path id="4" fill="url(#id4)" fill-rule="nonzero" d="M313 72c-2,0 -4,-1 -6,-1 -2,-1 -3,-2 -5,-3 -1,-2 -2,-3 -2,-5 -1,-1 -1,-3 -1,-5 0,-2 0,-4 1,-6 0,-1 1,-3 2,-4 1,-1 3,-2 5,-3 1,0 3,-1 6,-1 1,0 2,1 3,1 1,0 3,1 4,1 1,1 2,1 3,2 0,1 1,3 1,4 0,1 -1,2 -1,3 -1,1 -1,1 -2,2 -1,1 -2,1 -4,1 -1,1 -2,1 -3,1 -1,0 -2,0 -4,0 -1,0 -2,0 -3,0 0,3 0,4 1,6 0,1 0,2 1,3 0,1 0,1 1,2 1,0 2,0 3,0 1,0 3,0 5,-1 2,-1 4,-2 5,-3 0,1 0,1 -1,2 0,1 -1,1 -2,2 0,0 -1,1 -3,1 -1,0 -2,1 -4,1zm-6 -14c1,0 2,0 3,0 1,0 2,-1 3,-1 1,-1 1,-1 2,-2 0,-1 0,-2 0,-3 0,-1 0,-2 0,-3 0,0 0,-1 -1,-1 0,-1 0,-1 -1,-2 0,0 -1,0 -1,0 -1,0 -1,0 -2,0 -1,1 -1,1 -1,2 -1,1 -1,3 -1,4 -1,2 -1,4 -1,6z"/>
   <path id="5" fill="url(#id5)" fill-rule="nonzero" d="M327 50c0,-1 1,-1 1,-2 0,0 1,-1 1,-1 1,-1 1,-1 2,-2 1,0 2,0 2,0 1,0 2,0 2,0 1,1 2,1 2,1 0,1 1,1 1,2 1,0 1,1 1,1 0,0 0,0 0,0 0,0 0,0 0,0 1,-1 2,-2 3,-3 1,-1 3,-2 5,-2 1,0 2,1 4,1 1,1 2,2 3,3 1,1 2,3 2,4 1,2 1,4 1,6 0,2 0,4 -1,6 0,2 -1,3 -2,4 -1,1 -2,2 -4,3 -1,0 -2,1 -4,1 -1,0 -2,-1 -3,-1 0,0 -1,0 -2,0 0,-1 0,-1 0,-1 -1,0 -1,0 -1,0l0 6c0,1 0,1 0,2 0,0 0,1 0,1 0,1 1,1 1,1 1,0 1,0 2,0l0 1 -14 0 0 -1c0,0 1,0 1,0 1,0 1,0 1,-1 1,0 1,-1 1,-1 0,-1 0,-1 0,-2l0 -26c0,0 0,-1 -1,-1 0,0 0,-1 -1,-1 0,0 0,1 -1,1 -1,0 -1,1 -2,1zm13 18c0,0 1,1 2,1 0,1 1,1 2,1 1,0 1,0 2,-1 0,0 1,0 1,-1 0,-1 1,-2 1,-4 0,-1 0,-3 0,-6 0,-2 0,-4 0,-6 0,-1 -1,-3 -1,-3 0,-1 -1,-2 -1,-2 -1,-1 -1,-1 -2,-1 0,0 -1,0 -1,1 -1,0 -1,0 -1,1 -1,0 -1,0 -1,1 -1,0 -1,1 -1,1l0 18z"/>
   <path id="6" fill="url(#id6)" fill-rule="nonzero" d="M377 72c-2,0 -4,-1 -6,-1 -2,-1 -4,-2 -5,-3 -1,-2 -2,-3 -3,-5 0,-1 -1,-3 -1,-5 0,-2 1,-4 1,-6 1,-1 2,-3 3,-4 1,-1 3,-2 5,-3 1,0 3,-1 6,-1 1,0 2,1 3,1 1,0 2,1 4,1 1,1 2,1 2,2 1,1 2,3 2,4 0,1 -1,2 -1,3 -1,1 -2,1 -3,2 0,1 -2,1 -3,1 -1,1 -2,1 -3,1 -1,0 -3,0 -4,0 -1,0 -2,0 -3,0 0,3 0,4 0,6 1,1 1,2 1,3 1,1 1,1 2,2 1,0 2,0 2,0 2,0 4,0 6,-1 2,-1 3,-2 5,-3 0,1 0,1 -1,2 0,1 -1,1 -2,2 -1,0 -2,1 -3,1 -1,0 -3,1 -4,1zm-6 -14c1,0 2,0 3,0 1,0 2,-1 3,-1 0,-1 1,-1 1,-2 1,-1 1,-2 1,-3 0,-1 0,-2 0,-3 0,0 0,-1 -1,-1 0,-1 0,-1 -1,-2 0,0 -1,0 -1,0 -1,0 -2,0 -2,0 -1,1 -1,1 -2,2 0,1 0,3 0,4 -1,2 -1,4 -1,6z"/>
   <rect fill="url(#id7)" y="43" width="157.353" height="11.3845" rx="9" ry="9"/>
   <rect fill="url(#id8)" y="57" width="157.353" height="11.3845" rx="9" ry="9"/>
  </g>
  <rect fill="none" width="388" height="115"/>
 </g>
</svg>
