

<!-- Creator: CorelDRAW X8 -->
<svg xmlns="http://www.w3.org/2000/svg" xml:space="preserve" width="87.277mm" height="25mm" version="1.1" shape-rendering="geometricPrecision" text-rendering="geometricPrecision" image-rendering="optimizeQuality" fill-rule="evenodd" clip-rule="evenodd"
viewBox="0 0 417 119"
 xmlns:xlink="http://www.w3.org/1999/xlink">
 <defs>
    <linearGradient id="id0" gradientUnits="userSpaceOnUse" x1="-0" y1="50.1908" x2="163.101" y2="50.1908">
     <stop offset="0" stop-opacity="1" stop-color="white"/>
     <stop offset="1" stop-opacity="1" stop-color="black"/>
    </linearGradient>
    <linearGradient id="id1" gradientUnits="userSpaceOnUse" x1="-0" y1="64.6342" x2="163.101" y2="64.6342">
     <stop offset="0" stop-opacity="1" stop-color="white"/>
     <stop offset="1" stop-opacity="1" stop-color="black"/>
    </linearGradient>
 </defs>
 <g id="Katman_x0020_1">
  <metadata id="CorelCorpID_0Corel-Layer"/>
  <g id="_2187318452544">
   <path fill="white" fill-rule="nonzero" d="M185 73l0 -1c1,0 1,0 2,0 0,0 0,0 1,-1 0,0 0,-1 0,-1 0,-1 0,-1 0,-2l0 -27c0,0 0,-1 0,-2 0,0 0,-1 0,-1 -1,0 -1,-1 -1,-1 -1,0 -1,0 -2,0l0 -1 14 0c3,0 5,0 7,1 2,0 4,1 5,2 1,1 2,2 3,3 0,1 1,2 1,3 0,2 -1,3 -1,4 -1,1 -2,2 -3,3 -1,0 -2,1 -4,1 -1,0 -2,1 -4,1 2,0 3,0 5,0 1,0 3,1 4,2 1,1 2,2 3,3 1,1 2,3 2,4 0,2 -1,3 -1,4 -1,1 -2,2 -3,3 -1,1 -3,2 -5,2 -2,1 -5,1 -8,1l-15 0zm15 -1c2,0 4,-1 5,-2 2,-2 3,-4 3,-7 0,-3 -1,-5 -3,-6 -1,-2 -3,-3 -5,-3l-3 0 0 18 3 0zm-1 -19c1,0 2,0 3,-1 0,0 1,-1 2,-1 0,-1 1,-2 1,-3 1,-1 1,-2 1,-3 0,-1 0,-2 -1,-3 0,-1 -1,-2 -1,-2 -1,-1 -2,-2 -2,-2 -1,0 -2,-1 -3,-1l-2 0 0 16 2 0z"/>
   <path id="1" fill="white" fill-rule="nonzero" d="M236 74c-2,0 -4,0 -6,-1 -2,-1 -3,-2 -5,-3 -1,-1 -2,-3 -2,-5 -1,-1 -1,-3 -1,-6 0,-2 0,-4 1,-5 0,-2 1,-3 2,-4 2,-2 3,-3 5,-3 2,-1 4,-1 6,-1 1,0 2,0 4,0 1,0 2,1 3,2 2,0 3,1 3,2 1,1 2,2 2,4 0,1 -1,2 -1,3 -1,1 -2,1 -3,2 -1,0 -2,1 -3,1 -1,0 -2,1 -4,1 -1,0 -2,0 -3,0 -1,0 -2,0 -3,0 0,3 0,4 0,6 0,1 0,2 1,3 0,1 1,2 2,2 0,0 1,0 2,0 2,0 4,0 6,-1 2,0 3,-2 5,-3 0,1 0,1 -1,2 0,1 -1,1 -2,2 -1,1 -2,1 -3,1 -1,1 -3,1 -5,1zm-5 -14c1,0 2,0 3,0 1,-1 2,-1 2,-1 1,-1 2,-2 2,-2 1,-1 1,-2 1,-4 0,0 0,-1 0,-2 -1,-1 -1,-1 -1,-2 0,-1 -1,-1 -1,-1 -1,-1 -1,-1 -2,-1 0,0 -1,0 -2,1 0,0 -1,1 -1,2 0,1 -1,2 -1,4 0,1 0,3 0,6z"/>
   <path id="2" fill="white" fill-rule="nonzero" d="M256 61c2,0 3,1 3,2 1,0 1,1 1,3 0,1 0,2 -1,3 0,0 0,0 0,0 0,0 0,1 0,1 0,0 0,1 1,1 0,0 0,0 1,1 0,0 1,0 1,0 1,0 1,0 2,0 1,0 2,0 3,-1 1,0 1,-1 1,-2 0,-1 0,-2 0,-2 0,0 0,-1 -1,-1 0,-1 -1,-1 -2,-2 0,0 -1,0 -2,-1 -2,-1 -4,-2 -5,-3 -1,0 -2,-1 -3,-2 -1,-1 -1,-1 -1,-2 -1,-1 -1,-2 -1,-2 0,-2 0,-3 1,-4 0,-1 1,-1 2,-2 1,-1 2,-1 4,-2 1,0 3,0 4,0 2,0 3,0 5,0 1,1 3,1 4,2 1,0 2,1 2,2 1,1 1,2 1,3 0,2 0,3 -1,3 -1,1 -2,2 -3,2 -1,0 -2,-1 -3,-1 0,-1 -1,-2 -1,-3 0,-1 0,-2 1,-2 0,-1 0,-1 0,-2 1,0 1,-1 1,-1 0,0 -1,0 -1,-1 -1,-1 -2,-1 -3,-1 -1,0 -2,1 -3,1 -1,1 -1,2 -1,3 0,1 0,1 0,2 1,0 1,1 2,1 0,1 1,1 1,1 1,1 1,1 2,1 2,1 3,2 5,3 1,1 2,2 3,3 1,0 1,1 2,2 0,1 0,1 0,2 0,1 0,3 -1,4 -1,1 -2,2 -4,2 -1,1 -3,1 -4,1 -2,1 -3,1 -4,1l0 2c0,0 1,0 2,0 0,0 1,0 1,1 1,0 1,0 1,1 1,0 1,1 1,2 0,0 0,1 -1,2 0,0 0,1 -1,1 -1,0 -1,0 -2,1 -1,0 -1,0 -2,0 0,0 -1,0 -1,0 -1,0 -1,0 -2,-1l0 -1c1,0 1,0 1,0 1,0 1,0 1,0 1,0 2,0 2,0 1,-1 1,-1 1,-2 0,-1 0,-2 -1,-2 0,-1 -1,-1 -2,-1l0 -3c-1,0 -2,-1 -3,-1 -2,0 -3,-1 -4,-1 -1,-1 -1,-2 -2,-3 -1,-1 -1,-2 -1,-3 0,-1 0,-3 1,-3 1,-1 2,-2 3,-2z"/>
   <path id="3" fill="white" fill-rule="nonzero" d="M284 50c0,0 -1,0 -1,0 -1,1 -2,1 -2,2 0,-1 0,-2 0,-2 1,-1 1,-1 2,-2 0,0 1,-1 2,-1 1,0 2,-1 3,-1 0,0 1,0 2,1 1,0 1,0 2,1 0,0 1,1 1,1 1,1 1,2 1,3l0 16c0,1 0,1 0,2 0,0 0,1 0,1 0,1 1,1 1,1 1,0 1,0 2,0l0 1 -15 0 0 -1c1,0 2,0 2,0 0,0 1,0 1,-1 0,0 0,-1 0,-1 0,-1 0,-1 0,-2l0 -16c0,-1 0,-1 0,-2 0,0 -1,0 -1,0zm2 -11c0,-1 0,-2 1,-2 1,-1 1,-1 2,-1 1,0 2,0 2,1 1,0 1,1 1,2 0,1 0,1 -1,2 0,0 -1,1 -2,1 -1,0 -1,-1 -2,-1 -1,-1 -1,-1 -1,-2z"/>
   <path id="4" fill="white" fill-rule="nonzero" d="M299 41c0,-1 0,-1 0,-2 1,0 1,-1 2,-2 0,0 1,0 2,-1 1,0 2,0 3,0 0,0 1,0 2,0 1,0 1,1 2,1 0,1 1,1 1,2 1,0 1,1 1,2l0 18 9 -10c1,0 1,0 1,-1 0,0 -1,0 -1,0 -1,-1 -1,-1 -2,-1l0 0 8 0 0 0c-1,0 -1,1 -2,1 -1,0 -1,1 -2,1l-5 6 8 13c1,1 1,2 2,2 0,0 1,0 1,-1 1,0 1,0 2,-1 0,1 -1,2 -1,2 0,1 -1,1 -2,2 0,0 -1,1 -2,1 -1,0 -2,0 -3,0 -1,0 -2,0 -3,-1 -2,-1 -3,-2 -4,-3l-4 -8 0 7c0,1 0,1 0,2 0,0 0,1 0,1 0,1 1,1 1,1 1,0 1,0 2,0l0 1 -15 0 0 -1c1,0 2,0 2,0 0,0 1,0 1,-1 0,0 0,-1 0,-1 0,-1 0,-1 0,-2l0 -27c0,-1 0,-1 0,-1 0,-1 -1,-1 -1,-1 0,0 -1,0 -2,1 0,0 -1,1 -1,1z"/>
   <path id="5" fill="white" fill-rule="nonzero" d="M338 36c0,0 1,0 2,0 1,0 1,1 2,1 0,1 1,1 1,2 1,0 1,1 1,2l0 6 8 0 0 1 -8 0 0 18c0,1 0,1 0,2 0,1 0,1 0,2 0,1 1,1 1,2 1,0 2,0 3,0 1,0 2,0 3,-1 2,-1 3,-2 4,-3 0,1 0,1 0,2 -1,1 -1,1 -2,2 -1,1 -1,1 -3,1 -1,1 -2,1 -4,1 -3,0 -6,-1 -8,-2 -2,-1 -3,-3 -3,-6l0 -18 -3 0 0 -1 3 0 0 -6c0,-1 0,-1 0,-1 0,-1 -1,-1 -1,-1 -1,0 -1,0 -2,1 0,0 -1,1 -1,1 0,-1 0,-1 0,-2 1,0 1,-1 2,-2 0,0 1,0 2,-1 1,0 2,0 3,0z"/>
   <path id="6" fill="white" fill-rule="nonzero" d="M359 66c0,-1 0,-3 1,-4 1,-1 2,-2 4,-2 1,-1 3,-1 5,-1 1,0 3,0 4,0 1,0 1,0 1,0 1,0 1,0 1,0l0 -2c0,-2 0,-4 0,-5 0,-1 -1,-2 -1,-3 -1,-1 -1,-1 -2,-2 -1,0 -1,0 -2,0 -1,0 -2,0 -2,0 0,1 0,2 1,2 0,1 0,2 0,2 0,2 -1,3 -1,3 -1,1 -2,2 -3,2 -1,0 -2,-1 -3,-2 -1,0 -1,-1 -1,-2 0,-1 0,-2 0,-2 1,-1 1,-2 2,-2 1,-1 2,-1 3,-2 1,0 3,0 5,0 2,0 4,0 5,1 2,0 3,1 4,2 2,1 2,2 3,4 1,1 1,3 1,4l0 11c0,0 0,1 0,1 1,1 1,1 1,1 1,0 1,0 2,-1 0,0 1,0 1,-1 0,1 0,1 0,2 -1,1 -1,1 -2,2 0,0 -1,1 -2,1 0,0 -1,0 -2,0 -1,0 -3,0 -4,-1 -1,-1 -1,-2 -2,-3 -1,2 -2,3 -3,4 -1,0 -3,1 -4,1 -4,0 -6,-1 -8,-2 -2,-2 -2,-3 -2,-6zm12 6c0,0 1,0 1,0 1,-1 1,-1 2,-2 0,0 0,0 1,-1 0,0 0,-1 0,-1l0 -8c0,0 -1,0 -2,0 -1,0 -1,0 -1,0 -2,0 -3,1 -3,2 -1,2 -1,3 -1,5 0,2 0,3 0,4 1,1 2,1 3,1z"/>
   <path id="7" fill="white" fill-rule="nonzero" d="M396 61c2,0 3,1 3,2 1,0 1,1 1,3 0,1 0,2 -1,3 0,0 0,0 0,0 0,0 0,1 0,1 0,0 0,1 1,1 0,0 0,0 1,1 0,0 1,0 1,0 1,0 1,0 2,0 1,0 2,0 3,-1 1,0 1,-1 1,-2 0,-1 0,-2 0,-2 0,0 0,-1 -1,-1 0,-1 -1,-1 -2,-2 0,0 -1,0 -2,-1 -2,-1 -4,-2 -5,-3 -1,0 -2,-1 -3,-2 -1,-1 -1,-1 -1,-2 -1,-1 -1,-2 -1,-2 0,-2 0,-3 1,-4 0,-1 1,-1 2,-2 1,-1 2,-1 4,-2 1,0 3,0 4,0 2,0 4,0 5,0 1,1 3,1 4,2 1,0 2,1 2,2 1,1 1,2 1,3 0,2 0,3 -1,3 -1,1 -1,2 -3,2 -1,0 -2,-1 -3,-1 0,-1 -1,-2 -1,-3 0,-1 0,-2 1,-2 0,-1 0,-1 0,-2 1,0 1,-1 1,-1 0,0 -1,0 -1,-1 -1,-1 -2,-1 -3,-1 -1,0 -2,1 -3,1 -1,1 -1,2 -1,3 0,1 0,1 0,2 1,0 1,1 2,1 0,1 1,1 1,1 1,1 1,1 2,1 2,1 3,2 5,3 1,1 2,2 3,3 1,0 1,1 2,2 0,1 0,1 0,2 0,1 0,3 -1,4 -1,1 -2,2 -4,2 -1,1 -3,1 -4,1 -2,1 -3,1 -4,1l0 2c1,0 1,0 2,0 0,0 1,0 1,1 1,0 1,0 2,1 0,0 0,1 0,2 0,0 0,1 -1,2 0,0 0,1 -1,1 -1,0 -1,0 -2,1 -1,0 -1,0 -2,0 0,0 -1,0 -1,0 -1,0 -1,0 -2,-1l0 -1c1,0 1,0 1,0 1,0 1,0 1,0 1,0 2,0 2,0 1,-1 1,-1 1,-2 0,-1 0,-2 -1,-2 0,-1 -1,-1 -2,-1l0 -3c-1,0 -2,-1 -3,-1 -2,0 -3,-1 -4,-1 -1,-1 -1,-2 -2,-3 -1,-1 -1,-2 -1,-3 0,-1 0,-3 1,-3 1,-1 2,-2 3,-2z"/>
   <rect fill="url(#id0)" y="44" width="163.101" height="11.8003" rx="10" ry="10"/>
   <rect fill="url(#id1)" y="59" width="163.101" height="11.8003" rx="10" ry="10"/>
  </g>
  <rect fill="none" width="417" height="119"/>
 </g>
</svg>
