

<!-- Creator: CorelDRAW X8 -->
<svg xmlns="http://www.w3.org/2000/svg" xml:space="preserve" width="108.282mm" height="25mm" version="1.1" shape-rendering="geometricPrecision" text-rendering="geometricPrecision" image-rendering="optimizeQuality" fill-rule="evenodd" clip-rule="evenodd"
viewBox="0 0 635 147"
 xmlns:xlink="http://www.w3.org/1999/xlink">
 <defs>
    <linearGradient id="id0" gradientUnits="userSpaceOnUse" x1="222.962" y1="73.2658" x2="633.251" y2="73.2658">
     <stop offset="0" stop-opacity="1" stop-color="#DDCD0B"/>
     <stop offset="1" stop-opacity="1" stop-color="#2F2D5A"/>
    </linearGradient>
    <linearGradient id="id1" gradientUnits="userSpaceOnUse" x1="222.962" y1="73.2658" x2="633.251" y2="73.2658">
     <stop offset="0" stop-opacity="1" stop-color="#DDCD0B"/>
     <stop offset="1" stop-opacity="1" stop-color="#2F2D5A"/>
    </linearGradient>
    <linearGradient id="id2" gradientUnits="userSpaceOnUse" x1="222.962" y1="73.2658" x2="633.251" y2="73.2658">
     <stop offset="0" stop-opacity="1" stop-color="#DDCD0B"/>
     <stop offset="1" stop-opacity="1" stop-color="#2F2D5A"/>
    </linearGradient>
    <linearGradient id="id3" gradientUnits="userSpaceOnUse" x1="222.962" y1="73.2658" x2="633.251" y2="73.2658">
     <stop offset="0" stop-opacity="1" stop-color="#DDCD0B"/>
     <stop offset="1" stop-opacity="1" stop-color="#2F2D5A"/>
    </linearGradient>
    <linearGradient id="id4" gradientUnits="userSpaceOnUse" x1="222.962" y1="73.2658" x2="633.251" y2="73.2658">
     <stop offset="0" stop-opacity="1" stop-color="#DDCD0B"/>
     <stop offset="1" stop-opacity="1" stop-color="#2F2D5A"/>
    </linearGradient>
    <linearGradient id="id5" gradientUnits="userSpaceOnUse" x1="222.962" y1="73.2658" x2="633.251" y2="73.2658">
     <stop offset="0" stop-opacity="1" stop-color="#DDCD0B"/>
     <stop offset="1" stop-opacity="1" stop-color="#2F2D5A"/>
    </linearGradient>
    <linearGradient id="id6" gradientUnits="userSpaceOnUse" x1="222.962" y1="73.2658" x2="633.251" y2="73.2658">
     <stop offset="0" stop-opacity="1" stop-color="#DDCD0B"/>
     <stop offset="1" stop-opacity="1" stop-color="#2F2D5A"/>
    </linearGradient>
    <linearGradient id="id7" gradientUnits="userSpaceOnUse" x1="222.962" y1="73.2658" x2="633.251" y2="73.2658">
     <stop offset="0" stop-opacity="1" stop-color="#DDCD0B"/>
     <stop offset="1" stop-opacity="1" stop-color="#2F2D5A"/>
    </linearGradient>
    <linearGradient id="id8" gradientUnits="userSpaceOnUse" x1="222.962" y1="73.2658" x2="633.251" y2="73.2658">
     <stop offset="0" stop-opacity="1" stop-color="#DDCD0B"/>
     <stop offset="1" stop-opacity="1" stop-color="#2F2D5A"/>
    </linearGradient>
    <linearGradient id="id9" gradientUnits="userSpaceOnUse" x1="222.962" y1="73.2658" x2="633.251" y2="73.2658">
     <stop offset="0" stop-opacity="1" stop-color="#DDCD0B"/>
     <stop offset="1" stop-opacity="1" stop-color="#2F2D5A"/>
    </linearGradient>
    <linearGradient id="id10" gradientUnits="userSpaceOnUse" x1="1.42488" y1="61.0754" x2="201.479" y2="61.0754">
     <stop offset="0" stop-opacity="1" stop-color="#FAE80D"/>
     <stop offset="1" stop-opacity="1" stop-color="black"/>
    </linearGradient>
    <linearGradient id="id11" gradientUnits="userSpaceOnUse" x1="1.42488" y1="78.7912" x2="201.479" y2="78.7912">
     <stop offset="0" stop-opacity="1" stop-color="#373569"/>
     <stop offset="1" stop-opacity="1" stop-color="black"/>
    </linearGradient>
 </defs>
 <g id="Katman_x0020_1">
  <metadata id="CorelCorpID_0Corel-Layer"/>
  <g id="_2222488169296">
   <path fill="url(#id0)" fill-rule="nonzero" d="M233 88l0 1 -10 0 0 -1c1,0 2,0 3,0 1,-1 1,-1 1,-2l18 -43 2 0 17 41c0,0 0,1 0,1 1,0 1,0 1,0 1,0 2,0 3,-1 0,0 1,-1 1,-1 0,1 0,2 0,3 -1,0 -2,1 -2,2 -1,0 -2,1 -3,1 -1,0 -2,1 -3,1 -2,0 -3,-1 -4,-1 -1,0 -1,-1 -2,-1 -1,-1 -1,-2 -2,-2 0,-1 0,-2 -1,-2l-3 -8 -16 0 -4 10c0,1 0,1 0,1 0,0 0,1 1,1 1,0 2,0 3,0zm1 -14l14 0 -7 -17 -7 17z"/>
   <path id="1" fill="url(#id1)" fill-rule="nonzero" d="M274 61c-1,0 -2,0 -2,0 -1,1 -2,1 -2,2 0,-1 0,-2 0,-2 1,-1 1,-2 2,-3 1,0 2,-1 3,-1 1,0 2,-1 3,-1 2,0 3,1 4,1 2,1 3,2 3,4 1,-2 3,-3 4,-4 2,-1 3,-1 5,-1 2,0 4,0 5,1 2,0 3,1 4,2 1,1 2,2 3,3 0,2 1,3 1,4l0 17c0,1 0,1 0,2 1,0 1,0 1,0 1,0 1,0 2,0 1,-1 2,-1 2,-2 0,1 0,2 0,2 -1,1 -1,2 -2,2 -1,1 -2,2 -3,2 -1,0 -2,1 -3,1 -1,0 -2,-1 -3,-1 -1,0 -2,-1 -2,-1 -1,-1 -2,-2 -2,-2 0,-1 -1,-2 -1,-3l0 -17c0,-1 0,-2 0,-3 0,-1 -1,-2 -1,-3 -1,-1 -1,-1 -2,-2 -1,0 -1,0 -2,0 0,0 -1,0 -2,0 0,1 -1,1 -1,2 -1,0 -1,1 -1,1 -1,1 -1,2 -1,2l0 20c0,1 0,1 0,2 0,1 0,1 0,2 0,0 1,1 1,1 1,0 2,0 3,0l0 1 -19 0 0 -1c1,0 2,0 3,0 0,0 1,-1 1,-1 0,-1 0,-1 0,-2 0,-1 0,-1 0,-2l0 -20c0,-1 0,-2 0,-2 -1,0 -1,0 -1,0z"/>
   <path id="2" fill="url(#id2)" fill-rule="nonzero" d="M313 50c0,-1 0,-2 0,-2 1,-1 1,-2 2,-3 1,0 2,-1 3,-1 1,0 2,-1 3,-1 1,0 2,1 3,1 1,0 2,0 2,1 1,1 2,1 2,2 0,1 1,2 1,3l0 22 11 -12c1,0 1,-1 1,-1 0,-1 -1,-1 -1,-1 -1,0 -2,0 -3,0l0 -1 11 0 0 1c-1,0 -2,0 -3,0 -1,1 -2,1 -2,2l-7 7 10 16c1,1 2,2 2,2 1,0 2,0 2,-1 1,0 1,0 2,-1 0,1 -1,2 -1,3 0,0 -1,1 -2,2 -1,0 -2,1 -3,1 -1,0 -2,1 -3,1 -2,0 -4,-1 -5,-2 -1,-1 -2,-2 -4,-4l-5 -9 0 8c0,1 0,1 0,2 0,1 0,1 0,2 0,0 1,1 1,1 1,0 2,0 3,0l0 1 -19 0 0 -1c1,0 2,0 3,0 0,0 1,-1 1,-1 0,-1 0,-1 0,-2 0,-1 0,-1 0,-2l0 -33c0,-1 0,-2 0,-2 -1,0 -1,0 -1,0 -1,0 -2,0 -2,0 -1,1 -2,1 -2,2z"/>
   <path id="3" fill="url(#id3)" fill-rule="nonzero" d="M356 81c0,-2 1,-4 2,-5 1,-1 3,-2 4,-3 2,-1 4,-1 6,-1 2,0 4,0 6,0 0,0 1,0 1,0 1,0 1,0 2,0l0 -2c0,-3 0,-5 -1,-7 0,-1 -1,-3 -1,-4 -1,0 -2,-1 -2,-1 -1,-1 -2,-1 -3,-1 -1,0 -2,0 -3,0 1,1 1,2 1,3 0,1 1,2 1,2 0,2 -1,3 -2,4 -1,1 -2,2 -3,2 -2,0 -3,-1 -4,-2 -1,-1 -1,-2 -1,-3 0,-1 0,-2 0,-3 1,-1 2,-1 3,-2 1,-1 2,-1 3,-2 2,0 4,0 6,0 2,0 5,0 7,1 2,0 3,1 5,3 1,1 2,2 3,4 1,2 1,4 1,6l0 13c0,0 0,1 1,2 0,0 0,0 1,0 0,0 1,0 1,0 1,-1 2,-1 3,-2 0,1 -1,2 -1,2 -1,1 -1,2 -2,2 -1,1 -1,2 -2,2 -1,0 -2,1 -3,1 -2,0 -3,-1 -5,-2 -1,-1 -2,-2 -2,-4 -1,2 -3,3 -4,5 -2,1 -4,1 -6,1 -4,0 -7,-1 -9,-2 -2,-2 -3,-4 -3,-7zm15 7c0,0 1,0 2,-1 0,0 1,-1 1,-1 1,-1 1,-1 2,-2 0,0 0,-1 1,-1l0 -10c-1,0 -2,0 -3,0 -1,0 -2,0 -2,0 -2,1 -3,2 -4,3 -1,2 -1,4 -1,6 0,2 0,4 1,5 1,0 2,1 3,1z"/>
   <path id="4" fill="url(#id4)" fill-rule="nonzero" d="M398 61c-1,0 -2,0 -2,0 -1,1 -2,1 -2,2 0,-1 0,-2 0,-2 1,-1 1,-2 2,-3 1,0 2,-1 3,-1 1,0 2,-1 3,-1 2,0 3,1 5,2 1,0 2,1 2,3 1,-1 3,-3 4,-3 2,-1 4,-2 5,-2 1,0 2,1 3,1 1,0 2,1 3,1 0,1 1,1 1,2 1,1 1,2 1,3 0,1 -1,2 -2,3 -1,1 -2,2 -3,2 -1,0 -2,0 -2,-1 -1,0 -2,-1 -2,-1 0,-1 -1,-1 -1,-2 0,0 0,-1 0,-2 0,-1 0,-1 0,-2 1,-1 1,-2 1,-2 0,0 -1,0 -2,1 -1,0 -1,0 -2,1 -1,1 -1,1 -2,2 -1,0 -1,1 -1,2l0 19c0,1 0,1 0,2 0,1 0,1 0,2 0,0 1,1 1,1 1,0 2,0 2,0l0 1 -18 0 0 -1c1,0 2,0 3,0 0,0 0,-1 1,-1 0,-1 0,-1 0,-2 0,-1 0,-1 0,-2l0 -20c0,-1 0,-2 0,-2 -1,0 -1,0 -1,0z"/>
   <path id="5" fill="url(#id5)" fill-rule="nonzero" d="M428 81c0,-2 1,-4 2,-5 1,-1 3,-2 5,-3 2,-1 4,-1 6,-1 2,0 4,0 5,0 1,0 1,0 2,0 0,0 1,0 1,0l0 -2c0,-3 0,-5 0,-7 -1,-1 -1,-3 -2,-4 0,0 -1,-1 -2,-1 -1,-1 -2,-1 -3,-1 -1,0 -2,0 -2,0 0,1 0,2 1,3 0,1 0,2 0,2 0,2 -1,3 -1,4 -1,1 -3,2 -4,2 -1,0 -3,-1 -3,-2 -1,-1 -2,-2 -2,-3 0,-1 0,-2 1,-3 0,-1 1,-1 2,-2 1,-1 2,-1 4,-2 1,0 3,0 5,0 3,0 5,0 7,1 2,0 4,1 5,3 2,1 3,2 3,4 1,2 1,4 1,6l0 13c0,0 1,1 1,2 0,0 1,0 1,0 1,0 1,0 2,0 1,-1 1,-1 2,-2 0,1 0,2 -1,2 0,1 -1,2 -1,2 -1,1 -2,2 -3,2 -1,0 -2,1 -3,1 -2,0 -3,-1 -4,-2 -2,-1 -2,-2 -3,-4 -1,2 -2,3 -4,5 -1,1 -3,1 -5,1 -4,0 -8,-1 -10,-2 -2,-2 -3,-4 -3,-7zm15 7c1,0 2,0 2,-1 1,0 1,-1 2,-1 0,-1 1,-1 1,-2 1,0 1,-1 1,-1l0 -10c-1,0 -2,0 -3,0 -1,0 -1,0 -2,0 -1,1 -2,2 -3,3 -1,2 -2,4 -2,6 0,2 1,4 2,5 0,0 1,1 2,1z"/>
   <path id="6" fill="url(#id6)" fill-rule="nonzero" d="M469 96c0,-2 0,-3 1,-4 1,-1 2,-1 3,-1 2,0 3,0 4,1 1,1 1,3 1,4 0,1 0,2 0,2 -1,1 -1,2 -2,2 1,1 2,1 3,1 1,0 3,0 4,0 3,0 6,0 8,0 2,-1 4,-1 5,-2 2,-1 3,-2 3,-3 1,-1 1,-1 1,-2 0,-1 0,-2 -1,-3 -2,-1 -4,-1 -7,-1l-12 0c-2,0 -4,0 -5,0 -1,-1 -2,-1 -3,-2 -1,-1 -1,-2 -2,-2 0,-1 0,-2 0,-3 0,-1 0,-2 0,-3 0,-1 1,-1 2,-2 0,0 1,-1 1,-1 1,-1 2,-1 3,-1 -2,-1 -3,-3 -4,-4 0,-1 -1,-3 -1,-5 0,-3 1,-5 4,-8 2,-2 6,-3 10,-3 3,0 5,1 6,1 2,0 4,1 5,2 0,-1 0,-2 0,-3 1,-1 1,-1 2,-2 1,-1 1,-1 2,-2 1,0 2,0 3,0 1,0 2,0 3,1 0,0 1,1 1,3 0,0 0,1 -1,2 0,0 -1,0 -1,0 -1,0 -2,0 -2,0 -1,-1 -1,-2 -1,-2 0,-1 0,-1 0,-2 1,0 1,0 1,-1 -1,1 -1,1 -2,1 0,0 -1,0 -1,1 -1,0 -1,1 -2,2 0,0 -1,1 -1,3 1,1 2,2 2,3 1,1 1,3 1,4 0,3 -1,6 -4,8 -2,2 -6,3 -11,3 -1,0 -3,0 -4,-1 -1,0 -2,0 -3,-1 -1,1 -2,1 -2,1 -1,1 -2,1 -2,2 0,0 1,0 1,1 0,0 0,0 1,0 0,0 0,1 1,1 1,0 2,0 3,0l12 0c3,0 6,1 8,3 2,1 3,4 3,7 0,2 0,3 -1,5 -1,1 -2,3 -4,4 -1,1 -3,2 -5,2 -3,1 -5,1 -9,1 -1,0 -3,0 -4,0 -2,0 -4,-1 -5,-1 -2,-1 -3,-1 -5,-2 -1,-1 -1,-3 -1,-4zm12 -29c0,2 0,3 0,5 1,1 1,2 1,2 1,1 1,2 2,2 0,0 1,0 2,0 0,0 1,0 1,0 1,0 2,-1 2,-2 0,0 1,-1 1,-2 0,-2 0,-3 0,-5 0,-2 0,-3 0,-4 0,-2 -1,-3 -1,-3 0,-1 -1,-1 -2,-2 0,0 -1,0 -1,0 -1,0 -2,0 -2,0 -1,1 -1,1 -2,2 0,0 0,1 -1,3 0,1 0,2 0,4z"/>
   <path id="7" fill="url(#id7)" fill-rule="nonzero" d="M514 61c-1,0 -2,0 -2,0 -1,1 -2,1 -2,2 0,-1 0,-2 0,-2 1,-1 1,-2 2,-3 1,0 2,-1 3,-1 1,0 2,-1 3,-1 1,0 2,1 3,1 1,0 1,1 2,1 1,1 1,1 2,2 0,1 1,2 1,3l0 16c0,2 0,3 0,4 0,1 1,2 1,3 1,1 1,1 2,1 0,1 1,1 2,1 0,0 1,0 2,-1 0,0 1,0 1,-1 1,0 1,-1 1,-2 1,0 1,-1 1,-1l0 -20c0,-1 0,-1 0,-2 -1,0 -1,0 -1,0 -1,0 -1,0 -2,0 -1,1 -2,1 -2,2 0,-1 0,-2 0,-2 1,-1 2,-2 2,-3 1,0 2,-1 3,-1 1,0 2,-1 3,-1 1,0 2,1 3,1 1,0 2,1 2,1 1,1 2,1 2,2 0,1 1,2 1,3l0 20c0,1 0,1 0,2 0,0 1,0 1,0 1,0 1,0 2,0 1,-1 2,-1 2,-2 0,1 0,2 0,2 -1,1 -2,2 -2,2 -1,1 -2,2 -3,2 -1,0 -2,1 -3,1 -2,0 -3,-1 -4,-2 -2,0 -3,-1 -3,-3 -1,2 -3,3 -4,4 -2,1 -4,1 -5,1 -2,0 -4,0 -5,-1 -2,0 -3,-1 -4,-2 -1,-1 -2,-2 -3,-4 -1,-1 -1,-2 -1,-4l0 -16c0,-1 0,-1 0,-2 -1,0 -1,0 -1,0zm8 -14c0,-1 0,-2 1,-2 1,-1 2,-1 3,-1 1,0 1,0 2,1 1,0 1,1 1,2 0,1 0,2 -1,3 -1,0 -1,1 -2,1 -1,0 -2,-1 -3,-1 -1,-1 -1,-2 -1,-3zm10 0c0,-1 1,-2 1,-2 1,-1 2,-1 3,-1 1,0 2,0 2,1 1,0 1,1 1,2 0,1 0,2 -1,3 0,0 -1,1 -2,1 -1,0 -2,-1 -3,-1 0,-1 -1,-2 -1,-3z"/>
   <path id="8" fill="url(#id8)" fill-rule="nonzero" d="M574 56c3,0 4,0 6,0 1,1 3,1 4,2 0,1 1,1 2,2 0,1 0,2 0,3 0,1 0,2 -1,3 -1,1 -2,2 -4,2 -1,0 -2,-1 -3,-2 -1,-1 -2,-2 -2,-4 0,0 1,-1 1,-2 0,-1 0,-2 1,-3 -1,0 -1,0 -2,0 -1,0 -2,0 -3,1 -1,0 -1,1 -2,2 -1,1 -2,3 -2,5 -1,2 -1,5 -1,8 0,3 0,5 1,7 0,2 1,4 2,5 1,1 2,2 3,3 1,0 2,0 2,0 2,0 4,0 5,-1 2,-1 4,-2 5,-4 0,1 0,2 0,3 -1,0 -1,1 -2,2 -1,1 -3,1 -4,2 -2,0 -4,0 -6,0 -5,0 -10,-1 -13,-4 -3,-3 -4,-8 -4,-13 0,-5 1,-10 4,-13 3,-3 8,-4 13,-4z"/>
   <path id="9" fill="url(#id9)" fill-rule="nonzero" d="M595 61c-1,0 -2,0 -2,0 -1,1 -2,1 -2,2 0,-1 0,-2 0,-2 1,-1 1,-2 2,-3 1,0 2,-1 3,-1 1,0 2,-1 3,-1 1,0 2,1 3,1 1,0 2,1 2,1 1,1 2,1 2,2 0,1 1,2 1,3l0 16c0,2 0,3 0,4 0,1 1,2 1,3 1,1 1,1 2,1 0,1 1,1 2,1 0,0 1,0 2,-1 0,0 1,0 1,-1 1,0 1,-1 1,-2 1,0 1,-1 1,-1l0 -20c0,-1 0,-1 0,-2 0,0 -1,0 -1,0 -1,0 -1,0 -2,0 -1,1 -1,1 -2,2 0,-1 0,-2 1,-2 0,-1 1,-2 1,-3 1,0 2,-1 3,-1 1,0 2,-1 3,-1 1,0 2,1 3,1 1,0 2,1 2,1 1,1 2,1 2,2 1,1 1,2 1,3l0 20c0,1 0,1 0,2 0,0 1,0 1,0 1,0 1,0 2,0 1,-1 2,-1 2,-2 0,1 0,2 0,2 -1,1 -1,2 -2,2 -1,1 -2,2 -3,2 -1,0 -2,1 -3,1 -2,0 -3,-1 -4,-2 -2,0 -3,-1 -3,-3 -1,2 -3,3 -4,4 -2,1 -3,1 -5,1 -2,0 -4,0 -5,-1 -2,0 -3,-1 -4,-2 -1,-1 -2,-2 -3,-4 0,-1 -1,-2 -1,-4l0 -16c0,-1 0,-1 0,-2 -1,0 -1,0 -1,0zm8 -14c0,-1 0,-2 1,-2 1,-1 2,-1 3,-1 1,0 1,0 2,1 1,0 1,1 1,2 0,1 0,2 -1,3 -1,0 -1,1 -2,1 -1,0 -2,-1 -3,-1 -1,-1 -1,-2 -1,-3zm10 0c0,-1 1,-2 1,-2 1,-1 2,-1 3,-1 1,0 2,0 3,1 0,0 1,1 1,2 0,1 -1,2 -1,3 -1,0 -2,1 -3,1 -1,0 -2,-1 -3,-1 0,-1 -1,-2 -1,-3z"/>
   <rect fill="url(#id10)" x="1" y="54" width="200.054" height="14.4739" rx="12" ry="12"/>
   <rect fill="url(#id11)" x="1" y="72" width="200.054" height="14.4739" rx="12" ry="12"/>
  </g>
  <rect fill="none" width="635" height="147"/>
 </g>
</svg>
