

<!-- Creator: CorelDRAW X8 -->
<svg xmlns="http://www.w3.org/2000/svg" xml:space="preserve" x="0" y="0" width="55.0312mm" height="25mm" version="1.1" shape-rendering="geometricPrecision" text-rendering="geometricPrecision" image-rendering="optimizeQuality" fill-rule="evenodd" clip-rule="evenodd"
viewBox="0 0 179 81"
 xmlns:xlink="http://www.w3.org/1999/xlink">
 <defs>
   <linearGradient id="id0" gradientUnits="userSpaceOnUse" x1="-3.09256e-05" y1="40.6918" x2="179.145" y2="40.6918">
    <stop offset="0" stop-opacity="1" stop-color="#724685"/>
    <stop offset="1" stop-opacity="1" stop-color="#FEFEFE"/>
   </linearGradient>
   <linearGradient id="id1" gradientUnits="userSpaceOnUse" x1="-3.09256e-05" y1="40.6918" x2="179.145" y2="40.6918">
    <stop offset="0" stop-opacity="1" stop-color="#724685"/>
    <stop offset="1" stop-opacity="1" stop-color="#FEFEFE"/>
   </linearGradient>
   <linearGradient id="id2" gradientUnits="userSpaceOnUse" x1="-3.09256e-05" y1="40.6918" x2="179.145" y2="40.6918">
    <stop offset="0" stop-opacity="1" stop-color="#724685"/>
    <stop offset="1" stop-opacity="1" stop-color="#FEFEFE"/>
   </linearGradient>
   <linearGradient id="id3" gradientUnits="userSpaceOnUse" x1="-3.09256e-05" y1="40.6918" x2="179.145" y2="40.6918">
    <stop offset="0" stop-opacity="1" stop-color="#724685"/>
    <stop offset="1" stop-opacity="1" stop-color="#FEFEFE"/>
   </linearGradient>
   <linearGradient id="id4" gradientUnits="userSpaceOnUse" x1="-3.09256e-05" y1="40.6918" x2="179.145" y2="40.6918">
    <stop offset="0" stop-opacity="1" stop-color="#724685"/>
    <stop offset="1" stop-opacity="1" stop-color="#FEFEFE"/>
   </linearGradient>
   <linearGradient id="id5" gradientUnits="userSpaceOnUse" x1="-3.09256e-05" y1="40.6918" x2="179.145" y2="40.6918">
    <stop offset="0" stop-opacity="1" stop-color="#724685"/>
    <stop offset="1" stop-opacity="1" stop-color="#FEFEFE"/>
   </linearGradient>
   <linearGradient id="id6" gradientUnits="userSpaceOnUse" x1="-3.09256e-05" y1="40.6918" x2="179.145" y2="40.6918">
    <stop offset="0" stop-opacity="1" stop-color="#724685"/>
    <stop offset="1" stop-opacity="1" stop-color="#FEFEFE"/>
   </linearGradient>
   <linearGradient id="id7" gradientUnits="userSpaceOnUse" x1="-3.09256e-05" y1="40.6918" x2="179.145" y2="40.6918">
    <stop offset="0" stop-opacity="1" stop-color="#724685"/>
    <stop offset="1" stop-opacity="1" stop-color="#FEFEFE"/>
   </linearGradient>
 </defs>
 <g id="Katman_x0020_1">
  <metadata id="CorelCorpID_0Corel-Layer"/>
  <rect fill="none" width="179.145" height="81.3835"/>
  <path fill="url(#id0)" fill-rule="nonzero" d="M17 37c0,-2 0,-4 0,-6 0,-1 -1,-2 -1,-3 -1,-1 -2,-2 -2,-2 -1,-1 -1,-1 -2,-1 -1,0 -1,0 -2,1 -1,0 -1,1 -2,2 0,1 -1,2 -1,3 -1,2 -1,4 -1,6 0,3 0,5 1,6 0,2 1,3 1,4 1,1 1,2 2,2 1,0 1,1 2,1 1,0 1,-1 2,-1 0,0 1,-1 2,-2 0,-1 1,-2 1,-4 0,-1 0,-3 0,-6zm7 0c0,2 0,4 -1,6 -1,2 -1,3 -2,4 -2,1 -3,2 -4,3 -2,0 -3,1 -5,1 -2,0 -3,-1 -5,-1 -1,-1 -3,-2 -4,-3 -1,-1 -2,-2 -2,-4 -1,-2 -1,-4 -1,-6 0,-2 0,-4 1,-5 0,-2 1,-3 2,-4 1,-2 3,-2 4,-3 2,-1 3,-1 5,-1 2,0 3,0 5,1 1,1 2,1 4,3 1,1 1,2 2,4 1,1 1,3 1,5z"/>
  <path id="1" fill="url(#id1)" fill-rule="nonzero" d="M29 34c-1,0 -1,0 -1,0 -1,1 -1,1 -1,1 0,0 0,0 0,-1 0,0 1,-1 1,-1 0,0 1,-1 1,-1 1,0 2,0 2,0 1,0 2,0 3,0 0,1 1,1 1,2 1,0 2,-1 2,-2 1,0 2,0 3,0 1,0 1,0 2,0 0,0 1,0 1,1 1,0 1,0 1,1 0,0 0,1 0,1 0,1 0,2 0,2 -1,1 -2,1 -2,1 -1,0 -1,0 -2,0 0,0 0,-1 0,-1 -1,0 -1,-1 -1,-1 0,0 0,-1 0,-1 0,0 0,-1 0,-1 0,-1 0,-1 1,-1 -1,0 -1,0 -2,0 0,0 0,0 -1,1 0,0 0,0 -1,1 0,0 0,1 -1,1l0 10c0,1 0,1 0,2 0,0 1,0 1,1 0,0 0,0 0,0 1,0 1,0 2,0l0 1 -11 0 0 -1c1,0 1,0 2,0 0,0 0,0 0,0 0,-1 1,-1 1,-1 0,-1 0,-1 0,-2l0 -11c0,0 0,0 -1,-1 0,0 0,0 0,0z"/>
  <path id="2" fill="url(#id2)" fill-rule="nonzero" d="M47 41c0,-2 0,-3 0,-4 1,-1 1,-2 2,-3 0,-1 1,-2 2,-2 1,0 2,-1 3,-1 1,0 2,0 2,1 1,0 1,0 2,0 0,0 0,0 0,0 0,1 0,1 1,1l0 -5c0,0 0,-1 -1,-1 0,0 0,0 0,0 0,0 -1,0 -1,0 -1,1 -1,1 -1,1 0,0 0,-1 0,-1 0,-1 1,-1 1,-1 0,-1 1,-1 1,-1 1,0 2,0 2,0 1,0 1,0 2,0 0,0 1,0 1,0 1,1 1,1 1,2 0,0 0,1 0,1l0 18c0,1 1,1 1,1 0,1 0,1 0,1 1,0 1,0 1,-1 1,0 1,0 2,0 0,0 -1,0 -1,1 0,0 0,1 -1,1 0,0 -1,1 -1,1 -1,0 -1,0 -2,0 0,0 -1,0 -1,0 -1,0 -1,-1 -1,-1 -1,0 -1,0 -1,-1 0,0 -1,0 -1,-1 0,0 0,0 0,0 0,0 0,0 0,0 0,1 -1,2 -2,3 -1,0 -2,1 -3,1 -1,0 -2,-1 -3,-1 -1,-1 -2,-1 -2,-2 -1,-1 -1,-2 -2,-3 0,-1 0,-2 0,-4zm6 0c0,2 0,3 0,4 0,1 0,2 1,3 0,0 0,1 1,1 0,0 0,0 1,0 0,0 0,0 1,0 0,0 0,0 0,-1 1,0 1,0 1,-1 0,0 1,0 1,-1l0 -12c-1,0 -1,-1 -2,-1 0,0 -1,0 -1,0 -1,0 -1,0 -1,0 -1,0 -1,1 -1,1 -1,1 -1,2 -1,3 0,1 0,2 0,4z"/>
  <path id="3" fill="url(#id3)" fill-rule="nonzero" d="M71 34c0,0 -1,0 -1,0 0,1 -1,1 -1,1 0,0 0,0 0,-1 0,0 1,-1 1,-1 1,0 1,-1 2,-1 0,0 1,0 1,0 1,0 1,0 2,0 0,0 1,0 1,1 1,0 1,0 1,1 0,0 1,1 1,2l0 9c0,0 0,1 0,2 0,0 0,1 1,1 0,1 0,1 0,1 1,0 1,0 1,0 1,0 1,0 1,0 1,0 1,0 1,-1 1,0 1,0 1,-1 0,0 0,0 1,-1l0 -10c0,-1 -1,-1 -1,-1 0,-1 0,-1 0,-1 -1,0 -1,0 -1,0 -1,1 -1,1 -1,1 0,0 0,0 0,-1 0,0 0,-1 1,-1 0,0 1,-1 1,-1 1,0 1,0 2,0 1,0 1,0 2,0 0,0 1,0 1,1 0,0 1,0 1,1 0,0 0,1 0,2l0 11c0,0 0,0 1,1 0,0 0,0 0,0 1,0 1,0 1,-1 1,0 1,0 1,0 0,0 0,0 0,1 0,0 -1,1 -1,1 0,0 -1,1 -1,1 -1,0 -2,0 -2,0 -1,0 -2,0 -3,0 0,-1 -1,-1 -1,-2 -1,1 -2,1 -2,2 -1,0 -2,1 -3,1 -1,0 -2,-1 -3,-1 -1,0 -2,-1 -2,-1 -1,-1 -1,-2 -2,-2 0,-1 0,-2 0,-2l0 -9c0,-1 0,-1 0,-1 -1,-1 -1,-1 -1,-1z"/>
  <path id="4" fill="url(#id4)" fill-rule="nonzero" d="M101 45c0,1 -1,1 -1,2 0,0 0,0 0,0 0,0 0,1 0,1 0,0 0,0 0,0 0,1 1,1 1,1 0,0 1,0 1,0 0,0 1,0 1,0 1,0 2,0 2,0 1,-1 1,-1 1,-2 0,0 0,-1 0,-1 0,0 0,-1 -1,-1 0,0 0,-1 -1,-1 0,0 -1,-1 -2,-1 -1,-1 -2,-1 -3,-2 -1,0 -1,-1 -2,-1 0,-1 -1,-1 -1,-2 0,0 0,-1 0,-1 0,-1 0,-2 0,-2 1,-1 1,-2 2,-2 1,-1 1,-1 2,-1 1,0 2,-1 4,-1 1,0 2,1 3,1 1,0 1,0 2,1 1,0 1,1 2,1 0,1 1,2 1,2 0,1 -1,2 -1,3 -1,0 -1,0 -2,0 -1,0 -2,0 -2,0 -1,-1 -1,-1 -1,-2 0,-1 0,-1 0,-2 1,0 1,0 1,0 0,-1 0,-1 0,-1 0,0 0,-1 -1,-1 0,0 -1,-1 -1,-1 -1,0 -2,1 -2,1 -1,1 -1,1 -1,2 0,0 0,1 0,1 0,1 1,1 1,1 0,0 1,1 1,1 0,0 1,0 1,1 1,0 3,1 4,2 0,0 1,1 2,1 0,1 1,1 1,2 0,0 0,1 0,1 0,1 0,2 -1,2 0,1 -1,2 -1,2 -1,0 -2,1 -3,1 -1,0 -2,1 -4,1 -1,0 -2,-1 -2,-1 -1,0 -2,0 -3,-1 -1,0 -2,-1 -2,-1 -1,-1 -1,-2 -1,-3 0,-1 0,-2 1,-2 0,-1 1,-1 2,-1 1,0 2,0 2,1 0,0 1,1 1,2z"/>
  <path id="5" fill="url(#id5)" fill-rule="nonzero" d="M115 35c0,0 0,0 0,-1 0,0 1,-1 1,-1 0,0 1,-1 1,-1 1,0 1,0 2,0 0,0 1,0 1,0 1,0 1,0 1,1 1,0 1,0 1,1 0,0 1,0 1,1 0,0 0,0 0,0 0,0 0,0 0,0 0,-1 1,-2 2,-3 1,0 2,-1 3,-1 1,0 2,1 3,1 1,0 2,1 2,2 1,1 2,2 2,3 0,1 1,2 1,4 0,2 -1,3 -1,4 0,1 -1,2 -2,3 0,1 -1,1 -2,2 -1,0 -2,1 -3,1 -1,0 -2,-1 -2,-1 -1,0 -1,0 -1,0 -1,0 -1,0 -1,-1 0,0 0,0 -1,0l0 5c0,0 0,1 0,1 0,0 1,1 1,1 0,0 0,0 0,0 1,1 1,1 2,1l0 0 -11 0 0 0c1,0 1,0 2,-1 0,0 0,0 0,0 1,0 1,-1 1,-1 0,0 0,-1 0,-1l0 -18c0,-1 0,-1 -1,-1 0,-1 0,-1 0,-1 -1,0 -1,0 -1,0 -1,1 -1,1 -1,1zm8 13c1,0 1,1 2,1 0,0 1,0 1,0 1,0 1,0 1,0 1,0 1,-1 1,-1 1,-1 1,-2 1,-3 0,-1 0,-2 0,-4 0,-2 0,-3 0,-4 0,-1 0,-2 -1,-3 0,0 0,-1 0,-1 -1,0 -1,0 -1,0 -1,0 -1,0 -2,0 0,0 0,0 0,1 -1,0 -1,0 -1,1 0,0 0,0 -1,1l0 12z"/>
  <path id="6" fill="url(#id6)" fill-rule="nonzero" d="M149 50c0,0 1,-1 1,-1 1,0 1,0 1,-1 1,-1 1,-2 1,-3 0,-1 0,-2 0,-4 0,-2 0,-3 0,-4 0,-1 0,-2 -1,-3 0,-1 0,-1 -1,-1 0,-1 -1,-1 -1,-1 0,0 -1,0 -1,1 -1,0 -1,0 -1,1 -1,1 -1,2 -1,3 0,1 -1,2 -1,4 0,2 1,3 1,4 0,1 0,2 1,3 0,1 0,1 1,1 0,0 1,1 1,1zm0 -19c1,0 3,1 4,1 1,0 2,1 3,2 1,1 2,2 2,3 0,1 1,2 1,4 0,1 -1,3 -1,4 0,1 -1,2 -2,3 -1,1 -2,1 -3,2 -1,0 -3,1 -4,1 -1,0 -3,-1 -4,-1 -1,-1 -2,-1 -3,-2 -1,-1 -2,-2 -2,-3 0,-1 -1,-3 -1,-4 0,-2 1,-3 1,-4 0,-1 1,-2 2,-3 1,-1 2,-2 3,-2 1,0 3,-1 4,-1z"/>
  <path id="7" fill="url(#id7)" fill-rule="nonzero" d="M163 34c0,0 0,0 -1,0 0,1 0,1 -1,1 0,0 0,0 1,-1 0,0 0,-1 1,-1 0,0 1,-1 1,-1 1,0 1,0 2,0 1,0 2,0 2,0 1,1 2,1 2,2 1,0 1,-1 2,-2 1,0 2,0 3,0 0,0 1,0 2,0 0,0 1,0 1,1 0,0 1,0 1,1 0,0 0,1 0,1 0,1 0,2 -1,2 0,1 -1,1 -2,1 0,0 -1,0 -1,0 0,0 -1,-1 -1,-1 0,0 0,-1 0,-1 0,0 0,-1 0,-1 0,0 0,-1 0,-1 0,-1 0,-1 0,-1 0,0 0,0 -1,0 0,0 -1,0 -1,1 0,0 -1,0 -1,1 0,0 -1,1 -1,1l0 10c0,1 0,1 0,2 0,0 0,0 0,1 0,0 1,0 1,0 0,0 1,0 1,0l0 1 -10 0 0 -1c1,0 1,0 1,0 1,0 1,0 1,0 0,-1 0,-1 0,-1 0,-1 0,-1 0,-2l0 -11c0,0 0,0 0,-1 0,0 0,0 -1,0z"/>
 </g>
</svg>
