

<!-- Creator: CorelDRAW X8 -->
<svg xmlns="http://www.w3.org/2000/svg" xml:space="preserve" x="0" y="0" width="60.3604mm" height="25mm" version="1.1" shape-rendering="geometricPrecision" text-rendering="geometricPrecision" image-rendering="optimizeQuality" fill-rule="evenodd" clip-rule="evenodd"
viewBox="0 0 214 89"
 xmlns:xlink="http://www.w3.org/1999/xlink">
 <defs>
   <linearGradient id="id0" gradientUnits="userSpaceOnUse" x1="-3.36046e-05" y1="44.3524" x2="214.172" y2="44.3524">
    <stop offset="0" stop-opacity="1" stop-color="#078456"/>
    <stop offset="1" stop-opacity="1" stop-color="#FEFEFE"/>
   </linearGradient>
   <linearGradient id="id1" gradientUnits="userSpaceOnUse" x1="-3.36046e-05" y1="44.3524" x2="214.172" y2="44.3524">
    <stop offset="0" stop-opacity="1" stop-color="#078456"/>
    <stop offset="1" stop-opacity="1" stop-color="#FEFEFE"/>
   </linearGradient>
   <linearGradient id="id2" gradientUnits="userSpaceOnUse" x1="-3.36046e-05" y1="44.3524" x2="214.172" y2="44.3524">
    <stop offset="0" stop-opacity="1" stop-color="#078456"/>
    <stop offset="1" stop-opacity="1" stop-color="#FEFEFE"/>
   </linearGradient>
   <linearGradient id="id3" gradientUnits="userSpaceOnUse" x1="-3.36046e-05" y1="44.3524" x2="214.172" y2="44.3524">
    <stop offset="0" stop-opacity="1" stop-color="#078456"/>
    <stop offset="1" stop-opacity="1" stop-color="#FEFEFE"/>
   </linearGradient>
   <linearGradient id="id4" gradientUnits="userSpaceOnUse" x1="-3.36046e-05" y1="44.3524" x2="214.172" y2="44.3524">
    <stop offset="0" stop-opacity="1" stop-color="#078456"/>
    <stop offset="1" stop-opacity="1" stop-color="#FEFEFE"/>
   </linearGradient>
   <linearGradient id="id5" gradientUnits="userSpaceOnUse" x1="-3.36046e-05" y1="44.3524" x2="214.172" y2="44.3524">
    <stop offset="0" stop-opacity="1" stop-color="#078456"/>
    <stop offset="1" stop-opacity="1" stop-color="#FEFEFE"/>
   </linearGradient>
   <linearGradient id="id6" gradientUnits="userSpaceOnUse" x1="-3.36046e-05" y1="44.3524" x2="214.172" y2="44.3524">
    <stop offset="0" stop-opacity="1" stop-color="#078456"/>
    <stop offset="1" stop-opacity="1" stop-color="#FEFEFE"/>
   </linearGradient>
   <linearGradient id="id7" gradientUnits="userSpaceOnUse" x1="-3.36046e-05" y1="44.3524" x2="214.172" y2="44.3524">
    <stop offset="0" stop-opacity="1" stop-color="#078456"/>
    <stop offset="1" stop-opacity="1" stop-color="#FEFEFE"/>
   </linearGradient>
   <linearGradient id="id8" gradientUnits="userSpaceOnUse" x1="-3.36046e-05" y1="44.3524" x2="214.172" y2="44.3524">
    <stop offset="0" stop-opacity="1" stop-color="#078456"/>
    <stop offset="1" stop-opacity="1" stop-color="#FEFEFE"/>
   </linearGradient>
 </defs>
 <g id="Katman_x0020_1">
  <metadata id="CorelCorpID_0Corel-Layer"/>
  <rect fill="none" width="214.17" height="88.7053"/>
  <path fill="url(#id0)" fill-rule="nonzero" d="M0 27l0 -1 11 0 0 1c0,0 -1,0 -1,0 0,0 -1,0 -1,1 0,0 0,0 0,1 0,0 0,1 0,1l0 10 9 -12c1,0 1,0 1,-1 0,0 0,0 -1,0 -1,0 -1,0 -2,0l0 -1 7 0 0 1c0,0 -1,0 -1,0 0,0 -1,0 -1,0 0,0 0,0 0,1 -1,0 -1,0 -1,0l-7 9 7 11c1,1 2,2 2,2 1,1 1,1 2,1 0,0 1,0 2,-1 0,1 -1,1 -1,2 0,0 -1,1 -1,1 -1,0 -1,1 -2,1 0,0 -1,0 -2,0 0,0 -1,0 -2,0 0,0 -1,-1 -1,-1 -1,0 -1,-1 -1,-1 -1,-1 -1,-1 -1,-1l-6 -9 0 8c0,1 0,1 0,1 0,1 0,1 0,2 0,0 1,0 1,0 0,0 1,0 1,0l0 1 -11 0 0 -1c1,0 1,0 1,0 1,0 1,0 1,0 0,-1 0,-1 0,-2 0,0 0,0 0,-1l0 -20c0,0 0,-1 0,-1 0,-1 0,-1 0,-1 0,-1 0,-1 -1,-1 0,0 0,0 -1,0z"/>
  <path id="1" fill="url(#id1)" fill-rule="nonzero" d="M38 53c0,0 0,0 1,0 0,0 1,-1 1,-1 1,-1 1,-2 1,-3 0,-1 0,-3 0,-5 0,-2 0,-3 0,-5 0,-1 0,-2 -1,-3 0,0 -1,-1 -1,-1 -1,0 -1,0 -1,0 -1,0 -1,0 -2,0 0,0 -1,1 -1,1 0,1 -1,2 -1,3 0,2 0,3 0,5 0,2 0,4 0,5 0,1 1,2 1,3 0,0 1,1 1,1 1,0 1,0 2,0zm0 -19c1,0 3,0 4,0 1,1 2,2 3,2 1,1 2,2 2,4 1,1 1,2 1,4 0,2 0,3 -1,4 0,2 -1,3 -2,4 -1,1 -2,1 -3,2 -1,0 -3,0 -4,0 -2,0 -4,0 -5,0 -1,-1 -2,-1 -3,-2 -1,-1 -2,-2 -2,-4 -1,-1 -1,-2 -1,-4 0,-2 0,-3 1,-4 0,-2 1,-3 2,-4 1,0 2,-1 3,-2 1,0 3,0 5,0z"/>
  <path id="2" fill="url(#id2)" fill-rule="nonzero" d="M53 37c0,0 0,0 -1,0 0,0 -1,1 -1,1 0,0 0,-1 0,-1 1,-1 1,-1 1,-2 1,0 1,0 2,-1 1,0 1,0 2,0 1,0 2,0 3,1 0,0 1,1 1,2 1,-1 2,-2 3,-3 1,0 2,0 3,0 1,0 2,0 3,0 1,1 2,1 2,2 1,0 1,1 2,2 0,0 0,1 0,2l0 10c0,0 0,1 1,1 0,0 0,0 0,0 1,0 1,0 1,0 1,0 1,0 2,-1 0,1 0,1 -1,2 0,0 0,0 -1,1 0,0 -1,1 -1,1 -1,0 -2,0 -2,0 -1,0 -1,0 -2,0 -1,0 -1,-1 -2,-1 0,0 0,-1 -1,-1 0,-1 0,-1 0,-2l0 -10c0,-1 0,-2 0,-2 0,-1 -1,-1 -1,-2 0,0 -1,0 -1,-1 0,0 -1,0 -1,0 0,0 -1,0 -1,0 -1,1 -1,1 -1,1 0,0 -1,1 -1,1 0,0 0,1 0,1l0 12c0,1 0,1 0,1 0,1 0,1 0,2 0,0 0,0 1,0 0,0 0,0 1,0l0 1 -11 0 0 -1c0,0 1,0 1,0 1,0 1,0 1,0 0,-1 0,-1 0,-2 0,0 0,0 0,-1l0 -12c0,-1 0,-1 0,-1 0,0 0,0 -1,0z"/>
  <path id="3" fill="url(#id3)" fill-rule="nonzero" d="M80 38c-1,0 -1,-1 -1,-1 0,0 -1,0 -1,0 0,0 -1,0 -1,0 0,0 -1,1 -1,1 0,-1 0,-1 0,-2 1,0 1,0 1,-1 1,0 2,0 2,-1 1,0 1,0 2,0 1,0 2,0 3,1 1,0 1,1 2,3l4 9 4 -11c0,0 0,0 0,0 0,-1 0,-1 0,-1 0,0 0,0 0,0 -1,0 -1,0 -1,0 0,0 -1,0 -1,0l0 0 0 -1 6 0 0 1c-1,0 -1,0 -2,0 0,0 0,1 -1,1l-7 20c-1,1 -1,2 -2,3 0,1 -1,2 -1,2 -1,1 -1,1 -2,1 0,0 -1,0 -1,0 -2,0 -3,0 -3,-1 -1,0 -1,-1 -1,-2 0,-1 0,-2 1,-3 0,0 1,0 2,0 1,0 1,0 2,0 0,1 0,2 0,2 0,1 0,1 0,2 0,0 0,1 -1,1 1,0 2,0 3,-1 0,-1 1,-2 1,-4l1 -2 -7 -16z"/>
  <path id="4" fill="url(#id4)" fill-rule="nonzero" d="M98 49c0,-1 0,-2 1,-3 1,-1 1,-2 3,-2 1,0 2,-1 3,-1 1,0 3,0 4,0 0,0 0,0 0,0 1,0 1,0 1,0l0 -1c0,-1 0,-3 0,-4 0,-1 -1,-2 -1,-2 0,-1 -1,-1 -1,-1 -1,-1 -1,-1 -2,-1 -1,0 -1,0 -2,1 1,0 1,1 1,1 0,1 0,1 0,2 0,1 0,1 -1,2 0,1 -1,1 -2,1 -1,0 -1,0 -2,-1 0,0 -1,-1 -1,-2 0,-1 1,-1 1,-2 0,0 0,-1 1,-1 1,0 1,-1 2,-1 1,0 2,0 4,0 1,0 3,0 4,0 1,1 2,1 3,2 1,1 1,2 2,3 0,1 0,2 0,3l0 8c0,0 1,1 1,1 0,0 0,1 1,1 0,0 0,-1 1,-1 0,0 0,0 1,-1 0,1 0,1 -1,2 0,0 0,0 -1,1 0,0 -1,1 -1,1 -1,0 -1,0 -2,0 -1,0 -2,0 -3,-1 0,0 -1,-1 -1,-2 -1,1 -2,2 -3,3 -1,0 -2,0 -3,0 -2,0 -4,0 -6,-1 -1,-1 -1,-2 -1,-4zm9 4c0,0 0,0 1,0 0,-1 1,-1 1,-1 0,0 0,-1 1,-1 0,0 0,-1 0,-1l0 -6c0,0 -1,0 -2,0 0,0 0,0 -1,0 -1,0 -1,1 -2,2 0,1 -1,2 -1,3 0,2 1,3 1,3 0,1 1,1 2,1z"/>
  <path id="5" fill="url(#id5)" fill-rule="nonzero" d="M129 48c0,1 -1,2 -1,3 0,0 0,0 0,0 0,0 0,0 0,0 0,1 0,1 0,1 0,0 1,1 1,1 0,0 1,0 1,0 1,0 1,0 1,0 1,0 2,0 3,0 0,-1 1,-1 1,-2 0,-1 0,-1 0,-2 -1,0 -1,0 -1,-1 -1,0 -1,0 -2,-1 0,0 -1,0 -1,-1 -2,0 -3,-1 -4,-2 -1,0 -2,-1 -2,-1 -1,-1 -1,-1 -1,-2 -1,0 -1,-1 -1,-2 0,0 1,-1 1,-2 0,-1 1,-1 2,-2 0,0 1,-1 2,-1 1,0 2,0 4,0 1,0 2,0 3,0 1,0 2,1 3,1 1,1 1,1 2,2 0,0 0,1 0,2 0,1 0,2 0,2 -1,1 -2,1 -2,1 -1,0 -2,0 -3,0 0,-1 0,-2 0,-3 0,0 0,-1 0,-1 0,0 0,-1 0,-1 1,0 1,-1 1,-1 0,0 -1,0 -1,-1 -1,0 -1,0 -2,0 -1,0 -2,0 -2,0 -1,1 -1,2 -1,2 0,1 0,1 0,2 0,0 1,1 1,1 1,0 1,1 1,1 1,0 1,0 1,0 2,1 3,2 4,3 1,0 2,1 3,1 0,1 1,2 1,2 0,1 0,1 0,2 0,0 0,1 -1,2 0,1 -1,1 -2,2 -1,0 -2,1 -3,1 -1,0 -2,0 -3,0 -1,0 -2,0 -4,0 -1,0 -2,0 -2,-1 -1,0 -2,-1 -3,-2 0,0 0,-1 0,-2 0,-1 0,-2 0,-3 1,-1 2,-1 3,-1 1,0 1,0 2,1 0,1 1,1 1,2z"/>
  <path id="6" fill="url(#id6)" fill-rule="nonzero" d="M144 38c0,0 0,-1 0,-1 0,-1 1,-1 1,-2 1,0 1,0 2,-1 0,0 1,0 1,0 1,0 1,0 2,0 0,1 1,1 1,1 1,0 1,1 1,1 0,1 1,1 1,1 0,0 0,0 0,0 0,0 0,0 0,0 0,-1 1,-2 2,-2 1,-1 2,-1 4,-1 1,0 2,0 3,0 1,1 2,1 2,2 1,1 2,2 2,4 0,1 1,2 1,4 0,2 -1,3 -1,5 0,1 -1,2 -2,3 -1,1 -1,1 -2,2 -1,0 -3,0 -4,0 -1,0 -1,0 -2,0 0,0 -1,0 -1,0 -1,0 -1,-1 -1,-1 0,0 0,0 -1,0l0 5c0,0 0,1 0,1 1,1 1,1 1,1 0,1 0,1 0,1 1,0 1,0 2,0l0 1 -11 0 0 -1c0,0 1,0 1,0 0,0 1,0 1,-1 0,0 0,0 0,-1 0,0 0,-1 0,-1l0 -20c0,0 0,-1 0,-1 0,0 -1,0 -1,0 0,0 -1,0 -1,0 0,0 -1,1 -1,1zm9 14c1,0 1,0 2,1 0,0 1,0 2,0 0,0 0,0 1,0 0,0 1,-1 1,-1 0,-1 0,-2 1,-3 0,-1 0,-3 0,-5 0,-2 0,-3 0,-4 -1,-2 -1,-3 -1,-3 0,-1 -1,-1 -1,-2 0,0 -1,0 -1,0 -1,0 -1,0 -1,0 -1,1 -1,1 -1,1 -1,0 -1,1 -1,1 0,0 0,1 -1,1l0 14z"/>
  <path id="7" fill="url(#id7)" fill-rule="nonzero" d="M181 53c1,0 1,0 2,0 0,0 0,-1 1,-1 0,-1 1,-2 1,-3 0,-1 0,-3 0,-5 0,-2 0,-3 0,-5 0,-1 -1,-2 -1,-3 -1,0 -1,-1 -1,-1 -1,0 -1,0 -2,0 0,0 -1,0 -1,0 0,0 -1,1 -1,1 -1,1 -1,2 -1,3 0,2 -1,3 -1,5 0,2 1,4 1,5 0,1 0,2 1,3 0,0 1,1 1,1 0,0 1,0 1,0zm0 -19c2,0 3,0 5,0 1,1 2,2 3,2 1,1 2,2 2,4 1,1 1,2 1,4 0,2 0,3 -1,4 0,2 -1,3 -2,4 -1,1 -2,1 -3,2 -2,0 -3,0 -5,0 -1,0 -3,0 -4,0 -1,-1 -2,-1 -3,-2 -1,-1 -2,-2 -2,-4 -1,-1 -1,-2 -1,-4 0,-2 0,-3 1,-4 0,-2 1,-3 2,-4 1,0 2,-1 3,-2 1,0 3,0 4,0z"/>
  <path id="8" fill="url(#id8)" fill-rule="nonzero" d="M197 37c0,0 -1,0 -1,0 -1,0 -1,1 -1,1 0,0 0,-1 0,-1 0,-1 1,-1 1,-2 1,0 1,0 2,-1 0,0 1,0 2,0 1,0 2,0 2,1 1,0 2,1 2,2 1,-1 2,-2 3,-2 0,-1 1,-1 3,-1 0,0 1,0 1,0 1,1 1,1 2,1 0,1 1,1 1,1 0,1 0,1 0,2 0,1 0,1 -1,2 0,1 -1,1 -2,1 -1,0 -1,0 -1,0 -1,-1 -1,-1 -1,-1 0,0 -1,-1 -1,-1 0,-1 0,-1 0,-1 0,-1 0,-1 0,-2 1,0 1,-1 1,-1 -1,0 -1,0 -1,0 -1,1 -1,1 -2,1 0,1 -1,1 -1,1 0,1 -1,1 -1,2l0 11c0,1 0,1 0,1 0,1 0,1 1,2 0,0 0,0 0,0 1,0 1,0 2,0l0 1 -11 0 0 -1c0,0 1,0 1,0 0,0 1,0 1,0 0,-1 0,-1 0,-2 0,0 0,0 0,-1l0 -12c0,-1 0,-1 0,-1 0,0 -1,0 -1,0z"/>
 </g>
</svg>
