

<!-- Creator: CorelDRAW X8 -->
<svg xmlns="http://www.w3.org/2000/svg" xml:space="preserve" width="110.001mm" height="25mm" version="1.1" shape-rendering="geometricPrecision" text-rendering="geometricPrecision" image-rendering="optimizeQuality" fill-rule="evenodd" clip-rule="evenodd"
viewBox="0 0 654 149"
 xmlns:xlink="http://www.w3.org/1999/xlink">
 <defs>
    <linearGradient id="id0" gradientUnits="userSpaceOnUse" x1="-0" y1="61.987" x2="203.04" y2="61.987">
     <stop offset="0" stop-opacity="1" stop-color="#F6E708"/>
     <stop offset="1" stop-opacity="1" stop-color="black"/>
    </linearGradient>
    <linearGradient id="id1" gradientUnits="userSpaceOnUse" x1="-0" y1="79.9672" x2="203.04" y2="79.9672">
     <stop offset="0" stop-opacity="1" stop-color="#F6E708"/>
     <stop offset="1" stop-opacity="1" stop-color="black"/>
    </linearGradient>
 </defs>
 <g id="Katman_x0020_1">
  <metadata id="CorelCorpID_0Corel-Layer"/>
  <g id="_2222492442944">
   <path fill="#F6E708" fill-rule="nonzero" d="M229 91l0 -1c2,0 3,-1 4,-1 0,0 1,0 1,-1 0,0 1,-1 1,-2 0,-1 0,-2 0,-3l0 -32c0,-1 0,-1 -1,-1 0,-1 -1,-1 -1,-1 0,0 -1,0 -1,1 -1,0 -1,0 -2,1 0,-2 0,-2 1,-3 1,-1 1,-2 2,-2 1,-1 2,-1 3,-2 1,0 2,0 3,0 1,0 2,0 3,1 1,0 2,1 3,1 0,1 1,2 1,2 1,1 1,2 2,3l13 27 12 -28c1,-1 1,-2 2,-2 0,-1 1,-2 1,-2 1,-1 2,-1 3,-1 1,-1 2,-1 3,-1l7 0 0 1c-1,0 -2,0 -2,1 -1,0 -1,0 -1,1 -1,0 -1,1 -1,1 0,1 0,2 0,3l0 33c0,1 0,2 0,2 0,1 0,2 1,2 0,1 0,1 1,1 0,0 1,1 2,1l0 1 -19 0 0 -1c1,0 2,-1 3,-1 0,0 1,0 1,-1 0,0 0,-1 0,-2 0,0 0,-1 0,-2l0 -31 -17 38 -2 0 -18 -38 0 30c0,1 0,2 0,3 0,1 0,2 0,2 1,1 1,1 2,1 1,0 2,1 3,1l0 1 -13 0z"/>
   <path id="1" fill="#F6E708" fill-rule="nonzero" d="M294 82c0,-2 0,-4 1,-5 2,-1 3,-2 5,-3 2,-1 4,-1 6,-1 2,0 4,0 6,0 0,0 1,0 1,0 1,0 1,0 2,0l0 -2c0,-3 0,-5 -1,-7 0,-1 -1,-3 -1,-4 -1,-1 -2,-1 -3,-2 0,0 -1,0 -3,0 0,0 -1,0 -2,0 1,1 1,2 1,3 0,1 0,2 0,2 0,2 0,3 -1,4 -1,1 -2,2 -4,2 -1,0 -2,-1 -3,-2 -1,-1 -1,-2 -1,-3 0,-1 0,-2 0,-3 1,-1 1,-1 2,-2 1,-1 3,-1 4,-2 2,0 3,0 6,0 2,0 5,0 7,1 2,0 3,1 5,3 1,1 2,2 3,4 1,2 1,4 1,6l0 13c0,1 0,1 1,2 0,0 0,1 1,1 0,0 1,-1 2,-1 0,0 1,-1 2,-2 0,1 0,2 -1,3 0,0 -1,1 -2,2 0,0 -1,1 -2,1 -1,1 -2,1 -3,1 -2,0 -3,-1 -5,-2 -1,-1 -2,-2 -2,-4 -1,2 -3,4 -4,5 -2,1 -4,1 -6,1 -4,0 -7,0 -9,-2 -2,-2 -3,-4 -3,-7zm15 7c0,0 1,0 2,0 0,-1 1,-1 1,-2 1,0 1,-1 2,-1 0,-1 0,-2 1,-2l0 -10c-1,0 -2,0 -3,0 -1,0 -2,0 -2,0 -2,1 -3,2 -4,3 -1,2 -1,4 -1,6 0,2 0,4 1,5 1,1 2,1 3,1z"/>
   <path id="2" fill="#F6E708" fill-rule="nonzero" d="M335 48c-1,0 -1,1 -2,1 -1,0 -1,1 -2,2 0,-1 0,-2 1,-3 0,-1 1,-1 2,-2 0,-1 1,-1 2,-1 1,-1 2,-1 4,-1 0,0 1,0 2,0 1,1 2,1 3,2 0,0 1,1 2,2 0,1 0,2 0,3l0 33c0,1 0,2 0,2 0,1 0,2 1,2 0,1 0,1 1,1 0,0 1,1 2,1l0 1 -18 0 0 -1c1,0 1,-1 2,-1 1,0 1,0 1,-1 0,0 1,-1 1,-2 0,0 0,-1 0,-2l0 -33c0,-1 -1,-2 -1,-2 0,0 -1,-1 -1,-1z"/>
   <path id="3" fill="#F6E708" fill-rule="nonzero" d="M356 82c0,-2 0,-4 2,-5 1,-1 2,-2 4,-3 2,-1 4,-1 6,-1 2,0 4,0 6,0 0,0 1,0 1,0 1,0 1,0 2,0l0 -2c0,-3 0,-5 -1,-7 0,-1 -1,-3 -1,-4 -1,-1 -2,-1 -2,-2 -1,0 -2,0 -4,0 0,0 -1,0 -2,0 1,1 1,2 1,3 0,1 0,2 0,2 0,2 0,3 -1,4 -1,1 -2,2 -4,2 -1,0 -2,-1 -3,-2 -1,-1 -1,-2 -1,-3 0,-1 0,-2 0,-3 1,-1 1,-1 2,-2 1,-1 3,-1 4,-2 2,0 3,0 6,0 2,0 5,0 7,1 2,0 3,1 5,3 1,1 2,2 3,4 1,2 1,4 1,6l0 13c0,1 0,1 1,2 0,0 0,1 1,1 0,0 1,-1 2,-1 0,0 1,-1 2,-2 0,1 0,2 -1,3 0,0 -1,1 -2,2 0,0 -1,1 -2,1 -1,1 -2,1 -3,1 -2,0 -3,-1 -5,-2 -1,-1 -2,-2 -2,-4 -1,2 -3,4 -4,5 -2,1 -4,1 -6,1 -4,0 -7,0 -9,-2 -2,-2 -3,-4 -3,-7zm15 7c0,0 1,0 2,0 0,-1 1,-1 1,-2 1,0 1,-1 2,-1 0,-1 0,-2 1,-2l0 -10c-1,0 -2,0 -3,0 -1,0 -2,0 -2,0 -2,1 -3,2 -4,3 -1,2 -1,4 -1,6 0,2 0,4 1,5 1,1 2,1 3,1z"/>
   <path id="4" fill="#F6E708" fill-rule="nonzero" d="M402 44c1,0 2,0 3,0 1,1 2,1 3,2 0,0 1,1 1,2 1,1 1,2 1,3l0 7 10 0 0 1 -10 0 0 23c0,1 0,1 0,2 0,1 0,2 1,3 0,0 0,1 1,2 1,0 2,0 3,0 1,0 3,0 5,-1 1,-1 3,-2 4,-4 0,1 0,2 0,3 -1,1 -1,1 -2,2 -1,1 -2,1 -4,2 -1,0 -3,0 -5,0 -4,0 -8,0 -10,-2 -2,-1 -4,-4 -4,-7l0 -23 -4 0 0 -1 4 0 0 -7c0,-1 0,-2 0,-2 0,0 -1,-1 -1,-1 -1,0 -1,1 -2,1 -1,0 -2,1 -2,2 0,-1 0,-2 0,-3 1,-1 2,-1 2,-2 1,-1 2,-1 3,-1 1,-1 2,-1 3,-1z"/>
   <path id="5" fill="#F6E708" fill-rule="nonzero" d="M429 64c-1,-1 -1,-1 -2,-2 0,0 -1,0 -1,0 -1,0 -1,0 -2,0 0,1 -1,1 -2,2 0,-1 1,-2 1,-3 1,-1 1,-1 2,-2 1,0 2,-1 3,-1 1,-1 2,-1 3,-1 2,0 4,1 5,2 1,1 3,2 4,4l6 15 7 -17c0,-1 1,-1 1,-1 0,-1 -1,-1 -1,-1 0,0 0,0 -1,0 0,0 -1,0 -1,0 0,0 -1,0 -1,0l-1 0 0 -1 11 0 0 1c-2,0 -3,0 -3,0 -1,0 -1,1 -2,2l-13 33c-1,2 -1,4 -2,5 -1,2 -2,3 -2,4 -1,0 -2,1 -3,1 -1,1 -2,1 -3,1 -2,0 -4,-1 -5,-2 -1,-1 -2,-2 -2,-4 0,-2 1,-3 2,-4 1,-1 2,-2 4,-2 1,0 2,1 3,2 1,1 1,2 1,3 0,1 0,2 0,2 0,1 -1,2 -1,3 1,-1 2,-1 3,-3 1,-1 2,-3 3,-6l1 -3 -12 -27z"/>
   <path id="6" fill="#F6E708" fill-rule="nonzero" d="M459 82c0,-2 1,-4 2,-5 1,-1 3,-2 5,-3 1,-1 3,-1 6,-1 2,0 4,0 5,0 1,0 1,0 2,0 0,0 1,0 1,0l0 -2c0,-3 0,-5 0,-7 -1,-1 -1,-3 -2,-4 0,-1 -1,-1 -2,-2 -1,0 -2,0 -3,0 -1,0 -2,0 -3,0 1,1 1,2 2,3 0,1 0,2 0,2 0,2 -1,3 -2,4 -1,1 -2,2 -3,2 -2,0 -3,-1 -4,-2 -1,-1 -1,-2 -1,-3 0,-1 0,-2 1,-3 0,-1 1,-1 2,-2 1,-1 2,-1 3,-2 2,0 4,0 6,0 3,0 5,0 7,1 2,0 4,1 5,3 2,1 3,2 4,4 0,2 1,4 1,6l0 13c0,1 0,1 0,2 0,0 1,1 1,1 1,0 1,-1 2,-1 1,0 1,-1 2,-2 0,1 0,2 -1,3 0,0 -1,1 -1,2 -1,0 -2,1 -3,1 -1,1 -2,1 -3,1 -1,0 -3,-1 -4,-2 -2,-1 -2,-2 -3,-4 -1,2 -2,4 -4,5 -2,1 -3,1 -6,1 -4,0 -7,0 -9,-2 -2,-2 -3,-4 -3,-7zm15 7c1,0 1,0 2,0 1,-1 1,-1 2,-2 0,0 1,-1 1,-1 0,-1 1,-2 1,-2l0 -10c-1,0 -2,0 -3,0 -1,0 -1,0 -2,0 -1,1 -3,2 -3,3 -1,2 -2,4 -2,6 0,2 1,4 1,5 1,1 2,1 3,1z"/>
   <path id="7" fill="#F6E708" fill-rule="nonzero" d="M511 81c0,1 0,3 -1,4 0,0 0,0 0,1 0,0 0,0 0,0 0,1 0,1 0,2 0,0 1,0 2,1 0,0 1,0 2,0 0,0 1,0 2,0 1,0 2,0 4,-1 1,0 1,-1 1,-3 0,-1 0,-2 0,-2 0,-1 -1,-1 -1,-2 -1,0 -2,-1 -3,-1 0,-1 -2,-1 -3,-2 -2,-1 -4,-2 -6,-3 -1,-1 -2,-2 -3,-3 -1,-1 -2,-2 -2,-3 -1,-1 -1,-2 -1,-3 0,-1 0,-3 1,-4 1,-1 2,-2 3,-3 1,-1 3,-1 4,-2 2,0 4,0 6,0 2,0 4,0 6,0 2,1 3,1 4,2 2,1 3,2 4,3 0,1 1,2 1,4 0,1 -1,3 -2,4 0,1 -2,1 -3,1 -1,0 -3,0 -4,-1 -1,-1 -1,-2 -1,-4 0,-1 0,-1 0,-2 1,-1 1,-1 1,-2 1,0 1,-1 1,-1 0,-1 -1,-1 -2,-2 -1,0 -2,-1 -3,-1 -1,0 -3,1 -4,2 -1,0 -1,2 -1,3 0,1 0,2 1,2 0,1 1,2 1,2 1,1 1,1 2,2 1,0 1,0 2,1 2,1 5,2 6,3 2,1 3,2 4,3 1,1 2,2 2,3 1,1 1,2 1,3 0,1 -1,2 -1,4 -1,1 -2,2 -4,3 -1,1 -3,1 -5,2 -2,0 -4,0 -6,0 -2,0 -4,0 -5,0 -2,0 -4,-1 -5,-2 -2,0 -3,-1 -4,-3 -1,-1 -1,-3 -1,-4 0,-2 0,-3 1,-5 1,-1 2,-1 4,-1 2,0 3,0 4,1 1,1 1,3 1,4z"/>
   <path id="8" fill="#F6E708" fill-rule="nonzero" d="M536 64c0,-1 1,-2 1,-3 0,0 1,-1 2,-2 1,0 1,-1 2,-1 1,-1 2,-1 3,-1 1,0 2,0 3,1 0,0 1,1 2,1 0,1 1,1 1,2 1,0 1,1 1,1 0,1 0,1 0,1 0,0 0,0 0,0 1,-2 3,-4 4,-5 2,-1 4,-1 6,-1 2,0 4,0 5,1 2,0 3,2 5,3 1,2 2,3 3,6 0,2 1,4 1,7 0,3 -1,6 -1,8 -1,2 -2,4 -3,5 -2,2 -3,3 -5,3 -2,1 -3,1 -6,1 -1,0 -2,0 -3,0 -1,0 -2,0 -2,-1 -1,0 -1,0 -1,0 -1,-1 -1,-1 -1,-1l0 8c0,1 0,2 0,3 0,0 0,1 0,1 0,1 1,1 1,1 1,1 2,1 2,1l0 1 -18 0 0 -1c1,0 2,0 2,-1 1,0 1,0 2,-1 0,0 0,-1 0,-1 0,-1 0,-2 0,-3l0 -33c0,-1 0,-1 0,-2 -1,0 -1,0 -2,0 0,0 -1,0 -1,0 -1,1 -2,1 -3,2zm17 23c0,0 1,1 2,2 1,0 2,0 3,0 1,0 1,0 2,0 1,-1 1,-1 2,-2 0,-2 1,-3 1,-5 0,-2 0,-5 0,-8 0,-3 0,-6 0,-8 0,-2 -1,-3 -1,-4 -1,-1 -1,-2 -2,-2 0,-1 -1,-1 -2,-1 0,0 -1,0 -2,0 0,1 -1,1 -1,2 -1,0 -1,1 -2,1 0,1 0,2 0,2l0 23z"/>
   <path id="9" fill="#F6E708" fill-rule="nonzero" d="M599 90c1,0 2,0 3,-1 0,0 1,-1 2,-2 0,-1 1,-3 1,-5 0,-2 1,-5 1,-8 0,-3 -1,-6 -1,-8 0,-2 -1,-4 -1,-5 -1,-1 -2,-2 -2,-2 -1,-1 -2,-1 -3,-1 0,0 -1,0 -2,1 -1,0 -1,1 -2,2 -1,1 -1,3 -2,5 0,2 0,5 0,8 0,3 0,6 0,8 1,2 1,4 2,5 1,1 1,2 2,2 1,1 2,1 2,1zm0 -33c3,0 5,0 8,1 2,1 4,2 5,3 2,2 3,4 4,6 0,2 1,4 1,7 0,3 -1,5 -1,7 -1,2 -2,4 -4,6 -1,1 -3,3 -5,3 -3,1 -5,1 -8,1 -2,0 -5,0 -7,-1 -2,0 -4,-2 -6,-3 -1,-2 -2,-4 -3,-6 -1,-2 -1,-4 -1,-7 0,-3 0,-5 1,-7 1,-2 2,-4 3,-6 2,-1 4,-2 6,-3 2,-1 5,-1 7,-1z"/>
   <path id="10" fill="#F6E708" fill-rule="nonzero" d="M626 62c-1,0 -2,0 -2,0 -1,1 -2,1 -2,2 0,-1 0,-2 0,-3 1,0 1,-1 2,-2 1,0 2,-1 3,-1 1,-1 2,-1 3,-1 2,0 3,1 5,1 1,1 2,2 2,4 2,-2 3,-3 5,-3 1,-1 3,-2 5,-2 1,0 2,0 3,1 1,0 1,1 2,1 1,1 1,1 2,2 0,1 0,2 0,3 0,1 0,2 -1,3 -1,1 -2,2 -4,2 -1,0 -2,0 -2,-1 -1,0 -1,-1 -2,-1 0,-1 0,-1 0,-2 -1,0 -1,-1 -1,-2 0,-1 0,-2 1,-2 0,-1 0,-2 0,-2 0,0 -1,0 -2,0 0,1 -1,1 -2,2 -1,0 -1,1 -2,2 0,0 -1,1 -1,2l0 19c0,1 0,2 0,2 0,1 0,2 0,2 0,1 1,1 1,1 1,0 2,1 3,1l0 1 -19 0 0 -1c1,0 2,-1 3,-1 0,0 0,0 1,-1 0,0 0,-1 0,-2 0,0 0,-1 0,-2l0 -20c0,-1 0,-2 0,-2 -1,0 -1,0 -1,0z"/>
   <rect fill="url(#id0)" y="55" width="203.04" height="14.6899" rx="12" ry="12"/>
   <rect fill="url(#id1)" y="73" width="203.04" height="14.6899" rx="12" ry="12"/>
  </g>
  <rect fill="none" width="654" height="149"/>
 </g>
</svg>
