

<!-- Creator: CorelDRAW X8 -->
<svg xmlns="http://www.w3.org/2000/svg" xml:space="preserve" width="105.082mm" height="25mm" version="1.1" shape-rendering="geometricPrecision" text-rendering="geometricPrecision" image-rendering="optimizeQuality" fill-rule="evenodd" clip-rule="evenodd"
viewBox="0 0 599 142"
 xmlns:xlink="http://www.w3.org/1999/xlink">
 <defs>
    <linearGradient id="id0" gradientUnits="userSpaceOnUse" x1="2.02048" y1="59.8464" x2="196.498" y2="59.8464">
     <stop offset="0" stop-opacity="1" stop-color="#0C9845"/>
     <stop offset="1" stop-opacity="1" stop-color="black"/>
    </linearGradient>
    <linearGradient id="id1" gradientUnits="userSpaceOnUse" x1="2.02048" y1="77.0683" x2="196.498" y2="77.0683">
     <stop offset="0" stop-opacity="1" stop-color="#0C9845"/>
     <stop offset="1" stop-opacity="1" stop-color="black"/>
    </linearGradient>
 </defs>
 <g id="Katman_x0020_1">
  <metadata id="CorelCorpID_0Corel-Layer"/>
  <g id="_2222492443008">
   <path fill="#085F2B" fill-rule="nonzero" d="M222 87l0 -1c1,0 2,0 3,0 0,0 1,-1 1,-1 0,0 0,-1 0,-2 0,0 0,-1 0,-2l0 -32c0,-1 0,-2 0,-2 0,-1 0,-1 0,-2 0,0 -1,-1 -1,-1 -1,0 -2,0 -3,0l0 -1 17 0c7,0 13,2 17,6 4,4 6,9 6,16 0,7 -2,12 -6,16 -4,4 -10,6 -17,6l-17 0zm17 -1c1,0 3,-1 5,-1 1,-1 2,-2 3,-4 1,-1 2,-4 3,-6 1,-3 1,-6 1,-10 0,-4 0,-7 -1,-10 -1,-2 -2,-4 -3,-6 -1,-2 -2,-3 -3,-3 -2,-1 -4,-1 -5,-1l-2 0 0 41 2 0z"/>
   <path id="1" fill="#085F2B" fill-rule="nonzero" d="M286 88c-3,0 -5,0 -7,-1 -3,-1 -4,-2 -6,-4 -1,-1 -3,-3 -3,-5 -1,-2 -2,-5 -2,-7 0,-3 1,-5 2,-7 0,-2 1,-4 3,-5 1,-1 3,-2 5,-3 3,-1 5,-1 8,-1 1,0 2,0 4,0 2,0 3,1 4,2 2,0 3,1 4,3 1,1 1,2 1,4 0,1 0,3 -1,4 0,1 -1,1 -2,2 -2,1 -3,1 -4,2 -2,0 -3,0 -5,1 -1,0 -3,0 -4,0 -1,0 -3,0 -4,0 0,3 0,5 1,7 0,1 0,3 1,4 0,1 1,1 2,2 1,0 2,0 3,0 2,0 4,0 7,-1 2,-1 4,-2 6,-4 0,1 -1,2 -1,3 -1,0 -2,1 -3,2 -1,1 -2,1 -3,1 -2,1 -4,1 -6,1zm-7 -17c1,0 3,0 4,0 1,0 2,-1 3,-1 1,-1 2,-1 2,-2 1,-1 1,-3 1,-5 0,0 0,-1 0,-2 0,-1 -1,-2 -1,-2 0,-1 -1,-2 -1,-2 -1,-1 -2,-1 -2,-1 -1,0 -2,0 -3,1 0,0 -1,1 -1,2 -1,2 -1,3 -1,5 -1,2 -1,4 -1,7z"/>
   <path id="2" fill="#085F2B" fill-rule="nonzero" d="M308 59c-1,0 -2,1 -2,1 -1,0 -2,1 -2,2 0,-1 0,-2 0,-3 1,0 1,-1 2,-2 1,0 2,-1 3,-1 1,-1 2,-1 3,-1 1,0 3,1 4,1 1,1 2,2 3,3 1,-1 2,-2 4,-3 1,-1 3,-1 5,-1 1,0 3,0 5,1 1,0 2,1 3,2 1,1 2,2 3,3 0,1 1,3 1,4l0 16c0,1 0,1 0,2 1,0 1,0 1,0 1,0 1,0 2,0 1,-1 1,-1 2,-2 0,1 0,2 -1,2 0,1 -1,2 -1,2 -1,1 -2,2 -3,2 -1,0 -2,0 -3,0 -1,0 -2,0 -3,0 -1,0 -1,-1 -2,-1 -1,-1 -1,-2 -2,-2 0,-1 0,-2 0,-3l0 -16c0,-1 -1,-3 -1,-4 0,-1 0,-2 -1,-2 0,-1 -1,-1 -2,-2 0,0 -1,0 -1,0 -1,0 -2,0 -2,0 -1,1 -1,1 -2,2 0,0 -1,1 -1,1 0,1 -1,1 -1,2l0 19c0,1 0,2 0,2 0,1 0,2 1,2 0,0 0,1 1,1 0,0 1,0 2,0l0 1 -18 0 0 -1c1,0 2,0 3,0 0,0 0,-1 1,-1 0,0 0,-1 0,-2 0,0 0,-1 0,-2l0 -19c0,-1 0,-2 0,-2 -1,0 -1,-1 -1,-1z"/>
   <path id="3" fill="#085F2B" fill-rule="nonzero" d="M350 59c0,0 -1,1 -1,1 -1,0 -2,1 -2,2 0,-1 0,-2 0,-3 1,0 1,-1 2,-2 1,0 2,-1 3,-1 1,-1 2,-1 3,-1 1,0 1,0 2,1 1,0 2,0 3,1 0,0 1,1 1,2 1,1 1,2 1,3l0 19c0,1 0,2 0,2 0,1 0,2 0,2 1,0 1,1 2,1 0,0 1,0 2,0l0 1 -18 0 0 -1c1,0 2,0 2,0 1,0 1,-1 1,-1 1,0 1,-1 1,-2 0,0 0,-1 0,-2l0 -19c0,-1 0,-2 -1,-2 0,0 0,-1 -1,-1zm3 -13c0,-1 0,-2 1,-2 1,-1 1,-1 2,-1 1,0 2,0 3,1 1,0 1,1 1,2 0,1 0,2 -1,3 -1,0 -2,1 -3,1 -1,0 -1,-1 -2,-1 -1,-1 -1,-2 -1,-3z"/>
   <path id="4" fill="#085F2B" fill-rule="nonzero" d="M378 57c-2,0 -2,0 -3,1 -1,0 -1,1 -1,2 -1,1 -1,2 -1,3 0,1 0,2 0,3l-2 0 0 -10 29 0 0 1 -18 29 12 0c1,0 2,-1 3,-1 0,-1 1,-1 1,-2 1,-1 1,-2 1,-3 0,-1 0,-2 0,-3l2 0 0 10 -30 0 0 -1 18 -29 -11 0z"/>
   <path id="5" fill="#085F2B" fill-rule="nonzero" d="M409 47c-1,0 -2,0 -2,0 -1,1 -2,1 -2,2 0,-1 0,-2 0,-2 1,-1 1,-2 2,-2 1,-1 2,-1 3,-2 1,0 2,0 3,0 1,0 2,0 2,0 1,0 2,1 3,1 1,1 1,1 2,2 0,1 0,2 0,3l0 32c0,1 0,2 0,2 0,1 0,2 1,2 0,0 0,1 1,1 0,0 1,0 2,0l0 1 -18 0 0 -1c1,0 2,0 2,0 1,0 1,-1 2,-1 0,0 0,-1 0,-2 0,0 0,-1 0,-2l0 -32c0,-1 0,-1 0,-2 -1,0 -1,0 -1,0z"/>
   <path id="6" fill="#085F2B" fill-rule="nonzero" d="M431 59c-1,0 -1,1 -2,1 0,0 -1,1 -2,2 0,-1 0,-2 1,-3 0,0 1,-1 2,-2 0,0 1,-1 2,-1 1,-1 2,-1 3,-1 1,0 2,0 3,1 1,0 2,0 2,1 1,0 2,1 2,2 0,1 1,2 1,3l0 19c0,1 0,2 0,2 0,1 0,2 0,2 0,0 1,1 1,1 1,0 1,0 2,0l0 1 -17 0 0 -1c1,0 1,0 2,0 0,0 1,-1 1,-1 0,0 0,-1 0,-2 1,0 1,-1 1,-2l0 -19c0,-1 -1,-2 -1,-2 0,0 -1,-1 -1,-1zm2 -13c0,-1 1,-2 1,-2 1,-1 2,-1 3,-1 1,0 2,0 2,1 1,0 1,1 1,2 0,1 0,2 -1,3 0,0 -1,1 -2,1 -1,0 -2,-1 -3,-1 0,-1 -1,-2 -1,-3z"/>
   <path id="7" fill="#085F2B" fill-rule="nonzero" d="M459 78c0,1 0,3 -1,4 0,0 0,0 0,0 0,1 0,1 0,1 0,1 0,1 1,2 0,0 0,0 1,0 1,1 1,1 2,1 1,0 1,0 2,0 1,0 3,0 4,-1 1,0 1,-2 1,-3 0,-1 0,-2 0,-2 0,-1 -1,-1 -1,-2 -1,0 -2,-1 -2,-1 -1,-1 -2,-1 -4,-2 -2,-1 -4,-2 -5,-3 -2,-1 -3,-2 -4,-3 -1,-1 -1,-2 -2,-2 0,-1 0,-2 0,-3 0,-2 0,-3 1,-4 0,-1 1,-2 2,-3 2,-1 3,-1 5,-2 1,0 3,0 5,0 2,0 4,0 6,0 1,1 3,1 4,2 1,1 2,2 3,3 1,1 1,2 1,4 0,1 0,2 -1,3 -1,1 -2,2 -3,2 -2,0 -3,-1 -4,-2 -1,0 -1,-2 -1,-3 0,-1 0,-2 0,-2 1,-1 1,-2 1,-2 0,-1 1,-1 1,-1 0,-1 -1,-1 -2,-2 -1,0 -2,-1 -3,-1 -1,0 -2,1 -3,2 -1,0 -2,1 -2,3 0,0 0,1 1,2 0,1 1,1 1,2 1,0 2,1 2,1 1,1 1,1 2,1 2,1 5,3 6,4 2,1 3,2 4,3 1,0 1,1 2,2 0,1 0,2 0,3 0,1 0,2 -1,3 -1,2 -2,3 -3,3 -2,1 -3,2 -5,2 -2,1 -4,1 -6,1 -2,0 -3,0 -5,0 -2,-1 -3,-1 -5,-2 -1,-1 -2,-2 -3,-3 -1,-1 -1,-3 -1,-4 0,-2 0,-3 1,-4 1,-1 2,-2 4,-2 1,0 2,1 3,2 1,1 1,2 1,3z"/>
   <path id="8" fill="#085F2B" fill-rule="nonzero" d="M484 62c0,-1 0,-2 0,-3 1,0 1,-1 2,-2 1,0 2,-1 2,-1 1,-1 2,-1 3,-1 1,0 2,0 3,1 0,0 1,1 2,1 0,1 1,1 1,2 1,0 1,1 1,1 0,0 0,0 0,0 0,1 0,1 0,1 1,-2 2,-4 4,-5 2,-1 3,-1 6,-1 1,0 3,0 5,1 1,0 2,2 4,3 1,1 2,3 2,5 1,2 1,5 1,8 0,2 0,5 -1,7 0,2 -1,3 -2,5 -2,1 -3,2 -5,3 -1,1 -3,1 -5,1 -1,0 -3,0 -4,0 0,-1 -1,-1 -2,-1 0,0 -1,-1 -1,-1 0,0 0,0 -1,0l0 7c0,1 0,2 0,3 0,1 0,1 1,2 0,0 0,0 1,1 0,0 1,0 2,0l0 1 -18 0 0 -1c1,0 2,0 3,0 0,-1 0,-1 1,-1 0,-1 0,-1 0,-2 0,-1 0,-2 0,-3l0 -31c0,-1 0,-1 0,-2 -1,0 -1,-1 -2,-1 0,0 -1,1 -1,1 -1,0 -2,1 -2,2zm15 22c1,0 2,1 2,1 1,1 2,1 3,1 1,0 2,0 2,0 1,-1 2,-2 2,-3 0,-1 1,-2 1,-4 0,-2 1,-4 1,-7 0,-3 -1,-6 -1,-8 0,-2 -1,-3 -1,-4 0,-1 -1,-2 -2,-3 0,0 -1,0 -1,0 -1,0 -2,0 -2,0 -1,1 -1,1 -2,2 0,0 -1,1 -1,1 0,1 -1,1 -1,2l0 22z"/>
   <path id="9" fill="#085F2B" fill-rule="nonzero" d="M544 87c1,0 1,-1 2,-1 1,-1 1,-1 2,-2 1,-2 1,-3 2,-5 0,-2 0,-5 0,-8 0,-3 0,-5 0,-7 -1,-2 -1,-4 -2,-5 -1,-1 -1,-2 -2,-2 -1,-1 -1,-1 -2,-1 -1,0 -1,0 -2,1 -1,0 -2,1 -2,2 -1,1 -1,3 -2,5 0,2 0,4 0,7 0,3 0,6 0,8 1,2 1,3 2,5 0,1 1,1 2,2 1,0 1,1 2,1zm0 -32c3,0 5,0 7,1 2,1 4,2 5,3 2,2 3,3 4,5 0,2 1,5 1,7 0,3 -1,5 -1,7 -1,2 -2,4 -4,6 -1,1 -3,2 -5,3 -2,1 -4,1 -7,1 -3,0 -5,0 -7,-1 -2,-1 -4,-2 -5,-3 -2,-2 -3,-4 -4,-6 -1,-2 -1,-4 -1,-7 0,-2 0,-5 1,-7 1,-2 2,-3 4,-5 1,-1 3,-2 5,-3 2,-1 4,-1 7,-1z"/>
   <path id="10" fill="#085F2B" fill-rule="nonzero" d="M569 59c0,0 -1,1 -2,1 0,0 -1,1 -2,2 0,-1 1,-2 1,-3 0,0 1,-1 2,-2 1,0 1,-1 2,-1 1,-1 2,-1 3,-1 2,0 3,1 5,1 1,1 2,2 3,4 1,-2 2,-3 3,-3 2,-1 4,-2 5,-2 1,0 2,1 3,1 1,0 2,1 3,1 0,1 1,1 1,2 1,1 1,2 1,2 0,2 -1,3 -2,4 -1,1 -2,1 -3,1 -1,0 -2,0 -3,0 0,-1 -1,-1 -1,-1 0,-1 -1,-1 -1,-2 0,-1 0,-1 0,-2 0,-1 0,-2 0,-2 1,-1 1,-2 1,-2 0,0 -1,0 -2,0 0,1 -1,1 -2,2 -1,0 -1,1 -2,2 0,0 -1,1 -1,1l0 19c0,1 0,2 0,2 0,1 0,2 0,2 1,0 1,1 1,1 1,0 2,0 3,0l0 1 -18 0 0 -1c1,0 2,0 2,0 1,0 1,-1 1,-1 0,0 1,-1 1,-2 0,0 0,-1 0,-2l0 -19c0,-1 0,-2 -1,-2 0,0 0,-1 -1,-1z"/>
   <rect fill="url(#id0)" x="2" y="53" width="194.477" height="14.0704" rx="11" ry="11"/>
   <rect fill="url(#id1)" x="2" y="70" width="194.477" height="14.0704" rx="11" ry="11"/>
  </g>
  <rect fill="none" width="599" height="142"/>
 </g>
</svg>
