

<!-- Creator: CorelDRAW X8 -->
<svg xmlns="http://www.w3.org/2000/svg" xml:space="preserve" x="0" y="0" width="55.109mm" height="25mm" version="1.1" shape-rendering="geometricPrecision" text-rendering="geometricPrecision" image-rendering="optimizeQuality" fill-rule="evenodd" clip-rule="evenodd"
viewBox="0 0 180 81"
 xmlns:xlink="http://www.w3.org/1999/xlink">
 <defs>
   <linearGradient id="id0" gradientUnits="userSpaceOnUse" x1="0.00029424" y1="40.7456" x2="179.635" y2="40.7456">
    <stop offset="0" stop-opacity="1" stop-color="#DB1F29"/>
    <stop offset="1" stop-opacity="1" stop-color="#FEFEFE"/>
   </linearGradient>
   <linearGradient id="id1" gradientUnits="userSpaceOnUse" x1="0.00029424" y1="40.7456" x2="179.635" y2="40.7456">
    <stop offset="0" stop-opacity="1" stop-color="#DB1F29"/>
    <stop offset="1" stop-opacity="1" stop-color="#FEFEFE"/>
   </linearGradient>
   <linearGradient id="id2" gradientUnits="userSpaceOnUse" x1="0.00029424" y1="40.7456" x2="179.635" y2="40.7456">
    <stop offset="0" stop-opacity="1" stop-color="#DB1F29"/>
    <stop offset="1" stop-opacity="1" stop-color="#FEFEFE"/>
   </linearGradient>
   <linearGradient id="id3" gradientUnits="userSpaceOnUse" x1="0.00029424" y1="40.7456" x2="179.635" y2="40.7456">
    <stop offset="0" stop-opacity="1" stop-color="#DB1F29"/>
    <stop offset="1" stop-opacity="1" stop-color="#FEFEFE"/>
   </linearGradient>
   <linearGradient id="id4" gradientUnits="userSpaceOnUse" x1="0.00029424" y1="40.7456" x2="179.635" y2="40.7456">
    <stop offset="0" stop-opacity="1" stop-color="#DB1F29"/>
    <stop offset="1" stop-opacity="1" stop-color="#FEFEFE"/>
   </linearGradient>
   <linearGradient id="id5" gradientUnits="userSpaceOnUse" x1="0.00029424" y1="40.7456" x2="179.635" y2="40.7456">
    <stop offset="0" stop-opacity="1" stop-color="#DB1F29"/>
    <stop offset="1" stop-opacity="1" stop-color="#FEFEFE"/>
   </linearGradient>
   <linearGradient id="id6" gradientUnits="userSpaceOnUse" x1="0.00029424" y1="40.7456" x2="179.635" y2="40.7456">
    <stop offset="0" stop-opacity="1" stop-color="#DB1F29"/>
    <stop offset="1" stop-opacity="1" stop-color="#FEFEFE"/>
   </linearGradient>
   <linearGradient id="id7" gradientUnits="userSpaceOnUse" x1="0.00029424" y1="40.7456" x2="179.635" y2="40.7456">
    <stop offset="0" stop-opacity="1" stop-color="#DB1F29"/>
    <stop offset="1" stop-opacity="1" stop-color="#FEFEFE"/>
   </linearGradient>
   <linearGradient id="id8" gradientUnits="userSpaceOnUse" x1="0.00029424" y1="40.7456" x2="179.635" y2="40.7456">
    <stop offset="0" stop-opacity="1" stop-color="#DB1F29"/>
    <stop offset="1" stop-opacity="1" stop-color="#FEFEFE"/>
   </linearGradient>
 </defs>
 <g id="Katman_x0020_1">
  <metadata id="CorelCorpID_0Corel-Layer"/>
  <rect fill="none" width="179.636" height="81.491"/>
  <path fill="url(#id0)" fill-rule="nonzero" d="M9 50c1,0 2,-1 3,-2 1,0 2,-1 2,-3 0,0 -1,-1 -1,-1 0,-1 0,-1 -1,-1 0,-1 -1,-2 -2,-2 -1,-1 -2,-1 -3,-2 -1,0 -1,-1 -2,-1 -1,-1 -1,-1 -2,-2 -1,-1 -1,-1 -2,-2 0,-1 0,-2 0,-3 0,-1 0,-2 0,-3 1,-1 1,-1 2,-2 1,0 1,-1 3,-1 1,-1 2,-1 4,-1 1,0 2,0 3,0 1,1 1,1 2,1 1,1 2,1 2,2 0,0 1,1 1,2 0,1 0,1 -1,2 0,0 0,0 0,1 -1,0 -1,0 -1,0 -1,1 -1,1 -2,1 0,0 0,0 -1,-1 0,0 0,0 -1,0 0,0 0,-1 0,-1 -1,-1 -1,-1 -1,-2 0,-1 1,-2 2,-3 0,0 -1,0 -1,0 0,-1 0,-1 0,-1 0,0 -1,0 -1,0 0,0 0,0 -1,0 -1,0 -2,1 -3,1 0,1 -1,2 -1,3 0,1 0,1 1,2 0,1 0,1 1,1 0,1 1,1 1,2 1,0 1,0 2,0 1,1 2,2 3,2 1,1 2,2 3,2 0,1 1,2 1,3 1,0 1,1 1,2 0,1 0,2 -1,3 0,1 -1,2 -2,3 -1,0 -2,1 -3,1 -1,0 -2,1 -4,1 -1,0 -2,-1 -3,-1 -1,0 -2,0 -3,-1 -1,0 -2,-1 -2,-2 -1,0 -1,-1 -1,-2 0,0 0,-1 0,-1 0,-1 0,-1 1,-1 0,-1 0,-1 1,-1 0,0 0,0 1,0 0,0 1,0 1,0 0,0 1,0 1,0 0,1 1,1 1,1 0,1 0,1 0,2 0,1 0,1 0,2 0,0 0,1 -1,1 0,0 0,0 0,0 0,1 0,1 0,1 1,0 1,0 1,0 1,0 1,1 1,1 1,0 1,0 2,0z"/>
  <path id="1" fill="url(#id1)" fill-rule="nonzero" d="M23 34c0,0 -1,0 -1,1 0,0 -1,0 -1,0 0,0 0,0 0,-1 0,0 1,-1 1,-1 1,0 1,-1 2,-1 0,0 1,0 1,0 1,0 1,0 2,0 0,0 1,0 1,1 1,0 1,0 1,1 1,0 1,1 1,1l0 11c0,1 0,1 0,2 0,0 0,1 0,1 0,0 0,0 1,0 0,0 0,1 1,1l0 0 -10 0 0 0c0,0 1,-1 1,-1 0,0 0,0 1,0 0,0 0,-1 0,-1 0,-1 0,-1 0,-2l0 -11c0,0 0,0 0,-1 -1,0 -1,0 -1,0zm1 -7c0,-1 1,-1 1,-2 0,0 1,0 1,0 1,0 1,0 2,0 0,1 0,1 0,2 0,0 0,1 0,1 -1,0 -1,1 -2,1 0,0 -1,-1 -1,-1 0,0 -1,-1 -1,-1z"/>
  <path id="2" fill="url(#id2)" fill-rule="nonzero" d="M36 36c-1,-1 -1,-2 -2,-2 0,0 0,0 -1,1 0,0 0,0 -1,0 0,0 0,-1 1,-1 0,0 0,-1 1,-1 0,0 1,-1 1,-1 1,0 2,0 2,0 1,0 2,0 3,1 1,0 1,1 2,2l3 8 4 -9c0,0 0,-1 0,-1 0,0 0,0 0,0 0,0 0,0 0,0 -1,0 -1,0 -1,0 0,0 0,0 -1,0l0 0 0 -1 6 0 0 1c-1,0 -2,0 -2,0 0,0 0,0 -1,1l-7 16 -1 0 -6 -14z"/>
  <path id="3" fill="url(#id3)" fill-rule="nonzero" d="M52 46c0,-2 1,-3 1,-3 1,-1 2,-2 3,-2 1,0 2,-1 3,-1 1,0 2,0 3,0 1,0 1,0 1,0 0,0 1,0 1,0l0 -1c0,-1 0,-2 0,-3 -1,-1 -1,-2 -1,-2 0,-1 -1,-1 -1,-2 -1,0 -1,0 -2,0 -1,0 -1,0 -1,0 0,1 0,1 0,2 0,0 0,1 0,1 0,1 0,2 0,2 -1,1 -2,1 -2,1 -1,0 -2,0 -2,-1 -1,0 -1,-1 -1,-2 0,0 0,-1 0,-1 1,-1 1,-1 2,-1 0,-1 1,-1 2,-1 0,0 1,-1 3,-1 1,0 2,1 3,1 2,0 3,1 3,2 1,0 2,1 2,2 0,1 1,2 1,3l0 7c0,1 0,1 0,1 0,1 0,1 1,1 0,0 0,0 1,0 0,-1 0,-1 1,-1 0,0 0,1 -1,1 0,0 0,1 -1,1 0,0 -1,1 -1,1 -1,0 -1,0 -2,0 -1,0 -1,0 -2,-1 -1,0 -1,-1 -2,-2 0,1 -1,2 -2,3 -1,0 -2,1 -3,1 -2,0 -4,-1 -5,-2 -1,-1 -2,-2 -2,-3zm9 3c0,0 0,0 1,0 0,0 0,0 1,-1 0,0 0,0 0,-1 1,0 1,0 1,-1l0 -5c-1,0 -1,0 -2,0 0,0 -1,0 -1,0 -1,0 -1,1 -2,2 0,1 -1,2 -1,3 0,1 1,2 1,3 1,0 1,0 2,0z"/>
  <path id="4" fill="url(#id4)" fill-rule="nonzero" d="M81 45c0,1 0,1 -1,2 0,0 0,0 0,0 0,0 0,1 0,1 0,0 0,0 0,1 1,0 1,0 1,0 1,0 1,0 1,0 1,0 1,0 1,0 1,0 2,0 3,0 0,0 0,-1 0,-2 0,0 0,-1 0,-1 0,0 0,-1 0,-1 -1,0 -1,-1 -2,-1 0,0 -1,0 -1,-1 -2,-1 -3,-1 -4,-2 0,0 -1,-1 -2,-1 0,-1 -1,-1 -1,-2 0,0 0,-1 0,-1 0,-1 0,-2 0,-2 1,-1 1,-2 2,-2 1,-1 2,-1 2,-1 1,0 2,-1 4,-1 1,0 2,1 3,1 1,0 2,0 2,1 1,0 2,1 2,1 0,1 1,2 1,3 0,0 -1,1 -1,2 -1,0 -1,0 -2,0 -1,0 -1,0 -2,0 0,-1 -1,-1 -1,-2 0,-1 0,-1 1,-2 0,0 0,0 0,0 0,-1 0,-1 0,-1 0,0 0,-1 0,-1 -1,0 -2,-1 -2,-1 -1,0 -2,1 -2,1 -1,1 -1,1 -1,2 0,0 0,1 0,1 1,1 1,1 1,1 0,1 1,1 1,1 1,0 1,0 1,1 2,0 3,1 4,2 1,0 1,1 2,1 0,1 1,1 1,2 0,0 0,1 0,1 0,1 0,2 0,2 -1,1 -1,2 -2,2 -1,1 -2,1 -3,1 -1,0 -2,1 -3,1 -1,0 -2,-1 -3,-1 -1,0 -2,0 -3,-1 -1,0 -1,-1 -2,-1 0,-1 -1,-2 -1,-3 0,-1 1,-2 1,-2 1,-1 1,-1 2,-1 1,0 2,0 2,1 1,0 1,1 1,2z"/>
  <path id="5" fill="url(#id5)" fill-rule="nonzero" d="M101 45c0,1 0,1 -1,2 0,0 0,0 0,0 0,0 0,1 0,1 0,0 0,0 1,1 0,0 0,0 0,0 1,0 1,0 1,0 1,0 1,0 2,0 0,0 1,0 2,0 0,0 1,-1 1,-2 0,0 0,-1 -1,-1 0,0 0,-1 0,-1 -1,0 -1,-1 -1,-1 -1,0 -1,0 -2,-1 -1,-1 -3,-1 -3,-2 -1,0 -2,-1 -2,-1 -1,-1 -1,-1 -2,-2 0,0 0,-1 0,-1 0,-1 0,-2 1,-2 0,-1 1,-2 1,-2 1,-1 2,-1 3,-1 1,0 2,-1 3,-1 1,0 2,1 3,1 1,0 2,0 3,1 0,0 1,1 1,1 1,1 1,2 1,3 0,0 0,1 -1,2 0,0 -1,0 -2,0 0,0 -1,0 -2,0 0,-1 0,-1 0,-2 0,-1 0,-1 0,-2 0,0 0,0 0,0 0,-1 0,-1 0,-1 0,0 0,-1 0,-1 -1,0 -1,-1 -2,-1 -1,0 -2,1 -2,1 -1,1 -1,1 -1,2 0,0 0,1 0,1 1,1 1,1 1,1 1,1 1,1 1,1 1,0 1,0 1,1 2,0 3,1 4,2 1,0 2,1 2,1 1,1 1,1 1,2 0,0 0,1 0,1 0,1 0,2 0,2 -1,1 -1,2 -2,2 -1,1 -2,1 -3,1 -1,0 -2,1 -3,1 -1,0 -2,-1 -3,-1 -1,0 -2,0 -3,-1 -1,0 -1,-1 -2,-1 0,-1 -1,-2 -1,-3 0,-1 1,-2 1,-2 1,-1 1,-1 2,-1 1,0 2,0 2,1 1,0 1,1 1,2z"/>
  <path id="6" fill="url(#id6)" fill-rule="nonzero" d="M115 35c0,0 0,0 0,-1 1,0 1,-1 1,-1 1,0 1,-1 2,-1 0,0 1,0 1,0 1,0 1,0 2,0 0,0 0,1 1,1 0,0 0,0 1,1 0,0 0,0 0,1 0,0 0,0 0,0 0,0 0,0 0,0 1,-1 1,-2 2,-3 1,0 2,-1 4,-1 1,0 2,1 2,1 1,0 2,1 3,2 0,1 1,2 1,3 1,1 1,2 1,4 0,2 0,3 -1,4 0,1 -1,2 -1,3 -1,1 -2,2 -3,2 -1,0 -2,1 -3,1 -1,0 -1,0 -2,-1 0,0 -1,0 -1,0 0,0 0,0 -1,0 0,-1 0,-1 0,-1l0 5c0,0 0,1 0,1 0,0 0,1 0,1 0,0 0,0 1,1 0,0 0,0 1,0l0 0 -10 0 0 0c0,0 1,0 1,0 0,-1 1,-1 1,-1 0,0 0,-1 0,-1 0,0 0,-1 0,-1l0 -18c0,-1 0,-1 0,-1 0,-1 -1,-1 -1,-1 0,0 0,0 -1,1 0,0 -1,0 -1,0zm9 13c0,0 1,1 1,1 1,0 1,0 2,0 0,0 1,0 1,0 0,0 1,-1 1,-1 0,-1 0,-2 1,-3 0,-1 0,-2 0,-4 0,-2 0,-3 0,-4 -1,-1 -1,-2 -1,-3 0,0 -1,-1 -1,-1 0,0 -1,0 -1,0 0,0 -1,0 -1,0 0,0 -1,0 -1,1 0,0 0,0 -1,1 0,0 0,0 0,1l0 12z"/>
  <path id="7" fill="url(#id7)" fill-rule="nonzero" d="M149 50c1,0 1,0 2,-1 0,0 0,0 1,-1 0,-1 0,-2 1,-3 0,-1 0,-2 0,-4 0,-2 0,-3 0,-4 -1,-1 -1,-2 -1,-3 -1,-1 -1,-1 -1,-1 -1,-1 -1,-1 -2,-1 0,0 0,0 -1,1 0,0 -1,0 -1,1 0,1 -1,2 -1,3 0,1 0,2 0,4 0,2 0,3 0,4 0,1 1,2 1,3 0,1 1,1 1,1 1,1 1,1 1,1zm0 -19c2,0 3,1 4,1 2,1 3,1 4,2 0,1 1,2 1,3 1,1 1,3 1,4 0,2 0,3 -1,4 0,1 -1,2 -1,3 -1,1 -2,2 -4,2 -1,0 -2,1 -4,1 -1,0 -2,-1 -4,-1 -1,0 -2,-1 -3,-2 0,-1 -1,-2 -2,-3 0,-1 0,-2 0,-4 0,-1 0,-3 0,-4 1,-1 2,-2 2,-3 1,-1 2,-1 3,-2 2,0 3,-1 4,-1z"/>
  <path id="8" fill="url(#id8)" fill-rule="nonzero" d="M164 34c0,0 -1,0 -1,1 -1,0 -1,0 -1,0 0,0 0,0 0,-1 0,0 1,-1 1,-1 0,0 1,-1 2,-1 0,0 1,0 1,0 1,0 2,0 3,0 1,1 1,2 1,2 1,0 2,-1 3,-1 0,-1 1,-1 2,-1 1,0 2,0 2,0 1,0 1,1 1,1 1,0 1,1 1,1 1,0 1,1 1,1 0,1 -1,2 -1,2 -1,1 -1,1 -2,1 -1,0 -1,0 -2,0 0,0 0,-1 0,-1 0,0 -1,0 -1,-1 0,0 0,-1 0,-1 0,0 0,-1 0,-1 0,-1 1,-1 1,-1 -1,0 -1,0 -1,0 -1,0 -1,0 -2,1 0,0 0,0 -1,1 0,0 0,1 0,1l0 10c0,1 0,1 0,2 0,0 0,1 0,1 0,0 0,0 0,0 1,0 1,1 2,1l0 0 -10 0 0 0c0,0 1,-1 1,-1 0,0 0,0 0,0 1,0 1,-1 1,-1 0,-1 0,-1 0,-2l0 -11c0,0 0,0 0,-1 -1,0 -1,0 -1,0z"/>
 </g>
</svg>
