

<!-- Creator: CorelDRAW X8 -->
<svg xmlns="http://www.w3.org/2000/svg" xml:space="preserve" width="116.504mm" height="25mm" version="1.1" shape-rendering="geometricPrecision" text-rendering="geometricPrecision" image-rendering="optimizeQuality" fill-rule="evenodd" clip-rule="evenodd"
viewBox="0 0 731 157"
 xmlns:xlink="http://www.w3.org/1999/xlink">
 <defs>
    <linearGradient id="id0" gradientUnits="userSpaceOnUse" x1="242.867" y1="78.4797" x2="731.463" y2="78.4797">
     <stop offset="0" stop-opacity="1" stop-color="#1481C2"/>
     <stop offset="1" stop-opacity="1" stop-color="#ECECEC"/>
    </linearGradient>
    <linearGradient id="id1" gradientUnits="userSpaceOnUse" x1="242.867" y1="78.4797" x2="731.463" y2="78.4797">
     <stop offset="0" stop-opacity="1" stop-color="#1481C2"/>
     <stop offset="1" stop-opacity="1" stop-color="#ECECEC"/>
    </linearGradient>
    <linearGradient id="id2" gradientUnits="userSpaceOnUse" x1="242.867" y1="78.4797" x2="731.463" y2="78.4797">
     <stop offset="0" stop-opacity="1" stop-color="#1481C2"/>
     <stop offset="1" stop-opacity="1" stop-color="#ECECEC"/>
    </linearGradient>
    <linearGradient id="id3" gradientUnits="userSpaceOnUse" x1="242.867" y1="78.4797" x2="731.463" y2="78.4797">
     <stop offset="0" stop-opacity="1" stop-color="#1481C2"/>
     <stop offset="1" stop-opacity="1" stop-color="#ECECEC"/>
    </linearGradient>
    <linearGradient id="id4" gradientUnits="userSpaceOnUse" x1="242.867" y1="78.4797" x2="731.463" y2="78.4797">
     <stop offset="0" stop-opacity="1" stop-color="#1481C2"/>
     <stop offset="1" stop-opacity="1" stop-color="#ECECEC"/>
    </linearGradient>
    <linearGradient id="id5" gradientUnits="userSpaceOnUse" x1="242.867" y1="78.4797" x2="731.463" y2="78.4797">
     <stop offset="0" stop-opacity="1" stop-color="#1481C2"/>
     <stop offset="1" stop-opacity="1" stop-color="#ECECEC"/>
    </linearGradient>
    <linearGradient id="id6" gradientUnits="userSpaceOnUse" x1="242.867" y1="78.4797" x2="731.463" y2="78.4797">
     <stop offset="0" stop-opacity="1" stop-color="#1481C2"/>
     <stop offset="1" stop-opacity="1" stop-color="#ECECEC"/>
    </linearGradient>
    <linearGradient id="id7" gradientUnits="userSpaceOnUse" x1="242.867" y1="78.4797" x2="731.463" y2="78.4797">
     <stop offset="0" stop-opacity="1" stop-color="#1481C2"/>
     <stop offset="1" stop-opacity="1" stop-color="#ECECEC"/>
    </linearGradient>
    <linearGradient id="id8" gradientUnits="userSpaceOnUse" x1="242.867" y1="78.4797" x2="731.463" y2="78.4797">
     <stop offset="0" stop-opacity="1" stop-color="#1481C2"/>
     <stop offset="1" stop-opacity="1" stop-color="#ECECEC"/>
    </linearGradient>
    <linearGradient id="id9" gradientUnits="userSpaceOnUse" x1="242.867" y1="78.4797" x2="731.463" y2="78.4797">
     <stop offset="0" stop-opacity="1" stop-color="#1481C2"/>
     <stop offset="1" stop-opacity="1" stop-color="#ECECEC"/>
    </linearGradient>
    <linearGradient id="id10" gradientUnits="userSpaceOnUse" x1="242.867" y1="78.4797" x2="731.463" y2="78.4797">
     <stop offset="0" stop-opacity="1" stop-color="#1481C2"/>
     <stop offset="1" stop-opacity="1" stop-color="#ECECEC"/>
    </linearGradient>
    <linearGradient id="id11" gradientUnits="userSpaceOnUse" x1="-0" y1="65.7696" x2="214.291" y2="65.7696">
     <stop offset="0" stop-opacity="1" stop-color="white"/>
     <stop offset="1" stop-opacity="1" stop-color="black"/>
    </linearGradient>
    <linearGradient id="id12" gradientUnits="userSpaceOnUse" x1="-0" y1="84.7461" x2="214.291" y2="84.7461">
     <stop offset="0" stop-opacity="1" stop-color="#1484C6"/>
     <stop offset="1" stop-opacity="1" stop-color="black"/>
    </linearGradient>
 </defs>
 <g id="Katman_x0020_1">
  <metadata id="CorelCorpID_0Corel-Layer"/>
  <g id="_2222488169552">
   <path fill="url(#id0)" fill-rule="nonzero" d="M243 95c1,0 2,0 2,-1 1,0 1,0 2,-1 0,0 0,-1 0,-1 0,-1 0,-2 0,-3l0 -35c0,-1 0,-2 0,-3 0,0 0,-1 0,-1 -1,-1 -1,-1 -2,-1 0,-1 -1,-1 -2,-1l0 -1 37 0 0 11 -2 0c0,-1 0,-2 0,-3 0,-1 0,-2 -1,-3 0,-1 0,-2 -1,-2 -1,-1 -1,-1 -3,-1l-14 0 0 22 8 0c0,0 1,0 1,-1 1,0 1,-1 1,-2 0,0 1,-1 1,-2 0,-1 0,-1 0,-2l2 0 0 16 -2 0c0,-1 0,-2 0,-3 0,-1 -1,-1 -1,-2 0,-1 0,-1 -1,-2 0,0 -1,0 -1,0l-8 0 0 21 16 0c1,0 2,0 2,-1 1,0 2,-1 2,-2 0,-1 0,-2 0,-3 0,-1 0,-2 0,-3l2 0 0 11 -38 0 0 -1z"/>
   <path id="1" fill="url(#id1)" fill-rule="nonzero" d="M289 65c0,0 -1,1 -2,1 0,0 -1,1 -2,2 0,-1 0,-2 1,-3 0,-1 1,-1 2,-2 1,-1 2,-1 3,-2 1,0 2,0 3,0 2,0 3,0 5,1 1,1 2,2 3,4 1,-2 3,-3 4,-4 2,-1 4,-1 6,-1 1,0 2,0 3,0 1,1 2,1 2,2 1,0 2,1 2,2 1,1 1,2 1,2 0,2 -1,3 -2,4 -1,1 -2,2 -4,2 -1,0 -2,0 -2,-1 -1,0 -1,0 -2,-1 0,-1 0,-1 -1,-2 0,-1 0,-1 0,-2 0,-1 0,-2 1,-3 0,0 0,-1 0,-1 0,0 -1,0 -2,0 -1,0 -1,1 -2,2 -1,0 -2,1 -2,2 -1,0 -1,1 -2,2l0 20c0,1 0,2 0,3 0,0 1,1 1,1 0,1 0,1 1,1 1,1 1,1 2,1l0 1 -19 0 0 -1c1,0 2,0 2,-1 1,0 1,0 2,-1 0,0 0,-1 0,-1 0,-1 0,-2 0,-3l0 -21c0,-1 0,-2 0,-2 -1,0 -1,-1 -2,-1z"/>
   <path id="2" fill="url(#id2)" fill-rule="nonzero" d="M332 63c-1,0 -2,0 -2,1 -1,0 -2,1 -2,2 0,1 0,2 0,3 -1,1 -1,2 -1,3l-1 0 0 -11 32 0 0 2 -20 31 13 0c1,0 2,0 3,-1 0,0 1,-1 1,-2 1,-1 1,-2 1,-3 0,-1 0,-2 0,-3l2 0 0 11 -33 0 0 -2 20 -31 -13 0z"/>
   <path id="3" fill="url(#id3)" fill-rule="nonzero" d="M366 65c0,0 -1,1 -1,1 -1,0 -2,1 -3,2 0,-1 1,-2 1,-3 1,-1 1,-1 2,-2 1,-1 2,-1 3,-2 1,0 2,0 3,0 1,0 2,0 3,0 1,1 2,1 3,2 1,0 1,1 2,2 0,1 0,2 0,3l0 17c0,2 1,3 1,5 0,1 1,2 1,2 1,1 1,2 2,2 0,0 1,0 2,0 1,0 1,0 2,0 0,0 1,-1 2,-1 0,-1 0,-2 1,-2 0,-1 1,-2 1,-2l0 -21c0,-1 0,-2 -1,-2 0,0 0,-1 -1,-1 0,0 -1,1 -2,1 -1,0 -1,1 -2,2 0,-1 0,-2 1,-3 0,-1 1,-1 2,-2 0,-1 1,-1 2,-2 1,0 3,0 4,0 1,0 2,0 3,0 1,1 2,1 2,2 1,0 2,1 2,2 1,1 1,2 1,3l0 21c0,1 0,2 0,2 1,0 1,1 2,1 0,0 1,-1 2,-1 0,0 1,-1 2,-2 0,1 0,2 -1,3 0,1 -1,1 -2,2 -1,1 -2,1 -3,2 -1,0 -2,0 -3,0 -2,0 -3,0 -5,-1 -1,-1 -2,-2 -3,-3 -1,2 -2,3 -4,4 -2,0 -3,1 -6,1 -1,0 -3,0 -5,-1 -1,-1 -3,-2 -4,-3 -1,-1 -2,-2 -3,-3 0,-2 -1,-3 -1,-5l0 -17c0,-1 0,-2 0,-2 -1,0 -1,-1 -2,-1z"/>
   <path id="4" fill="url(#id4)" fill-rule="nonzero" d="M414 65c-1,0 -1,1 -2,1 -1,0 -2,1 -2,2 0,-1 0,-2 0,-3 1,-1 1,-1 2,-2 1,-1 2,-1 3,-2 1,0 2,0 4,0 1,0 3,0 4,1 2,1 3,2 3,4 2,-2 3,-3 5,-4 1,-1 3,-1 5,-1 1,0 2,0 3,0 1,1 2,1 3,2 1,0 1,1 2,2 0,1 0,2 0,2 0,2 0,3 -1,4 -1,1 -3,2 -4,2 -1,0 -2,0 -3,-1 0,0 -1,0 -1,-1 -1,-1 -1,-1 -1,-2 0,-1 0,-1 0,-2 0,-1 0,-2 0,-3 0,0 0,-1 1,-1 -1,0 -2,0 -2,0 -1,0 -2,1 -3,2 0,0 -1,1 -2,2 0,0 -1,1 -1,2l0 20c0,1 0,2 0,3 0,0 0,1 0,1 0,1 1,1 1,1 1,1 2,1 3,1l0 1 -20 0 0 -1c1,0 2,0 3,-1 0,0 1,0 1,-1 0,0 0,-1 0,-1 0,-1 1,-2 1,-3l0 -21c0,-1 -1,-2 -1,-2 0,0 -1,-1 -1,-1z"/>
   <path id="5" fill="url(#id5)" fill-rule="nonzero" d="M453 65c0,0 -1,1 -2,1 -1,0 -1,1 -2,2 0,-1 0,-2 1,-3 0,-1 1,-1 2,-2 0,-1 1,-1 2,-2 2,0 3,0 4,0 1,0 2,0 3,0 1,1 2,1 2,2 1,0 2,1 2,2 1,1 1,2 1,3l0 17c0,2 0,3 1,5 0,1 0,2 1,2 0,1 1,2 1,2 1,0 2,0 2,0 1,0 2,0 2,0 1,0 2,-1 2,-1 1,-1 1,-2 2,-2 0,-1 0,-2 0,-2l0 -21c0,-1 0,-2 0,-2 0,0 -1,-1 -1,-1 -1,0 -1,1 -2,1 -1,0 -2,1 -2,2 0,-1 0,-2 0,-3 1,-1 1,-1 2,-2 1,-1 2,-1 3,-2 1,0 2,0 3,0 1,0 2,0 3,0 1,1 2,1 3,2 1,0 1,1 2,2 0,1 1,2 1,3l0 21c0,1 0,2 0,2 0,0 1,1 1,1 1,0 2,-1 2,-1 1,0 2,-1 3,-2 0,1 -1,2 -1,3 -1,1 -1,1 -2,2 -1,1 -2,1 -3,2 -1,0 -2,0 -3,0 -2,0 -4,0 -5,-1 -1,-1 -2,-2 -3,-3 -1,2 -3,3 -4,4 -2,0 -4,1 -6,1 -2,0 -4,0 -5,-1 -2,-1 -3,-2 -4,-3 -2,-1 -2,-2 -3,-3 -1,-2 -1,-3 -1,-5l0 -17c0,-1 0,-2 -1,-2 0,0 0,-1 -1,-1z"/>
   <path id="6" fill="url(#id6)" fill-rule="nonzero" d="M496 68c0,-1 1,-2 1,-3 0,-1 1,-1 2,-2 1,-1 2,-1 3,-2 1,0 2,0 3,0 2,0 3,0 5,1 1,1 2,2 3,3 2,-3 6,-5 10,-5 1,0 3,0 4,0 1,1 2,1 3,2 2,0 3,1 3,1 1,1 2,2 2,2 1,-1 3,-3 5,-4 1,-1 3,-1 5,-1 2,0 4,0 6,1 1,1 3,2 4,3 1,1 2,2 3,3 0,2 1,3 1,5l0 17c0,1 0,1 0,2 0,0 1,1 1,1 1,0 1,-1 2,-1 1,0 2,-1 2,-2 0,1 0,2 0,3 -1,1 -1,1 -2,2 -1,1 -2,1 -3,2 -1,0 -2,0 -3,0 -1,0 -2,0 -3,0 -1,-1 -2,-1 -3,-2 -1,0 -1,-1 -2,-2 0,-1 -1,-2 -1,-3l0 -17c0,-2 0,-3 0,-5 0,-1 -1,-2 -1,-2 -1,-1 -1,-2 -2,-2 -1,0 -1,-1 -2,-1 -1,0 -2,1 -2,1 -1,0 -1,1 -2,1 0,1 -1,2 -1,2 -1,1 -1,1 -1,2l0 21c0,1 0,2 0,3 0,0 0,1 0,1 1,1 1,1 2,1 0,1 1,1 2,1l0 1 -19 0 0 -1c1,0 2,0 2,-1 1,0 1,0 1,-1 1,0 1,-1 1,-1 0,-1 0,-2 0,-3l0 -17c0,-2 0,-3 -1,-5 0,-1 0,-2 -1,-2 0,-1 -1,-2 -2,-2 0,0 -1,-1 -2,-1 0,0 -1,1 -2,1 0,0 -1,1 -1,1 -1,1 -1,2 -2,2 0,1 0,1 -1,2l0 21c0,1 0,2 0,3 0,0 1,1 1,1 0,1 1,1 1,1 1,1 1,1 2,1l0 1 -19 0 0 -1c1,0 2,0 2,-1 1,0 1,0 2,-1 0,0 0,-1 0,-1 0,-1 0,-2 0,-3l0 -21c0,-1 0,-2 0,-2 -1,0 -1,-1 -1,-1 -1,0 -2,1 -2,1 -1,0 -2,1 -3,2z"/>
   <path id="7" fill="url(#id7)" fill-rule="nonzero" d="M580 86c0,1 0,3 -1,4 0,0 0,0 0,1 0,0 0,0 0,0 0,1 0,2 0,2 1,0 1,1 2,1 0,0 1,0 2,1 1,0 1,0 2,0 2,0 3,-1 4,-1 1,-1 2,-2 2,-4 0,-1 0,-2 -1,-2 0,-1 0,-1 -1,-2 0,0 -1,-1 -2,-2 -1,0 -2,-1 -3,-1 -3,-2 -5,-3 -7,-4 -1,-1 -3,-2 -4,-3 -1,-1 -1,-2 -2,-3 0,-1 0,-2 0,-3 0,-1 0,-3 1,-4 0,-1 1,-2 3,-3 1,-1 3,-2 4,-2 2,-1 4,-1 7,-1 2,0 4,0 5,1 2,0 4,1 5,2 2,0 3,1 4,3 1,1 1,2 1,4 0,2 0,3 -1,4 -1,1 -3,1 -4,1 -2,0 -3,0 -4,-1 -1,-1 -1,-2 -1,-4 0,-1 0,-2 0,-2 0,-1 1,-2 1,-2 0,-1 0,-1 0,-1 0,-1 0,-1 -1,-2 -1,-1 -2,-1 -3,-1 -2,0 -3,0 -4,1 -1,1 -2,2 -2,4 0,1 0,1 1,2 0,1 1,2 2,2 0,1 1,1 2,2 0,0 1,0 1,1 3,1 6,2 7,4 2,1 3,2 4,3 1,1 2,2 3,3 0,1 0,1 0,2 0,2 0,3 -1,5 -1,1 -2,2 -4,3 -1,1 -3,2 -5,2 -2,1 -4,1 -7,1 -1,0 -3,0 -5,-1 -2,0 -4,-1 -5,-1 -2,-1 -3,-2 -4,-4 -1,-1 -2,-3 -2,-4 0,-2 1,-4 2,-5 1,-1 2,-2 4,-2 2,0 3,1 4,2 1,1 1,2 1,4z"/>
   <path id="8" fill="url(#id8)" fill-rule="nonzero" d="M607 68c0,-1 0,-2 1,-3 0,-1 1,-1 1,-2 1,-1 2,-1 3,-2 1,0 2,0 3,0 1,0 2,0 3,0 1,1 1,1 2,2 1,0 1,1 2,1 0,1 0,2 1,2 0,0 0,0 0,0 0,0 0,1 0,1 1,-3 2,-4 4,-5 2,-1 4,-2 6,-2 2,0 4,0 6,1 1,1 3,2 4,4 1,1 2,3 3,6 1,2 1,5 1,8 0,3 0,5 -1,8 -1,2 -2,4 -3,5 -1,2 -3,3 -5,4 -1,1 -3,1 -6,1 -1,0 -2,0 -3,-1 -1,0 -2,0 -3,0 0,-1 -1,-1 -1,-1 0,0 -1,-1 -1,-1l0 9c0,1 0,2 0,3 0,0 0,1 1,1 0,1 0,1 1,1 0,1 1,1 2,1l0 1 -19 0 0 -1c1,0 2,0 2,-1 1,0 1,0 1,-1 1,0 1,-1 1,-1 0,-1 0,-2 0,-3l0 -35c0,-1 0,-2 -1,-2 0,0 0,-1 -1,-1 0,0 -1,1 -2,1 -1,0 -1,1 -2,2zm17 24c1,1 2,1 2,2 1,0 2,1 4,1 0,0 1,-1 2,-1 1,0 1,-1 2,-2 0,-1 1,-3 1,-5 0,-2 0,-5 0,-8 0,-4 0,-6 0,-8 0,-3 -1,-4 -1,-5 -1,-2 -1,-2 -2,-3 -1,0 -1,0 -2,0 -1,0 -1,0 -2,0 -1,0 -1,1 -2,1 0,1 -1,2 -1,2 0,1 -1,1 -1,2l0 24z"/>
   <path id="9" fill="url(#id9)" fill-rule="nonzero" d="M673 95c1,0 2,0 3,-1 0,0 1,-1 2,-2 0,-1 1,-3 1,-5 1,-2 1,-5 1,-9 0,-3 0,-6 -1,-8 0,-2 -1,-4 -1,-5 -1,-1 -2,-2 -2,-3 -1,0 -2,0 -3,0 0,0 -1,0 -2,0 -1,1 -2,2 -2,3 -1,1 -1,3 -2,5 0,2 0,5 0,8 0,4 0,7 0,9 1,2 1,4 2,5 0,1 1,2 2,2 1,1 2,1 2,1zm0 -35c3,0 6,0 8,1 2,1 4,2 6,4 2,2 3,3 4,6 0,2 1,5 1,7 0,3 -1,6 -1,8 -1,2 -2,4 -4,6 -2,2 -4,3 -6,4 -2,0 -5,1 -8,1 -3,0 -5,-1 -7,-1 -3,-1 -5,-2 -6,-4 -2,-2 -3,-4 -4,-6 -1,-2 -1,-5 -1,-8 0,-2 0,-5 1,-7 1,-3 2,-4 4,-6 1,-2 3,-3 6,-4 2,-1 4,-1 7,-1z"/>
   <path id="10" fill="url(#id10)" fill-rule="nonzero" d="M701 65c0,0 -1,1 -2,1 -1,0 -1,1 -2,2 0,-1 0,-2 1,-3 0,-1 1,-1 2,-2 0,-1 1,-1 2,-2 2,0 3,0 4,0 2,0 3,0 5,1 1,1 2,2 3,4 1,-2 2,-3 4,-4 2,-1 3,-1 5,-1 1,0 2,0 3,0 1,1 2,1 3,2 1,0 1,1 2,2 0,1 0,2 0,2 0,2 0,3 -1,4 -1,1 -3,2 -4,2 -1,0 -2,0 -3,-1 0,0 -1,0 -1,-1 0,-1 -1,-1 -1,-2 0,-1 0,-1 0,-2 0,-1 0,-2 0,-3 0,0 1,-1 1,-1 -1,0 -1,0 -2,0 -1,0 -2,1 -2,2 -1,0 -2,1 -3,2 0,0 -1,1 -1,2l0 20c0,1 0,2 0,3 0,0 0,1 0,1 1,1 1,1 2,1 0,1 1,1 2,1l0 1 -19 0 0 -1c1,0 2,0 2,-1 1,0 1,0 1,-1 1,0 1,-1 1,-1 0,-1 0,-2 0,-3l0 -21c0,-1 0,-2 -1,-2 0,0 0,-1 -1,-1z"/>
   <rect fill="url(#id11)" y="58" width="214.291" height="15.5039" rx="13" ry="13"/>
   <rect fill="url(#id12)" y="77" width="214.291" height="15.5039" rx="13" ry="13"/>
  </g>
  <rect fill="none" width="731" height="157"/>
 </g>
</svg>
