

<!-- Creator: CorelDRAW X8 -->
<svg xmlns="http://www.w3.org/2000/svg" xml:space="preserve" x="0" y="0" width="77.822mm" height="25mm" version="1.1" shape-rendering="geometricPrecision" text-rendering="geometricPrecision" image-rendering="optimizeQuality" fill-rule="evenodd" clip-rule="evenodd"
viewBox="0 0 349 112"
 xmlns:xlink="http://www.w3.org/1999/xlink">
 <defs>
   <linearGradient id="id0" gradientUnits="userSpaceOnUse" x1="0.000854075" y1="56.0327" x2="348.848" y2="56.0327">
    <stop offset="0" stop-opacity="1" stop-color="#1481C2"/>
    <stop offset="1" stop-opacity="1" stop-color="#ECECEC"/>
   </linearGradient>
   <linearGradient id="id1" gradientUnits="userSpaceOnUse" x1="0.000854075" y1="56.0327" x2="348.848" y2="56.0327">
    <stop offset="0" stop-opacity="1" stop-color="#1481C2"/>
    <stop offset="1" stop-opacity="1" stop-color="#ECECEC"/>
   </linearGradient>
   <linearGradient id="id2" gradientUnits="userSpaceOnUse" x1="0.000854075" y1="56.0327" x2="348.848" y2="56.0327">
    <stop offset="0" stop-opacity="1" stop-color="#1481C2"/>
    <stop offset="1" stop-opacity="1" stop-color="#ECECEC"/>
   </linearGradient>
   <linearGradient id="id3" gradientUnits="userSpaceOnUse" x1="0.000854075" y1="56.0327" x2="348.848" y2="56.0327">
    <stop offset="0" stop-opacity="1" stop-color="#1481C2"/>
    <stop offset="1" stop-opacity="1" stop-color="#ECECEC"/>
   </linearGradient>
   <linearGradient id="id4" gradientUnits="userSpaceOnUse" x1="0.000854075" y1="56.0327" x2="348.848" y2="56.0327">
    <stop offset="0" stop-opacity="1" stop-color="#1481C2"/>
    <stop offset="1" stop-opacity="1" stop-color="#ECECEC"/>
   </linearGradient>
   <linearGradient id="id5" gradientUnits="userSpaceOnUse" x1="0.000854075" y1="56.0327" x2="348.848" y2="56.0327">
    <stop offset="0" stop-opacity="1" stop-color="#1481C2"/>
    <stop offset="1" stop-opacity="1" stop-color="#ECECEC"/>
   </linearGradient>
   <linearGradient id="id6" gradientUnits="userSpaceOnUse" x1="0.000854075" y1="56.0327" x2="348.848" y2="56.0327">
    <stop offset="0" stop-opacity="1" stop-color="#1481C2"/>
    <stop offset="1" stop-opacity="1" stop-color="#ECECEC"/>
   </linearGradient>
   <linearGradient id="id7" gradientUnits="userSpaceOnUse" x1="0.000854075" y1="56.0327" x2="348.848" y2="56.0327">
    <stop offset="0" stop-opacity="1" stop-color="#1481C2"/>
    <stop offset="1" stop-opacity="1" stop-color="#ECECEC"/>
   </linearGradient>
   <linearGradient id="id8" gradientUnits="userSpaceOnUse" x1="0.000854075" y1="56.0327" x2="348.848" y2="56.0327">
    <stop offset="0" stop-opacity="1" stop-color="#1481C2"/>
    <stop offset="1" stop-opacity="1" stop-color="#ECECEC"/>
   </linearGradient>
   <linearGradient id="id9" gradientUnits="userSpaceOnUse" x1="0.000854075" y1="56.0327" x2="348.848" y2="56.0327">
    <stop offset="0" stop-opacity="1" stop-color="#1481C2"/>
    <stop offset="1" stop-opacity="1" stop-color="#ECECEC"/>
   </linearGradient>
   <linearGradient id="id10" gradientUnits="userSpaceOnUse" x1="0.000854075" y1="56.0327" x2="348.848" y2="56.0327">
    <stop offset="0" stop-opacity="1" stop-color="#1481C2"/>
    <stop offset="1" stop-opacity="1" stop-color="#ECECEC"/>
   </linearGradient>
 </defs>
 <g id="Katman_x0020_1">
  <metadata id="CorelCorpID_0Corel-Layer"/>
  <rect fill="none" width="349" height="112"/>
  <path fill="url(#id0)" fill-rule="nonzero" d="M0 68c1,0 1,0 2,-1 0,0 0,0 1,0 0,-1 0,-1 0,-2 0,0 0,-1 0,-2l0 -24c0,-1 0,-2 0,-2 0,-1 0,-1 0,-2 -1,0 -1,0 -1,0 -1,0 -1,-1 -2,-1l0 0 27 0 0 8 -2 0c0,-1 0,-2 0,-3 0,-1 0,-1 0,-2 -1,-1 -1,-1 -1,-1 -1,-1 -1,-1 -2,-1l-11 0 0 16 6 0c0,0 1,-1 1,-1 0,0 1,-1 1,-1 0,-1 0,-1 0,-2 0,0 0,-1 0,-1l2 0 0 11 -2 0c0,-1 0,-1 0,-2 0,-1 0,-1 0,-2 0,0 -1,0 -1,-1 0,0 -1,0 -1,0l-6 0 0 15 12 0c1,0 1,0 2,0 0,-1 0,-1 1,-2 0,-1 0,-1 0,-2 0,-1 0,-2 0,-2l2 0 0 7 -28 0 0 0z"/>
  <path id="1" fill="url(#id1)" fill-rule="nonzero" d="M33 47c0,0 -1,0 -1,0 -1,0 -1,1 -2,1 0,0 0,-1 1,-1 0,-1 1,-2 1,-2 1,-1 1,-1 2,-1 1,0 2,-1 3,-1 1,0 2,1 3,1 1,1 2,2 2,3 1,-1 2,-2 3,-3 1,0 3,-1 4,-1 1,0 2,1 2,1 1,0 2,0 2,1 1,0 1,1 1,1 1,1 1,2 1,2 0,1 0,2 -1,3 -1,1 -2,1 -3,1 -1,0 -1,0 -2,0 0,-1 -1,-1 -1,-1 0,-1 0,-1 0,-2 -1,0 -1,-1 -1,-1 0,-1 0,-1 1,-2 0,-1 0,-1 0,-1 0,0 -1,0 -1,0 -1,0 -1,1 -2,1 -1,1 -1,1 -1,2 -1,0 -1,1 -2,1l0 14c0,1 0,2 0,2 0,1 1,1 1,2 0,0 0,0 1,0 0,1 1,1 1,1l0 0 -14 0 0 0c1,0 2,0 2,-1 1,0 1,0 1,0 0,-1 0,-1 0,-2 0,0 0,-1 0,-2l0 -15c0,0 0,-1 0,-1 0,0 0,0 -1,0z"/>
  <path id="2" fill="url(#id2)" fill-rule="nonzero" d="M64 45c-1,0 -2,0 -2,0 -1,1 -1,1 -1,2 0,1 -1,1 -1,2 0,1 0,2 0,3l-1 0 0 -8 23 0 0 1 -14 22 9 0c1,0 2,0 2,0 1,-1 1,-1 1,-2 0,-1 1,-1 1,-2 0,-1 0,-2 0,-2l1 0 0 7 -23 0 0 -1 14 -22 -9 0z"/>
  <path id="3" fill="url(#id3)" fill-rule="nonzero" d="M88 47c0,0 -1,0 -1,0 -1,0 -1,1 -2,1 0,0 0,-1 1,-1 0,-1 1,-2 1,-2 1,-1 1,-1 2,-1 1,0 2,-1 3,-1 0,0 1,0 2,1 0,0 1,0 2,1 0,0 1,1 1,1 0,1 0,2 0,3l0 12c0,1 1,2 1,3 0,1 0,1 1,2 0,0 0,1 1,1 0,0 1,0 1,0 1,0 1,0 2,0 0,0 1,0 1,-1 0,0 1,-1 1,-1 0,-1 0,-1 1,-2l0 -14c0,-1 0,-2 -1,-2 0,0 0,0 -1,0 0,0 0,0 -1,0 -1,0 -1,1 -2,1 0,0 1,-1 1,-1 0,-1 1,-2 1,-2 1,-1 2,-1 2,-1 1,0 2,-1 3,-1 0,0 1,0 2,1 1,0 1,0 2,1 0,0 1,1 1,1 0,1 1,2 1,3l0 15c0,0 0,1 0,1 0,0 0,0 1,0 0,0 1,0 1,0 1,0 1,-1 2,-1 0,0 0,1 -1,2 0,0 -1,1 -1,1 -1,1 -1,1 -2,1 -1,1 -2,1 -3,1 -1,0 -2,-1 -3,-1 -1,-1 -2,-1 -2,-2 -1,1 -2,2 -3,2 -1,1 -3,1 -4,1 -1,0 -3,0 -4,-1 -1,0 -2,-1 -3,-1 -1,-1 -1,-2 -2,-3 0,-1 -1,-2 -1,-3l0 -12c0,-1 0,-2 0,-2 0,0 0,0 -1,0z"/>
  <path id="4" fill="url(#id4)" fill-rule="nonzero" d="M122 47c0,0 -1,0 -1,0 -1,0 -1,1 -2,1 0,0 0,-1 1,-1 0,-1 0,-2 1,-2 1,-1 1,-1 2,-1 1,0 2,-1 2,-1 2,0 3,1 4,1 1,1 2,2 2,3 1,-1 2,-2 3,-3 1,0 3,-1 4,-1 1,0 1,1 2,1 1,0 2,0 2,1 1,0 1,1 1,1 1,1 1,2 1,2 0,1 -1,2 -1,3 -1,1 -2,1 -3,1 -1,0 -2,0 -2,0 0,-1 -1,-1 -1,-1 0,-1 -1,-1 -1,-2 0,0 0,-1 0,-1 0,-1 0,-1 0,-2 1,-1 1,-1 1,-1 0,0 -1,0 -2,0 0,0 -1,1 -1,1 -1,1 -1,1 -2,2 0,0 -1,1 -1,1l0 14c0,1 0,2 0,2 0,1 0,1 1,2 0,0 0,0 0,0 1,1 1,1 2,1l0 0 -14 0 0 0c1,0 2,0 2,-1 0,0 1,0 1,0 0,-1 0,-1 0,-2 0,0 0,-1 0,-2l0 -15c0,0 0,-1 0,-1 0,0 -1,0 -1,0z"/>
  <path id="5" fill="url(#id5)" fill-rule="nonzero" d="M150 47c0,0 -1,0 -1,0 -1,0 -1,1 -2,1 0,0 0,-1 1,-1 0,-1 0,-2 1,-2 1,-1 1,-1 2,-1 1,0 2,-1 2,-1 1,0 2,0 3,1 0,0 1,0 2,1 0,0 0,1 1,1 0,1 0,2 0,3l0 12c0,1 0,2 1,3 0,1 0,1 1,2 0,0 0,1 1,1 0,0 1,0 1,0 1,0 1,0 2,0 0,0 1,0 1,-1 0,0 1,-1 1,-1 0,-1 0,-1 1,-2l0 -14c0,-1 -1,-2 -1,-2 0,0 0,0 -1,0 0,0 -1,0 -1,0 -1,0 -1,1 -2,1 0,0 0,-1 1,-1 0,-1 1,-2 1,-2 1,-1 1,-1 2,-1 1,0 2,-1 3,-1 0,0 1,0 2,1 0,0 1,0 2,1 0,0 1,1 1,1 0,1 0,2 0,3l0 15c0,0 1,1 1,1 0,0 0,0 1,0 0,0 1,0 1,0 1,0 1,-1 2,-1 0,0 0,1 -1,2 0,0 -1,1 -1,1 -1,1 -1,1 -2,1 -1,1 -2,1 -3,1 -1,0 -2,-1 -3,-1 -1,-1 -2,-1 -2,-2 -1,1 -2,2 -3,2 -1,1 -3,1 -4,1 -2,0 -3,0 -4,-1 -1,0 -2,-1 -3,-1 -1,-1 -1,-2 -2,-3 0,-1 -1,-2 -1,-3l0 -12c0,-1 0,-2 0,-2 0,0 -1,0 -1,0z"/>
  <path id="6" fill="url(#id6)" fill-rule="nonzero" d="M181 48c0,0 0,-1 0,-1 1,-1 1,-2 2,-2 0,-1 1,-1 2,-1 1,0 1,-1 2,-1 1,0 3,1 4,1 1,1 1,1 2,3 1,-3 4,-4 7,-4 1,0 2,0 3,0 1,0 2,1 2,1 1,0 2,1 2,1 1,1 1,1 2,2 1,-2 2,-3 3,-3 1,-1 2,-1 4,-1 1,0 3,0 4,1 1,0 2,1 3,1 1,1 1,2 2,3 0,1 0,2 0,3l0 12c0,1 1,2 1,2 0,0 0,0 1,0 0,0 0,0 1,0 1,0 1,-1 2,-1 0,0 -1,1 -1,2 0,0 -1,1 -1,1 -1,1 -2,1 -2,1 -1,1 -2,1 -3,1 0,0 -1,0 -2,-1 -1,0 -1,0 -2,-1 0,0 -1,-1 -1,-1 0,-1 -1,-2 -1,-3l0 -12c0,-1 0,-2 0,-3 0,-1 0,-1 -1,-2 0,0 -1,-1 -1,-1 -1,0 -1,0 -1,0 -1,0 -2,0 -2,0 0,0 -1,1 -1,1 0,0 -1,1 -1,1 0,1 -1,1 -1,2l0 14c0,1 0,2 0,2 0,1 0,1 1,2 0,0 0,0 1,0 0,1 0,1 1,1l0 0 -14 0 0 0c1,0 2,0 2,-1 0,0 1,0 1,0 0,-1 0,-1 0,-2 0,0 0,-1 0,-2l0 -12c0,-1 0,-2 0,-3 0,-1 -1,-1 -1,-2 0,0 -1,-1 -1,-1 -1,0 -1,0 -2,0 0,0 -1,0 -1,0 0,0 -1,1 -1,1 -1,0 -1,1 -1,1 -1,1 -1,1 -1,2l0 14c0,1 0,2 0,2 0,1 0,1 0,2 1,0 1,0 1,0 1,1 1,1 2,1l0 0 -14 0 0 0c1,0 2,0 2,-1 0,0 1,0 1,0 0,-1 0,-1 0,-2 0,0 0,-1 0,-2l0 -15c0,0 0,-1 0,-1 0,0 -1,0 -1,0 0,0 -1,0 -1,0 -1,0 -2,1 -2,1z"/>
  <path id="7" fill="url(#id7)" fill-rule="nonzero" d="M241 61c0,1 0,2 -1,3 0,0 0,1 0,1 0,0 0,0 0,0 0,1 0,1 0,1 0,1 1,1 1,1 1,0 1,0 2,0 0,1 1,1 1,1 1,0 2,-1 3,-1 1,-1 1,-2 1,-3 0,0 0,-1 0,-1 0,-1 0,-1 -1,-2 0,0 -1,0 -1,-1 -1,0 -2,-1 -3,-1 -2,-1 -3,-2 -4,-3 -1,0 -2,-1 -3,-2 -1,0 -1,-1 -1,-2 -1,0 -1,-1 -1,-2 0,-1 0,-2 1,-3 0,-1 1,-1 2,-2 1,-1 2,-1 3,-2 2,0 3,0 5,0 1,0 3,0 4,0 1,1 2,1 3,2 1,0 2,1 3,2 0,1 1,2 1,3 0,1 -1,2 -1,3 -1,1 -2,1 -3,1 -1,0 -2,0 -3,-1 0,-1 -1,-2 -1,-3 0,-1 0,-1 1,-2 0,0 0,-1 0,-1 0,0 1,-1 1,-1 0,0 -1,-1 -1,-1 -1,-1 -2,-1 -3,-1 -1,0 -2,0 -3,1 0,1 -1,2 -1,3 0,0 0,1 1,1 0,1 0,1 1,2 0,0 1,1 1,1 1,0 1,0 2,1 2,1 3,2 5,2 1,1 2,2 3,3 0,0 1,1 1,2 0,0 1,1 1,2 0,1 -1,2 -1,3 -1,1 -2,1 -3,2 -1,1 -2,1 -4,2 -1,0 -3,0 -4,0 -2,0 -3,0 -4,0 -2,0 -3,-1 -4,-1 -1,-1 -2,-2 -3,-3 -1,-1 -1,-2 -1,-3 0,-2 0,-3 1,-3 1,-1 2,-2 3,-2 1,0 2,1 3,2 1,0 1,1 1,2z"/>
  <path id="8" fill="url(#id8)" fill-rule="nonzero" d="M260 48c0,0 0,-1 0,-1 1,-1 1,-2 2,-2 0,-1 1,-1 2,-1 0,0 1,-1 2,-1 0,0 1,1 2,1 0,0 1,0 1,1 1,0 1,1 1,1 1,1 1,1 1,1 0,0 0,0 0,0 0,0 0,1 0,1 1,-2 2,-3 3,-4 2,-1 3,-1 5,-1 1,0 2,0 4,1 1,0 2,1 3,2 1,1 1,3 2,4 0,2 1,4 1,6 0,2 -1,4 -1,6 -1,1 -1,3 -2,4 -1,1 -2,2 -4,2 -1,1 -2,1 -4,1 -1,0 -2,0 -3,0 0,0 -1,-1 -1,-1 -1,0 -1,0 -1,0 0,0 -1,-1 -1,-1l0 6c0,1 0,2 0,2 0,1 0,1 0,2 1,0 1,0 1,0 1,1 1,1 2,1l0 0 -14 0 0 0c1,0 2,0 2,-1 0,0 1,0 1,0 0,-1 0,-1 0,-2 0,0 0,-1 0,-2l0 -24c0,-1 0,-2 0,-2 0,0 -1,0 -1,0 0,0 -1,0 -1,0 -1,0 -2,1 -2,1zm12 18c1,0 1,1 2,1 0,0 1,1 2,1 1,0 1,-1 2,-1 0,0 1,-1 1,-2 0,0 1,-2 1,-3 0,-1 0,-3 0,-6 0,-2 0,-4 0,-6 0,-1 -1,-2 -1,-3 0,-1 -1,-2 -1,-2 -1,0 -1,0 -2,0 0,0 -1,0 -1,0 0,0 -1,1 -1,1 -1,0 -1,1 -1,1 0,1 -1,1 -1,2l0 17z"/>
  <path id="9" fill="url(#id9)" fill-rule="nonzero" d="M307 68c1,0 1,0 2,-1 1,0 1,0 2,-1 0,-1 0,-2 1,-4 0,-2 0,-4 0,-6 0,-2 0,-4 0,-6 -1,-1 -1,-3 -1,-4 -1,0 -1,-1 -2,-1 -1,-1 -1,-1 -2,-1 0,0 -1,0 -1,1 -1,0 -1,1 -2,1 0,1 -1,3 -1,4 0,2 0,4 0,6 0,2 0,4 0,6 0,2 1,3 1,4 1,1 1,1 2,1 0,1 1,1 1,1zm0 -25c2,0 4,0 6,1 2,0 3,1 4,2 1,2 2,3 3,5 0,1 1,3 1,5 0,2 -1,4 -1,6 -1,1 -2,3 -3,4 -1,1 -2,2 -4,2 -2,1 -4,1 -6,1 -2,0 -4,0 -5,-1 -2,0 -3,-1 -4,-2 -2,-1 -2,-3 -3,-4 -1,-2 -1,-4 -1,-6 0,-2 0,-4 1,-5 1,-2 1,-3 3,-5 1,-1 2,-2 4,-2 1,-1 3,-1 5,-1z"/>
  <path id="10" fill="url(#id10)" fill-rule="nonzero" d="M327 47c0,0 -1,0 -1,0 -1,0 -1,1 -2,1 0,0 0,-1 1,-1 0,-1 0,-2 1,-2 1,-1 1,-1 2,-1 1,0 2,-1 3,-1 1,0 2,1 3,1 1,1 2,2 2,3 1,-1 2,-2 3,-3 1,0 3,-1 4,-1 1,0 2,1 2,1 1,0 2,0 2,1 1,0 1,1 1,1 1,1 1,2 1,2 0,1 -1,2 -1,3 -1,1 -2,1 -3,1 -1,0 -1,0 -2,0 0,-1 -1,-1 -1,-1 0,-1 0,-1 -1,-2 0,0 0,-1 0,-1 0,-1 0,-1 1,-2 0,-1 0,-1 0,-1 0,0 -1,0 -1,0 -1,0 -2,1 -2,1 -1,1 -1,1 -2,2 0,0 0,1 -1,1l0 14c0,1 0,2 0,2 0,1 1,1 1,2 0,0 0,0 1,0 0,1 1,1 1,1l0 0 -14 0 0 0c1,0 2,0 2,-1 1,0 1,0 1,0 0,-1 0,-1 0,-2 0,0 0,-1 0,-2l0 -15c0,0 0,-1 0,-1 0,0 0,0 -1,0z"/>
 </g>
</svg>
