

<!-- Creator: CorelDRAW X8 -->
<svg xmlns="http://www.w3.org/2000/svg" xml:space="preserve" x="0" y="0" width="71.829mm" height="25mm" version="1.1" shape-rendering="geometricPrecision" text-rendering="geometricPrecision" image-rendering="optimizeQuality" fill-rule="evenodd" clip-rule="evenodd"
viewBox="0 0 299 104"
 xmlns:xlink="http://www.w3.org/1999/xlink">
 <defs>
   <linearGradient id="id0" gradientUnits="userSpaceOnUse" x1="0.833813" y1="52.0893" x2="298.49" y2="52.0893">
    <stop offset="0" stop-opacity="1" stop-color="#F6E708"/>
    <stop offset="1" stop-opacity="1" stop-color="#625F1E"/>
   </linearGradient>
   <linearGradient id="id1" gradientUnits="userSpaceOnUse" x1="0.833813" y1="52.0893" x2="298.49" y2="52.0893">
    <stop offset="0" stop-opacity="1" stop-color="#F6E708"/>
    <stop offset="1" stop-opacity="1" stop-color="#625F1E"/>
   </linearGradient>
   <linearGradient id="id2" gradientUnits="userSpaceOnUse" x1="0.833813" y1="52.0893" x2="298.49" y2="52.0893">
    <stop offset="0" stop-opacity="1" stop-color="#F6E708"/>
    <stop offset="1" stop-opacity="1" stop-color="#625F1E"/>
   </linearGradient>
   <linearGradient id="id3" gradientUnits="userSpaceOnUse" x1="0.833813" y1="52.0893" x2="298.49" y2="52.0893">
    <stop offset="0" stop-opacity="1" stop-color="#F6E708"/>
    <stop offset="1" stop-opacity="1" stop-color="#625F1E"/>
   </linearGradient>
   <linearGradient id="id4" gradientUnits="userSpaceOnUse" x1="0.833813" y1="52.0893" x2="298.49" y2="52.0893">
    <stop offset="0" stop-opacity="1" stop-color="#F6E708"/>
    <stop offset="1" stop-opacity="1" stop-color="#625F1E"/>
   </linearGradient>
   <linearGradient id="id5" gradientUnits="userSpaceOnUse" x1="0.833813" y1="52.0893" x2="298.49" y2="52.0893">
    <stop offset="0" stop-opacity="1" stop-color="#F6E708"/>
    <stop offset="1" stop-opacity="1" stop-color="#625F1E"/>
   </linearGradient>
   <linearGradient id="id6" gradientUnits="userSpaceOnUse" x1="0.833813" y1="52.0893" x2="298.49" y2="52.0893">
    <stop offset="0" stop-opacity="1" stop-color="#F6E708"/>
    <stop offset="1" stop-opacity="1" stop-color="#625F1E"/>
   </linearGradient>
   <linearGradient id="id7" gradientUnits="userSpaceOnUse" x1="0.833813" y1="52.0893" x2="298.49" y2="52.0893">
    <stop offset="0" stop-opacity="1" stop-color="#F6E708"/>
    <stop offset="1" stop-opacity="1" stop-color="#625F1E"/>
   </linearGradient>
   <linearGradient id="id8" gradientUnits="userSpaceOnUse" x1="0.833813" y1="52.0893" x2="298.49" y2="52.0893">
    <stop offset="0" stop-opacity="1" stop-color="#F6E708"/>
    <stop offset="1" stop-opacity="1" stop-color="#625F1E"/>
   </linearGradient>
   <linearGradient id="id9" gradientUnits="userSpaceOnUse" x1="0.833813" y1="52.0893" x2="298.49" y2="52.0893">
    <stop offset="0" stop-opacity="1" stop-color="#F6E708"/>
    <stop offset="1" stop-opacity="1" stop-color="#625F1E"/>
   </linearGradient>
   <linearGradient id="id10" gradientUnits="userSpaceOnUse" x1="0.833813" y1="52.0893" x2="298.49" y2="52.0893">
    <stop offset="0" stop-opacity="1" stop-color="#F6E708"/>
    <stop offset="1" stop-opacity="1" stop-color="#625F1E"/>
   </linearGradient>
 </defs>
 <g id="Katman_x0020_1">
  <metadata id="CorelCorpID_0Corel-Layer"/>
  <rect fill="none" width="299" height="104"/>
  <path fill="#FEFEFE" d="M23 53l8 -18c0,-1 0,-2 1,-2 0,-1 1,-1 1,-2 1,0 1,0 2,0 1,-1 2,-1 3,-1l5 0 0 3 0 0c-1,0 -1,0 -2,0 0,0 0,0 0,0 0,0 0,1 0,1 0,1 0,1 0,2l0 23c0,0 0,1 0,2 0,0 0,0 0,0 0,1 0,1 0,1 1,0 1,0 2,0l0 0 0 2 -14 0 0 -2 0 0c1,0 1,0 2,0 0,0 0,0 0,-1 0,0 0,0 0,0 0,-1 0,-2 0,-2l0 -18 -10 23 -2 0 -12 -24 0 18c0,1 0,2 0,2 0,1 0,1 0,1 0,1 0,1 1,1 0,0 1,0 2,0l0 0 0 2 -10 0 0 -2 1 0c0,0 1,0 2,0 0,0 0,0 0,-1 1,0 1,0 1,-1 0,0 0,-1 0,-2l0 -22c0,-1 0,-1 0,-1 0,0 -1,0 -1,0 0,0 0,0 0,0 -1,1 -1,1 -1,1l-2 1 0 -2c0,0 1,-1 1,-2 1,-1 1,-1 2,-2 1,0 1,0 2,-1 1,0 2,0 2,0 1,0 2,0 3,1 1,0 1,0 2,1 0,0 1,1 1,1 1,1 1,2 1,2l9 18zm37 -3l0 0c0,-2 0,-3 -1,-5 0,-1 0,-2 -1,-2 0,-1 0,-1 -1,-1 0,-1 -1,-1 -2,-1 0,0 0,0 0,0 0,1 0,1 0,1 0,1 1,2 1,2 0,2 -1,3 -2,4 -1,1 -2,1 -3,1 -1,0 -2,0 -3,-1 -1,-1 -1,-2 -1,-3 0,-1 0,-2 1,-3 0,0 1,-1 1,-1 1,-1 2,-1 3,-2 2,0 3,0 4,0 2,0 4,0 5,1 2,0 3,1 4,2 2,1 2,2 3,3 1,2 1,3 1,5l0 9c0,0 0,0 0,1 0,0 0,0 0,0 0,0 1,0 1,-1 0,0 1,0 1,-1l2 -1 0 2c0,1 -1,1 -1,2 0,1 -1,1 -1,2 -1,0 -2,1 -2,1 -1,0 -2,0 -3,0 -1,0 -2,0 -3,-1 -1,0 -1,-1 -2,-1 0,0 -1,1 -2,2 -1,1 -3,1 -4,1 -3,0 -6,0 -8,-2 -1,-1 -2,-3 -2,-5 0,-2 0,-4 2,-5 1,-1 2,-1 3,-2 2,0 3,-1 5,-1 1,0 2,0 4,0 0,0 0,0 1,0 0,0 0,0 0,0zm15 -15c-1,0 -1,0 -1,0 -1,0 -1,1 -1,1l-2 2 0 -2c0,-1 0,-2 1,-3 0,0 1,-1 1,-1 1,-1 2,-1 2,-2 1,0 2,0 3,0 1,0 1,0 2,0 1,1 2,1 2,1 1,1 1,1 2,2 0,1 0,2 0,2l0 24c0,0 0,1 0,2 0,0 0,0 0,0 0,1 1,1 1,1 0,0 1,0 1,0l1 0 0 2 -15 0 0 -2 1 0c1,0 1,0 1,0 1,0 1,0 1,-1 0,0 0,0 0,0 0,-1 0,-2 0,-2l0 -24c0,0 0,0 0,0 0,0 0,0 0,0zm28 15l0 0c0,-2 0,-3 0,-5 0,-1 -1,-2 -1,-2 0,-1 -1,-1 -1,-1 -1,-1 -1,-1 -2,-1 0,0 0,0 -1,0 1,1 1,1 1,1 0,1 0,2 0,2 0,2 0,3 -1,4 -1,1 -2,1 -3,1 -1,0 -3,0 -3,-1 -1,-1 -2,-2 -2,-3 0,-1 1,-2 1,-3 0,0 1,-1 2,-1 1,-1 2,-1 3,-2 1,0 2,0 4,0 1,0 3,0 5,1 1,0 3,1 4,2 1,1 2,2 2,3 1,2 1,3 1,5l0 9c0,0 0,0 0,1 0,0 0,0 1,0 0,0 0,0 0,-1 1,0 1,0 2,-1l1 -1 0 2c0,1 0,1 0,2 -1,1 -1,1 -2,2 -1,0 -1,1 -2,1 -1,0 -1,0 -2,0 -2,0 -3,0 -4,-1 -1,0 -1,-1 -1,-1 -1,0 -2,1 -3,2 -1,1 -2,1 -4,1 -2,0 -5,0 -7,-2 -2,-1 -3,-3 -3,-5 0,-2 1,-4 2,-5 1,-1 2,-1 4,-2 1,0 2,-1 4,-1 1,0 3,0 4,0 0,0 1,0 1,0 0,0 0,0 0,0zm25 -11l7 0 0 3 -7 0 0 15c0,1 0,1 0,2 0,0 0,1 0,1 1,1 1,1 1,1 1,1 1,1 2,1 1,0 2,-1 3,-1 1,-1 2,-2 3,-3l1 -1 0 2c0,1 0,1 0,2 -1,1 -1,2 -2,2 -1,1 -2,1 -3,1 -1,1 -2,1 -4,1 -2,0 -5,0 -7,-2 -2,-1 -3,-3 -3,-6l0 -15 -3 0 0 -3 3 0 0 -4c0,0 0,0 0,0 0,0 0,0 0,0 -1,0 -1,0 -1,0 -1,0 -1,1 -1,1l-2 2 0 -2c0,-1 0,-2 1,-3 0,0 1,-1 1,-1 1,-1 2,-1 2,-2 1,0 2,0 3,0 1,0 1,0 2,0 1,1 1,1 2,1 1,1 1,1 2,2 0,1 0,2 0,2l0 4zm18 31c1,-2 1,-3 2,-4l0 -2 -8 -19c0,0 -1,0 -1,-1 0,0 0,0 -1,0 0,0 0,0 0,0 -1,1 -1,1 -1,1l-2 2 0 -2c0,-1 0,-2 1,-3 0,0 1,-1 1,-1 1,-1 2,-1 3,-1 1,-1 1,-1 2,-1 2,0 3,1 4,1 1,1 2,3 3,4l4 9 4 -11c0,0 0,0 0,0 0,0 0,0 0,0 -1,0 -1,0 -1,0 0,0 -1,0 -1,0l-1 0 0 -3 9 0 0 3 -1 0c0,0 -1,0 -2,0 0,0 0,1 0,1l-9 23c-1,2 -1,3 -2,4 -1,1 -1,2 -2,2 0,1 -1,1 -2,2 -1,0 -1,0 -2,0 -2,0 -3,0 -4,-1 -1,-1 -2,-2 -2,-4 0,-1 1,-2 2,-3 1,-1 2,-1 3,-1 1,0 2,0 3,1 1,1 1,2 1,3 0,0 0,0 0,1zm30 -20l0 0c0,-2 -1,-3 -1,-5 0,-1 0,-2 -1,-2 0,-1 0,-1 -1,-1 0,-1 -1,-1 -2,-1 0,0 0,0 0,0 0,1 0,1 0,1 0,1 0,2 0,2 0,2 0,3 -1,4 -1,1 -2,1 -3,1 -1,0 -2,0 -3,-1 -1,-1 -1,-2 -1,-3 0,-1 0,-2 0,-3 1,0 1,-1 2,-1 1,-1 2,-1 3,-2 1,0 3,0 4,0 2,0 4,0 5,1 2,0 3,1 4,2 1,1 2,2 3,3 0,2 1,3 1,5l0 9c0,0 0,0 0,1 0,0 0,0 0,0 0,0 1,0 1,-1 0,0 1,0 1,-1l1 -1 0 2c0,1 0,1 0,2 0,1 -1,1 -2,2 0,0 -1,1 -2,1 0,0 -1,0 -2,0 -1,0 -2,0 -4,-1 0,0 -1,-1 -1,-1 -1,0 -1,1 -2,2 -2,1 -3,1 -5,1 -2,0 -5,0 -7,-2 -1,-1 -2,-3 -2,-5 0,-2 0,-4 1,-5 1,-1 3,-1 4,-2 1,0 3,-1 4,-1 2,0 3,0 4,0 1,0 1,0 1,0 0,0 1,0 1,0zm33 1c1,0 2,1 2,2 1,0 2,1 2,2 0,1 0,1 0,2 0,1 0,2 -1,3 0,1 -1,2 -2,3 -1,1 -3,1 -4,1 -1,1 -3,1 -5,1 -1,0 -2,0 -3,0 -2,-1 -3,-1 -4,-2 -1,0 -2,-1 -3,-2 -1,-1 -1,-2 -1,-4 0,-1 0,-2 1,-3 1,-1 2,-2 4,-2 0,0 0,0 0,0 -1,0 -1,-1 -2,-1 -1,-1 -1,-2 -2,-2 0,-1 0,-2 0,-3 0,-1 0,-2 1,-3 0,-1 1,-2 2,-2 1,-1 2,-1 3,-2 2,0 3,0 5,0 1,0 2,0 4,0 1,0 2,1 3,2 1,0 2,1 3,2 0,1 1,2 1,3 0,1 -1,2 -1,3 -1,1 -2,2 -3,2zm-4 -8c0,0 0,0 0,0 0,0 0,-1 0,-1 -1,0 -1,0 -2,0 -1,0 -1,0 -2,0 -1,1 -1,1 -1,2 0,0 0,1 1,1 0,1 0,1 1,1 0,1 0,1 1,1 0,1 1,1 1,1 0,0 0,0 1,0 -1,0 -1,-1 -1,-2 0,0 0,-1 1,-2 0,0 0,0 0,-1zm-7 12c1,0 1,1 1,2 0,1 0,2 -1,3 0,0 0,0 0,0 0,0 0,0 0,0 0,1 0,1 0,1 0,0 1,0 1,0 0,1 1,1 1,1 0,0 1,0 1,0 1,0 2,0 3,-1 0,0 0,-1 0,-2 0,0 0,0 0,-1 0,0 0,0 0,0 -1,-1 -1,-1 -2,-1 -1,-1 -1,-1 -2,-2 -1,0 -1,0 -2,0zm28 -13c1,-1 2,-1 3,-2 1,-1 3,-1 4,-1 2,0 3,0 4,1 2,0 3,1 4,2 1,1 1,3 2,4 0,2 0,4 0,6 0,2 0,4 0,5 -1,2 -2,3 -3,5 0,1 -2,1 -3,2 -1,1 -3,1 -4,1 -1,0 -2,0 -3,0 -1,-1 -1,-1 -2,-1 0,0 0,0 0,0l0 4c0,1 0,1 0,2 0,0 0,0 0,1 0,0 0,0 1,0 0,0 1,0 1,0l1 0 0 2 -15 0 0 -2 1 0c0,0 1,0 1,0 0,0 1,0 1,0 0,-1 0,-1 0,-1 0,-1 0,-1 0,-2l0 -23c0,0 0,-1 0,-1 0,0 0,0 0,0 -1,0 -1,0 -1,0 -1,1 -1,1 -2,1l-1 2 0 -2c0,-1 0,-2 1,-2 0,-1 0,-2 1,-2 1,-1 1,-1 2,-1 1,-1 1,-1 2,-1 1,0 2,0 2,1 1,0 2,0 2,1 1,0 1,1 1,1 0,0 0,0 0,0zm34 -3c2,0 4,0 5,1 2,0 3,1 5,2 1,1 2,3 2,4 1,2 1,4 1,6 0,2 0,4 -1,5 0,2 -1,3 -2,4 -2,2 -3,2 -5,3 -1,1 -3,1 -5,1 -2,0 -4,0 -6,-1 -1,-1 -3,-1 -4,-3 -1,-1 -2,-2 -2,-4 -1,-1 -1,-3 -1,-5 0,-2 0,-4 1,-6 0,-1 1,-3 2,-4 1,-1 3,-2 4,-2 2,-1 4,-1 6,-1zm27 3c1,-1 1,-1 2,-2 1,0 3,-1 4,-1 1,0 2,0 2,1 1,0 2,0 2,1 1,0 1,1 2,1 0,1 0,2 0,3 0,1 0,2 -1,3 -1,1 -2,1 -3,1 -1,0 -2,0 -2,0 -1,-1 -1,-1 -1,-2 -1,0 -1,-1 -1,-1 0,-1 0,-1 0,-2 0,0 0,-1 0,-1 -1,0 -1,0 -1,0 -1,1 -1,1 -2,1 0,1 0,1 0,2l0 13c0,0 0,1 0,2 0,0 0,0 0,0 0,1 0,1 0,1 1,0 1,0 2,0l0 0 0 2 -14 0 0 -2 1 0c0,0 1,0 1,0 0,0 0,0 0,-1 1,0 1,0 1,0 0,-1 0,-2 0,-2l0 -14c0,0 0,-1 0,-1 -1,0 -1,0 -1,0 0,0 0,0 -1,0 0,1 0,1 -1,1l-1 2 0 -2c0,-1 0,-2 0,-2 1,-1 1,-2 2,-2 0,-1 1,-1 2,-1 1,-1 2,-1 2,-1 2,0 3,1 4,1 1,1 1,1 2,2zm-227 17l0 -6c-1,0 -1,0 -1,0 -1,0 -1,0 -2,0 -1,0 -1,1 -2,1 0,2 -1,3 -1,4 0,1 1,2 1,3 0,0 1,1 1,1 1,0 1,-1 1,-1 1,0 1,0 1,0 1,-1 1,-1 1,-2 0,0 1,0 1,0zm43 0l0 -6c0,0 -1,0 -1,0 0,0 -1,0 -1,0 -1,0 -2,1 -2,1 -1,2 -1,3 -1,4 0,1 0,2 0,3 1,0 1,1 2,1 0,0 0,-1 1,-1 0,0 0,0 1,0 0,-1 0,-1 1,-2 0,0 0,0 0,0zm73 0l0 -6c-1,0 -1,0 -2,0 0,0 0,0 -1,0 -1,0 -1,1 -2,1 -1,2 -1,3 -1,4 0,1 0,2 1,3 0,0 1,1 1,1 0,0 1,-1 1,-1 1,0 1,0 1,0 0,-1 1,-1 1,-2 0,0 0,0 1,0zm52 1c0,1 1,1 1,1 1,1 1,1 2,1 0,0 1,0 1,-1 0,0 1,0 1,-1 0,-1 0,-2 1,-3 0,-1 0,-3 0,-5 0,-2 0,-4 0,-5 -1,-1 -1,-2 -1,-3 0,-1 -1,-1 -1,-2 0,0 -1,0 -1,0 0,0 -1,0 -1,0 0,1 0,1 -1,1 0,0 0,1 0,1 -1,0 -1,1 -1,1l0 15zm32 2c0,0 1,0 1,0 1,-1 1,-1 1,-2 1,-1 1,-2 1,-3 0,-2 1,-3 1,-5 0,-2 -1,-4 -1,-6 0,-1 0,-2 -1,-3 0,0 0,-1 -1,-1 0,0 -1,0 -1,0 -1,0 -1,0 -1,0 -1,0 -1,1 -1,1 -1,1 -1,2 -1,3 -1,2 -1,4 -1,6 0,2 0,3 1,5 0,1 0,2 1,3 0,1 0,1 1,2 0,0 0,0 1,0z"/>
  <path fill="url(#id0)" fill-rule="nonzero" d="M1 63l0 0c1,0 1,0 2,0 0,-1 1,-1 1,-1 0,-1 0,-1 0,-2 1,0 1,-1 1,-2l0 -22c0,-1 -1,-1 -1,-1 0,0 0,-1 -1,-1 0,0 0,1 -1,1 0,0 0,0 -1,0 0,0 0,-1 1,-2 0,0 1,-1 1,-1 1,0 2,-1 2,-1 1,0 2,0 2,0 1,0 2,0 3,0 0,1 1,1 1,1 1,1 1,1 2,2 0,0 0,1 1,2l9 19 9 -20c0,-1 0,-1 1,-2 0,0 0,-1 1,-1 0,0 1,0 1,-1 1,0 2,0 3,0l5 0 0 1c-1,0 -2,0 -2,0 0,0 -1,0 -1,1 0,0 0,0 0,1 0,0 0,1 0,2l0 23c0,0 0,1 0,2 0,0 0,0 0,1 0,0 1,0 1,0 0,1 1,1 2,1l0 0 -14 0 0 0c1,0 2,0 2,-1 0,0 1,0 1,0 0,-1 0,-1 0,-1 0,-1 0,-2 0,-2l0 -22 -12 27 -1 0 -13 -27 0 21c0,1 0,2 0,2 0,1 0,1 0,2 1,0 1,0 1,1 1,0 2,0 3,0l0 0 -9 0z"/>
  <path id="1" fill="url(#id1)" fill-rule="nonzero" d="M46 58c0,-2 0,-3 1,-4 1,-1 2,-2 3,-2 2,-1 3,-1 5,-1 1,0 2,0 4,0 0,0 0,0 1,0 0,0 0,0 1,0l0 -1c0,-2 -1,-4 -1,-5 0,-1 0,-2 -1,-3 0,0 -1,-1 -1,-1 -1,0 -2,0 -3,0 0,0 -1,0 -1,0 0,0 0,1 1,2 0,0 0,1 0,1 0,2 -1,2 -1,3 -1,1 -2,1 -3,1 -1,0 -2,0 -2,-1 -1,0 -1,-1 -1,-2 0,-1 0,-2 0,-2 1,-1 1,-1 2,-2 0,0 1,-1 2,-1 1,0 3,0 4,0 2,0 4,0 5,0 2,1 3,2 4,2 1,1 2,2 2,4 1,1 1,2 1,4l0 9c0,0 0,1 0,1 0,0 1,1 1,1 0,0 1,-1 1,-1 1,0 1,0 2,-1 0,1 0,1 -1,2 0,0 0,1 -1,1 0,1 -1,1 -2,1 0,1 -1,1 -2,1 -1,0 -2,-1 -3,-1 -1,-1 -1,-2 -2,-3 0,1 -1,2 -3,3 -1,1 -2,1 -3,1 -3,0 -6,0 -7,-2 -2,-1 -2,-2 -2,-4zm10 4c1,0 1,0 2,0 0,0 1,-1 1,-1 0,0 1,-1 1,-1 0,-1 0,-1 1,-1l0 -7c-1,0 -2,0 -2,0 -1,0 -2,0 -2,0 -1,0 -2,1 -2,2 -1,1 -1,3 -1,4 0,2 0,3 0,4 1,0 2,0 2,0z"/>
  <path id="2" fill="url(#id2)" fill-rule="nonzero" d="M75 34c-1,0 -1,0 -2,0 0,1 -1,1 -1,2 0,-1 0,-2 0,-2 1,-1 1,-1 2,-2 0,0 1,0 2,-1 0,0 1,0 2,0 1,0 1,0 2,0 1,0 1,1 2,1 0,0 1,1 1,1 0,1 0,2 0,2l0 24c0,0 0,1 0,2 0,0 0,0 1,1 0,0 0,0 0,0 1,1 1,1 2,1l0 0 -13 0 0 0c1,0 1,0 2,-1 0,0 0,0 1,0 0,-1 0,-1 0,-1 0,-1 0,-2 0,-2l0 -24c0,0 0,-1 0,-1 -1,0 -1,0 -1,0z"/>
  <path id="3" fill="url(#id3)" fill-rule="nonzero" d="M89 58c0,-2 1,-3 2,-4 0,-1 2,-2 3,-2 1,-1 3,-1 4,-1 1,0 3,0 4,0 0,0 1,0 1,0 0,0 1,0 1,0l0 -1c0,-2 0,-4 0,-5 -1,-1 -1,-2 -1,-3 -1,0 -1,-1 -2,-1 -1,0 -1,0 -2,0 -1,0 -1,0 -2,0 1,0 1,1 1,2 0,0 0,1 0,1 0,2 0,2 -1,3 0,1 -1,1 -2,1 -1,0 -2,0 -3,-1 0,0 -1,-1 -1,-2 0,-1 0,-2 1,-2 0,-1 1,-1 1,-2 1,0 2,-1 3,-1 1,0 2,0 4,0 2,0 3,0 5,0 1,1 2,2 3,2 1,1 2,2 3,4 0,1 0,2 0,4l0 9c0,0 0,1 1,1 0,0 0,1 1,1 0,0 0,-1 1,-1 0,0 1,0 1,-1 0,1 0,1 0,2 -1,0 -1,1 -1,1 -1,1 -2,1 -2,1 -1,1 -2,1 -2,1 -1,0 -3,-1 -3,-1 -1,-1 -2,-2 -2,-3 -1,1 -2,2 -3,3 -1,1 -3,1 -4,1 -3,0 -5,0 -7,-2 -1,-1 -2,-2 -2,-4zm11 4c0,0 1,0 1,0 1,0 1,-1 1,-1 1,0 1,-1 1,-1 1,-1 1,-1 1,-1l0 -7c-1,0 -1,0 -2,0 -1,0 -1,0 -1,0 -1,0 -2,1 -3,2 -1,1 -1,3 -1,4 0,2 0,3 1,4 0,0 1,0 2,0z"/>
  <path id="4" fill="url(#id4)" fill-rule="nonzero" d="M122 31c1,0 1,0 2,0 0,0 1,1 2,1 0,0 0,1 1,1 0,1 0,2 0,2l0 5 7 0 0 1 -7 0 0 16c0,1 0,1 0,2 0,0 0,1 1,2 0,0 0,1 1,1 0,0 1,1 2,1 1,0 2,-1 3,-1 1,-1 2,-2 3,-3 0,1 0,1 0,2 0,0 -1,1 -1,1 -1,1 -2,1 -3,2 -1,0 -2,0 -4,0 -3,0 -5,0 -7,-2 -1,-1 -2,-2 -2,-5l0 -16 -3 0 0 -1 3 0 0 -5c0,0 0,-1 0,-1 -1,0 -1,0 -1,0 -1,0 -1,0 -2,0 0,1 -1,1 -1,2 0,-1 0,-2 0,-2 1,-1 1,-1 2,-2 0,0 1,0 2,-1 0,0 1,0 2,0z"/>
  <path id="5" fill="url(#id5)" fill-rule="nonzero" d="M140 45c0,-1 0,-1 0,-1 -1,-1 -1,-1 -2,-1 0,0 0,0 -1,1 0,0 -1,0 -1,1 0,-1 0,-2 1,-2 0,-1 0,-1 1,-2 0,0 1,0 2,-1 1,0 1,0 2,0 2,0 3,0 4,1 1,1 1,2 2,3l5 11 5 -12c0,-1 0,-1 0,-1 0,0 0,0 0,-1 -1,0 -1,0 -1,0 0,0 -1,0 -1,0 0,0 -1,0 -1,0l0 0 0 -1 7 0 0 1c-1,0 -2,0 -2,0 0,1 -1,1 -1,2l-9 23c-1,2 -1,3 -2,4 0,1 -1,1 -1,2 -1,0 -2,1 -2,1 -1,0 -1,0 -2,0 -2,0 -3,0 -4,-1 -1,-1 -1,-2 -1,-3 0,-1 0,-2 1,-3 1,0 2,-1 3,-1 1,0 2,1 2,1 1,1 1,2 1,3 0,0 0,1 0,1 0,1 -1,1 -1,2 1,0 1,-1 2,-2 1,-1 2,-2 2,-4l1 -2 -9 -19z"/>
  <path id="6" fill="url(#id6)" fill-rule="nonzero" d="M162 58c0,-2 0,-3 1,-4 1,-1 2,-2 3,-2 2,-1 3,-1 4,-1 2,0 3,0 4,0 1,0 1,0 1,0 1,0 1,0 1,0l0 -1c0,-2 0,-4 0,-5 0,-1 -1,-2 -1,-3 0,0 -1,-1 -2,-1 0,0 -1,0 -2,0 0,0 -1,0 -1,0 0,0 0,1 0,2 1,0 1,1 1,1 0,2 -1,2 -1,3 -1,1 -2,1 -3,1 -1,0 -2,0 -2,-1 -1,0 -1,-1 -1,-2 0,-1 0,-2 0,-2 0,-1 1,-1 2,-2 0,0 1,-1 2,-1 1,0 3,0 4,0 2,0 4,0 5,0 2,1 3,2 4,2 1,1 1,2 2,4 1,1 1,2 1,4l0 9c0,0 0,1 0,1 0,0 1,1 1,1 0,0 1,-1 1,-1 1,0 1,0 2,-1 0,1 -1,1 -1,2 0,0 -1,1 -1,1 -1,1 -1,1 -2,1 -1,1 -1,1 -2,1 -1,0 -2,-1 -3,-1 -1,-1 -2,-2 -2,-3 -1,1 -2,2 -3,3 -1,1 -2,1 -4,1 -3,0 -5,0 -6,-2 -2,-1 -2,-2 -2,-4zm10 4c1,0 1,0 2,0 0,0 0,-1 1,-1 0,0 0,-1 1,-1 0,-1 0,-1 0,-1l0 -7c0,0 -1,0 -2,0 0,0 -1,0 -1,0 -1,0 -2,1 -3,2 0,1 -1,3 -1,4 0,2 1,3 1,4 1,0 1,0 2,0z"/>
  <path id="7" fill="url(#id7)" fill-rule="nonzero" d="M198 57c0,1 0,2 -1,3 0,0 0,0 0,0 0,0 0,0 0,0 0,1 0,1 0,1 1,1 1,1 1,1 1,0 1,0 2,1 0,0 1,0 1,0 1,0 2,-1 3,-1 1,-1 1,-1 1,-3 0,0 0,-1 0,-1 0,0 -1,-1 -1,-1 0,0 -1,-1 -1,-1 -1,-1 -2,-1 -3,-1 -1,-1 -3,-2 -4,-3 -1,0 -2,-1 -2,-2 -1,0 -2,-1 -2,-2 0,0 0,-1 0,-2 0,-1 0,-2 0,-2 1,-1 2,-2 2,-3 1,0 2,-1 4,-1 1,0 2,0 4,0 1,0 2,0 4,0 1,0 2,1 3,1 1,1 2,2 2,2 1,1 1,2 1,3 0,1 0,2 -1,3 -1,1 -1,1 -2,1 -1,0 -2,0 -3,-1 -1,-1 -1,-2 -1,-3 0,0 0,-1 0,-1 1,-1 1,-1 1,-1 0,-1 0,-1 0,-1 0,-1 0,-1 -1,-1 0,-1 -1,-1 -2,-1 -1,0 -2,0 -3,1 0,0 -1,1 -1,2 0,1 1,1 1,2 0,0 1,1 1,1 0,0 1,1 1,1 1,0 1,1 2,1 1,1 3,2 4,2 1,1 2,2 3,2 1,1 1,2 1,2 1,1 1,2 1,2 0,1 -1,2 -1,3 -1,1 -2,2 -3,2 -1,1 -2,1 -3,2 -2,0 -3,0 -5,0 -1,0 -2,0 -3,0 -1,-1 -3,-1 -4,-1 -1,-1 -1,-2 -2,-3 -1,0 -1,-2 -1,-3 0,-1 0,-2 1,-3 1,-1 1,-1 3,-1 1,0 2,0 2,1 1,1 1,2 1,3z"/>
  <path id="8" fill="url(#id8)" fill-rule="nonzero" d="M216 45c0,-1 0,-1 0,-2 1,-1 1,-1 2,-1 0,-1 1,-1 1,-2 1,0 2,0 2,0 1,0 1,0 2,0 1,1 1,1 2,1 0,1 0,1 1,2 0,0 0,0 0,1 0,0 0,0 0,0 0,0 0,0 0,0 1,-1 2,-2 3,-3 1,-1 3,-1 4,-1 2,0 3,0 4,0 1,1 2,2 3,3 1,1 1,2 2,4 0,1 1,3 1,5 0,2 -1,4 -1,5 -1,2 -1,3 -2,4 -1,1 -2,2 -3,2 -2,1 -3,1 -4,1 -1,0 -2,0 -3,0 0,0 -1,-1 -1,-1 -1,0 -1,0 -1,0 0,0 -1,-1 -1,-1l0 6c0,1 0,1 0,2 0,0 0,1 1,1 0,0 0,1 0,1 1,0 1,0 2,0l0 1 -13 0 0 -1c1,0 1,0 2,0 0,0 0,-1 0,-1 1,0 1,-1 1,-1 0,-1 0,-1 0,-2l0 -23c0,-1 0,-1 -1,-1 0,-1 0,-1 0,-1 -1,0 -1,0 -2,1 0,0 -1,0 -1,1zm11 16c1,0 1,1 2,1 0,0 1,1 2,1 0,0 1,-1 1,-1 1,0 1,-1 2,-1 0,-1 0,-2 0,-4 1,-1 1,-3 1,-5 0,-2 0,-4 -1,-5 0,-2 0,-3 0,-4 -1,0 -1,-1 -2,-1 0,-1 0,-1 -1,-1 0,0 -1,0 -1,1 -1,0 -1,0 -1,1 -1,0 -1,0 -1,1 0,0 -1,1 -1,1l0 16z"/>
  <path id="9" fill="url(#id9)" fill-rule="nonzero" d="M260 63c0,0 1,0 1,-1 1,0 1,0 2,-1 0,-1 1,-2 1,-4 0,-1 0,-3 0,-5 0,-2 0,-4 0,-6 0,-1 -1,-2 -1,-3 -1,-1 -1,-1 -2,-2 0,0 -1,0 -1,0 -1,0 -1,0 -2,0 0,1 -1,1 -1,2 -1,1 -1,2 -1,3 0,2 -1,4 -1,6 0,2 1,4 1,5 0,2 0,3 1,4 0,1 1,1 1,1 1,1 1,1 2,1zm0 -23c2,0 4,0 5,0 2,1 3,2 4,3 1,1 2,2 2,4 1,1 1,3 1,5 0,2 0,3 -1,5 0,1 -1,3 -2,4 -1,1 -2,2 -4,2 -1,1 -3,1 -5,1 -2,0 -4,0 -5,-1 -2,0 -3,-1 -4,-2 -1,-1 -2,-3 -3,-4 0,-2 0,-3 0,-5 0,-2 0,-4 0,-5 1,-2 2,-3 3,-4 1,-1 2,-2 4,-3 1,0 3,0 5,0z"/>
  <path id="10" fill="url(#id10)" fill-rule="nonzero" d="M278 43c0,0 0,0 -1,1 0,0 -1,0 -1,1 0,-1 0,-1 0,-2 0,-1 1,-1 1,-1 1,-1 1,-1 2,-2 1,0 2,0 2,0 2,0 3,0 4,1 1,0 1,1 2,2 0,-1 1,-1 3,-2 1,-1 2,-1 3,-1 1,0 2,0 2,0 1,1 1,1 2,1 0,1 1,1 1,2 0,0 0,1 0,2 0,1 0,1 -1,2 0,1 -1,1 -2,1 -1,0 -1,0 -2,0 0,0 -1,-1 -1,-1 0,0 0,-1 0,-1 0,-1 -1,-1 -1,-2 0,0 1,-1 1,-1 0,-1 0,-1 0,-2 0,0 -1,0 -1,1 -1,0 -1,0 -2,1 0,0 -1,0 -1,1 -1,0 -1,1 -1,1l0 14c0,0 0,1 0,2 0,0 0,0 0,1 0,0 1,0 1,0 0,1 1,1 2,1l0 0 -13 0 0 0c0,0 1,0 1,-1 1,0 1,0 1,0 0,-1 0,-1 0,-1 0,-1 0,-2 0,-2l0 -14c0,-1 0,-1 0,-2 0,0 0,0 -1,0z"/>
 </g>
</svg>
