<?xml version="1.0" encoding="UTF-8"?>
<!DOCTYPE svg PUBLIC "-//W3C//DTD SVG 1.1//EN" "http://www.w3.org/Graphics/SVG/1.1/DTD/svg11.dtd">
<!-- Creator: CorelDRAW X8 -->
<svg xmlns="http://www.w3.org/2000/svg" xml:space="preserve"  width="71.817mm" height="25mm" version="1.1" shape-rendering="geometricPrecision" text-rendering="geometricPrecision" image-rendering="optimizeQuality" fill-rule="evenodd" clip-rule="evenodd"
viewBox="0 0 299 104"
 xmlns:xlink="http://www.w3.org/1999/xlink">
 <defs>
   <linearGradient id="id0" gradientUnits="userSpaceOnUse" x1="0.000794147" y1="52.0695" x2="299.158" y2="52.0695">
    <stop offset="0" stop-opacity="1" stop-color="#A72729"/>
    <stop offset="1" stop-opacity="1" stop-color="#25AADF"/>
   </linearGradient>
   <linearGradient id="id1" gradientUnits="userSpaceOnUse" x1="0.000794147" y1="52.0695" x2="299.158" y2="52.0695">
    <stop offset="0" stop-opacity="1" stop-color="#A72729"/>
    <stop offset="1" stop-opacity="1" stop-color="#25AADF"/>
   </linearGradient>
   <linearGradient id="id2" gradientUnits="userSpaceOnUse" x1="0.000794147" y1="52.0695" x2="299.158" y2="52.0695">
    <stop offset="0" stop-opacity="1" stop-color="#A72729"/>
    <stop offset="1" stop-opacity="1" stop-color="#25AADF"/>
   </linearGradient>
   <linearGradient id="id3" gradientUnits="userSpaceOnUse" x1="0.000794147" y1="52.0695" x2="299.158" y2="52.0695">
    <stop offset="0" stop-opacity="1" stop-color="#A72729"/>
    <stop offset="1" stop-opacity="1" stop-color="#25AADF"/>
   </linearGradient>
   <linearGradient id="id4" gradientUnits="userSpaceOnUse" x1="0.000794147" y1="52.0695" x2="299.158" y2="52.0695">
    <stop offset="0" stop-opacity="1" stop-color="#A72729"/>
    <stop offset="1" stop-opacity="1" stop-color="#25AADF"/>
   </linearGradient>
   <linearGradient id="id5" gradientUnits="userSpaceOnUse" x1="0.000794147" y1="52.0695" x2="299.158" y2="52.0695">
    <stop offset="0" stop-opacity="1" stop-color="#A72729"/>
    <stop offset="1" stop-opacity="1" stop-color="#25AADF"/>
   </linearGradient>
   <linearGradient id="id6" gradientUnits="userSpaceOnUse" x1="0.000794147" y1="52.0695" x2="299.158" y2="52.0695">
    <stop offset="0" stop-opacity="1" stop-color="#A72729"/>
    <stop offset="1" stop-opacity="1" stop-color="#25AADF"/>
   </linearGradient>
   <linearGradient id="id7" gradientUnits="userSpaceOnUse" x1="0.000794147" y1="52.0695" x2="299.158" y2="52.0695">
    <stop offset="0" stop-opacity="1" stop-color="#A72729"/>
    <stop offset="1" stop-opacity="1" stop-color="#25AADF"/>
   </linearGradient>
   <linearGradient id="id8" gradientUnits="userSpaceOnUse" x1="0.000794147" y1="52.0695" x2="299.158" y2="52.0695">
    <stop offset="0" stop-opacity="1" stop-color="#A72729"/>
    <stop offset="1" stop-opacity="1" stop-color="#25AADF"/>
   </linearGradient>
   <linearGradient id="id9" gradientUnits="userSpaceOnUse" x1="0.000794147" y1="52.0695" x2="299.158" y2="52.0695">
    <stop offset="0" stop-opacity="1" stop-color="#A72729"/>
    <stop offset="1" stop-opacity="1" stop-color="#25AADF"/>
   </linearGradient>
   <linearGradient id="id10" gradientUnits="userSpaceOnUse" x1="0.000794147" y1="52.0695" x2="299.158" y2="52.0695">
    <stop offset="0" stop-opacity="1" stop-color="#A72729"/>
    <stop offset="1" stop-opacity="1" stop-color="#25AADF"/>
   </linearGradient>
 </defs>
 <g id="Katman_x0020_1">
  <metadata id="CorelCorpID_0Corel-Layer"/>
  <rect fill="none" width="299" height="104"/>
  <path fill="url(#id0)" fill-rule="nonzero" d="M0 31l27 0 0 8 -1 0c0,-1 0,-2 0,-2 0,-1 -1,-2 -1,-2 0,-1 0,-1 -1,-2 0,0 -1,0 -1,0l-6 0 0 26c0,1 0,1 0,2 0,0 0,1 1,1 0,0 0,1 0,1 1,0 1,0 2,0l0 1 -13 0 0 -1c1,0 1,0 2,0 0,0 0,-1 0,-1 1,0 1,-1 1,-1 0,-1 0,-1 0,-2l0 -26 -6 0c0,0 -1,0 -1,0 -1,1 -1,1 -1,2 0,0 -1,1 -1,2 0,0 0,1 0,2l-1 0 0 -8z"/>
  <path id="1" fill="url(#id1)" fill-rule="nonzero" d="M26 43c0,0 0,1 -1,1 0,0 -1,1 -1,1 0,0 0,-1 0,-2 0,0 1,-1 1,-1 1,-1 2,-1 2,-1 1,0 2,-1 3,-1 1,0 2,1 3,1 1,1 1,2 2,3 1,-1 2,-2 3,-3 1,0 2,-1 3,-1 1,0 2,1 2,1 1,0 2,0 2,1 0,0 1,1 1,1 0,1 1,1 1,2 0,1 -1,2 -1,2 -1,1 -2,1 -3,1 -1,0 -1,0 -2,0 0,0 0,0 -1,-1 0,0 0,-1 0,-1 0,0 0,-1 0,-1 0,-1 0,-2 0,-2 0,-1 0,-1 0,-1 0,0 -1,0 -1,0 -1,0 -1,1 -2,1 0,0 -1,1 -1,1 0,1 -1,1 -1,2l0 13c0,1 0,1 0,2 0,0 0,1 0,1 0,0 1,1 1,1 0,0 1,0 2,0l0 1 -13 0 0 -1c0,0 1,0 1,0 1,0 1,-1 1,-1 0,0 0,-1 1,-1 0,-1 0,-1 0,-2l0 -14c0,-1 -1,-1 -1,-1 0,0 0,-1 -1,-1z"/>
  <path id="2" fill="url(#id2)" fill-rule="nonzero" d="M48 58c0,-2 1,-3 2,-4 0,-1 2,-1 3,-2 1,0 3,0 4,-1 2,0 3,0 4,0 0,0 1,0 1,0 0,0 1,0 1,0l0 -1c0,-2 0,-3 0,-5 -1,-1 -1,-2 -1,-2 -1,-1 -1,-1 -2,-2 -1,0 -1,0 -2,0 -1,0 -1,0 -2,0 1,1 1,1 1,2 0,1 0,1 0,2 0,1 0,2 -1,2 0,1 -1,1 -2,1 -1,0 -2,0 -3,0 0,-1 -1,-2 -1,-3 0,-1 0,-1 1,-2 0,0 1,-1 1,-1 1,-1 2,-1 3,-2 1,0 2,0 4,0 2,0 3,0 5,1 1,0 2,1 3,2 1,1 2,2 3,3 0,1 0,2 0,4l0 9c0,1 0,1 1,1 0,1 0,1 1,1 0,0 0,0 1,0 0,-1 1,-1 1,-2 0,1 0,2 0,2 -1,1 -1,1 -1,2 -1,0 -2,0 -2,1 -1,0 -2,0 -2,0 -1,0 -3,0 -3,-1 -1,-1 -2,-2 -2,-3 -1,2 -2,3 -3,3 -1,1 -3,1 -4,1 -3,0 -5,0 -7,-1 -1,-2 -2,-3 -2,-5zm11 5c0,0 1,0 1,-1 1,0 1,0 1,-1 1,0 1,0 1,-1 1,0 1,-1 1,-1l0 -7c-1,0 -1,0 -2,0 -1,0 -1,1 -1,1 -1,0 -2,0 -3,1 -1,2 -1,3 -1,5 0,1 0,2 1,3 0,0 1,1 2,1z"/>
  <path id="3" fill="url(#id3)" fill-rule="nonzero" d="M81 31c1,0 1,0 2,0 1,1 1,1 2,1 0,1 1,1 1,2 0,0 0,1 0,2l0 6c1,0 1,-1 1,-1 0,0 1,0 1,0 0,0 1,-1 2,-1 0,0 1,0 2,0 1,0 3,0 4,1 1,0 2,1 3,2 1,1 2,2 2,4 1,1 1,3 1,5 0,2 0,4 -1,6 0,1 -1,2 -2,3 -1,1 -2,2 -3,3 -1,0 -2,0 -3,0 -2,0 -3,0 -5,-1 -1,0 -2,-2 -2,-3 0,0 0,0 0,0 0,0 0,0 0,0 -1,1 -1,1 -1,1 0,1 -1,1 -1,2 -1,0 -1,0 -2,1 0,0 -1,0 -1,0 -1,0 -1,0 -2,0l0 -28c0,-1 0,-1 0,-1 0,-1 -1,-1 -1,-1 0,0 -1,0 -1,1 -1,0 -1,0 -2,1 0,-1 0,-1 1,-2 0,0 0,-1 1,-1 0,-1 1,-1 2,-1 1,-1 1,-1 2,-1zm5 12l0 16c1,0 1,1 1,1 0,1 1,1 1,2 0,0 1,0 1,0 1,1 1,1 1,1 1,0 1,0 2,-1 0,0 1,0 1,-1 0,-1 1,-2 1,-4 0,-1 0,-3 0,-5 0,-2 0,-4 0,-5 0,-2 -1,-3 -1,-4 0,0 -1,-1 -1,-1 -1,0 -1,-1 -2,-1 -1,0 -1,1 -2,1 0,0 -1,1 -2,1z"/>
  <path id="4" fill="url(#id4)" fill-rule="nonzero" d="M110 42c-1,0 -2,0 -2,0 -1,1 -1,1 -1,2 0,0 -1,1 -1,2 0,1 0,1 0,2l-1 0 0 -7 21 0 0 1 -13 21 9 0c1,0 1,-1 2,-1 0,0 0,-1 1,-1 0,-1 0,-2 0,-2 0,-1 0,-2 0,-3l1 0 0 8 -21 0 0 -1 13 -21 -8 0z"/>
  <path id="5" fill="url(#id5)" fill-rule="nonzero" d="M142 63c1,0 1,0 2,0 1,0 1,-1 1,-2 1,-1 1,-2 1,-3 1,-2 1,-4 1,-6 0,-2 0,-4 -1,-5 0,-2 0,-3 -1,-4 0,-1 0,-1 -1,-1 -1,-1 -1,-1 -2,-1 0,0 -1,0 -1,1 -1,0 -1,0 -2,1 0,1 0,2 -1,4 0,1 0,3 0,5 0,2 0,4 0,6 1,1 1,2 1,3 1,1 1,2 2,2 0,0 1,0 1,0zm0 -23c2,0 4,0 6,1 1,0 2,1 3,2 2,1 2,3 3,4 0,2 1,3 1,5 0,2 -1,4 -1,5 -1,2 -1,3 -3,4 -1,1 -2,2 -3,3 -2,0 -4,0 -6,0 -1,0 -3,0 -5,0 -1,-1 -3,-2 -4,-3 -1,-1 -1,-2 -2,-4 -1,-1 -1,-3 -1,-5 0,-2 0,-3 1,-5 1,-1 1,-3 2,-4 1,-1 3,-2 4,-2 2,-1 4,-1 5,-1z"/>
  <path id="6" fill="url(#id6)" fill-rule="nonzero" d="M161 43c-1,0 -1,1 -1,1 -1,0 -1,1 -2,1 0,0 0,-1 1,-2 0,0 0,-1 1,-1 0,-1 1,-1 2,-1 0,0 1,-1 2,-1 1,0 2,1 3,1 1,1 2,1 2,2 1,-1 2,-2 3,-2 1,-1 2,-1 4,-1 1,0 2,0 3,1 1,0 2,1 3,1 1,1 1,2 2,3 0,1 0,2 0,3l0 11c0,1 0,1 1,1 0,1 0,1 1,1 0,0 0,0 1,-1 0,0 1,0 1,-1 0,1 0,1 0,2 -1,1 -1,1 -1,2 -1,0 -2,0 -2,1 -1,0 -2,0 -3,0 0,0 -1,0 -2,0 0,-1 -1,-1 -1,-1 -1,-1 -1,-1 -2,-2 0,0 0,-1 0,-2l0 -11c0,-1 0,-2 0,-3 -1,-1 -1,-1 -1,-2 0,0 -1,-1 -1,-1 -1,0 -1,0 -2,0 0,0 -1,0 -1,0 0,0 -1,0 -1,1 0,0 -1,1 -1,1 0,0 0,1 -1,1l0 14c0,1 0,1 0,2 0,0 1,1 1,1 0,0 0,1 1,1 0,0 0,0 1,0l0 1 -13 0 0 -1c1,0 1,0 2,0 0,0 0,-1 1,-1 0,0 0,-1 0,-1 0,-1 0,-1 0,-2l0 -14c0,-1 0,-1 0,-1 -1,0 -1,-1 -1,-1z"/>
  <path id="7" fill="url(#id7)" fill-rule="nonzero" d="M199 57c0,1 0,2 -1,3 0,0 0,0 0,0 0,0 0,1 0,1 0,0 0,1 0,1 0,0 1,0 1,0 1,1 1,1 2,1 0,0 1,0 1,0 1,0 2,0 3,-1 1,0 1,-1 1,-2 0,-1 0,-1 0,-2 -1,0 -1,0 -1,-1 -1,0 -1,0 -2,-1 0,0 -1,-1 -2,-1 -2,-1 -3,-2 -4,-2 -1,-1 -2,-2 -3,-2 0,-1 -1,-2 -1,-2 0,-1 0,-2 0,-2 0,-1 0,-2 0,-3 1,-1 1,-2 2,-2 1,-1 2,-1 3,-2 2,0 3,0 4,0 2,0 3,0 4,0 2,1 3,1 4,2 0,0 1,1 2,2 0,1 1,1 1,2 0,2 -1,2 -1,3 -1,1 -2,1 -3,1 -1,0 -2,0 -2,-1 -1,0 -1,-1 -1,-2 0,-1 0,-1 0,-2 0,0 0,-1 1,-1 0,-1 0,-1 0,-1 0,0 0,-1 -1,-1 -1,-1 -1,-1 -2,-1 -1,0 -2,0 -3,1 -1,1 -1,1 -1,2 0,1 0,2 1,2 0,1 0,1 1,1 0,1 1,1 1,1 1,1 1,1 1,1 2,1 4,2 5,3 1,0 2,1 3,2 0,0 1,1 1,2 0,0 0,1 0,1 0,1 0,2 -1,3 0,1 -1,2 -2,3 -1,0 -2,1 -3,1 -2,0 -3,0 -5,0 -1,0 -2,0 -3,0 -2,0 -3,-1 -4,-1 -1,-1 -2,-1 -2,-2 -1,-1 -1,-2 -1,-3 0,-2 0,-3 1,-3 0,-1 1,-2 2,-2 1,0 2,1 3,2 0,0 1,1 1,2z"/>
  <path id="8" fill="url(#id8)" fill-rule="nonzero" d="M217 45c0,0 0,-1 0,-2 0,0 1,-1 1,-1 1,-1 1,-1 2,-1 1,0 1,-1 2,-1 1,0 1,1 2,1 0,0 1,0 1,1 1,0 1,1 1,1 1,0 1,1 1,1 0,0 0,0 0,0 0,0 0,0 0,0 1,-1 2,-2 3,-3 1,-1 2,-1 4,-1 1,0 2,0 4,1 1,0 2,1 3,2 0,1 1,2 2,4 0,1 0,3 0,5 0,2 0,4 0,6 -1,1 -2,2 -2,3 -1,1 -2,2 -4,3 -1,0 -2,0 -4,0 -1,0 -1,0 -2,0 -1,0 -1,0 -2,0 0,-1 0,-1 0,-1 -1,0 -1,0 -1,0l0 5c0,1 0,2 0,2 0,1 0,1 0,1 0,1 1,1 1,1 0,0 1,0 2,0l0 1 -13 0 0 -1c0,0 1,0 1,0 1,0 1,0 1,-1 0,0 0,0 0,-1 0,0 0,-1 0,-2l0 -23c0,0 0,-1 0,-1 0,0 0,-1 -1,-1 0,0 0,1 -1,1 0,0 -1,1 -1,1zm11 16c0,1 1,1 1,1 1,1 2,1 3,1 0,0 1,0 1,0 1,-1 1,-1 1,-2 1,-1 1,-2 1,-3 0,-2 0,-3 0,-6 0,-2 0,-4 0,-5 0,-1 0,-3 -1,-3 0,-1 0,-2 -1,-2 0,0 -1,0 -1,0 -1,0 -1,0 -2,0 0,0 0,1 -1,1 0,0 0,1 0,1 -1,0 -1,1 -1,1l0 16z"/>
  <path id="9" fill="url(#id9)" fill-rule="nonzero" d="M261 63c0,0 1,0 1,0 1,0 1,-1 2,-2 0,-1 0,-2 1,-3 0,-2 0,-4 0,-6 0,-2 0,-4 0,-5 -1,-2 -1,-3 -1,-4 -1,-1 -1,-1 -2,-1 0,-1 -1,-1 -1,-1 -1,0 -1,0 -2,1 -1,0 -1,0 -1,1 -1,1 -1,2 -1,4 -1,1 -1,3 -1,5 0,2 0,4 1,6 0,1 0,2 1,3 0,1 0,2 1,2 1,0 1,0 2,0zm0 -23c1,0 3,0 5,1 1,0 3,1 4,2 1,1 1,3 2,4 1,2 1,3 1,5 0,2 0,4 -1,5 -1,2 -1,3 -2,4 -1,1 -3,2 -4,3 -2,0 -4,0 -5,0 -2,0 -4,0 -6,0 -1,-1 -2,-2 -3,-3 -2,-1 -2,-2 -3,-4 0,-1 -1,-3 -1,-5 0,-2 1,-3 1,-5 1,-1 1,-3 3,-4 1,-1 2,-2 3,-2 2,-1 4,-1 6,-1z"/>
  <path id="10" fill="url(#id10)" fill-rule="nonzero" d="M279 43c0,0 -1,1 -1,1 -1,0 -1,1 -2,1 0,0 0,-1 1,-2 0,0 0,-1 1,-1 1,-1 1,-1 2,-1 1,0 1,-1 2,-1 1,0 2,1 3,1 1,1 2,2 2,3 1,-1 2,-2 3,-3 1,0 2,-1 4,-1 0,0 1,1 2,1 1,0 1,0 2,1 0,0 0,1 1,1 0,1 0,1 0,2 0,1 0,2 -1,2 -1,1 -2,1 -3,1 0,0 -1,0 -1,0 -1,0 -1,0 -1,-1 0,0 -1,-1 -1,-1 0,0 0,-1 0,-1 0,-1 0,-2 0,-2 1,-1 1,-1 1,-1 -1,0 -1,0 -2,0 0,0 -1,1 -1,1 -1,0 -1,1 -1,1 -1,1 -1,1 -1,2l0 13c0,1 0,1 0,2 0,0 0,1 0,1 0,0 0,1 1,1 0,0 1,0 1,0l0 1 -13 0 0 -1c1,0 2,0 2,0 0,0 1,-1 1,-1 0,0 0,-1 0,-1 0,-1 0,-1 0,-2l0 -14c0,-1 0,-1 0,-1 0,0 -1,-1 -1,-1z"/>
 </g>
</svg>
