

<!-- Creator: CorelDRAW X8 -->
<svg xmlns="http://www.w3.org/2000/svg" xml:space="preserve" x="0" y="0" width="60.8923mm" height="25mm" version="1.1" shape-rendering="geometricPrecision" text-rendering="geometricPrecision" image-rendering="optimizeQuality" fill-rule="evenodd" clip-rule="evenodd"
viewBox="0 0 218 89"
 xmlns:xlink="http://www.w3.org/1999/xlink">
 <defs>
   <linearGradient id="id0" gradientUnits="userSpaceOnUse" x1="-3.38795e-05" y1="44.7152" x2="217.827" y2="44.7152">
    <stop offset="0" stop-opacity="1" stop-color="#8B2937"/>
    <stop offset="1" stop-opacity="1" stop-color="#ECECEC"/>
   </linearGradient>
   <linearGradient id="id1" gradientUnits="userSpaceOnUse" x1="-3.38795e-05" y1="44.7152" x2="217.827" y2="44.7152">
    <stop offset="0" stop-opacity="1" stop-color="#8B2937"/>
    <stop offset="1" stop-opacity="1" stop-color="#ECECEC"/>
   </linearGradient>
   <linearGradient id="id2" gradientUnits="userSpaceOnUse" x1="-3.38795e-05" y1="44.7152" x2="217.827" y2="44.7152">
    <stop offset="0" stop-opacity="1" stop-color="#8B2937"/>
    <stop offset="1" stop-opacity="1" stop-color="#ECECEC"/>
   </linearGradient>
   <linearGradient id="id3" gradientUnits="userSpaceOnUse" x1="-3.38795e-05" y1="44.7152" x2="217.827" y2="44.7152">
    <stop offset="0" stop-opacity="1" stop-color="#8B2937"/>
    <stop offset="1" stop-opacity="1" stop-color="#ECECEC"/>
   </linearGradient>
   <linearGradient id="id4" gradientUnits="userSpaceOnUse" x1="-3.38795e-05" y1="44.7152" x2="217.827" y2="44.7152">
    <stop offset="0" stop-opacity="1" stop-color="#8B2937"/>
    <stop offset="1" stop-opacity="1" stop-color="#ECECEC"/>
   </linearGradient>
   <linearGradient id="id5" gradientUnits="userSpaceOnUse" x1="-3.38795e-05" y1="44.7152" x2="217.827" y2="44.7152">
    <stop offset="0" stop-opacity="1" stop-color="#8B2937"/>
    <stop offset="1" stop-opacity="1" stop-color="#ECECEC"/>
   </linearGradient>
   <linearGradient id="id6" gradientUnits="userSpaceOnUse" x1="-3.38795e-05" y1="44.7152" x2="217.827" y2="44.7152">
    <stop offset="0" stop-opacity="1" stop-color="#8B2937"/>
    <stop offset="1" stop-opacity="1" stop-color="#ECECEC"/>
   </linearGradient>
   <linearGradient id="id7" gradientUnits="userSpaceOnUse" x1="-3.38795e-05" y1="44.7152" x2="217.827" y2="44.7152">
    <stop offset="0" stop-opacity="1" stop-color="#8B2937"/>
    <stop offset="1" stop-opacity="1" stop-color="#ECECEC"/>
   </linearGradient>
   <linearGradient id="id8" gradientUnits="userSpaceOnUse" x1="-3.38795e-05" y1="44.7152" x2="217.827" y2="44.7152">
    <stop offset="0" stop-opacity="1" stop-color="#8B2937"/>
    <stop offset="1" stop-opacity="1" stop-color="#ECECEC"/>
   </linearGradient>
   <linearGradient id="id9" gradientUnits="userSpaceOnUse" x1="-3.38795e-05" y1="44.7152" x2="217.827" y2="44.7152">
    <stop offset="0" stop-opacity="1" stop-color="#8B2937"/>
    <stop offset="1" stop-opacity="1" stop-color="#ECECEC"/>
   </linearGradient>
 </defs>
 <g id="Katman_x0020_1">
  <metadata id="CorelCorpID_0Corel-Layer"/>
  <rect fill="none" width="217.826" height="89.4311"/>
  <path fill="url(#id0)" fill-rule="nonzero" d="M0 54c1,0 1,0 1,0 1,0 1,-1 1,-1 0,0 0,-1 0,-1 0,0 0,-1 0,-2l0 -19c0,-1 0,-1 0,-2 0,0 0,-1 0,-1 0,0 0,0 -1,-1 0,0 0,0 -1,0l0 0 21 0 0 6 -1 0c0,-1 0,-1 0,-2 0,-1 0,-1 0,-2 0,0 -1,-1 -1,-1 0,0 -1,0 -2,0l-8 0 0 12 4 0c1,0 1,0 2,0 0,0 0,-1 0,-1 0,-1 0,-1 0,-1 0,-1 0,-1 0,-2l1 0 0 9 -1 0c0,0 0,-1 0,-1 0,-1 0,-1 0,-2 0,0 0,0 0,0 -1,-1 -1,-1 -2,-1l-4 0 0 12 9 0c1,0 1,0 2,0 0,0 0,-1 0,-1 1,-1 1,-1 1,-2 0,-1 0,-1 0,-2l1 0 0 6 -22 0 0 0z"/>
  <path id="1" fill="url(#id1)" fill-rule="nonzero" d="M28 29c-1,0 -1,0 -2,0 0,1 0,1 -1,1 0,0 0,-1 1,-1 0,0 0,-1 1,-1 0,-1 1,-1 1,-1 1,0 2,-1 2,-1 1,0 1,1 2,1 1,0 1,0 1,0 1,1 1,1 2,2 0,0 0,1 0,1l0 20c0,1 0,2 0,2 0,0 0,1 0,1 0,0 1,1 1,1 0,0 1,0 1,0l0 0 -11 0 0 0c1,0 1,0 2,0 0,0 0,-1 0,-1 0,0 1,-1 1,-1 0,0 0,-1 0,-2l0 -20c0,0 -1,0 -1,-1 0,0 0,0 0,0z"/>
  <path id="2" fill="url(#id2)" fill-rule="nonzero" d="M40 49c0,-1 0,-2 1,-3 1,0 2,-1 3,-1 1,-1 2,-1 4,-1 1,0 2,0 3,0 0,0 1,0 1,0 0,0 0,0 1,0l0 -2c0,-1 0,-2 -1,-3 0,-1 0,-2 0,-3 -1,0 -1,-1 -2,-1 0,0 -1,0 -2,0 0,0 -1,0 -1,0 0,1 0,1 1,2 0,0 0,1 0,1 0,1 -1,2 -1,2 -1,1 -1,1 -2,1 -1,0 -2,0 -2,-1 -1,0 -1,-1 -1,-2 0,0 0,-1 0,-1 0,-1 1,-1 1,-2 1,0 2,0 3,-1 1,0 2,0 3,0 2,0 3,0 4,1 2,0 3,1 3,1 1,1 2,2 2,3 1,1 1,2 1,3l0 8c0,1 0,1 0,2 0,0 1,0 1,0 0,0 1,0 1,0 1,-1 1,-1 1,-1 0,0 0,1 0,1 0,1 -1,1 -1,1 -1,1 -1,1 -2,1 0,1 -1,1 -1,1 -1,0 -2,-1 -3,-1 -1,-1 -1,-2 -2,-3 0,2 -1,2 -2,3 -1,1 -2,1 -3,1 -3,0 -5,0 -6,-2 -1,-1 -2,-2 -2,-4zm9 5c0,0 1,-1 1,-1 1,0 1,0 1,-1 1,0 1,0 1,-1 0,0 1,0 1,-1l0 -5c-1,0 -2,0 -2,0 -1,0 -1,0 -1,0 -1,0 -2,0 -2,1 -1,1 -1,3 -1,4 0,1 0,2 0,3 1,0 1,1 2,1z"/>
  <path id="3" fill="url(#id3)" fill-rule="nonzero" d="M69 36c-1,0 -1,0 -2,0 0,0 0,1 0,1 -1,1 -1,1 -1,2 0,1 0,1 0,2l-1 0 0 -6 18 0 0 1 -11 17 7 0c1,0 2,0 2,0 1,0 1,-1 1,-1 0,-1 0,-1 0,-2 0,-1 0,-1 0,-2l1 0 0 6 -18 0 0 -1 11 -17 -7 0z"/>
  <path id="4" fill="url(#id4)" fill-rule="nonzero" d="M89 37c-1,0 -1,0 -1,0 -1,1 -1,1 -2,1 0,0 1,-1 1,-1 0,-1 0,-1 1,-1 0,-1 1,-1 2,-1 0,0 1,-1 2,-1 0,0 1,0 1,1 1,0 1,0 2,0 0,1 0,1 1,2 0,0 0,1 0,1l0 12c0,1 0,2 0,2 0,0 0,1 0,1 1,0 1,1 1,1 0,0 1,0 1,0l0 0 -11 0 0 0c1,0 1,0 2,0 0,0 0,-1 0,-1 1,0 1,-1 1,-1 0,0 0,-1 0,-2l0 -12c0,0 0,0 -1,-1 0,0 0,0 0,0z"/>
  <path id="5" fill="url(#id5)" fill-rule="nonzero" d="M101 58c0,0 0,-1 1,-2 0,0 1,0 2,0 1,0 1,0 2,0 1,1 1,2 1,3 0,0 0,1 -1,1 0,0 0,1 0,1 0,1 1,1 1,1 1,0 2,0 3,0 2,0 3,0 5,-1 1,0 2,0 3,-1 1,0 1,-1 2,-1 0,-1 0,-1 0,-2 0,0 0,-1 -1,-1 -1,-1 -2,-1 -4,-1l-7 0c-1,0 -2,0 -3,0 -1,-1 -1,-1 -2,-1 0,-1 -1,-1 -1,-2 0,0 0,-1 0,-1 0,-1 0,-2 0,-2 0,-1 0,-1 1,-1 0,-1 1,-1 1,-1 0,0 1,-1 1,-1 -1,-1 -1,-1 -2,-2 0,-1 0,-2 0,-3 0,-2 0,-3 2,-5 1,-1 3,-2 6,-2 2,0 3,1 4,1 1,0 2,0 2,1 1,-1 1,-1 1,-2 0,0 1,-1 1,-1 0,0 1,-1 1,-1 1,0 1,0 2,0 0,0 1,0 2,0 0,0 0,1 0,2 0,0 0,1 0,1 0,0 -1,1 -1,1 0,0 -1,-1 -1,-1 0,0 0,-1 0,-1 0,0 0,-1 0,-1 0,0 0,0 0,0 0,0 -1,0 -1,0 0,0 -1,0 -1,0 0,1 -1,1 -1,2 0,0 0,1 -1,1 1,1 1,2 2,2 0,1 0,2 0,3 0,2 -1,3 -2,5 -1,1 -4,1 -7,1 -1,0 -2,0 -2,0 -1,0 -2,0 -3,0 0,0 0,0 -1,0 0,0 0,1 0,1 0,0 0,0 0,1 0,0 0,0 0,0 0,0 1,0 1,0 1,0 1,0 2,0l7 0c2,0 4,1 5,2 1,1 2,3 2,4 0,1 0,3 -1,3 0,1 -1,2 -2,3 -1,1 -2,1 -3,1 -2,1 -3,1 -5,1 -1,0 -2,0 -3,0 -1,0 -2,-1 -3,-1 -1,0 -2,-1 -3,-1 -1,-1 -1,-2 -1,-3zm8 -17c0,1 0,2 0,3 0,0 0,1 0,1 1,1 1,1 1,1 1,0 1,0 1,0 1,0 1,0 2,0 0,0 0,0 0,-1 1,0 1,-1 1,-1 0,-1 0,-2 0,-3 0,-1 0,-2 0,-3 0,-1 0,-1 -1,-2 0,0 0,0 0,0 -1,-1 -1,-1 -2,-1 0,0 0,0 -1,1 0,0 0,0 -1,0 0,1 0,1 0,2 0,1 0,2 0,3zm0 -14c1,0 1,1 2,1 0,0 1,0 1,0 1,0 1,0 2,0 0,0 1,-1 1,-1l1 0c0,0 0,1 -1,1 0,1 0,1 0,1 -1,1 -1,1 -1,1 -1,0 -1,0 -2,0 0,0 -1,0 -1,0 -1,0 -1,0 -1,-1 -1,0 -1,0 -1,-1 0,0 0,-1 0,-1l0 0z"/>
  <path id="6" fill="url(#id6)" fill-rule="nonzero" d="M132 49c0,1 -1,1 -1,2 0,0 0,0 0,0 0,1 0,1 0,1 0,0 0,1 0,1 0,0 1,0 1,0 0,0 1,1 1,1 1,0 1,0 1,0 1,0 2,0 3,-1 0,0 1,-1 1,-2 0,0 0,-1 0,-1 -1,0 -1,-1 -1,-1 -1,0 -1,-1 -2,-1 0,0 -1,-1 -1,-1 -2,-1 -3,-2 -4,-2 -1,-1 -2,-1 -2,-2 -1,0 -1,-1 -1,-2 -1,0 -1,-1 -1,-1 0,-1 0,-2 1,-3 0,0 1,-1 2,-1 0,-1 1,-1 2,-2 1,0 2,0 4,0 1,0 2,0 3,0 1,1 2,1 3,1 1,1 1,2 2,2 0,1 1,2 1,3 0,1 -1,1 -1,2 -1,1 -2,1 -2,1 -1,0 -2,0 -3,-1 0,-1 0,-1 0,-2 0,-1 0,-1 0,-2 0,0 0,0 0,-1 1,0 1,0 1,0 0,-1 -1,-1 -1,-1 -1,-1 -1,-1 -2,-1 -1,0 -2,0 -2,1 -1,0 -1,1 -1,2 0,0 0,1 0,1 0,1 1,1 1,1 0,1 1,1 1,1 1,0 1,1 1,1 2,1 3,1 4,2 1,1 2,1 3,2 0,0 1,1 1,1 0,1 0,2 0,2 0,1 0,2 -1,2 0,1 -1,2 -2,2 -1,1 -2,1 -3,2 -1,0 -2,0 -3,0 -1,0 -3,0 -4,0 -1,-1 -2,-1 -3,-1 0,-1 -1,-1 -2,-2 0,-1 -1,-2 -1,-3 0,-1 1,-2 1,-2 1,-1 2,-1 3,-1 1,0 1,0 2,0 0,1 1,2 1,3z"/>
  <path id="7" fill="url(#id7)" fill-rule="nonzero" d="M147 38c0,0 0,-1 0,-1 1,-1 1,-1 1,-1 1,-1 1,-1 2,-1 0,0 1,-1 2,-1 0,0 1,1 1,1 1,0 1,0 1,1 1,0 1,0 1,1 1,0 1,0 1,1 0,0 0,0 0,0 0,0 0,0 0,0 1,-1 1,-2 2,-3 1,-1 3,-1 4,-1 1,0 2,0 3,1 1,0 2,1 3,2 0,1 1,2 1,3 1,1 1,3 1,5 0,1 0,3 -1,4 0,1 -1,2 -2,3 0,1 -1,2 -2,2 -1,1 -2,1 -4,1 0,0 -1,0 -2,0 0,0 -1,-1 -1,-1 0,0 -1,0 -1,0 0,0 0,0 0,-1l0 5c0,1 0,2 0,2 0,0 0,1 0,1 0,0 0,0 1,1 0,0 0,0 1,0l0 0 -11 0 0 0c0,0 1,0 1,0 1,-1 1,-1 1,-1 0,0 0,-1 0,-1 0,0 0,-1 0,-2l0 -19c0,-1 0,-1 0,-2 0,0 0,0 -1,0 0,0 0,0 -1,0 0,1 -1,1 -1,1zm10 14c0,1 0,1 1,1 0,1 1,1 2,1 0,0 1,0 1,-1 0,0 1,0 1,-1 0,-1 1,-2 1,-3 0,-1 0,-2 0,-4 0,-2 0,-4 0,-5 0,-1 -1,-2 -1,-3 0,-1 0,-1 -1,-1 0,0 -1,-1 -1,-1 0,0 -1,1 -1,1 0,0 -1,0 -1,0 0,1 -1,1 -1,2 0,0 0,0 0,1l0 13z"/>
  <path id="8" fill="url(#id8)" fill-rule="nonzero" d="M185 54c0,0 1,0 1,0 0,-1 1,-1 1,-2 1,-1 1,-2 1,-3 0,-1 1,-3 1,-4 0,-2 -1,-4 -1,-5 0,-1 0,-2 -1,-3 0,-1 -1,-1 -1,-2 0,0 -1,0 -1,0 -1,0 -1,0 -2,0 0,1 -1,1 -1,2 0,1 -1,2 -1,3 0,1 0,3 0,5 0,1 0,3 0,4 0,1 1,2 1,3 0,1 1,1 1,2 1,0 1,0 2,0zm0 -20c1,0 3,0 4,1 1,0 3,1 3,2 1,1 2,2 3,3 0,1 0,3 0,5 0,1 0,3 0,4 -1,1 -2,2 -3,3 0,1 -2,2 -3,2 -1,1 -3,1 -4,1 -2,0 -3,0 -5,-1 -1,0 -2,-1 -3,-2 -1,-1 -2,-2 -2,-3 -1,-1 -1,-3 -1,-4 0,-2 0,-4 1,-5 0,-1 1,-2 2,-3 1,-1 2,-2 3,-2 2,-1 3,-1 5,-1z"/>
  <path id="9" fill="url(#id9)" fill-rule="nonzero" d="M201 37c-1,0 -1,0 -2,0 0,1 0,1 -1,1 0,0 0,-1 1,-1 0,-1 0,-1 1,-1 0,-1 1,-1 1,-1 1,0 2,-1 2,-1 1,0 2,1 3,1 1,1 1,1 2,2 0,-1 1,-1 2,-2 1,0 2,-1 3,-1 1,0 1,1 2,1 1,0 1,0 1,1 1,0 1,0 1,1 1,0 1,1 1,1 0,1 0,2 -1,2 -1,1 -1,1 -2,1 -1,0 -1,0 -2,0 0,0 0,0 -1,-1 0,0 0,0 0,-1 0,0 0,-1 0,-1 0,-1 0,-1 0,-2 0,0 0,0 0,-1 0,0 0,1 -1,1 0,0 -1,0 -1,1 -1,0 -1,0 -1,1 -1,0 -1,1 -1,1l0 11c0,1 0,2 0,2 0,0 0,1 0,1 0,0 1,1 1,1 0,0 1,0 1,0l0 0 -11 0 0 0c1,0 1,0 2,0 0,0 0,-1 0,-1 0,0 0,-1 0,-1 0,0 0,-1 0,-2l0 -12c0,0 0,0 0,-1 0,0 0,0 0,0z"/>
 </g>
</svg>
