

<!-- Creator: CorelDRAW X8 -->
<svg xmlns="http://www.w3.org/2000/svg" xml:space="preserve" width="117.59mm" height="25mm" version="1.1" shape-rendering="geometricPrecision" text-rendering="geometricPrecision" image-rendering="optimizeQuality" fill-rule="evenodd" clip-rule="evenodd"
viewBox="0 0 745 158"
 xmlns:xlink="http://www.w3.org/1999/xlink">
 <defs>
    <linearGradient id="id0" gradientUnits="userSpaceOnUse" x1="-0" y1="66.3436" x2="216.161" y2="66.3436">
     <stop offset="0" stop-opacity="1" stop-color="#E42D24"/>
     <stop offset="1" stop-opacity="1" stop-color="black"/>
    </linearGradient>
    <linearGradient id="id1" gradientUnits="userSpaceOnUse" x1="-0" y1="85.4858" x2="216.161" y2="85.4858">
     <stop offset="0" stop-opacity="1" stop-color="#E42D24"/>
     <stop offset="1" stop-opacity="1" stop-color="black"/>
    </linearGradient>
 </defs>
 <g id="Katman_x0020_1">
  <metadata id="CorelCorpID_0Corel-Layer"/>
  <g id="_2222495885824">
   <path fill="#E42D24" fill-rule="nonzero" d="M267 95c1,0 2,0 2,0 1,-1 2,-1 2,-2 1,0 1,-1 2,-1 0,-1 1,-2 1,-2l0 -16c0,0 0,0 -1,0 0,-1 0,-1 -1,-1 0,0 -1,0 -1,0 -1,0 -1,0 -1,0l0 -2 20 0 0 2c-1,0 -1,0 -2,0 0,0 0,0 -1,0 0,0 -1,0 -1,1 0,0 -1,0 -1,0l0 16c0,1 1,1 1,2 1,0 1,0 2,0 1,0 2,0 3,0 1,-1 1,-1 2,-2 0,1 0,2 -1,3 0,1 -1,1 -2,2 -1,1 -2,1 -3,2 -1,0 -2,0 -3,0 -1,0 -2,0 -3,0 -1,0 -2,-1 -2,-1 -1,-1 -2,-1 -3,-2 0,-1 -1,-2 -1,-3 -1,2 -3,4 -4,5 -2,1 -4,2 -7,2 -2,0 -5,-1 -7,-2 -2,-1 -4,-3 -6,-5 -2,-2 -3,-5 -4,-8 -1,-3 -2,-7 -2,-11 0,-4 1,-8 2,-11 1,-3 2,-6 4,-8 2,-2 5,-4 7,-5 3,-1 6,-1 9,-1 2,0 4,0 6,0 2,0 4,1 5,2 2,1 3,2 4,4 1,1 1,3 1,5 0,1 0,2 0,2 0,1 -1,2 -1,2 -1,1 -2,1 -3,2 0,0 -1,0 -3,0 -2,0 -3,0 -5,-2 -1,-1 -1,-3 -1,-6 0,-1 0,-3 0,-4 1,-2 1,-3 1,-3 0,0 0,0 0,0 0,0 0,0 0,-1 -1,0 -1,0 -1,0 0,0 -1,0 -1,0 -2,0 -3,1 -5,1 -1,1 -2,2 -3,4 -1,1 -1,3 -2,5 0,1 -1,3 -1,5 0,2 0,3 -1,5 0,2 0,3 0,5 0,4 1,8 1,11 1,3 1,5 2,7 1,1 2,3 3,3 2,1 3,1 4,1z"/>
   <path id="1" fill="#E42D24" fill-rule="nonzero" d="M316 98c-3,0 -6,-1 -8,-2 -2,-1 -4,-2 -6,-4 -2,-1 -3,-3 -4,-6 -1,-2 -1,-5 -1,-7 0,-3 0,-6 1,-8 1,-2 2,-4 4,-6 1,-1 3,-2 6,-3 2,-1 5,-1 8,-1 1,0 3,0 5,0 1,0 3,1 5,2 1,1 2,2 4,3 1,1 1,3 1,5 0,1 0,3 -1,4 -1,1 -2,2 -3,3 -1,1 -3,1 -4,2 -2,0 -4,0 -5,0 -2,1 -4,1 -5,1 -2,0 -3,0 -4,0 0,3 0,6 0,7 0,2 1,4 1,5 1,1 2,2 3,2 0,0 2,1 3,1 2,0 5,-1 7,-2 3,-1 5,-2 7,-4 0,1 0,2 -1,3 0,1 -1,1 -2,2 -1,1 -3,2 -5,2 -1,1 -3,1 -6,1zm-7 -19c1,0 2,0 4,0 1,-1 2,-1 3,-2 1,0 2,-1 3,-2 0,-1 1,-3 1,-5 0,-1 -1,-2 -1,-3 0,-1 0,-1 -1,-2 0,-1 -1,-2 -1,-2 -1,0 -1,-1 -2,-1 -1,0 -2,1 -3,1 0,1 -1,2 -2,3 0,1 -1,3 -1,5 0,2 0,5 0,8z"/>
   <path id="2" fill="#E42D24" fill-rule="nonzero" d="M340 66c0,0 -1,0 -2,1 -1,0 -1,1 -2,1 0,-1 0,-1 1,-2 0,-1 1,-2 2,-3 0,0 1,-1 3,-1 1,-1 2,-1 3,-1 2,0 3,1 5,1 1,1 2,2 3,4 1,-2 2,-3 4,-4 2,-1 3,-1 6,-1 2,0 3,0 5,1 2,0 3,1 4,2 1,1 2,2 3,4 1,1 1,3 1,4l0 18c0,1 0,1 0,2 1,0 1,0 2,0 0,0 1,0 2,0 0,-1 1,-1 2,-2 0,1 0,2 -1,3 0,0 -1,1 -2,2 -1,1 -2,1 -3,1 -1,1 -2,1 -3,1 -1,0 -2,0 -3,0 -1,-1 -2,-1 -3,-2 -1,-1 -1,-1 -2,-2 0,-1 0,-2 0,-3l0 -18c0,-1 0,-3 -1,-4 0,-1 -1,-2 -1,-3 -1,-1 -1,-1 -2,-1 0,-1 -1,-1 -2,-1 -1,0 -1,0 -2,1 0,0 -1,0 -2,1 0,0 -1,1 -1,2 0,0 -1,1 -1,2l0 21c0,1 0,2 0,2 0,1 0,2 1,2 0,1 0,1 1,1 0,1 1,1 2,1l0 1 -19 0 0 -1c1,0 2,0 2,-1 1,0 1,0 1,-1 1,0 1,-1 1,-2 0,0 0,-1 0,-2l0 -22c0,-1 0,-1 -1,-2 0,0 0,0 -1,0z"/>
   <path id="3" fill="#E42D24" fill-rule="nonzero" d="M401 98l0 2c1,0 2,0 3,1 1,0 1,0 2,0 1,1 1,1 1,2 1,1 1,2 1,2 0,2 0,2 -1,3 0,1 -1,1 -2,2 0,0 -1,0 -2,0 -1,1 -2,1 -3,1 0,0 -1,0 -1,0 -1,0 -2,0 -2,-1l0 -2c0,1 1,1 1,1 0,0 1,0 1,0 1,0 2,0 3,-1 0,-1 1,-1 1,-3 0,-1 -1,-2 -1,-2 -1,-1 -2,-1 -3,-1l0 -5c-4,-1 -7,-3 -9,-6 -3,-3 -4,-7 -4,-12 0,-6 2,-10 5,-14 3,-3 8,-4 14,-4 3,0 5,0 6,0 2,1 3,1 4,2 1,1 2,2 2,2 1,1 1,2 1,3 0,2 0,3 -1,4 -1,1 -2,1 -4,1 -2,0 -3,0 -4,-1 -1,-1 -1,-2 -1,-4 0,-1 0,-2 0,-3 0,-1 1,-2 1,-3 0,0 -1,0 -2,0 -1,0 -2,0 -3,1 -1,0 -2,1 -3,2 0,2 -1,3 -2,6 0,2 -1,5 -1,8 0,3 1,6 1,8 1,2 2,4 2,5 1,2 2,2 3,3 2,0 3,1 4,1 1,0 3,-1 5,-2 2,-1 4,-2 5,-4 0,1 0,2 0,3 -1,1 -2,1 -3,2 -1,1 -2,2 -4,2 -1,1 -3,1 -6,1 -1,0 -2,0 -4,0z"/>
   <path id="4" fill="#E42D24" fill-rule="nonzero" d="M426 52c0,0 -1,0 -2,1 -1,0 -1,1 -2,1 0,-1 0,-1 1,-2 0,-1 1,-2 2,-3 0,0 1,-1 3,-1 1,-1 2,-1 3,-1 1,0 2,0 3,1 1,0 2,0 3,1 0,1 1,1 1,2 1,1 1,2 1,3l0 36c0,1 0,2 0,2 0,1 0,2 1,2 0,1 0,1 1,1 1,1 1,1 2,1l0 1 -19 0 0 -1c1,0 2,0 2,-1 1,0 1,0 1,-1 1,0 1,-1 1,-2 0,0 0,-1 0,-2l0 -36c0,-1 0,-1 -1,-2 0,0 0,0 -1,0z"/>
   <path id="5" fill="#E42D24" fill-rule="nonzero" d="M468 98c-3,0 -6,-1 -8,-2 -3,-1 -5,-2 -6,-4 -2,-1 -3,-3 -4,-6 -1,-2 -2,-5 -2,-7 0,-3 1,-6 2,-8 1,-2 2,-4 3,-6 2,-1 4,-2 7,-3 2,-1 5,-1 8,-1 1,0 3,0 4,0 2,0 4,1 5,2 2,1 3,2 4,3 1,1 2,3 2,5 0,1 -1,3 -1,4 -1,1 -2,2 -3,3 -2,1 -3,1 -5,2 -1,0 -3,0 -5,0 -1,1 -3,1 -4,1 -2,0 -3,0 -5,0 0,3 1,6 1,7 0,2 0,4 1,5 1,1 1,2 2,2 1,0 2,1 4,1 2,0 5,-1 7,-2 3,-1 5,-2 7,-4 0,1 0,2 -1,3 -1,1 -1,1 -3,2 -1,1 -2,2 -4,2 -2,1 -4,1 -6,1zm-8 -19c2,0 3,0 4,0 2,-1 3,-1 4,-2 1,0 2,-1 2,-2 1,-1 1,-3 1,-5 0,-1 0,-2 0,-3 0,-1 -1,-1 -1,-2 0,-1 -1,-2 -1,-2 -1,0 -2,-1 -3,-1 0,0 -1,1 -2,1 -1,1 -1,2 -2,3 0,1 -1,3 -1,5 -1,2 -1,5 -1,8z"/>
   <path id="6" fill="#E42D24" fill-rule="nonzero" d="M492 66c-1,0 -1,0 -2,1 -1,0 -2,1 -2,1 0,-1 0,-1 0,-2 1,-1 2,-2 2,-3 1,0 2,-1 3,-1 1,-1 2,-1 4,-1 1,0 3,1 4,2 2,0 3,2 4,3 1,-1 2,-2 4,-3 2,-1 3,-2 5,-2 1,0 2,1 3,1 1,0 2,1 3,1 1,1 1,2 2,2 0,1 1,2 1,3 0,2 -1,3 -2,4 -1,1 -3,1 -4,1 -1,0 -2,0 -3,0 0,0 -1,-1 -1,-1 0,-1 -1,-2 -1,-2 0,-1 0,-2 0,-2 0,-1 0,-2 0,-3 0,-1 1,-2 1,-2 -1,0 -1,0 -2,1 -1,0 -2,1 -2,1 -1,1 -2,1 -3,2 0,1 -1,2 -1,2l0 21c0,1 0,2 0,2 0,1 0,2 0,2 1,1 1,1 2,1 0,1 1,1 2,1l0 1 -20 0 0 -1c1,0 2,0 3,-1 0,0 1,0 1,-1 0,0 0,-1 1,-2 0,0 0,-1 0,-2l0 -22c0,-1 -1,-1 -1,-2 0,0 -1,0 -1,0z"/>
   <path id="7" fill="#E42D24" fill-rule="nonzero" d="M532 47c1,0 2,0 3,1 1,0 2,0 3,1 0,0 1,1 1,2 1,1 1,2 1,3l0 9c1,0 1,0 1,0 1,-1 1,-1 1,-1 1,0 2,-1 3,-1 1,0 2,0 4,0 2,0 4,0 6,1 2,1 3,2 4,3 2,2 3,4 4,6 0,2 1,5 1,8 0,3 -1,6 -1,8 -1,3 -2,5 -3,6 -2,2 -3,3 -5,4 -2,0 -3,1 -5,1 -3,0 -5,-1 -7,-2 -2,-1 -3,-3 -4,-5 0,0 0,0 0,0 0,0 0,0 0,0 0,1 -1,2 -1,2 -1,1 -1,2 -2,2 0,1 -1,1 -2,1 -1,1 -2,1 -3,1 -1,0 -1,0 -2,0l0 -43c0,-1 0,-1 -1,-2 0,0 0,0 -1,0 0,0 -1,0 -2,0 -1,1 -1,2 -2,2 0,-1 0,-1 1,-2 0,-1 1,-2 2,-3 1,0 1,-1 3,-1 1,-1 2,-1 3,-1zm8 19l0 24c0,0 1,1 1,2 1,0 1,1 2,1 0,1 1,1 1,2 1,0 1,0 2,0 1,0 2,0 2,0 1,-1 1,-2 2,-3 1,-1 1,-3 1,-5 1,-2 1,-5 1,-8 0,-3 0,-6 -1,-8 0,-2 0,-4 -1,-5 -1,-1 -1,-2 -2,-3 -1,0 -1,0 -2,0 -1,0 -2,0 -3,1 -1,0 -2,1 -3,2z"/>
   <path id="8" fill="#E42D24" fill-rule="nonzero" d="M573 66c0,0 -1,0 -2,1 0,0 -1,1 -2,1 0,-1 0,-1 1,-2 0,-1 1,-2 2,-3 1,0 2,-1 3,-1 1,-1 2,-1 3,-1 1,0 2,0 3,1 1,0 2,0 3,1 0,1 1,1 2,2 0,1 0,2 0,3l0 22c0,1 0,2 0,2 0,1 1,2 1,2 0,1 0,1 1,1 1,1 1,1 2,1l0 1 -19 0 0 -1c1,0 2,0 2,-1 1,0 1,0 2,-1 0,0 0,-1 0,-2 0,0 0,-1 0,-2l0 -22c0,-1 0,-1 0,-2 -1,0 -1,0 -2,0zm3 -15c0,-1 0,-2 1,-2 1,-1 2,-2 3,-2 1,0 2,1 3,2 1,0 1,1 1,2 0,1 0,2 -1,3 -1,1 -2,1 -3,1 -1,0 -2,0 -3,-1 -1,-1 -1,-2 -1,-3z"/>
   <path id="9" fill="#E42D24" fill-rule="nonzero" d="M597 66c0,0 -1,0 -2,1 -1,0 -1,1 -2,1 0,-1 0,-1 1,-2 0,-1 1,-2 2,-3 0,0 1,-1 2,-1 2,-1 3,-1 4,-1 2,0 3,1 5,2 1,0 2,2 3,3 1,-1 2,-2 4,-3 2,-1 4,-2 5,-2 2,0 3,1 4,1 1,0 2,1 2,1 1,1 2,2 2,2 1,1 1,2 1,3 0,2 -1,3 -2,4 -1,1 -2,1 -4,1 -1,0 -2,0 -2,0 -1,0 -1,-1 -2,-1 0,-1 -1,-2 -1,-2 0,-1 0,-2 0,-2 0,-1 0,-2 0,-3 1,-1 1,-2 1,-2 0,0 -1,0 -2,1 -1,0 -1,1 -2,1 -1,1 -2,1 -2,2 -1,1 -2,2 -2,2l0 21c0,1 0,2 0,2 0,1 0,2 1,2 0,1 0,1 1,1 0,1 1,1 2,1l0 1 -19 0 0 -1c1,0 2,0 2,-1 1,0 1,0 1,-1 1,0 1,-1 1,-2 0,0 0,-1 0,-2l0 -22c0,-1 0,-1 -1,-2 0,0 0,0 -1,0z"/>
   <path id="10" fill="#E42D24" fill-rule="nonzero" d="M633 52c-1,0 -2,0 -3,1 0,0 -1,1 -2,1 0,-1 0,-1 1,-2 0,-1 1,-2 2,-3 1,0 2,-1 3,-1 1,-1 2,-1 3,-1 1,0 2,0 3,1 1,0 2,0 3,1 1,1 1,1 2,2 0,1 0,2 0,3l0 36c0,1 0,2 1,2 0,1 0,2 0,2 0,1 1,1 1,1 1,1 2,1 3,1l0 1 -20 0 0 -1c1,0 2,0 2,-1 1,0 1,0 2,-1 0,0 0,-1 0,-2 0,0 0,-1 0,-2l0 -36c0,-1 0,-1 0,-2 -1,0 -1,0 -1,0z"/>
   <path id="11" fill="#E42D24" fill-rule="nonzero" d="M658 66c-1,0 -2,0 -3,1 0,0 -1,1 -2,1 0,-1 0,-1 1,-2 0,-1 1,-2 2,-3 1,0 2,-1 3,-1 1,-1 2,-1 3,-1 1,0 2,0 3,1 1,0 2,0 3,1 1,1 1,1 2,2 0,1 0,2 0,3l0 22c0,1 0,2 0,2 1,1 1,2 1,2 0,1 1,1 1,1 1,1 2,1 3,1l0 1 -20 0 0 -1c1,0 2,0 2,-1 1,0 1,0 2,-1 0,0 0,-1 0,-2 0,0 0,-1 0,-2l0 -22c0,-1 0,-1 0,-2 -1,0 -1,0 -1,0zm2 -15c0,-1 1,-2 1,-2 1,-1 2,-2 3,-2 1,0 2,1 3,2 1,0 1,1 1,2 0,1 0,2 -1,3 -1,1 -2,1 -3,1 -1,0 -2,0 -3,-1 0,-1 -1,-2 -1,-3z"/>
   <path id="12" fill="#E42D24" fill-rule="nonzero" d="M679 104c0,-2 1,-3 2,-4 0,-1 2,-1 3,-1 2,0 3,0 4,1 1,1 1,3 1,4 0,1 0,2 0,2 -1,1 -1,2 -2,3 1,0 2,1 4,1 1,0 2,0 4,0 3,0 6,0 8,-1 3,0 5,-1 6,-2 2,-1 3,-2 3,-3 1,0 1,-1 1,-2 0,-1 0,-2 -2,-3 -1,-1 -3,-1 -6,-1l-14 0c-2,0 -3,0 -5,-1 -1,0 -2,-1 -3,-2 -1,0 -2,-1 -2,-2 -1,-1 -1,-2 -1,-3 0,-1 0,-2 1,-3 0,-1 1,-2 1,-2 1,-1 2,-1 2,-2 1,0 2,-1 3,-1 -2,-1 -3,-2 -4,-4 -1,-1 -1,-3 -1,-5 0,-3 1,-6 4,-8 2,-3 6,-4 11,-4 3,0 5,1 7,1 2,0 3,1 4,2 0,-1 1,-2 1,-3 1,-1 1,-2 2,-2 0,-1 1,-2 2,-2 1,0 2,-1 3,-1 1,0 2,1 3,1 1,1 1,2 1,3 0,1 0,2 0,2 0,1 -1,1 -2,1 -1,0 -1,0 -2,0 0,-1 -1,-2 -1,-3 0,0 0,-1 1,-1 0,0 0,-1 0,-1 -1,0 -1,0 -2,0 0,1 -1,1 -1,1 -1,1 -1,2 -2,2 0,1 -1,2 -1,4 1,1 2,2 2,3 1,2 1,3 1,5 0,3 -1,6 -4,8 -2,2 -6,3 -12,3 -2,0 -3,0 -4,0 -2,0 -3,-1 -4,-1 -1,0 -2,1 -2,1 -1,0 -2,1 -2,2 0,0 1,0 1,0 0,1 0,1 1,1 0,0 1,1 1,1 1,0 2,0 3,0l14 0c3,0 6,1 8,3 2,1 3,4 3,7 0,2 0,4 -1,6 -1,1 -2,3 -4,4 -1,1 -4,2 -6,3 -3,0 -5,1 -9,1 -1,0 -3,0 -5,0 -2,-1 -4,-1 -5,-2 -2,0 -4,-1 -5,-2 -1,-1 -2,-3 -2,-4zm13 -31c0,2 1,4 1,5 0,1 0,2 1,3 0,1 1,1 2,1 0,1 1,1 1,1 1,0 2,0 2,-1 1,0 2,0 2,-1 1,-1 1,-2 1,-3 0,-1 1,-3 1,-5 0,-2 -1,-4 -1,-5 0,-1 0,-2 -1,-3 0,-1 -1,-1 -2,-2 0,0 -1,0 -2,0 0,0 -1,0 -1,0 -1,1 -2,1 -2,2 -1,1 -1,2 -1,3 0,1 -1,3 -1,5zm2 -25c0,1 1,1 2,2 1,0 2,0 3,0 1,0 2,0 3,0 1,-1 1,-1 2,-2l1 0c0,0 0,1 -1,2 0,1 0,2 -1,2 0,1 -1,1 -2,2 0,0 -1,0 -2,0 -1,0 -2,0 -3,0 0,-1 -1,-1 -2,-2 0,0 -1,-1 -1,-2 0,-1 0,-2 0,-2l1 0z"/>
   <path id="13" fill="#E42D24" fill-rule="nonzero" d="M728 66c-1,0 -2,0 -2,1 -1,0 -2,1 -3,1 0,-1 1,-1 1,-2 1,-1 1,-2 2,-3 1,0 2,-1 3,-1 1,-1 2,-1 3,-1 1,0 2,0 3,1 1,0 2,0 3,1 1,1 1,1 2,2 0,1 1,2 1,3l0 22c0,1 0,2 0,2 0,1 0,2 0,2 0,1 1,1 1,1 1,1 2,1 3,1l0 1 -20 0 0 -1c1,0 2,0 3,-1 0,0 1,0 1,-1 0,0 0,-1 0,-2 0,0 0,-1 0,-2l0 -22c0,-1 0,-1 0,-2 -1,0 -1,0 -1,0zm2 -15c0,-1 1,-2 1,-2 1,-1 2,-2 3,-2 1,0 2,1 3,2 1,0 1,1 1,2 0,1 0,2 -1,3 -1,1 -2,1 -3,1 -1,0 -2,0 -3,-1 0,-1 -1,-2 -1,-3z"/>
   <rect fill="url(#id0)" y="59" width="216.161" height="15.6392" rx="13" ry="13"/>
   <rect fill="url(#id1)" y="78" width="216.161" height="15.6392" rx="13" ry="13"/>
  </g>
  <rect fill="none" width="745" height="158"/>
 </g>
</svg>
