

<!-- Creator: CorelDRAW X8 -->
<svg xmlns="http://www.w3.org/2000/svg" xml:space="preserve" width="93.7252mm" height="25mm" version="1.1" shape-rendering="geometricPrecision" text-rendering="geometricPrecision" image-rendering="optimizeQuality" fill-rule="evenodd" clip-rule="evenodd"
viewBox="0 0 479 128"
 xmlns:xlink="http://www.w3.org/1999/xlink">
 <defs>
    <linearGradient id="id0" gradientUnits="userSpaceOnUse" x1="197.866" y1="63.9198" x2="479.275" y2="63.9198">
     <stop offset="0" stop-opacity="1" stop-color="#724685"/>
     <stop offset="1" stop-opacity="1" stop-color="#FEFEFE"/>
    </linearGradient>
    <linearGradient id="id1" gradientUnits="userSpaceOnUse" x1="197.866" y1="63.9198" x2="479.275" y2="63.9198">
     <stop offset="0" stop-opacity="1" stop-color="#724685"/>
     <stop offset="1" stop-opacity="1" stop-color="#FEFEFE"/>
    </linearGradient>
    <linearGradient id="id2" gradientUnits="userSpaceOnUse" x1="197.866" y1="63.9198" x2="479.275" y2="63.9198">
     <stop offset="0" stop-opacity="1" stop-color="#724685"/>
     <stop offset="1" stop-opacity="1" stop-color="#FEFEFE"/>
    </linearGradient>
    <linearGradient id="id3" gradientUnits="userSpaceOnUse" x1="197.866" y1="63.9198" x2="479.275" y2="63.9198">
     <stop offset="0" stop-opacity="1" stop-color="#724685"/>
     <stop offset="1" stop-opacity="1" stop-color="#FEFEFE"/>
    </linearGradient>
    <linearGradient id="id4" gradientUnits="userSpaceOnUse" x1="197.866" y1="63.9198" x2="479.275" y2="63.9198">
     <stop offset="0" stop-opacity="1" stop-color="#724685"/>
     <stop offset="1" stop-opacity="1" stop-color="#FEFEFE"/>
    </linearGradient>
    <linearGradient id="id5" gradientUnits="userSpaceOnUse" x1="197.866" y1="63.9198" x2="479.275" y2="63.9198">
     <stop offset="0" stop-opacity="1" stop-color="#724685"/>
     <stop offset="1" stop-opacity="1" stop-color="#FEFEFE"/>
    </linearGradient>
    <linearGradient id="id6" gradientUnits="userSpaceOnUse" x1="197.866" y1="63.9198" x2="479.275" y2="63.9198">
     <stop offset="0" stop-opacity="1" stop-color="#724685"/>
     <stop offset="1" stop-opacity="1" stop-color="#FEFEFE"/>
    </linearGradient>
    <linearGradient id="id7" gradientUnits="userSpaceOnUse" x1="197.866" y1="63.9198" x2="479.275" y2="63.9198">
     <stop offset="0" stop-opacity="1" stop-color="#724685"/>
     <stop offset="1" stop-opacity="1" stop-color="#FEFEFE"/>
    </linearGradient>
    <linearGradient id="id8" gradientUnits="userSpaceOnUse" x1="-0" y1="53.9927" x2="174.535" y2="53.9927">
     <stop offset="0" stop-opacity="1" stop-color="white"/>
     <stop offset="1" stop-opacity="1" stop-color="black"/>
    </linearGradient>
    <linearGradient id="id9" gradientUnits="userSpaceOnUse" x1="-0" y1="69.4486" x2="174.535" y2="69.4486">
     <stop offset="0" stop-opacity="1" stop-color="#724685"/>
     <stop offset="1" stop-opacity="1" stop-color="black"/>
    </linearGradient>
 </defs>
 <g id="Katman_x0020_1">
  <metadata id="CorelCorpID_0Corel-Layer"/>
  <g id="_2187318442496">
   <path fill="url(#id0)" fill-rule="nonzero" d="M225 59c0,-4 0,-7 0,-10 -1,-2 -2,-4 -3,-6 0,-1 -1,-2 -2,-3 -1,0 -2,-1 -3,-1 -1,0 -2,1 -3,1 -2,1 -2,2 -3,3 -1,2 -2,4 -2,6 -1,3 -1,6 -1,10 0,3 0,7 1,9 0,2 1,4 2,6 1,1 1,2 3,3 1,1 2,1 3,1 1,0 2,0 3,-1 1,-1 2,-2 2,-3 1,-2 2,-4 3,-6 0,-2 0,-6 0,-9zm10 0c0,3 0,6 -1,9 -1,2 -2,4 -4,6 -2,2 -4,3 -6,4 -2,1 -5,1 -7,1 -3,0 -6,0 -8,-1 -2,-1 -4,-2 -6,-4 -2,-2 -3,-4 -4,-6 -1,-3 -1,-6 -1,-9 0,-4 0,-7 1,-9 1,-3 2,-5 4,-7 2,-1 4,-3 6,-4 2,-1 5,-1 8,-1 2,0 5,0 7,1 2,1 4,3 6,4 2,2 3,4 4,7 1,2 1,5 1,9z"/>
   <path id="1" fill="url(#id1)" fill-rule="nonzero" d="M243 54c0,0 -1,0 -2,0 0,1 -1,1 -1,2 0,-1 0,-2 0,-2 1,-1 1,-2 2,-2 0,-1 1,-1 2,-2 1,0 2,0 3,0 1,0 3,0 4,1 1,1 2,2 2,3 1,-1 2,-2 4,-3 1,-1 3,-1 4,-1 1,0 2,0 3,0 0,1 1,1 2,2 0,0 1,1 1,1 1,1 1,2 1,2 0,2 -1,3 -2,4 0,0 -2,1 -3,1 -1,0 -1,0 -2,-1 0,0 -1,0 -1,-1 0,0 -1,-1 -1,-1 0,-1 0,-1 0,-2 0,-1 0,-1 0,-2 1,-1 1,-1 1,-2 -1,0 -1,1 -2,1 0,0 -1,1 -2,1 0,1 -1,1 -1,2 -1,0 -1,1 -2,1l0 17c0,1 0,1 1,2 0,1 0,1 0,2 0,0 0,0 1,0 0,1 1,1 2,1l0 1 -16 0 0 -1c1,0 2,0 2,-1 0,0 1,0 1,0 0,-1 0,-1 0,-2 0,-1 0,-1 0,-2l0 -17c0,-1 0,-2 0,-2 0,0 -1,0 -1,0z"/>
   <path id="2" fill="url(#id2)" fill-rule="nonzero" d="M271 64c0,-2 0,-4 1,-6 1,-2 1,-4 2,-5 2,-1 3,-2 4,-3 2,0 3,-1 5,-1 1,0 2,0 3,1 1,0 2,0 2,0 1,1 1,1 1,1 0,0 1,0 1,1l0 -8c0,0 0,-1 0,-1 -1,-1 -1,-1 -1,-1 -1,0 -1,0 -2,1 -1,0 -1,1 -2,1 0,0 0,-1 1,-2 0,0 1,-1 1,-2 1,0 2,-1 3,-1 1,0 2,0 3,0 0,0 1,0 2,0 1,0 1,0 2,1 1,0 1,1 2,2 0,0 0,1 0,2l0 29c0,1 0,1 1,1 0,1 0,1 1,1 0,0 1,0 1,0 1,-1 1,-1 2,-2 0,1 0,1 -1,2 0,1 -1,1 -1,2 -1,1 -1,1 -2,1 -1,1 -2,1 -3,1 0,0 -1,0 -2,-1 -1,0 -1,0 -2,-1 0,0 -1,-1 -1,-1 0,-1 -1,-1 -1,-2 0,0 0,0 0,0 0,0 0,0 0,0 -1,2 -2,3 -3,4 -2,1 -4,1 -6,1 -1,0 -3,0 -4,-1 -1,0 -3,-1 -4,-2 -1,-2 -1,-3 -2,-5 -1,-2 -1,-4 -1,-7zm10 0c0,3 0,5 0,7 0,2 1,3 1,4 1,1 1,1 2,2 0,0 1,0 1,0 1,0 1,0 2,0 0,0 1,-1 1,-1 1,-1 1,-1 1,-2 1,0 1,-1 1,-1l0 -20c-1,0 -1,-1 -2,-1 -1,-1 -2,-1 -2,-1 -1,0 -2,0 -2,1 -1,0 -1,1 -2,2 0,1 -1,2 -1,4 0,1 0,3 0,6z"/>
   <path id="3" fill="url(#id3)" fill-rule="nonzero" d="M309 54c0,0 -1,0 -1,0 -1,1 -1,1 -2,2 0,-1 0,-2 1,-2 0,-1 0,-2 1,-2 1,-1 1,-1 2,-2 1,0 2,0 3,0 1,0 2,0 3,0 0,1 1,1 2,1 0,1 1,2 1,2 1,1 1,2 1,3l0 14c0,1 0,2 0,3 0,1 1,2 1,3 1,0 1,1 2,1 0,0 1,0 1,0 1,0 1,0 2,0 0,0 1,-1 1,-1 1,-1 1,-1 1,-2 1,0 1,-1 1,-1l0 -17c0,-1 0,-1 0,-2 -1,0 -1,0 -1,0 -1,0 -1,0 -2,0 0,1 -1,1 -2,2 0,-1 1,-2 1,-2 0,-1 1,-2 1,-2 1,-1 2,-1 3,-2 1,0 2,0 3,0 0,0 1,0 2,0 1,1 2,1 2,1 1,1 1,2 2,2 0,1 0,2 0,3l0 17c0,1 0,1 1,2 0,0 0,0 1,0 0,0 1,0 1,0 1,-1 1,-1 2,-2 0,1 0,1 -1,2 0,1 -1,1 -1,2 -1,1 -2,1 -2,1 -1,1 -2,1 -3,1 -2,0 -3,-1 -4,-1 -1,-1 -2,-2 -2,-3 -1,2 -3,3 -4,3 -1,1 -3,1 -5,1 -1,0 -2,0 -4,0 -1,-1 -2,-2 -3,-3 -1,0 -2,-1 -2,-3 -1,-1 -1,-2 -1,-3l0 -14c0,-1 0,-1 -1,-2 0,0 0,0 -1,0z"/>
   <path id="4" fill="url(#id4)" fill-rule="nonzero" d="M356 70c0,2 0,3 -1,4 0,0 0,0 0,0 0,0 0,1 0,1 0,0 0,1 0,1 1,0 1,1 2,1 0,0 1,0 1,0 1,0 1,1 2,1 1,0 2,-1 3,-1 1,-1 2,-2 2,-3 0,-1 0,-2 -1,-2 0,0 0,-1 -1,-1 0,-1 -1,-1 -1,-2 -1,0 -2,-1 -3,-1 -2,-1 -4,-2 -5,-3 -2,-1 -3,-2 -3,-3 -1,0 -2,-1 -2,-2 0,-1 -1,-2 -1,-2 0,-2 1,-3 1,-4 1,-1 2,-2 3,-2 1,-1 2,-2 3,-2 2,0 4,-1 5,-1 2,0 4,1 5,1 2,0 3,1 4,1 1,1 2,2 3,3 1,1 1,2 1,3 0,2 0,3 -1,4 -1,0 -2,1 -3,1 -1,0 -2,0 -3,-1 -1,-1 -1,-2 -1,-3 0,-1 0,-2 0,-2 0,-1 0,-1 1,-2 0,0 0,-1 0,-1 0,0 0,-1 -1,-1 -1,-1 -2,-1 -3,-1 -1,0 -2,0 -3,1 -1,1 -1,2 -1,3 0,0 0,1 0,2 1,0 1,1 2,1 0,1 1,1 1,2 1,0 1,0 2,0 2,2 4,3 5,4 2,1 3,2 4,2 1,1 1,2 1,3 1,0 1,1 1,2 0,1 0,2 -1,3 -1,1 -2,2 -3,3 -1,1 -3,1 -4,2 -2,0 -4,0 -6,0 -1,0 -3,0 -4,0 -2,0 -3,-1 -4,-2 -2,0 -3,-1 -4,-2 0,-1 -1,-3 -1,-4 0,-2 1,-3 1,-4 1,-1 2,-1 4,-1 1,0 2,0 3,1 1,1 1,2 1,3z"/>
   <path id="5" fill="url(#id5)" fill-rule="nonzero" d="M378 56c0,-1 0,-2 0,-2 1,-1 1,-2 2,-2 1,-1 1,-1 2,-2 1,0 2,0 2,0 1,0 2,0 3,0 0,1 1,1 2,1 0,1 0,1 1,2 0,0 1,1 1,1 0,0 0,1 0,1 0,0 0,0 0,0 1,-2 2,-3 3,-4 2,-1 3,-2 5,-2 2,0 3,1 5,1 1,1 2,2 3,3 1,1 2,3 3,5 0,2 1,4 1,6 0,3 -1,5 -1,7 -1,2 -2,3 -3,5 -1,1 -2,2 -4,2 -1,1 -3,1 -4,1 -2,0 -3,0 -3,0 -1,0 -2,0 -3,-1 0,0 0,0 0,0 -1,0 -1,-1 -1,-1l0 7c0,1 0,2 0,2 0,1 0,1 0,2 0,0 1,1 1,1 1,0 1,0 2,0l0 1 -16 0 0 -1c1,0 2,0 2,0 1,0 1,-1 1,-1 0,-1 1,-1 1,-2 0,0 0,-1 0,-2l0 -28c0,-1 0,-1 -1,-2 0,0 0,0 -1,0 0,0 -1,0 -1,0 -1,1 -2,1 -2,2zm14 19c0,1 1,1 2,2 0,0 1,1 2,1 1,0 2,-1 2,-1 1,0 1,-1 2,-2 0,-1 0,-2 1,-4 0,-2 0,-4 0,-6 0,-3 0,-5 0,-7 -1,-2 -1,-3 -1,-4 -1,-1 -1,-2 -2,-2 0,0 -1,-1 -1,-1 -1,0 -2,1 -2,1 -1,0 -1,0 -1,1 -1,0 -1,1 -1,1 -1,1 -1,1 -1,2l0 19z"/>
   <path id="6" fill="url(#id6)" fill-rule="nonzero" d="M432 78c1,0 1,0 2,-1 0,0 1,-1 2,-2 0,-1 1,-2 1,-4 0,-2 0,-4 0,-7 0,-2 0,-5 0,-6 0,-2 -1,-4 -1,-5 -1,-1 -2,-1 -2,-2 -1,0 -1,0 -2,0 -1,0 -1,0 -2,0 -1,1 -1,1 -2,2 0,1 -1,3 -1,5 0,1 -1,4 -1,6 0,3 1,5 1,7 0,2 1,3 1,4 1,1 1,2 2,2 1,1 1,1 2,1zm0 -29c2,0 4,1 6,1 2,1 4,2 5,3 1,2 2,3 3,5 1,2 1,4 1,6 0,3 0,5 -1,7 -1,1 -2,3 -3,4 -1,2 -3,3 -5,3 -2,1 -4,1 -6,1 -2,0 -5,0 -6,-1 -2,0 -4,-1 -5,-3 -1,-1 -2,-3 -3,-4 -1,-2 -1,-4 -1,-7 0,-2 0,-4 1,-6 1,-2 2,-3 3,-5 1,-1 3,-2 5,-3 1,0 4,-1 6,-1z"/>
   <path id="7" fill="url(#id7)" fill-rule="nonzero" d="M455 54c-1,0 -1,0 -2,0 -1,1 -1,1 -2,2 0,-1 0,-2 1,-2 0,-1 1,-2 1,-2 1,-1 2,-1 3,-2 1,0 1,0 2,0 2,0 3,0 4,1 2,1 2,2 3,3 1,-1 2,-2 3,-3 2,-1 3,-1 5,-1 1,0 1,0 2,0 1,1 2,1 2,2 1,0 1,1 2,1 0,1 0,2 0,2 0,2 0,3 -1,4 -1,0 -2,1 -3,1 -1,0 -2,0 -2,-1 -1,0 -1,0 -1,-1 -1,0 -1,-1 -1,-1 0,-1 0,-1 0,-2 0,-1 0,-1 0,-2 0,-1 0,-1 1,-2 -1,0 -2,1 -2,1 -1,0 -1,1 -2,1 -1,1 -1,1 -2,2 0,0 -1,1 -1,1l0 17c0,1 0,1 0,2 0,1 0,1 0,2 1,0 1,0 1,0 1,1 2,1 2,1l0 1 -15 0 0 -1c0,0 1,0 2,-1 0,0 0,0 1,0 0,-1 0,-1 0,-2 0,-1 0,-1 0,-2l0 -17c0,-1 0,-2 0,-2 -1,0 -1,0 -1,0z"/>
   <rect fill="url(#id8)" y="48" width="174.535" height="12.6276" rx="10" ry="10"/>
   <rect fill="url(#id9)" y="63" width="174.535" height="12.6276" rx="10" ry="10"/>
  </g>
  <rect fill="none" width="479" height="128"/>
 </g>
</svg>
