

<!-- Creator: CorelDRAW X8 -->
<svg xmlns="http://www.w3.org/2000/svg" xml:space="preserve"  x="0" y="0" width="62.7314mm" height="25mm" version="1.1" shape-rendering="geometricPrecision" text-rendering="geometricPrecision" image-rendering="optimizeQuality" fill-rule="evenodd" clip-rule="evenodd"
viewBox="0 0 231 92"
 xmlns:xlink="http://www.w3.org/1999/xlink">
 <defs>
   <linearGradient id="id0" gradientUnits="userSpaceOnUse" x1="-3.48275e-05" y1="45.9664" x2="230.685" y2="45.9664">
    <stop offset="0" stop-opacity="1" stop-color="#334B98"/>
    <stop offset="1" stop-opacity="1" stop-color="#FEFEFE"/>
   </linearGradient>
   <linearGradient id="id1" gradientUnits="userSpaceOnUse" x1="-3.48275e-05" y1="45.9664" x2="230.685" y2="45.9664">
    <stop offset="0" stop-opacity="1" stop-color="#334B98"/>
    <stop offset="1" stop-opacity="1" stop-color="#FEFEFE"/>
   </linearGradient>
   <linearGradient id="id2" gradientUnits="userSpaceOnUse" x1="-3.48275e-05" y1="45.9664" x2="230.685" y2="45.9664">
    <stop offset="0" stop-opacity="1" stop-color="#334B98"/>
    <stop offset="1" stop-opacity="1" stop-color="#FEFEFE"/>
   </linearGradient>
   <linearGradient id="id3" gradientUnits="userSpaceOnUse" x1="-3.48275e-05" y1="45.9664" x2="230.685" y2="45.9664">
    <stop offset="0" stop-opacity="1" stop-color="#334B98"/>
    <stop offset="1" stop-opacity="1" stop-color="#FEFEFE"/>
   </linearGradient>
   <linearGradient id="id4" gradientUnits="userSpaceOnUse" x1="-3.48275e-05" y1="45.9664" x2="230.685" y2="45.9664">
    <stop offset="0" stop-opacity="1" stop-color="#334B98"/>
    <stop offset="1" stop-opacity="1" stop-color="#FEFEFE"/>
   </linearGradient>
   <linearGradient id="id5" gradientUnits="userSpaceOnUse" x1="-3.48275e-05" y1="45.9664" x2="230.685" y2="45.9664">
    <stop offset="0" stop-opacity="1" stop-color="#334B98"/>
    <stop offset="1" stop-opacity="1" stop-color="#FEFEFE"/>
   </linearGradient>
   <linearGradient id="id6" gradientUnits="userSpaceOnUse" x1="-3.48275e-05" y1="45.9664" x2="230.685" y2="45.9664">
    <stop offset="0" stop-opacity="1" stop-color="#334B98"/>
    <stop offset="1" stop-opacity="1" stop-color="#FEFEFE"/>
   </linearGradient>
   <linearGradient id="id7" gradientUnits="userSpaceOnUse" x1="-3.48275e-05" y1="45.9664" x2="230.685" y2="45.9664">
    <stop offset="0" stop-opacity="1" stop-color="#334B98"/>
    <stop offset="1" stop-opacity="1" stop-color="#FEFEFE"/>
   </linearGradient>
   <linearGradient id="id8" gradientUnits="userSpaceOnUse" x1="-3.48275e-05" y1="45.9664" x2="230.685" y2="45.9664">
    <stop offset="0" stop-opacity="1" stop-color="#334B98"/>
    <stop offset="1" stop-opacity="1" stop-color="#FEFEFE"/>
   </linearGradient>
 </defs>
 <g id="Katman_x0020_1">
  <metadata id="CorelCorpID_0Corel-Layer"/>
  <rect fill="none" width="230.683" height="91.9335"/>
  <path fill="url(#id0)" fill-rule="nonzero" d="M0 28l0 0 12 0 0 0c-1,0 -1,0 -2,0 0,1 0,1 -1,1 0,0 0,1 0,1 0,1 0,1 0,2l0 10 10 -13c0,0 1,0 1,0 0,0 -1,-1 -1,-1 -1,0 -2,0 -3,0l0 0 8 0 0 0c-1,0 -1,0 -1,0 0,0 -1,0 -1,0 0,1 0,1 -1,1 0,0 0,0 0,0l-8 9 8 12c1,1 2,2 2,2 1,1 1,1 2,1 0,0 1,0 1,-1 0,1 0,1 0,2 0,0 -1,1 -1,1 -1,1 -1,1 -2,1 -1,0 -1,0 -2,0 -1,0 -1,0 -2,0 -1,0 -1,0 -1,-1 -1,0 -1,0 -2,-1 0,0 0,-1 -1,-1l-6 -10 0 9c0,1 0,1 0,2 0,0 0,0 0,1 1,0 1,0 1,0 1,0 1,1 2,1l0 0 -12 0 0 0c1,0 1,-1 1,-1 1,0 1,0 1,0 0,-1 0,-1 0,-1 0,-1 0,-1 0,-2l0 -20c0,-1 0,-1 0,-2 0,0 0,-1 0,-1 0,0 0,0 -1,-1 0,0 0,0 -1,0z"/>
  <path id="1" fill="url(#id1)" fill-rule="nonzero" d="M29 51c0,-1 1,-2 1,-3 1,-1 2,-2 3,-2 2,0 3,-1 4,-1 1,0 3,0 4,0 0,0 0,0 0,0 1,0 1,0 1,0l0 -1c0,-2 0,-3 0,-4 0,-1 -1,-2 -1,-2 0,-1 -1,-1 -1,-2 -1,0 -1,0 -2,0 -1,0 -1,0 -2,0 1,1 1,1 1,2 0,0 0,1 0,1 0,1 0,2 -1,3 0,0 -1,1 -2,1 -1,0 -2,-1 -2,-1 -1,-1 -1,-1 -1,-2 0,-1 0,-1 1,-2 0,-1 0,-1 1,-1 0,-1 1,-1 2,-1 1,-1 2,-1 4,-1 1,0 3,0 4,1 1,0 2,1 3,2 1,0 2,1 2,2 1,1 1,3 1,4l0 8c0,1 0,1 0,1 0,1 1,1 1,1 0,0 1,0 1,-1 0,0 1,0 1,-1 0,1 0,1 0,2 0,0 -1,1 -1,1 -1,0 -1,1 -2,1 0,0 -1,0 -2,0 -1,0 -2,0 -2,-1 -1,0 -2,-1 -2,-2 -1,1 -2,2 -3,3 -1,0 -2,1 -3,1 -3,0 -4,-1 -6,-2 -1,-1 -2,-2 -2,-4zm10 4c0,0 0,0 1,0 0,0 1,-1 1,-1 0,0 0,-1 1,-1 0,0 0,-1 0,-1l0 -6c0,0 -1,0 -2,0 0,0 0,0 -1,0 -1,0 -1,1 -2,2 -1,1 -1,2 -1,4 0,1 0,2 1,3 0,0 1,0 2,0z"/>
  <path id="2" fill="url(#id2)" fill-rule="nonzero" d="M61 50c0,1 0,2 0,3 0,0 0,0 0,0 0,0 0,0 0,1 0,0 0,0 0,0 0,1 0,1 1,1 0,0 1,0 1,0 0,0 1,0 1,0 1,0 2,0 3,0 0,-1 1,-1 1,-2 0,-1 0,-1 -1,-2 0,0 0,0 0,-1 -1,0 -1,0 -2,-1 0,0 -1,0 -2,-1 -1,0 -2,-1 -3,-2 -1,0 -2,-1 -3,-1 0,-1 0,-2 -1,-2 0,-1 0,-1 0,-2 0,-1 0,-2 1,-2 0,-1 1,-2 1,-2 1,-1 2,-1 3,-1 1,-1 2,-1 4,-1 1,0 2,0 3,1 1,0 2,0 3,1 1,0 1,1 2,1 0,1 1,2 1,3 0,1 -1,2 -1,2 -1,1 -1,1 -2,1 -1,0 -2,0 -3,-1 0,0 0,-1 0,-2 0,0 0,-1 0,-1 0,-1 0,-1 0,-1 1,-1 1,-1 1,-1 0,0 -1,-1 -1,-1 -1,-1 -1,-1 -2,-1 -1,0 -2,0 -2,1 -1,1 -1,1 -1,2 0,1 0,1 0,2 0,0 1,0 1,1 0,0 1,0 1,1 1,0 1,0 1,0 2,1 3,2 4,2 1,1 2,2 3,2 0,1 1,2 1,2 0,1 0,1 0,2 0,1 0,1 0,2 -1,1 -2,2 -3,2 0,1 -2,1 -3,1 -1,1 -2,1 -4,1 -1,0 -2,0 -3,-1 -1,0 -2,0 -3,-1 -1,0 -1,-1 -2,-1 -1,-1 -1,-2 -1,-3 0,-1 0,-2 1,-3 1,-1 1,-1 2,-1 1,0 2,0 3,1 0,1 0,1 0,2z"/>
  <path id="3" fill="url(#id3)" fill-rule="nonzero" d="M80 38c-1,0 -1,0 -2,1 0,0 0,0 -1,1 0,-1 0,-1 1,-2 0,0 0,-1 1,-1 0,-1 1,-1 1,-1 1,0 2,0 2,0 1,0 1,0 2,0 1,0 1,0 2,1 0,0 0,0 1,1 0,0 0,1 0,2l0 12c0,1 0,1 0,2 0,0 0,0 0,1 1,0 1,0 1,0 0,0 1,1 2,1l0 0 -12 0 0 0c1,0 1,-1 2,-1 0,0 0,0 0,0 0,-1 0,-1 1,-1 0,-1 0,-1 0,-2l0 -12c0,-1 -1,-1 -1,-1 0,-1 0,-1 0,-1z"/>
  <path id="4" fill="url(#id4)" fill-rule="nonzero" d="M91 40c0,-1 0,-1 0,-2 1,0 1,-1 1,-1 1,-1 1,-1 2,-1 1,0 1,0 2,0 1,0 2,0 3,0 1,1 1,1 2,2 1,-2 3,-3 6,-3 0,0 1,0 2,0 1,1 1,1 2,1 1,0 1,1 2,1 0,0 0,1 1,1 0,-1 1,-2 2,-2 1,-1 2,-1 4,-1 1,0 2,0 3,1 1,0 1,1 2,1 1,1 1,2 2,2 0,1 0,2 0,3l0 10c0,1 0,1 1,1 0,1 0,1 0,1 1,0 1,0 2,-1 0,0 0,0 1,-1 0,1 0,1 -1,2 0,0 0,1 -1,1 0,0 -1,1 -1,1 -1,0 -2,0 -2,0 -1,0 -2,0 -2,0 -1,0 -1,0 -2,-1 0,0 0,-1 -1,-1 0,-1 0,-1 0,-2l0 -10c0,-1 0,-2 0,-2 -1,-1 -1,-2 -1,-2 0,-1 -1,-1 -1,-1 -1,0 -1,0 -1,0 -1,0 -1,0 -2,0 0,0 0,0 -1,1 0,0 0,0 0,1 -1,0 -1,1 -1,1l0 12c0,1 0,1 0,2 0,0 0,0 0,1 1,0 1,0 1,0 0,0 1,1 2,1l0 0 -12 0 0 0c1,0 1,-1 2,-1 0,0 0,0 0,0 0,-1 1,-1 1,-1 0,-1 0,-1 0,-2l0 -10c0,-1 0,-2 -1,-2 0,-1 0,-2 0,-2 -1,-1 -1,-1 -1,-1 -1,0 -1,0 -2,0 0,0 0,0 -1,0 0,0 0,0 -1,1 0,0 0,0 -1,1 0,0 0,1 0,1l0 12c0,1 0,1 0,2 0,0 0,0 0,1 0,0 1,0 1,0 0,0 1,1 1,1l0 0 -11 0 0 0c1,0 1,-1 1,-1 1,0 1,0 1,0 0,-1 0,-1 0,-1 0,-1 0,-1 0,-2l0 -12c0,-1 0,-1 0,-1 0,-1 0,-1 -1,-1 0,0 0,0 -1,1 0,0 -1,0 -1,1z"/>
  <path id="5" fill="url(#id5)" fill-rule="nonzero" d="M132 40c0,-1 0,-1 1,-2 0,0 0,-1 1,-1 0,-1 1,-1 1,-1 1,0 1,0 2,0 1,0 1,0 2,0 0,0 0,0 1,1 0,0 1,0 1,1 0,0 0,1 0,1 0,0 0,0 0,0 0,0 0,0 0,0 1,-1 2,-2 3,-3 1,0 2,-1 4,-1 1,0 2,0 3,1 1,0 2,1 2,2 1,1 2,2 2,3 1,2 1,3 1,5 0,2 0,3 -1,5 0,1 -1,2 -2,3 0,1 -1,2 -2,2 -2,1 -3,1 -4,1 -1,0 -1,0 -2,0 -1,-1 -1,-1 -2,-1 0,0 0,0 0,0 0,-1 -1,-1 -1,-1l0 5c0,1 0,1 0,2 0,0 0,1 0,1 1,0 1,0 1,0 1,1 1,1 2,1l0 0 -12 0 0 0c1,0 1,0 2,-1 0,0 0,0 0,0 0,0 1,-1 1,-1 0,-1 0,-1 0,-2l0 -20c0,-1 0,-1 -1,-1 0,-1 0,-1 0,-1 -1,0 -1,0 -2,1 0,0 0,0 -1,1zm10 14c1,0 1,1 2,1 0,0 1,0 1,0 1,0 1,0 2,0 0,0 1,-1 1,-1 0,-1 0,-2 1,-3 0,-1 0,-3 0,-5 0,-2 0,-3 0,-5 -1,-1 -1,-2 -1,-3 0,0 -1,-1 -1,-1 -1,0 -1,0 -1,0 -1,0 -1,0 -2,0 0,0 0,0 0,1 -1,0 -1,0 -1,1 0,0 -1,1 -1,1l0 14z"/>
  <path id="6" fill="url(#id6)" fill-rule="nonzero" d="M159 51c0,-1 1,-2 1,-3 1,-1 2,-2 3,-2 1,0 3,-1 4,-1 1,0 2,0 3,0 1,0 1,0 1,0 1,0 1,0 1,0l0 -1c0,-2 0,-3 0,-4 0,-1 -1,-2 -1,-2 0,-1 -1,-1 -1,-2 -1,0 -2,0 -2,0 -1,0 -1,0 -2,0 1,1 1,1 1,2 0,0 0,1 0,1 0,1 0,2 -1,3 0,0 -1,1 -2,1 -1,0 -2,-1 -2,-1 -1,-1 -1,-1 -1,-2 0,-1 0,-1 0,-2 1,-1 1,-1 2,-1 0,-1 1,-1 2,-1 1,-1 2,-1 3,-1 2,0 4,0 5,1 1,0 2,1 3,2 1,0 2,1 2,2 1,1 1,3 1,4l0 8c0,1 0,1 0,1 0,1 0,1 1,1 0,0 0,0 1,-1 0,0 1,0 1,-1 0,1 0,1 0,2 -1,0 -1,1 -1,1 -1,0 -1,1 -2,1 0,0 -1,0 -2,0 -1,0 -2,0 -2,-1 -1,0 -2,-1 -2,-2 -1,1 -2,2 -3,3 -1,0 -2,1 -3,1 -3,0 -5,-1 -6,-2 -1,-1 -2,-2 -2,-4zm9 4c1,0 1,0 2,0 0,0 1,-1 1,-1 0,0 0,-1 1,-1 0,0 0,-1 0,-1l0 -6c0,0 -1,0 -2,0 0,0 -1,0 -1,0 -1,0 -1,1 -2,2 -1,1 -1,2 -1,4 0,1 0,2 1,3 0,0 1,0 1,0z"/>
  <path id="7" fill="url(#id7)" fill-rule="nonzero" d="M188 47c1,0 2,0 3,1 0,1 0,1 0,2 0,1 0,2 0,3 0,0 0,0 0,0 -1,0 -1,0 -1,1 0,0 1,0 1,0 0,1 0,1 1,1 0,0 1,0 1,0 0,0 1,0 1,0 1,0 2,0 3,0 0,-1 1,-1 1,-2 0,-1 0,-1 -1,-2 0,0 0,0 0,-1 -1,0 -1,0 -2,-1 0,0 -1,0 -2,-1 -1,0 -2,-1 -3,-2 -1,0 -2,-1 -3,-1 0,-1 -1,-2 -1,-2 0,-1 0,-1 0,-2 0,-1 0,-2 0,-2 1,-1 1,-2 2,-2 1,-1 2,-1 3,-1 1,-1 2,-1 4,-1 1,0 2,0 3,1 1,0 2,0 3,1 1,0 1,1 2,1 0,1 1,2 1,3 0,1 -1,2 -1,2 -1,1 -1,1 -2,1 -1,0 -2,0 -3,-1 0,0 0,-1 0,-2 0,0 0,-1 0,-1 0,-1 0,-1 0,-1 0,-1 1,-1 1,-1 0,0 -1,-1 -1,-1 -1,-1 -1,-1 -2,-1 -1,0 -2,0 -3,1 0,1 0,1 0,2 0,1 0,1 0,2 0,0 1,0 1,1 0,0 1,0 1,1 1,0 1,0 1,0 2,1 3,2 4,2 1,1 2,2 3,2 0,1 1,2 1,2 0,1 0,1 0,2 0,1 0,2 -1,3 -1,0 -1,1 -2,1 -1,1 -3,1 -4,1 -1,1 -2,1 -3,1l0 1c1,0 1,0 2,0 0,0 0,1 1,1 0,0 0,0 1,1 0,0 0,1 0,1 0,1 0,1 0,2 -1,0 -1,0 -1,1 -1,0 -1,0 -2,0 0,0 -1,0 -2,0 0,0 0,0 0,0 -1,0 -1,0 -2,0l0 -1c1,0 1,0 1,0 0,0 1,0 1,0 1,0 1,0 1,0 1,-1 1,-1 1,-2 0,0 0,-1 -1,-1 0,-1 0,-1 -1,-1l0 -2c-1,0 -2,-1 -3,-1 -1,0 -2,0 -2,-1 -1,0 -2,-1 -2,-2 -1,0 -1,-1 -1,-2 0,-1 0,-2 1,-3 0,-1 1,-1 2,-1z"/>
  <path id="8" fill="url(#id8)" fill-rule="nonzero" d="M208 51c0,-1 0,-2 1,-3 1,-1 2,-2 3,-2 1,0 2,-1 3,-1 2,0 3,0 4,0 0,0 1,0 1,0 0,0 0,0 1,0l0 -1c0,-2 0,-3 -1,-4 0,-1 0,-2 0,-2 -1,-1 -1,-1 -2,-2 0,0 -1,0 -2,0 0,0 -1,0 -1,0 0,1 0,1 0,2 1,0 1,1 1,1 0,1 -1,2 -1,3 -1,0 -2,1 -2,1 -1,0 -2,-1 -3,-1 0,-1 0,-1 0,-2 0,-1 0,-1 0,-2 0,-1 1,-1 1,-1 1,-1 2,-1 3,-1 1,-1 2,-1 3,-1 2,0 3,0 4,1 2,0 3,1 4,2 0,0 1,1 2,2 0,1 0,3 0,4l0 8c0,1 0,1 1,1 0,1 0,1 0,1 1,0 1,0 1,-1 1,0 1,0 2,-1 0,1 0,1 -1,2 0,0 0,1 -1,1 0,0 -1,1 -1,1 -1,0 -2,0 -2,0 -1,0 -2,0 -3,-1 -1,0 -1,-1 -2,-2 0,1 -1,2 -2,3 -1,0 -2,1 -4,1 -2,0 -4,-1 -5,-2 -2,-1 -2,-2 -2,-4zm9 4c0,0 1,0 1,0 1,0 1,-1 1,-1 1,0 1,-1 1,-1 0,0 1,-1 1,-1l0 -6c-1,0 -1,0 -2,0 -1,0 -1,0 -1,0 -1,0 -2,1 -3,2 0,1 0,2 0,4 0,1 0,2 0,3 1,0 1,0 2,0z"/>
 </g>
</svg>
