

<!-- Creator: CorelDRAW X8 -->
<svg xmlns="http://www.w3.org/2000/svg" xml:space="preserve" width="99.6386mm" height="25mm" version="1.1" shape-rendering="geometricPrecision" text-rendering="geometricPrecision" image-rendering="optimizeQuality" fill-rule="evenodd" clip-rule="evenodd"
viewBox="0 0 540 135"
 xmlns:xlink="http://www.w3.org/1999/xlink">
 <defs>
    <linearGradient id="id0" gradientUnits="userSpaceOnUse" x1="211.226" y1="67.7342" x2="538.306" y2="67.7342">
     <stop offset="0" stop-opacity="1" stop-color="#078456"/>
     <stop offset="1" stop-opacity="1" stop-color="#FEFEFE"/>
    </linearGradient>
    <linearGradient id="id1" gradientUnits="userSpaceOnUse" x1="211.226" y1="67.7342" x2="538.306" y2="67.7342">
     <stop offset="0" stop-opacity="1" stop-color="#078456"/>
     <stop offset="1" stop-opacity="1" stop-color="#FEFEFE"/>
    </linearGradient>
    <linearGradient id="id2" gradientUnits="userSpaceOnUse" x1="211.226" y1="67.7342" x2="538.306" y2="67.7342">
     <stop offset="0" stop-opacity="1" stop-color="#078456"/>
     <stop offset="1" stop-opacity="1" stop-color="#FEFEFE"/>
    </linearGradient>
    <linearGradient id="id3" gradientUnits="userSpaceOnUse" x1="211.226" y1="67.7342" x2="538.306" y2="67.7342">
     <stop offset="0" stop-opacity="1" stop-color="#078456"/>
     <stop offset="1" stop-opacity="1" stop-color="#FEFEFE"/>
    </linearGradient>
    <linearGradient id="id4" gradientUnits="userSpaceOnUse" x1="211.226" y1="67.7342" x2="538.306" y2="67.7342">
     <stop offset="0" stop-opacity="1" stop-color="#078456"/>
     <stop offset="1" stop-opacity="1" stop-color="#FEFEFE"/>
    </linearGradient>
    <linearGradient id="id5" gradientUnits="userSpaceOnUse" x1="211.226" y1="67.7342" x2="538.306" y2="67.7342">
     <stop offset="0" stop-opacity="1" stop-color="#078456"/>
     <stop offset="1" stop-opacity="1" stop-color="#FEFEFE"/>
    </linearGradient>
    <linearGradient id="id6" gradientUnits="userSpaceOnUse" x1="211.226" y1="67.7342" x2="538.306" y2="67.7342">
     <stop offset="0" stop-opacity="1" stop-color="#078456"/>
     <stop offset="1" stop-opacity="1" stop-color="#FEFEFE"/>
    </linearGradient>
    <linearGradient id="id7" gradientUnits="userSpaceOnUse" x1="211.226" y1="67.7342" x2="538.306" y2="67.7342">
     <stop offset="0" stop-opacity="1" stop-color="#078456"/>
     <stop offset="1" stop-opacity="1" stop-color="#FEFEFE"/>
    </linearGradient>
    <linearGradient id="id8" gradientUnits="userSpaceOnUse" x1="211.226" y1="67.7342" x2="538.306" y2="67.7342">
     <stop offset="0" stop-opacity="1" stop-color="#078456"/>
     <stop offset="1" stop-opacity="1" stop-color="#FEFEFE"/>
    </linearGradient>
    <linearGradient id="id9" gradientUnits="userSpaceOnUse" x1="1.61317" y1="56.3141" x2="186.563" y2="56.3141">
     <stop offset="0" stop-opacity="1" stop-color="#FEFEFE"/>
     <stop offset="1" stop-opacity="1" stop-color="black"/>
    </linearGradient>
    <linearGradient id="id10" gradientUnits="userSpaceOnUse" x1="1.61317" y1="72.6923" x2="186.563" y2="72.6923">
     <stop offset="0" stop-opacity="1" stop-color="#078456"/>
     <stop offset="1" stop-opacity="1" stop-color="black"/>
    </linearGradient>
 </defs>
 <g id="Katman_x0020_1">
  <metadata id="CorelCorpID_0Corel-Layer"/>
  <g id="_2187318457184">
   <path fill="url(#id0)" fill-rule="nonzero" d="M211 41l0 -1 17 0 0 1c-1,0 -1,0 -2,0 0,1 -1,1 -1,1 0,1 0,1 0,2 0,1 0,1 0,2l0 15 14 -18c1,0 1,-1 1,-1 0,0 0,-1 -1,-1 -1,0 -2,0 -4,0l0 -1 11 0 0 1c0,0 -1,0 -1,0 -1,0 -1,0 -1,0 -1,1 -1,1 -1,1 -1,0 -1,1 -1,1l-11 13 12 17c1,2 2,3 2,4 1,1 2,1 3,1 1,0 1,-1 2,-1 0,0 0,1 0,2 -1,1 -2,1 -2,2 -1,0 -2,1 -3,1 -1,0 -2,1 -3,1 -1,0 -2,-1 -3,-1 -1,0 -1,-1 -2,-1 -1,-1 -1,-1 -2,-2 0,0 -1,-1 -1,-2l-9 -14 0 13c0,1 0,2 0,3 0,0 0,1 0,1 0,1 1,1 1,1 1,0 1,0 2,0l0 1 -17 0 0 -1c1,0 2,0 2,0 1,0 1,0 1,-1 1,0 1,-1 1,-1 0,-1 0,-2 0,-3l0 -30c0,-1 0,-1 0,-2 0,-1 0,-1 -1,-2 0,0 0,0 -1,-1 0,0 -1,0 -2,0z"/>
   <path id="1" fill="url(#id1)" fill-rule="nonzero" d="M269 82c0,0 1,-1 2,-1 0,0 1,-1 2,-2 0,-1 1,-3 1,-5 0,-1 0,-4 0,-7 0,-3 0,-5 0,-7 0,-2 -1,-3 -1,-4 -1,-1 -2,-2 -2,-3 -1,0 -2,0 -2,0 -1,0 -2,0 -2,0 -1,1 -2,2 -2,3 -1,1 -1,2 -2,4 0,2 0,4 0,7 0,3 0,6 0,7 1,2 1,4 2,5 0,1 1,2 2,2 0,0 1,1 2,1zm0 -31c2,0 4,1 6,1 2,1 4,2 5,4 2,1 3,3 4,5 0,2 1,4 1,6 0,3 -1,5 -1,7 -1,2 -2,4 -4,5 -1,1 -3,2 -5,3 -2,1 -4,1 -6,1 -3,0 -5,0 -7,-1 -2,-1 -4,-2 -5,-3 -1,-1 -3,-3 -3,-5 -1,-2 -1,-4 -1,-7 0,-2 0,-4 1,-6 0,-2 2,-4 3,-5 1,-2 3,-3 5,-4 2,0 4,-1 7,-1z"/>
   <path id="2" fill="url(#id2)" fill-rule="nonzero" d="M293 56c-1,0 -1,0 -2,1 -1,0 -1,0 -2,1 0,-1 0,-1 1,-2 0,-1 1,-2 1,-2 1,-1 2,-1 3,-2 1,0 2,0 3,0 1,0 2,0 4,1 1,1 2,2 2,3 1,-2 2,-3 4,-4 1,0 3,-1 5,-1 1,0 3,1 4,1 2,1 3,2 4,2 1,1 2,2 2,4 1,1 1,2 1,3l0 15c0,1 0,2 1,2 0,0 0,1 1,1 0,0 1,-1 1,-1 1,0 2,-1 2,-1 0,0 0,1 0,2 -1,0 -1,1 -2,2 -1,0 -1,1 -2,1 -1,0 -2,1 -3,1 -1,0 -2,-1 -3,-1 -1,0 -2,-1 -2,-1 -1,-1 -1,-1 -2,-2 0,-1 0,-2 0,-3l0 -15c0,-1 -1,-2 -1,-3 0,-1 0,-2 -1,-3 0,0 -1,-1 -1,-1 -1,0 -2,-1 -2,-1 -1,0 -1,1 -2,1 0,0 -1,1 -1,1 -1,1 -1,1 -2,2 0,0 0,1 0,1l0 18c0,1 0,2 0,3 0,0 0,1 0,1 0,1 1,1 1,1 1,0 1,0 2,0l0 1 -17 0 0 -1c1,0 2,0 3,0 0,0 0,0 1,-1 0,0 0,-1 0,-1 0,-1 0,-2 0,-3l0 -18c0,-1 0,-1 0,-2 -1,0 -1,0 -1,0z"/>
   <path id="3" fill="url(#id3)" fill-rule="nonzero" d="M333 58c-1,0 -1,-1 -1,-1 -1,-1 -1,-1 -2,-1 0,0 -1,0 -1,1 -1,0 -1,0 -2,1 0,-1 0,-2 1,-2 0,-1 1,-2 1,-2 1,-1 2,-1 3,-2 1,0 2,0 3,0 2,0 3,0 5,1 1,1 2,2 3,4l6 14 6 -16c0,0 0,0 0,-1 0,0 0,0 0,0 0,-1 -1,-1 -1,-1 0,0 -1,0 -1,0 0,0 -1,0 -1,0l-1 0 0 -1 10 0 0 1c-1,0 -2,0 -3,1 0,0 -1,0 -1,1l-12 31c-1,2 -1,3 -2,4 -1,2 -1,2 -2,3 -1,1 -2,1 -2,2 -1,0 -2,0 -3,0 -2,0 -4,0 -5,-1 -1,-1 -1,-3 -1,-4 0,-2 0,-3 1,-4 1,-1 2,-1 3,-1 2,0 3,0 4,1 0,1 1,2 1,3 0,1 0,2 -1,2 0,1 0,2 -1,2 1,0 2,0 3,-2 1,-1 2,-3 3,-5l1 -3 -11 -25z"/>
   <path id="4" fill="url(#id4)" fill-rule="nonzero" d="M360 75c0,-2 1,-4 2,-5 1,-1 3,-2 4,-3 2,0 4,-1 6,-1 2,0 3,0 5,0 0,0 1,0 1,0 1,0 1,0 2,0l0 -2c0,-2 -1,-4 -1,-6 0,-1 -1,-2 -1,-3 -1,-1 -1,-2 -2,-2 -1,0 -2,0 -3,0 -1,0 -2,0 -2,0 0,1 1,1 1,2 0,1 0,2 0,2 0,2 0,3 -1,4 -1,1 -2,1 -4,1 -1,0 -2,0 -3,-1 -1,-1 -1,-2 -1,-3 0,-1 0,-2 1,-2 0,-1 1,-2 2,-3 0,0 2,-1 3,-1 1,0 3,-1 5,-1 2,0 5,1 6,1 2,1 4,2 5,3 1,1 2,2 3,4 1,2 1,3 1,5l0 12c0,1 0,2 1,2 0,0 0,1 1,1 0,0 1,0 1,-1 1,0 2,-1 2,-1 0,0 0,1 0,2 -1,1 -1,1 -2,2 -1,0 -2,1 -2,1 -1,0 -2,1 -3,1 -2,0 -3,-1 -4,-2 -1,-1 -2,-2 -3,-3 0,1 -2,3 -3,4 -2,1 -3,1 -5,1 -4,0 -7,-1 -9,-2 -2,-2 -3,-4 -3,-6zm14 6c1,0 1,0 2,-1 0,0 1,0 1,-1 1,0 1,-1 2,-1 0,-1 0,-1 1,-2l0 -8c-1,0 -2,0 -3,0 -1,0 -2,0 -2,0 -1,0 -2,1 -3,2 -1,2 -1,3 -1,6 0,2 0,3 1,4 0,1 1,1 2,1z"/>
   <path id="5" fill="url(#id5)" fill-rule="nonzero" d="M408 74c0,1 -1,2 -1,3 0,0 0,1 -1,1 0,0 0,0 0,0 0,1 1,1 1,2 0,0 1,0 1,1 1,0 1,0 2,0 1,0 1,0 2,0 1,0 2,0 3,-1 1,0 2,-1 2,-3 0,0 0,-1 0,-2 -1,0 -1,-1 -1,-1 -1,-1 -2,-1 -2,-2 -1,0 -2,-1 -3,-1 -3,-1 -4,-2 -6,-3 -1,-1 -2,-2 -3,-3 -1,-1 -2,-1 -2,-2 0,-1 0,-2 0,-3 0,-1 0,-2 0,-3 1,-1 2,-2 3,-3 1,-1 3,-2 4,-2 2,0 3,-1 5,-1 2,0 4,1 5,1 2,0 4,1 5,2 1,0 2,1 3,2 0,1 1,2 1,4 0,1 -1,2 -1,3 -1,1 -2,2 -4,2 -1,0 -2,-1 -3,-1 -1,-1 -1,-2 -1,-4 0,-1 0,-1 0,-2 0,-1 1,-1 1,-1 0,-1 0,-2 0,-2 0,0 0,-1 -1,-1 -1,-1 -2,-1 -3,-1 -1,0 -2,0 -3,1 -1,1 -2,2 -2,3 0,1 1,2 1,2 0,1 1,2 2,2 0,1 1,1 1,1 1,1 1,1 2,1 2,1 4,3 6,4 1,1 2,2 3,2 1,1 2,2 2,3 1,1 1,1 1,2 0,1 -1,3 -1,4 -1,1 -2,2 -4,3 -1,0 -2,1 -4,2 -2,0 -4,0 -6,0 -1,0 -3,0 -5,0 -1,-1 -3,-1 -4,-2 -1,-1 -2,-1 -3,-3 -1,-1 -2,-2 -2,-4 0,-1 1,-3 2,-4 1,-1 2,-1 3,-1 2,0 3,0 4,1 0,1 1,2 1,4z"/>
   <path id="6" fill="url(#id6)" fill-rule="nonzero" d="M431 58c0,-1 0,-1 0,-2 1,-1 1,-2 2,-2 1,-1 1,-1 2,-2 1,0 2,0 3,0 1,0 1,0 2,0 1,1 2,1 2,2 1,0 1,1 2,1 0,1 0,1 0,2 0,0 0,0 0,0 0,0 0,0 1,0 0,-2 2,-3 3,-4 2,-1 3,-2 6,-2 1,0 3,1 4,1 2,1 3,2 4,3 1,2 2,3 3,5 0,2 1,5 1,7 0,3 -1,5 -1,7 -1,2 -2,4 -3,5 -1,1 -2,2 -4,3 -2,1 -3,1 -5,1 -1,0 -2,0 -3,0 -1,0 -2,-1 -3,-1 0,0 0,0 -1,-1 0,0 0,0 0,0l0 7c0,1 0,2 0,3 0,0 0,1 0,1 0,1 1,1 1,1 1,0 1,0 2,0l0 1 -17 0 0 -1c1,0 2,0 2,0 1,0 1,0 1,-1 1,0 1,-1 1,-1 0,-1 0,-2 0,-3l0 -30c0,0 0,-1 -1,-1 0,-1 0,-1 -1,-1 0,0 -1,0 -1,1 -1,0 -2,0 -2,1zm15 21c0,0 1,1 2,1 0,1 1,1 2,1 1,0 2,0 2,0 1,-1 1,-1 2,-2 0,-1 1,-3 1,-4 0,-2 0,-5 0,-7 0,-3 0,-6 0,-8 0,-1 -1,-3 -1,-4 0,-1 -1,-2 -2,-2 0,0 -1,0 -1,0 -1,0 -2,0 -2,0 -1,0 -1,1 -1,1 -1,1 -1,1 -2,2 0,0 0,1 0,1l0 21z"/>
   <path id="7" fill="url(#id7)" fill-rule="nonzero" d="M488 82c1,0 1,-1 2,-1 1,0 1,-1 2,-2 1,-1 1,-3 1,-5 1,-1 1,-4 1,-7 0,-3 0,-5 -1,-7 0,-2 0,-3 -1,-4 -1,-1 -1,-2 -2,-3 -1,0 -1,0 -2,0 -1,0 -1,0 -2,0 -1,1 -1,2 -2,3 0,1 -1,2 -1,4 -1,2 -1,4 -1,7 0,3 0,6 1,7 0,2 1,4 1,5 1,1 1,2 2,2 1,0 1,1 2,1zm0 -31c3,0 5,1 7,1 2,1 3,2 5,4 1,1 2,3 3,5 1,2 1,4 1,6 0,3 0,5 -1,7 -1,2 -2,4 -3,5 -2,1 -3,2 -5,3 -2,1 -4,1 -7,1 -2,0 -5,0 -7,-1 -2,-1 -3,-2 -5,-3 -1,-1 -2,-3 -3,-5 -1,-2 -1,-4 -1,-7 0,-2 0,-4 1,-6 1,-2 2,-4 3,-5 2,-2 3,-3 5,-4 2,0 5,-1 7,-1z"/>
   <path id="8" fill="url(#id8)" fill-rule="nonzero" d="M512 56c0,0 -1,0 -2,1 0,0 -1,0 -2,1 0,-1 1,-1 1,-2 1,-1 1,-2 2,-2 0,-1 1,-1 2,-2 1,0 2,0 3,0 2,0 3,0 4,1 2,1 2,2 3,3 1,-1 2,-2 4,-3 1,-1 3,-1 4,-1 1,0 2,0 3,0 1,1 2,1 2,2 1,0 1,1 2,2 0,0 0,1 0,2 0,1 0,2 -1,3 -1,1 -2,1 -4,1 0,0 -1,0 -2,0 0,0 -1,-1 -1,-1 0,-1 0,-1 -1,-2 0,0 0,-1 0,-2 0,0 0,-1 0,-2 1,-1 1,-1 1,-1 0,0 -1,0 -2,0 0,0 -1,1 -2,1 0,1 -1,1 -2,2 0,1 -1,1 -1,2l0 17c0,1 0,2 0,3 0,0 0,1 1,1 0,1 0,1 1,1 0,0 1,0 2,0l0 1 -17 0 0 -1c1,0 2,0 2,0 1,0 1,0 1,-1 0,0 0,-1 1,-1 0,-1 0,-2 0,-3l0 -18c0,-1 -1,-1 -1,-2 0,0 0,0 -1,0z"/>
   <rect fill="url(#id9)" x="2" y="50" width="184.95" height="13.3811" rx="11" ry="11"/>
   <rect fill="url(#id10)" x="2" y="66" width="184.95" height="13.3811" rx="11" ry="11"/>
  </g>
  <rect fill="none" width="540" height="135"/>
 </g>
</svg>
