

<!-- Creator: CorelDRAW X8 -->
<svg xmlns="http://www.w3.org/2000/svg" xml:space="preserve" width="107.342mm" height="25mm" version="1.1" shape-rendering="geometricPrecision" text-rendering="geometricPrecision" image-rendering="optimizeQuality" fill-rule="evenodd" clip-rule="evenodd"
viewBox="0 0 624 145"
 xmlns:xlink="http://www.w3.org/1999/xlink">
 <defs>
    <linearGradient id="id0" gradientUnits="userSpaceOnUse" x1="224.941" y1="72.6663" x2="624.013" y2="72.6663">
     <stop offset="0" stop-opacity="1" stop-color="#E8AC00"/>
     <stop offset="1" stop-opacity="1" stop-color="#9E1E33"/>
    </linearGradient>
    <linearGradient id="id1" gradientUnits="userSpaceOnUse" x1="224.941" y1="72.6663" x2="624.013" y2="72.6663">
     <stop offset="0" stop-opacity="1" stop-color="#E8AC00"/>
     <stop offset="1" stop-opacity="1" stop-color="#9E1E33"/>
    </linearGradient>
    <linearGradient id="id2" gradientUnits="userSpaceOnUse" x1="224.941" y1="72.6663" x2="624.013" y2="72.6663">
     <stop offset="0" stop-opacity="1" stop-color="#E8AC00"/>
     <stop offset="1" stop-opacity="1" stop-color="#9E1E33"/>
    </linearGradient>
    <linearGradient id="id3" gradientUnits="userSpaceOnUse" x1="224.941" y1="72.6663" x2="624.013" y2="72.6663">
     <stop offset="0" stop-opacity="1" stop-color="#E8AC00"/>
     <stop offset="1" stop-opacity="1" stop-color="#9E1E33"/>
    </linearGradient>
    <linearGradient id="id4" gradientUnits="userSpaceOnUse" x1="224.941" y1="72.6663" x2="624.013" y2="72.6663">
     <stop offset="0" stop-opacity="1" stop-color="#E8AC00"/>
     <stop offset="1" stop-opacity="1" stop-color="#9E1E33"/>
    </linearGradient>
    <linearGradient id="id5" gradientUnits="userSpaceOnUse" x1="224.941" y1="72.6663" x2="624.013" y2="72.6663">
     <stop offset="0" stop-opacity="1" stop-color="#E8AC00"/>
     <stop offset="1" stop-opacity="1" stop-color="#9E1E33"/>
    </linearGradient>
    <linearGradient id="id6" gradientUnits="userSpaceOnUse" x1="224.941" y1="72.6663" x2="624.013" y2="72.6663">
     <stop offset="0" stop-opacity="1" stop-color="#E8AC00"/>
     <stop offset="1" stop-opacity="1" stop-color="#9E1E33"/>
    </linearGradient>
    <linearGradient id="id7" gradientUnits="userSpaceOnUse" x1="224.941" y1="72.6663" x2="624.013" y2="72.6663">
     <stop offset="0" stop-opacity="1" stop-color="#E8AC00"/>
     <stop offset="1" stop-opacity="1" stop-color="#9E1E33"/>
    </linearGradient>
    <linearGradient id="id8" gradientUnits="userSpaceOnUse" x1="224.941" y1="72.6663" x2="624.013" y2="72.6663">
     <stop offset="0" stop-opacity="1" stop-color="#E8AC00"/>
     <stop offset="1" stop-opacity="1" stop-color="#9E1E33"/>
    </linearGradient>
    <linearGradient id="id9" gradientUnits="userSpaceOnUse" x1="224.941" y1="72.6663" x2="624.013" y2="72.6663">
     <stop offset="0" stop-opacity="1" stop-color="#E8AC00"/>
     <stop offset="1" stop-opacity="1" stop-color="#9E1E33"/>
    </linearGradient>
    <linearGradient id="id10" gradientUnits="userSpaceOnUse" x1="224.941" y1="72.6663" x2="624.013" y2="72.6663">
     <stop offset="0" stop-opacity="1" stop-color="#E8AC00"/>
     <stop offset="1" stop-opacity="1" stop-color="#9E1E33"/>
    </linearGradient>
    <linearGradient id="id11" gradientUnits="userSpaceOnUse" x1="-0" y1="60.8977" x2="198.417" y2="60.8977">
     <stop offset="0" stop-opacity="1" stop-color="#FBBA00"/>
     <stop offset="1" stop-opacity="1" stop-color="black"/>
    </linearGradient>
    <linearGradient id="id12" gradientUnits="userSpaceOnUse" x1="-0" y1="78.4685" x2="198.417" y2="78.4685">
     <stop offset="0" stop-opacity="1" stop-color="#A92037"/>
     <stop offset="1" stop-opacity="1" stop-color="black"/>
    </linearGradient>
 </defs>
 <g id="Katman_x0020_1">
  <metadata id="CorelCorpID_0Corel-Layer"/>
  <g id="_2222492434720">
   <path fill="url(#id0)" fill-rule="nonzero" d="M245 87c1,0 2,0 2,0 1,0 2,-1 2,-1 1,-1 1,-1 1,-2 1,0 1,-1 1,-2l0 -14c0,0 0,0 0,0 0,-1 -1,-1 -1,-1 -1,0 -1,0 -1,0 -1,0 -1,0 -2,0l0 -1 19 0 0 1c0,0 -1,0 -1,0 -1,0 -1,0 -1,0 -1,0 -1,0 -2,1 0,0 0,0 0,0l0 14c0,1 0,2 1,2 0,1 1,1 1,1 1,0 2,0 3,-1 1,0 1,-1 2,-1 0,1 0,1 -1,2 0,1 -1,2 -2,2 0,1 -1,1 -2,2 -1,0 -2,0 -4,0 0,0 -1,0 -2,0 -1,0 -2,-1 -2,-1 -1,-1 -2,-1 -2,-2 -1,0 -1,-1 -2,-2 -1,2 -2,3 -4,4 -1,1 -3,2 -6,2 -2,0 -4,-1 -6,-2 -2,-1 -4,-2 -6,-4 -1,-2 -3,-5 -4,-8 -1,-3 -1,-6 -1,-10 0,-4 0,-7 1,-10 1,-3 3,-5 5,-7 1,-2 4,-4 6,-5 3,-1 5,-1 8,-1 2,0 4,0 6,0 1,1 3,1 4,2 2,1 3,2 4,3 1,2 1,3 1,5 0,1 0,2 0,2 -1,1 -1,2 -2,2 0,1 -1,1 -1,1 -1,1 -2,1 -3,1 -2,0 -4,-1 -5,-2 -1,-1 -1,-3 -1,-5 0,-2 0,-3 0,-4 1,-2 1,-3 1,-3 0,0 0,0 0,0 0,0 0,0 -1,-1 0,0 0,0 0,0 -1,0 -1,0 -1,0 -2,0 -3,1 -4,1 -1,1 -2,2 -3,3 -1,2 -2,3 -2,5 -1,1 -1,3 -1,5 0,1 -1,3 -1,5 0,1 0,3 0,4 0,4 0,7 1,10 1,3 1,5 2,6 1,2 2,3 3,4 1,0 2,0 3,0z"/>
   <path id="1" fill="url(#id1)" fill-rule="nonzero" d="M273 81c0,-2 1,-4 2,-5 1,-2 3,-3 5,-3 1,-1 3,-1 5,-1 3,-1 4,-1 6,-1 1,0 1,0 1,0 1,0 1,0 2,0l0 -2c0,-2 0,-4 -1,-6 0,-1 0,-3 -1,-4 -1,-1 -1,-1 -2,-2 -1,0 -2,0 -3,0 -1,0 -2,0 -3,0 1,1 1,2 1,3 1,1 1,2 1,2 0,2 -1,3 -2,4 -1,1 -2,1 -3,1 -2,0 -3,0 -4,-1 0,-1 -1,-2 -1,-3 0,-1 0,-2 1,-3 0,-1 1,-2 2,-2 1,-1 2,-1 3,-2 2,0 4,0 6,0 2,0 5,0 7,1 2,0 3,1 5,2 1,2 2,3 3,5 1,2 1,3 1,5l0 13c0,1 0,2 1,2 0,1 0,1 1,1 0,0 1,0 1,-1 1,0 2,-1 3,-1 0,0 -1,1 -1,2 -1,1 -1,1 -2,2 -1,1 -1,1 -2,2 -1,0 -2,0 -3,0 -2,0 -3,0 -5,-1 -1,-1 -2,-3 -2,-4 -1,2 -2,3 -4,4 -2,1 -4,2 -6,2 -4,0 -7,-1 -9,-3 -2,-1 -3,-4 -3,-6zm15 6c1,0 1,0 2,0 1,-1 1,-1 2,-1 0,-1 0,-2 1,-2 0,-1 1,-1 1,-2l0 -9c-1,0 -2,0 -3,0 -1,0 -2,0 -2,0 -1,0 -3,1 -4,3 0,1 -1,3 -1,6 0,2 1,3 1,4 1,1 2,1 3,1z"/>
   <path id="2" fill="url(#id2)" fill-rule="nonzero" d="M314 48c-1,0 -1,0 -2,0 -1,1 -2,1 -2,2 0,-1 0,-2 0,-3 1,0 1,-1 2,-2 1,0 2,-1 3,-1 1,0 2,-1 3,-1 1,0 2,0 3,1 1,0 1,0 2,1 1,0 1,1 2,2 0,1 1,2 1,3l0 32c0,1 0,2 0,3 0,1 0,1 0,2 0,0 1,0 1,0 1,1 1,1 2,1l0 1 -18 0 0 -1c1,0 2,0 3,-1 0,0 1,0 1,0 0,-1 0,-1 0,-2 0,-1 0,-2 0,-3l0 -32c0,-1 0,-2 0,-2 -1,0 -1,0 -1,0z"/>
   <path id="3" fill="url(#id3)" fill-rule="nonzero" d="M334 81c0,-2 0,-4 2,-5 1,-2 2,-3 4,-3 2,-1 4,-1 6,-1 2,-1 4,-1 6,-1 0,0 1,0 1,0 1,0 1,0 1,0l0 -2c0,-2 0,-4 0,-6 0,-1 -1,-3 -1,-4 -1,-1 -2,-1 -3,-2 -1,0 -2,0 -3,0 -1,0 -1,0 -2,0 1,1 1,2 1,3 0,1 0,2 0,2 0,2 0,3 -1,4 -1,1 -2,1 -4,1 -1,0 -2,0 -3,-1 -1,-1 -1,-2 -1,-3 0,-1 0,-2 0,-3 1,-1 2,-2 2,-2 1,-1 3,-1 4,-2 2,0 3,0 5,0 3,0 5,0 7,1 2,0 4,1 5,2 2,2 3,3 4,5 0,2 1,3 1,5l0 13c0,1 0,2 0,2 0,1 1,1 1,1 1,0 1,0 2,-1 1,0 1,-1 2,-1 0,0 0,1 -1,2 0,1 -1,1 -1,2 -1,1 -2,1 -3,2 -1,0 -2,0 -3,0 -1,0 -3,0 -4,-1 -1,-1 -2,-3 -3,-4 -1,2 -2,3 -3,4 -2,1 -4,2 -6,2 -4,0 -7,-1 -9,-3 -2,-1 -3,-4 -3,-6zm14 6c1,0 2,0 3,0 0,-1 1,-1 1,-1 1,-1 1,-2 1,-2 1,-1 1,-1 1,-2l0 -9c-1,0 -2,0 -2,0 -1,0 -2,0 -2,0 -2,0 -3,1 -4,3 -1,1 -1,3 -1,6 0,2 0,3 1,4 1,1 2,1 2,1z"/>
   <path id="4" fill="url(#id4)" fill-rule="nonzero" d="M379 43c1,0 2,0 3,1 1,0 2,0 3,1 0,0 1,1 1,2 1,1 1,2 1,3l0 7 10 0 0 1 -10 0 0 22c0,1 0,2 0,2 0,1 0,2 0,3 1,1 1,1 2,2 1,0 1,1 3,1 1,0 3,-1 4,-2 2,-1 3,-2 5,-3 0,0 0,1 -1,2 0,1 -1,2 -2,2 0,1 -2,2 -3,2 -2,1 -3,1 -5,1 -4,0 -7,-1 -10,-3 -2,-1 -3,-3 -3,-7l0 -22 -4 0 0 -1 4 0 0 -7c0,-1 -1,-2 -1,-2 0,0 -1,0 -1,0 -1,0 -1,0 -2,0 -1,1 -1,1 -2,2 0,-1 0,-2 1,-3 0,0 1,-1 2,-2 0,0 1,-1 2,-1 1,0 2,-1 3,-1z"/>
   <path id="5" fill="url(#id5)" fill-rule="nonzero" d="M405 81c0,-2 1,-4 2,-5 1,-2 3,-3 4,-3 2,-1 4,-1 6,-1 2,-1 4,-1 6,-1 0,0 1,0 1,0 1,0 1,0 2,0l0 -2c0,-2 -1,-4 -1,-6 0,-1 -1,-3 -1,-4 -1,-1 -2,-1 -3,-2 0,0 -1,0 -3,0 0,0 -1,0 -2,0 1,1 1,2 1,3 0,1 0,2 0,2 0,2 0,3 -1,4 -1,1 -2,1 -3,1 -2,0 -3,0 -4,-1 -1,-1 -1,-2 -1,-3 0,-1 0,-2 0,-3 1,-1 2,-2 3,-2 1,-1 2,-1 3,-2 2,0 3,0 6,0 2,0 4,0 6,1 2,0 4,1 6,2 1,2 2,3 3,5 0,2 1,3 1,5l0 13c0,1 0,2 0,2 1,1 1,1 1,1 1,0 2,0 2,-1 1,0 2,-1 2,-1 0,0 0,1 0,2 -1,1 -1,1 -2,2 -1,1 -2,1 -3,2 -1,0 -2,0 -3,0 -1,0 -3,0 -4,-1 -1,-1 -2,-3 -3,-4 0,2 -2,3 -3,4 -2,1 -4,2 -6,2 -4,0 -7,-1 -9,-3 -2,-1 -3,-4 -3,-6zm15 6c0,0 1,0 2,0 0,-1 1,-1 1,-1 1,-1 1,-2 2,-2 0,-1 0,-1 1,-2l0 -9c-1,0 -2,0 -3,0 -1,0 -2,0 -2,0 -2,0 -3,1 -4,3 -1,1 -1,3 -1,6 0,2 0,3 1,4 1,1 2,1 3,1z"/>
   <path id="6" fill="url(#id6)" fill-rule="nonzero" d="M456 80c0,1 -1,2 -1,3 0,1 0,1 -1,1 0,0 0,0 0,1 0,0 0,1 1,1 0,0 1,1 1,1 1,0 2,0 2,1 1,0 2,0 2,0 2,0 3,-1 4,-1 1,-1 2,-2 2,-4 0,0 0,-1 -1,-2 0,0 0,-1 -1,-1 0,-1 -1,-1 -2,-2 -1,0 -2,-1 -3,-2 -2,-1 -4,-2 -6,-3 -1,-1 -3,-2 -3,-3 -1,0 -2,-1 -2,-2 -1,-1 -1,-2 -1,-3 0,-1 0,-3 1,-4 1,-1 2,-2 3,-3 1,-1 2,-1 4,-2 2,0 4,0 6,0 2,0 4,0 5,0 2,1 4,1 5,2 1,1 2,2 3,3 1,1 1,2 1,4 0,1 0,2 -1,3 -1,1 -2,2 -4,2 -1,0 -2,-1 -3,-1 -1,-1 -1,-2 -1,-4 0,-1 0,-2 0,-2 0,-1 0,-2 1,-2 0,-1 0,-1 0,-1 0,-1 0,-1 -1,-2 -1,0 -2,-1 -3,-1 -2,0 -3,1 -4,2 -1,0 -1,1 -1,3 0,1 0,1 0,2 1,1 1,1 2,2 0,0 1,1 2,1 0,1 1,1 1,1 3,2 5,3 7,4 1,1 3,2 4,3 1,1 1,2 2,2 0,1 0,2 0,3 0,1 0,3 -1,4 -1,1 -2,2 -3,3 -2,1 -4,2 -5,2 -2,0 -4,1 -6,1 -2,0 -4,0 -6,-1 -1,0 -3,-1 -4,-1 -2,-1 -3,-2 -4,-3 -1,-2 -1,-3 -1,-5 0,-2 0,-3 1,-4 1,-1 2,-2 4,-2 2,0 3,1 4,2 0,1 1,2 1,4z"/>
   <path id="7" fill="url(#id7)" fill-rule="nonzero" d="M482 81c0,-2 0,-4 1,-5 2,-2 3,-3 5,-3 2,-1 4,-1 6,-1 2,-1 4,-1 5,-1 1,0 1,0 2,0 0,0 1,0 1,0l0 -2c0,-2 0,-4 0,-6 -1,-1 -1,-3 -2,-4 0,-1 -1,-1 -2,-2 -1,0 -2,0 -3,0 -1,0 -2,0 -2,0 0,1 1,2 1,3 0,1 0,2 0,2 0,2 0,3 -1,4 -1,1 -2,1 -4,1 -1,0 -2,0 -3,-1 -1,-1 -1,-2 -1,-3 0,-1 0,-2 0,-3 1,-1 1,-2 2,-2 1,-1 2,-1 4,-2 1,0 3,0 5,0 3,0 5,0 7,1 2,0 4,1 5,2 2,2 3,3 3,5 1,2 2,3 2,5l0 13c0,1 0,2 0,2 0,1 1,1 1,1 1,0 1,0 2,-1 1,0 1,-1 2,-1 0,0 0,1 -1,2 0,1 -1,1 -1,2 -1,1 -2,1 -3,2 -1,0 -2,0 -3,0 -1,0 -3,0 -4,-1 -1,-1 -2,-3 -3,-4 -1,2 -2,3 -4,4 -1,1 -3,2 -5,2 -4,0 -7,-1 -9,-3 -2,-1 -3,-4 -3,-6zm14 6c1,0 2,0 2,0 1,-1 2,-1 2,-1 0,-1 1,-2 1,-2 1,-1 1,-1 1,-2l0 -9c-1,0 -2,0 -3,0 -1,0 -1,0 -1,0 -2,0 -3,1 -4,3 -1,1 -1,3 -1,6 0,2 0,3 1,4 0,1 1,1 2,1z"/>
   <path id="8" fill="url(#id8)" fill-rule="nonzero" d="M523 60c-1,0 -1,1 -2,1 -1,1 -1,1 -2,2 0,-1 0,-2 1,-3 0,0 1,-1 2,-2 0,0 1,-1 2,-1 1,-1 2,-1 3,-1 2,0 3,1 5,1 1,1 2,2 3,4 1,-2 2,-3 4,-4 1,0 3,-1 5,-1 1,0 2,0 2,1 1,0 2,1 3,1 1,1 1,1 2,2 0,1 0,2 0,2 0,2 0,3 -1,4 -1,1 -3,1 -4,1 -1,0 -2,0 -2,0 -1,0 -1,-1 -2,-1 0,-1 0,-1 0,-2 -1,-1 -1,-1 -1,-2 0,-1 0,-2 1,-2 0,-1 0,-2 0,-2 0,0 -1,0 -2,0 0,1 -1,1 -2,2 0,0 -1,1 -2,2 0,0 -1,1 -1,2l0 18c0,1 0,2 0,3 0,1 0,1 0,2 1,0 1,0 2,0 0,1 1,1 2,1l0 1 -18 0 0 -1c1,0 1,0 2,-1 0,0 1,0 1,0 0,-1 0,-1 1,-2 0,-1 0,-2 0,-3l0 -19c0,-1 -1,-2 -1,-2 0,0 -1,-1 -1,-1z"/>
   <path id="9" fill="url(#id9)" fill-rule="nonzero" d="M553 81c0,-2 1,-4 2,-5 2,-2 3,-3 5,-3 2,-1 4,-1 6,-1 2,-1 4,-1 5,-1 1,0 1,0 2,0 0,0 1,0 1,0l0 -2c0,-2 0,-4 0,-6 -1,-1 -1,-3 -2,-4 0,-1 -1,-1 -2,-2 -1,0 -2,0 -3,0 -1,0 -2,0 -2,0 0,1 0,2 1,3 0,1 0,2 0,2 0,2 0,3 -1,4 -1,1 -3,1 -4,1 -1,0 -2,0 -3,-1 -1,-1 -2,-2 -2,-3 0,-1 1,-2 1,-3 0,-1 1,-2 2,-2 1,-1 2,-1 4,-2 1,0 3,0 5,0 3,0 5,0 7,1 2,0 4,1 5,2 2,2 3,3 3,5 1,2 1,3 1,5l0 13c0,1 0,2 1,2 0,1 0,1 1,1 0,0 1,0 2,-1 0,0 1,-1 2,-1 0,0 0,1 -1,2 0,1 -1,1 -2,2 0,1 -1,1 -2,2 -1,0 -2,0 -3,0 -2,0 -3,0 -4,-1 -2,-1 -2,-3 -3,-4 -1,2 -2,3 -4,4 -1,1 -3,2 -5,2 -4,0 -7,-1 -9,-3 -3,-1 -4,-4 -4,-6zm15 6c1,0 2,0 2,0 1,-1 1,-1 2,-1 0,-1 1,-2 1,-2 0,-1 1,-1 1,-2l0 -9c-1,0 -2,0 -3,0 -1,0 -1,0 -2,0 -1,0 -2,1 -3,3 -1,1 -2,3 -2,6 0,2 1,3 2,4 0,1 1,1 2,1z"/>
   <path id="10" fill="url(#id10)" fill-rule="nonzero" d="M594 63c-1,-1 -1,-1 -2,-2 0,0 -1,0 -1,0 -1,0 -1,0 -2,0 0,1 -1,1 -2,2 0,-1 1,-2 1,-3 1,-1 1,-1 2,-2 1,-1 2,-1 3,-1 1,-1 2,-1 3,-1 2,0 4,1 5,2 1,0 2,2 3,4l7 15 7 -17c0,-1 0,-1 0,-1 0,-1 0,-1 0,-1 -1,0 -1,0 -1,0 -1,0 -1,0 -2,0 0,0 0,0 -1,0l0 0 0 -1 10 0 0 1c-1,0 -2,0 -3,0 -1,0 -1,1 -1,2l-13 33c-1,2 -2,3 -2,4 -1,2 -2,3 -3,3 -1,1 -1,2 -2,2 -1,0 -2,1 -3,1 -2,0 -4,-1 -5,-2 -1,-1 -2,-2 -2,-4 0,-2 1,-3 2,-4 1,-1 2,-1 3,-1 2,0 3,0 4,1 1,1 1,2 1,3 0,1 0,2 0,2 -1,1 -1,2 -2,3 2,-1 3,-1 4,-3 1,-1 2,-3 3,-5l1 -3 -12 -27z"/>
   <rect fill="url(#id11)" y="54" width="198.417" height="14.3555" rx="12" ry="12"/>
   <rect fill="url(#id12)" y="71" width="198.417" height="14.3555" rx="12" ry="12"/>
  </g>
  <rect fill="none" width="624" height="145"/>
 </g>
</svg>
