

<!-- Creator: CorelDRAW X8 -->
<svg xmlns="http://www.w3.org/2000/svg" xml:space="preserve" width="99.5752mm" height="25mm" version="1.1" shape-rendering="geometricPrecision" text-rendering="geometricPrecision" image-rendering="optimizeQuality" fill-rule="evenodd" clip-rule="evenodd"
viewBox="0 0 539 135"
 xmlns:xlink="http://www.w3.org/1999/xlink">
 <defs>
    <linearGradient id="id0" gradientUnits="userSpaceOnUse" x1="209.487" y1="67.6934" x2="539.25" y2="67.6934">
     <stop offset="0" stop-opacity="1" stop-color="#8B2937"/>
     <stop offset="1" stop-opacity="1" stop-color="#ECECEC"/>
    </linearGradient>
    <linearGradient id="id1" gradientUnits="userSpaceOnUse" x1="209.487" y1="67.6934" x2="539.25" y2="67.6934">
     <stop offset="0" stop-opacity="1" stop-color="#8B2937"/>
     <stop offset="1" stop-opacity="1" stop-color="#ECECEC"/>
    </linearGradient>
    <linearGradient id="id2" gradientUnits="userSpaceOnUse" x1="209.487" y1="67.6934" x2="539.25" y2="67.6934">
     <stop offset="0" stop-opacity="1" stop-color="#8B2937"/>
     <stop offset="1" stop-opacity="1" stop-color="#ECECEC"/>
    </linearGradient>
    <linearGradient id="id3" gradientUnits="userSpaceOnUse" x1="209.487" y1="67.6934" x2="539.25" y2="67.6934">
     <stop offset="0" stop-opacity="1" stop-color="#8B2937"/>
     <stop offset="1" stop-opacity="1" stop-color="#ECECEC"/>
    </linearGradient>
    <linearGradient id="id4" gradientUnits="userSpaceOnUse" x1="209.487" y1="67.6934" x2="539.25" y2="67.6934">
     <stop offset="0" stop-opacity="1" stop-color="#8B2937"/>
     <stop offset="1" stop-opacity="1" stop-color="#ECECEC"/>
    </linearGradient>
    <linearGradient id="id5" gradientUnits="userSpaceOnUse" x1="209.487" y1="67.6934" x2="539.25" y2="67.6934">
     <stop offset="0" stop-opacity="1" stop-color="#8B2937"/>
     <stop offset="1" stop-opacity="1" stop-color="#ECECEC"/>
    </linearGradient>
    <linearGradient id="id6" gradientUnits="userSpaceOnUse" x1="209.487" y1="67.6934" x2="539.25" y2="67.6934">
     <stop offset="0" stop-opacity="1" stop-color="#8B2937"/>
     <stop offset="1" stop-opacity="1" stop-color="#ECECEC"/>
    </linearGradient>
    <linearGradient id="id7" gradientUnits="userSpaceOnUse" x1="209.487" y1="67.6934" x2="539.25" y2="67.6934">
     <stop offset="0" stop-opacity="1" stop-color="#8B2937"/>
     <stop offset="1" stop-opacity="1" stop-color="#ECECEC"/>
    </linearGradient>
    <linearGradient id="id8" gradientUnits="userSpaceOnUse" x1="209.487" y1="67.6934" x2="539.25" y2="67.6934">
     <stop offset="0" stop-opacity="1" stop-color="#8B2937"/>
     <stop offset="1" stop-opacity="1" stop-color="#ECECEC"/>
    </linearGradient>
    <linearGradient id="id9" gradientUnits="userSpaceOnUse" x1="209.487" y1="67.6934" x2="539.25" y2="67.6934">
     <stop offset="0" stop-opacity="1" stop-color="#8B2937"/>
     <stop offset="1" stop-opacity="1" stop-color="#ECECEC"/>
    </linearGradient>
    <linearGradient id="id10" gradientUnits="userSpaceOnUse" x1="-0" y1="56.4302" x2="184.838" y2="56.4302">
     <stop offset="0" stop-opacity="1" stop-color="white"/>
     <stop offset="1" stop-opacity="1" stop-color="black"/>
    </linearGradient>
    <linearGradient id="id11" gradientUnits="userSpaceOnUse" x1="-0" y1="72.7986" x2="184.838" y2="72.7986">
     <stop offset="0" stop-opacity="1" stop-color="#8B2937"/>
     <stop offset="1" stop-opacity="1" stop-color="black"/>
    </linearGradient>
 </defs>
 <g id="Katman_x0020_1">
  <metadata id="CorelCorpID_0Corel-Layer"/>
  <g id="_2222495888832">
   <path fill="url(#id0)" fill-rule="nonzero" d="M209 81c1,0 2,0 3,0 0,0 0,0 1,-1 0,0 0,-1 0,-1 0,-1 0,-2 0,-3l0 -30c0,-1 0,-1 0,-2 0,-1 0,-1 0,-2 -1,0 -1,0 -1,0 -1,-1 -2,-1 -3,-1l0 -1 33 0 0 10 -2 0c0,-1 0,-2 0,-3 0,-1 0,-2 -1,-3 0,0 0,-1 -1,-1 0,-1 -1,-1 -2,-1l-13 0 0 19 7 0c1,0 1,0 1,-1 1,0 1,-1 1,-1 0,-1 1,-1 1,-2 0,-1 0,-2 0,-2l1 0 0 13 -1 0c0,0 0,-1 0,-2 0,0 -1,-1 -1,-2 0,0 0,-1 -1,-1 0,-1 0,-1 -1,-1l-7 0 0 19 14 0c1,0 2,0 2,-1 1,0 1,-1 2,-2 0,0 0,-1 0,-2 0,-1 0,-2 0,-3l2 0 0 9 -34 0 0 -1z"/>
   <path id="1" fill="url(#id1)" fill-rule="nonzero" d="M251 44c0,0 -1,0 -1,1 -1,0 -2,1 -2,1 0,-1 0,-1 0,-2 1,-1 1,-1 2,-2 1,-1 1,-1 2,-1 1,-1 2,-1 3,-1 1,0 2,0 3,0 1,1 1,1 2,2 1,0 1,1 2,1 0,1 0,2 0,3l0 30c0,1 0,2 0,3 0,0 1,1 1,1 0,1 0,1 1,1 0,0 1,0 2,0l0 1 -17 0 0 -1c1,0 2,0 2,0 1,0 1,0 1,-1 1,0 1,-1 1,-1 0,-1 0,-2 0,-3l0 -30c0,-1 0,-1 -1,-1 0,-1 0,-1 -1,-1z"/>
   <path id="2" fill="url(#id2)" fill-rule="nonzero" d="M270 75c0,-2 1,-4 2,-5 1,-1 2,-2 4,-3 2,0 4,-1 5,-1 2,0 4,0 6,0 0,0 1,0 1,0 0,0 1,0 1,0l0 -2c0,-2 0,-4 0,-5 -1,-2 -1,-3 -2,-4 0,-1 -1,-2 -2,-2 0,0 -1,0 -2,0 -1,0 -2,0 -3,0 1,1 1,2 1,2 1,1 1,2 1,3 0,1 -1,2 -2,3 0,1 -2,2 -3,2 -1,0 -2,-1 -3,-2 -1,-1 -1,-2 -1,-3 0,-1 0,-2 0,-2 1,-1 1,-2 2,-2 1,-1 2,-2 4,-2 1,0 3,-1 5,-1 2,0 4,1 6,1 2,1 4,2 5,3 1,1 2,3 3,4 0,2 1,3 1,5l0 12c0,1 0,2 0,2 1,1 1,1 1,1 1,0 1,0 2,-1 1,0 1,-1 2,-1 0,0 0,1 -1,2 0,1 -1,1 -1,2 -1,0 -2,1 -3,1 -1,1 -1,1 -2,1 -2,0 -3,-1 -4,-2 -2,-1 -2,-2 -3,-3 -1,2 -2,3 -3,4 -2,1 -4,1 -6,1 -3,0 -6,0 -8,-2 -2,-2 -3,-4 -3,-6zm14 6c0,0 1,0 2,0 0,-1 1,-1 1,-2 1,0 1,-1 1,-1 1,-1 1,-1 1,-2l0 -8c-1,0 -2,0 -2,0 -1,0 -2,0 -2,0 -2,0 -3,1 -4,2 0,2 -1,4 -1,6 0,2 1,3 1,4 1,1 2,1 3,1z"/>
   <path id="3" fill="url(#id3)" fill-rule="nonzero" d="M314 54c-1,0 -2,0 -2,1 -1,0 -1,1 -2,1 0,1 0,2 0,3 0,1 0,2 0,3l-2 0 0 -10 28 0 0 2 -17 27 11 0c1,0 2,0 2,-1 1,0 1,-1 2,-2 0,0 0,-1 0,-2 0,-1 0,-2 0,-3l2 0 0 9 -28 0 0 -1 17 -27 -11 0z"/>
   <path id="4" fill="url(#id4)" fill-rule="nonzero" d="M344 56c-1,0 -1,0 -2,1 0,0 -1,1 -2,1 0,-1 0,-1 1,-2 0,-1 1,-1 2,-2 0,-1 1,-1 2,-1 1,-1 2,-1 3,-1 1,0 2,0 3,0 0,1 1,1 2,2 0,0 1,1 1,1 1,1 1,2 1,3l0 18c0,1 0,2 0,3 0,0 0,1 0,1 1,1 1,1 2,1 0,0 1,0 2,0l0 1 -17 0 0 -1c1,0 1,0 2,0 0,0 1,0 1,-1 0,0 0,-1 0,-1 0,-1 0,-2 0,-3l0 -18c0,-1 0,-1 0,-1 0,-1 -1,-1 -1,-1z"/>
   <path id="5" fill="url(#id5)" fill-rule="nonzero" d="M363 88c0,-1 0,-2 1,-3 0,-1 1,-1 3,-1 1,0 2,1 3,1 1,1 1,2 1,4 0,1 0,1 0,2 -1,0 -1,1 -2,2 1,0 2,0 3,1 1,0 2,0 4,0 3,0 5,0 7,-1 2,0 4,-1 5,-2 1,0 2,-1 3,-2 1,-1 1,-2 1,-2 0,-1 -1,-2 -2,-3 -1,0 -3,-1 -6,-1l-11 0c-2,0 -3,0 -4,0 -2,-1 -3,-1 -3,-2 -1,0 -2,-1 -2,-2 0,-1 -1,-2 -1,-3 0,0 0,-1 1,-2 0,-1 1,-1 1,-2 1,0 1,-1 2,-1 1,-1 1,-1 2,-1 -1,-1 -3,-2 -3,-4 -1,-1 -1,-2 -1,-4 0,-3 1,-5 3,-7 2,-2 6,-3 10,-3 2,0 4,0 5,1 2,0 3,1 4,1 0,-1 1,-1 1,-2 1,-1 1,-1 2,-2 0,-1 1,-1 1,-2 1,0 2,0 3,0 1,0 2,0 3,1 0,0 1,1 1,2 0,1 0,2 -1,2 0,1 -1,1 -1,1 -1,0 -2,0 -2,-1 0,0 -1,-1 -1,-2 0,0 1,-1 1,-1 0,0 0,0 0,-1 0,0 -1,1 -1,1 -1,0 -1,0 -2,1 0,0 -1,1 -1,1 -1,1 -1,2 -1,3 1,1 1,2 2,3 0,1 0,3 0,4 0,3 -1,5 -3,7 -2,2 -6,3 -10,3 -2,0 -3,0 -4,0 -1,-1 -2,-1 -3,-1 -1,0 -2,0 -2,0 -1,1 -1,1 -1,2 0,0 0,0 0,1 0,0 0,0 1,0 0,0 1,1 1,1 1,0 2,0 3,0l11 0c3,0 6,1 7,2 2,2 3,4 3,7 0,2 0,3 -1,4 -1,2 -2,3 -3,4 -2,1 -3,2 -5,2 -3,1 -5,1 -8,1 -1,0 -3,0 -4,0 -2,0 -4,0 -5,-1 -2,0 -3,-1 -4,-2 -1,-1 -1,-2 -1,-4zm11 -26c0,2 0,3 0,4 0,1 1,2 1,3 0,0 1,1 1,1 1,0 2,0 2,0 1,0 1,0 2,0 0,0 1,-1 1,-1 1,-1 1,-2 1,-3 0,-1 0,-2 0,-4 0,-2 0,-3 0,-4 0,-1 0,-2 -1,-3 0,0 -1,-1 -1,-1 -1,0 -1,0 -2,0 0,0 -1,0 -2,0 0,0 -1,1 -1,1 0,1 -1,2 -1,3 0,1 0,2 0,4zm1 -22c1,1 1,2 2,2 1,0 1,1 2,1 1,0 2,-1 3,-1 0,0 1,-1 1,-2l2 0c0,1 -1,2 -1,2 0,1 -1,2 -1,2 0,1 -1,1 -2,2 0,0 -1,0 -2,0 -1,0 -1,0 -2,0 0,-1 -1,-1 -1,-2 -1,0 -1,-1 -2,-1 0,-1 0,-2 0,-3l1 0z"/>
   <path id="6" fill="url(#id6)" fill-rule="nonzero" d="M409 74c0,1 -1,2 -1,3 0,1 0,1 -1,1 0,0 0,0 0,1 0,0 1,1 1,1 0,0 1,1 1,1 1,0 1,0 2,0 1,0 1,0 2,0 1,0 2,0 3,-1 1,0 2,-1 2,-3 0,0 0,-1 0,-2 -1,0 -1,-1 -1,-1 -1,0 -2,-1 -2,-1 -1,-1 -2,-1 -3,-2 -2,-1 -4,-2 -6,-3 -1,-1 -2,-2 -3,-3 -1,-1 -2,-1 -2,-2 0,-1 0,-2 0,-3 0,-1 0,-2 0,-3 1,-1 2,-2 3,-3 1,-1 3,-1 4,-2 2,0 3,-1 5,-1 2,0 4,1 5,1 2,0 4,1 5,2 1,0 2,1 3,2 0,1 1,3 1,4 0,1 -1,3 -1,3 -1,1 -2,2 -4,2 -1,0 -2,-1 -3,-1 -1,-1 -1,-2 -1,-4 0,-1 0,-1 0,-2 0,-1 1,-1 1,-1 0,-1 0,-1 0,-2 0,0 0,0 -1,-1 -1,-1 -2,-1 -3,-1 -1,0 -2,0 -3,1 -1,1 -2,2 -2,3 0,1 1,2 1,2 0,1 1,2 2,2 0,1 1,1 1,1 1,1 1,1 2,1 2,2 4,3 6,4 1,1 2,2 3,2 1,1 2,2 2,3 1,1 1,1 1,2 0,2 -1,3 -1,4 -1,1 -2,2 -4,3 -1,1 -2,1 -4,2 -2,0 -4,0 -6,0 -1,0 -3,0 -5,0 -1,-1 -3,-1 -4,-2 -1,0 -2,-1 -3,-2 -1,-2 -2,-3 -2,-5 0,-1 1,-3 2,-4 1,0 2,-1 3,-1 2,0 3,0 4,1 0,1 1,2 1,4z"/>
   <path id="7" fill="url(#id7)" fill-rule="nonzero" d="M432 58c0,-1 0,-1 0,-2 1,-1 1,-1 2,-2 1,-1 1,-1 2,-1 1,-1 2,-1 3,-1 1,0 1,0 2,1 1,0 2,0 2,1 1,0 1,1 2,1 0,1 0,1 0,2 0,0 0,0 0,0 0,0 0,0 1,0 0,-2 2,-3 3,-4 2,-1 3,-2 6,-2 1,0 3,1 4,2 2,0 3,1 4,3 1,1 2,3 3,5 0,2 1,4 1,7 0,2 -1,4 -1,6 -1,2 -2,4 -3,5 -1,2 -2,3 -4,3 -2,1 -3,1 -5,1 -1,0 -2,0 -3,0 -1,0 -2,-1 -3,-1 0,0 0,0 -1,0 0,-1 0,-1 0,-1l0 7c0,1 0,2 0,3 0,0 0,1 0,1 0,1 1,1 1,1 1,0 1,0 2,0l0 1 -17 0 0 -1c1,0 2,0 2,0 1,0 1,0 1,-1 1,0 1,-1 1,-1 0,-1 0,-2 0,-3l0 -30c0,0 0,-1 -1,-1 0,-1 0,-1 -1,-1 0,0 -1,0 -1,1 -1,0 -2,1 -2,1zm15 21c0,1 1,1 2,2 0,0 1,0 2,0 1,0 2,0 2,0 1,-1 1,-1 2,-2 0,-1 1,-3 1,-4 0,-2 0,-4 0,-7 0,-3 0,-6 0,-7 0,-2 -1,-4 -1,-5 0,-1 -1,-1 -2,-2 0,0 -1,0 -1,0 -1,0 -2,0 -2,0 -1,0 -1,1 -1,1 -1,1 -1,1 -2,2 0,0 0,1 0,1l0 21z"/>
   <path id="8" fill="url(#id8)" fill-rule="nonzero" d="M489 82c1,0 1,0 2,-1 1,0 1,-1 2,-2 1,-1 1,-3 1,-4 1,-2 1,-5 1,-8 0,-3 0,-5 -1,-7 0,-2 0,-3 -1,-4 -1,-1 -1,-2 -2,-2 -1,-1 -1,-1 -2,-1 -1,0 -1,0 -2,1 -1,0 -1,1 -2,2 0,1 -1,2 -1,4 -1,2 -1,4 -1,7 0,3 0,6 1,8 0,1 1,3 1,4 1,1 1,2 2,2 1,1 1,1 2,1zm0 -31c3,0 5,1 7,2 2,0 3,1 5,3 1,1 2,3 3,5 1,2 1,4 1,6 0,3 0,5 -1,7 -1,2 -2,4 -3,5 -2,1 -3,2 -5,3 -2,1 -4,1 -7,1 -2,0 -5,0 -7,-1 -2,-1 -3,-2 -5,-3 -1,-1 -2,-3 -3,-5 -1,-2 -1,-4 -1,-7 0,-2 0,-4 1,-6 1,-2 2,-4 3,-5 2,-2 3,-3 5,-3 2,-1 5,-2 7,-2z"/>
   <path id="9" fill="url(#id9)" fill-rule="nonzero" d="M513 56c0,0 -1,0 -2,1 0,0 -1,1 -2,1 0,-1 1,-1 1,-2 0,-1 1,-1 2,-2 0,-1 1,-1 2,-1 1,-1 2,-1 3,-1 2,0 3,0 4,1 2,1 2,2 3,3 1,-1 2,-2 4,-3 1,0 3,-1 4,-1 1,0 2,0 3,1 1,0 2,0 2,1 1,0 1,1 2,2 0,0 0,1 0,2 0,1 0,2 -1,3 -1,1 -2,2 -4,2 0,0 -1,-1 -2,-1 0,0 -1,-1 -1,-1 0,-1 -1,-1 -1,-2 0,0 0,-1 0,-1 0,-1 0,-2 0,-3 1,0 1,-1 1,-1 0,0 -1,0 -2,0 0,0 -1,1 -2,1 0,1 -1,1 -2,2 0,1 -1,1 -1,2l0 17c0,1 0,2 0,3 0,0 0,1 1,1 0,1 0,1 1,1 0,0 1,0 2,0l0 1 -17 0 0 -1c1,0 2,0 2,0 1,0 1,0 1,-1 0,0 0,-1 0,-1 1,-1 1,-2 1,-3l0 -18c0,-1 -1,-1 -1,-1 0,-1 -1,-1 -1,-1z"/>
   <rect fill="url(#id10)" y="50" width="184.838" height="13.3731" rx="11" ry="11"/>
   <rect fill="url(#id11)" y="66" width="184.838" height="13.3731" rx="11" ry="11"/>
  </g>
  <rect fill="none" width="539" height="135"/>
 </g>
</svg>
