

<!-- Creator: CorelDRAW X8 -->
<svg xmlns="http://www.w3.org/2000/svg" xml:space="preserve" width="103.286mm" height="25mm" version="1.1" shape-rendering="geometricPrecision" text-rendering="geometricPrecision" image-rendering="optimizeQuality" fill-rule="evenodd" clip-rule="evenodd"
viewBox="0 0 579 140"
 xmlns:xlink="http://www.w3.org/1999/xlink">
 <defs>
    <linearGradient id="id0" gradientUnits="userSpaceOnUse" x1="216.857" y1="70.0752" x2="579.027" y2="70.0752">
     <stop offset="0" stop-opacity="1" stop-color="#F1E108"/>
     <stop offset="1" stop-opacity="1" stop-color="#0A4781"/>
    </linearGradient>
    <linearGradient id="id1" gradientUnits="userSpaceOnUse" x1="216.857" y1="70.0752" x2="579.027" y2="70.0752">
     <stop offset="0" stop-opacity="1" stop-color="#F1E108"/>
     <stop offset="1" stop-opacity="1" stop-color="#0A4781"/>
    </linearGradient>
    <linearGradient id="id2" gradientUnits="userSpaceOnUse" x1="216.857" y1="70.0752" x2="579.027" y2="70.0752">
     <stop offset="0" stop-opacity="1" stop-color="#F1E108"/>
     <stop offset="1" stop-opacity="1" stop-color="#0A4781"/>
    </linearGradient>
    <linearGradient id="id3" gradientUnits="userSpaceOnUse" x1="216.857" y1="70.0752" x2="579.027" y2="70.0752">
     <stop offset="0" stop-opacity="1" stop-color="#F1E108"/>
     <stop offset="1" stop-opacity="1" stop-color="#0A4781"/>
    </linearGradient>
    <linearGradient id="id4" gradientUnits="userSpaceOnUse" x1="216.857" y1="70.0752" x2="579.027" y2="70.0752">
     <stop offset="0" stop-opacity="1" stop-color="#F1E108"/>
     <stop offset="1" stop-opacity="1" stop-color="#0A4781"/>
    </linearGradient>
    <linearGradient id="id5" gradientUnits="userSpaceOnUse" x1="216.857" y1="70.0752" x2="579.027" y2="70.0752">
     <stop offset="0" stop-opacity="1" stop-color="#F1E108"/>
     <stop offset="1" stop-opacity="1" stop-color="#0A4781"/>
    </linearGradient>
    <linearGradient id="id6" gradientUnits="userSpaceOnUse" x1="216.857" y1="70.0752" x2="579.027" y2="70.0752">
     <stop offset="0" stop-opacity="1" stop-color="#F1E108"/>
     <stop offset="1" stop-opacity="1" stop-color="#0A4781"/>
    </linearGradient>
    <linearGradient id="id7" gradientUnits="userSpaceOnUse" x1="216.857" y1="70.0752" x2="579.027" y2="70.0752">
     <stop offset="0" stop-opacity="1" stop-color="#F1E108"/>
     <stop offset="1" stop-opacity="1" stop-color="#0A4781"/>
    </linearGradient>
    <linearGradient id="id8" gradientUnits="userSpaceOnUse" x1="216.857" y1="70.0752" x2="579.027" y2="70.0752">
     <stop offset="0" stop-opacity="1" stop-color="#F1E108"/>
     <stop offset="1" stop-opacity="1" stop-color="#0A4781"/>
    </linearGradient>
    <linearGradient id="id9" gradientUnits="userSpaceOnUse" x1="216.857" y1="70.0752" x2="579.027" y2="70.0752">
     <stop offset="0" stop-opacity="1" stop-color="#F1E108"/>
     <stop offset="1" stop-opacity="1" stop-color="#0A4781"/>
    </linearGradient>
    <linearGradient id="id10" gradientUnits="userSpaceOnUse" x1="-0" y1="58.9127" x2="191.341" y2="58.9127">
     <stop offset="0" stop-opacity="1" stop-color="#FCEB02"/>
     <stop offset="1" stop-opacity="1" stop-color="black"/>
    </linearGradient>
    <linearGradient id="id11" gradientUnits="userSpaceOnUse" x1="-0" y1="75.8569" x2="191.341" y2="75.8569">
     <stop offset="0" stop-opacity="1" stop-color="#0A4781"/>
     <stop offset="1" stop-opacity="1" stop-color="black"/>
    </linearGradient>
 </defs>
 <g id="Katman_x0020_1">
  <metadata id="CorelCorpID_0Corel-Layer"/>
  <g id="_2187318445600">
   <path fill="url(#id0)" fill-rule="nonzero" d="M217 86l0 -1c1,0 2,0 2,0 1,-1 1,-1 1,-1 0,-1 0,-1 1,-2 0,-1 0,-2 0,-2l0 -31c0,-1 0,-2 0,-3 -1,-1 -1,-1 -1,-2 0,0 0,0 -1,0 0,-1 -1,-1 -2,-1l0 -1 33 0 0 10 -2 0c0,-1 0,-2 0,-3 0,-1 0,-2 0,-2 -1,-1 -1,-2 -1,-2 -1,-1 -2,-1 -3,-1l-13 0 0 19 7 0c1,0 1,0 2,0 0,-1 0,-1 0,-2 1,0 1,-1 1,-2 0,0 0,-1 0,-2l2 0 0 14 -2 0c0,-1 0,-1 0,-2 0,-1 0,-1 -1,-2 0,-1 0,-1 0,-1 -1,-1 -1,-1 -2,-1l-7 0 0 15c0,0 0,1 0,2 0,1 0,1 0,2 1,0 1,0 1,1 1,0 2,0 3,0l0 1 -18 0z"/>
   <path id="1" fill="url(#id1)" fill-rule="nonzero" d="M266 87c-2,0 -5,-1 -7,-2 -2,0 -4,-2 -5,-3 -2,-1 -3,-3 -4,-5 -1,-2 -1,-5 -1,-7 0,-3 0,-5 1,-7 1,-2 2,-3 3,-5 2,-1 4,-2 6,-3 2,-1 4,-1 7,-1 1,0 3,0 4,0 2,1 3,1 5,2 1,0 2,1 3,3 1,1 1,2 1,4 0,1 0,2 -1,4 0,1 -1,1 -2,2 -1,1 -3,1 -4,2 -1,0 -3,0 -4,0 -2,1 -3,1 -5,1 -1,0 -2,0 -3,0 0,3 0,5 0,6 0,2 1,4 1,4 1,1 1,2 2,2 1,1 2,1 3,1 2,0 4,-1 7,-1 2,-1 4,-2 6,-4 0,1 -1,1 -1,2 -1,1 -1,2 -2,2 -1,1 -3,2 -4,2 -2,1 -3,1 -6,1zm-6 -17c1,0 2,0 3,0 1,0 2,-1 3,-1 1,-1 2,-2 2,-3 1,-1 1,-2 1,-4 0,0 0,-1 0,-2 0,-1 0,-2 -1,-2 0,-1 -1,-2 -1,-2 -1,0 -1,-1 -2,-1 -1,0 -2,1 -2,1 -1,1 -1,1 -2,3 0,1 -1,2 -1,4 0,2 0,4 0,7z"/>
   <path id="2" fill="url(#id2)" fill-rule="nonzero" d="M288 59c-1,0 -2,0 -2,0 -1,1 -2,1 -2,2 0,-1 0,-2 0,-3 1,0 1,-1 2,-2 1,0 2,-1 3,-1 1,0 2,-1 3,-1 1,0 3,1 4,1 1,1 2,2 3,3 1,-1 2,-2 3,-3 2,-1 3,-1 5,-1 2,0 4,0 5,1 2,0 3,1 4,2 1,1 2,2 2,3 1,1 1,3 1,4l0 16c0,0 0,1 1,1 0,1 0,1 1,1 0,0 1,0 1,-1 1,0 2,-1 2,-1 0,1 0,1 0,2 -1,1 -1,2 -2,2 -1,1 -1,1 -2,2 -1,0 -2,0 -3,0 -1,0 -2,0 -3,0 -1,-1 -2,-1 -3,-2 0,0 -1,-1 -1,-2 -1,0 -1,-1 -1,-2l0 -16c0,-1 0,-3 0,-4 -1,-1 -1,-1 -1,-2 -1,-1 -1,-1 -2,-2 0,0 -1,0 -2,0 0,0 -1,0 -1,0 -1,1 -2,1 -2,2 0,0 -1,1 -1,1 -1,1 -1,1 -1,2l0 19c0,0 0,1 0,2 0,1 0,1 0,2 1,0 1,0 2,1 0,0 1,0 2,0l0 1 -18 0 0 -1c1,0 2,0 2,0 1,-1 1,-1 2,-1 0,-1 0,-1 0,-2 0,-1 0,-2 0,-2l0 -19c0,-1 0,-2 0,-2 -1,0 -1,0 -1,0z"/>
   <path id="3" fill="url(#id3)" fill-rule="nonzero" d="M346 87c-3,0 -6,-1 -8,-2 -2,0 -4,-2 -5,-3 -2,-1 -3,-3 -4,-5 -1,-2 -1,-5 -1,-7 0,-3 0,-5 1,-7 1,-2 2,-3 4,-5 1,-1 3,-2 5,-3 2,-1 5,-1 7,-1 1,0 3,0 4,0 2,1 3,1 5,2 1,0 2,1 3,3 1,1 2,2 2,4 0,1 -1,2 -1,4 -1,1 -2,1 -3,2 -1,1 -3,1 -4,2 -1,0 -3,0 -4,0 -2,1 -3,1 -5,1 -1,0 -2,0 -3,0 0,3 0,5 0,6 0,2 1,4 1,4 1,1 1,2 2,2 1,1 2,1 3,1 2,0 4,-1 7,-1 2,-1 4,-2 6,-4 0,1 -1,1 -1,2 -1,1 -1,2 -2,2 -1,1 -3,2 -4,2 -2,1 -3,1 -5,1zm-7 -17c1,0 2,0 3,0 1,0 2,-1 3,-1 1,-1 2,-2 2,-3 1,-1 1,-2 1,-4 0,0 0,-1 0,-2 0,-1 0,-2 -1,-2 0,-1 -1,-2 -1,-2 -1,0 -1,-1 -2,-1 -1,0 -1,1 -2,1 -1,1 -1,1 -2,3 0,1 -1,2 -1,4 0,2 0,4 0,7z"/>
   <path id="4" fill="url(#id4)" fill-rule="nonzero" d="M367 59c-1,0 -2,0 -2,0 -1,1 -2,1 -2,2 0,-1 0,-2 0,-3 1,0 1,-1 2,-2 1,0 2,-1 3,-1 1,0 2,-1 3,-1 1,0 3,1 4,2 1,0 2,1 3,3 1,-2 2,-3 4,-3 1,-1 3,-2 4,-2 1,0 2,1 3,1 1,0 2,1 3,1 0,1 1,1 1,2 1,1 1,2 1,2 0,2 -1,3 -2,4 -1,1 -2,1 -3,1 -1,0 -2,0 -2,0 -1,-1 -1,-1 -2,-1 0,-1 0,-1 -1,-2 0,-1 0,-1 0,-2 0,-1 0,-2 1,-2 0,-1 0,-2 0,-2 0,0 -1,0 -2,1 0,0 -1,0 -2,1 0,0 -1,1 -2,2 0,0 -1,1 -1,2l0 18c0,0 0,1 0,2 0,1 0,1 1,2 0,0 0,0 1,1 0,0 1,0 2,0l0 1 -18 0 0 -1c1,0 2,0 3,0 0,-1 0,-1 1,-1 0,-1 0,-1 0,-2 0,-1 0,-2 0,-2l0 -19c0,-1 0,-2 0,-2 -1,0 -1,0 -1,0z"/>
   <path id="5" fill="url(#id5)" fill-rule="nonzero" d="M402 42c1,0 2,0 3,0 1,1 1,1 2,1 1,1 1,2 2,2 0,1 0,2 0,3l0 8c1,0 1,0 1,0 1,-1 1,-1 1,-1 1,0 2,-1 3,-1 0,0 2,0 3,0 2,0 4,0 5,1 2,1 3,2 4,3 2,1 2,3 3,5 1,2 1,5 1,7 0,3 0,5 -1,7 -1,2 -1,4 -3,6 -1,1 -2,2 -3,3 -2,0 -4,1 -5,1 -2,0 -4,-1 -6,-2 -2,-1 -3,-2 -4,-4 0,0 0,0 0,0 0,0 0,0 0,0 0,1 0,1 -1,2 0,0 -1,1 -1,1 -1,1 -1,1 -2,2 -1,0 -2,0 -3,0 0,0 -1,0 -2,0l0 -38c0,-1 0,-1 0,-1 0,-1 -1,-1 -1,-1 -1,0 -1,0 -2,1 -1,0 -1,1 -2,1 0,-1 0,-1 1,-2 0,-1 1,-2 2,-2 0,-1 1,-1 2,-2 1,0 2,0 3,0zm7 16l0 22c1,0 1,1 1,1 1,1 1,1 1,2 1,0 1,1 2,1 0,0 1,0 2,0 0,0 1,0 1,0 1,0 2,-1 2,-2 0,-1 1,-3 1,-5 0,-2 1,-4 1,-7 0,-3 -1,-5 -1,-7 0,-2 -1,-4 -1,-5 0,-1 -1,-1 -2,-2 0,0 -1,0 -2,0 -1,0 -2,0 -2,1 -1,0 -2,1 -3,1z"/>
   <path id="6" fill="url(#id6)" fill-rule="nonzero" d="M435 78c0,-2 1,-4 2,-5 1,-1 3,-2 4,-3 2,0 4,-1 6,-1 2,0 4,0 5,0 1,0 1,0 2,0 0,0 1,0 1,0l0 -2c0,-2 0,-4 0,-6 -1,-1 -1,-3 -2,-4 0,-1 -1,-1 -2,-1 -1,-1 -2,-1 -3,-1 -1,0 -1,0 -2,0 1,1 1,2 1,3 0,1 0,2 0,2 0,2 0,3 -1,4 -1,1 -2,1 -3,1 -2,0 -3,0 -4,-1 -1,-1 -1,-2 -1,-3 0,-1 0,-2 1,-3 0,-1 1,-1 2,-2 1,-1 2,-1 3,-2 2,0 3,0 5,0 3,0 5,0 7,1 2,0 4,1 5,3 1,1 2,2 3,4 1,1 1,3 1,5l0 13c0,0 0,1 0,1 1,1 1,1 2,1 0,0 1,0 1,-1 1,0 2,0 2,-1 0,1 0,1 0,2 -1,1 -1,2 -2,2 -1,1 -2,1 -2,2 -1,0 -2,0 -3,0 -2,0 -3,0 -4,-1 -2,-1 -2,-2 -3,-4 -1,2 -2,3 -4,4 -1,1 -3,2 -5,2 -4,0 -7,-1 -9,-3 -2,-1 -3,-3 -3,-6zm14 6c1,0 2,0 2,0 1,0 1,-1 2,-1 0,-1 1,-1 1,-2 1,0 1,-1 1,-1l0 -9c-1,0 -2,0 -3,0 0,0 -1,0 -1,0 -2,0 -3,1 -4,2 -1,2 -1,4 -1,6 0,2 0,4 1,4 1,1 1,1 2,1z"/>
   <path id="7" fill="url(#id7)" fill-rule="nonzero" d="M471 48c0,-1 0,-1 0,-2 1,-1 1,-1 2,-2 1,-1 1,-1 2,-1 1,-1 2,-1 4,-1 0,0 1,0 2,0 1,1 2,1 2,2 1,0 2,1 2,1 1,1 1,2 1,3l0 10c2,-3 5,-4 8,-4 2,0 3,0 5,1 1,0 3,1 4,2 1,1 1,2 2,3 1,1 1,3 1,4l0 16c0,0 0,1 0,1 1,1 1,1 2,1 0,0 1,0 1,-1 1,0 2,-1 2,-1 0,1 0,1 0,2 -1,1 -1,2 -2,2 -1,1 -2,1 -3,2 -1,0 -2,0 -3,0 -1,0 -1,0 -2,0 -1,-1 -2,-1 -3,-2 0,0 -1,-1 -1,-2 -1,0 -1,-1 -1,-2l0 -16c0,-1 0,-3 0,-4 -1,-1 -1,-1 -2,-2 0,-1 -1,-1 -1,-2 -1,0 -1,0 -2,0 -1,0 -1,0 -2,0 0,1 -1,1 -1,2 -1,0 -1,1 -1,1 -1,1 -1,1 -1,2l0 19c0,0 0,1 0,2 0,1 0,1 0,2 0,0 1,0 1,1 1,0 2,0 2,0l0 1 -17 0 0 -1c1,0 2,0 2,0 1,-1 1,-1 1,-1 1,-1 1,-1 1,-2 0,-1 0,-2 0,-2l0 -32c0,-1 0,-1 -1,-1 0,-1 0,-1 -1,-1 0,0 -1,0 -1,1 -1,0 -2,1 -2,1z"/>
   <path id="8" fill="url(#id8)" fill-rule="nonzero" d="M528 87l0 2c1,0 2,0 3,0 0,0 1,1 1,1 1,0 1,1 2,1 0,1 0,2 0,3 0,0 0,1 0,2 -1,0 -1,1 -2,1 -1,1 -1,1 -2,1 -1,0 -2,0 -3,0 0,0 0,0 -1,0 -1,0 -1,0 -2,0l0 -2c1,0 1,0 1,1 1,0 1,0 2,0 1,0 1,-1 2,-1 0,-1 1,-1 1,-2 0,-1 -1,-2 -1,-3 -1,0 -1,-1 -2,-1l0 -4c-4,-1 -7,-2 -9,-5 -2,-3 -3,-6 -3,-11 0,-5 2,-9 4,-12 3,-3 7,-4 13,-4 2,0 4,0 5,0 2,1 3,1 4,2 1,1 1,1 2,2 0,1 0,2 0,3 0,1 0,2 -1,3 -1,1 -2,1 -3,1 -2,0 -3,0 -4,-1 -1,-1 -1,-2 -1,-4 0,0 0,-1 0,-2 0,-1 1,-2 1,-3 0,0 -1,0 -1,0 -1,0 -2,0 -3,1 -1,0 -2,1 -3,2 0,1 -1,3 -2,5 0,2 0,4 0,7 0,3 0,5 0,7 1,2 2,4 3,5 0,1 1,2 2,2 1,1 2,1 3,1 1,0 3,-1 5,-2 1,0 3,-2 4,-3 0,1 0,1 0,2 -1,1 -1,2 -2,2 -1,1 -2,2 -4,2 -1,1 -3,1 -5,1 -1,0 -2,0 -4,0z"/>
   <path id="9" fill="url(#id9)" fill-rule="nonzero" d="M566 87c-3,0 -5,-1 -7,-2 -3,0 -4,-2 -6,-3 -1,-1 -2,-3 -3,-5 -1,-2 -1,-5 -1,-7 0,-3 0,-5 1,-7 0,-2 2,-3 3,-5 2,-1 3,-2 5,-3 3,-1 5,-1 8,-1 1,0 2,0 4,0 1,1 3,1 4,2 2,0 3,1 4,3 1,1 1,2 1,4 0,1 0,2 -1,4 -1,1 -2,1 -3,2 -1,1 -2,1 -3,2 -2,0 -3,0 -5,0 -1,1 -3,1 -4,1 -2,0 -3,0 -4,0 0,3 0,5 1,6 0,2 0,4 1,4 0,1 1,2 2,2 0,1 1,1 3,1 2,0 4,-1 6,-1 3,-1 5,-2 6,-4 0,1 0,1 -1,2 0,1 -1,2 -2,2 -1,1 -2,2 -4,2 -1,1 -3,1 -5,1zm-7 -17c1,0 3,0 4,0 1,0 2,-1 3,-1 1,-1 1,-2 2,-3 1,-1 1,-2 1,-4 0,0 0,-1 0,-2 -1,-1 -1,-2 -1,-2 -1,-1 -1,-2 -2,-2 0,0 -1,-1 -2,-1 0,0 -1,1 -2,1 0,1 -1,1 -1,3 -1,1 -1,2 -1,4 -1,2 -1,4 -1,7z"/>
   <rect fill="url(#id10)" y="52" width="191.341" height="13.8435" rx="11" ry="11"/>
   <rect fill="url(#id11)" y="69" width="191.341" height="13.8435" rx="11" ry="11"/>
  </g>
  <rect fill="none" width="579" height="140"/>
 </g>
</svg>
