



<!-- Creator: CorelDRAW X6 -->

<svg xmlns="http://www.w3.org/2000/svg" x="0" y="0" xml:space="preserve" width="37.5mm" height="25mm" version="1.1" shape-rendering="geometricPrecision" text-rendering="geometricPrecision" image-rendering="optimizeQuality" fill-rule="evenodd" clip-rule="evenodd"

viewBox="0 0 3750 2500"

 xmlns:xlink="http://www.w3.org/1999/xlink"

 enable-background="new 0 0 912.7 290.1">

 <g id="Layer_x0020_1">

  <metadata id="CorelCorpID_0Corel-Layer"/>

  <g id="_1387889976">

   <rect fill="#E31E25" width="3750" height="2500"/>

   <path fill="#f5f5f5" d="M1404 613c226,0 426,119 539,296 -94,-104 -229,-169 -380,-169 -281,0 -510,229 -510,510 0,281 229,510 510,510 151,0 286,-65 379,-169 -113,179 -313,296 -539,296 -353,0 -638,-285 -638,-638 0,-353 285,-638 638,-638l1 0z"/>

   <polygon fill="#f5f5f5" points="2061,956 2198,1146 2420,1074 2281,1263 2419,1451 2196,1379 2059,1568 2060,1334 1839,1261 2061,1190 "/>

  </g>

 </g>

 <g id="Layer_x0020_1_0">

  <metadata id="CorelCorpID_1Corel-Layer"/>

 </g>

 <g id="Layer_x0020_1_1">

  <metadata id="CorelCorpID_2Corel-Layer"/>

 </g>

 <g id="Layer_x0020_1_0_2">

  <metadata id="CorelCorpID_3Corel-Layer"/>

 </g>

 <g id="Layer_x0020_1_0_3">

  <metadata id="CorelCorpID_4Corel-Layer"/>

 </g>

 <g id="Layer_x0020_1_4">

  <metadata id="CorelCorpID_5Corel-Layer"/>

 </g>

 <g id="Layer_x0020_1_0_5">

  <metadata id="CorelCorpID_6Corel-Layer"/>

 </g>

 <g id="Layer_x0020_1_0_6">

  <metadata id="CorelCorpID_7Corel-Layer"/>

 </g>

 <g id="Layer_x0020_1_0_7">

  <metadata id="CorelCorpID_8Corel-Layer"/>

 </g>

 <g id="Layer_x0020_1_0_8">

  <metadata id="CorelCorpID_9Corel-Layer"/>

 </g>

 <g id="Layer_x0020_1_0_2_9">

  <metadata id="CorelCorpID_10Corel-Layer"/>

 </g>

 <g id="Layer_x0020_1_0_2_8">

  <metadata id="CorelCorpID_11Corel-Layer"/>

 </g>

 <g id="Layer_x0020_1_0_10">

  <metadata id="CorelCorpID_12Corel-Layer"/>

 </g>

 <g id="Layer_x0020_1_1_11">

  <metadata id="CorelCorpID_13Corel-Layer"/>

 </g>

 <g id="Layer_x0020_1_12">

  <metadata id="CorelCorpID_14Corel-Layer"/>

 </g>

 <g id="Layer_x0020_1_12_13">

  <metadata id="CorelCorpID_15Corel-Layer"/>

 </g>

</svg>

