<?xml version="1.0" encoding="UTF-8"?>
<!DOCTYPE svg PUBLIC "-//W3C//DTD SVG 1.1//EN" "http://www.w3.org/Graphics/SVG/1.1/DTD/svg11.dtd">
<!-- Creator: CorelDRAW X8 -->
<svg xmlns="http://www.w3.org/2000/svg" x="0" y="0" xml:space="preserve" width="40.0408mm" height="25mm" version="1.1" shape-rendering="geometricPrecision" text-rendering="geometricPrecision" image-rendering="optimizeQuality" fill-rule="evenodd" clip-rule="evenodd"
viewBox="0 0 4004 2500"
 xmlns:xlink="http://www.w3.org/1999/xlink"
 enable-background="new 0 0 1400 980">
 <g id="Katman_x0020_1">
  <metadata id="CorelCorpID_0Corel-Layer"/>
  <g id="_2468391490992">
   <path fill="#E31E24" d="M0 28c18,35 98,521 111,596 43,240 324,1812 338,1825l17 6c52,12 117,6 167,-5 129,-27 282,-151 449,-163 131,-9 219,66 346,30 122,-35 170,-63 300,55 38,35 68,65 106,94 208,153 502,-256 711,-237 46,4 114,37 91,95 -17,45 -88,40 -88,119 64,40 97,32 187,21 202,-27 372,-108 556,-144 179,-34 229,-43 375,44 117,69 166,134 338,134l0 -29c-321,-204 -420,-437 -566,-798 -44,-107 -79,-129 -155,-190 -218,-174 -222,-160 -180,-458 10,-63 51,-244 48,-283 -151,-38 -290,-64 -326,-209 -40,-161 -92,-252 -248,-289 -209,-50 -269,20 -452,49 -68,11 -111,0 -173,-16 -60,-16 -97,-36 -166,-37 -169,-1 -40,-122 -302,-76 -77,13 -143,36 -211,55 -486,137 -552,-46 -817,-160 -79,-34 -154,-6 -240,-6 -100,1 -120,-51 -216,-51l0 28z"/>
   <path fill="#E31E24" d="M388 2147c32,-27 77,-62 118,-88 75,-48 126,-69 182,-36 55,33 124,88 166,54 42,-35 74,-63 93,-80 20,-16 20,-19 41,-19 21,0 29,0 18,31 -11,32 -9,80 -6,107 3,27 9,75 7,113 0,22 3,50 6,69 -140,34 -269,129 -380,152 -50,11 -115,17 -167,5l-17 -6c-4,-3 -28,-124 -61,-302z"/>
   <path fill="#E31E24" d="M1000 1299c0,0 33,2 44,15 10,14 36,119 43,135 8,17 29,84 36,90 8,6 20,32 14,56 -6,24 -8,68 -8,90 0,23 74,227 111,278 38,51 78,57 83,91 4,35 -3,75 24,139 16,36 26,90 32,133 -100,8 -180,-44 -290,-39 1,-18 5,-37 15,-55 36,-69 69,-78 57,-136 -12,-57 -21,-78 -18,-123 3,-45 -12,-174 -24,-213 -12,-39 -66,-15 -60,-78 6,-63 -12,-108 -21,-156 -9,-48 -12,-66 -18,-105 -6,-39 8,-49 -8,-63 -16,-13 -17,-22 -16,-33 1,-10 -1,-19 -1,-19l5 -7z"/>
   <path fill="#E31E24" d="M2575 2235c0,-20 -4,-42 -17,-62 -38,-56 -98,-144 -120,-188 -23,-43 -44,-81 -57,-100 -14,-20 -59,-60 -57,-81 1,-21 -59,-197 -92,-242 -33,-45 -66,-54 -93,-120 -27,-66 -69,-90 -69,-153 0,-63 15,-93 -21,-120 -36,-28 -30,-67 -57,-91 -27,-24 -48,-15 -78,-57 -30,-42 -42,-48 -42,-72 0,-24 4,-38 -29,-42 -33,-4 -31,-33 -16,-46 15,-12 35,-18 -9,-47 -45,-29 -101,-138 -134,-158 -33,-19 -21,-12 -60,-57 -39,-45 -45,-49 -60,-84 -15,-34 -26,-84 -47,-103 -21,-20 -24,-24 -22,-62 1,-37 -9,-48 -5,-70 5,-23 -18,-32 -22,0 -5,31 -17,34 -11,75 6,40 20,40 41,84 21,43 36,81 27,123 -9,42 -41,72 3,117 43,45 84,93 120,120 36,27 59,51 102,84 44,33 56,89 71,146 15,57 19,48 58,82 39,35 90,27 102,56 12,29 38,39 44,59 6,19 21,45 19,73 -1,29 11,62 21,77 11,15 20,61 29,112 9,51 46,90 42,108 -5,18 -11,82 -5,95 6,14 12,57 36,101 25,43 67,90 70,126 3,36 24,49 54,91 30,42 52,48 49,98 -3,50 -13,69 -10,96 1,13 19,48 37,81 63,-36 124,-60 178,-55 9,1 20,3 30,6z"/>
   <path fill="#E31E24" d="M1597 2290c4,-51 11,-131 14,-164 5,-49 6,-121 -7,-160 -14,-39 -21,-78 -44,-117 -22,-39 -83,-177 -98,-233 -15,-56 -14,-123 -32,-165 -18,-42 -24,-35 -25,-81 -2,-47 10,-77 -15,-102 -26,-26 -59,-54 -77,-125 -18,-71 -37,-95 -27,-132 11,-38 9,-120 -7,-129 -17,-9 -27,-12 -30,-44 -3,-31 -3,-64 -20,-36 -17,29 -20,75 -50,54 -30,-21 -25,-22 -21,-57 5,-34 56,-125 42,-164 -13,-39 -24,-72 -13,-90 10,-18 36,-30 18,-51 -18,-21 -89,-132 -104,-169 -8,-22 -11,-49 -12,-68 -151,21 -249,1 -334,-37 0,18 3,39 7,58 11,45 39,59 51,113 12,54 9,58 41,90 31,31 64,40 82,73 18,33 110,191 120,230 11,39 8,95 30,131 23,36 32,72 38,102 6,30 30,87 72,135 42,48 75,77 101,131 25,54 67,70 76,102 9,31 26,88 30,121 5,33 23,158 48,196 26,37 78,136 89,171 10,34 46,15 31,130 -10,83 -38,207 -52,289 27,-6 52,-8 78,-2z"/>
   <path fill="#E31E24" d="M229 51c5,21 9,45 5,59 -11,30 -59,28 -7,93 53,65 104,102 107,128 3,25 44,67 47,94 3,27 6,59 6,84 0,26 -29,75 4,83 33,7 72,-32 63,-53 -9,-21 11,-12 24,18 14,30 29,42 29,71 0,28 -12,71 18,86 30,15 45,103 66,133 21,30 33,15 54,24 21,9 31,-49 37,-72 6,-22 0,-30 -19,-63 -20,-33 -38,-66 -18,-123 19,-57 49,-77 16,-122 -33,-45 -61,-61 -75,-91 -13,-30 -10,-39 -39,-75 -28,-36 -7,-56 -18,-93 -10,-38 5,-102 6,-119 1,-4 2,-9 4,-16 -26,-14 -53,-28 -83,-40 -75,-33 -147,-8 -227,-6z"/>
   <path fill="#E31E24" d="M1778 238c4,23 8,48 11,57 6,18 -10,54 -6,100 5,47 32,59 35,87 3,29 12,45 42,83 30,37 76,57 108,82 31,26 78,14 111,34 33,19 58,19 69,46 11,27 48,69 56,84 7,15 22,35 34,54 12,20 50,32 54,54 5,23 26,44 41,50 15,6 70,73 66,124 -5,51 16,65 24,101 7,36 9,69 -5,92 -13,22 -43,15 -27,64 17,50 59,147 83,198 24,51 39,92 37,146 -1,54 47,84 57,119 11,34 -18,45 33,76 52,32 79,44 83,77 5,33 33,171 18,195 -15,24 -25,96 -6,72 20,-24 42,-37 45,-64 3,-27 23,-83 6,-130 -16,-46 -12,-82 -12,-109 0,-27 9,-47 17,-77 7,-30 9,-63 13,-78 5,-15 51,-30 44,-3 -8,27 -2,56 19,75 21,20 29,35 18,84 -10,50 -10,98 -24,105 -13,8 -7,50 -1,72 6,23 12,29 7,67 -4,37 -31,52 -46,67 -15,15 -27,41 -39,62 -12,21 -14,48 -12,63 1,15 16,-9 34,-36 18,-27 30,-83 57,-92 27,-9 27,-24 39,-39 12,-15 17,-45 17,-73 0,-29 54,-44 64,-22 11,23 17,40 8,68 -9,29 -29,77 -29,77 0,0 41,-17 53,-63 12,-47 4,-83 -9,-104 -14,-21 -9,-44 0,-66 9,-23 -14,-60 -26,-80 -12,-19 -36,-55 -52,-79 -17,-24 -26,-57 -21,-75 4,-18 -7,-52 -37,-89 -30,-37 -21,-76 -17,-101 3,-26 -15,-60 -18,-70 -4,-10 -17,-15 -51,-53 -35,-37 -15,-54 -39,-91 -24,-38 -30,-33 -30,-71 0,-37 -3,-55 -15,-82 -12,-27 -23,-60 -40,-62 -16,-1 0,12 5,42 4,30 -14,51 -6,78 7,27 15,33 30,57 15,24 9,21 24,69 15,48 56,72 0,72 -56,0 -143,5 -150,-36 -8,-40 -14,-78 -17,-111 -3,-33 -1,-45 14,-54 15,-9 58,-6 15,-46 -44,-41 -33,-63 -23,-68 11,-4 36,2 12,-56 -24,-57 -57,-114 -52,-133 4,-20 -11,-42 -56,-77 -45,-34 -72,-19 -81,-52 -9,-33 -7,-41 -27,-42 -19,-2 6,-9 2,-39 -5,-30 -21,-48 -35,-12 -13,36 -28,102 -40,52 -12,-49 -15,-54 -11,-82 5,-29 -7,-27 -34,-32 -27,-4 -14,-13 -64,-38 -49,-24 -73,-40 -105,-55 -31,-15 -49,-60 -66,-113 -16,-52 -1,-82 -24,-105 -22,-22 -27,-21 -21,-61 3,-20 7,-40 10,-57 -42,-13 -77,-26 -133,-27 -3,0 -5,0 -8,0z"/>
   <path fill="#E31E24" d="M2084 295c21,20 41,41 50,58 21,39 56,60 82,95 25,34 43,75 57,138 13,63 52,119 91,122 39,3 87,24 111,61 24,38 57,53 68,96 10,44 34,81 46,95 12,13 70,114 101,148 32,35 57,131 80,160 22,28 51,25 81,85 30,60 36,57 63,105 27,48 40,72 63,84 22,12 30,47 31,112 2,64 -13,79 11,141 24,61 43,97 66,129 22,31 38,70 56,132 18,61 25,48 -5,98 -30,49 -45,93 -51,129 -4,23 -10,66 -12,96 43,-14 85,-26 127,-38 -3,-9 -5,-20 -4,-33 3,-57 15,-91 39,-93 24,-1 27,-36 24,-61 -3,-26 23,-40 23,-80 0,-41 -17,-138 -26,-173 -9,-34 0,-60 -42,-99 -42,-39 -81,-76 -82,-99 -2,-22 -8,-60 -32,-89 -24,-28 -20,-52 -71,-133 -51,-81 -36,-87 -90,-135 -54,-48 -48,-96 -90,-174 -42,-79 -54,-43 -114,-148 -60,-105 -63,-108 -45,-192 18,-84 21,-147 3,-147 -18,0 -36,-27 -42,30 -6,57 -3,72 -42,57 -39,-15 -39,-39 -33,-96 6,-57 45,-42 21,-99 -24,-57 -57,-117 -81,-165 -24,-48 -75,-107 -75,-147 0,-12 -3,-26 -7,-41 -108,3 -176,46 -309,67 -15,2 -28,4 -41,4z"/>
   <path fill="#E31E24" d="M2963 684c-2,41 -4,92 -6,130 -3,75 3,117 6,174 3,57 -6,84 12,129 18,46 18,76 30,112 12,36 39,96 72,123 33,27 52,51 88,99 36,48 60,90 78,114 18,24 69,84 93,132 24,48 72,95 100,158 29,63 53,85 78,129 26,43 95,126 99,141 5,15 40,74 47,84 8,11 -81,-54 -111,-102 -30,-48 -17,-45 -50,-99 -33,-54 -34,-71 -75,-131 -40,-60 -7,-30 -54,-87 -46,-57 -52,-60 -76,-96 -24,-36 -27,-36 -45,-72 -18,-36 -21,-56 -38,-74 -16,-18 -40,-64 -73,-97 -34,-33 -59,-45 -82,-59 -22,-13 -49,-79 -79,-184 -30,-106 -15,-119 -36,-161 -21,-42 -36,-47 -53,-107 -16,-60 -16,-69 -21,-106 -4,-38 -27,-149 -31,-194 -5,-45 -15,-57 -15,-72 0,-15 -13,-33 4,-37 20,80 71,123 138,153z"/>
   <g>
    <polygon fill="#FEFEFE" points="1756,1077 1772,1236 1657,1270 1793,1327 1813,1491 1882,1365 2019,1420 1906,1282 1960,1158 1852,1192 "/>
    <path fill="#FEFEFE" d="M1062 636c221,-90 493,39 660,295 -140,-156 -338,-228 -502,-166 -218,83 -294,373 -169,646 124,274 402,428 620,345 75,-29 134,-83 173,-152 -40,136 -125,243 -246,293 -259,106 -589,-91 -737,-439 -148,-348 -58,-716 201,-822z"/>
   </g>
  </g>
 </g>
</svg>
