

<!-- Creator: CorelDRAW X8 -->
<svg xmlns="http://www.w3.org/2000/svg" xml:space="preserve" x="0" y="0" width="46.067mm" height="25mm" version="1.1" shape-rendering="geometricPrecision" text-rendering="geometricPrecision" image-rendering="optimizeQuality" fill-rule="evenodd" clip-rule="evenodd"
viewBox="0 0 4607 2000"
 xmlns:xlink="http://www.w3.org/1999/xlink">
 <g id="Layer_x0020_1">
  <metadata id="CorelCorpID_0Corel-Layer"/>
  <g id="_2505873340032">
   <path fill="#E31E24" fill-rule="nonzero" d="M143 435c10,-22 49,-21 68,-19 -2,35 -90,68 -122,71 -18,2 -61,113 -53,119 10,9 107,-112 117,-120 43,-36 103,-25 146,-55 32,-22 53,-54 76,-83 -7,-54 62,-47 86,-25 35,34 53,-30 89,-30 32,0 49,25 77,34 26,9 60,-11 78,-2 27,13 38,-48 42,-65 1,-1 -122,-65 -139,-78 -19,-14 -59,-37 -67,-60 -4,-13 -19,-80 -32,-79 -29,1 -63,10 -89,-2 -46,-22 -26,-55 -89,-34 -25,8 -54,31 -80,22 -36,-11 -61,45 -97,58 12,19 27,87 20,107 -6,11 -15,13 -26,3 -22,-11 -19,15 -31,23 -28,17 -49,18 -31,66 19,51 -76,62 -65,112 9,47 88,41 122,37z"/>
   <path fill="#E31E24" fill-rule="nonzero" d="M4578 1425c-38,-13 -32,-75 -31,-108 -22,-26 -25,-8 -51,-10 -10,0 -21,-45 -41,-25 -13,12 -16,-25 -16,-28 -3,-33 9,-38 27,-65 31,-47 53,-94 -15,-106 -1,0 -21,-82 -19,-86 9,-36 -5,-110 -30,-147 -33,-46 -63,-59 9,-86 18,-7 32,-26 41,-43 7,-12 13,-52 27,-48 8,2 33,12 40,2 11,-15 -59,-42 -67,-55 -28,-41 -42,-53 -90,-47 -51,7 -91,21 -108,-36 -5,-18 4,-9 8,-24 3,-13 -19,-42 -22,-60 -6,-37 25,-69 12,-110 -10,-30 -27,-72 -56,-87 -28,-15 -15,0 -26,-26 -12,-26 -24,-12 -38,-25 -21,-20 -54,-45 -65,-72 3,7 -42,-28 -46,-30 -33,-17 -51,33 -83,34 -42,3 -72,-23 -114,4 -22,3 -53,4 -75,6 -41,4 -27,-31 -50,16 -19,41 -48,43 -72,72 -15,16 -132,67 -128,85 -8,-9 -13,-15 -27,-12 -17,5 -32,18 -44,30 -45,45 -6,10 -39,13 -23,3 -141,-7 -137,-44 -16,-2 -53,18 -56,17 -12,-8 -73,-2 -88,7 -45,26 -109,67 -161,27 -3,5 -5,10 -7,16 -29,-33 -111,-1 -85,-71 -24,15 -54,14 -66,43 -15,-11 -41,-30 -61,-37 -11,-5 -25,3 -37,-2 -27,-12 -19,-38 -46,-39 -31,-1 -77,-34 -98,-6 -30,39 -44,7 -76,-22 -27,-23 -18,-59 -41,-92 -21,-30 -75,9 -100,9 -20,1 -59,-39 -62,-21 -29,-21 -90,-70 -38,-101 -29,-6 -54,-44 -75,-9 -35,60 -71,14 -119,27 -47,13 -59,-4 -99,-2 -25,1 -88,16 -106,-2 -49,-48 -99,31 -147,31 -30,0 -96,12 -120,33 -14,13 -52,23 -70,37 -17,12 -33,31 -54,31 -20,0 -18,21 -35,23 -20,2 -32,44 -60,44 -19,0 -35,40 -38,58 -4,17 -68,20 -80,21 -25,2 -77,5 -89,-26 -15,-7 -26,4 -37,-9 -42,-48 -84,30 -135,5 -14,-6 -185,-51 -191,-42 -11,15 -32,71 -12,81 18,9 75,57 87,53 32,-13 37,1 62,18 1,1 45,20 44,19 5,14 -62,11 -69,11 -10,1 -23,-13 -31,-17 -24,-12 -35,2 -58,12 -35,14 -68,18 -103,32 -35,15 8,37 30,32 41,-8 25,24 -9,27 -24,2 -60,7 -83,-2 -12,-6 -169,-9 -166,-19 5,-13 63,-30 -4,-33 -14,0 -85,18 -42,34 41,15 40,33 -9,28 -32,-4 -95,-7 -90,-49 -29,8 -63,-12 -77,24 -7,-5 -54,-20 -55,-18 -18,17 -59,70 -85,70 13,0 -66,71 -70,74 -1,0 -21,18 -6,18 -18,15 -31,122 -29,144 17,-3 113,-24 115,-15 23,0 34,-19 59,2 9,0 18,-17 29,-16 34,3 -70,81 -80,89 13,-10 57,60 68,57 -21,5 -30,43 -17,59 4,7 77,1 47,32 -47,-25 -12,23 -36,26 -57,6 1,29 -30,50 10,-4 19,10 27,-8 -37,71 52,37 58,54 2,4 -92,43 -98,10 -6,5 -11,10 -17,15 -13,-12 -19,-32 -5,-47 -4,-14 -22,-10 -22,-29 0,-21 -55,-35 -50,-11 -16,27 27,58 27,50 0,8 6,28 -3,34 -4,3 -42,0 -42,-8 -57,55 58,40 58,75 0,47 34,-13 38,-14 30,-6 42,29 42,48 18,-6 47,1 58,16 16,27 10,13 35,23 22,8 -2,49 -5,65 -3,22 -89,8 -15,47 4,9 14,85 6,88 10,3 42,-13 44,-13 -3,9 1,21 -2,30 29,-6 20,34 48,15 -4,14 -19,58 -45,49 -35,-14 -47,8 -34,48 26,-62 40,11 54,11 18,0 12,-18 37,-17 3,0 41,0 35,4 14,-8 137,-5 137,-10 -7,69 -105,-16 -64,65 -23,9 -192,-6 -170,38 -1,0 66,6 68,-11 4,-26 76,5 104,0 -13,6 -33,15 -27,21 8,1 16,1 23,2 -6,18 -27,20 -47,19 10,29 21,15 44,4 10,-5 12,-12 20,-20 15,-13 45,-10 55,-21 -3,4 -44,-52 -17,-46 9,16 24,24 35,3 5,9 13,18 23,19 37,4 3,8 30,27 26,18 43,10 59,44 -26,-75 71,-32 70,11 0,16 -18,40 -13,58 5,15 59,44 52,61 26,-22 56,35 75,0 1,-1 15,-35 24,-9 10,31 -29,13 -29,34 0,16 112,-43 115,-41 26,14 7,0 36,-3 33,-4 19,19 39,37 5,-6 -8,-65 1,-60 -22,-23 -22,-54 -15,-69 25,-56 30,-153 101,-103 33,23 85,80 135,103 30,14 96,77 113,101 26,37 26,9 44,31 12,14 60,-44 69,-49 27,-16 72,-17 122,-31 99,-29 53,146 130,152 28,3 81,-35 102,-60 -3,59 51,-22 73,-34 10,59 52,-4 70,-40 76,49 122,27 147,20 26,-8 77,-66 77,-66 0,0 61,22 80,47 15,21 90,11 152,-6 -10,17 -43,5 -52,30 -13,32 24,39 35,60 20,39 -23,65 35,79 25,6 64,-88 72,-110 15,-37 89,-15 78,-57 -3,-13 -9,-23 -14,-33 12,0 20,-1 20,-1l90 -36 19 -37c16,5 32,8 49,12 43,11 69,-29 109,-34 19,-2 35,-18 53,-25 91,-38 154,33 238,53 111,27 246,-42 336,-101 51,-34 99,-86 169,-49 66,35 144,-20 205,-35 35,-8 46,-38 78,-45 40,-10 20,28 44,46 35,26 80,-64 91,-84 39,-18 62,34 107,-5 59,2 110,43 174,31 10,-2 139,-58 102,20 -20,44 4,47 40,22 17,-11 36,-37 57,-35 4,0 23,4 29,1 31,-22 10,-54 -13,-73z"/>
  </g>
  <g id="_2505873338816">
   <path fill="#FEFEFE" d="M2130 414c208,0 392,109 495,272 -86,-95 -210,-155 -349,-155 -259,0 -469,210 -469,469 0,259 210,469 469,469 139,0 263,-60 348,-155 -103,164 -287,272 -495,272 -325,0 -587,-262 -587,-586 0,-324 262,-586 587,-586l1 0z"/>
   <polygon fill="#FEFEFE" points="2735,730 2860,905 3065,838 2937,1012 3063,1185 2859,1118 2732,1292 2733,1077 2530,1010 2735,945 "/>
  </g>
 </g>
</svg>
