

<!-- Creator: CorelDRAW X6 -->
<svg xmlns="http://www.w3.org/2000/svg" x="0" y="0" xml:space="preserve" width="51mm" height="30mm" version="1.1" style="shape-rendering:geometricPrecision; text-rendering:geometricPrecision; image-rendering:optimizeQuality; fill-rule:evenodd; clip-rule:evenodd"
viewBox="0 0 5100 3000"
 xmlns:xlink="http://www.w3.org/1999/xlink">
 <defs>
  <style type="text/css">
   <![CDATA[
    .fil0 {fill="#0092D4"}
    .fil2 {fill="#E42129"}
    .fil1 {fill="#FEFEFE"}
    .fil3 {fill:#E31E24;fill-rule:nonzero}
   ]]>
  </style>
 </defs>
 <g id="Layer_x0020_1">
  <metadata id="CorelCorpID_0Corel-Layer"/>
  <g id="_1_x0020__x0028_14_x0029_.eps">
   <path fill="#0092D4" d="M1784 21c220,-19 441,-25 661,-19 45,182 38,362 47,543 -4,60 58,62 56,1 14,-181 10,-370 65,-545 197,-8 418,1 666,23 -212,116 -348,298 -453,531 -23,58 31,76 58,14 134,-221 254,-455 554,-526 209,-28 568,21 889,74 184,27 233,127 205,270 -268,1469 -3941,1349 -3990,-28 -5,-171 100,-239 256,-261 250,-34 397,-56 750,-65 316,22 491,241 615,531 26,66 85,39 65,-5 -121,-267 -271,-439 -442,-540z"/>
   <path fill="#E42129" d="M4270 222c-706,-82 -1271,71 -1331,996 -11,86 45,121 109,104 664,-160 1245,-427 1223,-1101z"/>
   <path fill="#E42129" d="M779 216c706,-82 1271,71 1331,996 11,86 -45,121 -109,104 -664,-160 -1245,-427 -1222,-1101z"/>
   <path fill="#0092D4" d="M53 1773c0,109 0,219 0,328 -3,57 29,71 71,67 149,-1 298,-1 447,-2 355,-9 338,-446 4,-449 -148,0 -297,0 -445,0 -43,-4 -72,17 -77,55z"/>
   <path fill="#E42129" d="M202 1811c0,91 0,182 0,273 119,0 237,0 356,0 154,-17 156,-257 0,-271 -119,-1 -237,-1 -356,-2z"/>
   <path fill="#0092D4" d="M750 2167c137,-137 268,-280 406,-417 54,-53 79,-53 142,6 130,121 260,241 390,362 29,31 14,54 -30,53l-631 0 93 -93c100,0 199,0 299,0 23,0 30,-6 14,-22 -55,-55 -113,-109 -168,-164 -34,-37 -30,-32 -59,-4l-279 283 -176 -4z"/>
   <path fill="#0092D4" d="M1703 1819c0,82 0,164 0,245 8,58 41,100 129,105 189,0 379,0 568,0 63,-1 62,-106 0,-107 -162,0 -323,0 -485,0 -19,1 -42,3 -45,-24l0 -31c2,-22 25,-24 40,-25l491 2c44,0 41,-89 0,-88 -166,1 -331,3 -497,4 -23,0 -36,-8 -38,-24 0,-16 0,-22 0,-37 1,-20 11,-30 28,-30l508 4c52,3 50,-98 0,-95 -190,0 -380,0 -570,0 -83,-1 -127,33 -131,101z"/>
   <path fill="#0092D4" d="M2463 1714c54,129 108,259 162,388 32,102 177,95 208,0 27,-82 54,-164 81,-245 5,-12 9,-12 14,0 29,83 58,166 87,249 30,91 162,92 196,0 51,-130 103,-260 154,-390 -50,-1 -100,-1 -150,-2 -34,88 -69,175 -103,263 -6,17 -19,17 -26,4 -30,-77 -59,-154 -89,-231 -22,-64 -126,-67 -148,2 -30,78 -61,156 -91,233 -6,12 -18,15 -26,0 -36,-90 -71,-179 -107,-269 -54,-1 -108,-1 -162,-2z"/>
   <path fill="#0092D4" d="M3584 1714c-317,23 -333,437 0,457 117,0 234,-1 351,-1 322,0 338,-447 2,-455 -118,0 -236,-1 -353,-1z"/>
   <path fill="#E42129" d="M3619 2060c-151,-19 -139,-230 0,-235 97,-1 193,-2 290,-2 153,23 149,212 0,234 -97,1 -193,2 -290,4z"/>
   <path fill="#0092D4" d="M4455 1714c-317,23 -333,437 0,457 117,0 234,-1 351,-1 322,0 338,-447 2,-455 -118,0 -236,-1 -353,-1z"/>
   <path fill="#E42129" d="M4489 2061c-151,-19 -139,-230 0,-235 97,-1 193,-2 290,-2 153,23 149,212 0,234 -97,1 -193,2 -290,3z"/>
   <g>
    <polygon fill="#E42129" points="46,2424 5054,2424 5054,3000 46,3000 "/>
    <path id="1" class="fil3" d="M5054 2427l-5009 0 0 -7 5009 0 3 3 -3 3zm0 -7l3 0 0 3 -3 -3zm-3 580l0 -576 7 0 0 576 -3 3 -3 -3zm7 0l0 3 -3 0 3 -3zm-5012 -3l5009 0 0 7 -5009 0 -3 -3 3 -3zm0 7l-3 0 0 -3 3 3zm3 -580l0 576 -7 0 0 -576 3 -3 3 3zm-7 0l0 -3 3 0 -3 3z"/>
   </g>
   <path fill="#E42129" d="M1572 2922l-120 0 0 -394 161 0 57 197c4,16 8,35 14,58 5,-25 9,-44 13,-57l58 -197 161 0 0 394 -120 0 1 -194c0,-5 0,-9 0,-13 0,-4 0,-12 0,-25 0,-13 0,-23 0,-31 -3,15 -9,39 -17,70l-51 193 -92 0 -51 -188c-2,-8 -4,-16 -6,-25 -2,-9 -3,-15 -4,-20 -1,-5 -3,-14 -6,-30 1,34 2,58 2,73l0 190zm405 -197c0,-32 5,-61 15,-86 10,-25 24,-47 43,-65 19,-18 41,-32 68,-41 26,-10 56,-14 89,-14 33,0 63,5 89,14 26,9 49,23 67,41 18,18 32,40 42,65 10,26 15,54 15,86 0,32 -5,61 -15,86 -10,25 -24,47 -42,66 -18,18 -41,32 -67,42 -27,10 -56,14 -89,14 -32,0 -62,-5 -89,-14 -27,-9 -49,-23 -68,-42 -19,-18 -33,-40 -43,-65 -10,-25 -15,-54 -15,-86zm133 0c0,37 6,64 19,82 13,18 33,26 61,26 18,0 33,-4 45,-12 12,-8 21,-20 26,-35 6,-16 8,-36 8,-61 0,-25 -3,-46 -8,-61 -6,-16 -14,-28 -26,-35 -12,-8 -27,-12 -45,-12 -28,0 -49,9 -61,26 -13,17 -19,45 -19,82zm441 196l0 -290 -118 0 0 -104 367 0 0 104 -116 0 0 290 -132 0zm276 -197c0,-32 5,-61 15,-86 10,-25 24,-47 43,-65 19,-18 41,-32 68,-41 26,-10 56,-14 89,-14 33,0 63,5 90,14 26,9 49,23 67,41 18,18 32,40 42,65 10,26 15,54 15,86 0,32 -5,61 -15,86 -10,25 -24,47 -42,66 -18,18 -41,32 -67,42 -27,10 -56,14 -89,14 -32,0 -62,-5 -89,-14 -27,-9 -49,-23 -68,-42 -19,-18 -33,-40 -43,-65 -10,-25 -15,-54 -15,-86zm133 0c0,37 6,64 19,82 13,18 33,26 61,26 18,0 33,-4 45,-12 12,-8 21,-20 26,-35 6,-16 8,-36 8,-61 0,-25 -3,-46 -8,-61 -5,-16 -14,-28 -26,-35 -12,-8 -27,-12 -45,-12 -28,0 -49,9 -61,26 -13,17 -19,45 -19,82zm355 196l0 -394 197 0c40,0 73,4 98,11 25,7 43,19 56,36 12,16 18,39 18,66 0,24 -5,44 -16,60 -11,16 -28,28 -50,38 15,3 28,8 37,15 10,7 17,16 22,28 5,12 7,27 8,45l2 55c0,10 1,16 2,20 1,4 4,6 10,6l0 15 -134 0c-5,-20 -7,-33 -7,-41l0 -39c0,-21 -4,-35 -13,-43 -8,-8 -23,-12 -43,-12l-56 0 0 136 -131 0zm131 -225l60 0c20,0 34,-3 43,-8 9,-5 13,-15 13,-29 0,-15 -5,-25 -13,-30 -9,-5 -24,-7 -46,-7l-57 0 0 73z"/>
  </g>
 </g>
</svg>
