

<!-- Creator: CorelDRAW X6 -->
<svg xmlns="http://www.w3.org/2000/svg" x="0" y="0" xml:space="preserve" width="21mm" height="25mm" version="1.1" shape-rendering="geometricPrecision" text-rendering="geometricPrecision" image-rendering="optimizeQuality" fill-rule="evenodd" clip-rule="evenodd"
viewBox="0 0 2100 2500"
 xmlns:xlink="http://www.w3.org/1999/xlink"
 enable-background="new 0 0 912.7 290.1">
 <g id="Layer_x0020_1">
  <metadata id="CorelCorpID_0Corel-Layer"/>
  <g id="_1009429984">
   <g>
    <path fill="#FACD4F" d="M1614 2136c-150,136 -279,210 -550,352 -252,-115 -417,-228 -560,-340 -198,-154 -339,-403 -351,-556l-98 -1457c667,-174 1377,-169 1992,12l-100 1443c-12,131 -130,384 -332,547l-1 -1z"/>
    <path id="_1" fill="#1c1b17" fill-rule="nonzero" d="M1062 2494l6 -12 -6 0 25 -13 24 -12 23 -12 22 -12 22 -12 22 -12 21 -12 20 -11 19 -11 19 -11 18 -11 17 -10 17 -10 17 -10 17 -10 16 -10 16 -10 16 -10 15 -10 15 -10 15 -10 14 -10 14 -10 14 -11 14 -11 14 -11 14 -11 14 -12 14 -12 14 -12 14 -12 14 -12 9 10 -14 12 -14 12 -14 12 -14 12 -14 12 -14 12 -14 11 -14 11 -14 11 -14 11 -14 10 -15 10 -15 10 -15 10 -16 10 -16 10 -17 10 -17 10 -17 10 -17 10 -18 10 -18 11 -19 11 -20 11 -20 11 -21 12 -21 12 -22 12 -22 12 -23 12 -24 12 -25 13 -6 0 -1 1zm6 0l-3 2 -3 -2 6 0 1 0zm-567 -340l8 -11 0 0 13 11 13 11 14 11 14 11 14 11 14 11 14 11 15 11 15 11 15 11 16 11 16 11 16 11 17 11 17 11 17 11 17 11 17 11 18 11 18 11 18 11 19 11 19 11 20 11 20 11 21 11 21 11 22 11 21 11 22 11 23 11 23 11 -6 12 -23 -11 -23 -11 -22 -11 -22 -11 -21 -11 -21 -11 -21 -11 -20 -11 -20 -11 -19 -11 -19 -11 -19 -11 -18 -11 -18 -11 -17 -11 -17 -11 -17 -11 -17 -11 -17 -11 -16 -11 -16 -11 -16 -11 -15 -11 -15 -11 -15 -11 -15 -11 -14 -11 -14 -11 -14 -11 -14 -11 -13 -11 -13 -11 0 0 0 -2zm8 -11l0 0 0 0 0 0zm-363 -551l13 -1 0 0 2 14 2 15 3 16 3 16 4 17 5 17 6 17 7 17 7 17 7 18 8 18 9 18 10 18 10 19 11 19 12 19 12 19 12 19 12 19 13 18 14 18 14 18 15 18 15 18 16 17 16 17 17 17 17 17 17 16 17 16 18 15 18 15 -8 11 -18 -15 -18 -16 -18 -16 -17 -17 -17 -17 -17 -17 -17 -17 -16 -17 -16 -18 -15 -18 -14 -18 -14 -19 -13 -19 -13 -19 -12 -19 -12 -19 -12 -19 -11 -19 -10 -19 -10 -19 -9 -19 -8 -18 -7 -18 -7 -18 -7 -18 -6 -17 -5 -17 -4 -17 -4 -17 -3 -16 -2 -16 -2 -15 0 0 0 1zm0 0l0 0 0 0 0 0zm-85 -1458l98 1457 -13 1 -98 -1457 5 -7 8 6 0 1zm-13 1l0 -6 6 -2 -5 7 -1 0zm2005 12l-13 -1 5 7 -58 -17 -58 -16 -59 -14 -60 -13 -60 -12 -60 -12 -60 -10 -61 -9 -61 -8 -62 -7 -62 -6 -62 -5 -63 -4 -63 -3 -63 -2 -63 -1 -64 0 -64 1 -64 2 -64 3 -64 4 -64 5 -64 7 -64 7 -64 8 -64 9 -64 11 -64 12 -63 12 -63 14 -63 15 -63 16 -3 -13 63 -16 63 -15 63 -14 64 -12 64 -12 64 -11 64 -10 64 -8 64 -7 64 -7 64 -5 64 -4 64 -3 64 -2 64 -1 64 0 64 1 63 2 63 3 63 4 63 5 62 6 62 7 61 8 61 9 61 10 60 12 60 12 60 13 59 14 59 16 58 17 5 7 2 2zm-5 -7l5 2 0 6 -5 -7 0 -1zm-108 1448l100 -1443 13 1 -100 1443 0 0 -13 -1zm13 1l0 0 0 0 0 0zm-334 551l-9 -10 0 0 18 -16 18 -16 17 -17 17 -17 17 -17 16 -17 16 -17 15 -18 15 -18 14 -18 13 -18 13 -19 12 -19 12 -19 12 -19 11 -19 10 -19 10 -18 9 -18 8 -18 8 -18 7 -17 7 -17 6 -17 6 -17 5 -16 4 -16 4 -15 3 -14 2 -14 2 -13 2 -12 13 2 -2 13 -2 13 -2 14 -3 15 -4 15 -5 16 -5 17 -6 17 -7 17 -7 17 -7 18 -8 18 -8 18 -9 18 -10 19 -10 19 -11 19 -12 19 -12 19 -12 19 -13 19 -13 19 -14 19 -15 18 -15 18 -16 18 -17 17 -17 17 -17 17 -18 17 -18 17 -19 16 0 0 1 -1zm-9 -10l0 0 0 0 0 0z"/>
   </g>
   <g>
    <path fill="#FACD4F" d="M1832 1542l90 -1288c-528,-169 -1162,-171 -1744,-17l92 1305c10,136 107,343 294,502 112,96 333,256 497,317 188,-95 359,-213 494,-330 168,-153 267,-343 277,-489l0 1z"/>
    <path id="_1_0" fill="#1c1b17" fill-rule="nonzero" d="M1928 254l-90 1288 -13 -1 90 -1288 9 -6 5 7 -1 0zm-5 -7l5 2 0 5 -5 -7zm-1740 -12l-13 1 5 -7 55 -14 55 -13 55 -12 55 -12 56 -10 56 -9 56 -8 56 -7 56 -7 56 -6 56 -5 56 -4 56 -2 56 -2 56 -1 56 0 55 1 55 2 55 2 55 4 55 5 55 6 55 7 54 7 54 8 53 10 53 11 52 12 51 12 51 13 50 14 50 16 -4 13 -50 -15 -50 -14 -51 -13 -51 -12 -52 -12 -52 -11 -53 -9 -53 -8 -54 -7 -54 -7 -55 -6 -55 -5 -55 -4 -55 -2 -55 -2 -55 -1 -55 0 -56 1 -56 2 -56 2 -56 4 -56 5 -56 6 -56 7 -56 7 -56 8 -55 9 -55 10 -55 11 -55 12 -55 13 -55 14 5 -7 2 0zm-13 1l0 -6 6 -2 -5 7 -1 0zm92 1305l-92 -1305 13 -1 92 1305 -13 1zm306 496l-9 11 0 0 -17 -15 -17 -16 -17 -16 -16 -16 -16 -16 -15 -17 -14 -17 -14 -17 -13 -17 -12 -17 -12 -17 -12 -17 -11 -17 -11 -17 -10 -17 -10 -17 -9 -17 -8 -17 -8 -17 -7 -17 -7 -17 -7 -16 -6 -16 -5 -16 -5 -16 -4 -15 -4 -15 -3 -15 -2 -14 -2 -14 -2 -13 -1 -13 13 -1 1 12 2 13 2 13 2 14 3 14 3 15 4 15 5 15 5 16 6 16 7 16 7 16 7 16 7 17 8 17 9 17 9 17 10 17 11 17 11 17 12 17 12 17 12 17 13 17 13 17 14 17 15 16 15 16 16 16 17 16 17 15 17 15 0 0 1 -3zm489 317l6 12 -6 0 -16 -6 -16 -7 -17 -7 -17 -7 -17 -8 -17 -8 -17 -9 -17 -9 -17 -10 -17 -10 -17 -10 -17 -11 -17 -11 -17 -11 -17 -11 -17 -12 -17 -12 -17 -12 -17 -12 -17 -12 -16 -12 -16 -12 -15 -12 -15 -11 -15 -11 -14 -11 -13 -11 -13 -11 -12 -10 -12 -10 -12 -10 -11 -9 9 -11 11 9 12 9 12 10 12 10 13 11 13 11 14 11 14 11 15 11 15 12 16 12 16 12 16 12 17 12 17 12 17 12 17 11 17 11 17 11 17 11 17 11 17 10 17 10 17 10 17 9 17 9 17 8 17 8 17 7 16 7 16 7 16 6 -6 0zm6 12l-2 2 -2 -1 6 0 -1 -1zm486 -341l9 10 0 0 -13 11 -13 11 -13 11 -13 11 -13 11 -14 11 -14 11 -14 11 -14 11 -15 11 -15 11 -15 11 -15 11 -15 11 -16 11 -16 11 -16 11 -16 11 -16 11 -17 10 -17 10 -17 10 -17 10 -17 10 -17 10 -17 10 -17 10 -17 9 -17 9 -17 9 -17 9 -17 9 -6 -12 17 -9 17 -9 17 -9 17 -9 17 -9 17 -10 17 -10 17 -10 17 -10 17 -10 17 -10 17 -10 16 -10 16 -10 16 -11 16 -11 16 -11 16 -11 15 -11 15 -11 15 -11 15 -11 15 -11 14 -11 14 -11 14 -11 14 -11 13 -11 13 -11 13 -11 13 -11 12 -11 0 0 -2 2zm9 10l0 0 0 0 0 0zm266 -494l13 1 0 0 -1 14 -2 14 -2 15 -2 15 -3 15 -4 15 -4 15 -5 16 -5 16 -6 16 -7 16 -7 16 -7 16 -7 16 -8 16 -8 16 -9 16 -10 16 -10 16 -11 16 -11 16 -12 16 -12 16 -12 16 -12 16 -13 16 -13 16 -14 15 -14 15 -15 15 -15 15 -16 15 -9 -10 16 -14 15 -15 15 -15 14 -15 14 -15 13 -15 13 -16 12 -16 12 -16 12 -16 12 -16 11 -16 11 -16 10 -16 9 -16 9 -16 8 -16 8 -16 7 -16 7 -16 7 -16 6 -16 6 -16 5 -15 5 -15 4 -15 3 -15 3 -15 2 -14 2 -14 2 -14 1 -13 0 0 -2 3z"/>
   </g>
   <g>
    <path fill="#FACD4F" d="M1533 1997c-130,112 -304,237 -472,317 -150,-46 -371,-217 -478,-309 -186,-160 -261,-329 -273,-488l-90 -1246c556,-145 1162,-145 1665,15l-89 1229c-13,164 -89,320 -261,481l-2 1z"/>
    <path id="_1_1" fill="#1c1b17" fill-rule="nonzero" d="M1059 2321l4 -13 -5 0 16 -7 16 -8 16 -8 16 -8 16 -8 16 -9 16 -9 16 -9 16 -9 16 -10 16 -10 16 -10 16 -10 16 -10 15 -10 15 -10 15 -11 15 -11 15 -11 15 -11 15 -11 14 -11 14 -11 14 -11 14 -11 14 -11 13 -11 13 -11 13 -11 12 -11 12 -11 12 -11 9 10 -12 11 -12 11 -13 11 -13 11 -13 11 -13 11 -14 11 -14 11 -14 11 -14 11 -14 11 -15 11 -15 11 -15 11 -15 11 -15 11 -15 11 -16 10 -16 10 -16 10 -16 10 -16 10 -16 10 -16 9 -16 9 -16 9 -16 9 -16 8 -16 8 -16 8 -16 8 -16 7 -5 0 -2 2zm5 0l-2 1 -2 -1 5 0zm-485 -310l9 -10 0 0 10 9 11 9 12 10 12 10 12 10 13 11 13 11 14 11 14 12 15 12 15 12 16 12 16 12 16 12 17 12 17 12 17 11 17 11 17 11 17 11 17 10 17 10 17 10 17 9 17 9 16 8 16 7 16 7 15 7 15 6 14 5 14 5 -4 13 -15 -5 -15 -6 -15 -6 -16 -7 -16 -7 -16 -8 -17 -8 -17 -9 -17 -9 -17 -10 -17 -10 -17 -10 -17 -11 -17 -11 -17 -11 -17 -12 -17 -12 -17 -12 -16 -12 -16 -12 -16 -12 -15 -12 -15 -12 -15 -12 -14 -11 -14 -11 -13 -11 -12 -11 -12 -10 -12 -10 -11 -9 -11 -9 0 0 1 0zm-275 -492l13 -1 0 0 2 15 2 15 2 15 2 15 2 15 3 15 3 15 4 15 4 15 5 15 6 15 6 15 7 15 7 15 7 15 7 15 8 15 9 15 9 15 10 15 11 15 11 15 12 15 12 15 12 15 13 15 14 15 15 15 15 15 16 15 17 15 17 15 -9 10 -17 -15 -17 -15 -16 -15 -16 -16 -15 -16 -14 -16 -13 -16 -13 -16 -12 -16 -12 -16 -12 -16 -11 -16 -10 -16 -10 -16 -9 -16 -8 -16 -8 -16 -7 -16 -7 -16 -7 -16 -6 -16 -6 -16 -5 -16 -5 -16 -4 -16 -4 -16 -3 -16 -2 -15 -2 -15 -2 -15 -2 -15 -2 -15 0 0 2 11zm-77 -1247l90 1246 -13 1 -90 -1246 5 -7 8 6 0 1zm-13 1l0 -6 6 -2 -5 7 -1 0zm1678 15l-13 -1 5 7 -47 -15 -48 -13 -49 -12 -49 -12 -50 -11 -50 -10 -50 -9 -50 -8 -51 -7 -51 -7 -52 -5 -52 -4 -52 -3 -53 -2 -53 -2 -53 -1 -53 0 -53 1 -54 2 -54 2 -54 3 -54 5 -54 6 -54 7 -54 7 -53 8 -53 9 -53 10 -53 11 -53 12 -52 12 -52 13 -3 -13 52 -13 53 -12 53 -12 53 -11 53 -10 54 -9 54 -8 54 -7 54 -7 54 -6 54 -5 54 -3 54 -2 54 -2 54 -1 54 0 53 1 53 2 53 2 53 3 52 4 52 5 52 7 51 7 51 8 50 9 50 10 50 11 50 12 49 12 48 14 48 15 5 7 -2 0zm-5 -7l5 2 0 5 -5 -7zm-98 1235l89 -1229 13 1 -89 1229 0 0 -13 -1zm13 1l0 0 0 1 0 -1zm-264 486l-9 -10 0 0 16 -15 15 -15 15 -15 14 -15 13 -15 13 -15 12 -15 12 -15 12 -15 11 -15 11 -15 10 -15 10 -15 9 -15 8 -15 8 -15 7 -15 7 -15 7 -15 7 -15 6 -15 6 -15 5 -15 4 -15 4 -15 3 -15 3 -15 3 -15 2 -15 2 -15 2 -15 2 -15 13 1 -2 16 -2 16 -2 16 -2 16 -3 16 -3 15 -4 15 -4 15 -5 15 -5 15 -6 15 -6 15 -7 15 -7 15 -7 15 -7 15 -8 15 -9 15 -9 15 -10 15 -10 15 -11 15 -12 15 -12 15 -12 15 -12 15 -13 15 -14 15 -14 15 -15 15 -16 15 -16 15 0 0 1 5zm0 0l0 0 0 0 0 0z"/>
   </g>
   <g>
    <polygon fill="#1c1b17" fill-rule="nonzero" points="272,511 253,297 267,295 285,510 "/>
   </g>
   <g>
    <polygon fill="#1c1b17" fill-rule="nonzero" points="1827,524 1823,537 1779,525 1735,513 1691,502 1646,491 1601,481 1555,472 1508,465 1462,457 1415,451 1368,444 1320,439 1272,435 1223,432 1175,428 1126,427 1077,426 1028,425 978,426 929,427 879,429 830,432 779,435 730,440 679,445 630,451 579,458 529,465 479,475 430,484 379,494 330,505 280,518 277,504 326,492 377,481 426,470 477,461 527,452 578,445 627,437 678,432 728,426 778,422 829,418 878,415 928,413 978,412 1028,412 1078,412 1126,413 1176,415 1225,417 1273,422 1322,426 1370,431 1417,437 1464,443 1511,451 1557,459 1603,468 1649,478 1694,489 1739,499 1783,512 "/>
   </g>
   <g>
    <polygon fill="#1c1b17" fill-rule="nonzero" points="262,303 258,289 308,277 358,265 408,255 458,245 509,235 560,227 611,220 662,213 713,208 764,203 816,198 867,195 917,193 969,191 1020,190 1071,191 1122,192 1172,193 1222,196 1273,199 1322,204 1372,209 1422,215 1470,222 1519,230 1567,238 1615,247 1662,257 1709,268 1756,280 1801,293 1847,306 1842,319 1797,306 1751,293 1706,281 1659,270 1612,260 1565,251 1517,243 1469,236 1420,228 1370,222 1322,217 1271,213 1222,210 1171,207 1121,205 1070,204 1020,204 969,205 918,207 867,208 816,212 765,216 715,221 664,227 613,233 562,241 511,249 461,258 411,268 361,279 311,290 "/>
   </g>
   <polygon fill="#2B2A29" points="1579,375 1459,355 1455,412 1415,406 1425,257 1465,263 1460,320 1581,340 1585,283 1626,290 1613,440 1574,432 "/>
   <path fill="#2B2A29" d="M1002 325c-15,0 -26,-4 -34,-17 -7,-11 -7,-45 0,-56 7,-13 21,-17 31,-17l169 0 1 36 -160 0c-8,0 -8,17 1,17l126 0c15,0 28,9 32,21 5,12 4,41 0,52 -3,12 -17,18 -34,18l-167 0 0 -37 149 0c12,0 12,-17 0,-17l-114 0 -1 0z"/>
   <path fill="#2B2A29" d="M903 340c0,-8 -7,-14 -15,-14l-112 8 2 55 -36 4 -7 -147 168 -12c21,-2 35,15 36,28 2,16 2,36 -11,45 11,7 13,19 13,36l1 38 -36 2 -1 -42 -1 -1z"/>
   <path fill="#FACD4F" d="M879 292c14,-1 13,-23 0,-21l-107 8 2 21 106 -7 0 -1z"/>
   <path fill="#2B2A29" d="M529 273c35,-8 105,-19 141,-22 17,-1 30,7 32,21 6,30 9,61 5,103 -1,12 -12,22 -25,25 -47,11 -100,16 -140,20 -10,1 -26,-7 -29,-19 -7,-31 -9,-73 -7,-102 1,-11 11,-22 22,-25l1 -1z"/>
   <path fill="#FACD4F" d="M663 362c5,-1 7,-7 7,-10 2,-12 0,-41 -2,-51 -1,-4 -4,-7 -12,-6 -21,2 -74,9 -101,15 -7,2 -10,6 -10,10 -2,10 2,36 4,51 1,3 5,6 9,6 36,-3 79,-9 105,-15l-1 0z"/>
   <path fill="#2B2A29" d="M1253 279c-8,0 -13,5 -14,9 -2,12 -2,28 -2,49 0,2 5,10 8,11 36,5 106,12 143,14l-2 39c-50,-2 -102,-10 -155,-14 -17,-2 -31,-11 -31,-28 -1,-28 1,-70 6,-95 3,-15 18,-23 35,-22 50,2 89,7 155,15l-2 38c-31,-2 -92,-12 -138,-14l0 -1z"/>
   <path fill="#2B2A29" d="M438 290c50,-12 58,78 16,88l-117 29 6 58 -37 10 -13 -150 146 -35 1 1z"/>
   <path fill="#FACD4F" d="M438 349c12,-2 11,-24 -2,-22l-106 26 2 22 106 -26z"/>
   <polygon fill="#2B2A29" points="1684,398 1681,422 1798,451 1794,485 1638,448 1652,297 1809,335 1806,370 1689,341 1686,367 1803,395 1799,426 "/>
   <g>
    <path fill="#1c1b17" fill-rule="nonzero" d="M745 933l0 126 -13 0 0 -126 0 0 13 0zm-13 0l0 0 0 0 0 0zm14 -53l0 53 -13 0 0 -53 0 0 13 0zm0 -26l0 26 -13 0 0 -26 7 -7 7 7zm-13 0l0 -7 7 0 -7 7zm306 7l-299 0 0 -13 299 0 7 7 -7 7zm7 -7l0 7 -7 0 7 -7zm0 -409l0 409 -13 0 0 -409 13 0z"/>
   </g>
   <g>
    <polygon fill="#1c1b17" fill-rule="nonzero" points="281,548 277,535 303,528 328,522 353,515 378,509 403,503 429,498 454,493 478,488 502,484 527,479 551,475 576,471 600,467 624,464 648,460 672,458 696,456 719,453 743,451 766,448 789,446 812,445 835,443 859,442 882,441 904,440 926,439 950,438 972,438 993,437 1016,437 1038,437 1038,451 1016,451 994,451 972,451 950,452 927,453 905,454 882,455 859,456 836,457 814,458 791,460 768,462 744,464 721,466 697,469 673,471 649,475 625,478 602,481 578,484 554,489 530,493 505,497 481,501 456,506 431,512 406,517 382,522 357,528 331,535 306,542 "/>
   </g>
   <g>
    <path fill="#1c1b17" fill-rule="nonzero" d="M328 1310l-56 -768 13 -1 56 768 -7 7 -7 -7zm7 7l-7 0 -1 -7 7 7 1 0zm403 0l-403 0 0 -13 403 0 7 7 -7 7zm7 -7l0 7 -7 0 7 -7zm0 -150l0 150 -13 0 0 -150 0 0 13 0zm0 -101l0 101 -13 0 0 -101 13 0z"/>
   </g>
   <path fill="#2B2A29" d="M738 920c0,-2 -33,-5 -50,-3 -44,5 -153,40 -199,71 -1,2 -1,18 -4,25 -2,7 -10,13 -17,16 -12,5 -26,-11 -31,-8 -7,2 -20,7 -34,-2 -7,-5 -10,-17 -7,-27 2,-7 8,-12 12,-17 4,-4 2,-20 17,-30 11,-7 25,-1 36,5 2,-1 4,-2 6,-3 2,-4 4,-17 6,-28 2,-12 3,-18 7,-29 8,-25 28,-61 49,-80 17,-15 42,-26 61,-25 -2,3 -26,24 -32,33 -17,21 -31,55 -38,84 -2,10 -2,13 -1,19 16,-7 36,-13 47,-17 5,-10 7,-21 11,-31 7,-15 10,-21 17,-31 18,-29 58,-57 87,-56 -10,8 -30,29 -37,41 -7,11 -12,21 -17,33 -4,11 -5,18 -7,26 15,-4 30,-7 40,-8 7,-3 8,-11 12,-17 11,-21 33,-44 46,-51 11,-6 27,-12 39,-8 -12,9 -26,24 -31,33 -6,10 -16,28 -16,37 10,1 23,0 30,-1l1 50 0 -53 0 53z"/>
   <path fill="#2B2A29" d="M606 583c16,-22 58,-55 89,-54 -17,15 -33,32 -44,50 -14,23 -26,52 -28,74 11,-4 36,-11 50,-14 12,-27 30,-58 50,-74 15,-12 36,-22 56,-20 -5,7 -12,12 -17,17 -10,9 -17,21 -23,33 -4,9 -12,36 -12,38 14,0 40,2 45,3 17,-22 54,-54 98,-47 -19,11 -55,41 -52,57 29,18 72,57 74,93 -20,-21 -52,-41 -68,-46 -39,-14 -85,-16 -124,-8 -81,15 -152,50 -221,91 -2,11 -7,27 -12,33 -5,6 -12,11 -21,12 -10,2 -21,-2 -30,-7 -6,-3 -21,1 -30,-4 -7,-3 -17,-12 -14,-27 2,-13 16,-21 17,-34 2,-18 16,-26 23,-27 7,-2 15,1 22,4 3,2 6,4 9,5 2,-1 7,-4 9,-5 1,-2 7,-41 12,-57 4,-17 10,-31 16,-46 17,-46 66,-93 107,-90 -2,3 -15,12 -33,33 -29,34 -36,70 -47,131 22,-11 41,-18 62,-25 5,-19 12,-38 19,-56 5,-12 12,-23 19,-33l-1 1z"/>
   <polygon fill="#E32A2D" points="1819,634 1075,635 1075,854 1803,853 "/>
   <path fill="#2B2A29" d="M1246 1613c-5,21 -7,56 -7,57 12,-5 25,-10 35,-13 1,-2 16,-34 22,-42 16,-24 36,-45 62,-59 16,-8 36,-16 53,-9 -22,11 -41,31 -51,41 -10,11 -22,26 -26,41 -1,2 -2,8 -2,8 11,-3 45,-8 59,-10 2,0 6,-10 9,-14 4,-6 7,-9 13,-17 17,-18 46,-38 74,-34 -16,10 -32,26 -45,50 -2,4 -4,9 -3,12 4,1 25,1 37,2 14,-9 30,-17 46,-21 18,-4 43,-1 52,8 -12,-1 -22,2 -32,6 -6,2 -17,7 -21,15 11,3 29,15 41,25 8,7 17,17 23,25 15,21 18,58 10,69 -2,-7 -5,-13 -8,-19 -7,-12 -19,-26 -29,-33 -47,-36 -116,-38 -171,-26 -48,10 -134,27 -190,68 2,7 -3,19 -9,23 -8,7 -21,-2 -27,1 -8,4 -19,2 -23,0 -7,-3 -12,-11 -13,-20 -1,-7 7,-16 7,-23 1,-3 -2,-18 11,-26 2,-2 10,-4 15,-3 5,1 9,4 15,5 8,-3 15,-7 20,-10 4,-16 7,-35 9,-51l45 -26 2 2z"/>
   <g>
    <polygon fill="#1c1b17" fill-rule="nonzero" points="1074,1678 1074,1664 1077,1664 1081,1664 1085,1664 1089,1663 1093,1663 1097,1663 1101,1662 1105,1662 1109,1661 1113,1660 1117,1659 1121,1658 1125,1658 1129,1657 1133,1656 1137,1655 1141,1653 1145,1653 1150,1652 1154,1650 1157,1649 1161,1648 1165,1646 1169,1645 1173,1644 1177,1642 1180,1641 1184,1639 1188,1638 1191,1636 1195,1634 1198,1633 1204,1645 1201,1647 1197,1648 1193,1650 1189,1652 1185,1653 1182,1655 1178,1656 1174,1658 1169,1659 1165,1661 1161,1662 1157,1663 1153,1664 1149,1666 1145,1667 1141,1668 1136,1669 1132,1670 1128,1671 1124,1672 1120,1672 1116,1673 1111,1674 1107,1675 1103,1676 1098,1676 1094,1677 1090,1677 1086,1677 1082,1677 1078,1678 "/>
   </g>
   <g>
    <polygon fill="#1c1b17" fill-rule="nonzero" points="1067,2270 1067,1672 1080,1672 1081,2270 "/>
   </g>
   <g>
    <path fill="#1c1b17" fill-rule="nonzero" d="M1515 1954l9 10 0 0 -8 7 -8 8 -9 8 -10 9 -10 9 -11 9 -12 9 -12 10 -12 10 -12 10 -13 10 -13 11 -14 11 -14 11 -15 11 -15 11 -15 11 -16 11 -16 11 -16 11 -16 11 -16 11 -17 11 -17 10 -17 10 -17 10 -17 10 -17 10 -17 9 -17 9 -17 9 -17 8 -6 -12 17 -8 17 -9 17 -9 17 -9 17 -9 17 -10 17 -10 17 -10 17 -10 17 -11 16 -11 16 -11 16 -11 16 -11 15 -11 15 -11 15 -11 14 -11 14 -11 14 -11 13 -10 13 -10 12 -10 12 -10 12 -10 12 -9 11 -9 10 -9 10 -8 9 -8 8 -8 8 -7 0 0 -2 0zm231 -440l13 1 -2 17 -2 17 -2 17 -2 17 -3 17 -3 16 -4 16 -4 16 -5 15 -5 15 -6 15 -6 15 -7 14 -7 14 -7 14 -7 14 -7 13 -8 13 -8 13 -9 13 -9 13 -9 12 -10 12 -10 12 -11 12 -11 12 -11 12 -12 12 -12 12 -12 12 -12 12 -12 12 -9 -10 12 -12 12 -12 12 -12 12 -12 11 -12 11 -12 11 -12 10 -12 10 -12 10 -12 9 -12 9 -12 8 -12 8 -13 8 -13 7 -13 7 -13 7 -13 7 -14 7 -14 6 -14 6 -14 5 -15 5 -15 4 -15 4 -16 3 -16 3 -16 2 -17 2 -17 2 -17 2 -17z"/>
   </g>
   <g>
    <path fill="#1c1b17" fill-rule="nonzero" d="M1772 1344l-12 170 -13 -1 12 -170 7 -7 7 7zm-7 -7l7 0 -1 7 -7 -7zm-395 0l395 0 0 13 -395 0 0 -13z"/>
   </g>
   <g>
    <polygon fill="#1c1b17" fill-rule="nonzero" points="1250,1618 1241,1607 1250,1601 1258,1594 1265,1586 1273,1579 1280,1572 1287,1564 1293,1557 1299,1549 1305,1541 1310,1534 1315,1525 1320,1517 1325,1509 1329,1501 1333,1492 1336,1484 1340,1476 1343,1467 1346,1458 1349,1449 1351,1441 1354,1432 1355,1424 1357,1415 1359,1405 1360,1396 1361,1388 1362,1379 1363,1370 1364,1361 1364,1352 1364,1343 1377,1343 1377,1353 1377,1362 1376,1371 1375,1380 1374,1389 1374,1399 1372,1408 1370,1417 1369,1426 1367,1435 1365,1444 1362,1453 1359,1462 1356,1472 1353,1481 1349,1490 1346,1498 1341,1507 1336,1515 1332,1524 1327,1533 1322,1541 1316,1549 1310,1558 1303,1566 1297,1573 1290,1582 1283,1589 1275,1596 1267,1604 1259,1611 "/>
   </g>
   <g>
    <polygon fill="#1c1b17" fill-rule="nonzero" points="1198,1633 1242,1607 1250,1619 1205,1644 "/>
   </g>
   <path fill="#2B2A29" d="M1253 1834c7,-10 14,-23 17,-30 13,-21 32,-36 45,-43 17,-8 46,-13 59,-7 -14,3 -25,10 -35,17 -10,7 -30,25 -35,32 -6,8 -9,16 -11,20 16,-3 35,-7 45,-7 7,-9 26,-31 40,-41 12,-8 36,-16 50,-9 -14,5 -40,25 -49,39 -2,3 -4,7 -4,9 7,1 22,2 31,3 1,0 22,-13 32,-16 12,-3 34,-8 46,6 -10,0 -18,1 -26,4 -10,5 -15,8 -19,14 20,11 41,22 53,41 4,7 11,23 7,34 -7,-8 -15,-16 -22,-20 -10,-6 -17,-11 -29,-16 -37,-14 -86,-17 -125,-12 -50,7 -112,31 -144,53 2,10 -2,21 -8,24 -12,6 -23,-4 -26,-3 -3,1 -12,4 -20,2 -7,-2 -12,-15 -8,-22 2,-6 11,-14 11,-14 -2,-12 7,-21 18,-21 7,-1 11,4 17,6 5,-2 8,-4 11,-5 3,-11 7,-21 10,-30 5,-15 12,-28 21,-41 13,-20 36,-39 63,-39 -8,7 -13,10 -18,17 -9,12 -16,22 -22,34 -6,11 -11,26 -12,41 10,-5 26,-12 36,-16l1 -2z"/>
   <path fill="#2B2A29" d="M1249 1947c7,-3 15,-5 22,-4 -17,12 -34,27 -38,47 0,2 0,7 2,7 5,-2 17,-4 21,-6 2,-4 7,-12 11,-16 12,-17 31,-33 55,-27 -17,7 -26,17 -33,31 -2,2 -2,7 -1,7 4,0 20,-1 22,-1 7,-7 29,-19 43,-14 -9,4 -17,11 -20,13 -2,2 -3,4 -4,7 13,7 24,14 35,23 6,5 14,14 19,29 -12,-11 -54,-30 -75,-31 -15,-1 -33,2 -42,4 -36,8 -71,24 -103,41 0,6 -1,13 -7,19 -5,4 -15,6 -18,0 -2,-3 -16,0 -18,-3 0,0 -3,-6 -4,-12 0,-7 4,-11 8,-15 1,-2 1,-13 10,-17 6,-2 11,-2 16,2 2,-1 3,-2 5,-3 1,-13 3,-26 8,-40 7,-19 30,-42 49,-41 -13,14 -24,34 -27,50 -1,5 -2,16 -2,20 3,-2 9,-5 15,-7 2,-5 8,-17 12,-23 8,-15 26,-33 41,-40l-1 1z"/>
   <path fill="#E32A2D" d="M355 1536c2,73 32,160 73,220l606 0 -2 -84c-78,0 -197,-51 -244,-136l-433 -1 0 1z"/>
   <g>
    <polygon fill="#1c1b17" fill-rule="nonzero" points="1328,1351 1342,1351 1341,1386 1336,1419 1327,1450 1317,1478 1304,1505 1289,1529 1271,1551 1251,1570 1231,1587 1207,1602 1184,1615 1159,1625 1133,1633 1107,1639 1080,1642 1053,1643 1026,1642 999,1638 974,1632 947,1625 922,1614 898,1601 876,1586 855,1568 835,1548 818,1527 802,1502 789,1476 779,1447 771,1416 766,1382 764,1347 778,1347 780,1381 784,1414 792,1443 802,1471 814,1496 829,1519 845,1540 864,1558 884,1575 906,1589 928,1601 952,1611 977,1619 1002,1625 1027,1628 1053,1629 1079,1629 1105,1625 1130,1620 1155,1612 1179,1602 1201,1591 1222,1577 1242,1560 1261,1542 1278,1521 1292,1498 1304,1473 1315,1446 1322,1416 1327,1385 "/>
   </g>
   <g>
    <path fill="#1c1b17" fill-rule="nonzero" d="M1342 888l0 463 -13 0 0 -463 7 -7 7 7zm-7 -7l7 0 0 7 -7 -7zm-564 0l564 0 0 13 -564 0 -7 -7 7 -7zm-7 7l0 -7 7 0 -7 7zm0 460l0 -460 13 0 0 460 -13 0z"/>
   </g>
   <path fill="#2B2A29" d="M953 1162c7,-7 12,-17 14,-25 1,-7 -17,-7 -25,-2 -4,2 -7,7 -10,11 -2,3 -10,6 -13,2 -4,-4 3,-10 3,-14 0,-7 -12,3 -18,1 -4,-2 -4,-8 -2,-12 2,-2 6,-1 7,-3 2,-2 2,-5 2,-8 1,-3 4,-5 7,-7 8,-7 23,-21 26,-21 7,1 17,4 22,1 2,-1 3,-2 2,-4l-17 -11c0,-3 2,-7 4,-9 7,-7 19,-2 29,-3 7,-1 13,-4 18,-8 2,5 -2,10 -2,15 7,6 12,11 19,17 18,18 26,44 26,67 1,11 1,22 1,39 3,-7 5,-18 6,-28 2,-28 -2,-54 -17,-75 -7,-9 -14,-17 -22,-25 1,-8 8,-22 15,-17 4,3 -2,8 2,12 5,3 12,2 16,2 7,-2 14,-4 21,-4 3,0 8,-2 9,2 1,2 -2,3 -4,4 -2,1 -7,0 -9,2 -2,2 -4,4 -3,7 1,3 4,5 7,4 12,-3 27,-6 39,-6 7,0 6,5 2,7 -2,2 -6,2 -8,2 -12,2 -21,2 -20,9 1,5 9,0 11,4 2,4 -3,6 -3,8 2,8 17,7 23,5 5,-2 13,-6 16,-2 2,3 0,7 -2,8 -7,2 -21,6 -24,10 -3,4 1,12 5,12 9,1 19,1 26,3 2,1 5,2 5,6 0,3 -3,4 -6,5 -5,2 -13,2 -17,3 -2,1 -4,2 -4,3 2,3 7,2 12,3 3,0 8,2 8,6 0,3 -3,4 -8,4 -8,-1 -16,0 -19,2 -1,1 -7,1 -7,4 1,3 7,2 9,5 2,3 -3,5 -3,9 0,2 1,2 2,3 6,2 12,2 17,1 6,-1 7,7 7,7 -7,4 -23,0 -27,2 -5,3 9,11 8,12 -1,2 -2,4 -3,4 -7,2 -17,-2 -22,1 -4,2 -2,10 -5,13 -3,4 -11,2 -14,5 -4,3 -5,11 0,15 4,3 7,6 12,8 21,11 44,22 65,20 11,-1 29,-2 38,2 12,3 26,13 32,17 6,3 14,4 21,2 5,-2 8,-7 7,-12 -3,-17 -31,-21 -31,-39 -1,-19 -2,-30 -8,-41 -2,-5 -2,-15 2,-17 4,-1 6,5 9,3 16,-7 17,-31 33,-36 10,-2 43,-3 40,-7 -7,-10 -4,-21 0,-26 2,-3 9,-7 12,-3 4,4 -6,10 -5,16 1,6 9,17 2,24 -4,4 -34,5 -42,18 -6,8 -6,15 1,14 5,-1 10,-7 14,-11 8,-7 16,-9 20,-4 2,2 -1,7 -6,8 -4,2 -13,11 -11,13 4,4 25,-14 30,-11 2,2 -10,16 -8,19 2,4 12,-2 14,1 4,5 -7,15 -13,19 -5,3 -3,15 -10,18 -7,4 -12,11 -11,12 1,2 2,3 6,1 8,-6 19,-12 23,-10 2,1 -1,13 -4,18 -3,6 12,2 11,7 -2,3 -2,9 -2,14 2,7 -17,8 -19,12 -2,5 2,7 4,7 11,2 10,12 5,17 -6,6 -16,8 -25,7 -7,-2 -24,-4 -35,-12 -3,-2 -7,-1 -8,2 -1,3 3,10 5,16 2,8 1,18 -2,26 -6,17 -21,30 -26,50 -1,5 1,12 2,17 5,11 12,21 19,30 1,3 2,7 2,9 -2,4 -15,13 -18,17 -12,11 -22,26 -24,41 -1,6 -13,12 -21,13 -6,2 -12,3 -17,7 -1,5 2,8 2,13 1,8 -9,12 -17,14 -3,2 -7,2 -12,2 -2,0 -2,-2 -2,-4 2,-11 4,-20 8,-28 2,-3 4,-6 7,-8l30 -25 23 -34c2,-3 3,-6 3,-8 0,-7 -2,-12 -7,-17 -6,-5 -14,-6 -21,-9 -8,-4 -21,-16 -22,-17 -5,-2 -7,6 -8,11 -1,7 2,14 1,21 0,3 -1,5 -2,7 -20,12 -44,16 -59,33 -2,3 -5,7 -8,9 -8,6 -22,-1 -28,8 -2,4 1,9 -1,13 -1,2 -6,6 -9,7 -5,2 -11,3 -16,4 -6,-3 -2,-12 0,-17 2,-7 5,-12 10,-17 7,-7 16,-14 22,-17 5,-2 12,-2 18,-5 6,-2 12,-5 17,-8 8,-6 17,-12 21,-22 6,-11 5,-24 -2,-33 -7,-8 -13,-16 -17,-25 -2,-5 -1,-12 3,-17 0,0 -2,-2 -4,-2 -30,2 -60,-2 -88,-13 -7,-3 -15,-12 -20,-13 -5,-1 -7,6 -12,7 -7,2 -17,1 -26,0 -11,-1 -32,-6 -48,-11 -2,1 -5,1 -7,2 -3,2 -4,7 -4,12 0,6 2,11 1,17 0,3 -2,6 -1,9 1,3 4,5 7,7 4,3 4,11 4,17 0,7 -2,15 3,19 3,2 8,-1 12,0 5,1 6,7 7,11 0,5 -4,16 -7,18 -2,2 -5,1 -7,-1 -6,-2 -12,-7 -15,-13 -2,-2 -2,-6 -3,-8 -2,-5 -7,-7 -11,-11 -5,-4 -6,-11 -7,-17 -1,-6 1,-11 1,-17 1,-11 1,-22 -2,-33 -2,-8 -7,-17 -4,-25 1,-4 4,-7 7,-9 20,-1 41,-4 60,-11l-12 -12c-3,0 -6,3 -9,3 -3,0 -8,-5 -9,-7 -7,-10 -11,-21 -13,-31 -2,-4 -6,-9 -11,-11 -3,-2 -7,-2 -11,-2 -11,5 -20,13 -21,25 0,3 2,6 1,8 -1,5 -4,8 -8,12 -3,3 -7,7 -8,12 -2,4 0,8 2,12 2,2 2,6 2,8 -2,7 -19,14 -24,14 -2,0 -3,-2 -4,-4 -2,-7 -2,-13 0,-19 4,-5 7,-11 10,-17 2,-8 2,-17 5,-25 11,-17 37,-53 42,-58 2,-2 8,-3 10,-2 12,7 18,17 29,21 6,3 13,7 18,3 5,-4 6,-32 9,-39 6,-12 23,-28 35,-41l1 0z"/>
   <polygon fill="#2B2A29" points="1160,990 1155,1007 1139,1007 1161,925 1179,925 1201,1006 1184,1006 1179,990 "/>
   <path fill="#2B2A29" d="M1117 948c0,-6 -2,-12 -6,-14 -5,-2 -9,0 -12,3 -3,6 -3,14 -3,26 0,7 0,17 2,22 3,11 13,12 17,5 2,-3 2,-10 2,-16l-10 0 0 -12 25 0 0 44 -12 0 0 -6c0,1 -6,4 -8,6 -4,2 -12,2 -18,-1 -6,-2 -11,-10 -13,-19 -2,-10 -2,-22 -2,-33 0,-12 7,-24 15,-29 6,-3 17,-3 23,-1 8,3 15,15 13,25l-15 0 1 0z"/>
   <path fill="#2B2A29" d="M838 926c7,4 10,12 9,21l-13 0c0,-8 -3,-12 -11,-12 -4,0 -10,5 -10,8 0,11 10,13 17,16 5,2 11,5 14,9 6,8 6,17 2,27 -2,5 -10,12 -17,13 -7,2 -17,1 -24,-5 -6,-5 -9,-13 -7,-21l15 0c0,4 1,7 2,9 2,2 3,4 7,5 7,0 12,-5 12,-12 -1,-12 -22,-13 -30,-22 -9,-10 -6,-26 1,-32 10,-9 23,-9 33,-2l0 -2z"/>
   <path fill="#2B2A29" d="M1258 980c0,3 1,14 1,21 0,2 2,5 2,5l-16 0c-2,0 -2,-4 -2,-7 -1,-8 0,-28 -7,-28l-10 0 0 35 -16 0 0 -81 28 0c14,0 21,8 21,19 0,7 0,16 -8,19 4,4 7,11 7,17l-1 0z"/>
   <path fill="#FACD4F" d="M1236 937l-12 0 0 22 8 0c14,0 14,-22 3,-22z"/>
   <polygon fill="#2B2A29" points="885,1007 869,1007 869,938 851,938 851,924 903,924 903,938 885,938 "/>
   <polygon fill="#2B2A29" points="986,1007 986,938 968,938 968,924 1020,924 1020,938 1002,938 1002,1007 "/>
   <polygon fill="#2B2A29" points="1026,924 1079,924 1079,938 1060,938 1060,1007 1045,1007 1045,938 1026,938 "/>
   <polygon fill="#2B2A29" points="1298,938 1298,1007 1282,1007 1282,938 1264,938 1264,924 1316,924 1316,938 "/>
   <path fill="#2B2A29" d="M944 983l0 -59 15 0 0 57c0,34 -50,34 -50,1l0 -58 15 0 0 59c0,12 19,12 19,0l1 0z"/>
   <g>
    <path fill="#1c1b17" fill-rule="nonzero" d="M994 1024l7 12 0 0 -1 1 -1 1 -1 1 -1 1 -1 1 -1 1 -1 1 -1 1 -1 1 -1 1 -1 1 -1 1 -1 1 -1 1 -1 1 -1 1 -1 1 -1 1 -1 1 -1 1 -1 0 -1 1 -1 1 -1 1 -1 1 -1 0 -1 0 -1 0 -1 0 -1 0 -1 0 -1 0 -9 -10 1 0 1 0 1 -1 1 -1 1 -1 1 -1 1 -1 1 -1 1 -1 1 -1 1 -1 1 -1 1 -1 1 -1 1 -1 1 -1 1 -1 1 -1 1 -1 1 -1 1 -1 1 -1 1 -1 1 -1 1 -1 1 -1 1 -1 1 -1 1 -1 1 -1 1 -1 1 -1 0 0 2 3zm7 12l0 0 0 0 0 0zm2 5l-13 -2 0 0 0 -1 0 -1 0 -1 0 -1 0 -1 0 -1 0 -1 0 -1 0 -1 0 -1 0 -1 0 -1 0 -1 0 -1 0 0 0 -1 0 0 0 0 0 0 0 0 0 0 0 1 0 2 1 2 2 2 2 1 2 0 1 0 0 0 0 0 0 0 0 0 -7 -12 1 -1 1 -1 1 -1 1 0 2 0 2 0 3 1 2 2 1 2 0 2 0 1 0 1 0 1 0 1 0 1 0 1 0 1 0 1 0 1 0 1 0 1 0 1 0 1 0 1 0 1 0 1 0 0 0 0 0 0 0 0 0 0 0 0 0 0 -1 -1zm0 0l0 0 0 0 0 0zm-27 17l3 -13 0 0 1 0 1 0 1 0 1 0 1 0 1 0 1 0 1 0 1 0 1 0 1 0 1 0 0 0 0 0 0 0 0 0 0 0 0 0 0 0 0 0 0 0 0 0 0 0 0 0 0 0 0 0 0 0 0 -1 0 -1 0 -1 0 -1 0 -1 13 2 0 2 0 2 0 2 0 2 -1 1 -1 1 -1 1 -1 1 -1 1 -1 1 -1 1 -1 1 -1 1 -1 1 -1 1 -1 1 -1 0 -1 0 -1 0 -1 0 -1 0 -1 0 -1 0 -1 0 -1 0 -1 0 -1 0 -1 0 -1 0 -1 0 -1 0 -1 0 0 0 -3 -1zm0 0l0 0 0 0 0 0zm-1 -18l9 10 0 0 0 0 0 0 0 0 0 0 0 0 0 0 0 0 0 0 0 0 0 0 0 0 0 0 0 0 0 0 0 0 0 0 0 0 0 0 0 0 0 0 0 0 0 -1 0 -1 0 -1 0 -1 -1 -1 -1 -1 -1 0 -1 -1 -1 0 -1 0 -3 13 -1 0 -1 -1 -1 -1 -1 -1 -1 -1 -1 -1 -1 -1 0 -1 0 -1 0 -1 0 -1 0 -1 0 -1 0 -1 0 -1 0 -1 0 0 0 -1 0 -1 0 -1 0 -1 0 0 0 -1 0 -1 0 0 0 -1 0 -1 0 0 0 0 1 -1 1 0 0 0 3 2z"/>
   </g>
   <polygon fill="#E32A2D" points="1371,1307 1769,1306 1786,1087 1371,1087 "/>
   <path fill="#E32A2D" d="M1036 1991l-410 -1c84,76 280,218 409,275l2 -274 -1 0z"/>
   <path fill="#2B2A29" d="M739 1124l0 36c-17,-12 -92,-21 -138,-2 -12,4 -48,20 -64,33l-47 37c-5,4 -5,12 -5,18 0,14 -16,24 -25,21 -7,-2 -17,-4 -26,-2 -10,2 -18,-10 -19,-17 -2,-9 6,-20 6,-24 1,-3 -2,-17 11,-26 6,-4 14,-3 20,-1 2,1 4,2 6,1 2,-1 7,-6 9,-7 1,-8 -1,-21 0,-29 2,-14 2,-22 7,-36 4,-12 12,-29 18,-39 11,-17 32,-35 48,-33 -7,8 -8,12 -13,21 -8,16 -17,41 -20,59 -2,12 -4,20 -3,32 12,-9 25,-17 34,-21 4,-21 12,-43 21,-60 11,-20 39,-41 57,-40 -17,19 -30,45 -34,61 -2,7 -4,14 -3,18 7,-4 21,-7 28,-8 5,-12 11,-25 16,-33 17,-25 42,-41 56,-40 -12,16 -22,29 -28,50 -2,6 -3,12 -3,16 9,-2 23,-2 29,-2 15,-13 14,-17 31,-30 11,-8 30,-19 35,-20l0 25c-8,7 -24,22 -27,31 7,2 21,7 27,11l-1 0z"/>
   <polygon fill="#FACD4F" points="1178,975 1170,942 1163,975 "/>
   <polygon fill="#2B2A29" points="1800,876 1372,876 1372,1065 1787,1066 1800,883 "/>
   <path fill="#2B2A29" d="M1820 613l4 -62c-269,-83 -517,-107 -750,-107l0 169 747 1 -1 0z"/>
   <path fill="#2B2A29" d="M778 1514c-29,-54 -41,-112 -41,-170l-395 0 12 170 423 0z"/>
   <path fill="#2B2A29" d="M1034 1962l0 -177 -591 -1c38,61 88,117 146,174 2,2 3,3 5,5l441 0 -1 -1z"/>
  </g>
 </g>
 <g id="Layer_x0020_1_2">
  <metadata id="CorelCorpID_1Corel-Layer"/>
 </g>
 <g id="Layer_x0020_1_3">
  <metadata id="CorelCorpID_2Corel-Layer"/>
 </g>
 <g id="Layer_x0020_1_0">
  <metadata id="CorelCorpID_3Corel-Layer"/>
 </g>
 <g id="Layer_x0020_1_0_4">
  <metadata id="CorelCorpID_4Corel-Layer"/>
 </g>
 <g id="Layer_x0020_1_5">
  <metadata id="CorelCorpID_5Corel-Layer"/>
 </g>
 <g id="Layer_x0020_1_0_6">
  <metadata id="CorelCorpID_6Corel-Layer"/>
 </g>
 <g id="Layer_x0020_1_0_7">
  <metadata id="CorelCorpID_7Corel-Layer"/>
 </g>
 <g id="Layer_x0020_1_0_8">
  <metadata id="CorelCorpID_8Corel-Layer"/>
 </g>
 <g id="Layer_x0020_1_0_9">
  <metadata id="CorelCorpID_9Corel-Layer"/>
 </g>
 <g id="Layer_x0020_1_0_2">
  <metadata id="CorelCorpID_10Corel-Layer"/>
 </g>
 <g id="Layer_x0020_1_0_2_8">
  <metadata id="CorelCorpID_11Corel-Layer"/>
 </g>
 <g id="Layer_x0020_1_0_10">
  <metadata id="CorelCorpID_12Corel-Layer"/>
 </g>
 <g id="Layer_x0020_1_1">
  <metadata id="CorelCorpID_13Corel-Layer"/>
 </g>
 <g id="Layer_x0020_1_11">
  <metadata id="CorelCorpID_14Corel-Layer"/>
 </g>
</svg>
