

<!-- Creator: CorelDRAW X6 -->
<svg xmlns="http://www.w3.org/2000/svg" x="0" y="0" xml:space="preserve" width="20mm" height="25mm" version="1.1" shape-rendering="geometricPrecision" text-rendering="geometricPrecision" image-rendering="optimizeQuality" fill-rule="evenodd" clip-rule="evenodd"
viewBox="0 0 2000 2500"
 xmlns:xlink="http://www.w3.org/1999/xlink"
 enable-background="new 0 0 912.7 290.1">
 <g id="Layer_x0020_1">
  <metadata id="CorelCorpID_0Corel-Layer"/>
 </g>
 <g id="Layer_x0020_1_0">
  <metadata id="CorelCorpID_1Corel-Layer"/>
 </g>
 <g id="Layer_x0020_1_0_1">
  <metadata id="CorelCorpID_2Corel-Layer"/>
 </g>
 <g id="Layer_x0020_1_0_2">
  <metadata id="CorelCorpID_3Corel-Layer"/>
 </g>
 <g id="Layer_x0020_1_3">
  <metadata id="CorelCorpID_4Corel-Layer"/>
 </g>
 <g id="Layer_x0020_1_0_4">
  <metadata id="CorelCorpID_5Corel-Layer"/>
 </g>
 <g id="Layer_x0020_1_0_5">
  <metadata id="CorelCorpID_6Corel-Layer"/>
 </g>
 <g id="Layer_x0020_1_0_6">
  <metadata id="CorelCorpID_7Corel-Layer"/>
 </g>
 <g id="Layer_x0020_1_0_7">
  <metadata id="CorelCorpID_8Corel-Layer"/>
 </g>
 <g id="Layer_x0020_1_0_2_8">
  <metadata id="CorelCorpID_9Corel-Layer"/>
 </g>
 <g id="Layer_x0020_1_0_2_8_9">
  <metadata id="CorelCorpID_10Corel-Layer"/>
 </g>
 <g id="Layer_x0020_1_0_10">
  <metadata id="CorelCorpID_11Corel-Layer"/>
 </g>
 <g id="Layer_x0020_1_1">
  <metadata id="CorelCorpID_12Corel-Layer"/>
 </g>
 <g id="Layer_x0020_1_11">
  <metadata id="CorelCorpID_13Corel-Layer"/>
 </g>
 <g id="Layer_x0020_1_12">
  <metadata id="CorelCorpID_14Corel-Layer"/>
  <g id="_504645896">
   <path fill="#D9DADA" d="M1000 2500c648,-364 935,-953 960,-1504l0 -996 -960 0 -960 0 0 996c25,551 324,1145 960,1504l0 0zm0 -124c585,-328 843,-860 866,-1355l0 -931 -866 0 -866 0 0 931c22,497 292,1033 866,1355z"/>
   <path fill="#0B56A6" d="M1000 2376c585,-328 843,-860 866,-1355l0 -931 -866 0 -866 0 0 931c22,497 292,1033 866,1355l0 0z"/>
   <path fill="#FEFEFE" d="M1519 397l104 0 181 242 -106 0 -29 -38 -139 0 -28 38 -101 0 147 -201 -29 -41zm79 107l49 67 -98 0 49 -67zm-357 -107l141 0 0 242 -104 0 0 -201 -37 -41zm-19 19l-14 73 -33 0 0 -28c-190,-82 -284,185 39,116l0 53c-470,77 -368,-323 8,-214zm-579 -19l104 0 181 242 -106 0 -29 -38 -139 0 -28 38 -101 0 147 -201 -29 -41zm79 107l49 67 -98 0 49 -67zm-529 -107l209 0c198,3 193,231 0,242l-172 0 0 -201 -37 -41zm136 44l0 153 59 0c92,-7 82,-154 0,-152l-59 -1 0 -1z"/>
   <path fill="#2B2A29" d="M1519 391l104 0 2 0 2 3 181 242 7 9 -12 0 -106 0 -3 0 -2 -3 -27 -36 -133 0 -27 36 -2 3 -3 0 -101 0 -12 0 7 -9 145 -197 -27 -37 -7 -9 11 0 1 0zm101 12l-90 0 23 32 3 3 -3 3 -141 192 87 0 27 -36 2 -3 3 0 139 0 3 0 2 3 27 36 92 0 -172 -231 1 0zm-17 97l49 67 7 9 -12 0 -98 0 -11 0 7 -9 49 -67 4 -6 5 6zm33 64l-38 -52 -37 52 76 0zm-395 -173l141 0 6 0 0 6 0 242 0 6 -6 0 -104 0 -6 0 0 -6 0 -198 -35 -39 -8 -9 13 0 0 -1zm135 12l-122 0 28 32 2 2 0 3 0 195 93 0 0 -230 -1 -1zm-149 14l-14 73 -1 5 -5 0 -33 0 -6 0 0 -6 0 -25c-57,-23 -105,-14 -133,7 -16,12 -26,28 -28,44 -2,16 4,32 19,43 28,22 87,33 186,12l7 -2 0 7 0 53 0 5 -5 1c-151,25 -243,1 -288,-40 -25,-22 -35,-51 -32,-78 2,-27 18,-55 45,-77 53,-44 152,-68 285,-30l5 2 -1 5 1 1zm-24 67l12 -63c-126,-35 -219,-13 -269,29 -24,20 -38,45 -41,69 -3,24 7,48 28,69 42,38 130,61 274,38l0 -42c-99,20 -159,8 -188,-16 -18,-15 -26,-34 -23,-54 3,-19 14,-37 32,-52 32,-24 85,-34 148,-7l3 2 0 3 0 23 22 0 1 -1zm-560 -92l104 0 3 0 2 3 181 242 7 9 -12 0 -106 0 -3 0 -2 -3 -27 -36 -133 0 -27 36 -2 3 -3 0 -101 0 -12 0 7 -9 145 -197 -27 -37 -7 -9 11 0 1 0zm101 12l-90 0 22 32 3 3 -3 3 -141 192 87 0 27 -36 2 -3 3 0 139 0 3 0 2 3 28 36 92 0 -172 -231 1 0zm-17 97l49 67 7 9 -12 0 -98 0 -11 0 7 -9 49 -67 4 -6 5 6zm33 64l-38 -52 -37 52 76 0zm-567 -173l209 0 0 0c71,1 117,31 138,68 9,17 14,34 14,52 0,18 -4,37 -13,53 -21,41 -67,74 -140,77l0 0 -172 0 -6 0 0 -6 0 -198 -35 -39 -8 -9 12 0 0 1zm209 12l-197 0 28 32 2 2 0 3 0 195 167 0c67,-3 111,-34 130,-72 7,-15 12,-32 12,-48 0,-17 -4,-32 -13,-47 -20,-35 -62,-62 -129,-62l0 -1zm-68 44l0 142 53 0c31,-3 49,-21 57,-44 3,-10 4,-20 4,-30 -1,-10 -3,-21 -7,-29 -9,-22 -27,-37 -53,-37l0 0 -53 -1 -1 -1zm-12 147l0 -153 0 -6 6 0 59 1c32,-1 53,18 64,43 4,11 7,22 8,33 1,12 -1,23 -4,34 -9,28 -31,50 -67,52l0 0 -59 0 -6 0 0 -6 -1 1z"/>
   <path fill="#D9DADA" d="M1960 1l0 996c-3,54 -8,108 -15,162l0 -1159 15 0 0 1z"/>
   <path fill="#D7D8D8" d="M1945 1l0 1159c-4,30 -9,60 -15,91l0 -1250 15 0z"/>
   <path fill="#D6D6D6" d="M1930 1l0 1250c-4,23 -9,47 -15,70l0 -1320 15 0z"/>
   <path fill="#D2D2D3" d="M1915 1l0 1320c-5,20 -10,39 -15,59l0 -1379 15 0z"/>
   <path fill="#CFD0D0" d="M1900 1l0 1379c-5,17 -10,35 -15,52l0 -1430 15 0z"/>
   <path fill="#CECECF" d="M1885 1l0 1430c-5,16 -10,31 -15,47l0 -1477 15 0z"/>
   <path fill="#CCCCCC" d="M1870 1l0 1477c-5,14 -10,28 -15,42l0 -375c5,-42 9,-84 11,-127l0 -931 -11 0 0 -87 15 0 0 1z"/>
   <path fill="#C8C8C9" d="M1855 1l0 87 -15 0 0 -87 15 0zm0 1145l0 375c-5,13 -10,27 -15,40l0 -319c6,-32 11,-64 15,-96z"/>
   <path fill="#C5C6C6" d="M1840 1l0 87 -15 0 0 -87 15 0zm0 1241l0 319c-5,12 -10,25 -15,37l0 -285c6,-23 11,-47 15,-71z"/>
   <path fill="#C4C5C5" d="M1825 1l0 87 -15 0 0 -87 15 0zm0 1312l0 285c-5,12 -10,23 -15,35l0 -261c5,-20 10,-39 15,-59z"/>
   <path fill="#C0C1C1" d="M1810 1l0 87 -15 0 0 -87 15 0zm0 1370l0 261c-5,11 -10,22 -15,32l0 -243c5,-17 10,-34 15,-51l0 1z"/>
   <path fill="#BEBEBF" d="M1795 1l0 87 -15 0 0 -87 15 0zm0 1421l0 243c-5,11 -10,21 -15,31l0 -228c5,-15 10,-30 15,-46z"/>
   <path fill="#BCBDBD" d="M1780 1l0 87 -15 0 0 -87 15 0zm0 1467l0 228c-5,10 -10,20 -15,30l0 -217c5,-14 10,-27 15,-42z"/>
   <path fill="#BABBBB" d="M1765 1l0 87 -15 0 0 -87 15 0zm0 1509l0 217c-5,9 -10,19 -15,28l0 -207c5,-13 10,-25 15,-38z"/>
   <path fill="#B6B7B7" d="M1750 1l0 87 -15 0 0 -87 15 0zm0 1546l0 207c-5,9 -10,18 -15,27l0 -198c5,-12 10,-23 15,-36z"/>
   <path fill="#B5B5B6" d="M1735 1l0 87 -15 0 0 -87 15 0zm0 1582l0 198c-5,8 -10,18 -15,26l0 -192c5,-11 10,-22 15,-33l0 1z"/>
   <path fill="#B2B3B3" d="M1720 1l0 87 -15 0 0 -87 15 0zm0 1615l0 192c-5,8 -10,17 -15,25l0 -185c5,-11 10,-21 15,-32z"/>
   <path fill="#AEAFAF" d="M1705 1l0 87 -15 0 0 -87 15 0zm0 1647l0 185c-5,8 -10,16 -15,24l0 -179c5,-10 10,-20 15,-30z"/>
   <path fill="#ACACAD" d="M1690 1l0 87 -15 0 0 -87 15 0zm0 1677l0 179c-5,8 -10,16 -15,23l0 -174c5,-9 10,-19 15,-28z"/>
   <path fill="#AAABAB" d="M1675 1l0 87 -15 0 0 -87 15 0zm0 1704l0 174c-5,8 -10,15 -15,23l0 -170c5,-9 10,-18 15,-27z"/>
   <path fill="#A8A8A9" d="M1660 1l0 87 -15 0 0 -87 15 0zm0 1732l0 170c-5,8 -10,15 -15,22l0 -166c5,-8 10,-17 15,-26z"/>
   <path fill="#A4A4A4" d="M1645 1l0 87 -15 0 0 -87 15 0zm0 1758l0 166c-5,8 -10,14 -15,21l0 -162c5,-8 10,-17 15,-25l0 1z"/>
   <path fill="#A2A3A3" d="M1630 1l0 87 -15 0 0 -87 15 0zm0 1783l0 162c-5,7 -10,13 -15,21l0 -159c5,-8 10,-16 15,-24z"/>
   <path fill="#A0A0A0" d="M1615 1l0 87 -15 0 0 -87 15 0zm0 1806l0 159c-5,7 -10,13 -15,20l0 -157c5,-8 10,-15 15,-22z"/>
   <path fill="#9C9C9C" d="M1600 1l0 87 -15 0 0 -87 15 0zm0 1829l0 157c-5,7 -10,12 -15,19l0 -154c5,-7 10,-15 15,-22z"/>
   <path fill="#999A99" d="M1585 1l0 87 -15 0 0 -87 15 0zm0 1851l0 154c-5,7 -10,12 -15,19l0 -152c5,-8 10,-14 15,-22z"/>
   <path fill="#979898" d="M1570 1l0 87 -15 0 0 -87 15 0zm0 1873l0 152c-5,6 -10,12 -15,18l0 -149c5,-7 10,-13 15,-21z"/>
   <path fill="#959595" d="M1555 1l0 87 -15 0 0 -87 15 0zm0 1893l0 149c-5,6 -10,12 -15,18l0 -147c5,-7 10,-13 15,-20z"/>
   <path fill="#919191" d="M1540 1l0 87 -15 0 0 -87 15 0zm0 1913l0 147c-5,6 -10,12 -15,17l0 -145c5,-7 10,-13 15,-19z"/>
   <path fill="#8F908F" d="M1525 1l0 87 -15 0 0 -87 15 0zm0 1932l0 145c-5,6 -10,12 -15,17l0 -143c5,-6 10,-13 15,-18z"/>
   <path fill="#8D8D8D" d="M1510 1l0 87 -15 0 0 -87 15 0zm0 1951l0 143c-5,6 -10,11 -15,17l0 -142c5,-6 10,-13 15,-18z"/>
   <path fill="#8B8B8B" d="M1495 1l0 87 -15 0 0 -87 15 0zm0 1969l0 142c-5,6 -10,11 -15,16l0 -140c5,-6 10,-12 15,-17z"/>
   <path fill="#868686" d="M1480 1l0 87 -15 0 0 -87 15 0zm0 1987l0 140c-5,5 -10,11 -15,16l0 -139c5,-6 10,-12 15,-17l0 1z"/>
   <path fill="#848584" d="M1465 1l0 87 -15 0 0 -87 15 0zm0 2004l0 139c-5,5 -10,10 -15,15l0 -137c5,-6 10,-11 15,-17z"/>
   <path fill="#828281" d="M1450 1l0 87 -15 0 0 -87 15 0zm0 2020l0 137c-5,5 -10,10 -15,15l0 -137c5,-5 10,-11 15,-17l0 1z"/>
   <path fill="gray" d="M1435 1l0 87 -15 0 0 -87 15 0zm0 2037l0 137c-5,5 -10,10 -15,15l0 -135c5,-5 10,-11 15,-16l0 -1z"/>
   <path fill="#7C7C7B" d="M1420 1l0 87 -15 0 0 -87 15 0zm0 2053l0 135c-5,5 -10,9 -15,14l0 -134c5,-5 10,-10 15,-15z"/>
   <path fill="#797978" d="M1405 1l0 87 -15 0 0 -87 15 0zm0 2068l0 134c-5,5 -10,9 -15,14l0 -133c5,-5 10,-10 15,-15z"/>
   <path fill="#777777" d="M1390 1l0 87 -15 0 0 -87 15 0zm0 2083l0 133c-5,5 -10,9 -15,14l0 -132c5,-5 10,-10 15,-15z"/>
   <path fill="#747474" d="M1375 1l0 87 -15 0 0 -87 15 0zm0 2098l0 132c-5,4 -10,9 -15,13l0 -132c5,-5 10,-9 15,-14z"/>
   <path fill="#70706F" d="M1360 1l0 87 -15 0 0 -87 15 0zm0 2112l0 132c-5,4 -10,9 -15,13l0 -131c5,-5 10,-9 15,-14z"/>
   <path fill="#6D6D6D" d="M1345 1l0 87 -15 0 0 -87 15 0zm0 2126l0 131c-5,4 -10,8 -15,13l0 -130c5,-4 10,-9 15,-13l0 -1z"/>
   <path fill="#6B6B6B" d="M1330 1l0 87 -15 0 0 -87 15 0zm0 2139l0 130c-5,4 -10,8 -15,12l0 -130c5,-4 10,-9 15,-13l0 1z"/>
   <path fill="#676766" d="M1315 1l0 87 -15 0 0 -87 15 0zm0 2153l0 130c-5,4 -10,8 -15,12l0 -129c5,-4 10,-8 15,-13z"/>
   <path fill="#646464" d="M1300 1l0 87 -15 0 0 -87 15 0zm0 2166l0 129c-5,4 -10,8 -15,13l0 -128c5,-4 10,-8 15,-13l0 -1z"/>
   <path fill="#636262" d="M1285 1l0 87 -15 0 0 -87 15 0zm0 2178l0 128c-5,4 -10,8 -15,12l0 -128c5,-4 10,-8 15,-13l0 1z"/>
   <path fill="#60605F" d="M1270 1l0 87 -15 0 0 -87 15 0zm0 2191l0 128c-5,4 -10,8 -15,12l0 -127c5,-4 10,-8 15,-13z"/>
   <path fill="#5B5B5B" d="M1255 1l0 87 -15 0 0 -87 15 0zm0 2203l0 127c-5,4 -10,8 -15,12l0 -127c5,-4 10,-8 15,-12z"/>
   <path fill="#595858" d="M1240 1l0 87 -15 0 0 -87 15 0zm0 2215l0 127c-5,4 -10,7 -15,12l0 -127c5,-4 10,-7 15,-12l0 -1z"/>
   <path fill="#575656" d="M1225 1l0 87 -15 0 0 -87 15 0zm0 2227l0 127c-5,3 -10,7 -15,11l0 -127c5,-4 10,-8 15,-12l0 1z"/>
   <path fill="#525251" d="M1210 1l0 87 -15 0 0 -87 15 0zm0 2238l0 127c-5,3 -10,8 -15,11l0 -126c5,-3 10,-8 15,-11l0 -1z"/>
   <path fill="#4F4F4E" d="M1195 1l0 87 -15 0 0 -87 15 0zm0 2249l0 126c-5,3 -10,8 -15,11l0 -126c5,-3 10,-7 15,-11z"/>
   <path fill="#4D4D4C" d="M1180 1l0 87 -15 0 0 -87 15 0zm0 2260l0 126c-5,3 -10,7 -15,11l0 -126c5,-3 10,-7 15,-11z"/>
   <path fill="#4A4A49" d="M1165 1l0 87 -15 0 0 -87 15 0zm0 2271l0 126c-5,3 -10,7 -15,10l0 -126c5,-3 10,-7 15,-11l0 1z"/>
   <path fill="#464545" d="M1150 1l0 87 -15 0 0 -87 15 0zm0 2281l0 126c-5,3 -10,7 -15,10l0 -125c5,-3 10,-7 15,-10l0 -1z"/>
   <path fill="#434242" d="M1135 1l0 87 -15 0 0 -87 15 0zm0 2292l0 125c-5,3 -10,7 -15,10l0 -125c5,-3 10,-7 15,-10z"/>
   <path fill="#414140" d="M1120 1l0 87 -15 0 0 -87 15 0zm0 2302l0 125c-5,3 -10,7 -15,10l0 -125c5,-3 10,-7 15,-10z"/>
   <path fill="#3C3C3B" d="M1105 1l0 87 -15 0 0 -87 15 0zm0 2312l0 125c-5,3 -10,7 -15,9l0 -125c5,-3 10,-7 15,-9z"/>
   <path fill="#393938" d="M1090 1l0 87 -15 0 0 -87 15 0zm0 2321l0 125c-5,3 -10,6 -15,9l0 -125c5,-3 10,-7 15,-9z"/>
   <path fill="#373736" d="M1075 1l0 87 -15 0 0 -87 15 0zm0 2330l0 125c-5,3 -10,6 -15,9l0 -125c5,-3 10,-6 15,-9z"/>
   <path fill="#343433" d="M1060 1l0 87 -15 0 0 -87 15 0zm0 2339l0 125c-5,3 -10,6 -15,9l0 -124c5,-3 10,-6 15,-9l0 -1z"/>
   <path fill="#2F2F2E" d="M1045 1l0 87 -15 0 0 -87 15 0zm0 2348l0 124c-5,3 -10,6 -15,9l0 -124c5,-3 10,-6 15,-9z"/>
   <path fill="#2E2D2C" d="M1030 1l0 87 -15 0 0 -87 15 0zm0 2358l0 124c-5,3 -10,6 -15,8l0 -124c5,-3 10,-6 15,-8z"/>
   <path fill="#2B2A29" d="M1015 1l0 87 -15 0 0 0 0 -87 0 0 15 0zm0 2366l0 124c-5,3 -10,6 -15,8l0 0 0 -124 0 0c5,-3 10,-6 15,-8z"/>
   <path fill="#2B2A29" d="M1000 1l0 87 0 -87zm0 2375l0 124 0 -124z"/>
   <path fill="#2B2A29" d="M1000 1l0 87 -15 0 0 -87 15 0zm0 2375l0 124c-5,-3 -10,-6 -15,-8l0 -124c5,3 10,6 15,8z"/>
   <path fill="#2E2D2C" d="M985 1l0 87 -15 0 0 -87 15 0zm0 2366l0 124c-5,-3 -10,-6 -15,-8l0 -124c5,3 10,6 15,8z"/>
   <path fill="#2F2F2E" d="M970 1l0 87 -15 0 0 -87 15 0zm0 2358l0 124c-5,-3 -10,-6 -15,-9l0 -124c5,3 10,6 15,9z"/>
   <path fill="#343433" d="M955 1l0 87 -15 0 0 -87 15 0zm0 2348l0 124c-5,-3 -10,-6 -15,-9l0 -125c5,3 10,6 15,9l0 1z"/>
   <path fill="#373736" d="M940 1l0 87 -15 0 0 -87 15 0zm0 2339l0 125c-5,-3 -10,-6 -15,-9l0 -125c5,3 10,6 15,9z"/>
   <path fill="#393938" d="M925 1l0 87 -15 0 0 -87 15 0zm0 2330l0 125c-5,-3 -10,-6 -15,-9l0 -125c5,3 10,7 15,9z"/>
   <path fill="#3C3C3B" d="M910 1l0 87 -15 0 0 -87 15 0zm0 2321l0 125c-5,-3 -10,-7 -15,-10l0 -125c5,3 10,7 15,10z"/>
   <path fill="#414140" d="M895 1l0 87 -15 0 0 -87 15 0zm0 2311l0 125c-5,-3 -10,-7 -15,-10l0 -125c5,3 10,7 15,10z"/>
   <path fill="#434242" d="M880 1l0 87 -15 0 0 -87 15 0zm0 2301l0 125c-5,-3 -10,-7 -15,-10l0 -125c5,3 10,7 15,10z"/>
   <path fill="#464545" d="M865 1l0 87 -15 0 0 -87 15 0zm0 2291l0 125c-5,-3 -10,-7 -15,-10l0 -126c5,3 10,7 15,10l0 1z"/>
   <path fill="#4A4A49" d="M850 1l0 87 -15 0 0 -87 15 0zm0 2281l0 126c-5,-3 -10,-7 -15,-10l0 -126c5,3 10,7 15,11l0 -1z"/>
   <path fill="#4D4D4C" d="M835 1l0 87 -15 0 0 -87 15 0zm0 2270l0 126c-5,-3 -10,-7 -15,-11l0 -126c5,3 10,8 15,11z"/>
   <path fill="#4F4F4E" d="M820 1l0 87 -15 0 0 -87 15 0zm0 2259l0 126c-5,-3 -10,-7 -15,-11l0 -127c5,3 10,7 15,11l0 1z"/>
   <path fill="#525251" d="M805 1l0 87 -15 0 0 -87 15 0zm0 2248l0 127c-5,-3 -10,-7 -15,-11l0 -127c5,4 10,8 15,12l0 -1z"/>
   <path fill="#575656" d="M790 1l0 87 -15 0 0 -87 15 0zm0 2238l0 127c-5,-3 -10,-8 -15,-11l0 -127c5,4 10,8 15,12l0 -1z"/>
   <path fill="#595858" d="M775 1l0 87 -15 0 0 -87 15 0zm0 2226l0 127c-5,-4 -10,-8 -15,-12l0 -127c5,4 10,8 15,12l0 1z"/>
   <path fill="#5B5B5B" d="M760 1l0 87 -15 0 0 -87 15 0zm0 2214l0 127c-5,-4 -10,-7 -15,-12l0 -127c5,4 10,8 15,12z"/>
   <path fill="#60605F" d="M745 1l0 87 -15 0 0 -87 15 0zm0 2202l0 127c-5,-4 -10,-8 -15,-12l0 -128c5,4 10,8 15,13z"/>
   <path fill="#636262" d="M730 1l0 87 -15 0 0 -87 15 0zm0 2190l0 128c-5,-4 -10,-8 -15,-13l0 -128c5,4 10,8 15,13z"/>
   <path fill="#646464" d="M715 1l0 87 -15 0 0 -87 15 0zm0 2178l0 128c-5,-4 -10,-8 -15,-12l0 -129c5,4 10,8 15,13l0 1z"/>
   <path fill="#676766" d="M700 1l0 87 -15 0 0 -87 15 0zm0 2164l0 129c-5,-4 -10,-8 -15,-13l0 -130c5,4 10,9 15,13z"/>
   <path fill="#6B6B6B" d="M685 1l0 87 -15 0 0 -87 15 0zm0 2151l0 130c-5,-4 -10,-8 -15,-13l0 -131c5,4 10,9 15,13z"/>
   <path fill="#6D6D6D" d="M670 1l0 87 -15 0 0 -87 15 0zm0 2138l0 131c-5,-4 -10,-8 -15,-13l0 -131c5,5 10,9 15,14l0 -1z"/>
   <path fill="#70706F" d="M655 1l0 87 -15 0 0 -87 15 0zm0 2124l0 131c-5,-4 -10,-9 -15,-13l0 -132c5,5 10,9 15,14z"/>
   <path fill="#747474" d="M640 1l0 87 -15 0 0 -87 15 0zm0 2110l0 132c-5,-4 -10,-9 -15,-13l0 -132c5,5 10,10 15,14z"/>
   <path fill="#777777" d="M625 1l0 87 -15 0 0 -87 15 0zm0 2096l0 132c-5,-5 -10,-9 -15,-14l0 -133c5,5 10,10 15,15z"/>
   <path fill="#797978" d="M610 1l0 87 -15 0 0 -87 15 0zm0 2081l0 133c-5,-5 -10,-9 -15,-14l0 -134c5,5 10,10 15,15z"/>
   <path fill="#7C7C7B" d="M595 1l0 87 -15 0 0 -87 15 0zm0 2065l0 134c-5,-5 -10,-10 -15,-14l0 -136c5,5 10,10 15,16z"/>
   <path fill="gray" d="M580 1l0 87 -15 0 0 -87 15 0zm0 2050l0 136c-5,-5 -10,-10 -15,-15l0 -137c5,5 10,11 15,16z"/>
   <path fill="#828281" d="M565 1l0 87 -15 0 0 -87 15 0zm0 2034l0 137c-5,-5 -10,-10 -15,-15l0 -137c5,6 10,11 15,17l0 -1z"/>
   <path fill="#848584" d="M550 1l0 87 -15 0 0 -87 15 0zm0 2018l0 137c-5,-5 -10,-10 -15,-16l0 -139c5,6 10,12 15,17l0 1z"/>
   <path fill="#868686" d="M535 1l0 87 -15 0 0 -87 15 0zm0 2001l0 139c-5,-5 -10,-11 -15,-16l0 -141c5,6 10,12 15,17z"/>
   <path fill="#8B8B8B" d="M520 1l0 87 -15 0 0 -87 15 0zm0 1984l0 141c-5,-6 -10,-11 -15,-17l0 -142c5,6 10,12 15,18z"/>
   <path fill="#8D8D8D" d="M505 1l0 87 -15 0 0 -87 15 0zm0 1965l0 142c-5,-6 -10,-11 -15,-17l0 -143c5,6 10,13 15,18z"/>
   <path fill="#8F908F" d="M490 1l0 87 -15 0 0 -87 15 0zm0 1947l0 143c-5,-6 -10,-12 -15,-17l0 -145c5,7 10,13 15,19z"/>
   <path fill="#919191" d="M475 1l0 87 -15 0 0 -87 15 0zm0 1929l0 145c-5,-6 -10,-12 -15,-18l0 -147c5,7 10,13 15,19l0 1z"/>
   <path fill="#959595" d="M460 1l0 87 -15 0 0 -87 15 0zm0 1909l0 147c-5,-6 -10,-12 -15,-18l0 -149c5,7 10,13 15,20z"/>
   <path fill="#979898" d="M445 1l0 87 -15 0 0 -87 15 0zm0 1889l0 149c-5,-6 -10,-13 -15,-18l0 -152c5,7 10,14 15,21z"/>
   <path fill="#999A99" d="M430 1l0 87 -15 0 0 -87 15 0zm0 1869l0 152c-5,-7 -10,-12 -15,-19l0 -154c5,7 10,14 15,22z"/>
   <path fill="#9C9C9C" d="M415 1l0 87 -15 0 0 -87 15 0zm0 1847l0 154c-5,-7 -10,-13 -15,-19l0 -157c5,8 10,15 15,22l0 -1z"/>
   <path fill="#A0A0A0" d="M400 1l0 87 -15 0 0 -87 15 0zm0 1824l0 157c-5,-7 -10,-13 -15,-20l0 -159c5,8 10,15 15,23l0 -1z"/>
   <path fill="#A2A3A3" d="M385 1l0 87 -15 0 0 -87 15 0zm0 1801l0 159c-5,-7 -10,-13 -15,-21l0 -162c5,8 10,16 15,24z"/>
   <path fill="#A4A4A4" d="M370 1l0 87 -15 0 0 -87 15 0zm0 1778l0 162c-5,-8 -10,-14 -15,-22l0 -167c5,8 10,17 15,25l0 1z"/>
   <path fill="#A8A8A9" d="M355 1l0 87 -15 0 0 -87 15 0zm0 1753l0 167c-5,-7 -10,-15 -15,-22l0 -170c5,8 10,17 15,26l0 -1z"/>
   <path fill="#AAABAB" d="M340 1l0 87 -15 0 0 -87 15 0zm0 1727l0 170c-5,-8 -10,-15 -15,-22l0 -174c5,9 10,18 15,27z"/>
   <path fill="#ACACAD" d="M325 1l0 87 -15 0 0 -87 15 0zm0 1699l0 174c-5,-8 -10,-16 -15,-23l0 -179c5,9 10,19 15,28z"/>
   <path fill="#AEAFAF" d="M310 1l0 87 -15 0 0 -87 15 0zm0 1671l0 179c-5,-8 -10,-16 -15,-24l0 -185c5,10 10,20 15,30z"/>
   <path fill="#B2B3B3" d="M295 1l0 87 -15 0 0 -87 15 0zm0 1642l0 185c-5,-8 -10,-17 -15,-25l0 -191c5,11 10,21 15,32l0 -1z"/>
   <path fill="#B5B5B6" d="M280 1l0 87 -15 0 0 -87 15 0zm0 1610l0 191c-5,-8 -10,-17 -15,-26l0 -198c5,11 10,22 15,33z"/>
   <path fill="#B6B7B7" d="M265 1l0 87 -15 0 0 -87 15 0zm0 1577l0 198c-5,-9 -10,-18 -15,-27l0 -207c5,12 10,23 15,36z"/>
   <path fill="#BABBBB" d="M250 1l0 87 -15 0 0 -87 15 0zm0 1541l0 207c-5,-9 -10,-19 -15,-28l0 -217c5,12 10,26 15,38z"/>
   <path fill="#BCBDBD" d="M235 1l0 87 -15 0 0 -87 15 0zm0 1503l0 217c-5,-10 -10,-20 -15,-30l0 -227c5,14 10,27 15,41z"/>
   <path fill="#BEBEBF" d="M220 1l0 87 -15 0 0 -87 15 0zm0 1462l0 227c-5,-10 -10,-21 -15,-31l0 -242c5,15 10,30 15,45z"/>
   <path fill="#C0C1C1" d="M205 1l0 87 -15 0 0 -87 15 0zm0 1417l0 242c-5,-11 -10,-22 -15,-32l0 -260c5,17 10,34 15,51z"/>
   <path fill="#C4C5C5" d="M190 1l0 87 -15 0 0 -87 15 0zm0 1366l0 260c-5,-12 -10,-23 -15,-35l0 -283c5,19 10,39 15,58z"/>
   <path fill="#C5C6C6" d="M175 1l0 87 -15 0 0 -87 15 0zm0 1308l0 283c-5,-13 -10,-25 -15,-37l0 -316c4,23 9,47 15,70l0 -1z"/>
   <path fill="#C8C8C9" d="M160 1l0 87 -15 0 0 -87 15 0zm0 1238l0 316c-5,-13 -10,-26 -15,-39l0 -371c4,32 9,62 15,94z"/>
   <path fill="#CCCCCC" d="M145 1l0 87 -11 0 0 931c2,42 6,83 11,125l0 371c-5,-14 -10,-28 -15,-42l0 -1472 15 0z"/>
   <path fill="#CECECF" d="M130 1l0 1472c-5,-16 -10,-31 -15,-47l0 -1425 15 0z"/>
   <path fill="#CFD0D0" d="M115 1l0 1425c-5,-17 -10,-34 -15,-52l0 -1374 15 0z"/>
   <path fill="#D2D2D3" d="M100 1l0 1374c-5,-19 -10,-39 -15,-58l0 -1315 15 0z"/>
   <path fill="#D6D6D6" d="M85 1l0 1315c-6,-23 -11,-47 -15,-69l0 -1246 15 0z"/>
   <path fill="#D7D8D8" d="M70 1l0 1246c-6,-30 -11,-59 -15,-89l0 -1156 15 0 0 -1z"/>
   <path fill="#D9DADA" d="M55 1l0 1156c-7,-54 -12,-107 -15,-161l0 -996 15 0z"/>
   <path fill="#4973B6" d="M337 838l0 188 -184 0 184 -188zm766 1476c41,-27 80,-54 117,-82l0 -38 -117 121zm208 -156c47,-40 89,-82 130,-126l0 -62 -184 188 54 0zm214 -224c43,-55 82,-112 117,-170l-166 170 48 0zm253 -460c14,-41 27,-82 37,-123l-120 123 82 0zm61 -224c11,-57 19,-114 23,-172l-167 172 143 0 1 0zm27 -224c0,-2 0,-4 0,-7l0 -169 -172 176 171 0 1 0zm-1704 217c1,3 1,5 2,8l175 0 0 -188 -177 181zm45 178c6,18 12,36 18,53l114 0 0 -188 -132 135 -1 0zm61 162c18,39 36,77 57,116l15 0 0 -188 -71 73 -1 -1zm167 292c14,20 29,40 45,60l80 0 0 -188 -125 128zm98 124c9,10 18,21 27,31l0 -59 -27 28zm109 114c17,16 33,31 51,47l88 0 0 -188 -138 142 -1 -1zm118 102c7,5 13,11 21,16l0 -37 -21 21 0 1zm129 93c36,23 73,47 112,68l0 -182 -112 114zm771 -798l0 188 -184 0 184 -188zm0 -224l0 188 -184 0 184 -188zm0 -224l0 188 -184 0 184 -188zm0 -224l0 188 -184 0 184 -188zm-218 908l0 188 -184 0 184 -188zm0 -237l0 188 -184 0 184 -188zm0 -224l0 188 -184 0 184 -188zm0 -224l0 188 -184 0 184 -188zm0 -224l0 188 -184 0 184 -188zm-218 1131l0 188 -184 0 184 -188zm0 -224l0 188 -184 0 184 -188zm0 -237l0 188 -184 0 184 -188zm0 -224l0 188 -184 0 184 -188zm0 -224l0 188 -184 0 184 -188zm0 -224l0 188 -184 0 184 -188zm-218 1131l0 188 -184 0 184 -188zm0 -224l0 188 -184 0 184 -188zm0 -237l0 188 -184 0 184 -188zm0 -224l0 188 -184 0 184 -188zm0 -224l0 188 -184 0 184 -188zm0 -224l0 188 -184 0 184 -188zm-218 908l0 188 -184 0 184 -188zm0 -237l0 188 -184 0 184 -188zm0 -224l0 188 -184 0 184 -188zm0 -224l0 188 -184 0 184 -188zm0 -224l0 188 -184 0 184 -188zm-219 671l0 188 -184 0 184 -188zm0 -224l0 188 -184 0 184 -188zm0 -224l0 188 -184 0 184 -188zm0 -224l0 188 -184 0 184 -188z"/>
  </g>
 </g>
</svg>
