

<!-- Creator: CorelDRAW X6 -->
<svg xmlns="http://www.w3.org/2000/svg" x="0" y="0" xml:space="preserve" width="25mm" height="25mm" version="1.1" shape-rendering="geometricPrecision" text-rendering="geometricPrecision" image-rendering="optimizeQuality" fill-rule="evenodd" clip-rule="evenodd"
viewBox="0 0 2500 2500"
 xmlns:xlink="http://www.w3.org/1999/xlink"
 enable-background="new 0 0 912.7 290.1">
 <g id="Layer_x0020_1">
  <metadata id="CorelCorpID_0Corel-Layer"/>
 </g>
 <g id="Layer_x0020_1_0">
  <metadata id="CorelCorpID_1Corel-Layer"/>
 </g>
 <g id="Layer_x0020_1_0_1">
  <metadata id="CorelCorpID_2Corel-Layer"/>
 </g>
 <g id="Layer_x0020_1_0_2">
  <metadata id="CorelCorpID_3Corel-Layer"/>
 </g>
 <g id="Layer_x0020_1_3">
  <metadata id="CorelCorpID_4Corel-Layer"/>
 </g>
 <g id="Layer_x0020_1_0_4">
  <metadata id="CorelCorpID_5Corel-Layer"/>
 </g>
 <g id="Layer_x0020_1_0_5">
  <metadata id="CorelCorpID_6Corel-Layer"/>
 </g>
 <g id="Layer_x0020_1_0_6">
  <metadata id="CorelCorpID_7Corel-Layer"/>
 </g>
 <g id="Layer_x0020_1_0_7">
  <metadata id="CorelCorpID_8Corel-Layer"/>
 </g>
 <g id="Layer_x0020_1_0_2_8">
  <metadata id="CorelCorpID_9Corel-Layer"/>
 </g>
 <g id="Layer_x0020_1_0_2_8_9">
  <metadata id="CorelCorpID_10Corel-Layer"/>
 </g>
 <g id="Layer_x0020_1_0_10">
  <metadata id="CorelCorpID_11Corel-Layer"/>
 </g>
 <g id="Layer_x0020_1_1">
  <metadata id="CorelCorpID_12Corel-Layer"/>
 </g>
 <g id="Layer_x0020_1_11">
  <metadata id="CorelCorpID_13Corel-Layer"/>
 </g>
 <g id="Layer_x0020_1_12">
  <metadata id="CorelCorpID_14Corel-Layer"/>
  <g id="_1_x0020__x0028_25_x0029_.eps">
   <path fill="#EBECEE" d="M534 685c0,-3 3,-6 8,-8 4,-3 13,-12 18,-21 6,-9 25,-33 43,-53 92,-103 180,-169 293,-222 51,-23 83,-35 153,-54 32,-8 61,-18 62,-20 3,-3 9,-4 15,-4 11,0 11,-1 -3,-8 -13,-7 -17,-7 -61,3 -163,33 -324,122 -437,242 -42,45 -92,107 -107,137 -5,11 -13,23 -16,27 -4,5 -4,8 -1,8 3,0 5,3 5,8 0,4 5,0 13,-11 8,-10 13,-20 13,-23l-1 -1zm1708 837c58,-116 86,-187 110,-284 12,-49 22,-120 15,-114 -2,2 -12,36 -22,76 -42,160 -72,246 -131,364 -18,36 -28,60 -23,54 5,-6 28,-49 52,-96l-1 0zm-1880 99c-5,-8 -22,-42 -39,-76 -92,-186 -148,-377 -172,-592 -8,-75 -12,-306 -7,-377l4 -50 -13 -17c-15,-21 -15,-22 0,-26 7,-2 22,-10 33,-19 57,-44 171,-119 232,-152 107,-57 114,-61 347,-125 93,-26 172,-45 232,-57 39,-8 57,-15 36,-15 -7,0 -13,-3 -14,-5 -4,-8 10,-16 50,-28 20,-7 38,-13 41,-15 8,-8 -21,-9 -71,-5 -255,24 -534,129 -779,292 -36,24 -88,59 -117,77l-52 34 17 17c16,15 18,18 14,31 -5,23 -3,281 3,351 12,152 35,267 82,417 42,133 108,272 164,339 16,19 20,18 8,-2l1 2zm880 878c-25,-9 -208,-99 -258,-126 -342,-186 -570,-410 -756,-741 -126,-224 -192,-464 -214,-767 -5,-68 -3,-293 4,-373l3 -35 50 -38c182,-139 397,-257 587,-322 108,-37 239,-67 372,-85 97,-13 332,-14 427,-2 228,30 402,81 594,174 146,71 299,169 416,264l16 13 5 89c6,110 3,323 -7,405 -15,135 -33,226 -72,355 -32,110 -53,161 -102,257 -97,192 -201,337 -344,480 -167,167 -327,275 -602,405 -102,48 -108,51 -118,47l-1 0z"/>
   <path fill="#B6B7B9" d="M1359 2397c117,-59 163,-86 189,-111l143 -78 240 -175 321 -434 169 -472 31 -385 -18 -255 -252 -190 -311 -147c-87,-40 -275,-87 -427,-108 -78,-11 -276,-13 -363,-5 -181,18 -348,58 -484,116 -164,70 -254,119 -417,229 -112,76 -117,79 -120,95 -2,9 -4,67 -6,129 -10,366 52,679 187,947 212,407 568,740 1006,894 13,0 40,-12 112,-48l1 -2zm-183 65c-165,-77 -267,-133 -367,-200 -254,-170 -447,-388 -598,-675 -81,-153 -140,-338 -170,-527 -21,-132 -25,-212 -22,-394 2,-91 4,-173 5,-183 3,-18 5,-21 44,-52 199,-158 458,-292 692,-356 167,-46 317,-66 488,-66 160,0 295,17 457,57 253,63 529,207 764,398 13,11 17,343 4,469 -14,143 -33,241 -77,384 -49,164 -109,288 -219,453 -75,112 -130,181 -221,272 -149,149 -301,255 -522,366 -96,48 -181,87 -188,87 -3,0 -36,-14 -72,-32l1 -2z"/>
   <path fill="#2D3B67" d="M1171 2289c-231,-120 -368,-216 -503,-351 -125,-125 -207,-235 -294,-393 -148,-270 -205,-571 -180,-946l3 -41 42 -32c193,-146 397,-249 592,-300 149,-39 253,-52 414,-52 149,0 229,9 371,41 177,40 370,125 542,241 71,47 139,99 142,108 3,5 4,89 4,187 0,162 -1,184 -9,249 -37,267 -111,464 -255,681 -145,218 -332,392 -567,527 -46,27 -208,112 -219,117 -3,2 -41,-15 -82,-37l0 1z"/>
   <path fill="#EBECEE" d="M1119 1914c-269,-45 -502,-232 -599,-478 -37,-95 -52,-164 -55,-265 -3,-82 3,-142 21,-211 76,-302 309,-526 609,-583 67,-13 71,-13 79,7 18,43 35,133 52,279 7,13 -2,113 28,102 6,-3 8,-14 11,-39 17,-182 46,-332 67,-353 5,-6 12,-5 51,1 160,26 306,102 424,220 62,62 102,115 138,187 67,130 95,252 90,391 -3,71 -9,114 -28,180 -75,276 -303,492 -583,553 -27,6 -59,12 -70,13l-21 3 -7 -17c-21,-49 -47,-195 -58,-320 -3,-31 -6,-60 -7,-64 -3,-8 -17,-11 -21,-4 -1,2 -8,48 -13,102 -18,162 -43,288 -59,298 -7,4 -6,4 -47,-3l-1 3zm225 110c157,-18 309,-77 436,-170 43,-33 121,-107 157,-151 91,-112 153,-244 184,-388 12,-53 12,-63 12,-167 0,-97 -1,-117 -9,-161 -50,-262 -207,-482 -440,-615 -82,-47 -187,-84 -287,-102 -67,-12 -200,-14 -265,-5 -219,32 -413,137 -552,298 -198,230 -265,534 -181,826 68,237 243,444 468,552 82,39 194,72 284,82 47,5 146,6 194,0l-2 0z"/>
   <path fill="#989799" d="M1254 1968c-6,-3 -6,-25 -5,-151 1,-81 6,-164 6,-186 -1,-46 2,-111 -5,-111 4,-1 9,3 10,13 3,49 6,267 21,354 9,54 22,57 83,61 75,-3 117,-12 197,-42 26,-10 48,-17 49,-16 4,4 -40,26 -78,39 -54,19 -112,31 -179,37 -68,6 -89,6 -97,1l-1 1zm-78 2c-3,-1 -30,-3 -58,-6 -51,-4 -108,-17 -162,-38 -25,-9 -63,-31 -61,-34 1,-1 18,4 36,12 83,32 115,39 202,42 62,2 84,5 97,11 13,6 16,8 11,12 -6,3 -51,5 -65,2z"/>
   <path fill="#989799" d="M1249 758c7,0 10,-74 5,-112 -7,-57 -8,-323 -2,-331 9,-9 114,2 186,20 74,18 115,34 180,68 47,25 94,55 90,58 -1,1 -29,-12 -62,-28 -78,-39 -117,-53 -196,-69 -35,-8 -79,-18 -97,-22 -42,-11 -53,-11 -67,2 -9,9 -11,15 -15,57 -3,35 -3,57 2,82 -1,66 14,103 -23,276l0 -1z"/>
   <path fill="#67676E" d="M2381 421c-44,-30 -82,-58 -82,-62 0,-7 10,-3 40,18 27,18 87,70 82,70 -1,0 -19,-11 -39,-25l-1 0zm-2216 553c-8,-70 -13,-125 -16,-207 -3,-87 3,-232 10,-240 3,-3 8,0 13,10 8,12 9,19 7,38 -15,148 -18,259 -11,367 3,31 7,115 -4,32l1 1zm1091 -442c-5,-33 -8,-188 -4,-202l3 -13 47 2c52,2 114,12 173,29 37,11 93,33 93,38 0,1 -9,-1 -21,-4 -47,-14 -214,-54 -238,-57 -23,-3 -27,-2 -29,6 -2,4 -6,13 -10,20 -5,9 -8,34 -10,107 -2,60 -4,87 -6,75l1 -1zm-623 66c0,-7 49,-57 83,-87 74,-62 177,-121 262,-148 84,-27 240,-56 240,-44 0,2 -1,5 -2,5 -15,0 -91,18 -150,35 -111,32 -222,88 -321,162 -65,48 -112,82 -112,78l-1 -1zm544 1361c-3,-6 32,-6 41,0 5,3 0,4 -16,4 -12,0 -23,-2 -25,-4zm80 4c-6,-3 -7,-19 -5,-109 2,-116 9,-158 9,-56 1,82 6,135 13,141 9,7 13,24 6,24 -3,0 -8,1 -12,3 -3,1 -8,0 -13,-2l1 -1zm-90 412c-115,-60 -267,-157 -316,-202 -19,-17 -19,-17 48,24 65,41 151,87 251,137l94 47 60 -30c198,-98 323,-176 442,-273 184,-151 323,-320 437,-532 125,-232 185,-489 185,-795 0,-83 -8,-227 -13,-242 -6,-16 -179,-137 -272,-190 -99,-57 -223,-112 -352,-157 -37,-13 -68,-25 -69,-26 -8,-8 106,19 169,40 107,35 227,90 325,151 45,28 174,122 212,154 9,8 11,14 14,68 6,78 2,312 -7,387 -17,150 -57,323 -107,459 -26,70 -95,213 -136,280 -32,53 -117,175 -153,222 -66,83 -230,237 -301,281 -52,32 -272,147 -364,187 -28,13 -57,27 -63,32 -7,5 -13,9 -14,9 -1,0 -31,-16 -67,-34l-2 3zm3 77c-159,-76 -252,-126 -347,-188 -231,-152 -410,-342 -559,-597 -138,-236 -213,-486 -235,-785 -5,-72 -2,-359 3,-397 7,-38 9,-9 5,54 -24,389 46,764 192,1039 137,257 304,452 525,613 89,65 243,155 407,238 70,36 87,42 99,41 8,-1 39,-13 69,-27 117,-53 219,-110 260,-145 11,-9 60,-46 109,-80 49,-35 112,-82 140,-106 244,-204 442,-502 533,-798 57,-186 87,-404 87,-631 0,-95 -6,-197 -11,-212 -3,-6 -1,-8 8,-8 10,0 11,3 13,21 7,52 11,243 7,329 -8,194 -29,322 -81,492 -35,116 -54,164 -102,258 -104,205 -244,393 -390,525 -142,127 -262,207 -467,310 -78,39 -188,92 -190,92 0,0 -35,-17 -77,-36l1 -2z"/>
   <path fill="#989799" d="M737 2047c-5,-7 -5,-7 2,-2 8,6 9,9 6,9 -1,0 -4,-3 -7,-8zm-559 -1153l3 51c8,171 58,373 136,537 42,87 102,188 172,286 18,25 43,60 56,78 12,17 60,69 105,115 45,46 77,77 69,72 -168,-148 -293,-310 -387,-501 -98,-198 -146,-359 -172,-582 -10,-82 -12,-410 -2,-426 19,-34 229,-174 335,-223 42,-20 123,-51 132,-51 3,0 -18,12 -47,25 -97,47 -177,95 -286,172 -22,15 -56,38 -77,51 -21,13 -38,25 -38,28l4 369 -1 -2zm986 1486c-127,-67 -244,-142 -342,-220 -56,-45 -154,-135 -154,-141 0,-3 8,3 18,12 84,72 207,158 307,215 73,42 241,126 250,126 9,0 182,-87 249,-125 305,-173 522,-395 691,-706 72,-133 127,-296 155,-453 19,-112 31,-313 24,-422 -6,-102 20,-129 -64,-193 -245,-179 -452,-276 -731,-343 -42,-10 -79,-20 -85,-22 -16,-7 27,-5 81,3 237,33 432,107 630,237 57,37 167,121 184,140l11 12 0 189c0,208 -3,247 -28,385 -41,222 -111,417 -212,590 -27,46 -100,154 -151,222 -61,82 -219,238 -301,297 -32,22 -267,142 -371,189 -34,15 -64,32 -67,36 -8,14 -26,8 -92,-27l0 -1zm171 49c70,-32 111,-55 126,-69 6,-6 39,-28 74,-48 189,-114 313,-209 425,-326 115,-120 202,-240 287,-394 138,-252 203,-544 204,-916 0,-69 -1,-142 -3,-162 -3,-36 -4,-37 -18,-46 -321,-238 -592,-381 -985,-439 -86,-11 -317,-12 -402,0 -182,24 -340,64 -449,115 -202,94 -259,125 -397,216 -52,34 -105,69 -120,77l-27 16 -3 29c-7,69 -8,271 -3,348 24,369 112,640 297,920 64,97 127,173 214,261 159,160 301,256 587,399 92,47 106,52 120,49 6,-1 37,-15 70,-30l3 0zm-187 16c-242,-116 -383,-204 -532,-335 -217,-192 -404,-471 -498,-744 -79,-231 -111,-477 -98,-767 3,-81 8,-128 10,-133 8,-12 74,-63 130,-103 136,-96 300,-182 450,-238 375,-139 785,-152 1171,-35 205,62 466,200 636,336 22,17 42,32 46,34 11,4 14,65 14,259 0,183 -3,230 -26,364 -13,81 -26,132 -57,232 -49,162 -112,293 -220,455 -178,267 -387,450 -699,612 -95,49 -217,106 -229,106 -5,0 -50,-19 -99,-42l2 0z"/>
   <path fill="#2D2D4D" d="M1258 780c-5,-3 -5,-5 -1,-11 3,-4 8,-35 12,-76 13,-153 46,-316 64,-322 3,-1 22,1 42,4 197,34 362,131 486,288 8,11 18,24 21,30l5 11 -8 -10c-4,-6 -17,-20 -27,-32 -11,-13 -23,-28 -28,-33 -20,-26 -93,-85 -147,-121 -107,-70 -301,-134 -323,-107 -10,12 -25,74 -35,143 -11,80 -13,98 -17,150 -6,67 -7,72 -21,82 -12,10 -14,10 -22,4l1 0zm226 114c-17,-12 -15,-13 8,-6 8,3 14,8 14,11 0,8 -4,7 -22,-6l0 1zm-272 49c-8,-8 -7,-12 3,-12 6,0 8,3 8,8 0,10 -4,11 -13,3l1 1zm-177 0c-8,-8 -7,-12 2,-12 3,0 7,4 7,8 0,10 -1,11 -8,3l-1 1zm492 112c-5,-3 -7,-7 -7,-8 1,-1 6,-3 11,-6 8,-4 9,-11 11,-72 1,-37 3,-69 6,-71 2,-2 3,3 3,10 0,17 7,23 23,23 12,0 13,1 10,14 -2,8 -4,32 -7,52 -3,27 -6,42 -12,50 -10,13 -26,17 -38,8l0 -2zm-344 -32c-23,-54 -42,-106 -43,-114l-3 -15 13 10c9,7 20,25 38,67 14,32 27,58 30,60 4,3 10,68 7,83 -1,4 -20,-37 -42,-92l0 1zm-335 169c-1,-8 28,-144 31,-144 2,0 5,18 8,38 4,29 4,42 1,53 -3,8 -5,24 -6,35l-1 20 -17 0c-9,0 -17,-2 -17,-3l0 1zm916 3c0,-12 28,-147 31,-147 2,0 6,22 10,49 9,64 9,61 3,72 -6,11 -3,20 7,17 3,-2 6,0 6,4 0,4 -4,7 -12,7 -7,0 -19,2 -28,3 -13,2 -17,1 -17,-3l0 -1zm-341 135c-13,-5 -27,-24 -32,-42 -3,-8 -6,-56 -8,-105 -3,-94 3,-173 14,-211 11,-37 38,-52 67,-37 16,8 31,29 25,35 -2,2 -5,0 -8,-4 -6,-10 -27,-10 -38,1 -20,20 -28,97 -25,224 3,101 4,111 24,129 5,4 9,10 9,12 0,5 -17,4 -28,-1zm500 1c-2,-4 -21,-94 -44,-201 -42,-197 -51,-243 -42,-243 7,0 22,18 27,32 5,15 20,83 26,118 3,13 8,37 13,57 5,18 11,46 13,60 3,14 8,38 12,54 7,28 17,72 22,100 2,8 5,18 7,22 3,7 1,8 -14,8 -13,0 -18,-2 -20,-8l1 0zm-261 3c-1,-3 -2,-95 -1,-205l1 -200 14 0c14,0 22,-7 22,-20 0,-11 13,-13 18,-4 8,16 5,32 -9,46l-13 12 2 185c2,182 1,185 -8,187 -14,4 -24,3 -26,-3l0 2zm-651 0c-3,-3 -11,-38 -20,-79 -8,-41 -27,-127 -42,-193 -14,-66 -28,-130 -29,-142 -3,-22 -3,-23 6,-18 5,3 11,10 13,17 6,15 33,124 44,175 18,82 47,201 57,224 3,7 5,15 3,16 -6,5 -30,7 -33,2l1 0zm-329 0c-1,-3 -2,-94 -1,-202l1 -197 17 -2c13,-1 18,-3 21,-13 3,-6 6,-10 8,-8 8,5 4,21 -8,36l-13 15 1 131c0,72 2,156 3,185 3,37 2,55 -2,57 -8,5 -24,4 -27,-3l0 1zm1156 57l-15 -9 11 -3c6,-2 37,-3 67,-3 62,-1 62,-1 62,-25 0,-13 6,-13 17,1 12,15 12,23 -3,37 -12,13 -12,13 -68,13 -51,0 -58,-1 -72,-9l0 -1zm-259 1c-8,-5 -14,-11 -14,-13 0,-3 34,-4 97,-4 104,0 109,-1 106,-22 -1,-8 -5,-10 -13,-12 -8,-1 -12,-4 -12,-9 0,-7 8,-52 15,-82 3,-9 4,-10 37,-10l35 0 0 15c0,14 -1,15 -12,13 -18,-3 -31,9 -36,38 -4,23 -3,26 5,38 8,11 9,16 6,29 -7,25 -14,28 -112,28 -79,0 -88,-1 -101,-8l-1 0zm-332 4c-11,-7 -9,-13 3,-13 6,0 12,-2 13,-4 2,-3 7,-354 7,-444 0,-5 4,-8 17,-8 15,-1 17,-3 18,-16 2,-14 3,-17 12,-11 6,3 15,20 15,27 0,3 -7,12 -15,22l-15 18 2 124c2,147 2,124 -1,217 -3,72 -3,76 -13,83 -11,9 -29,11 -41,3l-2 1zm-313 2c-13,-3 -25,-15 -20,-20 3,-3 47,-4 101,-5 53,-1 99,-3 102,-4 3,-2 5,-10 5,-18 0,-15 0,-15 -17,-14l-17 2 -1 -162c-1,-106 1,-160 3,-156 3,4 11,27 19,51 13,40 14,46 10,67 -3,13 -3,58 -2,107l3 84 13 13c17,18 18,38 2,49 -10,7 -24,8 -103,8 -50,1 -95,0 -100,-2l1 0zm-235 -2c-71,-2 -93,-3 -99,-8 -8,-6 -8,-7 1,-9 4,-2 53,-3 108,-3 79,0 102,-2 105,-6 3,-3 10,-32 17,-65 7,-32 14,-61 17,-64 3,-3 17,-4 34,-3l30 2 2 13c1,13 1,13 -12,12 -21,-3 -29,5 -37,36 -4,16 -7,32 -7,36 0,14 -8,39 -17,49 -11,13 -32,15 -142,12l0 -1zm720 3c-15,-7 -62,-48 -58,-52 2,-2 10,3 19,12 23,19 52,26 80,19 45,-12 71,-46 87,-112 5,-22 11,-41 13,-42 2,-2 7,0 12,3 9,6 10,10 9,36 -1,16 -3,33 -7,40 -3,6 -6,15 -6,21 0,5 -4,12 -8,14 -5,3 -10,11 -11,18 -3,15 -27,35 -52,45 -18,7 -62,7 -78,0l-1 -2zm-367 496c-57,-15 -96,-30 -145,-53 -393,-188 -552,-663 -353,-1052 108,-212 303,-361 535,-408 56,-12 82,-11 84,3 1,8 0,9 -6,8 -8,-3 -83,9 -108,17 -9,3 -31,10 -47,15 -42,13 -136,59 -179,88 -169,112 -282,283 -327,489 -12,57 -17,169 -9,233 10,87 34,168 72,246 23,45 37,69 82,133 18,26 89,98 128,131 27,22 92,68 97,68 3,0 8,4 12,8 4,5 11,8 14,8 3,0 12,4 18,8 7,5 18,10 24,12 7,2 15,5 18,7 6,4 56,22 91,32 14,4 30,9 35,11 15,7 -3,4 -37,-5l0 1zm53 11c2,-2 5,-2 8,0 3,2 3,3 -3,3 -4,0 -8,-1 -6,-3zm23 3c-1,-2 3,-3 11,-2 7,1 12,3 12,3 0,3 -21,2 -23,-2zm199 -7c-23,-57 -58,-267 -58,-357 0,-30 7,-36 20,-16 8,13 19,65 19,94 0,12 2,29 4,39 3,10 8,50 13,89 9,72 26,141 37,153 6,7 5,8 -3,10 -20,5 -26,3 -32,-12l-1 -1zm-149 152c-6,-1 -32,-5 -58,-9 -26,-4 -53,-10 -59,-13 -7,-3 -17,-6 -24,-6 -17,0 -107,-32 -148,-52 -4,-2 -15,-8 -25,-12 -9,-4 -30,-16 -45,-24 -15,-9 -28,-17 -30,-17 -4,0 -53,-37 -72,-53 -10,-9 -19,-17 -22,-17 -2,0 -9,-5 -16,-12 -60,-57 -87,-85 -86,-87 2,-2 17,12 34,28 234,230 590,311 906,205 190,-63 343,-182 457,-352 154,-231 192,-505 105,-768 -73,-223 -242,-416 -457,-524 -16,-8 -26,-14 -23,-14 8,0 112,51 116,56 2,3 6,4 9,4 3,0 14,6 22,12 8,7 22,15 28,18 35,18 157,134 200,193 136,180 196,389 177,618 -3,42 -8,85 -11,96 -3,11 -7,29 -9,41 -10,47 -47,147 -66,182 -55,102 -88,150 -143,210 -97,105 -215,187 -339,233 -123,47 -182,58 -317,60 -52,1 -100,1 -107,0l2 2zm-13 227c-302,-157 -493,-311 -656,-531 -149,-201 -242,-410 -287,-646 -23,-119 -27,-169 -27,-349 0,-92 2,-174 3,-182 3,-13 10,-20 52,-51 144,-104 252,-167 392,-227 197,-84 459,-129 679,-117 350,20 621,121 926,344 52,38 54,41 51,49 -2,5 -3,5 -8,0 -3,-3 -13,-13 -24,-20 -11,-8 -37,-27 -57,-42 -21,-15 -45,-32 -54,-37 -9,-6 -27,-17 -41,-26 -31,-21 -60,-36 -154,-82 -120,-59 -147,-72 -161,-75 -8,-2 -31,-9 -52,-17 -145,-52 -322,-80 -497,-80 -210,0 -408,38 -590,113 -50,21 -163,77 -210,105 -86,51 -212,138 -226,158 -11,15 -15,67 -16,197 -1,242 37,446 122,644 92,218 282,467 481,631 70,57 77,62 101,78 12,7 36,23 54,36 18,13 37,22 39,22 3,0 6,2 6,4 0,3 8,9 19,14 46,23 72,38 94,52 13,8 27,16 31,16 4,0 8,2 10,4 2,3 11,8 21,13 10,5 21,11 25,12 3,3 16,8 28,13 12,5 19,12 18,13 -2,3 -4,4 -6,4 -2,0 -41,-20 -87,-44l1 3z"/>
   <path fill="#FEFEFE" d="M1758 1191c1,-5 8,-42 17,-80 8,-39 16,-71 18,-71 2,0 9,33 17,75 8,41 15,77 16,80 2,4 -7,6 -33,6 -35,0 -36,0 -33,-10l-1 0zm194 177c10,-12 3,-22 -15,-24l-17 -3 -49 -226c-27,-124 -49,-226 -49,-227 0,-1 -6,-1 -13,-1 -15,0 -12,-9 -41,126 -11,52 -31,145 -45,208l-25 115 -21 2 -21 2 1 -205 1 -205 15 -3c13,-2 15,-3 15,-15l0 -13 -67 0 -67 0 0 13c0,12 2,13 15,15l15 3 0 204 0 204 -15 3c-13,2 -15,4 -17,17l-2 14 103 -1 103 -1 2 -12c1,-10 -1,-12 -12,-15 -8,-2 -13,-4 -13,-5 0,-2 5,-24 10,-51l10 -47 36 -2c34,-1 36,-1 37,8 8,37 16,79 16,87 0,6 -3,8 -11,8 -6,0 -13,3 -15,8 -6,11 -6,12 3,19 10,10 124,10 132,1l3 -3zm-488 6c37,-10 66,-50 79,-112 8,-37 7,-44 -11,-44 -16,0 -16,0 -27,42 -12,45 -26,69 -46,76 -29,9 -54,-3 -68,-34 -8,-18 -9,-29 -11,-133 -3,-160 7,-218 38,-234 40,-21 74,8 87,73 5,28 9,34 21,32 8,-2 8,-8 11,-68 2,-37 2,-70 1,-72 -3,-10 -22,-7 -27,5l-5 10 -21 -13c-19,-12 -23,-13 -49,-12 -22,2 -32,4 -47,15 -51,36 -86,129 -86,227 0,113 45,215 107,242 16,7 34,8 56,2l-2 0zm-621 -177c0,-11 32,-157 35,-157 3,0 34,152 32,157 -1,2 -16,3 -34,3 -18,0 -32,-2 -32,-3zm420 -45l1 -224 16 -2c15,-1 17,-3 17,-15l2 -14 -45 -2c-59,-2 -60,-2 -58,15 1,12 3,14 17,16l15 3 1 101c1,56 -1,100 -3,99 -2,-1 -25,-54 -51,-117l-47 -115 -57 1 -57 1 0 13c0,12 2,13 17,14l17 2 -1 205 -1 205 -19 0 -19 0 -45 -208c-54,-252 -52,-239 -59,-242 -18,-7 -21,1 -60,180 -39,182 -51,217 -76,244 -18,18 -41,29 -66,29l-22 0 1 -205 1 -205 15 -3c13,-2 15,-3 15,-15l0 -13 -67 0 -67 0 -2 12c-2,14 4,20 22,20l12 0 0 204 0 204 -11 0c-18,0 -24,5 -24,18 0,7 2,13 3,14 2,1 56,1 120,-1l117 -3 13 -65 13 -65 36 -2c34,-1 36,-1 37,8 8,36 16,79 16,86 0,6 -4,8 -14,9 -13,1 -14,3 -14,14l0 13 104 1c90,1 105,0 109,-6 9,-13 2,-23 -15,-25l-16 -2 -1 -160c-1,-88 0,-162 3,-163 2,-2 33,71 70,162 90,225 81,203 95,202l12 -2 1 -224 0 2z"/>
   <path fill="#989799" d="M1952 635c16,28 20,36 44,89 13,27 27,60 32,72 6,12 11,24 11,25 0,1 8,21 17,43 22,53 33,103 39,189 7,114 -5,233 -36,329 -13,42 -46,116 -49,112 -1,-1 7,-26 17,-55 39,-107 54,-189 54,-296 0,-112 -13,-196 -42,-285 -21,-64 -54,-128 -108,-207 -90,-142 -86,-162 19,-17l0 -1z"/>
  </g>
 </g>
</svg>
