

<!-- Creator: CorelDRAW X6 -->
<svg xmlns="http://www.w3.org/2000/svg" x="0" y="0" xml:space="preserve" width="28mm" height="25mm" version="1.1" shape-rendering="geometricPrecision" text-rendering="geometricPrecision" image-rendering="optimizeQuality" fill-rule="evenodd" clip-rule="evenodd"
viewBox="0 0 2800 2500"
 xmlns:xlink="http://www.w3.org/1999/xlink"
 enable-background="new 0 0 912.7 290.1">
 <g id="Layer_x0020_1">
  <metadata id="CorelCorpID_0Corel-Layer"/>
  <g id="_779162584">
   <path fill="#FEFEFE" d="M1400 2500c690,0 1250,-559 1250,-1250 0,-690 -559,-1250 -1250,-1250 -690,0 -1250,559 -1250,1250 0,690 559,1250 1250,1250z"/>
   <path fill="#FEFEFE" d="M1400 2283c571,0 1033,-462 1033,-1033 0,-571 -462,-1033 -1033,-1033 -571,0 -1033,462 -1033,1033 0,570 462,1033 1033,1033z"/>
   <path fill="#FEFEFE" d="M427 770l-51 -29 66 -110c6,-12 -13,-23 -19,-13l-67 111 -19 -12 77 -129c7,-12 22,-16 43,-3 21,13 25,23 17,37l-60 100 31 17 -17 31 0 -1z"/>
   <polygon fill="#FEFEFE" points="2367,557 2384,587 2355,606 2402,682 2433,663 2451,694 2364,749 2345,719 2384,694 2336,618 2297,643 2279,612 "/>
   <polygon fill="#FEFEFE" points="2158,334 2142,351 2268,470 2283,454 "/>
   <polygon fill="#FEFEFE" points="2178,416 2137,458 2164,482 2204,440 "/>
   <path fill="#FEFEFE" d="M1878 162l-31 60c-6,12 -11,35 15,48l122 65 48 -93 -31 -16 -37 72 -72 -39c-12,-5 -16,-16 -10,-27l29 -54 -32 -16 0 -1z"/>
   <path fill="#FEFEFE" d="M1092 100l17 101 37 -5 -16 -79 41 -6c10,-2 20,4 22,12l10 64 36 -5 -14 -80 39 -6c11,-3 22,4 23,13l11 64 35 -6 -12 -74c-2,-12 -23,-26 -40,-23l-65 11c-6,1 -8,5 -10,8 -5,-5 -13,-5 -19,-4l-94 16 -1 0z"/>
   <polygon fill="#FEFEFE" points="516,455 541,429 598,488 697,393 714,408 588,529 "/>
   <path fill="#FEFEFE" d="M749 255l19 32c8,12 31,17 47,9l88 -48c10,-6 25,-30 17,-46l-18 -33 -32 18 12 20c4,5 3,23 -4,27l-58 32c-8,5 -23,2 -27,-6l-13 -24 -31 18z"/>
   <polygon fill="#FEFEFE" points="848,286 862,311 893,292 879,269 "/>
   <path fill="#FEFEFE" d="M1557 179c-17,-4 -48,-5 -37,-64 6,-36 27,-43 64,-37l69 12c30,5 50,15 43,57 -7,42 -28,52 -58,47l-81 -15z"/>
   <path fill="#FEFEFE" d="M1564 157c-16,-3 -17,-15 -14,-38 3,-20 16,-23 28,-19l74 14c12,3 21,12 17,30 -4,18 -13,32 -32,27l-74 -14z"/>
   <path fill="#FEFEFE" d="M2288 890c13,10 4,26 -13,31l-771 212c-14,3 -23,-4 -24,-21l-58 -801c1,-11 14,-22 25,-16 214,84 685,395 842,595z"/>
   <path fill="#FEFEFE" d="M2017 1983c-5,15 -24,12 -34,-3l-440 -668c-7,-13 -4,-23 13,-29l745 -303c11,-3 26,6 22,18 -14,229 -164,773 -306,984l0 1z"/>
   <path fill="#FEFEFE" d="M894 2063c-16,-1 -18,-19 -7,-33l499 -624c10,-11 21,-10 31,3l518 614c6,9 2,26 -11,26 -223,58 -786,83 -1030,13l0 1z"/>
   <path fill="#FEFEFE" d="M470 1020c-4,-16 13,-24 29,-17l748 281c13,6 16,16 7,31l-424 683c-7,8 -24,10 -29,-2 -123,-194 -323,-722 -331,-976l-1 0z"/>
   <path fill="#FEFEFE" d="M1331 294c14,-9 27,5 26,22l-37 799c-2,15 -11,20 -27,16l-780 -192c-10,-4 -16,-19 -7,-28 146,-177 587,-529 826,-616l0 -1z"/>
  </g>
 </g>
 <g id="Layer_x0020_1_0">
  <metadata id="CorelCorpID_1Corel-Layer"/>
 </g>
 <g id="Layer_x0020_1_1">
  <metadata id="CorelCorpID_2Corel-Layer"/>
 </g>
 <g id="Layer_x0020_1_0_2">
  <metadata id="CorelCorpID_3Corel-Layer"/>
 </g>
 <g id="Layer_x0020_1_0_3">
  <metadata id="CorelCorpID_4Corel-Layer"/>
 </g>
 <g id="Layer_x0020_1_4">
  <metadata id="CorelCorpID_5Corel-Layer"/>
 </g>
 <g id="Layer_x0020_1_0_5">
  <metadata id="CorelCorpID_6Corel-Layer"/>
 </g>
 <g id="Layer_x0020_1_0_6">
  <metadata id="CorelCorpID_7Corel-Layer"/>
 </g>
 <g id="Layer_x0020_1_0_7">
  <metadata id="CorelCorpID_8Corel-Layer"/>
 </g>
 <g id="Layer_x0020_1_0_8">
  <metadata id="CorelCorpID_9Corel-Layer"/>
 </g>
 <g id="Layer_x0020_1_0_2_9">
  <metadata id="CorelCorpID_10Corel-Layer"/>
 </g>
 <g id="Layer_x0020_1_0_2_8">
  <metadata id="CorelCorpID_11Corel-Layer"/>
 </g>
 <g id="Layer_x0020_1_0_10">
  <metadata id="CorelCorpID_12Corel-Layer"/>
 </g>
 <g id="Layer_x0020_1_1_11">
  <metadata id="CorelCorpID_13Corel-Layer"/>
 </g>
 <g id="Layer_x0020_1_12">
  <metadata id="CorelCorpID_14Corel-Layer"/>
 </g>
</svg>
