

<!-- Creator: CorelDRAW X6 -->
<svg xmlns="http://www.w3.org/2000/svg" x="0" y="0" xml:space="preserve" width="25mm" height="25mm" version="1.1" shape-rendering="geometricPrecision" text-rendering="geometricPrecision" image-rendering="optimizeQuality" fill-rule="evenodd" clip-rule="evenodd"
viewBox="0 0 2500 2500"
 xmlns:xlink="http://www.w3.org/1999/xlink"
 enable-background="new 0 0 912.7 290.1">
 <g id="Layer_x0020_1">
  <metadata id="CorelCorpID_0Corel-Layer"/>
 </g>
 <g id="Layer_x0020_1_0">
  <metadata id="CorelCorpID_1Corel-Layer"/>
 </g>
 <g id="Layer_x0020_1_0_1">
  <metadata id="CorelCorpID_2Corel-Layer"/>
 </g>
 <g id="Layer_x0020_1_0_2">
  <metadata id="CorelCorpID_3Corel-Layer"/>
 </g>
 <g id="Layer_x0020_1_3">
  <metadata id="CorelCorpID_4Corel-Layer"/>
 </g>
 <g id="Layer_x0020_1_0_4">
  <metadata id="CorelCorpID_5Corel-Layer"/>
 </g>
 <g id="Layer_x0020_1_0_5">
  <metadata id="CorelCorpID_6Corel-Layer"/>
 </g>
 <g id="Layer_x0020_1_0_6">
  <metadata id="CorelCorpID_7Corel-Layer"/>
 </g>
 <g id="Layer_x0020_1_0_7">
  <metadata id="CorelCorpID_8Corel-Layer"/>
 </g>
 <g id="Layer_x0020_1_0_2_8">
  <metadata id="CorelCorpID_9Corel-Layer"/>
 </g>
 <g id="Layer_x0020_1_0_2_8_9">
  <metadata id="CorelCorpID_10Corel-Layer"/>
 </g>
 <g id="Layer_x0020_1_0_10">
  <metadata id="CorelCorpID_11Corel-Layer"/>
 </g>
 <g id="Layer_x0020_1_1">
  <metadata id="CorelCorpID_12Corel-Layer"/>
 </g>
 <g id="Layer_x0020_1_11">
  <metadata id="CorelCorpID_13Corel-Layer"/>
 </g>
 <g id="Layer_x0020_1_12">
  <metadata id="CorelCorpID_14Corel-Layer"/>
  <g id="_151709400">
   <path fill="#F5C31C" d="M1250 56c659,0 1195,536 1195,1195 0,657 -536,1195 -1195,1195 -657,0 -1195,-538 -1195,-1195 0,-659 538,-1195 1195,-1195z"/>
   <path fill="#1B5A3C" d="M929 513c0,0 123,-165 309,-168 187,-5 293,114 293,114l640 718c0,0 131,124 83,266 -48,141 -316,445 -988,459 -674,13 -956,-339 -956,-339 0,0 -138,-183 0,-343 136,-160 620,-706 620,-706l-1 0z"/>
   <path fill="#D9DADA" d="M1265 574c0,0 -119,-18 -208,76 -88,93 -81,215 -81,215l79 -113c0,0 10,-7 5,-22 -5,-13 -7,-17 -7,-17l0 -22 341 -3c0,0 93,-3 93,91 0,94 -64,99 -64,99 0,0 99,20 99,129 0,111 -118,139 -118,139l-255 2c0,0 -22,-17 2,-27 25,-8 35,-13 35,-25 0,-13 0,-13 0,-13 0,0 -56,-7 -94,-56 -38,-47 -30,-124 -30,-124l-50 -2 -32 48c0,0 15,121 74,175 59,54 99,104 238,98 139,-5 242,-78 242,-78l27 -23c0,0 10,-20 30,-8 20,10 -20,53 -20,53 0,0 -84,114 -301,128 -215,13 -367,-212 -356,-223 8,-10 -33,40 -10,53 23,13 12,32 12,32l-158 2c0,0 -10,5 -10,-15 0,-18 17,-17 17,-17 0,0 58,-2 76,-32 18,-28 47,-73 47,-73 0,0 -17,-96 -13,-136 3,-40 33,-254 198,-324 167,-69 331,-13 331,-13 0,0 30,17 53,0 22,-17 30,-33 47,-2 15,32 48,84 48,84 0,0 15,47 -52,8 -69,-38 -180,-63 -180,-63l-54 0 1 -2zm-136 329l58 0 0 116c0,0 -32,-7 -45,-35 -13,-27 -12,-81 -12,-81l-1 0zm-83 -47l23 2c0,0 13,-38 45,-63 33,-23 71,-33 71,-33 0,0 8,-30 -15,-28 -25,2 -45,3 -45,3 0,0 -13,0 -22,18 -10,18 -58,101 -58,101zm84 -2l54 0 0 -59c0,0 -22,3 -37,25 -17,22 -17,33 -17,33l-1 1zm128 -71l0 71 108 0c0,0 42,-10 42,-66 0,-54 -42,-59 -42,-59l-108 0 0 28 61 2c0,0 17,-18 35,3 18,22 20,33 20,33 0,0 3,38 -33,5 -37,-33 -83,-18 -83,-18l0 1zm3 121l3 131c0,0 48,10 86,-22 37,-32 28,-27 28,-27 0,0 5,-5 17,3 12,10 -7,33 -7,33 0,0 -12,20 -47,38 -35,17 -74,20 -74,20l-2 18c0,0 23,13 61,12 35,-2 45,-5 45,-5 0,0 71,-20 71,-104 0,-83 -83,-99 -83,-99l-99 0 0 1z"/>
   <path fill="#D9DADA" d="M899 455c0,0 138,-167 338,-172 200,-5 319,119 319,119l696 761c0,0 119,143 68,296 -53,153 -329,496 -1054,510 -725,15 -1029,-377 -1029,-377 0,0 -143,-232 5,-405 148,-172 657,-733 657,-733l0 1zm33 63c0,0 121,-163 306,-167 185,-5 289,114 289,114l635 711c0,0 129,123 81,263 -47,141 -313,442 -978,455 -667,13 -948,-338 -948,-338 0,0 -136,-182 0,-339 136,-158 615,-700 615,-700l-1 0z"/>
   <path fill="#D9DADA" d="M673 1517l-68 88 -298 -213 12 -15c5,3 12,7 18,12 8,3 13,7 17,7 7,2 12,2 17,0 3,-2 8,-5 12,-10l133 -203c3,-5 5,-8 7,-13 0,-5 -2,-10 -7,-17 -3,-5 -8,-12 -13,-17 -7,-7 -12,-10 -15,-13l10 -17 178 128 -12 15c-5,-2 -10,-5 -18,-10 -7,-3 -12,-7 -18,-8 -7,-3 -13,-3 -17,-2 -5,3 -8,7 -12,12l-124 188c-7,8 -10,17 -12,22 -2,7 -2,13 0,18 2,5 7,10 13,17 7,5 15,12 28,22 12,8 23,17 37,23 12,7 22,10 30,8 12,0 25,-5 42,-12 17,-7 30,-13 42,-20l17 12 2 0z"/>
   <path fill="#D9DADA" d="M1042 1439c10,18 17,38 18,63 3,22 -2,45 -10,71 -8,23 -20,43 -35,63 -15,17 -32,32 -53,42 -22,12 -43,18 -69,22 -23,2 -50,0 -79,-8 -23,-7 -45,-17 -63,-30 -18,-12 -33,-28 -43,-47 -12,-18 -18,-38 -20,-61 -2,-22 2,-45 10,-71 10,-25 22,-47 38,-64 17,-18 35,-33 56,-43 22,-10 43,-15 69,-18 23,-2 47,2 73,8 23,7 45,17 64,30 18,13 32,28 43,45zm-139 207c12,-12 22,-25 32,-42 8,-15 17,-33 25,-56 5,-17 10,-35 15,-53 3,-18 3,-35 2,-50 -2,-15 -7,-27 -13,-38 -8,-10 -20,-18 -37,-23 -27,-7 -53,0 -76,22 -23,20 -43,54 -59,99 -7,18 -12,38 -15,56 -3,18 -3,35 -2,48 2,15 7,28 15,38 7,10 18,17 33,20 15,5 30,5 43,0 13,-3 25,-12 35,-22l2 0z"/>
   <path fill="#D9DADA" d="M1381 1486l-17 0c-3,-15 -12,-30 -22,-45 -10,-17 -18,-25 -27,-25 -5,-2 -10,-2 -17,-2 -7,0 -13,0 -18,0l-10 0 5 261c0,5 0,10 2,13 3,5 7,8 12,10 3,2 8,3 15,5 7,0 13,2 18,2l0 18 -170 3 0 -18c3,0 10,-2 17,-2 8,-2 13,-2 15,-3 5,-3 10,-7 12,-10 2,-5 2,-10 2,-15l-3 -263 -10 0c-5,0 -12,0 -18,0 -7,2 -12,2 -17,2 -8,2 -17,12 -27,27 -8,17 -15,32 -20,47l-17 0 -2 -96 296 -5 2 96 -1 0z"/>
   <path fill="#D9DADA" d="M1780 1298c-5,2 -12,5 -18,10 -8,3 -15,8 -20,13 -5,5 -7,13 -7,23 0,10 2,25 7,43l32 116c8,35 3,66 -15,93 -20,28 -48,48 -89,61 -47,13 -88,13 -118,0 -32,-12 -52,-37 -61,-73l-42 -160c-2,-7 -5,-10 -7,-13 -3,-3 -8,-5 -15,-7 -5,0 -10,0 -17,0 -5,0 -10,2 -15,2l-3 -17 173 -48 3 17c-3,2 -8,3 -13,5 -5,3 -10,5 -15,8 -5,3 -8,8 -10,12 0,5 0,10 2,15l40 158c8,30 22,53 40,61 18,10 40,12 69,3 27,-7 45,-20 58,-40 12,-20 13,-45 5,-76l-28 -106c-5,-18 -10,-32 -15,-40 -5,-8 -10,-15 -17,-17 -5,-3 -13,-3 -23,-3 -12,0 -18,0 -23,2l-3 -17 143 -42 5 17 -2 -1z"/>
   <path fill="#D9DADA" d="M2047 1486c-20,12 -40,20 -61,25 -20,7 -37,10 -53,12l-8 22 -20 12 -58 -99 20 -12c10,8 22,15 33,20 13,7 25,12 40,15 13,3 28,5 42,3 15,-2 30,-7 45,-15 22,-13 35,-27 42,-42 7,-15 7,-28 0,-42 -5,-10 -15,-17 -28,-18 -13,-2 -32,0 -56,5 -15,5 -28,8 -40,12 -13,3 -25,7 -37,8 -25,5 -47,5 -66,-3 -18,-7 -32,-20 -42,-37 -5,-12 -8,-23 -8,-37 2,-12 5,-25 12,-40 5,-13 15,-27 28,-40 13,-15 30,-27 48,-37 18,-12 37,-18 56,-23 18,-5 33,-8 45,-8l7 -20 22 -12 53 93 -20 12c-10,-7 -22,-13 -33,-22 -12,-7 -23,-12 -33,-15 -12,-3 -23,-3 -37,-2 -12,0 -25,5 -38,13 -17,8 -28,20 -35,35 -5,13 -5,27 0,38 7,10 15,17 28,18 13,2 30,0 54,-5 13,-3 27,-7 40,-12 13,-3 25,-7 37,-8 27,-5 48,-5 68,0 18,7 33,20 43,38 7,12 8,25 8,40 -2,15 -5,30 -12,43 -8,15 -20,30 -33,43 -13,13 -32,27 -54,40l2 0z"/>
   <path fill="#D9DADA" d="M1250 0c690,0 1251,561 1251,1251 0,688 -561,1249 -1251,1249 -690,0 -1251,-561 -1251,-1249 0,-690 561,-1251 1251,-1251zm0 64c654,0 1187,533 1187,1187 0,652 -533,1185 -1187,1185 -652,0 -1185,-533 -1185,-1185 0,-654 533,-1187 1185,-1187z"/>
  </g>
 </g>
</svg>
