

<!-- Creator: CorelDRAW X6 -->
<svg xmlns="http://www.w3.org/2000/svg" x="0" y="0" xml:space="preserve" width="17mm" height="25mm" version="1.1" shape-rendering="geometricPrecision" text-rendering="geometricPrecision" image-rendering="optimizeQuality" fill-rule="evenodd" clip-rule="evenodd"
viewBox="0 0 1700 2500"
 xmlns:xlink="http://www.w3.org/1999/xlink"
 enable-background="new 0 0 912.7 290.1">
 <g id="Layer_x0020_1">
  <metadata id="CorelCorpID_0Corel-Layer"/>
 </g>
 <g id="Layer_x0020_1_0">
  <metadata id="CorelCorpID_1Corel-Layer"/>
 </g>
 <g id="Layer_x0020_1_0_1">
  <metadata id="CorelCorpID_2Corel-Layer"/>
 </g>
 <g id="Layer_x0020_1_0_2">
  <metadata id="CorelCorpID_3Corel-Layer"/>
 </g>
 <g id="Layer_x0020_1_3">
  <metadata id="CorelCorpID_4Corel-Layer"/>
 </g>
 <g id="Layer_x0020_1_0_4">
  <metadata id="CorelCorpID_5Corel-Layer"/>
 </g>
 <g id="Layer_x0020_1_0_5">
  <metadata id="CorelCorpID_6Corel-Layer"/>
 </g>
 <g id="Layer_x0020_1_0_6">
  <metadata id="CorelCorpID_7Corel-Layer"/>
 </g>
 <g id="Layer_x0020_1_0_7">
  <metadata id="CorelCorpID_8Corel-Layer"/>
 </g>
 <g id="Layer_x0020_1_0_2_8">
  <metadata id="CorelCorpID_9Corel-Layer"/>
 </g>
 <g id="Layer_x0020_1_0_2_8_9">
  <metadata id="CorelCorpID_10Corel-Layer"/>
 </g>
 <g id="Layer_x0020_1_0_10">
  <metadata id="CorelCorpID_11Corel-Layer"/>
 </g>
 <g id="Layer_x0020_1_1">
  <metadata id="CorelCorpID_12Corel-Layer"/>
 </g>
 <g id="Layer_x0020_1_11">
  <metadata id="CorelCorpID_13Corel-Layer"/>
 </g>
 <g id="Layer_x0020_1_12">
  <metadata id="CorelCorpID_14Corel-Layer"/>
  <g id="_1_x0020__x0028_60_x0029_.eps">
   <path fill="#2B2A29" d="M665 63l181 -32 181 32 54 971 -54 971 -181 32 -181 -32 -54 -971 54 -971zm52 46l130 -23 130 23 52 926 -52 926 -130 23 -130 -23 -52 -926 52 -926z"/>
   <path fill="#2B2A29" d="M845 0c12,332 25,662 38,994 89,12 179,23 268,36l0 10c-89,12 -179,23 -268,36 -13,332 -25,662 -38,994l-5 0c-13,-332 -25,-662 -38,-994 -87,-12 -172,-23 -259,-36l0 -10c87,-12 172,-23 259,-36 12,-332 25,-662 38,-994l5 0z"/>
   <path fill="#2B2A29" d="M186 2428l-8 67 -169 0 0 -5 7 0c6,0 10,-1 13,-3 3,-2 4,-3 6,-7 1,-3 2,-8 2,-17l0 -126c0,-10 -1,-16 -2,-18 -1,-3 -3,-4 -7,-7 -3,-2 -8,-3 -13,-3l-7 0 0 -5 102 0 0 5 -8 0c-6,0 -10,1 -13,3 -3,2 -4,3 -6,7 -1,3 -2,8 -2,18l0 122c0,10 1,16 2,18 1,3 3,5 7,6 3,1 8,2 17,2l16 0c10,0 18,-2 25,-5 7,-3 13,-9 18,-17 5,-8 10,-19 14,-34l6 0 1 0zm173 62l0 5 -100 0 0 -5 7 0c6,0 10,-1 13,-3 3,-2 4,-3 6,-7 1,-3 2,-8 2,-17l0 -126c0,-10 -1,-16 -2,-18 -1,-3 -3,-4 -6,-7 -3,-2 -7,-3 -12,-3l-7 0 0 -5 100 0 0 5 -7 0c-6,0 -10,1 -13,3 -3,2 -4,3 -6,7 -1,3 -2,8 -2,18l0 126c0,10 1,16 2,18 1,3 3,4 7,7 3,2 8,3 13,3l7 0 -1 0zm137 -186l94 118 0 -82c0,-12 -2,-19 -5,-23 -4,-6 -12,-8 -23,-8l0 -5 63 0 0 5c-8,1 -13,3 -16,4 -3,2 -5,4 -7,8 -2,3 -3,10 -3,19l0 159 -5 0 -129 -159 0 122c0,11 3,18 8,23 5,4 11,6 17,6l4 0 0 5 -67 0 0 -5c11,0 18,-3 22,-7 4,-4 6,-12 6,-22l0 -135 -4 -5c-4,-5 -8,-8 -11,-10 -3,-2 -8,-3 -13,-3l0 -5 67 0 1 -2zm387 -4l0 66 -6 0c-4,-18 -12,-31 -23,-40 -11,-9 -24,-14 -38,-14 -12,0 -22,3 -32,10 -10,7 -17,16 -22,27 -6,14 -9,30 -9,47 0,17 3,32 7,47 4,14 11,25 20,32 9,8 21,11 36,11 12,0 23,-3 33,-8 10,-5 21,-14 32,-27l0 17c-11,11 -22,19 -33,24 -12,5 -25,8 -41,8 -20,0 -38,-4 -54,-12 -16,-8 -28,-20 -37,-35 -8,-15 -13,-32 -13,-49 0,-18 5,-36 14,-52 9,-17 23,-29 38,-38 16,-9 33,-13 52,-13 13,0 28,3 42,8 8,3 14,5 17,5 3,0 6,-1 8,-3 3,-2 3,-6 4,-11l6 0 0 3zm185 2c30,-1 55,8 74,27 19,19 28,42 28,71 0,24 -7,46 -21,64 -19,24 -45,37 -79,37 -34,0 -61,-12 -80,-35 -15,-18 -22,-40 -22,-66 0,-28 10,-52 29,-71 19,-19 43,-27 71,-27zm2 9c-17,0 -31,9 -40,27 -7,15 -11,36 -11,63 0,32 6,57 18,72 8,11 19,17 33,17 10,0 17,-3 24,-7 8,-6 15,-16 19,-29 5,-13 7,-30 7,-52 0,-25 -3,-44 -7,-57 -5,-12 -11,-22 -18,-27 -8,-5 -16,-7 -25,-7l0 -1zm351 117l-8 67 -169 0 0 -5 7 0c6,0 10,-1 13,-3 3,-2 4,-3 6,-7 1,-3 2,-8 2,-17l0 -126c0,-10 -1,-16 -2,-18 -1,-3 -3,-4 -7,-7 -3,-2 -8,-3 -13,-3l-7 0 0 -5 102 0 0 5 -8 0c-6,0 -10,1 -13,3 -3,2 -4,3 -6,7 -1,3 -2,8 -2,18l0 122c0,10 1,16 2,18 1,3 3,5 7,6 3,1 8,2 17,2l16 0c10,0 18,-2 25,-5 7,-3 12,-9 17,-17 5,-8 10,-19 14,-34l6 0 1 0zm140 -124l94 118 0 -82c0,-12 -2,-19 -5,-23 -4,-6 -12,-8 -23,-8l0 -5 63 0 0 5c-8,1 -13,3 -16,4 -3,2 -5,4 -7,8 -2,3 -3,10 -3,19l0 159 -5 0 -129 -159 0 122c0,11 3,18 8,23 5,4 11,6 17,6l4 0 0 5 -67 0 0 -5c11,0 18,-3 22,-7 4,-4 6,-12 6,-22l0 -135 -4 -5c-4,-5 -8,-8 -11,-10 -3,-2 -8,-3 -13,-3l0 -5 67 0 1 -2z"/>
  </g>
 </g>
</svg>
