

<!-- Creator: CorelDRAW X6 -->
<svg xmlns="http://www.w3.org/2000/svg" x="0" y="0" xml:space="preserve" width="25mm" height="25mm" version="1.1" shape-rendering="geometricPrecision" text-rendering="geometricPrecision" image-rendering="optimizeQuality" fill-rule="evenodd" clip-rule="evenodd"
viewBox="0 0 2500 2500"
 xmlns:xlink="http://www.w3.org/1999/xlink"
 enable-background="new 0 0 912.7 290.1">
 <g id="Layer_x0020_1">
  <metadata id="CorelCorpID_0Corel-Layer"/>
  <g id="_383342872">
   <path fill="#B2B3B3" d="M1250 0c690,0 1250,560 1250,1250 0,690 -560,1250 -1250,1250 -690,0 -1250,-560 -1250,-1250 0,-690 560,-1250 1250,-1250zm0 115c627,0 1135,508 1135,1135 0,627 -508,1135 -1135,1135 -627,0 -1135,-508 -1135,-1135 0,-627 508,-1135 1135,-1135z"/>
   <polygon fill="#D9DADA" fill-rule="nonzero" points="1255,1298 2243,1830 1488,1197 "/>
   <polygon fill="#D9DADA" fill-rule="nonzero" points="1491,1197 1270,120 1255,1299 "/>
   <polygon fill="#D9DADA" fill-rule="nonzero" points="1255,1304 276,1809 273,1807 1270,1500 1255,1298 "/>
   <polygon fill="#C5C6C6" fill-rule="nonzero" points="1255,1299 1270,120 1270,119 1051,1187 1255,1304 "/>
   <polygon fill="#C5C6C6" fill-rule="nonzero" points="1255,1298 1270,1500 2238,1830 "/>
   <polygon fill="#C5C6C6" fill-rule="nonzero" points="1051,1187 276,1809 1255,1304 "/>
  </g>
 </g>
 <g id="Layer_x0020_1_0">
  <metadata id="CorelCorpID_1Corel-Layer"/>
 </g>
 <g id="Layer_x0020_1_1">
  <metadata id="CorelCorpID_2Corel-Layer"/>
 </g>
 <g id="Layer_x0020_1_0_2">
  <metadata id="CorelCorpID_3Corel-Layer"/>
 </g>
 <g id="Layer_x0020_1_0_3">
  <metadata id="CorelCorpID_4Corel-Layer"/>
 </g>
 <g id="Layer_x0020_1_4">
  <metadata id="CorelCorpID_5Corel-Layer"/>
 </g>
 <g id="Layer_x0020_1_0_5">
  <metadata id="CorelCorpID_6Corel-Layer"/>
 </g>
 <g id="Layer_x0020_1_0_6">
  <metadata id="CorelCorpID_7Corel-Layer"/>
 </g>
 <g id="Layer_x0020_1_0_7">
  <metadata id="CorelCorpID_8Corel-Layer"/>
 </g>
 <g id="Layer_x0020_1_0_8">
  <metadata id="CorelCorpID_9Corel-Layer"/>
 </g>
 <g id="Layer_x0020_1_0_2_9">
  <metadata id="CorelCorpID_10Corel-Layer"/>
 </g>
 <g id="Layer_x0020_1_0_2_8">
  <metadata id="CorelCorpID_11Corel-Layer"/>
 </g>
 <g id="Layer_x0020_1_0_10">
  <metadata id="CorelCorpID_12Corel-Layer"/>
 </g>
 <g id="Layer_x0020_1_1_11">
  <metadata id="CorelCorpID_13Corel-Layer"/>
 </g>
 <g id="Layer_x0020_1_12">
  <metadata id="CorelCorpID_14Corel-Layer"/>
 </g>
</svg>
