

<!-- Creator: CorelDRAW X6 -->
<svg xmlns="http://www.w3.org/2000/svg" x="0" y="0" xml:space="preserve" width="50mm" height="25mm" version="1.1" shape-rendering="geometricPrecision" text-rendering="geometricPrecision" image-rendering="optimizeQuality" fill-rule="evenodd" clip-rule="evenodd"
viewBox="0 0 5000 2500"
 xmlns:xlink="http://www.w3.org/1999/xlink"
 enable-background="new 0 0 912.7 290.1">
 <g id="Layer_x0020_1">
  <metadata id="CorelCorpID_0Corel-Layer"/>
 </g>
 <g id="Layer_x0020_1_0">
  <metadata id="CorelCorpID_1Corel-Layer"/>
 </g>
 <g id="Layer_x0020_1_0_1">
  <metadata id="CorelCorpID_2Corel-Layer"/>
 </g>
 <g id="Layer_x0020_1_0_2">
  <metadata id="CorelCorpID_3Corel-Layer"/>
 </g>
 <g id="Layer_x0020_1_3">
  <metadata id="CorelCorpID_4Corel-Layer"/>
 </g>
 <g id="Layer_x0020_1_0_4">
  <metadata id="CorelCorpID_5Corel-Layer"/>
 </g>
 <g id="Layer_x0020_1_0_5">
  <metadata id="CorelCorpID_6Corel-Layer"/>
 </g>
 <g id="Layer_x0020_1_0_6">
  <metadata id="CorelCorpID_7Corel-Layer"/>
 </g>
 <g id="Layer_x0020_1_0_7">
  <metadata id="CorelCorpID_8Corel-Layer"/>
 </g>
 <g id="Layer_x0020_1_0_2_8">
  <metadata id="CorelCorpID_9Corel-Layer"/>
 </g>
 <g id="Layer_x0020_1_0_2_8_9">
  <metadata id="CorelCorpID_10Corel-Layer"/>
 </g>
 <g id="Layer_x0020_1_0_10">
  <metadata id="CorelCorpID_11Corel-Layer"/>
 </g>
 <g id="Layer_x0020_1_1">
  <metadata id="CorelCorpID_12Corel-Layer"/>
 </g>
 <g id="Layer_x0020_1_11">
  <metadata id="CorelCorpID_13Corel-Layer"/>
 </g>
 <g id="Layer_x0020_1_12">
  <metadata id="CorelCorpID_14Corel-Layer"/>
 </g>
 <g id="Layer_x0020_1_12">
  <metadata id="CorelCorpID_15Corel-Layer"/>
  <g id="_360629208">
   <path fill="#FEFEFE" d="M58 1250c0,-684 1089,-1239 2442,-1239 1353,0 2442,555 2442,1239 0,684 -1089,1239 -2442,1239 -1353,0 -2442,-555 -2442,-1239z"/>
   <path fill="#D5232F" d="M2500 236c1380,0 2216,565 2216,1014 0,449 -836,1014 -2216,1014 -1380,0 -2216,-565 -2216,-1014 0,-449 836,-1014 2216,-1014z"/>
   <path fill="#2B2A29" d="M2500 0c1351,0 2452,554 2452,1250 0,696 -1101,1250 -2452,1250 -1351,0 -2452,-554 -2452,-1250 0,-696 1101,-1250 2452,-1250zm0 21c-1353,0 -2431,555 -2431,1229 0,673 1078,1229 2431,1229 1353,0 2431,-555 2431,-1229 0,-673 -1078,-1229 -2431,-1229z"/>
   <path fill="#2B2A29" d="M4727 1250c0,460 -848,1025 -2227,1025 -1379,0 -2227,-564 -2227,-1025 0,-460 848,-1025 2227,-1025 1379,0 2227,564 2227,1025zm-21 0c0,-438 -824,-1003 -2206,-1003 -1382,0 -2206,565 -2206,1003 0,438 824,1003 2206,1003 1382,0 2206,-565 2206,-1003z"/>
   <path fill="#D5232F" d="M2557 123c0,31 -25,57 -57,57 -31,0 -57,-25 -57,-57 0,-31 25,-57 57,-57 31,0 57,25 57,57z"/>
   <path fill="#D5232F" d="M2370 125c1,31 -23,58 -54,58 -31,1 -58,-23 -58,-54 -1,-31 23,-58 54,-58 31,-1 58,23 58,54z"/>
   <path fill="#D5232F" d="M2184 133c3,31 -21,58 -53,60 -31,3 -58,-21 -60,-53 -3,-31 21,-58 53,-60 31,-3 58,21 60,53z"/>
   <path fill="#D5232F" d="M1999 149c4,31 -18,59 -49,63 -31,4 -59,-18 -63,-49 -4,-31 18,-59 49,-63 31,-4 59,18 63,49z"/>
   <path fill="#D5232F" d="M1814 173c5,31 -16,60 -47,64 -31,5 -60,-16 -64,-47 -5,-31 16,-60 47,-64 31,-5 60,16 64,47z"/>
   <path fill="#D5232F" d="M1631 204c7,31 -13,60 -43,67 -31,7 -60,-13 -67,-43 -7,-31 13,-60 43,-67 31,-7 60,13 67,43z"/>
   <path fill="#D5232F" d="M1449 245c8,30 -10,61 -40,69 -30,8 -61,-10 -69,-40 -8,-30 10,-61 40,-69 30,-8 61,10 69,40z"/>
   <path fill="#D5232F" d="M1270 295c10,30 -7,62 -36,71 -30,10 -62,-7 -71,-36 -10,-30 7,-62 36,-71 30,-10 62,7 71,36z"/>
   <path fill="#D5232F" d="M1094 355c11,29 -3,62 -33,73 -29,11 -62,-3 -73,-33 -11,-29 3,-62 33,-73 29,-11 62,3 73,33z"/>
   <path fill="#D5232F" d="M922 426c13,28 2,62 -26,75 -28,13 -62,2 -75,-26 -13,-28 -2,-62 26,-75 28,-13 62,-2 75,26z"/>
   <path fill="#D5232F" d="M756 509c16,27 8,62 -19,78 -27,16 -62,8 -78,-19 -16,-27 -8,-62 19,-78 27,-16 62,-8 78,19z"/>
   <path fill="#D5232F" d="M597 608c18,25 13,60 -13,78 -25,18 -60,13 -78,-13 -18,-25 -13,-60 13,-78 25,-18 60,-13 78,13z"/>
   <path fill="#D5232F" d="M451 722c22,22 22,58 0,80 -22,22 -58,22 -80,0 -22,-22 -22,-58 0,-80 22,-22 58,-22 80,0z"/>
   <path fill="#D5232F" d="M322 858c26,18 32,53 14,78 -18,26 -53,32 -78,14 -26,-18 -32,-53 -14,-78 18,-26 53,-32 78,-14z"/>
   <path fill="#D5232F" d="M222 1014c29,10 45,43 35,72 -10,29 -43,45 -72,35 -29,-10 -45,-43 -35,-72 10,-29 43,-45 72,-35z"/>
   <path fill="#D5232F" d="M2557 2377c0,31 -25,57 -57,57 -31,0 -57,-25 -57,-57 0,-31 25,-57 57,-57 31,0 57,25 57,57z"/>
   <path fill="#D5232F" d="M2370 2375c-1,31 -28,56 -58,54 -31,-1 -56,-28 -54,-58 1,-31 28,-56 58,-54 31,1 56,28 54,58z"/>
   <path fill="#D5232F" d="M2184 2367c-3,31 -29,54 -60,53 -31,-3 -54,-29 -53,-60 3,-31 29,-54 60,-53 31,3 54,29 53,60z"/>
   <path fill="#D5232F" d="M1999 2351c-4,31 -32,53 -63,49 -31,-4 -53,-32 -49,-63 4,-31 32,-53 63,-49 31,4 53,32 49,63z"/>
   <path fill="#D5232F" d="M1814 2327c-5,31 -33,52 -64,47 -31,-5 -52,-33 -47,-64 5,-31 33,-52 64,-47 31,5 52,33 47,64z"/>
   <path fill="#D5232F" d="M1631 2296c-7,31 -37,50 -67,43 -31,-7 -50,-37 -43,-67 7,-31 37,-50 67,-43 31,7 50,37 43,67z"/>
   <path fill="#D5232F" d="M1449 2255c-8,30 -39,48 -69,40 -30,-8 -48,-39 -40,-69 8,-30 39,-48 69,-40 30,8 48,39 40,69z"/>
   <path fill="#D5232F" d="M1270 2205c-10,30 -42,46 -71,36 -30,-10 -46,-42 -36,-71 10,-30 42,-46 71,-36 30,10 46,42 36,71z"/>
   <path fill="#D5232F" d="M1094 2145c-11,29 -43,43 -73,33 -29,-11 -43,-43 -33,-73 11,-29 44,-43 73,-33 29,11 43,43 33,73z"/>
   <path fill="#D5232F" d="M922 2074c-13,28 -48,40 -75,26 -28,-13 -40,-48 -26,-75 13,-28 48,-40 75,-26 28,13 40,48 26,75z"/>
   <path fill="#D5232F" d="M756 1991c-16,27 -51,35 -78,19 -27,-16 -35,-51 -19,-78 16,-27 51,-35 78,-19 27,16 35,51 19,78z"/>
   <path fill="#D5232F" d="M597 1892c-18,25 -53,31 -78,13 -25,-18 -31,-53 -13,-78 18,-25 53,-31 78,-13 25,18 31,53 13,78z"/>
   <path fill="#D5232F" d="M451 1778c-22,22 -58,22 -80,0 -22,-22 -22,-58 0,-80 22,-22 58,-22 80,0 22,22 22,58 0,80z"/>
   <path fill="#D5232F" d="M322 1643c-26,18 -61,12 -78,-14 -18,-26 -12,-61 14,-78 26,-18 61,-12 78,14 18,26 12,61 -14,78z"/>
   <path fill="#D5232F" d="M222 1486c-29,10 -62,-6 -72,-35 -10,-29 6,-62 35,-72 29,-10 62,6 72,35 10,29 -6,62 -35,72z"/>
   <path fill="#D5232F" d="M173 1307c-31,1 -58,-23 -58,-54 -1,-31 23,-58 54,-58 31,-1 58,23 58,54 1,31 -23,58 -54,58z"/>
   <path fill="#D5232F" d="M4831 1193c31,1 56,28 54,58 -1,31 -28,56 -58,54 -31,-1 -56,-28 -54,-58 1,-31 28,-56 58,-54z"/>
   <path fill="#D5232F" d="M4814 1379c29,10 45,43 35,72 -10,29 -43,45 -72,35 -29,-10 -45,-43 -35,-72 10,-29 43,-45 72,-35z"/>
   <path fill="#D5232F" d="M4742 1550c26,18 32,53 14,78 -18,26 -53,32 -78,14 -26,-18 -32,-53 -14,-78 18,-26 53,-32 78,-14z"/>
   <path fill="#D5232F" d="M4629 1698c22,22 22,58 0,80 -22,22 -58,22 -80,0 -22,-22 -22,-58 0,-80 22,-22 58,-22 80,0z"/>
   <path fill="#D5232F" d="M4493 1826c18,25 13,60 -13,78 -25,18 -60,13 -78,-13 -18,-25 -13,-60 13,-78 25,-18 60,-13 78,13z"/>
   <path fill="#D5232F" d="M4341 1933c16,27 8,62 -19,78 -27,16 -62,8 -78,-19 -16,-27 -8,-62 19,-78 27,-16 62,-8 78,19z"/>
   <path fill="#D5232F" d="M4180 2025c13,28 2,62 -26,75 -28,13 -62,2 -75,-26 -13,-28 -2,-62 26,-75 28,-13 62,-2 75,26z"/>
   <path fill="#D5232F" d="M4011 2104c11,29 -3,62 -33,73 -29,11 -62,-3 -73,-33 -11,-29 3,-62 33,-73 29,-11 62,3 73,33z"/>
   <path fill="#D5232F" d="M3838 2170c10,30 -7,62 -36,71 -30,10 -62,-7 -71,-36 -10,-30 7,-62 36,-71 30,-10 62,7 71,36z"/>
   <path fill="#D5232F" d="M3660 2226c8,30 -10,61 -40,69 -30,8 -61,-10 -69,-40 -8,-30 10,-61 40,-69 30,-8 61,10 69,40z"/>
   <path fill="#D5232F" d="M3479 2273c7,31 -13,60 -43,67 -31,7 -60,-13 -67,-43 -7,-31 13,-60 43,-67 31,-7 60,13 67,43z"/>
   <path fill="#D5232F" d="M3297 2309c5,31 -16,60 -47,64 -31,5 -60,-16 -64,-47 -5,-31 16,-60 47,-64 31,-5 60,16 64,47z"/>
   <path fill="#D5232F" d="M3113 2338c4,31 -18,59 -49,63 -31,4 -59,-18 -63,-49 -4,-31 18,-59 49,-63 31,-4 59,18 63,49z"/>
   <path fill="#D5232F" d="M2928 2358c3,31 -21,58 -53,60 -31,3 -58,-21 -60,-53 -3,-31 21,-58 53,-60 31,-3 58,21 60,53z"/>
   <path fill="#D5232F" d="M2743 2372c1,31 -23,58 -54,58 -31,1 -58,-23 -58,-54 -1,-31 23,-58 54,-58 31,-1 58,23 58,54z"/>
   <path fill="#D5232F" d="M2444 123c0,-31 25,-57 57,-57 31,0 57,25 57,57 0,31 -25,57 -57,57 -31,0 -57,-25 -57,-57z"/>
   <path fill="#D5232F" d="M2630 125c1,-31 28,-56 58,-54 31,1 56,28 54,58 -1,31 -28,56 -58,54 -31,-1 -56,-28 -54,-58z"/>
   <path fill="#D5232F" d="M2816 133c3,-31 29,-54 60,-53 31,3 54,29 53,60 -3,31 -29,54 -60,53 -31,-3 -54,-29 -53,-60z"/>
   <path fill="#D5232F" d="M3001 149c4,-31 32,-53 63,-49 31,4 53,32 49,63 -4,31 -32,53 -63,49 -31,-4 -53,-32 -49,-63z"/>
   <path fill="#D5232F" d="M3186 173c5,-31 33,-52 64,-47 31,5 52,33 47,64 -5,31 -33,52 -64,47 -31,-5 -52,-33 -47,-64z"/>
   <path fill="#D5232F" d="M3369 204c7,-31 37,-50 67,-43 31,7 50,37 43,67 -7,31 -37,50 -67,43 -31,-7 -50,-37 -43,-67z"/>
   <path fill="#D5232F" d="M3551 245c8,-30 39,-48 69,-40 30,8 48,39 40,69 -8,30 -39,48 -69,40 -30,-8 -48,-39 -40,-69z"/>
   <path fill="#D5232F" d="M3730 295c10,-30 42,-46 71,-36 30,10 46,42 36,71 -10,30 -42,46 -71,36 -30,-10 -46,-42 -36,-71z"/>
   <path fill="#D5232F" d="M3906 355c11,-29 43,-43 73,-33 29,11 43,44 33,73 -11,29 -43,43 -73,33 -29,-11 -43,-43 -33,-73z"/>
   <path fill="#D5232F" d="M4078 426c13,-28 48,-39 75,-26 28,13 39,48 26,75 -13,28 -48,40 -75,26 -28,-13 -39,-48 -26,-75z"/>
   <path fill="#D5232F" d="M4245 509c16,-27 51,-35 78,-19 27,16 35,51 19,78 -16,27 -51,35 -78,19 -27,-16 -35,-51 -19,-78z"/>
   <path fill="#D5232F" d="M4403 608c18,-25 53,-31 78,-13 25,18 31,53 13,78 -18,25 -53,31 -78,13 -25,-18 -31,-53 -13,-78z"/>
   <path fill="#D5232F" d="M4549 722c22,-22 58,-22 80,0 22,22 22,58 0,80 -22,22 -58,22 -80,0 -22,-22 -22,-58 0,-80z"/>
   <path fill="#D5232F" d="M4678 858c26,-18 61,-12 78,14 18,26 12,61 -14,78 -26,18 -61,12 -78,-14 -18,-26 -12,-61 14,-78z"/>
   <path fill="#D5232F" d="M4778 1014c29,-10 62,6 72,35 10,29 -6,62 -35,72 -29,10 -62,-6 -72,-35 -10,-29 6,-62 35,-72z"/>
   <path fill="#FEFEFE" d="M692 1643l243 0c102,0 173,-108 173,-198 0,-85 -40,-136 -87,-161l-18 -10 18 -11c42,-25 68,-95 68,-143 0,-60 -36,-143 -118,-170l3 -8c21,7 38,17 52,26 13,10 23,18 27,23 10,9 28,26 44,44 14,16 26,31 33,43 24,36 35,77 35,111 0,48 -25,117 -67,147l-3 2 32 32c33,31 57,78 57,144 0,93 -74,207 -183,207l-258 0 -65 -64 12 -13 1 0zm197 -90l-77 0 0 -234 87 0c38,0 69,34 81,78 -4,-1 -9,-2 -13,-2l-78 0 0 158zm0 -325c-3,0 -6,0 -9,0l-68 0 0 -196 68 0c41,0 78,28 85,78 -6,-2 -12,-2 -18,-2l-58 0 0 119z"/>
   <path fill="#FEFEFE" d="M1484 1660c113,0 211,-94 211,-209l0 -505 13 -13 65 64 0 520c0,120 -101,218 -220,218 -51,0 -104,-21 -158,-61 -38,-28 -74,-76 -80,-88 -3,-4 -11,-19 -21,-39l5 -2c36,67 107,113 186,113l-1 1zm-74 -727l65 64 0 520c0,6 1,12 2,17 -47,-3 -78,-41 -78,-84l0 -505 13 -13 -1 1z"/>
   <path fill="#FEFEFE" d="M1913 1583c-3,-5 -12,-21 -22,-42l5 -2c35,71 109,121 191,121 143,0 209,-83 209,-209l0 -162 13 -13 65 64 0 177c0,131 -69,218 -218,218 -54,0 -106,-21 -159,-61 -39,-29 -78,-81 -83,-93l0 1zm259 -131l-65 -64 13 -13 71 0 0 76 0 1 -18 0zm-173 -1l0 -318c0,-50 36,-93 87,-98 57,-5 97,32 103,83 -11,-4 -23,-8 -35,-6 -46,4 -78,43 -78,88l0 318c0,8 2,17 4,25 -48,-8 -81,-49 -81,-93zm248 -484c18,14 38,30 58,53 18,21 32,42 41,59 18,33 28,75 28,123l0 13 -126 0 -65 -64 13 -13 102 0 0 -3c0,-97 -38,-168 -122,-197l3 -9c28,9 51,23 71,38l-1 0z"/>
   <path fill="#FEFEFE" d="M2708 1406l-93 0 76 -336c5,-21 20,-20 23,0l33 160 -40 176 1 0zm118 249l12 -13 122 0 -161 -698 9 -12 65 64 172 721 -154 0 -65 -64 1 1zm-158 -69l-30 133 -150 0 -64 -64 16 -13 124 0 30 -133 212 0 16 77 -153 0 -1 0z"/>
   <path fill="#FEFEFE" d="M3158 1656l12 -13 120 0 0 -593 148 0 0 -105 13 -13 65 64 0 129 -148 0 0 593 -144 0 -65 -64 0 1zm-84 -528l-65 -64 12 -13 144 0 0 77 -92 0 1 0z"/>
   <path fill="#FEFEFE" d="M3617 1128l-65 -64 12 -13 144 0 0 77 -92 0 1 0zm377 -194l65 64 0 129 -148 0 0 593 -144 0 -65 -64 12 -13 120 0 0 -593 148 0 0 -105 13 -13 0 1z"/>
   <polygon fill="#FEFEFE" points="4255,933 4320,998 4320,1719 4176,1719 4111,1655 4123,1643 4243,1643 4243,946 "/>
   <path fill="#A79ECD" d="M1104 1120c0,-38 -14,-86 -43,-124 11,10 25,23 38,38 14,16 26,31 33,43 24,36 35,77 35,111 0,48 -25,117 -67,147l-3 2 32 32c33,31 57,78 57,144 0,93 -74,207 -183,207l-258 0 -63 -63 254 0c113,0 188,-118 188,-212 0,-89 -42,-144 -91,-172 46,-30 73,-103 73,-153l-3 0zm-215 418l-63 0 0 -207 73 0c28,0 54,26 66,63l-76 0 0 144zm-9 -493c33,0 63,21 71,63l-3 0 -58 0 0 105c-3,0 -6,1 -9,1l-54 0 0 -168 54 0z"/>
   <path fill="#A79ECD" d="M1475 1518l0 3c-38,-4 -63,-35 -63,-70l0 -516 63 63 0 520 1 1zm-143 95c40,38 94,60 152,60 121,0 224,-100 224,-223l0 -516 63 62 0 520c0,120 -101,218 -220,218 -51,0 -104,-21 -158,-61 -23,-18 -47,-43 -62,-63l1 2z"/>
   <path fill="#A79ECD" d="M1935 1613c41,38 95,61 153,61 152,0 223,-90 223,-223l0 -172 63 63 0 177c0,131 -69,218 -218,218 -54,0 -106,-21 -159,-61 -23,-18 -46,-43 -63,-63l2 0zm176 -223l68 0 0 62 0 1 -4 0 -63 -63 -1 0zm-22 -340c46,-4 79,23 88,64 -7,-2 -13,-3 -21,-2 -46,4 -78,43 -78,88l0 318c0,3 0,7 1,11 -38,-8 -63,-43 -63,-78l0 -318c0,-43 31,-80 74,-84zm97 101l126 0 0 -17c0,-65 -17,-120 -53,-159 15,13 31,27 48,45 18,21 32,42 41,59 18,33 28,75 28,123l0 13 -126 0 -63 -63 -1 -1z"/>
   <path fill="#A79ECD" d="M2712 1392l-78 0 71 -312 37 182 -29 130zm117 264l149 0 -166 -719 62 61 172 721 -154 0 -63 -63zm-403 0l149 0 30 -133 190 0 13 63 -138 0 -30 133 -150 0 -63 -63 -1 0z"/>
   <path fill="#A79ECD" d="M3159 1658l144 0 0 -593 148 0 0 -129 63 63 0 129 -148 0 0 593 -144 0 -63 -63zm-148 -593l141 0 0 63 -78 0 -63 -63z"/>
   <path fill="#A79ECD" d="M3553 1065l141 0 0 63 -78 0 -63 -63zm148 593l144 0 0 -593 148 0 0 -129 63 63 0 129 -148 0 0 593 -144 0 -63 -63z"/>
   <polygon fill="#A79ECD" points="4113,1657 4258,1657 4258,935 4320,998 4320,1719 4176,1719 "/>
   <path fill="#2B2A29" d="M676 1655l15 -15 245 0c99,0 171,-107 171,-195 0,-84 -39,-134 -85,-158l-23 -13 23 -13c40,-25 67,-93 67,-140 0,-60 -37,-143 -118,-168l5 -14c46,14 73,43 82,50 10,9 28,26 45,44 14,16 26,31 34,43 24,36 36,78 36,113 0,48 -25,118 -68,149l29 29c33,31 58,79 58,147 0,93 -74,210 -186,210l-260 0 -68 -68 -1 0zm216 -258l0 158 -83 0 0 -240 89 0c41,0 74,39 85,86 -6,-3 -12,-3 -18,-3l-74 0zm0 -287l0 119c-4,0 -8,1 -12,1l-71 0 0 -202 71 0c43,0 83,30 88,85 -7,-2 -13,-3 -21,-3l-56 0z"/>
   <path fill="#2B2A29" d="M1300 1543c35,68 106,113 185,113 112,0 208,-93 208,-207l0 -507 15 -15 68 68 0 522c0,122 -103,222 -223,222 -52,0 -106,-22 -159,-62 -38,-28 -75,-77 -81,-89 -3,-5 -12,-21 -23,-43l10 -3zm96 -599l15 -15 68 67 0 522c0,7 1,13 3,20 -50,-2 -85,-41 -85,-88l0 -507z"/>
   <path fill="#2B2A29" d="M2751 1230l-41 179 -98 0 77 -340c6,-24 25,-23 29,0l33 160 1 1zm138 493l-68 -68 15 -15 119 0 -160 -695 12 -15 68 68 173 725 -158 0zm-66 -133l-154 0 -30 133 -154 0 -68 -68 19 -15 123 0 30 -133 217 0 17 83 1 0z"/>
   <path fill="#2B2A29" d="M3221 1723l-68 -68 15 -15 118 0 0 -593 148 0 0 -103 15 -15 68 67 0 133 -148 0 0 593 -148 0zm-53 -593l-96 0 -68 -68 15 -15 148 0 0 83z"/>
   <path fill="#2B2A29" d="M3711 1130l-96 0 -68 -68 15 -15 148 0 0 83zm267 -186l15 -15 68 67 0 133 -148 0 0 593 -148 0 -68 -68 15 -15 118 0 0 -593 148 0 0 -103z"/>
   <polygon fill="#2B2A29" points="4240,944 4255,929 4323,997 4323,1722 4174,1722 4107,1655 4122,1640 4240,1640 "/>
   <path fill="#2B2A29" d="M1995 1678c-39,-29 -78,-82 -84,-94 -3,-5 -13,-22 -23,-44l11 -3c33,71 108,121 190,121 142,0 206,-82 206,-207l0 -163 15 -15 68 68 0 178c0,132 -70,222 -221,222 -55,0 -107,-21 -161,-62zm199 -223l-23 0 -68 -68 15 -15 75 0 0 78 0 4zm-109 92c-52,-5 -88,-49 -88,-96l0 -318c0,-52 37,-96 89,-101 60,-5 103,35 108,90 -12,-5 -24,-9 -38,-8 -44,4 -76,42 -76,86l0 318c0,10 2,19 6,28zm89 -623c30,9 54,24 75,40 18,14 38,30 58,53 18,22 32,43 41,59 18,34 28,76 28,123l0 15 -130 0 -68 -68 15 -15 100 0c0,-97 -39,-168 -123,-194l3 -14z"/>
   <path fill="#FEFEFE" d="M824 1330l0 210 74 0c47,0 74,-52 74,-105 0,-58 -36,-105 -74,-105l-74 0zm0 -287l0 172 56 0c47,0 74,-33 74,-86 0,-58 -36,-86 -74,-86l-56 0zm204 229c50,28 93,82 93,172 0,93 -74,210 -186,210l-260 0 0 -725 241 0c130,0 186,114 186,191 0,50 -28,124 -74,153l1 0z"/>
   <path fill="#FEFEFE" d="M1558 1451l0 -522 148 0 0 522c0,122 -103,221 -223,221 -120,0 -222,-100 -222,-221l0 -522 148 0 0 522c0,39 30,73 74,73 44,0 74,-33 74,-73z"/>
   <path fill="#FEFEFE" d="M2179 1451l0 -63 -75 0 0 -114 205 0 0 178c0,132 -70,222 -221,222 -120,0 -224,-100 -224,-222l0 -318c0,-122 104,-221 224,-221 151,0 221,89 221,221l0 15 -130 0 0 -15c0,-53 -38,-90 -92,-86 -44,4 -76,41 -76,86l0 318c0,39 32,78 76,81 54,5 92,-29 92,-81z"/>
   <path fill="#FEFEFE" d="M2769 1394l-65 -322 -73 322 138 0zm-351 261l186 -725 204 0 167 725 -153 0 -28 -133 -193 0 -30 133 -154 0z"/>
   <polygon fill="#FEFEFE" points="3302,1656 3153,1656 3153,1063 3005,1063 3005,929 3450,929 3450,1063 3302,1063 "/>
   <polygon fill="#FEFEFE" points="3844,1656 3696,1656 3696,1063 3548,1063 3548,929 3993,929 3993,1063 3844,1063 "/>
   <polygon fill="#FEFEFE" points="4107,929 4255,929 4255,1655 4107,1655 "/>
   <path fill="#A79ECD" d="M2542 608l0 122 121 0c38,0 61,-28 61,-61 0,-33 -23,-61 -61,-61l-121 0zm0 -189l0 108 121 0c33,0 54,-24 54,-54 0,-30 -21,-54 -54,-54l-121 0zm-233 192l0 -86 0 -26 67 0 0 28 76 0 0 -108 -181 0 0 37 -68 0 0 -33 0 -70 459 0c71,0 128,58 128,128 0,33 -12,62 -32,84l-2 2 2 2c23,24 38,58 38,94 0,74 -60,135 -135,135l-459 0 0 -70 0 -33 68 0 0 37 181 0 0 -122 -76 0 0 28 -67 0 0 -26 0 -1z"/>
   <path fill="#2B2A29" d="M2663 727c37,0 58,-26 58,-58 0,-32 -22,-58 -58,-58l-118 0 0 116 118 0 0 1zm0 -203c32,0 52,-23 52,-52 0,-28 -19,-52 -52,-52l-118 0 0 103 118 0 0 1zm-283 86l0 28 -73 0 0 -28 0 -86 0 -28 73 0 0 28 70 0 0 -103 -175 0 0 37 -73 0 0 -37 0 -73 462 0c73,0 131,58 131,131 0,33 -13,63 -33,87 24,25 39,58 39,96 0,76 -62,138 -138,138l-462 0 0 -73 0 -37 73 0 0 37 175 0 0 -116 -70 0z"/>
  </g>
 </g>
</svg>
