

<!-- Creator: CorelDRAW X6 -->
<svg xmlns="http://www.w3.org/2000/svg" x="0" y="0" xml:space="preserve" width="30mm" height="30mm" version="1.1" shape-rendering="geometricPrecision" text-rendering="geometricPrecision" image-rendering="optimizeQuality" fill-rule="evenodd" clip-rule="evenodd"
viewBox="0 0 3000 3000"
 xmlns:xlink="http://www.w3.org/1999/xlink">
 <g id="Layer_x0020_1">
  <metadata id="CorelCorpID_0Corel-Layer"/>
  <path fill="#EBECEC" d="M775 1820c-66,-41 -87,-92 -188,-134 -100,-131 -139,-295 -139,-458 0,-119 21,-239 53,-346l0 0 101 201c-6,45 -9,93 -9,145 0,667 443,802 909,800 467,2 909,-133 909,-800 0,-68 -5,-131 -14,-189l72 -149c38,95 59,216 56,339 -4,197 -68,396 -216,490l0 0 -24 36 -26 32 -27 30 -29 28 -31 26 -32 24 -33 22 -35 20 -36 18 -37 16 -38 14 -39 12 -40 11 -41 9 -41 8 -42 7 -42 5 -43 4 -43 3 -44 2 -44 1 -88 0 -44 -1 -44 -2 -43 -3 -43 -4 -42 -5 -42 -7 -41 -8 -40 -9 -40 -11 -39 -12 -38 -14 -37 -16 -36 -18 -35 -20 -33 -22 -32 -24 -31 -26 -25 -25 6 0zm-273 -1201l-14 -14c-119,145 -194,345 -194,623 0,841 687,978 1210,978 523,0 1210,-136 1210,-978 0,-278 -75,-479 -194,-623l0 0 -14 13c-3,74 -15,150 -26,222 52,112 77,246 80,388 8,418 -205,857 -1056,885 -535,-4 -872,-169 -1009,-514 -91,-58 -135,-164 -178,-268l0 0 -2 -28 -2 -76 2 -76 6 -72 9 -68 13 -64 16 -60 19 -57 22 -53 25 -50 28 -46 26 -36c10,71 22,165 44,183 271,227 748,198 977,656 249,-508 689,-444 960,-671l0 0 25 -218c-316,341 -745,226 -985,736 -259,-501 -682,-378 -999,-715l0 0 1 3zm212 122c162,-251 470,-314 789,-313 314,-1 616,59 782,303l0 0 195 -148 0 0 12 -9c-245,-267 -651,-324 -989,-324 -345,0 -760,59 -1004,341l0 0 5 4 0 0 7 5 3 3 0 0c53,51 111,105 169,136 10,4 20,6 30,1l0 0 1 1zm1748 -170l-88 55c-261,-230 -540,-286 -871,-284 -335,-2 -629,57 -886,303l0 0 -90 -55 25 -27 37 -35 39 -32 41 -29 43 -27 44 -24 46 -22 47 -20 48 -18 49 -16 50 -14 50 -12 51 -10 51 -9 51 -7 51 -6 51 -5 51 -3 51 -2 50 -1 49 0 49 0 50 1 51 2 51 3 51 5 51 6 51 7 51 9 51 10 50 12 50 14 49 16 48 18 47 20 46 22 44 24 43 27 41 29 39 32 37 35 8 8 2 0zm-962 1071c-112,-240 -234,-348 -421,-426l0 0 -467 -157 -64 -178c115,88 284,148 445,210 249,95 384,216 506,463l0 0 0 88 1 0zm0 0c112,-240 234,-364 420,-441l0 0 462 -165 64 -172c-115,88 -297,155 -458,217 -249,95 -366,226 -488,473l0 0 0 88zm814 -754l29 -15 28 -16 27 -17 26 -18 19 -15 18 -156 -23 21 -32 27 -32 24 -33 22 -33 21 -33 19 -34 18 -34 17 -68 31c-56,24 -112,47 -167,71l0 0 -65 30 -32 16 -29 16c-76,65 -115,128 -130,195l0 0 21 -17 32 -23 32 -22 32 -20 33 -18 33 -17 33 -16 33 -15 66 -27c64,-25 129,-48 193,-74l0 0 31 -13 30 -13 29 -14 0 -2zm-558 153l-3 2 -29 23 -28 25 -28 27 -8 9c-27,50 -38,96 -37,141l0 0 23 -25 30 -30 13 -12c7,-53 30,-106 68,-161l0 0 -1 1zm-675 -79l0 0 -66 -29c-56,-23 -112,-45 -168,-67l0 0 -68 -29 -34 -16 -33 -17 -33 -19 -33 -20 -33 -22 -32 -24 -32 -26 -31 -28 -22 -22c4,27 8,54 12,82l0 0 5 28 6 25 6 20 6 14 5 7 24 19 26 19 27 18 28 17 29 16 30 15 31 14 64 27c67,27 135,53 203,80l0 0 69 30 34 16 34 17 34 18 33 19 18 11c-39,-65 -89,-128 -141,-191l0 0 2 -2z"/>
  <path fill="#EBECEC" d="M1223 2636l-135 0 -5 0 -5 -1 -5 -2 -4 -3 -4 -3 -3 -4 -2 -5 -1 -5 0 -5 0 -5 1 -5 2 -5 3 -4 4 -3 4 -3 5 -2 5 -1 5 0 135 0 0 56zm474 -312l-306 0 0 124 155 0 152 -124 -1 0zm-207 426l306 0 0 -127 -142 0 -164 127zm479 -126l0 -173 107 0 9 0 9 1 9 1 9 2 6 2 5 3 5 4 4 4 4 6 3 7 2 8 2 9 1 9 1 10 0 10 0 11 0 10 -1 10 -1 10 -2 9 -2 9 -2 8 -3 7 -4 6 -4 5 -4 4 -5 3 -6 2 -6 2 -7 1 -7 1 -8 0 -8 0 -107 0 1 -1zm616 -45l0 57 -132 0 -6 0 -6 -1 -5 -2 -5 -4 -4 -4 -3 -5 -2 -6 -1 -6 1 -6 2 -6 3 -5 4 -4 5 -3 5 -2 6 -1 6 0 132 0 0 -2zm-760 171l325 0 12 -1 12 -2 12 -3 12 -4 11 -5 11 -6 10 -7 10 -8 9 -9 8 -10 6 -9 5 -9 4 -9 4 -10 3 -10 2 9 3 9 4 9 4 8 5 8 5 8 6 7 6 7 7 6 7 6 8 5 8 5 8 4 9 3 9 3 9 2 9 2 9 1 9 0 320 0 0 -288 0 -10 -1 -10 -2 -10 -2 -10 -3 -9 -4 -9 -4 -9 -5 -8 -6 -8 -6 -8 -7 -7 -7 -7 -8 -6 -8 -5 -9 -5 -9 -4 -9 -4 -9 -3 -10 -2 -10 -1 -10 -1 -294 0 0 115 237 0 6 0 6 2 5 4 3 5 1 6 -1 6 -3 6 -4 4 -6 3 -6 1 -136 0 -10 0 -10 1 -10 2 -9 2 -9 3 -9 4 -9 5 -8 5 -8 6 -8 6 -7 7 -6 7 -6 8 -5 8 -1 -34 -1 -10 -1 -10 -1 -13 -1 -13 -2 -13 -3 -12 -3 -10 -3 -10 -4 -10 -4 -10 -5 -9 -6 -8 -6 -8 -7 -7 -7 -6 -8 -6 -8 -5 -9 -5 -9 -4 -9 -4 -10 -3 -10 -3 -10 -2 -10 -2 -11 0 -390 0 -388 309 0 -174 -1 -11 -1 -11 -2 -11 -3 -11 -4 -10 -5 -10 -6 -10 -6 -9 -7 -9 -8 -8 -8 -7 -9 -7 -9 -6 -10 -5 -10 -4 -11 -3 -11 -3 -11 -2 -11 -1 -11 0 -280 0 0 117 259 0 4 0 4 1 4 2 3 2 3 3 2 3 1 4 0 4 0 4 -1 4 -2 3 -3 3 -3 2 -4 2 -4 1 -4 0 -157 0 -11 0 -11 1 -11 2 -10 3 -10 4 -10 5 -9 5 -9 6 -9 7 -8 8 -7 8 -7 9 -6 9 -5 10 0 -90 0 -16 -2 -16 -4 -15 -6 -15 -7 -14 -9 -13 -10 -12 -12 -11 -13 -9 -14 -8 -15 -6 -15 -4 -16 -3 -16 -1 -505 0 0 425 144 0 0 -297 106 0 0 297 141 0 0 -297 68 0 7 1 6 2 6 3 5 4 5 5 4 6 3 6 1 6 0 7 0 258 147 0 0 -75 5 10 6 9 6 9 7 8 8 8 9 7 9 6 9 5 10 5 10 4 11 3 11 2 11 1 11 0 386 0 397 -314 0 314 1 1z"/>
 </g>
</svg>
