

<!-- Creator: CorelDRAW X6 -->
<svg xmlns="http://www.w3.org/2000/svg" x="0" y="0" xml:space="preserve" width="25mm" height="25mm" version="1.1" shape-rendering="geometricPrecision" text-rendering="geometricPrecision" image-rendering="optimizeQuality" fill-rule="evenodd" clip-rule="evenodd"
viewBox="0 0 2500 2500"
 xmlns:xlink="http://www.w3.org/1999/xlink"
 enable-background="new 0 0 912.7 290.1">
 <g id="Layer_x0020_1">
  <metadata id="CorelCorpID_0Corel-Layer"/>
 </g>
 <g id="Layer_x0020_1_0">
  <metadata id="CorelCorpID_1Corel-Layer"/>
 </g>
 <g id="Layer_x0020_1_0_1">
  <metadata id="CorelCorpID_2Corel-Layer"/>
 </g>
 <g id="Layer_x0020_1_0_2">
  <metadata id="CorelCorpID_3Corel-Layer"/>
 </g>
 <g id="Layer_x0020_1_3">
  <metadata id="CorelCorpID_4Corel-Layer"/>
 </g>
 <g id="Layer_x0020_1_0_4">
  <metadata id="CorelCorpID_5Corel-Layer"/>
 </g>
 <g id="Layer_x0020_1_0_5">
  <metadata id="CorelCorpID_6Corel-Layer"/>
 </g>
 <g id="Layer_x0020_1_0_6">
  <metadata id="CorelCorpID_7Corel-Layer"/>
 </g>
 <g id="Layer_x0020_1_0_7">
  <metadata id="CorelCorpID_8Corel-Layer"/>
 </g>
 <g id="Layer_x0020_1_0_2_8">
  <metadata id="CorelCorpID_9Corel-Layer"/>
 </g>
 <g id="Layer_x0020_1_0_2_8_9">
  <metadata id="CorelCorpID_10Corel-Layer"/>
 </g>
 <g id="Layer_x0020_1_0_10">
  <metadata id="CorelCorpID_11Corel-Layer"/>
 </g>
 <g id="Layer_x0020_1_1">
  <metadata id="CorelCorpID_12Corel-Layer"/>
 </g>
 <g id="Layer_x0020_1_11">
  <metadata id="CorelCorpID_13Corel-Layer"/>
 </g>
 <g id="Layer_x0020_1_12">
  <metadata id="CorelCorpID_14Corel-Layer"/>
  <g id="_420106080">
   <path fill="#1A3765" d="M2500 1250c0,-690 -560,-1250 -1250,-1250 -690,0 -1250,560 -1250,1250 0,690 560,1250 1250,1250 690,0 1250,-560 1250,-1250l0 0z"/>
   <path fill="#E3E3E3" d="M1250 91c637,0 1159,520 1159,1159 0,637 -523,1159 -1159,1159 -640,0 -1159,-523 -1159,-1159 0,-640 520,-1159 1159,-1159l0 0z"/>
   <path fill="#1A3765" d="M2367 1250c0,-618 -501,-1117 -1117,-1117 -616,0 -1117,498 -1117,1117 0,616 501,1117 1117,1117 616,0 1117,-501 1117,-1117l0 0z"/>
   <path fill="#E3E3E3" d="M650 787c24,22 62,62 118,62 58,0 102,-22 142,-22 29,0 80,16 104,67 -13,-11 -40,-24 -85,-24 -32,0 -88,32 -136,32 -75,0 -118,-62 -142,-115l0 0 -1 1z"/>
   <path fill="#E8B532" d="M1056 576l-133 -309c56,0 112,24 112,69 0,13 -5,29 -16,45 0,3 0,3 3,3l0 0c11,-11 24,-18 40,-18 29,0 51,24 51,53 0,27 -22,51 -51,51 -3,0 -8,0 -11,0 3,11 40,32 83,32 32,0 69,-13 91,-56 -8,8 -22,11 -32,11 -29,0 -53,-22 -53,-51 0,-29 24,-53 53,-53 11,0 22,3 29,8 -11,-8 -18,-22 -18,-38 0,-27 24,-51 53,-51 29,0 53,24 53,51 0,13 -5,27 -16,35 8,-3 16,-5 24,-5 29,0 53,24 53,53 0,29 -24,51 -53,51 -13,0 -24,-5 -35,-11 8,22 48,58 96,58 27,0 56,-11 83,-35 -3,0 -5,0 -8,0 -32,0 -56,-24 -56,-51 0,-29 24,-53 56,-53 13,0 27,8 38,18 0,0 0,0 3,0 0,0 3,0 3,-3 -13,-16 -18,-32 -18,-45 0,-45 56,-69 109,-69l-128 307 -387 0c-5,0 -11,0 -16,3l0 0 1 0z"/>
   <path fill="#E3E3E3" d="M1016 643c5,-32 29,-69 56,-69l387 0c8,8 16,18 24,29 27,-11 53,-13 75,-13 18,0 32,3 35,3 0,0 16,3 18,8 -18,43 -32,67 -48,88 67,69 93,155 80,264 -18,-11 -56,-27 -78,-32 35,53 45,102 45,155 0,38 -8,78 -24,115l-11 29c-22,-29 -38,-51 -62,-69 5,18 13,58 13,85 0,72 -29,136 -96,178 -13,-35 -40,-85 -67,-118 3,67 0,144 -27,194 -51,67 -120,107 -229,133 18,-45 35,-165 27,-309 -22,32 -45,93 -53,171 -27,-22 -107,-80 -107,-184 0,-43 16,-85 43,-128 -38,16 -64,40 -91,93 -8,-75 5,-155 43,-213 -96,-3 -123,-58 -118,-144 27,24 56,40 96,40 40,0 91,-16 142,-83 -24,-13 -45,-22 -62,-27 -18,-5 -48,-11 -78,-48 -11,-13 -29,-16 -51,-16 -27,0 -67,5 -128,38 8,-155 83,-202 142,-202 29,0 64,11 102,32l0 0 2 0z"/>
   <path fill="#E3E3E3" d="M1693 1913l104 0c13,0 24,-11 24,-22 0,-13 -11,-22 -24,-22l-104 0 0 43 0 1zm98 -109c11,0 22,-11 22,-24 0,-11 -11,-22 -22,-22l-98 0 0 45 98 0 0 1zm-778 69l93 0 -48 -115 -45 115zm341 0l93 0 -48 -115 -45 115zm-658 -194c98,0 189,16 189,98l-133 0c0,-35 -24,-40 -56,-40 -29,0 -51,8 -51,29 0,22 18,32 67,32 120,0 173,22 184,78l78 -192 173 0 83 205 85 -205 171 0 96 227 0 -227 274 0c69,0 85,48 85,78 0,27 -11,64 -64,72 62,5 75,51 75,78 0,32 -24,83 -83,83l-373 0 -18 -48 -152 0 -22 48 -147 0 -22 -48 -152 0 -22 48 -118 0 11 -27c-18,16 -51,35 -158,35 -102,0 -192,-22 -194,-104l136 0c0,18 13,40 56,40 53,0 58,-16 58,-29 0,-18 -13,-35 -78,-35 -93,0 -160,-16 -160,-91 0,-85 98,-104 178,-104l0 0 2 1z"/>
   <path fill="#CB1F40" d="M1130 690c0,11 -13,27 -38,27 -22,0 -32,-13 -35,-24 -5,0 -11,0 -16,-3 0,38 27,48 53,48 18,0 48,-5 56,-48 -5,0 -13,0 -22,0l0 0 1 0z"/>
   <path fill="#CB1F40" d="M1013 680c-38,-22 -72,-35 -98,-35 -64,0 -91,72 -102,112 35,-11 64,-16 88,-16 35,0 58,8 78,29 18,27 43,32 51,32 35,11 96,32 96,62 0,5 0,13 -8,22 -62,78 -118,98 -165,98 -24,0 -43,-5 -58,-11 13,38 51,45 80,45 24,0 45,-3 91,-13 -48,38 -88,85 -98,160 43,-32 88,-40 136,-40 -56,58 -88,118 -88,176 0,62 27,96 45,118 22,-98 72,-160 104,-192 18,138 8,288 -3,347 58,-22 109,-48 149,-102 24,-40 27,-158 18,-253 51,32 96,91 118,138 29,-29 45,-69 45,-123 0,-58 -18,-112 -38,-152 43,13 80,32 109,67 8,-27 13,-51 13,-78 0,-93 -51,-160 -85,-194 56,0 88,11 120,22 3,-58 -13,-128 -67,-184 -48,56 -93,88 -184,120 80,62 56,155 -18,248 -8,-40 -18,-75 -45,-104 5,51 -8,144 -112,194 3,-40 -3,-75 -11,-109 -8,8 -22,18 -35,29 -3,-11 -5,-29 -3,-43 18,-16 35,-38 53,-58 16,40 24,93 27,118 38,-35 67,-98 29,-213 56,29 85,58 107,107 58,-98 -3,-149 -93,-184 107,-13 238,-62 304,-194 -45,-3 -115,13 -181,98 -8,-5 -18,-13 -22,-22 27,-38 58,-67 93,-85 -3,-5 -5,-11 -8,-11l-371 0c-13,0 -27,24 -32,51 8,3 22,3 35,3 13,0 27,0 43,0 27,0 67,3 91,18 -3,11 -8,18 -13,24 -5,-3 -11,-3 -16,-5 -13,62 -56,75 -85,75 -75,0 -88,-58 -83,-91l0 0 -2 1z"/>
  </g>
 </g>
</svg>
