

<!-- Creator: CorelDRAW X6 -->
<svg xmlns="http://www.w3.org/2000/svg" x="0" y="0" xml:space="preserve" width="29mm" height="25mm" version="1.1" shape-rendering="geometricPrecision" text-rendering="geometricPrecision" image-rendering="optimizeQuality" fill-rule="evenodd" clip-rule="evenodd"
viewBox="0 0 2900 2500"
 xmlns:xlink="http://www.w3.org/1999/xlink"
 enable-background="new 0 0 912.7 290.1">
 <g id="Layer_x0020_1">
  <metadata id="CorelCorpID_0Corel-Layer"/>
 </g>
 <g id="Layer_x0020_1_0">
  <metadata id="CorelCorpID_1Corel-Layer"/>
 </g>
 <g id="Layer_x0020_1_0_1">
  <metadata id="CorelCorpID_2Corel-Layer"/>
 </g>
 <g id="Layer_x0020_1_0_2">
  <metadata id="CorelCorpID_3Corel-Layer"/>
 </g>
 <g id="Layer_x0020_1_3">
  <metadata id="CorelCorpID_4Corel-Layer"/>
 </g>
 <g id="Layer_x0020_1_0_4">
  <metadata id="CorelCorpID_5Corel-Layer"/>
 </g>
 <g id="Layer_x0020_1_0_5">
  <metadata id="CorelCorpID_6Corel-Layer"/>
 </g>
 <g id="Layer_x0020_1_0_6">
  <metadata id="CorelCorpID_7Corel-Layer"/>
 </g>
 <g id="Layer_x0020_1_0_7">
  <metadata id="CorelCorpID_8Corel-Layer"/>
  <g id="_1_x0020__x0028_53_x0029_.eps">
   <polygon fill="#FEFEFE" points="234,2499 234,1996 32,1996 32,1786 722,1786 722,1996 525,1996 525,2499 "/>
   <polygon fill="#FEFEFE" points="1612,2499 1612,1996 1409,1996 1409,1786 2099,1786 2099,1996 1903,1996 1903,2499 "/>
   <polygon fill="#FEFEFE" points="656,2500 917,1787 1214,1787 1492,2500 1212,2500 1068,2069 923,2500 "/>
   <polygon fill="#FEFEFE" points="2033,2500 2294,1787 2588,1787 2868,2500 2588,2500 2448,2069 2301,2500 "/>
   <path fill="#FEFEFE" d="M1101 1388c-421,-96 -725,-363 -725,-675 0,-39 5,-78 14,-115 205,-56 743,-138 842,-73 65,38 -62,550 -131,863l0 1 0 -1z"/>
   <path fill="#FEFEFE" d="M2501 598c9,38 14,76 14,115 0,313 -305,580 -728,675 -69,-313 -195,-825 -131,-863 98,-65 638,18 844,73l1 0z"/>
   <path fill="#FEFEFE" d="M1446 0c462,0 856,197 1005,470 -172,-27 -968,-218 -959,-60l0 1015c-15,1 -31,1 -46,1 -17,0 -33,0 -48,-1l0 -1015c9,-158 -783,33 -957,60 149,-273 544,-470 1005,-470z"/>
  </g>
 </g>
</svg>
