

<!-- Creator: CorelDRAW X6 -->
<svg xmlns="http://www.w3.org/2000/svg" x="0" y="0" xml:space="preserve" width="42.6mm" height="25mm" version="1.1" shape-rendering="geometricPrecision" text-rendering="geometricPrecision" image-rendering="optimizeQuality" fill-rule="evenodd" clip-rule="evenodd"
viewBox="0 0 4260 2500"
 xmlns:xlink="http://www.w3.org/1999/xlink"
 enable-background="new 0 0 912.7 290.1">
 <g id="Layer_x0020_1">
  <metadata id="CorelCorpID_0Corel-Layer"/>
  <g id="_1798568384">
   <path fill="#0092D4" d="M1475 19c187,-16 376,-21 563,-16 38,155 32,308 40,463 -3,51 49,53 48,1 12,-154 9,-315 55,-464 168,-7 356,1 567,20 -181,99 -296,254 -386,452 -20,49 26,65 49,12 114,-188 216,-388 472,-448 178,-24 484,18 757,63 157,23 198,108 175,230 -228,1251 -3357,1149 -3399,-24 -4,-146 85,-204 218,-222 213,-29 338,-48 639,-55 269,19 418,205 524,452 22,56 72,33 55,-4 -103,-227 -231,-374 -377,-460l-2 2zm2118 171c-601,-70 -1083,60 -1134,848 -9,73 38,103 93,89 566,-136 1061,-364 1042,-938l-1 1zm-2974 -5c601,-70 1083,60 1134,848 9,73 -38,103 -93,89 -566,-136 -1061,-364 -1041,-938l0 1z"/>
   <path fill="#0092D4" d="M0 1512c0,93 0,187 0,279 -3,49 25,60 60,57 127,-1 254,-1 381,-2 302,-8 288,-380 3,-382 -126,0 -253,0 -379,0 -37,-3 -61,14 -66,47l0 1zm127 32c0,78 0,155 0,233 101,0 202,0 303,0 131,-14 133,-219 0,-231 -101,-1 -202,-1 -303,-2z"/>
   <path fill="#0092D4" d="M594 1848c117,-117 228,-239 346,-355 46,-45 67,-45 121,5 111,103 221,205 332,308 25,26 12,46 -26,45l-538 0 79 -79c85,0 170,0 255,0 20,0 26,-5 12,-19 -47,-47 -96,-93 -143,-140 -29,-32 -26,-27 -50,-3l-238 241 -150 -3 -1 0z"/>
   <path fill="#0092D4" d="M1406 1551c0,70 0,140 0,209 7,49 35,85 110,89 161,0 323,0 484,0 54,-1 53,-90 0,-91 -138,0 -275,0 -413,0 -16,1 -36,3 -38,-20l0 -26c2,-19 21,-20 34,-21l418 2c37,0 35,-76 0,-75 -141,1 -282,3 -423,3 -20,0 -31,-7 -32,-20 0,-14 0,-19 0,-32 1,-17 9,-26 24,-26l433 3c44,3 43,-83 0,-81 -162,0 -324,0 -486,0 -71,-1 -108,28 -112,86l2 0z"/>
   <path fill="#0092D4" d="M2053 1462c46,110 92,221 138,331 27,87 151,81 177,0 23,-70 46,-140 69,-209 4,-10 8,-10 12,0 25,71 49,141 74,212 26,78 138,78 167,0 43,-111 88,-221 131,-332 -43,-1 -85,-1 -128,-2 -29,75 -59,149 -88,224 -5,14 -16,14 -22,3 -26,-66 -50,-131 -76,-197 -19,-55 -107,-57 -126,2 -26,66 -52,133 -78,198 -5,10 -15,13 -22,0 -31,-77 -60,-152 -91,-229 -46,-1 -92,-1 -138,-2z"/>
   <path fill="#0092D4" d="M3008 1462c-270,20 -284,372 0,389 100,0 199,-1 299,-1 274,0 288,-381 2,-388 -101,0 -201,-1 -301,-1zm30 295c-129,-16 -118,-196 0,-200 83,-1 164,-2 247,-2 130,20 127,181 0,199 -83,1 -164,2 -247,3l0 -1z"/>
   <path fill="#0092D4" d="M3750 1462c-270,20 -284,372 0,389 100,0 199,-1 299,-1 274,0 288,-381 2,-388 -101,0 -201,-1 -301,-1zm29 296c-129,-16 -118,-196 0,-200 83,-1 164,-2 247,-2 130,20 127,181 0,199 -83,1 -164,2 -247,3z"/>
   <path fill="#E42129" d="M1294 2491l-102 0 0 -336 137 0 49 168c3,14 7,30 12,49 4,-21 8,-37 11,-49l49 -168 137 0 0 336 -102 0 1 -165c0,-4 0,-8 0,-11 0,-3 0,-10 0,-21 0,-11 0,-20 0,-26 -3,13 -8,33 -14,60l-43 164 -78 0 -43 -160c-2,-7 -3,-14 -5,-21 -2,-8 -3,-13 -3,-17 -1,-4 -3,-12 -5,-26 1,29 2,49 2,62l0 162 0 -1zm345 -168c0,-27 4,-52 13,-73 9,-21 20,-40 37,-55 16,-15 35,-27 58,-35 22,-9 48,-12 76,-12 28,0 54,4 76,12 22,8 42,20 57,35 15,15 27,34 36,55 9,22 13,46 13,73 0,27 -4,52 -13,73 -9,21 -20,40 -36,56 -15,15 -35,27 -57,36 -23,9 -48,12 -76,12 -27,0 -53,-4 -76,-12 -23,-8 -42,-20 -58,-36 -16,-15 -28,-34 -37,-55 -9,-21 -13,-46 -13,-73l0 -1zm113 0c0,32 5,55 16,70 11,15 28,22 52,22 15,0 28,-3 38,-10 10,-7 18,-17 22,-30 5,-14 7,-31 7,-52 0,-21 -3,-39 -7,-52 -5,-14 -12,-24 -22,-30 -10,-7 -23,-10 -38,-10 -24,0 -42,8 -52,22 -11,14 -16,38 -16,70zm376 167l0 -247 -101 0 0 -89 313 0 0 89 -99 0 0 247 -112 0 -1 0zm235 -168c0,-27 4,-52 13,-73 9,-21 20,-40 37,-55 16,-15 35,-27 58,-35 22,-9 48,-12 76,-12 28,0 54,4 77,12 22,8 42,20 57,35 15,15 27,34 36,55 9,22 13,46 13,73 0,27 -4,52 -13,73 -9,21 -20,40 -36,56 -15,15 -35,27 -57,36 -23,9 -48,12 -76,12 -27,0 -53,-4 -76,-12 -23,-8 -42,-20 -58,-36 -16,-15 -28,-34 -37,-55 -9,-21 -13,-46 -13,-73l-1 -1zm113 0c0,32 5,55 16,70 11,15 28,22 52,22 15,0 28,-3 38,-10 10,-7 18,-17 22,-30 5,-14 7,-31 7,-52 0,-21 -3,-39 -7,-52 -4,-14 -12,-24 -22,-30 -10,-7 -23,-10 -38,-10 -24,0 -42,8 -52,22 -11,14 -16,38 -16,70zm302 167l0 -336 168 0c34,0 62,3 83,9 21,6 37,16 48,31 10,14 15,33 15,56 0,20 -4,37 -14,51 -9,14 -24,24 -43,32 13,3 24,7 32,13 9,6 14,14 19,24 4,10 6,23 7,38l2 47c0,9 1,14 2,17 1,3 3,5 9,5l0 13 -114 0c-4,-17 -6,-28 -6,-35l0 -33c0,-18 -3,-30 -11,-37 -7,-7 -20,-10 -37,-10l-48 0 0 116 -112 0 0 -2zm112 -192l51 0c17,0 29,-3 37,-7 8,-4 11,-13 11,-25 0,-13 -4,-21 -11,-26 -8,-4 -20,-6 -39,-6l-49 0 0 62 0 1z"/>
  </g>
 </g>
 <g id="Layer_x0020_1_0">
  <metadata id="CorelCorpID_1Corel-Layer"/>
 </g>
 <g id="Layer_x0020_1_1">
  <metadata id="CorelCorpID_2Corel-Layer"/>
 </g>
 <g id="Layer_x0020_1_0_2">
  <metadata id="CorelCorpID_3Corel-Layer"/>
 </g>
 <g id="Layer_x0020_1_0_3">
  <metadata id="CorelCorpID_4Corel-Layer"/>
 </g>
 <g id="Layer_x0020_1_4">
  <metadata id="CorelCorpID_5Corel-Layer"/>
 </g>
 <g id="Layer_x0020_1_0_5">
  <metadata id="CorelCorpID_6Corel-Layer"/>
 </g>
 <g id="Layer_x0020_1_0_6">
  <metadata id="CorelCorpID_7Corel-Layer"/>
 </g>
 <g id="Layer_x0020_1_0_7">
  <metadata id="CorelCorpID_8Corel-Layer"/>
 </g>
 <g id="Layer_x0020_1_0_8">
  <metadata id="CorelCorpID_9Corel-Layer"/>
 </g>
 <g id="Layer_x0020_1_0_2_9">
  <metadata id="CorelCorpID_10Corel-Layer"/>
 </g>
 <g id="Layer_x0020_1_0_2_8">
  <metadata id="CorelCorpID_11Corel-Layer"/>
 </g>
 <g id="Layer_x0020_1_0_10">
  <metadata id="CorelCorpID_12Corel-Layer"/>
 </g>
 <g id="Layer_x0020_1_1_11">
  <metadata id="CorelCorpID_13Corel-Layer"/>
 </g>
 <g id="Layer_x0020_1_12">
  <metadata id="CorelCorpID_14Corel-Layer"/>
 </g>
</svg>
