

<!-- Creator: CorelDRAW X6 -->
<svg xmlns="http://www.w3.org/2000/svg" x="0" y="0" xml:space="preserve" width="36mm" height="25mm" version="1.1" shape-rendering="geometricPrecision" text-rendering="geometricPrecision" image-rendering="optimizeQuality" fill-rule="evenodd" clip-rule="evenodd"
viewBox="0 0 3600 2500"
 xmlns:xlink="http://www.w3.org/1999/xlink"
 enable-background="new 0 0 912.7 290.1">
 <g id="Layer_x0020_1">
  <metadata id="CorelCorpID_0Corel-Layer"/>
 </g>
 <g id="Layer_x0020_1_0">
  <metadata id="CorelCorpID_1Corel-Layer"/>
 </g>
 <g id="Layer_x0020_1_0_1">
  <metadata id="CorelCorpID_2Corel-Layer"/>
 </g>
 <g id="Layer_x0020_1_0_2">
  <metadata id="CorelCorpID_3Corel-Layer"/>
 </g>
 <g id="Layer_x0020_1_3">
  <metadata id="CorelCorpID_4Corel-Layer"/>
 </g>
 <g id="Layer_x0020_1_0_4">
  <metadata id="CorelCorpID_5Corel-Layer"/>
 </g>
 <g id="Layer_x0020_1_0_5">
  <metadata id="CorelCorpID_6Corel-Layer"/>
 </g>
 <g id="Layer_x0020_1_0_6">
  <metadata id="CorelCorpID_7Corel-Layer"/>
 </g>
 <g id="Layer_x0020_1_0_7">
  <metadata id="CorelCorpID_8Corel-Layer"/>
 </g>
 <g id="Layer_x0020_1_0_2_8">
  <metadata id="CorelCorpID_9Corel-Layer"/>
 </g>
 <g id="Layer_x0020_1_0_2_8_9">
  <metadata id="CorelCorpID_10Corel-Layer"/>
 </g>
 <g id="Layer_x0020_1_0_10">
  <metadata id="CorelCorpID_11Corel-Layer"/>
 </g>
 <g id="Layer_x0020_1_1">
  <metadata id="CorelCorpID_12Corel-Layer"/>
 </g>
 <g id="Layer_x0020_1_11">
  <metadata id="CorelCorpID_13Corel-Layer"/>
 </g>
 <g id="Layer_x0020_1_12">
  <metadata id="CorelCorpID_14Corel-Layer"/>
  <path fill="#D21F2F" d="M2270 2450c0,0 -32,1 -56,0 -61,0 -127,-46 -127,-121 0,-74 64,-118 127,-118 1,0 31,-2 56,0 63,0 128,44 128,118 0,74 -66,121 -127,121l-1 0zm59 -285c-87,-2 -175,0 -176,0 -106,0 -193,73 -193,164 0,92 87,167 193,167 1,0 89,2 176,0 107,0 193,-75 193,-167 0,-89 -85,-162 -193,-164z"/>
  <path fill="#D21F2F" d="M3460 2491l108 0 0 -158c0,-92 -83,-164 -188,-164l-274 0c-4,0 -15,1 -15,12l0 298c0,8 6,13 12,13l114 0 0 -249c0,-11 8,-17 17,-17l126 0c35,0 87,32 87,99l0 153c0,0 0,13 13,13l0 1z"/>
  <path fill="#D21F2F" d="M1175 2233l169 0 0 -51c0,-8 -5,-13 -13,-13l-471 0c-8,0 -13,7 -13,13l0 52 113 0c43,0 71,36 71,70l0 176c0,6 5,13 13,13l114 0 0 -242c0,-9 8,-17 17,-17l0 -1z"/>
  <path fill="#D21F2F" d="M655 2479c0,8 7,13 13,13 1,0 114,0 114,0l0 -309c0,-7 -6,-13 -12,-13l-102 0c-7,0 -13,6 -13,13l0 298 0 -1z"/>
  <path fill="#D21F2F" d="M1537 2320l0 -64c0,-18 13,-30 30,-30l168 0c26,0 47,22 47,47 0,26 -22,48 -48,48l-198 0zm246 171l126 0c-3,-83 -93,-118 -93,-118 0,0 0,0 0,0 57,-13 93,-53 93,-100 0,-50 -49,-103 -128,-103l-303 0c-37,0 -66,29 -66,66l0 243c0,7 5,13 12,13l114 0 0 -114 108 0c96,0 135,69 138,114l-1 -1z"/>
  <path fill="#D21F2F" d="M463 2277c0,0 117,0 123,0 -27,-68 -103,-115 -185,-115 -44,0 -124,-3 -176,0 -61,3 -98,17 -136,49 -37,32 -57,73 -57,118 0,92 82,164 190,168 74,3 83,3 180,0 90,-3 155,-43 183,-115 -7,0 -123,0 -123,0 -5,0 -8,2 -11,6 -23,38 -64,62 -110,62 -16,0 -38,0 -57,0 -64,-1 -127,-45 -127,-121 0,-74 65,-120 128,-120 8,0 33,-1 55,0 46,0 89,24 112,62 1,2 4,6 11,6l-1 0z"/>
  <path fill="#D21F2F" d="M3024 2433c0,0 -16,0 -298,0 -10,0 -17,-7 -17,-16l0 -62 258 0 0 -57 -258 0 0 -56c0,0 0,-17 19,-17l296 0 0 -45c0,-13 -14,-13 -14,-13l-414 0c-2,0 -13,0 -13,13l0 243c0,33 25,66 66,66l363 0c9,0 13,-9 13,-12l0 -46z"/>
  <path fill="#D21F2F" d="M2931 2053c-12,-8 -27,-11 -44,-11 -17,0 -33,4 -44,11 -12,8 -21,17 -34,17 -13,0 -22,-10 -34,-17 -13,-8 -27,-11 -44,-11 -17,0 -32,3 -44,11 -13,8 -18,17 -18,27 0,11 6,19 18,27 13,8 27,11 44,11 17,0 32,-3 43,-10 11,-7 23,-18 35,-18 13,0 23,10 34,17 11,7 27,11 44,11 18,0 33,-3 44,-11 12,-8 18,-17 18,-27 0,-11 -6,-19 -18,-27l2 0z"/>
  <path fill="#FEFEFE" d="M1800 498c264,0 901,548 981,617 6,5 13,11 27,9 20,-3 21,-33 21,-33 0,0 5,-69 5,-139 0,-88 -69,-165 -69,-165 0,0 -714,-787 -964,-787 -250,0 -964,787 -964,787 0,0 -69,78 -69,165 0,70 5,139 5,139 0,0 1,31 21,33 14,2 22,-4 27,-9 80,-69 718,-617 981,-617z"/>
  <path fill="#FEFEFE" d="M1800 1222c264,0 901,548 981,617 6,5 13,11 27,9 20,-3 21,-33 21,-33 0,0 5,-69 5,-139 0,-88 -69,-165 -69,-165 0,0 -714,-787 -964,-787 -250,0 -964,787 -964,787 0,0 -69,78 -69,165 0,70 5,139 5,139 0,0 1,31 21,33 14,2 22,-4 27,-9 80,-69 718,-617 981,-617z"/>
 </g>
</svg>
