

<!-- Creator: CorelDRAW X6 -->
<svg xmlns="http://www.w3.org/2000/svg" x="0" y="0" xml:space="preserve" width="34mm" height="25mm" version="1.1" shape-rendering="geometricPrecision" text-rendering="geometricPrecision" image-rendering="optimizeQuality" fill-rule="evenodd" clip-rule="evenodd"
viewBox="0 0 3400 2500"
 xmlns:xlink="http://www.w3.org/1999/xlink"
 enable-background="new 0 0 912.7 290.1">
 <g id="Layer_x0020_1">
  <metadata id="CorelCorpID_0Corel-Layer"/>
 </g>
 <g id="Layer_x0020_1_0">
  <metadata id="CorelCorpID_1Corel-Layer"/>
 </g>
 <g id="Layer_x0020_1_0_1">
  <metadata id="CorelCorpID_2Corel-Layer"/>
 </g>
 <g id="Layer_x0020_1_0_2">
  <metadata id="CorelCorpID_3Corel-Layer"/>
 </g>
 <g id="Layer_x0020_1_3">
  <metadata id="CorelCorpID_4Corel-Layer"/>
 </g>
 <g id="Layer_x0020_1_4">
  <metadata id="CorelCorpID_5Corel-Layer"/>
  <g id="_753736264">
   <path fill="#FEFEFE" d="M1854 416l0 851 115 0 0 -698c0,-38 31,-69 69,-69l336 1 0 -129 -476 -1c-25,0 -45,20 -45,45l1 0z"/>
   <path fill="#FEFEFE" d="M1564 182l-578 0 0 140 476 0c51,0 93,42 93,93l0 851 100 0 0 -992c0,-51 -41,-92 -92,-92l1 0z"/>
   <path fill="#FEFEFE" d="M1797 182c-51,0 -92,41 -92,92l0 992 100 0 1 -851c0,-51 41,-93 93,-93l476 0 0 -140 -578 0 -1 0 1 0z"/>
   <path fill="#FEFEFE" d="M1463 371l-476 0 0 129 336 0c38,0 68,31 68,69l0 698 115 0 0 -851c0,-25 -20,-45 -45,-45l1 0 1 0z"/>
   <polygon fill="#FEFEFE" points="2374,0 987,0 987,140 2374,140 "/>
   <polygon fill="#FEFEFE" points="795,1585 738,1763 486,1763 283,2384 59,2384 262,1763 8,1763 65,1583 "/>
   <path fill="#FEFEFE" d="M1021 1748c20,-6 41,-9 63,-9 104,0 151,62 140,184 -6,72 -32,139 -77,199 -36,51 -78,83 -125,98l0 173c114,-16 212,-62 293,-135 99,-90 157,-208 172,-353 14,-127 -24,-219 -114,-277 -64,-41 -148,-62 -255,-62 -33,0 -66,2 -95,6l0 174 -2 0 0 2zm-127 95c36,-49 78,-82 127,-95l0 -174c-111,16 -209,61 -291,134 -101,90 -158,203 -173,339 -2,16 -2,31 -4,46l0 9c1,85 28,155 80,205 63,62 158,94 285,94 35,0 69,-2 101,-7l0 -173c-19,5 -37,9 -58,9 -53,0 -93,-19 -119,-53 -22,-31 -32,-74 -26,-129 7,-75 32,-144 75,-203l1 0 2 -2z"/>
   <polygon fill="#FEFEFE" points="1264,2384 1523,1585 2122,1585 2064,1764 1689,1764 1641,1915 1997,1915 1945,2077 1588,2077 1488,2384 "/>
   <path fill="#FEFEFE" d="M2316 1780l24 288 -109 0 0 145 115 1 19 169 228 0 -62 -799 -298 0 0 320 83 -125 2 0 -1 0 -1 1zm-85 288l-109 0 109 -163 0 -320 -5 0 -533 799 241 0 101 -172 195 1 0 -145 1 0z"/>
   <path fill="#FEFEFE" d="M3389 1807c12,-93 -12,-161 -77,-204 -54,-37 -135,-57 -239,-57 -99,0 -183,21 -254,62 -80,47 -125,114 -134,199 -10,95 49,165 178,208 47,14 95,27 143,40 49,19 74,45 71,78 -5,53 -52,80 -140,80 -57,0 -95,-9 -119,-25 -25,-17 -36,-48 -32,-90l-230 0c-10,93 15,166 75,216 32,26 72,46 118,57l-38 129 205 0 35 -116c93,-9 172,-33 235,-75 73,-48 114,-111 121,-187 12,-120 -67,-203 -240,-246 -69,-19 -110,-31 -122,-36 -22,-10 -32,-26 -31,-48 2,-24 17,-42 43,-56 22,-11 49,-17 80,-17 83,0 121,30 115,88l230 0 5 1 2 -1z"/>
  </g>
 </g>
 <g id="Layer_x0020_1_0_5">
  <metadata id="CorelCorpID_6Corel-Layer"/>
 </g>
</svg>
