

<!-- Creator: CorelDRAW X6 -->
<svg xmlns="http://www.w3.org/2000/svg" x="0" y="0" xml:space="preserve" width="17mm" height="25mm" version="1.1" shape-rendering="geometricPrecision" text-rendering="geometricPrecision" image-rendering="optimizeQuality" fill-rule="evenodd" clip-rule="evenodd"
viewBox="0 0 1700 2500"
 xmlns:xlink="http://www.w3.org/1999/xlink"
 enable-background="new 0 0 912.7 290.1">
 <g id="Layer_x0020_1">
  <metadata id="CorelCorpID_0Corel-Layer"/>
 </g>
 <g id="Layer_x0020_1_0">
  <metadata id="CorelCorpID_1Corel-Layer"/>
 </g>
 <g id="Layer_x0020_1_0_1">
  <metadata id="CorelCorpID_2Corel-Layer"/>
 </g>
 <g id="Layer_x0020_1_0_2">
  <metadata id="CorelCorpID_3Corel-Layer"/>
 </g>
 <g id="Layer_x0020_1_3">
  <metadata id="CorelCorpID_4Corel-Layer"/>
 </g>
 <g id="Layer_x0020_1_0_4">
  <metadata id="CorelCorpID_5Corel-Layer"/>
 </g>
 <g id="Layer_x0020_1_0_5">
  <metadata id="CorelCorpID_6Corel-Layer"/>
 </g>
 <g id="Layer_x0020_1_0_6">
  <metadata id="CorelCorpID_7Corel-Layer"/>
 </g>
 <g id="Layer_x0020_1_0_7">
  <metadata id="CorelCorpID_8Corel-Layer"/>
 </g>
 <g id="Layer_x0020_1_0_2_8">
  <metadata id="CorelCorpID_9Corel-Layer"/>
 </g>
 <g id="Layer_x0020_1_0_2_8_9">
  <metadata id="CorelCorpID_10Corel-Layer"/>
 </g>
 <g id="Layer_x0020_1_0_10">
  <metadata id="CorelCorpID_11Corel-Layer"/>
 </g>
 <g id="Layer_x0020_1_1">
  <metadata id="CorelCorpID_12Corel-Layer"/>
 </g>
 <g id="Layer_x0020_1_11">
  <metadata id="CorelCorpID_13Corel-Layer"/>
 </g>
 <g id="Layer_x0020_1_12">
  <metadata id="CorelCorpID_14Corel-Layer"/>
  <g id="_1_x0020__x0028_17_x0029_.eps">
   <path fill="#2B2A29" d="M113 0l1473 0c42,0 76,36 76,79l0 2342c0,43 -34,79 -76,79l-1473 0c-42,0 -76,-36 -76,-79l0 -2342c0,-43 34,-79 76,-79z"/>
   <path fill="#FFED00" d="M115 344l1474 0c13,3 19,14 20,27l0 2053c-2,13 -9,22 -23,23l-1474 0c-13,-3 -19,-14 -20,-27l0 -2053c2,-13 9,-22 23,-23zm504 331c-3,-26 -3,-33 34,-49 28,-13 53,-13 82,-22 14,-17 21,-16 39,-21 1,-4 1,-8 2,-12 -13,-9 -20,-14 -30,-27 1,-4 1,-8 2,-13 4,1 8,1 12,2 -2,-4 -3,-8 -4,-13 14,1 28,2 42,3 0,-4 0,-8 0,-12 0,-6 0,-13 0,-18 2,-6 4,-8 8,-4 8,10 18,21 26,31 1,-12 3,-20 4,-32 0,-6 3,-8 10,-4 8,16 16,30 25,46 19,-7 45,-4 73,2 -2,3 -4,7 -6,10 11,3 21,7 32,10 -1,3 -1,6 -2,8 32,3 48,8 78,20 -17,5 -33,9 -50,14 -9,4 -9,8 0,13 32,11 64,25 96,64 -1,3 -2,6 -3,8 -37,-28 -70,-43 -97,-40 -3,5 -1,9 6,14 35,26 70,43 105,44 -28,6 -58,6 -86,-8 -2,6 -5,12 0,17 21,13 35,27 79,33 0,3 -9,3 -9,6 -28,2 -48,-8 -77,-22 -6,3 -8,7 -8,13 21,30 40,62 68,85 -3,1 -6,2 -8,3 -36,-23 -51,-42 -72,-61 -3,6 -8,12 0,17 24,23 45,42 79,88 -2,6 -4,8 -8,4 -30,-29 -30,-28 -72,-33 2,33 55,31 87,83 -3,1 -2,4 -3,5 -29,-15 -28,-14 -60,-8 13,8 25,17 38,26 0,3 0,6 0,8 -21,-8 -39,-9 -58,-8 17,13 33,27 50,40 6,4 4,8 -6,8 -18,-6 -37,-12 -54,-18 19,18 35,30 54,48 5,7 3,11 -3,12 -35,-21 -40,-30 -79,-21 0,5 0,11 0,16 37,0 33,-4 54,24 -16,-8 -20,-8 -38,-8 8,15 12,30 36,46 37,28 -48,-6 -63,-26 -17,-11 -33,-19 -49,-24 -3,14 -6,28 0,43 18,29 35,58 53,87 15,16 28,33 43,49 20,14 31,29 51,43 49,42 106,69 106,142 120,33 139,-170 123,-190 -56,-125 -18,-219 62,-274 0,3 0,6 0,8 -37,42 -44,52 -60,105 3,9 3,23 14,18 17,-20 36,-37 58,-51 10,2 12,7 6,14 -29,44 -36,53 -42,105 4,2 8,4 12,6 12,-13 23,-26 34,-38 8,3 10,9 3,16 -34,26 1,149 -8,194 -11,63 -48,83 -98,121 12,48 9,58 -3,105 -4,-33 3,-53 -24,-71 -2,66 -49,104 -40,99 13,-38 24,-48 8,-85 -7,20 -14,39 -22,58 3,-19 3,-93 -2,-87 -4,1 -8,1 -13,2 -27,85 -51,107 -122,158 -10,7 -20,13 -30,20 -7,29 -2,37 8,65 5,12 11,23 16,34 0,27 2,26 -16,46 -14,5 -28,10 -42,16 -22,21 -43,42 -65,63 -4,29 -6,22 -34,30 2,8 4,15 6,23 -34,25 -43,28 -85,37 -3,-4 -5,-8 -8,-12 6,-13 13,-26 18,-38 14,-18 26,-44 49,-44 1,-4 1,-8 2,-12 9,-7 21,-13 30,-20 24,-23 46,-46 69,-68 5,-8 5,-17 4,-26 -4,-8 -8,-15 -13,-23 -5,-12 -9,-23 -14,-34 -6,1 -12,2 -18,3 -8,25 -2,27 -28,23 -23,-11 -47,-22 -70,-33 -20,-3 -40,-6 -60,-8 -23,-3 -34,-2 -53,-14 -12,1 -23,1 -34,2 -3,3 -5,6 -8,8 -40,2 -31,3 -63,-26 -5,-13 -15,-25 -21,-37 31,-5 48,-7 79,-3 5,4 11,8 16,12 30,3 48,0 75,16 25,6 50,12 75,17 11,-1 22,-2 33,-3 3,-6 6,-13 8,-18 -2,-8 -4,-15 -6,-23 -24,-13 -40,-42 -43,-72 0,0 -23,-23 -27,-41 -9,-43 -35,-79 8,-88 7,-12 -33,-33 -46,-43 -51,-41 -104,-73 -111,-141 -11,-1 -21,-1 -32,-2 -33,3 -32,-3 -54,-24 -28,-9 -52,-25 -72,-47 0,0 -18,-13 -28,-13 -14,0 4,86 -2,97 15,15 16,12 14,33 13,17 21,20 23,41 2,5 4,10 6,16 28,6 19,-1 23,24 3,16 0,36 0,36 -2,8 -4,14 -6,22 0,0 -18,-6 -28,-14 -19,-19 -21,-13 -18,-40 -12,-5 -13,-8 -20,-18 0,0 4,-4 -6,-12 -17,-12 -13,-9 -13,-30 0,-12 0,-12 0,-18 0,-8 6,-6 -2,-22 -8,-16 -4,-4 -13,-26 -4,-9 -1,-26 -2,-28 -9,-25 -9,-34 -12,-33 -1,8 -2,17 -3,26 0,4 0,8 0,12 -9,18 -12,24 -24,44 -17,5 -28,8 -28,-18 0,-28 -1,-30 12,-54 2,-6 3,-13 4,-18 0,0 0,-10 0,-20 0,-29 5,-62 24,-85 13,-14 25,-61 30,-78 3,-24 -3,-26 18,-36 3,-14 38,-16 48,-10 8,4 20,17 20,17 27,17 54,30 77,57 11,0 21,0 32,0 9,-7 18,-13 28,-20 1,-12 39,-34 48,-29 14,-35 28,-50 57,-78 -6,-2 50,-95 59,-94 2,-10 9,-39 -4,-43 -17,5 -64,-2 -72,-16 -5,0 -7,3 -13,3 -5,2 -11,3 -16,4 -12,10 -14,3 -28,8 -8,0 -22,3 -24,-4 -5,-12 6,-10 13,-11 3,-1 7,-2 10,-3 16,-5 3,-6 -8,-12 -4,1 -8,2 -12,3 -3,0 -7,0 -10,0 -3,0 -6,0 -8,0 -12,-8 -7,-6 -8,-19l-3 3zm30 -24c5,0 9,5 8,12 -1,7 -5,12 -11,12 -5,0 -9,-5 -8,-12 1,-7 5,-12 11,-12zm-235 415c19,-3 39,-6 64,-1 13,3 39,9 52,7 -11,-14 -19,-31 -30,-45 -10,-11 -21,-20 -29,-31 -12,-7 -15,-8 -28,-3 -11,8 -12,15 -17,28 0,20 -3,30 -13,46zm283 -117c-5,5 -5,9 2,14 30,-3 38,-8 66,3 12,1 27,-8 15,-17 -23,-18 -55,-5 -83,0zm60 -51c-3,49 78,-87 83,-93 7,-21 3,-29 -8,-25 -25,39 -49,78 -74,118zm43 -290c7,0 13,5 13,10 0,6 -2,10 -8,10 -7,0 -14,-9 -14,-14 0,-6 3,-6 10,-6zm-336 512c29,12 45,29 64,38 22,10 33,1 23,-11 -36,-18 -68,-43 -87,-28zm-50 -50c11,6 11,8 8,23 1,18 -1,46 -15,11 -2,-3 -3,-8 -6,-11 -2,-10 3,-18 13,-23zm58 -147c-2,13 -3,13 -17,16 -14,8 -37,15 -13,-11 3,-3 5,-6 8,-9 8,-4 15,-3 22,4l1 0zm59 112c-15,0 -17,-2 -22,-18 -11,-16 -24,-42 11,-18 4,3 8,5 13,8 7,8 7,18 -2,28zm26 53c-4,-22 0,-25 21,-38 20,-21 25,-45 19,-7 -3,7 -4,13 -7,20 -10,13 -16,33 -33,25zm373 102c-7,49 -77,-86 -68,-91 -7,-21 2,-27 14,-22 12,39 13,74 54,113l0 -1zm-113 175c-23,10 -116,-83 -123,-88 -13,-22 -12,-32 3,-30 38,40 83,89 120,118zm25 95c14,8 19,7 15,-6 -21,-37 -33,-38 -52,-58 -12,-3 -15,-3 -10,3 17,26 34,40 46,61l1 0zm87 -35c0,25 -7,50 -28,75 -6,-1 -13,-3 -18,-3 -9,3 -12,8 -7,11 3,3 8,7 11,10 -10,32 -17,63 -3,96 14,7 19,3 15,-11 -23,-36 -5,-58 11,-83 7,19 -13,54 3,58 14,-25 43,-68 7,-69 20,-25 29,-66 30,-79 1,-28 -13,-28 -20,-4l0 -1zm1 -136c17,11 13,14 -1,29 -9,19 -2,35 -17,11 -1,-5 -3,-9 -3,-14 3,-11 -1,-24 22,-26l-1 0zm197 153c-12,12 -11,18 -8,40 0,28 -8,48 6,18 2,-6 4,-12 6,-18 1,-15 8,-33 -4,-40l0 1zm114 -28c109,-68 43,-134 73,-214 -48,59 13,145 -88,203 -29,13 -16,23 16,12zm-269 354c-4,16 -9,18 -31,28 -24,15 -38,32 -18,4 4,-5 8,-9 13,-14 13,-8 25,-23 37,-18zm358 300l0 37 -978 0 0 73 18 0 0 -18 28 0 0 69 -28 0 0 -17 -18 0 0 78 38 0 0 37 -135 0 0 -37 38 0 0 -186 -38 0 0 -37 1075 0zm-749 178l-107 0 0 45c0,7 3,11 11,11l29 0c7,0 10,-3 10,-11l0 -27 57 0 0 24c0,13 -4,22 -13,29 -9,8 -21,11 -36,11l-67 0c-15,0 -28,-4 -36,-13 -8,-8 -12,-18 -12,-31l0 -113c0,-13 5,-23 15,-31 8,-6 19,-9 33,-9l68 0c32,0 48,14 48,42l0 72zm-57 -23l0 -53c0,-8 -3,-11 -9,-11l-31 0c-7,0 -10,4 -10,12l0 53 50 0 0 -1zm241 16l-58 0 0 -63c0,-3 0,-4 -1,-5 0,-1 -1,-1 -3,-1 -3,0 -9,4 -18,13 -6,6 -11,12 -14,18l0 90 18 0 0 37 -92 0 0 -37 18 0 0 -126 -18 0 0 -33 73 0 0 28c6,-6 13,-12 23,-17 13,-7 23,-11 34,-11 11,0 20,3 27,9 7,6 10,13 10,23l0 74 -1 0zm184 0l-58 0 0 -63c0,-3 0,-4 -1,-5 0,-1 -1,-1 -3,-1 -3,0 -9,4 -18,13 -6,6 -11,12 -14,18l0 90 18 0 0 37 -92 0 0 -37 18 0 0 -126 -18 0 0 -33 73 0 0 28c6,-6 13,-12 23,-17 13,-7 23,-11 34,-11 11,0 20,3 27,9 7,6 10,13 10,23l0 74 -1 0zm185 89l-124 0c-13,0 -24,-4 -33,-13 -8,-8 -11,-17 -11,-28l0 -43c0,-23 14,-33 42,-33l54 0 0 -43c0,-7 -3,-9 -8,-9l-21 0c-3,0 -5,1 -7,3 -2,2 -3,4 -3,6l0 28 -57 0 0 -24c0,-26 16,-38 48,-38l62 0c28,0 43,13 43,40l0 119 15 0 0 37 -1 -1zm-71 -27l0 -68 -28 0c-8,0 -11,3 -11,9l0 48c0,8 4,12 12,12l28 0zm255 -62l-58 0 0 -63c0,-3 0,-4 -1,-5 0,-1 -1,-1 -3,-1 -3,0 -9,4 -18,13 -6,6 -11,12 -14,18l0 90 18 0 0 37 -92 0 0 -37 18 0 0 -126 -18 0 0 -33 73 0 0 28c6,-6 13,-12 23,-17 13,-7 23,-11 34,-11 11,0 20,3 27,9 7,6 10,13 10,23l0 74 -1 0zm126 -152c0,5 -4,10 -13,13 -9,3 -21,6 -35,6 -13,0 -24,-2 -33,-6 -9,-3 -13,-8 -13,-13 0,-5 4,-10 13,-13 9,-3 20,-6 33,-6 13,0 25,2 34,6 9,4 14,8 14,13zm-2 241l-93 0 0 -37 18 0 0 -126 -18 0 0 -33 93 0 0 33 -18 0 0 126 18 0 0 37z"/>
   <polygon fill="#009846" points="1608,53 1608,149 92,149 92,53 "/>
   <polygon fill="#FEFEFE" points="1608,149 1608,244 92,244 92,149 "/>
   <polygon fill="#E31E24" points="1608,244 1608,340 92,340 92,244 "/>
  </g>
 </g>
</svg>
