

<!-- Creator: CorelDRAW X6 -->
<svg xmlns="http://www.w3.org/2000/svg" x="0" y="0" xml:space="preserve" width="25mm" height="25mm" version="1.1" shape-rendering="geometricPrecision" text-rendering="geometricPrecision" image-rendering="optimizeQuality" fill-rule="evenodd" clip-rule="evenodd"
viewBox="0 0 2500 2500"
 xmlns:xlink="http://www.w3.org/1999/xlink"
 enable-background="new 0 0 912.7 290.1">
 <g id="Layer_x0020_1">
  <metadata id="CorelCorpID_0Corel-Layer"/>
 </g>
 <g id="Layer_x0020_1_0">
  <metadata id="CorelCorpID_1Corel-Layer"/>
 </g>
 <g id="Layer_x0020_1_0_1">
  <metadata id="CorelCorpID_2Corel-Layer"/>
 </g>
 <g id="Layer_x0020_1_0_2">
  <metadata id="CorelCorpID_3Corel-Layer"/>
 </g>
 <g id="Layer_x0020_1_3">
  <metadata id="CorelCorpID_4Corel-Layer"/>
 </g>
 <g id="Layer_x0020_1_0_4">
  <metadata id="CorelCorpID_5Corel-Layer"/>
 </g>
 <g id="Layer_x0020_1_0_5">
  <metadata id="CorelCorpID_6Corel-Layer"/>
 </g>
 <g id="Layer_x0020_1_0_6">
  <metadata id="CorelCorpID_7Corel-Layer"/>
 </g>
 <g id="Layer_x0020_1_0_7">
  <metadata id="CorelCorpID_8Corel-Layer"/>
 </g>
 <g id="Layer_x0020_1_0_2_8">
  <metadata id="CorelCorpID_9Corel-Layer"/>
 </g>
 <g id="Layer_x0020_1_0_2_8_9">
  <metadata id="CorelCorpID_10Corel-Layer"/>
 </g>
 <g id="Layer_x0020_1_0_10">
  <metadata id="CorelCorpID_11Corel-Layer"/>
 </g>
 <g id="Layer_x0020_1_1">
  <metadata id="CorelCorpID_12Corel-Layer"/>
 </g>
 <g id="Layer_x0020_1_11">
  <metadata id="CorelCorpID_13Corel-Layer"/>
 </g>
 <g id="Layer_x0020_1_12">
  <metadata id="CorelCorpID_14Corel-Layer"/>
 </g>
 <g id="Layer_x0020_1_12">
  <metadata id="CorelCorpID_15Corel-Layer"/>
  <g id="_1_x0020__x0028_5_x0029_.eps">
   <g>
    <path fill="#FEFEFE" d="M2484 1250c0,-682 -553,-1235 -1235,-1235 -682,0 -1235,553 -1235,1235 0,682 553,1235 1235,1235 682,0 1235,-553 1235,-1235l0 0z"/>
    <path id="_1" fill="#34302E" fill-rule="nonzero" d="M1250 28l0 -26 0 0 64 2 63 5 63 8 62 11 60 14 59 16 58 20 57 22 55 25 54 27 52 30 50 32 49 35 47 37 45 40 44 41 41 44 40 45 37 47 35 49 32 50 30 52 27 54 25 55 22 57 20 58 16 59 14 60 11 62 8 63 5 63 2 64 -26 0 -2 -63 -5 -62 -7 -61 -11 -60 -14 -59 -16 -58 -19 -57 -22 -55 -25 -54 -27 -53 -30 -51 -32 -49 -34 -48 -36 -46 -39 -44 -40 -43 -43 -40 -44 -39 -46 -36 -48 -34 -49 -32 -51 -30 -53 -27 -54 -25 -55 -22 -57 -19 -58 -16 -59 -14 -60 -11 -61 -7 -62 -5 -63 -2 0 0 2 2zm0 -26l0 26 -1 0 -1 0 -1 0 -1 0 -1 0 -1 0 -1 0 -1 0 -1 0 -1 0 -1 0 -1 0 -1 0 -1 0 -1 0 -1 -1 -1 -1 0 -1 0 -1 0 -1 0 -1 0 -1 0 -1 0 -1 0 -1 0 -1 0 -1 0 -1 0 -1 0 -1 0 -1 0 -1 0 -1 0 -1 0 -1 0 -1 0 -1 0 -1 0 -1 0 -1 0 -1 0 -1 0 -1 0 -1 0 -1 0 -1 0 -1 1 -1 1 -1 1 0 1 0 1 0 1 0 1 0 1 0 1 0 1 0 1 0 1 0 1 0 1 0 1 0 1 0 1 0 0 2zm-1222 1248l-26 0 0 0 2 -64 5 -63 8 -63 11 -62 14 -60 16 -59 20 -58 22 -57 25 -55 27 -54 30 -52 32 -50 35 -49 37 -47 40 -45 41 -44 44 -41 45 -40 47 -37 49 -35 50 -32 52 -30 54 -27 55 -25 57 -22 58 -20 59 -16 60 -14 62 -11 63 -8 63 -5 64 -2 0 26 -63 2 -62 5 -61 7 -60 11 -59 14 -58 16 -57 19 -55 22 -54 25 -53 27 -51 30 -49 32 -48 34 -46 36 -44 39 -43 40 -40 43 -39 44 -36 46 -34 48 -32 49 -30 51 -27 53 -25 54 -22 55 -19 57 -16 58 -14 59 -11 60 -7 61 -5 62 -2 63 0 0 2 -2zm-26 0l26 0 0 1 0 1 0 1 0 1 0 1 0 1 0 1 0 1 0 1 0 1 0 1 0 1 0 1 0 1 0 1 -1 1 -1 1 -1 0 -1 0 -1 0 -1 0 -1 0 -1 0 -1 0 -1 0 -1 0 -1 0 -1 0 -1 0 -1 0 -1 0 -1 0 -1 0 -1 0 -1 0 -1 0 -1 0 -1 0 -1 0 -1 0 -1 0 -1 0 -1 0 -1 0 -1 0 -1 0 -1 0 -1 -1 -1 -1 0 -1 0 -1 0 -1 0 -1 0 -1 0 -1 0 -1 0 -1 0 -1 0 -1 0 -1 0 -1 0 -1 0 -1 0 -1 2 0zm1248 1222l0 26 0 0 -64 -2 -63 -5 -63 -8 -62 -11 -60 -14 -59 -16 -58 -20 -57 -22 -55 -25 -54 -27 -52 -30 -50 -32 -49 -35 -47 -37 -45 -40 -44 -41 -41 -44 -40 -45 -37 -47 -35 -49 -32 -50 -30 -52 -27 -54 -25 -55 -22 -57 -20 -58 -16 -59 -14 -60 -11 -62 -8 -63 -5 -63 -2 -64 26 0 2 63 5 62 7 61 11 60 14 59 16 58 19 57 22 55 25 54 27 53 30 51 32 49 34 48 36 46 39 44 40 43 43 40 44 39 46 36 48 34 49 32 51 30 53 27 54 25 55 22 57 19 58 16 59 14 60 11 61 7 62 5 63 2 0 0 -2 -2zm0 26l0 -26 1 0 1 0 1 0 1 0 1 0 1 0 1 0 1 0 1 0 1 0 1 0 1 0 1 0 1 0 1 0 1 1 1 1 0 1 0 1 0 1 0 1 0 1 0 1 0 1 0 1 0 1 0 1 0 1 0 1 0 1 0 1 0 1 0 1 0 1 0 1 0 1 0 1 0 1 0 1 0 1 0 1 0 1 0 1 0 1 0 1 0 1 0 1 -1 1 -1 1 -1 0 -1 0 -1 0 -1 0 -1 0 -1 0 -1 0 -1 0 -1 0 -1 0 -1 0 -1 0 -1 0 -1 0 -1 0 0 -2zm1222 -1248l26 0 0 0 -2 64 -5 63 -8 63 -11 62 -14 60 -16 59 -20 58 -22 57 -25 55 -27 54 -30 52 -32 50 -35 49 -37 47 -40 45 -41 44 -44 41 -45 40 -47 37 -49 35 -50 32 -52 30 -54 27 -55 25 -57 22 -58 20 -59 16 -60 14 -62 11 -63 8 -63 5 -64 2 0 -26 63 -2 62 -5 61 -7 60 -11 59 -14 58 -16 57 -19 55 -22 54 -25 53 -27 51 -30 49 -32 48 -34 46 -36 44 -39 43 -40 40 -43 39 -44 36 -46 34 -48 32 -49 30 -51 27 -53 25 -54 22 -55 19 -57 16 -58 14 -59 11 -60 7 -61 5 -62 2 -63 0 0 -2 2zm26 0l-26 0 0 -1 0 -1 0 -1 0 -1 0 -1 0 -1 0 -1 0 -1 0 -1 0 -1 0 -1 0 -1 0 -1 0 -1 0 -1 1 -1 1 -1 1 0 1 0 1 0 1 0 1 0 1 0 1 0 1 0 1 0 1 0 1 0 1 0 1 0 1 0 1 0 1 0 1 0 1 0 1 0 1 0 1 0 1 0 1 0 1 0 1 0 1 0 1 0 1 0 1 0 1 0 1 1 1 1 0 1 0 1 0 1 0 1 0 1 0 1 0 1 0 1 0 1 0 1 0 1 0 1 0 1 0 1 0 1 -2 0zm-13 0l0 0 0 0 0 0 -13 0 13 0zm13 0l-26 0 0 -1 0 -1 0 -1 0 -1 0 -1 0 -1 0 -1 0 -1 0 -1 0 -1 0 -1 0 -1 0 -1 0 -1 0 -1 1 -1 1 -1 1 0 1 0 1 0 1 0 1 0 1 0 1 0 1 0 1 0 1 0 1 0 1 0 1 0 1 0 1 0 1 0 1 0 1 0 1 0 1 0 1 0 1 0 1 0 1 0 1 0 1 0 1 0 1 0 1 0 1 0 1 1 1 1 0 1 0 1 0 1 0 1 0 1 0 1 0 1 0 1 0 1 0 1 0 1 0 1 0 1 0 1 0 1 -2 0z"/>
   </g>
   <path fill="#252422" d="M2455 1250c0,-665 -539,-1205 -1205,-1205 -665,0 -1205,539 -1205,1205 0,665 539,1205 1205,1205 665,0 1205,-539 1205,-1205l0 0z"/>
   <path fill="#FEFEFE" d="M636 631c-9,12 -18,22 -27,34 -25,30 -49,62 -74,92 0,0 -1,1 -1,1 -2,-1 -2,-2 -4,-3 -7,-6 -13,-11 -20,-16 -12,-9 -23,-19 -35,-28 22,-28 44,-56 67,-84 11,-13 21,-27 33,-41 7,-10 17,-16 30,-17 16,-1 29,8 35,22 6,13 3,28 -6,40l0 0 1 2zm-209 40c-14,-12 -28,-23 -43,-34 -6,-4 -11,-9 -16,-13 0,0 6,-7 6,-7 26,-33 53,-66 79,-99 7,-9 13,-18 24,-22 15,-6 32,-2 42,10 8,9 12,22 8,35 -3,11 -11,19 -18,28 -14,17 -28,35 -42,52 -14,17 -28,35 -42,52l0 0 2 -1zm301 -99c-5,-32 -24,-59 -54,-72 -30,-13 -64,-8 -91,10 -2,2 -4,3 -6,5 4,-15 6,-30 2,-45 -3,-15 -12,-29 -22,-40 -22,-21 -56,-29 -86,-18 -14,5 -26,14 -35,26 -5,7 -11,13 -16,20 -27,34 -54,68 -82,102 -24,30 -47,58 -70,88 -2,2 -3,4 -5,6 0,0 3,2 3,2 9,7 18,15 27,22 35,27 69,55 103,82 34,27 68,54 102,81 9,7 17,14 26,21 0,0 2,2 2,2 2,-2 3,-4 5,-7 23,-30 47,-58 70,-87 28,-35 56,-70 84,-105 15,-18 30,-35 37,-58 3,-12 4,-24 3,-36l0 0 0 2z"/>
   <path fill="#FEFEFE" d="M2003 1250c0,-416 -338,-753 -753,-753 -416,0 -753,338 -753,753 0,416 338,753 753,753 416,0 753,-338 753,-753l0 0z"/>
   <path fill="#0290C9" d="M1250 534c-390,10 -705,324 -715,715l715 0 0 -715z"/>
   <path fill="#0290C9" d="M1250 1965c390,-10 705,-324 715,-715l-715 0 0 715z"/>
   <polygon fill="#FEFEFE" points="2053,426 1990,367 1786,635 1849,693 2073,590 1924,786 1967,860 2273,720 2229,646 2053,727 2178,562 2124,494 1935,580 "/>
   <polygon fill="#FEFEFE" points="1138,221 1218,446 1281,446 1361,221 1369,446 1457,459 1444,120 1331,107 1250,346 1168,107 1055,120 1042,459 1130,446 "/>
  </g>
 </g>
</svg>
