

<!-- Creator: CorelDRAW X6 -->
<svg xmlns="http://www.w3.org/2000/svg" x="0" y="0" xml:space="preserve" width="50mm" height="25mm" version="1.1" shape-rendering="geometricPrecision" text-rendering="geometricPrecision" image-rendering="optimizeQuality" fill-rule="evenodd" clip-rule="evenodd"
viewBox="0 0 5000 2500"
 xmlns:xlink="http://www.w3.org/1999/xlink"
 enable-background="new 0 0 912.7 290.1">
 <g id="Layer_x0020_1">
  <metadata id="CorelCorpID_0Corel-Layer"/>
 </g>
 <g id="Layer_x0020_1_0">
  <metadata id="CorelCorpID_1Corel-Layer"/>
 </g>
 <g id="Layer_x0020_1_0_1">
  <metadata id="CorelCorpID_2Corel-Layer"/>
 </g>
 <g id="Layer_x0020_1_0_2">
  <metadata id="CorelCorpID_3Corel-Layer"/>
 </g>
 <g id="Layer_x0020_1_3">
  <metadata id="CorelCorpID_4Corel-Layer"/>
 </g>
 <g id="Layer_x0020_1_0_4">
  <metadata id="CorelCorpID_5Corel-Layer"/>
 </g>
 <g id="Layer_x0020_1_0_5">
  <metadata id="CorelCorpID_6Corel-Layer"/>
 </g>
 <g id="Layer_x0020_1_0_6">
  <metadata id="CorelCorpID_7Corel-Layer"/>
 </g>
 <g id="Layer_x0020_1_0_7">
  <metadata id="CorelCorpID_8Corel-Layer"/>
 </g>
 <g id="Layer_x0020_1_0_2_8">
  <metadata id="CorelCorpID_9Corel-Layer"/>
 </g>
 <g id="Layer_x0020_1_0_2_8_9">
  <metadata id="CorelCorpID_10Corel-Layer"/>
 </g>
 <g id="Layer_x0020_1_0_10">
  <metadata id="CorelCorpID_11Corel-Layer"/>
 </g>
 <g id="Layer_x0020_1_1">
  <metadata id="CorelCorpID_12Corel-Layer"/>
 </g>
 <g id="Layer_x0020_1_11">
  <metadata id="CorelCorpID_13Corel-Layer"/>
 </g>
 <g id="Layer_x0020_1_12">
  <metadata id="CorelCorpID_14Corel-Layer"/>
  <g id="_433605280">
   <path fill="#2B2A29" d="M3340 1012c73,76 188,82 188,82l109 8c81,6 98,44 98,44 70,123 244,189 244,189 -111,-64 -192,-206 -192,-206 -53,-78 -181,-78 -181,-78l-75 0c-98,0 -192,-39 -192,-39l1 0z"/>
   <path fill="#2B2A29" d="M4144 1380c-57,-26 -128,-32 -128,-32 68,24 93,44 93,44 52,32 17,87 17,87 -44,78 -216,39 -216,39 183,123 260,31 260,31 48,-57 36,-84 23,-119 0,0 167,53 339,-106 0,0 -185,148 -387,56l-1 0z"/>
   <path fill="#2B2A29" d="M1001 76c0,0 -108,13 -160,12 0,0 -11,2 -11,9 0,0 3,13 27,13 0,0 97,-3 144,-34z"/>
   <path fill="#2B2A29" d="M2130 870c0,0 147,13 388,1 59,-3 89,7 89,7 108,16 125,67 125,67 0,0 192,394 569,385l178 1c161,0 376,158 376,158 -44,-33 -135,-120 -135,-120 -115,-102 -300,-103 -300,-103l-188 -1c-358,-3 -451,-326 -451,-326 -47,-101 -153,-94 -153,-94 -8,0 -16,-1 -24,0 -352,18 -467,-11 -467,-11 -72,-20 -153,-49 -232,-93 0,0 17,-80 -17,-147 0,0 130,52 248,24 0,0 -191,-48 -326,-144 0,0 65,187 11,258 0,0 -35,130 -357,24 0,0 -133,-52 -237,-52 0,0 -83,3 -83,47 0,0 0,20 20,30 0,0 24,17 9,53 0,0 33,-24 24,-59 0,0 -3,-18 13,-23 0,0 44,-18 170,28 0,0 203,93 320,93 0,0 126,-8 173,-63 0,0 107,43 256,60l-1 0z"/>
   <path fill="#2B2A29" d="M677 545c42,2 77,-38 77,-38 90,-97 217,-104 217,-104 163,-11 362,148 362,148 -140,-187 -288,-199 -288,-199 -37,-6 -52,-44 -52,-44 -48,-87 -101,-91 -101,-91 27,36 23,86 23,86 0,91 -136,104 -136,104 -54,107 -100,101 -100,101 -24,0 -31,-14 -31,-14 -6,-8 3,-16 3,-16 15,-9 28,-22 28,-22 93,-72 93,-152 93,-152 -12,-93 -91,-95 -91,-95 -36,0 -52,23 -52,23 -14,17 -50,82 -50,82 -27,44 -51,38 -51,38 -30,2 -52,-26 -52,-26 -1,-1 -3,-3 -3,-3 -12,-14 -3,-30 -3,-30 35,-57 109,-70 109,-70 3,-1 5,-2 8,-3 0,0 7,-2 14,-4l0 -1c96,-34 104,-84 104,-84 -33,-18 -63,-18 -63,-18 -58,3 -78,61 -78,61l-14 -14c0,0 -7,-8 3,-17 0,0 43,-54 204,-78 0,0 132,-23 302,-1 0,0 -106,110 -233,64 0,0 -2,41 109,61 0,0 117,12 264,153 0,0 -39,-85 -165,-182 0,0 -10,-7 -1,-16 0,0 55,-63 128,-62 0,0 378,19 592,242 0,0 -8,-37 -40,-91 0,0 -7,-7 -3,-11 0,0 3,-9 40,-2 0,0 135,23 449,137l340 122c0,0 118,43 184,73 0,0 -133,-5 -203,32 0,0 -3,2 -2,4 0,0 1,3 7,2 0,0 112,-31 219,17 0,0 110,45 197,114 0,0 59,52 97,93 0,0 88,82 189,140 0,0 -82,-78 -150,-150 0,0 -98,-117 -142,-156 0,0 335,158 637,328 54,31 229,132 229,132 170,105 336,172 336,172 152,68 278,-3 278,-3l6 -3c82,-43 100,-29 100,-29 40,15 28,57 28,57 35,-36 32,-56 32,-56 -1,-62 -69,-57 -69,-57 -18,2 -76,34 -113,56l-11 7c-98,51 -235,3 -235,3 -182,-72 -340,-171 -340,-171 0,0 -311,-185 -579,-319 0,0 -335,-173 -783,-368 0,0 -856,-396 -1486,-396 0,0 -327,-4 -438,122 0,0 -13,19 -10,36 0,0 2,6 -3,9 0,0 -48,32 -88,77 0,0 -23,23 -4,54 0,0 14,23 27,39l0 0c6,8 39,49 88,45 0,0 14,-1 21,3 0,0 13,11 28,17l23 0c0,0 5,-1 6,-5 0,0 -2,-13 -4,-21 0,0 -13,-18 -8,-38 0,0 6,-35 28,-60 0,0 23,-23 52,-3 0,0 53,46 26,101 0,0 -23,42 -47,42 0,0 -12,3 -24,-8l-16 -3c0,0 -5,0 -5,4l1 12c0,0 0,7 3,10 0,0 7,8 -1,18 0,0 -15,14 -8,34 0,0 14,58 61,58l1 2zm-18 -402c0,0 -23,36 -65,32 0,0 10,-44 65,-32zm-124 42c16,-6 18,3 18,3 1,8 -8,10 -8,10 -43,27 -80,67 -80,67 -7,7 -10,3 -10,3 -8,-7 0,-16 0,-16 34,-37 81,-68 81,-68l-1 1z"/>
   <path fill="#2B2A29" d="M1391 363c-89,126 -18,215 -18,215 -239,-8 -307,59 -307,59 -117,91 -74,197 -74,197 67,106 144,32 144,32 -111,23 -109,-76 -109,-76 24,-170 247,-163 247,-163 191,0 487,53 487,53 -224,-52 -293,-108 -293,-108 -94,-58 -76,-209 -76,-209z"/>
   <path fill="#2B2A29" d="M3155 2190c8,-31 11,-66 11,-127l0 -326 -72 0 0 351c0,43 -3,70 -8,93 -20,97 -93,133 -204,133 -53,0 -114,-13 -150,-54 -32,-36 -38,-83 -38,-164l0 -358 -118 0 0 363c0,74 8,143 59,194 48,48 139,68 244,68 154,0 246,-52 276,-173l0 -1z"/>
   <path fill="#2B2A29" d="M3974 2350l139 0 -299 -612 -73 0 -306 612 74 0 83 -172 304 0 78 172zm-226 -497l129 283 -264 0 136 -283 -1 0z"/>
   <path fill="#2B2A29" d="M1185 2350l139 0 -299 -612 -73 0 -306 612 74 0 83 -172 304 0 78 172zm-226 -497l129 283 -264 0 136 -283 -1 0z"/>
   <path fill="#2B2A29" d="M1962 2363c76,0 173,-14 242,-46l0 -250 -117 0 0 223c-38,14 -93,22 -133,22 -156,0 -257,-107 -257,-263 0,-173 115,-277 281,-277 73,0 148,29 205,72l0 -73c-63,-32 -143,-47 -213,-47 -115,0 -238,35 -318,122 -52,56 -85,134 -85,211 0,235 193,305 394,305l0 1z"/>
   <path fill="#2B2A29" d="M4813 2350l135 0 -180 -248c63,-23 135,-80 135,-175 0,-52 -14,-92 -41,-121 -50,-55 -140,-68 -230,-68l-222 0 0 612 118 0 0 -235 123 0 163 235zm-199 -570c94,0 169,39 169,143 0,52 -18,90 -49,115 -29,23 -67,36 -130,36l-75 0 0 -293 86 0 -1 0z"/>
   <path fill="#2B2A29" d="M152 2476c107,-53 150,-162 150,-275l0 -463 -118 0 0 385c0,54 0,108 -7,163 -12,98 -46,157 -126,215 35,0 68,-10 100,-24z"/>
  </g>
 </g>
</svg>
