

<!-- Creator: CorelDRAW X6 -->
<svg xmlns="http://www.w3.org/2000/svg" x="0" y="0" xml:space="preserve" width="25mm" height="25mm" version="1.1" shape-rendering="geometricPrecision" text-rendering="geometricPrecision" image-rendering="optimizeQuality" fill-rule="evenodd" clip-rule="evenodd"
viewBox="0 0 2500 2500"
 xmlns:xlink="http://www.w3.org/1999/xlink"
 enable-background="new 0 0 912.7 290.1">
 <g id="Layer_x0020_1">
  <metadata id="CorelCorpID_0Corel-Layer"/>
 </g>
 <g id="Layer_x0020_1_0">
  <metadata id="CorelCorpID_1Corel-Layer"/>
 </g>
 <g id="Layer_x0020_1_1">
  <metadata id="CorelCorpID_2Corel-Layer"/>
  <g id="_1_x0020__x0028_49_x0029_.eps">
   <path fill="#2B2A29" d="M1250 0c690,0 1250,560 1250,1250 0,690 -560,1250 -1250,1250 -690,0 -1250,-560 -1250,-1250 0,-690 560,-1250 1250,-1250z"/>
   <path fill="none" stroke="#2B2A29" stroke-width="2.07" d="M1250 0c690,0 1250,560 1250,1250 0,690 -560,1250 -1250,1250 -690,0 -1250,-560 -1250,-1250 0,-690 560,-1250 1250,-1250z"/>
   <path fill="#FEFEFE" stroke="#2B2A29" stroke-width="2.07" d="M1250 34c671,0 1215,544 1215,1216 0,672 -544,1216 -1215,1216 -671,0 -1215,-544 -1215,-1216 0,-672 544,-1216 1215,-1216z"/>
   <path fill="#2B2A29" stroke="#2B2A29" stroke-width="2.07" d="M1250 77c648,0 1173,525 1173,1173 0,648 -525,1173 -1173,1173 -648,0 -1173,-525 -1173,-1173 0,-648 525,-1173 1173,-1173z"/>
   <path fill="#FEFEFE" d="M1268 501c422,0 763,337 763,753 0,416 -342,753 -763,753 -422,0 -763,-338 -763,-753 0,-416 342,-753 763,-753z"/>
   <path fill="none" stroke="#FEFEFE" stroke-width="2.07" d="M1268 501c422,0 763,337 763,753 0,416 -342,753 -763,753 -422,0 -763,-338 -763,-753 0,-416 342,-753 763,-753z"/>
   <path fill="#2B2A29" stroke="#2B2A29" stroke-width="2.07" d="M167 1481l35 -90c85,-541 199,-749 660,-1114l66 -72c-258,61 -451,240 -589,439 -155,250 -206,497 -172,837z"/>
   <path fill="#FEFEFE" stroke="#FEFEFE" stroke-width="2.08" d="M363 607l-62 77c-28,58 -18,88 12,117 26,22 60,26 106,2l42 -32c18,-10 33,-13 43,-7 8,5 13,27 6,42 -5,17 -35,48 -62,61 15,12 30,23 45,34 23,-21 44,-43 61,-66 24,-33 32,-91 -2,-120 -23,-24 -58,-42 -101,-21 -20,12 -36,26 -53,42 -13,11 -30,8 -38,2 -8,-9 -8,-25 1,-40 7,-13 24,-37 52,-52l-50 -39z"/>
   <polygon fill="#FEFEFE" stroke="#FEFEFE" stroke-width="2.08" points="246,684 293,677 316,651 313,597 296,616 298,656 261,665 "/>
   <polygon fill="#FEFEFE" stroke="#FEFEFE" stroke-width="2.07" points="580,398 738,621 795,583 724,482 738,479 871,533 946,485 768,428 784,263 710,310 708,450 643,357 "/>
   <path fill="#FEFEFE" stroke="#FEFEFE" stroke-width="2.07" d="M1214 163c-92,1 -140,52 -142,141 3,114 89,148 141,144 53,1 137,-28 134,-138 3,-103 -59,-147 -133,-148z"/>
   <path fill="#2B2A29" stroke="#2B2A29" stroke-width="2.07" d="M1212 215c35,0 64,40 64,89 0,49 -28,89 -64,89 -35,0 -64,-40 -64,-89 0,-49 28,-89 64,-89z"/>
   <path fill="#FEFEFE" stroke="#FEFEFE" stroke-width="2.07" d="M1543 478l127 -239 113 58c103,53 78,145 59,177 -48,86 -118,92 -187,63l-111 -58 -1 0z"/>
   <path fill="#2B2A29" stroke="#2B2A29" stroke-width="2.07" d="M1634 464l75 -144 37 21c53,33 43,69 26,106 -24,42 -63,53 -106,33l-32 -16z"/>
   <polygon fill="#FEFEFE" stroke="#FEFEFE" stroke-width="2.07" points="1893,693 2182,640 2227,713 2045,936 2008,875 2048,831 1992,739 1930,749 "/>
   <polygon fill="#2B2A29" stroke="#2B2A29" stroke-width="2.07" points="2048,728 2151,707 2083,785 "/>
   <path fill="#009846" d="M1582 1529c89,-287 116,-656 -166,-893 -70,-48 -108,-63 -213,-49l-102 19c-19,8 -57,15 -30,43l168 164c8,11 -8,25 -23,18l-180 -162c-37,-29 -72,-13 -104,3 -68,36 -127,91 -177,159 -9,9 -22,25 -11,33l222 108c10,9 1,27 -11,25l-191 -83c-37,-14 -69,-15 -110,37 -33,47 -63,99 -68,184 -1,20 -15,57 29,53 8,1 18,0 26,1 263,24 363,120 406,328 4,14 7,28 -3,32 -10,4 -22,-3 -33,-3 -114,-88 -215,-110 -368,-97 -18,1 -23,14 -9,23 103,54 176,88 167,230 0,15 4,29 20,23 54,3 81,-11 110,-30 33,-18 53,-56 96,-57l615 -1 7 53c12,23 17,21 40,18 60,-9 182,-62 183,-116 7,-61 -121,-104 -189,-134 -19,-8 -28,-3 -31,12l-8 60 -61 0 0 -2z"/>
   <path fill="#FEFEFE" d="M1439 1274c52,0 93,38 93,85 0,47 -42,85 -93,85 -52,0 -93,-38 -93,-85 0,-47 42,-85 93,-85z"/>
   <path fill="#1c1b17" stroke="#D9DADA" stroke-width="2.07" d="M1439 1274c52,0 93,38 93,85 0,47 -42,85 -93,85 -52,0 -93,-38 -93,-85 0,-47 42,-85 93,-85z"/>
   <polygon fill="#FEFEFE" stroke="#FEFEFE" stroke-width="2.07" points="618,2080 793,1957 850,1991 804,2202 757,2174 764,2127 701,2083 658,2108 "/>
   <polygon fill="#2B2A29" stroke="#2B2A29" stroke-width="2.07" points="736,2058 790,2014 774,2086 "/>
   <path fill="#FEFEFE" stroke="#FEFEFE" stroke-width="2.07" d="M1020 2070l-20 130c-8,61 43,88 82,90 47,3 87,-13 94,-52l22 -142 -49 -8 -22 138c-6,13 -23,24 -38,22 -18,0 -34,-13 -34,-30l19 -142 -53 -7 -1 1z"/>
   <polygon fill="#FEFEFE" stroke="#FEFEFE" stroke-width="2.07" points="1345,2093 1495,2072 1501,2106 1453,2113 1477,2280 1430,2283 1405,2122 1351,2128 "/>
   <path fill="#FEFEFE" stroke="#FEFEFE" stroke-width="2.07" d="M1695 1973c-35,28 -71,87 -10,153 43,48 92,48 133,23 57,-40 59,-84 32,-137 -18,-45 -77,-84 -155,-39z"/>
   <path fill="#2B2A29" stroke="#2B2A29" stroke-width="2.07" d="M1725 2003c23,-13 56,0 76,30 20,30 18,66 -4,79 -23,13 -56,0 -76,-30 -20,-30 -18,-66 4,-79z"/>
  </g>
 </g>
</svg>
