

<!-- Creator: CorelDRAW X6 -->
<svg xmlns="http://www.w3.org/2000/svg" x="0" y="0" xml:space="preserve" width="96mm" height="30mm" version="1.1" style="shape-rendering:geometricPrecision; text-rendering:geometricPrecision; image-rendering:optimizeQuality; fill-rule:evenodd; clip-rule:evenodd"
viewBox="0 0 9600 3000"
 xmlns:xlink="http://www.w3.org/1999/xlink">
 <defs>
  <style type="text/css">
   <![CDATA[
    .fil0 {fill="#2B2A29"}
    .fil1 {fill="#E4DDDC"}
    .fil2 {fill="#FEFEFE"}
   ]]>
  </style>
 </defs>
 <g id="Layer_x0020_1">
  <metadata id="CorelCorpID_0Corel-Layer"/>
  <g id="_151718752">
   <path fill="#2B2A29" d="M6024 2524c-321,267 -763,432 -1253,432 -490,0 -933,-165 -1253,-432 -322,-268 -522,-640 -522,-1049 0,-408 199,-777 522,-1044 321,-266 764,-430 1253,-430 490,0 933,164 1253,430 322,267 522,636 522,1044 0,410 -199,781 -522,1049z"/>
   <path fill="#E4DDDC" d="M4771 2905c478,0 909,-161 1221,-420 311,-259 503,-616 503,-1010 0,-392 -192,-748 -503,-1005 -312,-258 -743,-418 -1221,-418 -478,0 -909,160 -1221,418 -311,258 -503,613 -503,1005 0,394 192,751 503,1010 312,260 743,420 1221,420z"/>
   <path fill="#2B2A29" d="M4771 2809c451,0 860,-150 1156,-393 294,-241 476,-574 476,-942 0,-364 -183,-696 -477,-936 -296,-242 -705,-391 -1155,-391 -452,0 -860,150 -1156,391 -295,241 -477,572 -477,937 0,368 182,701 476,943 295,242 704,392 1156,392zm1188 -354c-305,250 -725,405 -1188,405 -464,0 -884,-154 -1189,-404 -306,-251 -495,-598 -495,-982 0,-381 189,-726 496,-977 304,-248 724,-402 1188,-402 462,0 882,154 1187,403 306,250 496,595 496,976 0,384 -189,730 -495,981z"/>
   <path fill="#2B2A29" d="M4044 2876c-36,-19 -63,-49 -71,-91 -6,-34 1,-75 28,-123l0 -1 209 -351c11,-20 32,-31 55,-36 26,-5 57,-1 74,7 16,8 37,28 49,51 7,-5 15,-9 23,-12 26,-9 58,-10 75,-4l0 0c16,5 39,22 55,43 2,-2 5,-4 8,-5l0 0c24,-15 56,-21 72,-21 0,0 4,0 4,0 17,3 46,18 66,39 0,0 1,1 1,1 3,-3 6,-5 9,-8l0 0c22,-18 53,-29 70,-29 17,0 48,11 70,29l0 0c3,2 6,5 9,8 0,0 1,-1 1,-1 20,-21 49,-36 66,-39 0,0 0,0 0,0l0 0 0 0c0,0 4,0 4,0 16,0 47,6 70,21 3,2 6,4 9,6 16,-21 40,-39 56,-44l0 0c17,-6 49,-5 75,4 8,3 16,7 23,12 13,-23 34,-43 49,-51l0 0c16,-8 47,-12 73,-7 23,4 45,16 56,36l209 351 1 1c25,48 32,90 26,124 -8,41 -33,71 -69,90 0,0 -2,1 -2,1 -42,18 -83,22 -120,4 -10,-5 -19,-11 -28,-19 -1,5 -3,9 -5,14 -13,31 -38,52 -70,64l0 0c-4,1 -8,3 -12,4l0 0c-6,2 -12,4 -19,5 -33,7 -65,5 -93,-11 -12,-7 -22,-15 -32,-26 -2,5 -4,11 -7,15 -20,38 -54,58 -95,65 0,0 -2,0 -2,0 -44,5 -84,-5 -114,-34 -6,-5 -11,-11 -15,-18 -4,8 -10,15 -15,21 -21,23 -49,36 -79,38 -6,0 -12,0 -18,0 -5,0 -9,0 -12,0l0 0c-36,-3 -67,-15 -90,-41 -5,-6 -10,-12 -14,-19 -5,7 -10,13 -16,19 -30,29 -70,38 -114,34 0,0 -2,0 -2,0 -41,-7 -76,-28 -95,-65 -3,-5 -5,-11 -7,-17 -10,12 -21,21 -33,28 -29,17 -63,19 -97,10 -4,-1 -8,-2 -12,-4 0,0 0,0 0,0 0,0 0,0 0,0 -4,-1 -8,-3 -12,-4l0 0c-32,-12 -56,-33 -70,-64 -2,-4 -4,-9 -5,-13 -9,8 -18,14 -28,18 -37,18 -78,15 -120,-4 0,0 -2,-1 -2,-1z"/>
   <path fill="#E4DDDC" d="M4196 2765c0,0 0,0 0,0 2,-8 5,-16 8,-23l0 -1 24 -57 119 -302 1 -1c3,-6 0,-15 -4,-23 -7,-15 -20,-27 -28,-32 -8,-4 -26,-6 -42,-3 -9,2 -17,5 -20,10 0,0 -1,2 -1,2l-209 352c-21,37 -26,66 -22,89 4,24 21,43 43,55 28,12 55,15 77,5 20,-10 39,-32 54,-70zm80 -63l-31 80 0 0c0,0 0,1 0,1 -8,31 -8,55 0,73 7,17 22,29 41,37l0 0c3,1 6,2 9,3l1 0c3,1 6,2 10,3 22,6 43,5 60,-5 18,-10 33,-30 44,-63 2,-6 3,-11 5,-16l0 0 95 -400c0,0 1,-2 1,-2 2,-5 -1,-13 -7,-21 -9,-14 -24,-25 -32,-28l0 0c-8,-3 -26,-2 -42,4 -9,3 -16,8 -18,13 0,0 -1,2 -1,2l-133 319zm1037 -18l24 57 0 1c3,8 6,16 8,23 0,0 0,0 0,1 15,37 33,59 53,69 22,11 49,8 77,-5 22,-12 37,-30 42,-54 4,-23 -1,-53 -21,-91l-208 -351c0,0 -1,-2 -1,-2 -2,-4 -11,-8 -20,-9 -16,-3 -33,-2 -39,2 0,0 -2,1 -2,1 -9,4 -21,17 -28,32 -4,9 -6,17 -4,23l0 1 119 302zm-412 85l5 61 0 0c0,5 1,10 1,15 4,37 15,62 30,78 17,17 43,23 71,20 26,-5 47,-17 59,-39 11,-21 14,-51 5,-92l-92 -396 0 -1c-1,-7 -8,-13 -16,-18 -14,-9 -32,-13 -42,-13 -9,2 -24,11 -35,23 -7,7 -12,15 -11,22l0 1 24 339zm-267 75c0,-5 0,-10 1,-15l0 0 5 -60 24 -339 0 -1c1,-7 -4,-15 -11,-22 -11,-12 -26,-21 -35,-23 -11,1 -29,5 -44,13l0 0c-7,4 -13,9 -13,15 0,0 -1,3 0,3l-92 396c-9,41 -6,72 5,92 11,22 33,34 59,39 29,3 54,-3 71,-20 16,-15 26,-40 30,-78zm-355 100c0,0 0,0 0,0l0 0zm0 0c0,0 0,0 0,0l0 0zm868 -543l0 0 0 0zm0 0c0,0 0,0 0,0l0 0zm143 360l-158 -377c0,0 -1,-2 -1,-2 -2,-5 -9,-10 -18,-13 -16,-6 -33,-7 -42,-4l0 0c-9,3 -23,14 -32,28 -5,8 -8,15 -7,21 0,0 1,2 1,2l95 400 0 0c2,7 4,14 6,21 10,29 24,48 41,57 16,9 36,11 57,6 4,-1 9,-2 14,-4l1 0 42 -135zm-42 135c3,-1 6,-2 8,-3l0 0c19,-7 34,-20 41,-37 8,-19 9,-44 -1,-76 -2,-6 -4,-12 -6,-19l0 0c0,0 0,0 0,0l-42 135zm-392 -33c1,-9 0,-19 0,-29l-33 -407c0,0 0,-2 0,-2 0,-7 -6,-14 -13,-20l0 0c-13,-11 -30,-17 -38,-17 -8,0 -25,7 -38,17l0 0c-7,6 -13,13 -13,20 0,0 0,2 0,2l-33 407c0,6 -1,12 -1,17 0,35 8,59 22,74 13,15 33,22 56,24l0 0c4,0 7,0 10,0l1 0 80 -87zm-80 87c4,0 8,0 12,0 18,-1 33,-8 45,-21 13,-14 21,-36 23,-65 0,0 0,0 0,0 0,0 0,0 0,0l-80 86zm-381 -548c0,0 0,0 0,0l0 0 0 0z"/>
   <path fill="#2B2A29" d="M3674 1870c-73,40 -282,99 -341,-37 -84,44 -257,77 -341,-33 -139,33 -297,103 -356,-59 -125,33 -433,110 -466,-92 -183,26 -447,44 -484,-150 -158,0 -429,-26 -429,-205 -158,0 -433,-106 -400,-235 -143,-15 -334,-165 -334,-264 -139,-44 -297,-150 -264,-293 -84,-51 -224,-110 -224,-194 0,-81 66,-150 139,-150 77,0 359,44 458,44 99,0 1302,-26 1584,-11 282,18 642,11 814,-7 176,-15 921,-55 1023,150 73,150 18,202 -48,260 -70,59 -293,165 -293,517 0,348 44,532 -40,759z"/>
   <path fill="#E4DDDC" d="M300 242c257,0 855,18 972,18 117,0 939,92 1067,132 59,18 73,77 0,81 -70,4 -917,15 -1042,15 -125,0 -979,15 -1093,-136 -84,-110 22,-106 95,-110zm3264 924c-40,-29 -117,55 -147,103 -26,51 -7,81 22,95 29,11 81,-18 92,-44 11,-29 73,-114 33,-154zm-22 396c-55,70 -110,121 -143,165 -33,40 7,84 40,95 37,11 99,48 172,-103l-70 -158zm-231 -411c-37,40 -125,103 -59,150 59,40 92,0 121,-29 26,-29 125,-128 88,-172 -37,-40 -117,33 -150,51zm-191 -33c-121,77 15,143 92,77 40,-33 125,-99 88,-147 -33,-40 -143,51 -180,70zm15 -147c-59,26 -242,88 -183,169 33,37 92,4 114,-11 26,-15 154,-103 121,-154 -11,-18 -40,-11 -51,-4zm-319 -29c-51,33 -26,161 92,103 121,-59 205,-117 187,-161 -18,-40 -154,-7 -279,59zm51 -183c-51,18 -106,44 -147,70 -40,26 -73,121 84,81 161,-44 169,-99 147,-136 -22,-37 -73,-18 -84,-15zm-198 -66c-40,4 -77,37 -66,73 15,44 110,59 213,7 106,-55 99,-66 88,-95 -11,-29 -121,-7 -235,15zm-103 -132c-62,11 -62,37 -55,59 7,22 40,62 147,44 110,-15 169,-59 169,-95 0,-37 -194,-15 -260,-7zm-15 -128c-110,0 -114,117 11,110 99,-4 216,-29 216,-66 -4,-40 -147,-44 -227,-44zm356 26c88,0 407,-7 499,11 92,15 205,40 253,125 44,70 -26,183 -59,231 -37,44 -132,136 -169,169 -33,26 -95,-15 -40,-77 -70,40 -158,33 -117,-66 -62,51 -165,55 -103,-73 -40,33 -158,29 -84,-70 -62,18 -132,-18 -88,-81 -77,11 -125,-48 -40,-92 -77,22 -99,-70 -51,-77zm-979 -231c110,0 473,22 609,22 132,0 440,-7 550,-15 114,-7 407,-15 524,0 117,11 374,29 418,150 48,121 -51,187 -114,235 -62,44 -257,158 -264,451 -48,-22 -121,-33 -70,-139 29,-59 169,-249 136,-337 -33,-88 -139,-158 -385,-169 -246,-7 -590,0 -712,-18 -121,-22 -583,-139 -679,-150 -44,-7 -44,-26 -15,-29zm1445 1232c-66,66 -165,176 -235,235 -48,44 -15,128 66,92 77,-37 220,-169 260,-297 -29,-7 -62,-18 -92,-29zm-187 -62c-106,73 -348,235 -389,264 -55,37 -84,99 26,92 106,-11 308,-88 466,-319 -22,-7 -77,-26 -103,-37zm-191 -110c-62,40 -469,253 -657,308 -62,22 -33,81 29,88 62,11 220,11 407,-103 114,-66 279,-187 330,-231 -26,-11 -81,-44 -110,-62zm-172 -143c-95,48 -679,290 -902,341 -62,15 -95,62 -22,88 77,22 249,11 356,-18 103,-29 524,-165 686,-323 -33,-15 -110,-70 -117,-88zm-1375 176c103,-22 946,-213 1188,-304 70,-22 95,0 106,26 15,26 18,62 -29,84 -44,18 -693,286 -1001,304 -110,0 -202,-40 -253,-62 -33,-18 -18,-18 -11,-48zm-392 -216c147,-18 1115,-172 1375,-242 106,-26 154,-15 169,15 11,29 11,81 -62,106 -77,26 -932,224 -1089,235 -158,7 -345,-29 -396,-70 -48,-37 4,-44 4,-44zm-312 -260c106,0 1331,-92 1588,-147 88,-7 147,-11 154,26 7,37 4,55 -70,77 -77,18 -987,191 -1445,198 -154,-4 -334,-150 -227,-154zm-290 -275c150,4 899,7 987,4 84,-4 763,-40 840,-44 81,-7 154,15 154,40 0,26 -15,48 -106,66 -92,22 -935,117 -1573,106 -121,4 -282,-59 -326,-117 -40,-59 4,-55 26,-55zm3379 -222c-38,-19 -11,-74 27,-55 31,15 64,34 90,54 30,23 53,49 58,78 0,0 1,3 1,3 2,27 -1,54 -17,82 -14,26 -38,52 -77,81 -34,25 -70,-24 -36,-49 31,-23 49,-42 59,-60 8,-16 10,-31 9,-48 -3,-11 -17,-24 -35,-38 -23,-18 -53,-34 -80,-48z"/>
   <path fill="#2B2A29" d="M5926 1870c73,40 282,99 341,-37 81,44 257,77 341,-33 139,33 297,103 356,-59 125,33 433,110 466,-92 183,26 447,44 480,-150 158,0 433,-26 433,-205 158,0 433,-106 400,-235 139,-15 330,-165 330,-264 143,-44 301,-150 268,-293 84,-51 224,-110 224,-194 0,-81 -66,-150 -139,-150 -77,0 -359,44 -458,44 -99,0 -1306,-26 -1588,-11 -282,18 -638,11 -814,-7 -172,-15 -917,-55 -1020,150 -77,150 -18,202 48,260 66,59 290,165 290,517 0,348 -40,532 44,759z"/>
   <path fill="#E4DDDC" d="M9300 242c-260,0 -858,18 -972,18 -117,0 -939,92 -1071,132 -55,18 -70,77 0,81 73,4 921,15 1045,15 125,0 976,15 1093,-136 81,-110 -22,-106 -95,-110zm-3264 924c37,-29 117,55 143,103 29,51 7,81 -22,95 -26,11 -77,-18 -88,-44 -11,-29 -73,-114 -33,-154zm22 396c55,70 110,121 143,165 33,40 -11,84 -44,95 -33,11 -95,48 -169,-103l70 -158zm231 -411c37,40 125,103 55,150 -55,40 -92,0 -117,-29 -26,-29 -125,-128 -88,-172 37,-40 117,33 150,51zm191 -33c117,77 -18,143 -92,77 -44,-33 -128,-99 -88,-147 33,-40 143,51 180,70zm-15 -147c59,26 242,88 183,169 -33,37 -92,4 -114,-11 -26,-15 -158,-103 -125,-154 15,-18 44,-11 55,-4zm315 -29c55,33 29,161 -92,103 -117,-59 -202,-117 -183,-161 18,-40 154,-7 275,59zm-48 -183c51,18 103,44 147,70 40,26 73,121 -88,81 -158,-44 -165,-99 -143,-136 22,-37 70,-18 84,-15zm194 -66c44,4 81,37 70,73 -15,44 -110,59 -213,7 -106,-55 -99,-66 -88,-95 11,-29 117,-7 231,15zm106 -132c62,11 62,37 55,59 -11,22 -44,62 -150,44 -106,-15 -165,-59 -165,-95 0,-37 194,-15 260,-7zm15 -128c110,0 110,117 -15,110 -95,-4 -213,-29 -213,-66 4,-40 147,-44 227,-44zm-359 26c-88,0 -407,-7 -499,11 -92,15 -205,40 -253,125 -40,70 29,183 62,231 33,44 128,136 169,169 33,26 95,-15 40,-77 70,40 158,33 117,-66 62,51 165,55 103,-73 40,33 158,29 84,-70 62,18 132,-18 84,-81 81,11 125,-48 44,-92 77,22 99,-70 48,-77zm983 -231c-110,0 -477,22 -609,22 -132,0 -440,-7 -550,-15 -114,-7 -407,-15 -524,0 -117,11 -374,29 -422,150 -44,121 55,187 117,235 62,44 253,158 260,451 51,-22 121,-33 73,-139 -29,-59 -172,-249 -139,-337 33,-88 143,-158 389,-169 246,-7 591,0 708,-18 121,-22 587,-139 682,-150 40,-7 40,-26 15,-29zm-1449 1232c66,66 169,176 238,235 44,44 11,128 -66,92 -81,-37 -224,-169 -260,-297 29,-7 62,-18 88,-29zm187 -62c106,73 352,235 392,264 55,37 81,99 -26,92 -106,-11 -308,-88 -466,-319 22,-7 77,-26 99,-37zm191 -110c62,40 469,253 657,308 62,22 33,81 -29,88 -59,11 -220,11 -407,-103 -110,-66 -275,-187 -326,-231 26,-11 81,-44 106,-62zm176 -143c95,48 679,290 902,341 62,15 95,62 18,88 -73,22 -246,11 -352,-18 -103,-29 -525,-165 -686,-323 33,-15 110,-70 117,-88zm1375 176c-103,-22 -946,-213 -1188,-304 -70,-22 -95,0 -106,26 -15,26 -18,62 26,84 48,18 697,286 1001,304 114,0 205,-40 257,-62 33,-18 18,-18 11,-48zm389 -216c-143,-18 -1111,-172 -1372,-242 -106,-26 -154,-15 -169,15 -11,29 -11,81 62,106 77,26 932,224 1089,235 158,7 345,-29 396,-70 48,-37 -7,-44 -7,-44zm312 -260c-103,0 -1328,-92 -1584,-147 -88,-7 -147,-11 -154,26 -7,37 -4,55 70,77 73,18 983,191 1445,198 154,-4 334,-150 224,-154zm293 -275c-150,4 -899,7 -987,4 -88,-4 -763,-40 -844,-44 -77,-7 -154,15 -154,40 0,26 18,48 110,66 92,22 935,117 1573,106 121,4 282,-59 323,-117 44,-59 -4,-55 -22,-55zm-3410 -277c38,-19 65,36 27,55 -28,14 -58,30 -80,48 -18,14 -31,27 -32,38l0 0c-1,17 0,33 8,48 9,18 27,37 60,60 35,24 0,74 -35,50 -41,-29 -65,-55 -79,-82 -15,-28 -17,-55 -15,-82l0 0c3,-30 25,-57 55,-81 26,-20 59,-39 90,-54z"/>
   <path fill="#2B2A29" d="M4771 2420c701,0 1269,-422 1269,-946 0,-517 -568,-939 -1269,-939 -701,0 -1269,422 -1269,939 0,524 568,946 1269,946z"/>
   <path fill="#E4DDDC" d="M4771 2316c315,0 600,-95 806,-249 204,-152 330,-362 330,-593 0,-228 -126,-436 -331,-587 -206,-153 -490,-247 -805,-247 -315,0 -599,95 -805,247 -204,151 -330,359 -330,587 0,231 126,441 330,593 206,154 491,249 806,249zm838 -206c-215,161 -511,260 -838,260 -327,0 -624,-99 -838,-260 -217,-162 -351,-387 -351,-636 0,-246 135,-469 353,-631 215,-159 511,-258 837,-258 326,0 622,99 837,258 218,161 353,385 353,631 0,249 -134,474 -351,636z"/>
   <path fill="#FEFEFE" d="M5328 1133c0,-139 -147,-348 -569,-348 -249,0 -458,62 -583,180 29,26 62,62 62,106l0 759c-4,48 -26,84 -59,125 117,95 315,180 624,172 308,-7 594,-106 594,-392 0,-121 -114,-242 -238,-282 -33,-11 -26,-44 0,-55 26,-11 169,-121 169,-264zm-528 830c125,0 224,-103 224,-232 0,-129 -99,-232 -224,-232 -125,0 -224,103 -224,232 0,129 99,232 224,232zm-26 -591c106,0 194,-95 194,-213 0,-117 -88,-213 -194,-213 -106,0 -194,95 -194,213 0,117 88,213 194,213z"/>
  </g>
 </g>
</svg>
