

<!-- Creator: CorelDRAW X6 -->
<svg xmlns="http://www.w3.org/2000/svg" x="0" y="0" xml:space="preserve" width="50mm" height="25mm" version="1.1" shape-rendering="geometricPrecision" text-rendering="geometricPrecision" image-rendering="optimizeQuality" fill-rule="evenodd" clip-rule="evenodd"
viewBox="0 0 5000 2500"
 xmlns:xlink="http://www.w3.org/1999/xlink"
 enable-background="new 0 0 912.7 290.1">
 <g id="Layer_x0020_1">
  <metadata id="CorelCorpID_0Corel-Layer"/>
 </g>
 <g id="Layer_x0020_1_0">
  <metadata id="CorelCorpID_1Corel-Layer"/>
 </g>
 <g id="Layer_x0020_1_0_1">
  <metadata id="CorelCorpID_2Corel-Layer"/>
 </g>
 <g id="Layer_x0020_1_0_2">
  <metadata id="CorelCorpID_3Corel-Layer"/>
 </g>
 <g id="Layer_x0020_1_3">
  <metadata id="CorelCorpID_4Corel-Layer"/>
 </g>
 <g id="Layer_x0020_1_0_4">
  <metadata id="CorelCorpID_5Corel-Layer"/>
 </g>
 <g id="Layer_x0020_1_0_5">
  <metadata id="CorelCorpID_6Corel-Layer"/>
 </g>
 <g id="Layer_x0020_1_0_6">
  <metadata id="CorelCorpID_7Corel-Layer"/>
 </g>
 <g id="Layer_x0020_1_0_7">
  <metadata id="CorelCorpID_8Corel-Layer"/>
 </g>
 <g id="Layer_x0020_1_0_2_8">
  <metadata id="CorelCorpID_9Corel-Layer"/>
 </g>
 <g id="Layer_x0020_1_0_2_8_9">
  <metadata id="CorelCorpID_10Corel-Layer"/>
 </g>
 <g id="Layer_x0020_1_0_10">
  <metadata id="CorelCorpID_11Corel-Layer"/>
 </g>
 <g id="Layer_x0020_1_1">
  <metadata id="CorelCorpID_12Corel-Layer"/>
 </g>
 <g id="Layer_x0020_1_11">
  <metadata id="CorelCorpID_13Corel-Layer"/>
 </g>
 <g id="Layer_x0020_1_12">
  <metadata id="CorelCorpID_14Corel-Layer"/>
  <g id="_592453856">
   <polygon fill="#FEFEFE" points="1423,2498 1423,2236 1561,2236 1561,2274 1471,2274 1471,2341 1555,2341 1555,2379 1471,2379 1471,2498 "/>
   <polygon fill="#FEFEFE" points="3577,2500 3577,2238 3626,2238 3626,2500 "/>
   <polygon fill="#FEFEFE" points="4212,2237 4374,2237 4374,2275 4318,2275 4318,2498 4268,2498 4268,2275 4212,2275 "/>
   <polygon fill="#FEFEFE" points="3,2500 3,2238 53,2238 53,2500 "/>
   <polygon fill="#FEFEFE" points="2928,2236 2970,2236 2970,2498 2913,2498 2846,2301 2846,2498 2805,2498 2805,2236 2862,2236 2929,2435 2928,2435 "/>
   <polygon fill="#FEFEFE" points="4948,2500 4948,2238 4997,2238 4997,2500 "/>
   <polygon fill="#FEFEFE" points="2147,2500 2147,2238 2195,2238 2195,2500 "/>
   <polygon fill="#FEFEFE" points="778,2236 819,2236 819,2498 763,2498 694,2301 694,2498 653,2498 653,2236 711,2236 778,2435 778,2435 "/>
   <path fill="#FEFEFE" d="M2499 0c-1053,0 -1908,431 -1908,962 0,430 560,794 1333,917l0 0 575 -1373 575 1373c773,-123 1333,-488 1333,-917 0,-531 -854,-962 -1908,-962zm876 1444l-876 -1018 -873 1014c-430,-120 -713,-330 -713,-588 0,-409 704,-793 1584,-793 879,0 1601,384 1601,793 0,260 -288,472 -723,591l0 0 -1 1z"/>
  </g>
 </g>
</svg>
