

<!-- Creator: CorelDRAW X6 -->
<svg xmlns="http://www.w3.org/2000/svg" x="0" y="0" xml:space="preserve" width="20mm" height="25mm" version="1.1" shape-rendering="geometricPrecision" text-rendering="geometricPrecision" image-rendering="optimizeQuality" fill-rule="evenodd" clip-rule="evenodd"
viewBox="0 0 2000 2500"
 xmlns:xlink="http://www.w3.org/1999/xlink"
 enable-background="new 0 0 912.7 290.1">
 <g id="Layer_x0020_1">
  <metadata id="CorelCorpID_0Corel-Layer"/>
 </g>
 <g id="Layer_x0020_1_0">
  <metadata id="CorelCorpID_1Corel-Layer"/>
 </g>
 <g id="Layer_x0020_1_0_1">
  <metadata id="CorelCorpID_2Corel-Layer"/>
 </g>
 <g id="Layer_x0020_1_0_2">
  <metadata id="CorelCorpID_3Corel-Layer"/>
 </g>
 <g id="Layer_x0020_1_3">
  <metadata id="CorelCorpID_4Corel-Layer"/>
 </g>
 <g id="Layer_x0020_1_0_4">
  <metadata id="CorelCorpID_5Corel-Layer"/>
 </g>
 <g id="Layer_x0020_1_0_5">
  <metadata id="CorelCorpID_6Corel-Layer"/>
 </g>
 <g id="Layer_x0020_1_0_6">
  <metadata id="CorelCorpID_7Corel-Layer"/>
 </g>
 <g id="Layer_x0020_1_0_7">
  <metadata id="CorelCorpID_8Corel-Layer"/>
 </g>
 <g id="Layer_x0020_1_0_2_8">
  <metadata id="CorelCorpID_9Corel-Layer"/>
 </g>
 <g id="Layer_x0020_1_0_2_8_9">
  <metadata id="CorelCorpID_10Corel-Layer"/>
 </g>
 <g id="Layer_x0020_1_0_10">
  <metadata id="CorelCorpID_11Corel-Layer"/>
 </g>
 <g id="Layer_x0020_1_1">
  <metadata id="CorelCorpID_12Corel-Layer"/>
 </g>
 <g id="Layer_x0020_1_11">
  <metadata id="CorelCorpID_13Corel-Layer"/>
 </g>
 <g id="Layer_x0020_1_12">
  <metadata id="CorelCorpID_14Corel-Layer"/>
  <g id="_420157288">
   <polygon fill="#1E1D1B" points="938,2394 1163,2394 1214,2393 1252,2391 1290,2384 1326,2371 1360,2353 1388,2328 1414,2299 1438,2258 1462,2212 1496,2130 1541,2016 1589,1881 1616,1804 1641,1729 1664,1650 1686,1572 1708,1488 1728,1405 1748,1320 1766,1235 1781,1150 1797,1066 1811,983 1825,901 1835,828 1845,759 1852,695 1861,621 1870,527 1879,437 1882,387 1884,345 1880,302 1866,262 1845,224 1817,192 1783,164 1746,145 1705,132 1662,128 1598,124 1495,120 1348,114 1163,110 952,109 732,110 536,114 396,120 318,124 286,128 255,136 226,147 199,163 175,184 154,207 135,234 123,263 114,294 110,325 110,357 115,434 125,550 139,691 158,839 181,989 205,1138 234,1284 268,1433 304,1579 342,1715 379,1831 413,1931 448,2023 484,2111 541,2246 573,2301 609,2339 665,2370 723,2388 793,2393 838,2393 "/>
   <path fill="#FCC656" d="M284 352l0 -107 8 -2 11 -2 11 0 8 2 1 0 8 3 7 4 8 6 6 7 5 8 3 8 3 9 0 8 -1 8 -2 8 -4 8 -4 7 -7 7 -8 7 -11 6 -3 1 -8 3 -11 3 -13 1 -7 0 0 1zm1340 -6l2 -1 10 -5 9 -7 7 -8 5 -8 3 -8 3 -8 1 -7 0 -7 -2 -8 -3 -7 -3 -6 -4 -8 -7 -7 -7 -5 -8 -4 -4 -1 -4 -1 -11 -1 -11 0 -9 2 -4 1 0 108 8 0 8 -1 8 -2 8 -3 6 -3zm0 -125l12 0 10 1 12 2 12 3 12 5 11 5 7 6 7 8 6 9 5 12 3 11 2 10 -1 9 -2 10 -4 9 -4 9 -7 7 -8 8 -9 7 -10 5 -12 4 -10 3 -4 2 7 4 7 5 7 6 5 6 69 82 6 7 7 6 8 5 7 5 5 3 6 3 6 2 0 4 -62 0 -8 -1 -8 -2 -7 -3 -6 -4 -7 -7 -71 -91 -11 -14 -4 -4 -4 -3 -4 -3 -5 -3 -5 -2 -5 -1 -1 137 -67 0 0 -4 3 -3 3 -3 2 -4 2 -4 2 -5 2 -4 0 -5 0 -212 0 -4 -1 -3 -1 -4 -3 -3 -3 -3 -3 -3 -3 -3 -7 -4 -5 -2 -3 -1 0 -4 120 0 0 2zm-977 251l7 1 9 0 8 -1 9 -3 10 -5 8 -6 7 -7 7 -8 6 -11 4 -10 4 -12 3 -12 2 -12 1 -13 0 -12 -2 -12 -3 -13 -3 -13 -6 -14 -7 -12 -8 -13 -9 -10 -11 -10 -11 -8 -10 -5 -14 -3 -12 -2 -12 2 -10 3 -9 5 -9 7 -7 7 -6 7 -5 11 -5 12 -4 12 -3 12 -2 14 0 14 2 14 3 15 4 14 5 13 9 17 8 12 5 5 3 3 3 3 4 4 8 6 8 5 10 4 9 3 4 1 -3 -2zm0 -256l10 0 16 3 14 3 13 4 13 7 12 7 12 8 12 10 10 11 8 12 7 13 7 14 5 17 3 14 2 13 0 14 -3 18 -3 16 -5 14 -8 17 -8 13 -9 12 -11 12 -13 10 -12 8 -13 7 -15 6 -18 5 -14 3 -12 0 -2 0 -14 -1 -14 -2 -12 -3 -15 -6 -15 -8 -12 -8 -9 -8 -4 -5 -5 -4 -8 -9 -7 -10 -7 -13 -6 -13 -5 -14 -3 -17 -3 -15 0 -15 2 -15 3 -16 5 -16 5 -13 7 -12 8 -13 10 -12 10 -10 12 -9 13 -8 17 -8 14 -5 13 -3 13 -2 7 0 0 1zm315 287l20 0 107 -250 3 -4 3 -4 4 -5 4 -4 5 -3 8 -5 5 -3 0 -4 -79 0 0 4 3 2 3 3 3 4 2 4 1 4 -1 5 -2 5 -66 153 -66 -152 -3 -6 -1 -5 0 -3 1 -4 3 -4 3 -4 4 -3 0 -4 -97 0 0 4 3 2 8 4 7 5 6 6 5 6 2 3 2 3 106 250 -2 0zm241 -8l0 4 203 0 17 -57 -4 -2 -5 6 -5 7 -5 5 -5 4 -5 3 -6 1 -4 0 -112 0 0 -97 88 0 4 0 4 1 3 3 3 3 3 2 2 3 4 0 0 -53 -4 0 -1 1 -3 4 -3 3 -4 3 -3 2 -4 0 -90 0 0 -84 89 0 8 1 7 2 7 3 6 4 5 5 4 5 3 4 4 0 -2 -56 -212 0 0 4 3 0 4 2 4 3 4 3 4 4 4 5 2 5 1 5 1 4 -1 209 0 4 -1 5 -3 7 -3 6 -3 4 -4 3 0 -1zm-880 -274l-119 0 0 4 3 0 6 3 5 3 4 3 3 4 3 5 2 5 1 5 0 2 0 210 -1 7 -2 6 -3 6 -3 7 -4 5 0 3 67 0 1 -137 3 0 3 1 8 3 7 4 5 5 4 5 3 3 7 9 72 94 5 5 6 4 6 3 7 1 3 0 62 0 0 -3 -4 -2 -10 -5 -9 -5 -10 -10 -27 -32 -24 -29 -27 -33 -4 -4 -5 -5 -4 -4 -11 -7 5 -1 11 -4 12 -4 10 -5 8 -7 8 -7 6 -8 4 -9 4 -10 2 -9 0 -11 -2 -10 -3 -10 -4 -9 -5 -8 -6 -7 -8 -7 -10 -5 -10 -5 -10 -3 -11 -2 -16 0 -11 0 0 4z"/>
   <path fill="#1E1D1B" d="M999 1l-160 0 -180 3 -255 8 -114 8 -39 5 -39 12 -37 16 -35 20 -32 25 -28 29 -25 32 -19 35 -16 37 -11 40 -4 40 0 38 12 167 13 125 17 148 21 155 23 147 24 139 27 133 31 132 34 131 39 133 42 130 42 120 40 106 84 194 39 60 48 52 59 38 65 25 66 12 32 3 187 2 52 0 209 0 37 -2 40 -5 41 -9 40 -13 39 -18 45 -34 38 -38 32 -44 24 -47 30 -70 39 -94 42 -107 42 -112 39 -114 35 -115 32 -117 54 -240 25 -122 23 -125 21 -125 17 -125 27 -222 21 -209 3 -44 -3 -47 -10 -45 -17 -44 -22 -40 -27 -37 -32 -32 -37 -28 -41 -22 -44 -15 -44 -9 -52 -5 -197 -11 -419 -11 -49 0 -2 1zm0 2463l-52 0 -185 -2 -30 -3 -61 -10 -58 -22 -52 -33 -42 -47 -36 -55 -46 -104 -37 -86 -40 -104 -41 -119 -42 -130 -39 -132 -34 -130 -31 -131 -27 -132 -24 -138 -23 -147 -21 -154 -17 -147 -12 -124 -8 -101 -4 -64 0 -36 4 -35 9 -35 14 -33 17 -31 22 -28 25 -26 28 -22 31 -17 32 -14 35 -10 35 -5 112 -8 108 -4 146 -4 179 -3 160 0 49 0 222 6 197 6 132 7 62 4 49 5 40 8 39 12 36 20 33 25 29 29 24 34 19 35 15 39 8 40 3 42 -3 41 -9 92 -12 116 -17 139 -10 82 -18 124 -21 124 -23 124 -25 122 -28 123 -26 116 -31 115 -34 114 -38 112 -41 112 -42 107 -38 93 -30 68 -22 42 -28 39 -34 35 -40 30 -33 16 -37 12 -37 8 -37 5 -34 2 -208 0 2 -3z"/>
   <path fill="#FCC656" d="M669 2173l-21 -51c8,2 14,4 21,6 13,3 26,6 38,7 8,1 14,1 22,1 10,0 21,-1 32,-3 4,-1 8,-2 12,-3 6,-1 12,-2 17,-2 12,-1 22,-2 32,-1 37,2 66,15 92,45 6,7 12,14 17,22 0,1 1,2 2,2 -1,0 -1,0 -2,0 -7,-3 -12,-6 -17,-7 -32,-13 -61,-21 -92,-18 -10,1 -20,3 -32,5 -4,1 -9,3 -14,4 -5,3 -11,5 -16,7 -12,4 -22,6 -32,7 -7,0 -14,0 -22,-2 -12,-2 -23,-5 -36,-11l-3 -7 1 -3zm761 -372c124,-340 194,-681 208,-1042l18 0 3 -41 -335 0 -39 0 -22 0 -32 0 -29 0 -32 0 -92 0 -18 0 -22 0 -84 0 -22 0 -18 0 -92 0 -32 0 -29 0 -32 0 -22 0 -38 0 -334 0 2 35 18 3c17,360 83,706 207,1045 32,-49 67,-91 107,-125 12,-11 25,-22 38,-31 8,-5 14,-10 22,-15 11,-7 22,-13 32,-19 10,-5 20,-10 29,-15 11,-5 22,-9 32,-13 23,-9 47,-15 70,-20 -14,47 -32,92 -55,140l10 6c24,-51 42,-100 57,-147 3,-1 7,-2 10,-2 2,0 4,-1 6,-1 -2,8 -4,14 -6,22 -15,52 -34,102 -58,155 -12,-12 -24,-19 -34,-21 -13,-3 -24,3 -32,14 -17,22 -18,67 0,94 8,11 18,19 32,23 1,0 2,0 2,1 40,0 47,-41 47,-72 25,40 -3,89 -48,87 -3,0 -5,0 -8,-1 -2,24 -9,42 -24,52 -7,6 -17,9 -29,10 -5,0 -11,0 -17,0 -4,16 -9,27 -16,35 -7,8 -13,13 -22,18 -10,6 -21,10 -33,18l15 22c6,-4 12,-8 17,-11 8,-5 14,-9 22,-14 11,-8 22,-15 32,-23 10,-8 20,-16 29,-24 11,-9 22,-19 32,-29 35,-34 66,-71 92,-112 7,-9 12,-19 17,-28 8,-12 15,-26 22,-39 5,-11 11,-22 16,-32l2 -148c5,0 10,0 15,0l0 681 21 0 0 -681c4,0 9,0 13,1l2 149c5,11 10,22 16,32 7,13 14,27 22,39 6,10 12,19 18,28 27,41 57,78 92,112 10,10 21,20 32,29 10,8 19,16 29,24 11,7 22,16 32,23 7,5 14,9 22,14 6,4 12,8 17,11l15 -22c-13,-7 -24,-12 -33,-17 -8,-5 -16,-10 -22,-18 -7,-8 -12,-19 -16,-35 -6,1 -12,1 -17,0 -12,-1 -22,-4 -29,-10 -15,-10 -22,-29 -24,-53 -3,0 -5,1 -8,1 -45,2 -72,-47 -47,-87 0,32 6,72 47,72 1,0 1,0 2,-1 14,-3 25,-12 32,-22 18,-28 17,-71 0,-93 -8,-11 -18,-17 -32,-15 -10,2 -22,8 -34,21 -24,-52 -43,-104 -58,-155 -2,-8 -4,-15 -7,-22 3,0 4,1 7,1 4,1 9,2 13,3 15,47 33,97 57,147l10 -6c-22,-47 -40,-92 -54,-138 23,5 45,12 67,21 11,4 22,9 32,14 10,5 20,10 29,15 11,6 22,13 32,19 8,5 14,10 22,15 13,9 27,20 39,31 39,34 75,75 106,122l3 -1zm-106 330c8,-2 14,-4 22,-7l-22 51 -3 8c-13,5 -25,8 -36,10 -8,2 -14,2 -22,2 -11,0 -22,-3 -32,-6 -5,-2 -10,-3 -16,-6 -4,-2 -9,-3 -13,-4 -11,-3 -22,-4 -32,-5 -32,-3 -60,5 -92,18 -6,3 -12,5 -18,8 0,0 -1,1 -2,1 0,-1 1,-1 2,-2 6,-8 12,-16 18,-22 27,-30 57,-43 92,-45 10,-1 21,0 32,1 9,2 19,3 29,5 3,1 6,2 8,2 8,1 16,1 24,1 8,0 14,-1 22,-2 13,-2 26,-4 39,-8l0 1zm0 -165c21,18 42,36 63,53l-3 5c-20,-17 -40,-32 -60,-49 -5,-4 -10,-8 -15,-12 -9,0 -17,-2 -23,-5 -11,-5 -17,-13 -22,-25 -2,-5 -3,-10 -3,-15l3 -2 2 -2c7,6 13,12 20,18 13,12 26,23 39,35l-1 -1zm0 -19c23,18 47,37 69,57l5 -13c-26,-19 -50,-37 -74,-57 -12,-11 -26,-22 -39,-32 -1,-1 -3,-2 -3,-3l-7 8c3,3 7,6 10,8 12,12 26,22 39,32zm0 -30c27,22 52,42 79,62l12 -25c-31,-22 -61,-46 -90,-69 -13,-10 -26,-21 -39,-32 -8,-6 -14,-12 -22,-18 -11,-9 -22,-18 -32,-27 -2,-2 -3,-3 -4,-4l-10 22c5,4 10,8 14,12 11,9 22,18 32,27 8,6 14,12 22,18 13,11 26,22 39,32l-1 3zm0 -88c20,9 28,41 26,62l-14 -9c0,-14 -4,-22 -12,-29 -5,-4 -13,-6 -21,-8 11,4 13,9 14,20l-22 -17 0 -18c12,-5 21,-5 28,-2l1 1zm0 -1145l162 20 -162 -17 -39 -4 -22 -3 -32 -3 -29 -3 -32 -3 -92 -10 -18 -2 -22 -3 -12 -2 0 -5 12 2 22 3 18 2 92 12 32 4 29 3 32 4 22 3 39 5 0 -2zm-39 1526c8,0 17,-2 27,-3l-27 58 -7 14c-5,0 -10,-1 -15,-2 -12,-1 -22,-2 -32,-5 -10,-3 -19,-5 -29,-8 -10,-3 -21,-7 -32,-10 -37,-9 -65,-3 -92,4 -6,2 -12,3 -18,5 -7,2 -14,4 -22,6 -12,3 -26,6 -40,7 -15,-2 -30,-6 -44,-10 -8,-3 -15,-5 -22,-7 -6,-2 -12,-4 -18,-6 -12,-3 -23,-6 -35,-8 -20,0 -39,3 -57,8 -10,3 -21,5 -32,8 -10,3 -19,5 -29,7 -11,3 -22,4 -32,5 -3,0 -6,1 -8,1l-13 -29 -19 -43c7,2 13,3 19,3 8,1 14,2 22,1 9,0 17,-1 27,-3 2,-1 3,-1 5,-2 10,-3 20,-6 29,-8 11,-3 22,-4 32,-5 32,-3 61,3 92,19 6,3 12,7 18,11 2,1 4,3 6,4 6,3 11,6 16,9 30,16 50,22 84,6 3,-2 6,-3 8,-5 5,-3 9,-6 13,-8 6,-4 12,-8 18,-11 30,-17 59,-27 92,-25 10,1 21,3 32,6 6,2 13,4 18,7 4,1 8,2 11,3 11,3 22,5 32,6 8,1 14,1 22,0l0 1zm0 -193c3,2 7,4 10,6l-10 13 -9 12c-4,-3 -8,-5 -12,-7 -12,-7 -22,-13 -32,-20 -10,-7 -20,-13 -29,-20 -11,-8 -22,-16 -32,-24 -33,-27 -64,-57 -92,-90 -6,-7 -12,-14 -18,-22 -7,-9 -15,-19 -22,-29 -7,-10 -15,-21 -22,-32l0 -89c7,16 14,32 22,47 7,12 14,25 22,37 6,9 12,17 18,27 27,37 58,72 92,104 11,10 22,19 32,28 10,8 19,16 29,23 11,8 22,16 32,22 8,5 14,9 22,13l0 -1zm-22 41c1,1 2,1 3,2l-3 3 -9 9 -22 -13c0,0 -1,-1 -2,-1 -10,-6 -20,-12 -29,-18 -11,-7 -22,-14 -32,-22 -33,-25 -63,-52 -92,-82 -6,-7 -12,-13 -18,-20 -3,-3 -6,-7 -8,-10 -5,-6 -10,-11 -13,-15 -17,-19 -22,-30 -22,-64 8,11 15,22 22,32 8,10 14,20 22,30 6,7 12,15 18,22 1,1 2,2 3,3 28,32 57,60 90,84 10,7 21,16 32,22 10,7 19,13 29,19 11,7 22,13 32,19l0 -1zm0 -172l3 3c-1,2 -2,3 -3,4 -10,15 -22,21 -32,20 -12,-1 -22,-8 -29,-20 -6,-9 -10,-21 -12,-34l12 -12 9 -9 20 17 2 2c0,0 -1,0 -2,1 -8,4 -15,-2 -20,-8 0,27 5,35 20,33 6,-1 13,-3 22,-6l10 9zm0 -107c15,11 20,35 18,57l-15 -10c0,-6 -1,-11 -3,-15 -5,-12 -16,-17 -31,-17 9,3 14,9 17,17l-19 -12 -4 -3 4 -22c0,0 0,0 0,0 14,-4 25,-2 32,4l-1 0zm0 -74l16 67 -5 -2 -11 -46 -20 -83 5 0 15 63zm-32 366c5,3 9,5 14,8 -5,3 -9,6 -14,8 -9,4 -18,7 -29,9 0,0 -1,0 -1,0 -11,-7 -21,-13 -31,-20 -32,-22 -62,-42 -92,-67 -6,-5 -12,-10 -18,-16 -4,-4 -9,-8 -13,-13 -3,-3 -6,-7 -8,-9 -27,-30 -22,-37 -22,-89 8,10 15,19 22,27 8,8 14,17 22,25 6,7 12,13 18,19 29,29 59,54 92,77 10,7 21,15 32,22 10,6 19,12 29,17l0 1zm-29 -438l15 81 -6 0 -9 -48 -10 -52 7 0 3 20zm0 -1006l1 0c0,0 0,0 -1,0 -11,4 -22,7 -32,8 -32,4 -60,-1 -92,-9 -6,-2 -12,-3 -18,-4l0 0 -22 2 -22 2 0 -43c8,-3 15,-4 22,-5 8,-1 15,-1 22,0 6,1 12,2 18,3 16,3 32,9 47,13l45 -3 29 -2 -17 24 21 12 -1 2zm-32 1170c16,-5 27,-36 3,-60 18,0 27,17 27,33 0,32 -15,48 -30,51 -20,3 -39,-17 -25,-52 5,24 16,31 25,28l0 -1zm0 307l12 -3c-4,-3 -8,-5 -12,-8 -32,-20 -63,-42 -92,-66 -6,-5 -12,-10 -18,-16 -7,-7 -15,-14 -22,-22 -7,-8 -15,-17 -22,-27l0 31c8,8 15,16 22,22 8,7 14,13 22,20 6,5 12,10 18,15 24,19 48,37 75,56l18 -4 0 1zm-92 -374c11,-5 22,-30 5,-38 0,9 2,19 -5,22 -2,1 -4,1 -7,1l-7 -8c0,21 7,25 13,22l0 1zm0 421l11 -10c-3,-2 -8,-3 -11,-5 -7,-3 -13,-7 -18,-11 -7,-5 -15,-10 -22,-16 -7,-6 -15,-13 -22,-19l0 29 22 13 22 13 14 8 4 -3 -1 0zm0 -32c7,5 15,9 22,14 14,-11 21,-14 39,-19 -22,-16 -42,-30 -62,-45 -6,-5 -12,-9 -18,-14 -7,-7 -15,-13 -22,-20 -7,-8 -15,-15 -22,-24l0 61c8,7 15,13 22,19 8,6 14,12 22,17 6,4 12,8 18,13l0 -1zm-18 -461c6,-2 8,-11 2,-19 15,8 8,25 -2,31 -7,4 -13,2 -13,-15 5,4 10,5 13,3zm0 506c0,0 1,0 1,1 0,0 -1,1 -1,2 -7,8 -15,17 -22,25 -8,10 -16,20 -23,31l1 -87c8,7 15,13 22,17 7,4 13,8 22,11zm-22 -561c13,8 14,-3 11,-15 11,5 8,30 -9,26 -1,-2 -2,-3 -2,-4 -2,-2 -3,-5 -3,-8 1,0 2,1 3,1l0 1zm-84 -3c1,0 2,-1 2,-2 0,4 -1,8 -2,9 -7,11 -25,-3 -13,-22l2 0c-2,7 -3,12 2,17 4,-1 7,-1 9,-3l0 1zm0 551c7,-5 15,-10 22,-17l1 85c-8,-11 -15,-22 -23,-32 -8,-8 -14,-17 -22,-24 -1,0 -1,-1 -2,-2 0,0 1,0 2,0 8,-3 15,-7 22,-11l0 1zm0 -43c7,-6 15,-12 22,-19l0 29c-8,7 -15,12 -22,17 -8,4 -14,8 -22,13 -5,2 -9,4 -14,7l-3 -3 -12 -10c4,-2 8,-3 12,-6 7,-3 13,-7 18,-10 7,-5 15,-10 22,-16l0 -1zm0 -75c7,-8 15,-15 22,-24l0 62c-8,7 -15,13 -22,18 -8,6 -15,11 -22,17 -6,4 -12,8 -18,12 -8,5 -15,9 -22,14 -15,-9 -22,-14 -39,-18 22,-16 42,-30 62,-45 6,-5 12,-9 18,-14 7,-7 15,-13 22,-20l0 -2zm0 -43c7,-8 15,-18 22,-27l0 31c-8,8 -15,16 -22,23 -8,7 -15,14 -22,21 -6,5 -12,10 -18,15 -23,19 -47,37 -75,55l-18 -4 -12 -3c4,-3 8,-5 12,-8 32,-20 64,-41 92,-65 6,-5 12,-10 18,-16 7,-8 15,-14 22,-23l0 1zm0 -78c7,-9 15,-19 22,-29 0,52 4,58 -22,89 -3,3 -5,6 -8,9 -5,5 -9,9 -13,13 -6,5 -12,11 -18,16 -30,25 -60,45 -92,67 -10,7 -20,12 -30,20 -1,0 -2,0 -2,0 -12,-3 -20,-5 -29,-9 -5,-2 -9,-4 -14,-8 5,-3 10,-6 14,-8 10,-6 20,-12 29,-18 11,-7 22,-14 32,-21 33,-23 64,-48 92,-77 6,-7 12,-13 18,-19 7,-8 15,-17 22,-25l0 1zm0 -53l22 -31c0,34 -7,44 -22,63 -4,5 -8,10 -13,16 -3,3 -6,7 -8,10 -6,7 -12,13 -18,20 -30,32 -59,57 -92,82 -10,8 -21,15 -32,22 -9,7 -19,13 -29,19 -8,4 -15,9 -23,13l-9 -9 -3 -3c1,-1 2,-1 3,-2 11,-7 22,-12 32,-19 10,-7 20,-12 29,-19 11,-8 22,-15 32,-23 33,-26 64,-54 92,-87 5,-5 9,-12 14,-17l4 -5 22 -30 -1 0zm0 -95c8,-16 16,-32 22,-47l0 89c-8,12 -15,22 -22,32 -8,10 -15,20 -22,29 -6,7 -12,14 -18,22 -28,33 -59,62 -92,90 -10,8 -21,16 -32,24 -9,7 -19,14 -29,20 -11,7 -22,13 -32,20 -4,3 -8,5 -13,8l-9 -12 -10 -12c3,-2 7,-4 10,-6 8,-4 14,-9 22,-14 11,-8 22,-15 32,-23 10,-7 20,-15 29,-23 11,-9 22,-18 32,-28 34,-32 66,-67 92,-104 7,-8 13,-17 18,-26 7,-13 15,-24 22,-37l0 -2zm0 -1113l12 -2 0 5 -12 2 -22 3 -18 2 -92 10 -32 3 -29 3 -32 3 -22 3 -38 4 -162 18 162 -20 38 -5 22 -3 32 -4 29 -3 32 -4 92 -12 18 -3 22 -3 0 2zm34 55l13 0 0 -137 9 -7 0 -7 -31 0 0 7 8 7 0 137zm-57 952c3,2 8,2 13,-4 0,18 -8,20 -13,16 -9,-5 -17,-24 -3,-32 -5,7 -3,17 3,19l0 1zm-17 57c3,1 8,0 13,-6 0,19 -7,24 -13,22 -11,-4 -22,-27 -5,-39 -2,10 -1,21 5,23zm-92 107c6,1 13,-1 20,-5 13,-15 13,-30 6,-47 -5,24 -16,31 -25,28 -16,-4 -27,-37 -3,-61 -41,0 -31,80 3,85l-1 0zm-32 26l13 12 -5 23c-3,5 -5,10 -8,13 -8,12 -18,17 -29,17 -12,0 -23,-7 -32,-20 -1,-2 -2,-3 -3,-4l3 -3 11 -9c8,5 16,8 22,8 14,1 21,-14 21,-35 -7,7 -9,10 -19,10l-2 -3 -1 0 1 0 21 -18 9 9 -1 -1zm0 -217l3 -17 7 0 -10 52 -9 49 -7 0 15 -84 1 0zm-29 180c2,-1 3,-3 4,-3l10 22c-5,4 -9,8 -14,12 -11,9 -22,18 -32,27 -8,6 -14,12 -22,18 -13,10 -26,21 -38,32 -27,22 -52,42 -79,63l-12 -25c31,-23 61,-45 91,-69 12,-10 26,-20 38,-31 8,-6 14,-12 22,-18 11,-9 22,-18 32,-27zm0 -36c0,0 0,0 0,0l4 22 -4 3 -19 13c5,-10 7,-13 17,-18 -15,0 -26,7 -30,18 -2,4 -3,10 -3,15l-16 9c-2,-22 3,-47 18,-57 7,-6 18,-8 32,-4zm-32 142l3 2c0,5 -2,10 -3,15 -4,12 -12,20 -22,25 -7,3 -14,5 -23,5 -5,4 -10,8 -15,13 -20,17 -40,32 -61,49l-2 -4c22,-18 42,-37 63,-54 12,-12 26,-23 38,-34 7,-6 13,-12 19,-17l3 2zm0 -212l15 -63 5 0 -20 86 -10 44 -6 1 16 -67zm-22 197c1,-1 3,-2 3,-3l7 8c-3,2 -7,6 -10,8 -13,12 -26,22 -38,32 -23,19 -47,37 -69,57l-4 -12c25,-19 49,-38 73,-58 12,-11 26,-22 38,-32zm-38 -48c5,-4 12,-6 21,-6 -11,4 -13,8 -15,19l22 -18 0 -17c-12,-5 -21,-5 -29,-1 -20,8 -29,38 -27,62l14 -8c0,-13 4,-23 12,-30l1 -1z"/>
   <path fill="#962132" d="M574 1399c-44,-212 -69,-423 -77,-645l-102 0c13,331 73,643 179,957 1,2 2,3 2,5l59 -67c-23,-84 -44,-167 -61,-251l1 0zm845 8c45,-213 71,-426 77,-651l102 0c-13,331 -72,643 -179,957 -1,2 -2,3 -2,5l-59 -67c23,-82 43,-164 61,-245zm0 -70c35,-189 50,-376 61,-579l-61 0 -82 0c12,219 -7,441 -47,656 -10,55 -21,109 -33,163l33 24 53 38c32,-104 57,-204 76,-303zm-129 -16c27,-187 37,-374 32,-564l-32 0 -99 0c13,223 7,439 -27,657 -6,38 -13,77 -21,116l21 8 80 32c19,-82 34,-166 47,-249l0 -1zm-127 -566l13 0c13,182 8,364 -13,544 -9,76 -21,152 -35,227 -13,-3 -25,-5 -37,-7 -5,-19 -9,-37 -12,-56 -20,-97 -26,-197 -26,-305l-10 4 -3 1c0,27 2,54 3,79 4,97 14,184 36,272 0,1 1,3 1,3 0,0 -1,0 -1,0 -6,-1 -12,-2 -17,-2 -8,-35 -14,-70 -19,-105 -11,-78 -14,-159 -13,-244l-13 3 4 345c-4,0 -8,0 -12,0l0 -350 -11 0 -10 0 0 350c-5,0 -10,0 -15,0l4 -347 -12 -3c1,82 -2,157 -12,232 -5,40 -12,80 -22,119 -5,1 -10,1 -15,2 22,-84 32,-168 37,-259 2,-31 3,-63 3,-97l-3 -2 -10 -3c0,110 -6,212 -27,312 -3,17 -8,33 -12,50 -13,2 -27,3 -40,6 -14,-67 -25,-135 -32,-202 -22,-187 -22,-377 -15,-568l15 0 84 0 37 0 45 0 45 0 36 0 85 0 1 0zm-85 357c7,3 6,-11 0,-39 -4,-17 -9,-40 -16,-69l-4 0c0,22 -5,37 -16,55 -1,2 -2,3 -3,4 1,1 2,2 3,3 12,11 22,27 29,42 3,3 5,4 7,5zm0 -158c7,-8 14,-15 21,-24l-10 -20c-3,4 -8,9 -11,13 -7,8 -14,15 -21,23l13 16c3,-3 6,-5 8,-7zm0 -52c15,-25 19,-52 15,-77 -4,13 -9,27 -15,40 -8,17 -18,34 -32,47l-5 0 -17 0 -10 -5 0 5 -10 0 0 -21 -9 0 -7 0 0 21 -10 0 0 -7 -10 7 -18 0 -7 0c-14,-14 -24,-30 -30,-47 -5,-13 -8,-27 -10,-40 -3,28 -3,56 10,80 6,10 13,20 24,29l12 0 8 0c-2,8 -4,15 -8,22 -1,2 -2,3 -3,4l3 0 27 0 0 -27 10 0 0 38 -38 4 -18 3 0 5 18 0 45 0 45 0 18 0 0 -5 -18 -2 -37 -4 0 -39 10 0 0 27 27 0 2 0c-1,-2 -2,-3 -2,-4 -3,-8 -6,-15 -7,-23l7 0 12 0c10,-10 18,-21 25,-32l1 1zm-36 226c2,5 5,10 9,13 13,-9 7,-42 -9,-59 -12,-13 -27,-18 -44,-3 0,0 -1,-1 -1,-1 -17,-12 -34,-4 -45,10 -13,17 -15,43 0,52 1,0 1,1 2,1 3,-22 22,-52 43,-52 0,0 0,0 1,0 29,-1 37,22 45,38l-1 1zm0 -129l2 0c0,9 -1,17 -2,23 -3,11 -8,21 -16,32 -8,-8 -11,-12 -13,-22 13,-4 18,-8 25,-19l-37 0c2,14 4,27 7,40 -4,5 -7,7 -9,14l-3 0 -6 0c-3,-6 -4,-9 -8,-14 5,-15 7,-24 7,-40l-35 0c7,12 12,15 24,19 -4,8 -7,14 -14,22 -7,-12 -11,-22 -14,-33 -2,-7 -3,-13 -3,-21l3 0 45 0 45 0 2 0zm-45 148l22 0c20,-5 2,-32 -7,-42l-14 0 -9 0c-8,9 -31,37 -8,42l16 0zm-45 -81c2,-2 3,-3 3,-4 -2,-3 -3,-5 -3,-7 -8,-18 -13,-32 -17,-53l-2 0c-3,9 -13,39 -18,65 -4,18 -5,34 0,41 1,1 2,2 3,2 8,-3 25,-30 34,-43l1 0zm-37 -116c2,2 4,4 6,6 5,-5 9,-9 14,-15 -7,-8 -14,-14 -20,-22 -3,-4 -7,-8 -10,-13l-10 21c7,8 12,17 19,24l1 0zm-84 584l19 -8c-7,-35 -13,-69 -19,-104 -36,-222 -46,-446 -28,-670l-99 0 -32 0c-2,192 7,375 32,559 12,84 27,168 47,254l81 -32 0 1zm-127 -120c10,53 21,107 32,160l-32 24 -54 39c-32,-109 -57,-213 -76,-317 -34,-184 -50,-367 -61,-566l61 0 82 0c-12,220 8,443 47,661l1 -2z"/>
  </g>
 </g>
</svg>
