

<!-- Creator: CorelDRAW X6 -->
<svg xmlns="http://www.w3.org/2000/svg" x="0" y="0" xml:space="preserve" width="15.5mm" height="30mm" version="1.1" style="shape-rendering:geometricPrecision; text-rendering:geometricPrecision; image-rendering:optimizeQuality; fill-rule:evenodd; clip-rule:evenodd"
viewBox="0 0 1550 3000"
 xmlns:xlink="http://www.w3.org/1999/xlink">
 <defs>
  <style type="text/css">
   <![CDATA[
    .fil0 {fill:#2B2A29}
   ]]>
  </style>
 </defs>
 <g id="Layer_x0020_1">
  <metadata id="CorelCorpID_0Corel-Layer"/>
  <g id="_1_x0020__x0028_59_x0029_.eps">
   <path class="fil0" d="M414 1531l699 0c32,0 59,-26 59,-59l0 -982c13,-62 45,-104 111,-111 0,510 0,1020 0,1529 0,62 -43,129 -97,141 -70,16 -140,28 -210,36 -70,8 -140,12 -210,12 -70,0 -140,-4 -210,-13 -70,-8 -140,-20 -210,-36 -54,-12 -97,-79 -97,-141 0,-510 0,-1019 0,-1529 59,6 93,44 107,110l0 982c0,32 26,59 59,59zm425 -222c0,42 -34,76 -76,76l0 0c-42,0 -76,-34 -76,-76l0 -818c-22,-299 -225,-458 -595,-490l0 0c0,755 0,1509 0,2264 0,70 56,145 126,158 181,35 364,55 546,55 182,0 365,-19 546,-54 70,-14 126,-89 126,-159 0,-755 0,-1509 0,-2263 0,0 0,0 0,0 -370,32 -577,191 -599,490l0 818z"/>
   <path class="fil0" d="M12 2996l0 -157 24 0 0 22c5,-8 12,-14 20,-19 8,-5 18,-7 28,-7 12,0 21,2 29,7 7,5 13,12 16,20 12,-18 29,-28 49,-28 16,0 28,4 36,13 8,9 13,22 13,40l0 108 -27 0 0 -99c0,-11 -1,-18 -3,-23 -2,-5 -5,-8 -9,-11 -5,-3 -10,-4 -16,-4 -11,0 -20,4 -28,11 -7,7 -11,19 -11,35l0 91 -27 0 0 -102c0,-12 -2,-21 -7,-27 -4,-6 -11,-9 -21,-9 -7,0 -14,2 -21,6 -6,4 -11,10 -14,17 -3,8 -4,19 -4,33l0 82 -27 0zm243 -79c0,-29 8,-51 24,-65 14,-12 30,-17 49,-17 22,0 39,7 53,21 14,14 21,34 21,59 0,20 -3,36 -9,48 -6,12 -15,21 -26,27 -12,6 -24,10 -38,10 -22,0 -40,-7 -53,-21 -14,-14 -20,-34 -20,-61zm27 0c0,20 4,35 13,45 9,10 20,15 33,15 13,0 24,-5 33,-15 9,-10 13,-25 13,-46 0,-19 -4,-34 -13,-44 -9,-10 -20,-15 -33,-15 -13,0 -24,5 -33,15 -9,10 -13,25 -13,45zm141 32l26 -4c1,11 6,19 12,24 7,6 16,8 28,8 12,0 21,-3 27,-7 6,-5 9,-11 9,-18 0,-6 -3,-11 -8,-14 -4,-2 -13,-5 -27,-9 -20,-5 -33,-9 -41,-13 -8,-4 -13,-9 -17,-15 -4,-6 -6,-13 -6,-21 0,-7 2,-14 5,-19 3,-6 8,-11 13,-15 4,-3 10,-6 17,-8 7,-2 15,-3 23,-3 12,0 23,2 33,5 9,4 16,8 21,14 4,6 7,14 9,24l-26 4c-1,-8 -5,-14 -10,-19 -6,-5 -14,-7 -24,-7 -12,0 -21,2 -26,6 -5,4 -8,9 -8,14 0,3 1,7 3,9 2,3 6,5 10,7 3,1 11,3 24,7 19,5 32,9 39,12 7,3 13,8 18,14 4,6 6,14 6,23 0,9 -3,17 -8,25 -5,8 -13,14 -22,18 -10,4 -21,6 -33,6 -20,0 -36,-4 -47,-13 -11,-9 -18,-21 -20,-38zm162 47l0 -217 27 0 0 124 63 -64 34 0 -60 58 66 99 -33 0 -52 -80 -19 18 0 62 -27 0zm181 0l-48 -157 28 0 25 91 9 34c0,-2 3,-13 8,-32l25 -92 27 0 24 91 8 30 9 -30 27 -91 26 0 -49 157 -28 0 -25 -94 -6 -27 -32 121 -28 0zm190 -186l0 -31 27 0 0 31 -27 0zm0 186l0 -157 27 0 0 157 -27 0zm125 -24l4 24c-7,2 -14,2 -20,2 -10,0 -17,-2 -23,-5 -5,-3 -9,-7 -11,-12 -2,-5 -3,-15 -3,-31l0 -91 -20 0 0 -21 20 0 0 -39 27 -16 0 55 27 0 0 21 -27 0 0 92c0,8 0,12 1,15 1,2 2,4 5,5 2,1 5,2 9,2 3,0 7,0 12,-1zm15 -23l26 -4c1,11 6,19 12,24 7,6 16,8 28,8 12,0 21,-3 27,-7 6,-5 9,-11 9,-18 0,-6 -3,-11 -8,-14 -4,-2 -13,-5 -27,-9 -20,-5 -33,-9 -41,-13 -8,-4 -13,-9 -17,-15 -4,-6 -6,-13 -6,-21 0,-7 2,-14 5,-19 3,-6 8,-11 13,-15 4,-3 10,-6 17,-8 7,-2 15,-3 23,-3 12,0 23,2 33,5 9,4 16,8 21,14 4,6 7,14 9,24l-26 4c-1,-8 -5,-14 -10,-19 -6,-5 -14,-7 -24,-7 -12,0 -21,2 -26,6 -5,4 -8,9 -8,14 0,3 1,7 3,9 2,3 6,5 10,7 3,1 11,3 24,7 19,5 32,9 39,12 7,3 13,8 18,14 4,6 6,14 6,23 0,9 -3,17 -8,25 -5,8 -13,14 -22,18 -10,4 -21,6 -33,6 -20,0 -36,-4 -47,-13 -11,-9 -18,-21 -20,-38zm265 -11l26 3c-3,18 -10,32 -22,42 -12,10 -26,15 -43,15 -21,0 -39,-7 -52,-21 -13,-14 -20,-34 -20,-61 0,-17 3,-32 8,-45 6,-13 14,-22 26,-29 11,-6 24,-10 38,-10 17,0 31,4 42,13 11,9 18,21 21,37l-26 4c-2,-11 -7,-19 -13,-24 -6,-5 -14,-8 -23,-8 -13,0 -24,5 -33,14 -8,10 -13,25 -13,46 0,21 4,37 12,46 8,10 19,14 32,14 10,0 19,-3 26,-10 7,-6 11,-16 13,-30zm49 58l0 -217 27 0 0 78c12,-14 28,-22 47,-22 12,0 22,2 30,7 9,5 15,11 18,19 4,8 6,20 6,35l0 100 -27 0 0 -100c0,-13 -3,-23 -9,-29 -6,-6 -14,-9 -25,-9 -8,0 -15,2 -22,6 -7,4 -12,10 -15,17 -3,7 -4,17 -4,29l0 86 -27 0z"/>
  </g>
 </g>
</svg>
