

<!-- Creator: CorelDRAW X6 -->
<svg xmlns="http://www.w3.org/2000/svg" x="0" y="0" xml:space="preserve" width="74mm" height="30mm" version="1.1" style="shape-rendering:geometricPrecision; text-rendering:geometricPrecision; image-rendering:optimizeQuality; fill-rule:evenodd; clip-rule:evenodd"
viewBox="0 0 7400 3000"
 xmlns:xlink="http://www.w3.org/1999/xlink">
 <defs>
  <style type="text/css">
   <![CDATA[
    .fil1 {fill:#FEFEFE}
    .fil2 {fill:#02264A}
    .fil0 {fill:#02264A;fill-rule:nonzero}
   ]]>
  </style>
 </defs>
 <g id="Layer_x0020_1">
  <metadata id="CorelCorpID_0Corel-Layer"/>
  <g id="_1_x0020__x0028_35_x0029_.eps">
   <g>
    <path class="fil0" d="M5337 538l-8 21 0 0 -4 -1 -4 -1 -4 -1 -4 -1 -4 -1 -4 -1 -4 -1 -4 -1 -4 -1 -4 -1 -4 -1 -4 -1 -4 -1 -4 -1 -4 -1 -4 -1 -4 -1 -4 -1 -4 -1 -4 -1 -3 -1 -3 -1 -3 -1 -3 -1 -3 -1 -3 -1 -3 -1 -3 -1 -3 -1 -3 -1 -3 -1 -3 -1 5 -22 3 1 3 1 3 1 3 1 3 1 3 1 3 1 3 1 3 1 4 1 4 1 4 1 4 1 4 1 4 1 4 1 4 1 4 1 4 1 4 1 4 1 4 1 4 1 4 1 4 1 4 1 4 1 4 1 4 1 4 1 4 1 4 2 0 0zm161 85l-12 19 0 0 -3 -2 -3 -2 -4 -2 -4 -2 -4 -3 -5 -3 -5 -3 -5 -3 -6 -3 -6 -3 -6 -3 -6 -3 -6 -3 -6 -3 -6 -3 -6 -3 -6 -3 -6 -3 -6 -3 -6 -3 -6 -3 -6 -3 -6 -3 -5 -3 -5 -2 -5 -2 -4 -2 -4 -2 -3 -2 -3 -1 -2 -1 -1 -1 8 -21 2 1 3 1 3 1 4 2 4 2 4 2 5 2 5 3 5 3 6 3 6 3 6 3 6 3 6 3 6 3 6 3 6 3 6 3 6 3 6 3 6 3 6 3 6 3 6 3 5 3 5 3 5 3 5 3 4 2 4 2 3 2 3 2 0 0zm852 511l-13 18 1 1 -19 -10 -21 -11 -22 -12 -23 -13 -24 -14 -25 -15 -26 -15 -27 -16 -28 -16 -29 -17 -29 -17 -30 -18 -30 -18 -30 -18 -31 -19 -31 -19 -31 -19 -31 -19 -30 -19 -30 -19 -30 -18 -29 -18 -29 -18 -28 -17 -27 -17 -26 -16 -25 -16 -24 -15 -23 -14 -22 -14 -21 -13 -19 -12 12 -19 19 12 21 13 22 14 23 14 24 15 25 16 26 16 27 17 28 17 29 18 29 18 30 18 30 19 30 19 31 19 31 19 31 19 31 19 30 18 30 18 30 18 29 17 29 17 28 16 27 16 26 15 25 14 24 14 23 13 22 12 20 11 19 10 1 1zm-1 -1l1 0 1 0 -1 -1zm738 192l1 23 -1 0 -45 -1 -44 -2 -42 -3 -41 -4 -40 -5 -38 -5 -37 -6 -36 -7 -34 -7 -33 -8 -31 -8 -30 -8 -29 -9 -27 -9 -26 -9 -24 -9 -23 -9 -22 -9 -20 -9 -19 -9 -17 -8 -16 -8 -14 -7 -13 -7 -11 -6 -10 -6 -8 -5 -7 -4 -5 -4 -4 -3 -2 -2 -1 -1 13 -18 1 0 2 1 4 2 5 3 7 4 8 5 10 6 11 6 13 7 14 7 15 8 17 8 18 8 20 9 21 9 23 9 24 9 25 9 27 9 28 8 30 8 31 8 32 8 34 7 35 7 36 6 38 5 39 5 40 4 42 3 43 2 44 1 -1 0zm1 23l0 0 0 0 1 0zm302 -468l-15 -17 18 7 7 41 4 39 2 37 -1 34 -3 32 -5 30 -7 28 -8 26 -10 24 -11 22 -13 20 -14 19 -15 17 -15 15 -16 14 -16 12 -17 11 -17 10 -16 9 -16 7 -16 6 -15 5 -15 5 -14 4 -13 3 -12 2 -10 2 -9 1 -7 1 -5 1 -3 0 -1 0 -1 -23 1 0 3 0 5 0 7 -1 8 -1 10 -2 11 -2 12 -3 13 -3 14 -4 14 -5 15 -6 15 -7 15 -8 15 -9 15 -10 15 -12 15 -13 14 -14 13 -16 13 -17 12 -19 11 -21 9 -22 8 -24 6 -26 5 -28 3 -31 1 -33 -2 -35 -4 -38 -7 -40 18 7zm-15 -17l15 -12 4 19 -18 -7zm-700 88l6 -22 0 0 43 11 42 9 40 7 39 6 38 4 36 3 35 2 33 0 32 -1 31 -2 29 -3 28 -3 26 -4 25 -5 24 -5 22 -6 21 -6 20 -6 18 -7 17 -7 15 -7 14 -7 13 -6 11 -6 10 -6 9 -5 7 -5 6 -4 5 -3 3 -2 2 -1 0 0 15 17 -1 1 -2 2 -4 3 -5 4 -6 4 -8 5 -9 6 -11 6 -12 6 -13 7 -15 7 -16 7 -17 7 -19 7 -20 7 -22 6 -23 6 -24 6 -26 5 -27 4 -29 4 -30 3 -31 2 -33 1 -34 0 -36 -2 -37 -3 -38 -4 -40 -6 -41 -7 -42 -9 -44 -11 0 0zm-1537 -590l3 -22 0 0 23 4 27 7 30 9 33 11 36 12 38 14 41 16 43 17 45 18 47 20 49 21 51 21 52 22 53 23 55 23 55 24 56 24 57 24 57 24 57 24 57 24 57 23 57 23 56 22 55 22 54 21 53 20 52 18 51 17 49 16 47 14 45 13 -6 22 -45 -13 -47 -14 -49 -16 -51 -17 -52 -19 -54 -20 -55 -21 -56 -22 -56 -22 -57 -23 -57 -23 -57 -24 -57 -24 -57 -24 -57 -24 -56 -24 -55 -24 -55 -23 -53 -23 -52 -22 -51 -21 -49 -21 -47 -19 -45 -18 -43 -17 -41 -16 -38 -14 -35 -12 -32 -10 -29 -9 -26 -6 -22 -4 0 0zm-301 150l-19 -13 0 0 4 -6 5 -7 5 -7 5 -7 6 -7 6 -7 7 -7 7 -7 7 -8 8 -7 8 -7 8 -7 9 -7 9 -7 10 -7 10 -7 10 -6 11 -6 11 -6 11 -5 12 -5 12 -5 13 -4 13 -4 13 -3 14 -2 14 -2 14 -1 15 0 15 0 15 1 16 2 -3 22 -15 -2 -14 -1 -14 0 -14 0 -13 1 -13 2 -13 2 -12 3 -12 3 -12 4 -11 4 -11 5 -11 5 -10 5 -10 6 -10 6 -9 6 -9 7 -9 7 -8 7 -8 7 -8 7 -7 7 -7 7 -7 7 -6 7 -6 7 -6 7 -5 7 -5 6 -5 6 -4 6 0 0zm-35 78l-22 -5 0 0 1 -3 1 -3 1 -3 1 -3 1 -3 1 -3 1 -3 1 -3 1 -3 1 -3 1 -3 1 -3 1 -3 1 -3 1 -3 1 -3 1 -3 1 -3 1 -3 1 -3 1 -3 1 -3 1 -3 1 -3 1 -3 2 -3 2 -3 2 -2 2 -2 2 -2 2 -2 2 -2 19 13 -1 2 -1 2 -1 2 -1 2 -1 2 -1 2 -1 2 -1 2 -1 2 -1 2 -1 2 -1 3 -1 3 -1 3 -1 3 -1 3 -1 3 -1 3 -1 3 -1 3 -1 3 -1 3 -1 3 -1 3 -1 3 -1 3 -1 2 -1 2 -1 2 -1 2 -1 2 -1 2 0 0zm204 232l-5 22 1 0 -21 -4 -19 -4 -18 -5 -17 -6 -16 -6 -15 -6 -14 -7 -13 -7 -12 -8 -11 -8 -10 -8 -9 -9 -8 -9 -7 -9 -7 -9 -6 -10 -5 -10 -4 -10 -4 -10 -3 -10 -2 -10 -2 -10 -1 -10 -1 -9 0 -9 0 -9 0 -9 1 -9 1 -8 1 -8 1 -8 1 -7 22 5 -1 7 -1 7 -1 7 -1 7 -1 8 0 8 0 8 0 8 1 8 1 8 2 8 2 9 3 9 3 8 4 8 4 8 5 8 6 8 6 8 7 8 8 8 9 7 10 7 11 7 12 7 13 6 14 6 15 6 16 5 17 5 19 4 20 4 1 0zm-1 0l0 0 0 0 -1 0zm226 -196l23 0 0 0 0 25 -1 23 -3 21 -4 20 -5 18 -6 17 -7 15 -8 14 -9 12 -10 11 -11 10 -11 8 -12 7 -12 6 -12 5 -12 4 -12 3 -12 3 -12 2 -11 1 -11 1 -11 0 -10 0 -9 0 -9 -1 -8 -1 -7 -1 -6 -1 -5 -1 -4 -1 -2 0 -1 0 5 -22 0 0 2 0 3 1 4 1 5 1 6 1 7 1 8 1 9 0 9 0 10 0 10 -1 10 -1 11 -2 11 -2 11 -3 11 -4 11 -4 10 -5 10 -6 10 -7 9 -8 9 -9 8 -10 7 -12 7 -13 6 -15 5 -16 4 -18 2 -20 1 -22 0 -23 0 0zm0 0l0 0 0 0 0 0zm-16 -35l16 -16 0 0 2 2 2 2 1 2 1 2 1 2 1 2 1 2 1 2 1 2 1 2 1 2 1 2 1 2 1 2 1 2 1 2 1 2 1 2 1 2 0 2 0 2 0 1 0 1 0 1 0 1 0 1 0 1 0 1 0 1 0 1 0 1 0 1 -23 0 0 1 0 0 0 0 0 0 0 -1 0 -1 0 -1 0 -1 0 -1 0 -1 0 -1 0 -1 0 -1 0 -1 0 -1 0 -1 -1 -1 -1 -1 -1 -1 -1 -1 -1 -1 -1 -1 -1 -1 -1 -1 -1 -1 -1 -1 -1 -1 -1 -1 -1 -1 -1 -1 -1 -1 -1 -1 0 0zm-227 -20l-11 -20 0 0 12 -7 12 -6 12 -5 11 -5 11 -4 11 -3 11 -3 10 -2 10 -1 10 -1 10 0 9 0 9 1 9 1 9 2 8 2 8 2 8 3 7 3 7 3 7 3 6 3 6 4 6 4 6 4 5 4 5 4 5 4 4 4 4 4 4 4 4 4 -16 16 -3 -3 -3 -3 -4 -3 -4 -3 -4 -3 -4 -3 -5 -3 -5 -3 -5 -3 -5 -3 -6 -3 -6 -3 -6 -3 -6 -2 -7 -2 -7 -2 -7 -2 -7 -1 -8 -1 -8 -1 -8 0 -8 0 -9 1 -9 1 -9 2 -10 2 -10 3 -10 3 -10 4 -11 5 -11 6 -11 6 0 0zm-21 -11l23 0 0 -1 0 -1 0 -1 0 -1 0 -1 -1 -1 -1 -1 -1 -1 -1 -1 -1 -1 -1 0 -1 0 -1 0 -1 0 0 0 -1 0 -1 0 -1 0 0 0 0 0 -1 0 0 0 0 0 0 0 0 0 0 0 0 0 0 0 0 0 0 0 0 0 0 0 11 20 -1 0 -1 0 0 0 -1 0 0 0 -1 0 -1 0 0 0 0 0 -1 0 -1 0 -1 0 -1 0 -1 0 -1 0 -1 0 -1 0 -1 0 -1 0 -1 0 -1 0 -1 -1 -1 -1 -1 -1 -1 -1 -1 -1 -1 -1 0 -1 0 -1 0 -1 0 -1 0 -1z"/>
   </g>
   <g>
    <path class="fil0" d="M4972 549l19 13 0 0 0 0 0 0 0 0 0 0 0 0 0 0 0 0 0 0 0 0 0 0 0 0 0 0 0 0 0 0 0 0 0 0 0 0 0 0 0 0 0 0 0 0 0 0 0 0 0 0 0 1 0 0 0 -1 0 0 0 -1 0 1 0 1 0 -2 -22 -4 0 -2 0 1 0 1 0 -1 0 0 0 -1 0 0 0 0 0 -1 0 0 0 0 0 0 0 0 0 0 0 0 0 0 0 0 0 0 0 0 0 0 0 0 0 0 0 0 0 -1 0 0 0 0 0 -1 0 0 0 0 0 -1 0 -1 0 0 0 0zm246 -46l-5 22 -15 -3 -14 -3 -14 -2 -13 -2 -12 -1 -12 -1 -11 0 -11 0 -10 0 -9 1 -9 1 -8 1 -8 1 -7 2 -7 2 -7 2 -6 2 -6 2 -5 2 -5 2 -4 3 -4 3 -4 3 -3 3 -3 3 -3 3 -3 2 -2 2 -2 2 -2 2 -2 2 -1 2 -19 -13 2 -3 2 -3 2 -3 3 -3 3 -3 3 -3 4 -3 4 -3 4 -3 5 -3 5 -3 5 -3 6 -3 6 -3 7 -3 7 -2 7 -2 8 -2 8 -2 9 -2 9 -1 10 -1 10 -1 11 0 11 0 12 0 12 1 13 1 14 2 14 2 15 3 15 3z"/>
   </g>
   <g>
    <path class="fil0" d="M5575 889l-23 -1 12 -11 10 1 9 0 9 -1 8 -1 7 -2 7 -2 6 -3 5 -3 5 -3 5 -4 4 -4 4 -4 3 -5 3 -5 3 -5 2 -6 2 -6 2 -6 1 -6 1 -6 1 -6 1 -6 1 -6 0 -6 0 -6 0 -6 0 -5 0 -5 0 -5 0 -4 0 -4 0 -4 23 -3 0 4 0 4 0 5 0 5 0 6 0 6 0 6 0 6 0 7 -1 7 -1 7 -1 7 -1 7 -2 7 -2 7 -2 7 -3 7 -3 7 -4 6 -4 6 -5 6 -6 6 -6 5 -7 5 -7 4 -8 4 -9 3 -9 2 -10 1 -10 1 -11 0 -12 -1 12 -11zm-23 -1l1 -12 12 1 -12 11zm-128 111l-23 0 16 -11 12 5 11 4 10 2 10 1 9 0 8 -1 7 -1 7 -2 6 -3 6 -3 5 -4 5 -4 5 -5 4 -5 4 -6 4 -6 3 -6 3 -6 3 -6 2 -6 2 -6 2 -6 1 -6 1 -6 1 -5 1 -5 1 -4 0 -4 0 -3 0 -2 0 -1 0 0 23 1 0 1 0 2 0 2 0 3 0 4 -1 5 -1 5 -1 6 -1 6 -2 7 -2 7 -2 7 -3 7 -3 7 -3 7 -4 7 -4 7 -5 7 -5 7 -6 6 -7 6 -7 5 -8 4 -9 4 -9 3 -10 2 -11 1 -11 0 -12 -2 -12 -3 -13 -4 -14 -5 16 -11zm-23 0l0 -18 16 7 -16 11zm-133 123l-23 -1 15 -10 14 4 13 3 12 1 11 0 10 0 9 -1 8 -2 8 -3 7 -3 6 -4 6 -4 5 -5 5 -5 4 -6 4 -6 3 -6 3 -6 3 -6 2 -6 2 -6 2 -6 1 -6 1 -6 1 -6 1 -5 1 -5 0 -4 0 -4 0 -3 0 -2 0 -1 0 0 23 0 0 1 0 2 0 2 0 3 0 4 0 5 -1 5 -1 6 -1 6 -1 7 -2 7 -2 7 -2 7 -3 7 -3 8 -4 8 -4 7 -5 7 -5 7 -6 7 -7 6 -7 6 -8 5 -9 4 -10 3 -10 3 -11 2 -12 1 -13 -1 -14 -2 -14 -3 -15 -4 15 -10zm-23 -1l1 -14 14 4 -15 10zm-6 88l6 -88 23 1 -6 88 -14 10 -8 -12zm8 12l-9 -2 1 -9 8 12zm210 -144l-5 22 14 -10 -3 16 -4 15 -5 14 -5 13 -6 12 -7 11 -8 10 -8 9 -9 8 -9 7 -9 6 -9 5 -10 4 -10 3 -10 3 -10 2 -10 2 -9 1 -9 1 -9 0 -9 0 -8 0 -8 -1 -7 -1 -7 -1 -6 -1 -5 -1 -4 -1 -4 -1 -3 -1 -2 0 -1 0 6 -22 0 0 1 0 2 1 3 1 4 1 5 1 5 1 6 1 6 1 7 1 7 0 8 0 8 0 8 -1 8 -1 8 -1 8 -2 8 -2 8 -3 8 -3 8 -4 8 -5 7 -5 7 -6 7 -7 6 -8 6 -9 5 -10 5 -11 4 -12 3 -13 2 -15 14 -10zm-14 10l2 -12 12 3 -14 10zm179 -149l-1 23 12 -11 -2 17 -2 15 -3 14 -4 13 -5 12 -5 11 -6 10 -6 9 -7 8 -7 7 -8 7 -8 6 -8 5 -8 4 -8 4 -8 3 -8 2 -8 2 -8 1 -8 1 -7 1 -7 0 -7 0 -6 0 -6 0 -5 0 -4 -1 -4 -1 -3 -1 -2 0 -1 0 -1 0 5 -22 0 0 1 0 2 0 3 0 3 0 4 0 4 0 5 0 5 0 6 0 6 0 6 -1 7 -1 7 -1 7 -2 7 -2 7 -2 7 -3 7 -3 7 -4 6 -5 6 -5 6 -6 6 -7 5 -8 5 -9 5 -10 4 -11 3 -12 3 -13 2 -14 1 -15 12 -11zm-12 11l1 -11 11 1 -12 11zm124 -157l23 -2 1 16 0 15 -1 14 -1 13 -2 12 -3 11 -4 11 -4 10 -5 9 -5 8 -6 7 -6 7 -6 6 -7 5 -7 5 -7 4 -7 4 -7 3 -7 3 -7 2 -6 2 -6 1 -6 1 -5 1 -5 1 -5 0 -4 0 -3 0 -3 0 -2 0 -1 0 -1 0 1 -23 0 0 1 0 2 0 2 0 3 0 3 0 4 0 4 -1 5 -1 5 -1 5 -1 5 -2 6 -2 6 -2 6 -3 6 -3 6 -3 5 -4 5 -4 5 -5 5 -5 5 -6 4 -7 4 -7 3 -8 3 -9 2 -10 2 -11 1 -12 0 -12 0 -14 -1 -15z"/>
   </g>
   <g>
    <path class="fil0" d="M6142 1310l4 -22 0 0 17 3 16 1 15 0 14 -1 13 -2 12 -3 11 -3 10 -4 9 -5 8 -5 8 -6 7 -6 6 -7 6 -7 5 -7 5 -7 4 -8 4 -8 3 -8 3 -8 2 -7 2 -7 2 -7 1 -6 1 -6 1 -5 1 -5 0 -4 0 -3 0 -2 0 -1 0 0 23 0 0 1 0 2 0 3 0 4 0 5 -1 5 -1 6 -1 7 -1 7 -2 8 -2 8 -3 8 -3 9 -4 9 -4 9 -5 9 -5 9 -6 9 -7 8 -8 8 -8 7 -9 7 -10 6 -11 6 -12 5 -13 4 -14 3 -15 2 -16 1 -17 0 -18 -2 -19 -3 0 0zm0 0l0 0 3 1 -3 -1zm1 1l-22 -6 0 0 0 -1 0 -1 0 -1 1 -1 1 -1 1 -1 1 -1 1 -1 1 -1 1 -1 1 -1 1 -1 1 -1 1 -1 1 -1 1 -1 1 0 1 0 1 0 1 0 1 0 1 0 1 0 1 0 1 0 1 0 1 0 1 0 1 0 1 0 1 0 1 0 -4 22 1 0 0 0 0 0 0 0 0 0 0 0 0 0 0 0 0 0 0 0 0 0 0 0 0 0 0 0 0 0 0 0 0 0 0 0 0 0 0 0 0 0 0 0 0 0 0 0 0 0 0 0 0 0 0 0 0 0 0 0 0 0 0 0 0 0zm-239 127l-20 -10 13 -6 15 4 15 3 14 2 13 1 13 0 12 0 11 -1 11 -2 10 -2 9 -3 9 -4 8 -4 8 -4 7 -5 7 -5 7 -6 6 -6 6 -6 5 -6 5 -6 5 -6 4 -6 4 -6 3 -6 3 -6 3 -6 3 -6 2 -6 2 -5 2 -5 1 -4 1 -4 22 6 -1 4 -2 5 -2 5 -2 6 -2 6 -3 6 -3 7 -3 7 -4 7 -4 7 -5 7 -5 7 -6 7 -6 7 -7 7 -7 7 -8 6 -8 6 -9 6 -9 5 -10 5 -10 4 -11 3 -12 3 -12 2 -13 1 -13 0 -14 -1 -15 -2 -15 -2 -16 -4 -17 -5 13 -6zm-20 -10l4 -9 9 3 -13 6zm-293 108l-19 -13 15 -3 18 10 18 8 17 6 16 5 16 3 15 2 15 1 14 -1 13 -2 13 -3 12 -4 12 -4 11 -5 11 -6 10 -6 10 -7 9 -7 9 -7 8 -8 7 -8 7 -8 6 -7 6 -7 5 -7 5 -6 4 -6 3 -5 3 -4 2 -4 1 -3 1 -2 0 0 20 10 0 1 -1 2 -2 3 -2 4 -3 5 -4 6 -4 6 -5 7 -5 7 -6 8 -7 8 -7 8 -8 8 -9 8 -9 8 -10 8 -11 7 -11 7 -12 6 -13 6 -13 5 -14 4 -15 3 -15 2 -16 1 -16 -1 -17 -2 -18 -4 -18 -5 -19 -7 -19 -9 -20 -11 15 -3zm-19 -13l6 -9 9 5 -15 3zm-315 13l-16 16 15 -17 20 13 19 11 18 10 18 8 17 7 16 5 16 4 15 3 14 2 14 1 13 0 13 -1 12 -2 11 -3 11 -3 10 -4 10 -4 9 -5 8 -5 8 -5 7 -5 7 -5 6 -5 5 -5 5 -5 4 -4 3 -4 3 -3 2 -3 2 -2 1 -1 0 0 19 13 -1 1 -1 2 -2 2 -2 3 -3 4 -4 4 -5 5 -5 5 -6 5 -7 6 -7 6 -8 6 -9 6 -9 5 -10 5 -11 5 -11 4 -12 4 -13 3 -13 2 -14 1 -15 0 -15 -1 -16 -2 -17 -3 -17 -4 -18 -6 -18 -7 -19 -9 -20 -10 -20 -12 -21 -14 15 -17zm386 255l-5 22 0 0 -17 -4 -17 -5 -17 -6 -17 -7 -17 -8 -17 -9 -17 -9 -17 -10 -17 -10 -17 -11 -17 -11 -16 -11 -16 -11 -16 -11 -15 -11 -15 -11 -14 -11 -14 -11 -13 -11 -12 -10 -12 -10 -11 -10 -10 -9 -9 -8 -8 -8 -7 -7 -6 -6 -5 -5 -4 -4 -3 -3 -2 -2 -1 -1 16 -16 1 1 2 2 3 3 4 4 5 5 6 6 7 7 8 8 9 8 10 9 11 9 11 10 12 10 13 11 13 11 14 11 14 11 15 11 15 11 16 11 16 11 16 11 16 10 17 10 17 9 17 9 17 8 17 8 16 7 16 6 16 5 16 4 0 0zm264 -66l20 11 0 0 -3 5 -3 5 -4 5 -4 5 -4 5 -5 5 -5 5 -6 5 -6 5 -6 5 -7 4 -7 4 -8 4 -8 4 -8 4 -9 3 -9 3 -10 3 -10 3 -10 2 -11 2 -11 2 -12 1 -12 1 -12 0 -13 0 -13 -1 -14 -1 -14 -2 -14 -2 -15 -3 -15 -3 5 -22 14 3 14 3 14 2 13 1 13 1 12 0 12 0 12 0 11 -1 11 -1 10 -1 10 -2 10 -2 9 -2 9 -3 8 -3 8 -3 8 -3 7 -4 7 -4 6 -4 6 -4 6 -4 5 -4 5 -4 5 -4 4 -4 4 -4 3 -4 3 -4 3 -4 2 -4 0 0zm29 -7l-13 18 0 0 0 0 0 0 0 0 0 0 0 0 0 0 0 0 0 0 0 0 0 0 0 0 0 0 0 0 0 0 0 0 0 0 0 0 0 0 0 0 0 0 0 0 0 0 0 0 0 0 0 0 0 0 0 0 0 0 0 0 0 0 0 0 0 0 -20 -11 0 -1 0 -1 0 -1 0 -1 1 -1 1 -1 1 -1 1 -1 1 -1 1 -1 1 -1 1 0 1 -1 1 -1 1 0 1 0 1 0 1 0 1 0 1 0 1 0 1 0 1 0 1 0 1 0 1 0 1 0 1 0 1 1 1 1 1 1 1 1 0 0zm-13 18l0 0 -2 -1 2 1zm274 33l-5 22 3 0 -15 1 -15 0 -14 0 -14 0 -13 0 -13 -1 -12 -1 -12 -1 -11 -1 -11 -2 -11 -2 -10 -2 -10 -2 -9 -2 -9 -2 -8 -2 -8 -2 -8 -2 -7 -3 -7 -3 -6 -3 -6 -3 -6 -3 -5 -3 -5 -3 -5 -2 -4 -2 -4 -2 -4 -2 -3 -2 -3 -2 -3 -2 13 -18 2 2 3 2 3 2 3 2 3 2 4 2 4 2 5 2 5 2 5 2 6 2 6 2 6 2 7 2 7 2 8 2 8 2 8 2 9 2 9 2 10 2 10 2 11 1 11 1 11 1 12 1 12 1 13 0 13 0 14 0 14 0 15 -1 3 0zm-3 0l2 0 2 0 -3 0zm200 -84l-12 19 15 -3 -8 10 -8 10 -8 9 -9 8 -9 7 -9 7 -9 6 -9 6 -9 5 -9 4 -9 4 -8 3 -8 3 -8 2 -8 2 -8 2 -7 1 -7 1 -7 1 -6 0 -6 0 -6 0 -5 0 -5 0 -4 0 -4 0 -3 0 -3 0 -2 0 -2 0 -1 0 -1 0 5 -22 0 0 1 0 1 0 2 0 2 0 3 0 3 0 4 0 4 0 5 0 5 0 5 0 6 0 6 -1 6 -1 7 -1 7 -1 7 -2 7 -2 7 -3 7 -3 8 -3 8 -4 8 -4 8 -5 8 -5 8 -6 8 -7 8 -7 8 -8 8 -9 7 -10 15 -3zm-15 3l6 -8 9 5 -15 3zm290 4l6 22 1 0 -16 6 -16 5 -15 4 -15 3 -15 3 -14 2 -14 2 -14 1 -13 1 -13 0 -12 0 -12 -1 -11 -1 -11 -1 -10 -2 -10 -2 -9 -2 -9 -2 -8 -2 -8 -2 -7 -2 -7 -2 -6 -2 -6 -2 -5 -2 -4 -2 -4 -2 -3 -2 -3 -1 -2 -1 -1 -1 -1 0 12 -19 0 0 1 1 2 1 2 1 3 1 3 2 4 2 5 2 5 2 6 2 6 2 7 2 7 2 8 2 8 2 9 2 9 2 10 2 10 1 11 1 11 1 12 0 12 0 12 -1 13 -1 13 -2 13 -2 14 -3 14 -3 15 -4 15 -5 15 -5 1 0zm-1 0l1 0 1 0 -1 0zm152 -148l-1 23 12 -10 -2 11 -3 11 -3 10 -4 10 -4 9 -5 9 -5 8 -6 8 -6 7 -6 7 -6 7 -7 6 -7 6 -7 5 -7 5 -7 5 -7 4 -7 4 -7 4 -6 3 -6 3 -6 3 -5 2 -5 2 -5 2 -4 2 -4 1 -3 1 -3 1 -2 1 -1 0 -1 0 -6 -22 0 0 1 0 2 0 2 -1 3 -1 3 -1 4 -1 4 -2 5 -2 5 -2 5 -2 6 -3 6 -3 6 -3 6 -4 6 -4 6 -4 6 -5 6 -5 6 -5 6 -6 6 -6 6 -6 5 -7 5 -7 5 -7 4 -8 4 -8 3 -8 3 -9 2 -9 2 -10 12 -10zm-12 10l2 -10 10 0 -12 10zm270 -218l23 3 -3 21 -4 20 -6 19 -7 18 -8 16 -9 15 -9 14 -10 13 -11 12 -11 11 -12 10 -12 9 -12 8 -13 7 -13 6 -13 5 -12 5 -12 4 -12 4 -12 3 -11 2 -11 2 -10 2 -9 1 -9 1 -8 1 -7 0 -6 0 -5 0 -3 0 -2 0 -1 0 1 -23 0 0 2 0 3 0 4 0 5 0 6 0 7 -1 8 -1 9 -1 9 -1 10 -2 10 -2 11 -3 11 -3 11 -4 12 -4 12 -5 12 -6 11 -6 11 -7 11 -8 11 -9 10 -10 10 -11 9 -12 8 -13 8 -14 7 -15 6 -16 5 -17 4 -18 3 -20z"/>
   </g>
   <g>
    <polygon class="fil0" points="6819,1544 6818,1567 6770,1564 6721,1559 6671,1550 6620,1538 6569,1524 6518,1507 6467,1488 6415,1467 6364,1445 6314,1421 6264,1396 6214,1370 6166,1342 6118,1315 6072,1287 6026,1258 5983,1230 5941,1202 5901,1174 5863,1147 5826,1121 5793,1096 5761,1073 5733,1051 5707,1031 5684,1012 5664,996 5647,983 5634,972 5624,963 5618,958 5616,957 5631,939 5633,941 5639,946 5648,954 5661,965 5678,979 5698,995 5721,1013 5746,1033 5775,1055 5806,1078 5840,1103 5876,1129 5914,1156 5954,1183 5995,1211 6039,1239 6083,1267 6130,1295 6177,1323 6225,1350 6274,1376 6324,1401 6374,1424 6424,1447 6475,1467 6525,1486 6576,1502 6626,1516 6675,1527 6724,1536 6772,1542 "/>
   </g>
   <g>
    <polygon class="fil0" points="6390,1682 6387,1704 6355,1698 6322,1689 6287,1677 6252,1663 6215,1647 6178,1629 6140,1608 6102,1587 6063,1564 6024,1540 5985,1514 5946,1488 5907,1462 5869,1435 5832,1407 5795,1380 5759,1353 5725,1326 5691,1300 5659,1274 5629,1250 5600,1226 5574,1204 5549,1183 5527,1164 5507,1147 5490,1132 5475,1120 5464,1109 5455,1102 5450,1097 5448,1096 5464,1079 5465,1080 5471,1085 5479,1092 5490,1103 5505,1115 5522,1130 5542,1147 5564,1166 5588,1187 5615,1209 5643,1232 5673,1257 5705,1282 5738,1308 5773,1335 5809,1362 5845,1389 5882,1416 5920,1443 5959,1470 5997,1495 6036,1520 6075,1544 6113,1567 6151,1589 6188,1608 6225,1626 6261,1642 6295,1656 6328,1667 6360,1676 "/>
   </g>
   <g>
    <polygon class="fil0" points="5927,1713 5924,1736 5898,1731 5872,1724 5844,1714 5817,1703 5789,1689 5760,1674 5732,1657 5703,1639 5675,1619 5646,1599 5618,1577 5590,1555 5562,1532 5535,1509 5508,1486 5482,1462 5457,1439 5433,1416 5410,1393 5388,1371 5367,1350 5347,1330 5329,1311 5312,1293 5297,1276 5283,1262 5271,1249 5261,1238 5254,1229 5248,1222 5244,1218 5243,1217 5260,1202 5261,1203 5265,1207 5271,1214 5278,1222 5288,1233 5300,1246 5313,1261 5328,1277 5345,1295 5363,1314 5383,1334 5404,1355 5426,1377 5449,1400 5473,1422 5498,1446 5524,1469 5550,1492 5577,1515 5604,1537 5632,1559 5660,1581 5688,1601 5716,1620 5744,1638 5772,1654 5799,1669 5826,1682 5852,1693 5878,1702 5903,1709 "/>
   </g>
   <g>
    <polygon class="fil0" points="4894,2081 4893,2058 4935,2055 4973,2050 5007,2042 5039,2031 5068,2019 5095,2005 5118,1990 5140,1972 5159,1954 5176,1934 5190,1914 5204,1892 5215,1870 5224,1847 5233,1824 5239,1800 5244,1777 5249,1754 5252,1731 5254,1709 5255,1687 5255,1667 5255,1647 5255,1629 5254,1612 5252,1597 5251,1584 5249,1573 5248,1564 5247,1557 5246,1553 5246,1552 5268,1548 5269,1549 5269,1554 5271,1561 5272,1570 5273,1582 5275,1595 5276,1611 5277,1628 5278,1647 5278,1667 5278,1688 5276,1711 5274,1734 5271,1757 5267,1782 5261,1806 5254,1831 5246,1855 5235,1879 5223,1903 5209,1926 5193,1948 5175,1970 5155,1989 5132,2008 5106,2025 5078,2040 5047,2053 5013,2064 4977,2072 4937,2078 "/>
   </g>
   <g>
    <polygon class="fil0" points="4626,2166 4628,2143 4670,2144 4709,2141 4745,2135 4778,2126 4807,2114 4834,2100 4859,2083 4881,2064 4901,2043 4919,2020 4934,1996 4948,1971 4960,1944 4970,1917 4979,1889 4986,1860 4992,1832 4996,1803 5000,1775 5002,1748 5004,1721 5005,1696 5005,1671 5004,1649 5003,1628 5002,1609 5001,1592 4999,1578 4998,1567 4997,1558 4996,1553 4996,1552 5019,1548 5019,1550 5020,1556 5021,1564 5022,1576 5023,1590 5025,1607 5026,1627 5027,1648 5027,1671 5027,1696 5026,1722 5025,1749 5022,1778 5019,1807 5014,1836 5008,1865 5001,1895 4992,1924 4981,1953 4968,1981 4954,2008 4937,2033 4918,2058 4897,2080 4873,2101 4846,2119 4817,2135 4785,2147 4750,2157 4712,2164 4671,2167 "/>
   </g>
   <g>
    <path class="fil0" d="M4629 2145l18 13 -1 1 0 0 -1 1 -1 1 -2 2 -2 2 -3 2 -3 3 -4 3 -4 3 -5 3 -5 4 -5 4 -6 4 -6 4 -6 4 -7 4 -7 4 -7 4 -8 4 -8 4 -8 3 -9 3 -9 3 -9 3 -9 2 -10 2 -10 2 -10 1 -10 1 -11 0 -11 -1 -11 -1 3 -23 10 1 10 0 9 0 9 -1 9 -1 9 -1 9 -2 9 -2 8 -2 8 -3 8 -3 8 -3 7 -3 7 -3 7 -4 7 -4 6 -4 6 -4 6 -4 5 -4 5 -3 5 -3 4 -3 4 -3 3 -3 3 -3 3 -2 2 -2 2 -2 1 -1 1 -1 0 0 -1 1zm18 13l-1 1 -1 1 1 -1zm65 -398l22 -6 0 1 0 2 1 3 1 4 1 5 1 6 1 7 1 8 1 9 1 10 1 10 1 11 1 12 0 13 0 13 0 14 -1 15 -1 15 -2 16 -2 16 -3 16 -4 17 -4 17 -5 18 -6 18 -7 18 -8 18 -9 18 -10 19 -11 19 -12 19 -13 19 -18 -13 12 -18 11 -18 10 -18 9 -18 8 -18 7 -18 7 -17 6 -17 5 -17 4 -16 4 -16 3 -16 2 -15 2 -15 1 -14 1 -14 0 -13 0 -13 0 -12 0 -11 -1 -11 -1 -10 -1 -9 -1 -8 -1 -7 -1 -7 -1 -6 -1 -5 -1 -4 -1 -3 0 -2 0 0z"/>
   </g>
   <g>
    <path class="fil0" d="M4434 2241l-11 -20 0 0 7 -4 7 -5 6 -6 6 -6 6 -7 5 -7 5 -8 5 -8 5 -8 4 -9 4 -9 4 -9 3 -9 3 -9 3 -9 3 -9 2 -9 2 -9 2 -9 2 -8 2 -8 1 -8 1 -7 1 -7 1 -6 1 -5 1 -5 0 -4 0 -3 0 -2 0 -1 0 0 23 2 0 1 0 2 0 2 0 3 0 4 -1 5 -1 6 -1 6 -1 7 -1 7 -1 8 -2 8 -2 9 -2 9 -2 9 -3 10 -3 10 -3 10 -3 10 -4 10 -4 10 -4 10 -5 9 -5 9 -5 9 -6 9 -6 8 -7 8 -7 7 -8 7 -8 6 -9 5 0 0zm-254 -1l14 -18 5 4 5 4 6 4 6 3 6 3 6 3 6 3 7 2 7 2 7 2 7 1 7 1 7 1 7 1 7 0 7 0 8 0 8 0 8 -1 8 -1 8 -1 8 -1 8 -2 8 -2 8 -2 8 -3 8 -3 8 -3 8 -3 8 -4 8 -4 8 -4 11 20 -8 5 -8 4 -8 4 -8 4 -9 3 -9 3 -9 3 -9 3 -9 2 -9 2 -9 2 -9 1 -9 1 -8 1 -8 0 -8 0 -8 0 -8 0 -8 -1 -8 -1 -8 -1 -8 -2 -8 -2 -8 -2 -7 -3 -7 -3 -7 -3 -7 -4 -7 -4 -7 -4 -6 -4 -6 -5z"/>
   </g>
   <g>
    <path class="fil0" d="M718 930l6 22 0 0 -44 11 -42 9 -41 7 -40 6 -38 4 -37 3 -36 2 -34 0 -33 -1 -31 -2 -30 -3 -29 -4 -27 -4 -26 -5 -24 -6 -23 -6 -22 -6 -20 -7 -19 -7 -17 -7 -16 -7 -15 -7 -13 -7 -12 -6 -11 -6 -9 -6 -8 -5 -6 -4 -5 -4 -4 -3 -2 -2 -1 -1 15 -17 0 0 2 1 3 2 5 3 6 4 7 5 9 5 10 6 11 6 13 6 14 7 15 7 17 7 18 7 20 6 21 6 22 6 24 5 25 5 26 4 28 3 29 3 31 2 32 1 33 0 35 -2 36 -3 38 -4 39 -6 40 -7 42 -9 43 -11 0 0zm1540 -591l3 22 0 0 -22 4 -26 6 -29 9 -32 10 -35 12 -38 14 -41 16 -43 17 -45 18 -47 19 -49 21 -51 21 -52 22 -53 23 -55 23 -55 24 -56 24 -57 24 -57 24 -57 24 -57 24 -57 23 -57 23 -56 22 -56 22 -55 21 -54 20 -52 19 -51 17 -49 16 -47 14 -45 13 -6 -22 45 -13 47 -14 49 -16 51 -17 52 -18 53 -20 54 -21 55 -22 56 -22 57 -23 57 -23 57 -24 57 -24 57 -24 57 -24 56 -24 55 -24 55 -23 53 -23 52 -22 51 -21 49 -21 47 -20 45 -18 43 -17 41 -16 38 -14 36 -12 33 -11 30 -9 27 -7 23 -4 0 0zm323 160l-19 13 0 0 -4 -6 -5 -6 -5 -6 -5 -7 -6 -7 -6 -7 -6 -7 -7 -7 -7 -7 -7 -7 -8 -7 -8 -7 -8 -7 -9 -7 -9 -6 -9 -6 -10 -6 -10 -6 -10 -5 -11 -5 -11 -5 -11 -4 -12 -4 -12 -3 -12 -3 -13 -2 -13 -2 -13 -1 -14 0 -14 0 -14 1 -15 2 -3 -22 16 -2 15 -1 15 0 15 0 14 1 14 2 14 2 13 3 13 4 13 4 12 5 12 5 11 5 11 6 11 6 10 6 10 7 10 7 9 7 9 7 8 7 8 7 8 7 7 8 7 7 7 7 6 7 6 7 5 7 5 7 5 7 4 6 0 0zm39 87l-22 5 0 0 -1 -2 -1 -2 -1 -2 -1 -2 -1 -2 -1 -3 -1 -3 -1 -3 -1 -3 -1 -3 -1 -3 -1 -3 -1 -3 -1 -3 -1 -3 -1 -3 -1 -3 -1 -3 -1 -3 -1 -3 -1 -3 -1 -3 -1 -2 -1 -2 -1 -2 -1 -2 -1 -2 -1 -2 -1 -2 -1 -2 -1 -2 -1 -2 19 -13 2 2 2 2 2 2 2 2 2 2 2 3 2 3 1 3 1 3 1 3 1 3 1 3 1 3 1 3 1 3 1 3 1 3 1 3 1 3 1 3 1 3 1 3 1 3 1 3 1 3 1 3 1 3 1 3 1 3 1 3 1 3 1 3 0 0zm-22 5l0 0 0 2 0 -2zm-198 254l-5 -22 1 0 20 -4 19 -4 17 -5 16 -5 15 -6 14 -6 13 -6 12 -7 11 -7 10 -7 9 -7 8 -8 7 -8 6 -8 6 -8 5 -8 4 -8 4 -8 3 -8 3 -9 2 -9 2 -8 1 -8 1 -8 0 -8 0 -8 0 -8 -1 -8 -1 -7 -1 -7 -1 -7 -1 -7 22 -5 1 7 1 8 1 8 1 8 1 9 0 9 0 9 0 9 -1 9 -1 10 -2 10 -2 10 -3 10 -4 10 -4 10 -5 10 -6 10 -7 9 -7 9 -8 9 -9 9 -10 8 -11 8 -12 8 -13 7 -14 7 -15 6 -16 6 -17 6 -18 5 -19 4 -21 4 1 0zm-5 -22l0 0 0 0 -1 0zm-248 -205l23 0 0 1 -1 24 1 22 2 20 3 19 4 17 5 15 6 14 7 12 8 11 9 10 9 8 10 7 10 6 10 5 11 5 11 4 11 3 11 2 11 2 11 1 10 1 10 0 9 0 9 0 8 -1 7 -1 6 -1 6 -1 4 -1 3 -1 2 0 1 0 5 22 -1 0 -2 0 -4 1 -5 1 -6 1 -7 1 -8 1 -9 1 -10 0 -10 0 -11 0 -11 -1 -12 -1 -12 -2 -12 -3 -12 -3 -12 -4 -12 -5 -12 -6 -12 -7 -11 -9 -11 -10 -10 -11 -9 -13 -8 -14 -7 -16 -6 -17 -5 -19 -4 -20 -2 -22 -1 -24 1 -26 0 1zm23 0l0 0 0 0 0 -1zm-8 -34l17 15 0 0 -1 1 -1 1 -1 1 -1 1 -1 1 -1 1 0 1 0 1 0 1 0 1 0 1 0 1 0 1 0 1 0 1 0 1 0 1 0 1 0 1 0 1 0 1 0 1 0 1 0 0 0 0 0 1 0 0 0 0 0 0 0 0 0 0 0 0 -23 0 0 -1 0 -1 0 -1 0 -1 0 -1 0 -1 0 -1 0 -1 0 -1 0 -1 0 -1 0 -1 0 -1 0 -1 0 -1 0 -1 0 -1 1 -1 1 -1 1 -1 1 -1 1 -1 1 -1 1 -1 1 -1 1 -1 1 -1 1 -1 1 -1 1 -1 1 -1 1 -1 0 0zm0 0l0 0 4 -5 -4 5zm262 -31l-11 20 0 0 -12 -7 -12 -6 -11 -5 -11 -4 -11 -4 -10 -3 -10 -2 -10 -2 -9 -1 -9 0 -9 0 -9 1 -8 1 -8 1 -8 2 -7 2 -7 2 -7 3 -7 3 -6 3 -6 3 -6 3 -5 4 -5 4 -5 4 -5 4 -4 4 -4 4 -4 4 -3 3 -3 3 -3 3 -17 -15 3 -4 3 -4 4 -4 4 -4 4 -4 5 -4 5 -4 5 -4 6 -4 6 -4 6 -4 7 -4 7 -4 7 -3 8 -3 8 -3 8 -2 9 -2 9 -2 9 -1 10 -1 10 0 10 1 11 1 11 2 11 2 12 3 12 4 12 5 12 5 13 6 13 7 0 0zm0 0l0 0 -1 0 1 0zm-13 11l19 -13 0 0 1 1 1 1 1 1 0 1 0 1 0 1 0 1 0 1 0 1 0 2 0 1 0 2 -1 2 -1 2 -1 2 -1 1 -1 1 -1 1 -1 1 -1 0 -1 0 -1 0 -1 0 -1 0 -1 0 -1 0 -1 0 -1 0 -1 0 -1 0 -1 0 -1 0 11 -20 0 0 0 0 0 0 0 0 0 0 0 0 -1 0 0 0 -1 0 -1 0 -1 0 -1 0 -1 0 -1 0 -1 1 -1 1 -1 1 -1 1 -1 1 0 1 0 1 0 1 0 1 0 1 0 0 0 0 0 0 0 0 0 0 0 0 0 0 0 0 0 0zm-329 -5l-8 -21 0 0 23 -8 22 -7 21 -6 20 -5 19 -5 18 -4 18 -3 17 -2 16 -2 15 -1 14 -1 13 0 13 0 12 1 11 1 11 2 10 2 9 2 9 3 8 3 7 3 7 3 6 4 6 4 5 4 5 4 4 4 4 4 3 4 3 4 3 3 2 3 -19 13 -2 -2 -2 -3 -2 -3 -3 -3 -3 -3 -3 -3 -4 -3 -4 -3 -5 -3 -5 -3 -6 -3 -6 -3 -7 -3 -8 -2 -8 -2 -9 -2 -10 -2 -10 -1 -11 -1 -12 0 -13 0 -13 1 -14 1 -15 2 -16 2 -17 3 -18 4 -19 4 -20 5 -21 6 -22 7 -23 8 0 0zm-173 90l-12 -19 0 0 3 -2 4 -2 4 -2 5 -3 5 -3 5 -3 6 -3 6 -3 6 -3 6 -4 7 -4 7 -4 7 -4 7 -4 7 -4 7 -4 7 -4 7 -4 7 -4 7 -3 7 -3 6 -3 6 -3 6 -3 6 -3 5 -3 5 -2 4 -2 4 -2 3 -2 3 -1 3 -1 8 21 -2 1 -3 1 -3 1 -4 2 -4 2 -5 2 -5 2 -5 3 -6 3 -6 3 -6 3 -7 3 -7 3 -7 4 -7 4 -7 4 -7 4 -7 4 -7 4 -7 4 -7 4 -7 4 -6 3 -6 3 -6 3 -6 3 -5 3 -5 3 -4 3 -4 2 -3 2 -3 2 0 0zm-846 507l-13 -18 1 -1 19 -10 20 -11 22 -12 23 -13 24 -14 25 -14 26 -15 27 -16 28 -16 28 -17 29 -17 29 -18 30 -18 30 -18 30 -18 30 -18 30 -19 30 -19 30 -18 30 -18 30 -18 29 -18 29 -18 28 -17 27 -17 26 -16 25 -16 24 -15 23 -15 22 -14 21 -13 19 -12 12 19 -19 12 -21 13 -22 14 -23 15 -24 15 -25 16 -26 16 -27 17 -28 17 -29 18 -29 18 -30 18 -30 18 -30 18 -30 19 -30 19 -30 18 -30 18 -30 18 -30 18 -29 18 -29 17 -28 17 -28 16 -27 16 -26 15 -25 14 -24 14 -23 13 -22 12 -20 11 -19 10 1 -1zm-13 -18l1 0 1 0 -1 1zm-738 214l1 -23 -1 0 44 -1 43 -2 42 -3 40 -4 39 -5 38 -5 36 -6 35 -7 34 -7 32 -8 31 -8 30 -8 28 -8 27 -9 25 -9 24 -9 23 -9 21 -9 20 -9 18 -8 17 -8 15 -8 14 -7 13 -7 11 -6 10 -6 8 -5 7 -4 5 -3 4 -2 2 -1 1 0 13 18 -1 1 -2 2 -4 3 -5 4 -7 4 -8 5 -10 6 -11 6 -13 7 -14 7 -16 8 -17 8 -19 9 -20 9 -22 9 -23 9 -24 9 -26 9 -27 9 -29 9 -30 8 -31 8 -33 8 -34 7 -36 7 -37 6 -38 5 -40 5 -41 4 -42 3 -44 2 -45 1 -1 0zm1 0l0 0 0 0 1 0zm-288 -486l-15 17 18 -7 -7 40 -4 38 -2 35 1 33 3 31 5 28 6 26 8 24 9 22 11 21 12 19 13 17 13 16 14 14 15 13 15 12 15 10 15 9 15 8 15 7 15 6 14 5 14 4 13 3 12 3 11 2 10 2 8 1 7 1 5 0 3 0 1 0 -1 23 -1 0 -3 0 -5 -1 -7 -1 -9 -1 -10 -2 -12 -2 -13 -3 -14 -4 -15 -5 -15 -5 -16 -6 -16 -7 -17 -9 -17 -10 -17 -11 -16 -12 -16 -14 -15 -15 -15 -17 -14 -19 -13 -20 -11 -22 -10 -24 -8 -26 -7 -28 -5 -30 -3 -32 -1 -34 2 -37 4 -39 7 -41 18 -7zm-18 7l4 -19 15 12 -18 7z"/>
   </g>
   <g>
    <path class="fil0" d="M1848 890l-23 1 12 11 -12 1 -11 0 -10 -1 -10 -1 -9 -2 -9 -3 -8 -4 -7 -4 -7 -5 -6 -5 -6 -6 -5 -6 -4 -6 -4 -6 -3 -7 -3 -7 -2 -7 -2 -7 -2 -7 -1 -7 -1 -7 -1 -7 -1 -7 0 -7 0 -6 0 -6 0 -6 0 -6 0 -5 0 -5 0 -4 0 -4 23 3 0 4 0 4 0 4 0 5 0 5 0 5 0 6 0 6 0 6 1 6 1 6 1 6 1 6 1 6 2 6 2 6 2 6 3 5 3 5 3 5 4 4 4 4 5 4 5 3 5 3 6 3 7 2 7 2 8 1 9 1 9 0 10 -1 12 11zm-12 -11l12 -1 1 12 -12 -11zm163 122l-23 0 16 11 -14 5 -13 4 -12 3 -12 2 -11 0 -11 -1 -10 -2 -9 -3 -9 -4 -8 -4 -7 -5 -7 -6 -6 -6 -5 -7 -5 -7 -4 -7 -4 -7 -3 -7 -3 -7 -3 -7 -2 -7 -2 -7 -2 -7 -1 -6 -1 -6 -1 -5 -1 -5 0 -4 0 -3 0 -2 0 -2 0 -1 23 -1 0 0 0 1 0 2 0 3 0 4 1 4 1 5 1 5 1 6 1 6 2 6 2 6 2 6 3 6 3 6 3 6 4 6 4 6 4 5 5 5 5 4 5 4 6 3 6 3 7 2 7 1 8 1 9 0 10 -1 10 -2 11 -4 12 -5 16 11zm-16 -11l16 -7 0 18 -16 -11zm172 132l-23 1 15 10 -15 4 -14 3 -14 2 -13 1 -12 -1 -11 -2 -10 -3 -10 -3 -9 -4 -8 -5 -7 -6 -7 -6 -6 -7 -5 -7 -5 -7 -4 -7 -4 -8 -3 -8 -3 -7 -2 -7 -2 -7 -2 -7 -1 -7 -1 -6 -1 -6 -1 -5 0 -5 0 -4 0 -3 0 -2 0 -2 0 -1 23 0 0 0 0 1 0 2 0 3 0 4 0 4 1 5 1 5 1 6 1 6 1 6 2 6 2 6 2 6 3 6 3 6 3 6 4 6 4 6 5 5 5 5 6 4 6 4 7 3 8 3 8 2 9 1 10 0 11 0 12 -1 13 -3 14 -4 15 10zm-15 -10l14 -4 1 14 -15 -10zm-2 100l-6 -88 23 -1 6 88 -8 12 -14 -10zm23 -1l1 9 -9 2 8 -12zm-213 -110l-5 -22 14 10 2 15 3 14 4 12 5 11 5 10 6 9 6 8 7 7 7 6 7 5 8 5 8 4 8 3 8 3 8 2 8 2 8 1 8 1 8 1 8 0 8 0 7 0 7 -1 6 -1 6 -1 5 -1 5 -1 4 -1 3 -1 2 -1 1 0 0 0 6 22 -1 0 -2 0 -3 1 -4 1 -4 1 -5 1 -6 1 -7 1 -7 1 -8 1 -8 0 -9 0 -9 0 -9 -1 -9 -1 -10 -2 -10 -2 -10 -3 -10 -3 -10 -4 -9 -5 -9 -6 -9 -7 -9 -8 -8 -9 -8 -10 -7 -11 -6 -12 -5 -13 -5 -14 -4 -15 -3 -16 14 10zm-5 -22l12 -3 2 12 -14 -10zm-164 -117l-1 -23 12 11 1 15 2 14 3 13 3 12 4 11 5 10 5 9 5 8 6 7 6 6 6 5 6 5 7 4 7 3 7 3 7 2 7 2 7 2 7 1 7 1 6 1 6 0 6 0 5 0 5 0 4 0 4 0 3 0 3 0 2 0 1 0 0 0 5 22 -1 0 -1 0 -2 0 -3 1 -4 1 -4 1 -5 0 -6 0 -6 0 -7 0 -7 0 -7 -1 -8 -1 -8 -1 -8 -2 -8 -2 -8 -3 -8 -4 -8 -4 -8 -5 -8 -6 -8 -7 -7 -7 -7 -8 -6 -9 -6 -10 -5 -11 -5 -12 -4 -13 -3 -14 -2 -15 -2 -17 12 11zm-1 -23l11 -1 1 11 -12 -11zm-134 -149l23 2 -1 15 0 14 0 12 1 12 2 11 2 10 3 9 3 8 4 7 4 7 5 6 5 5 5 5 5 4 5 4 6 3 6 3 6 3 6 2 6 2 5 2 5 1 5 1 5 1 4 1 4 0 3 0 3 0 2 0 2 0 1 0 0 0 1 23 -1 0 -1 0 -2 0 -3 0 -3 0 -4 0 -5 0 -5 -1 -5 -1 -6 -1 -6 -1 -6 -2 -7 -2 -7 -3 -7 -3 -7 -4 -7 -4 -7 -5 -7 -5 -6 -6 -6 -7 -6 -7 -5 -8 -5 -9 -4 -10 -4 -11 -3 -11 -2 -12 -1 -13 -1 -14 0 -15 1 -16z"/>
   </g>
   <g>
    <path class="fil0" d="M1254 1290l4 22 0 0 -19 3 -18 2 -17 0 -16 -1 -15 -2 -14 -3 -13 -4 -12 -5 -11 -6 -10 -6 -9 -7 -8 -7 -8 -8 -7 -8 -6 -9 -5 -9 -5 -9 -4 -9 -4 -9 -3 -9 -3 -8 -2 -8 -2 -8 -1 -7 -1 -7 -1 -6 -1 -5 0 -5 0 -4 0 -3 0 -2 0 -1 23 0 0 0 0 1 0 2 0 3 0 4 1 5 1 5 1 6 1 6 2 7 2 7 2 7 3 8 3 8 4 8 4 8 5 7 5 7 6 7 6 7 7 6 8 6 8 5 9 5 10 4 11 3 12 3 13 2 14 1 15 0 16 -1 17 -3 0 0zm4 22l0 0 -2 0 2 0zm21 -5l-22 6 0 0 0 0 0 0 0 0 0 0 0 0 0 0 0 0 0 0 0 0 0 0 0 0 0 0 0 0 0 0 0 0 0 0 0 0 0 0 0 0 0 0 0 0 0 0 0 0 0 0 0 0 0 0 0 0 0 0 0 0 0 0 0 0 1 0 -4 -22 1 0 1 0 1 0 1 0 1 0 1 0 1 0 1 0 1 0 1 0 1 0 1 0 1 0 1 0 1 0 1 0 1 1 1 1 1 1 1 1 1 1 1 1 1 1 1 1 1 1 1 1 1 1 1 1 1 1 1 1 0 1 0 1 0 0zm0 0l0 0 -1 -3 1 3zm238 123l-20 10 13 6 -17 5 -16 4 -15 2 -15 2 -14 1 -13 0 -13 -1 -12 -2 -12 -3 -11 -3 -10 -4 -10 -5 -9 -5 -9 -6 -8 -6 -8 -6 -7 -7 -7 -7 -6 -7 -6 -7 -5 -7 -5 -7 -4 -7 -4 -7 -3 -7 -3 -7 -3 -6 -2 -6 -2 -6 -2 -5 -2 -5 -1 -4 22 -6 1 4 1 4 2 5 2 5 2 6 3 6 3 6 3 6 3 6 4 6 4 6 5 6 5 6 5 6 6 6 6 6 7 6 7 5 7 5 8 4 8 4 9 4 9 3 10 2 11 2 11 1 12 0 13 0 13 -1 14 -2 15 -3 15 -4 13 6zm-13 -6l9 -3 4 9 -13 -6zm325 101l-19 13 15 3 -20 11 -19 9 -19 7 -18 5 -18 4 -17 2 -16 1 -16 -1 -15 -2 -15 -3 -14 -4 -13 -5 -13 -6 -12 -6 -11 -7 -11 -7 -10 -8 -9 -8 -9 -8 -8 -8 -7 -8 -7 -8 -6 -8 -5 -7 -5 -7 -4 -6 -4 -6 -3 -5 -2 -4 -2 -3 -1 -2 0 -1 20 -10 0 0 1 2 1 3 2 4 3 4 3 5 4 6 5 6 5 7 6 7 6 7 7 8 7 8 8 8 9 7 9 7 10 7 10 6 11 6 11 5 12 4 12 4 13 3 13 2 14 1 15 -1 15 -2 16 -3 16 -5 17 -6 18 -8 18 -10 15 3zm-15 -3l9 -5 6 9 -15 -3zm346 32l-16 -16 15 17 -21 14 -20 12 -20 10 -19 9 -18 7 -18 6 -17 4 -17 3 -16 2 -15 1 -15 0 -14 -1 -13 -2 -13 -3 -12 -4 -11 -4 -11 -5 -10 -5 -9 -5 -9 -6 -8 -6 -7 -6 -7 -6 -6 -5 -5 -5 -5 -5 -4 -4 -3 -4 -2 -3 -2 -2 -1 -2 -1 -1 19 -13 0 0 1 1 2 2 2 3 3 3 3 4 4 4 5 5 5 5 6 5 7 5 7 5 8 5 8 5 9 5 10 4 10 4 11 3 11 3 12 2 13 1 13 0 14 -1 14 -2 15 -3 16 -4 16 -5 17 -7 18 -8 18 -10 19 -11 20 -13 15 17zm-397 261l-5 -22 0 0 16 -4 16 -5 16 -6 16 -7 17 -8 17 -8 17 -9 17 -9 17 -10 16 -10 16 -11 16 -11 16 -11 15 -11 15 -11 14 -11 14 -11 13 -11 13 -11 12 -10 11 -10 11 -9 10 -9 9 -8 8 -8 7 -7 6 -6 5 -5 4 -4 3 -3 2 -2 1 -1 16 16 -1 1 -2 2 -3 3 -4 4 -5 5 -6 6 -7 7 -8 8 -9 8 -10 9 -11 9 -12 10 -12 10 -13 11 -14 11 -14 11 -15 11 -15 11 -16 11 -16 11 -16 11 -17 11 -17 11 -17 10 -17 10 -17 9 -17 9 -17 8 -17 7 -17 6 -17 5 -17 4 0 0zm-289 -77l20 -11 0 0 2 4 3 4 3 4 3 4 4 4 4 4 5 4 5 4 5 4 6 4 6 4 6 4 7 4 7 4 8 3 8 3 8 3 9 3 9 2 10 2 10 2 10 2 11 1 11 1 12 0 12 0 12 0 13 -1 13 -1 14 -2 14 -3 14 -3 5 22 -15 3 -15 3 -14 2 -14 2 -14 1 -13 1 -13 0 -12 0 -12 -1 -12 -1 -11 -2 -11 -2 -10 -2 -10 -3 -10 -3 -9 -3 -9 -3 -8 -4 -8 -4 -8 -4 -7 -4 -7 -4 -6 -5 -6 -5 -6 -5 -5 -5 -5 -5 -4 -5 -4 -5 -4 -5 -3 -5 -3 -5 0 0zm4 0l-13 -18 0 0 1 -1 1 -1 1 -1 1 -1 1 0 1 0 1 0 1 0 1 0 1 0 1 0 1 0 1 0 1 0 1 0 1 0 1 0 1 0 1 1 1 1 1 0 1 1 1 1 1 1 1 1 1 1 1 1 1 1 0 1 0 1 0 1 0 1 -20 11 0 0 0 0 0 0 0 0 0 0 0 0 0 0 0 0 0 0 0 0 0 0 0 0 0 0 0 0 0 0 0 0 0 0 0 0 0 0 0 0 0 0 0 0 0 0 0 0 0 0 0 0 0 0 0 0 0 0 0 0 0 0 0 0 0 0zm-269 55l-5 -22 3 0 15 1 14 0 14 0 13 0 13 0 12 -1 12 -1 11 -1 11 -1 11 -1 10 -2 10 -2 9 -2 9 -2 8 -2 8 -2 8 -2 7 -2 7 -2 6 -2 6 -2 6 -2 5 -2 5 -2 5 -2 4 -2 4 -2 4 -2 3 -2 3 -2 3 -2 2 -2 13 18 -3 2 -3 2 -3 2 -4 2 -4 2 -4 2 -5 2 -5 3 -5 3 -6 3 -6 3 -6 3 -7 3 -7 3 -8 2 -8 2 -8 2 -9 2 -9 2 -10 2 -10 2 -11 2 -11 2 -11 1 -12 1 -12 1 -13 1 -13 0 -14 0 -14 0 -15 0 -15 -1 3 0zm-5 -22l2 0 2 0 -3 0zm-185 -64l-12 -19 15 3 7 10 8 9 8 8 8 7 8 7 8 6 8 5 8 5 8 4 8 4 8 3 7 3 7 3 7 2 7 2 7 1 7 1 6 1 6 1 6 0 5 0 5 0 5 0 4 0 4 0 3 0 3 0 2 0 2 0 1 0 1 0 0 0 5 22 -1 0 -1 0 -2 0 -2 0 -3 0 -3 0 -4 0 -4 0 -5 0 -5 0 -6 0 -6 0 -6 0 -7 -1 -7 -1 -7 -1 -8 -2 -8 -2 -8 -2 -8 -3 -8 -3 -9 -4 -9 -4 -9 -5 -9 -6 -9 -6 -9 -7 -9 -7 -9 -8 -8 -9 -8 -10 -8 -10 15 3zm-12 -19l9 -5 6 8 -15 -3zm-281 29l6 -22 1 0 15 5 15 5 15 4 14 3 14 3 13 2 13 2 13 1 12 1 12 0 12 0 11 -1 11 -1 10 -1 10 -1 9 -2 9 -2 8 -2 8 -2 7 -2 7 -2 6 -2 6 -2 5 -2 5 -2 4 -2 3 -2 3 -1 2 -1 2 -1 1 -1 0 0 12 19 -1 0 -1 1 -2 1 -3 1 -3 2 -4 2 -4 2 -5 2 -6 2 -6 2 -7 2 -7 2 -8 2 -8 2 -9 2 -9 2 -10 2 -10 2 -11 1 -11 1 -12 1 -12 0 -13 0 -13 -1 -14 -1 -14 -2 -14 -2 -15 -3 -15 -3 -15 -4 -16 -5 -16 -6 1 0zm6 -22l1 0 1 0 -1 0zm-150 -125l-1 -23 12 10 2 10 2 9 3 9 3 8 4 8 4 8 5 7 5 7 5 7 6 6 6 6 6 6 6 5 6 5 6 5 6 4 6 4 6 4 6 3 6 3 6 3 5 2 5 2 5 2 4 2 4 1 3 1 3 1 2 1 2 0 1 0 0 0 -6 22 -1 0 -1 0 -2 -1 -3 -1 -3 -1 -4 -1 -4 -2 -5 -2 -5 -2 -5 -2 -6 -3 -6 -3 -6 -3 -7 -4 -7 -4 -7 -4 -7 -5 -7 -5 -7 -5 -7 -6 -7 -6 -6 -7 -6 -7 -6 -7 -6 -8 -5 -8 -5 -9 -4 -9 -4 -10 -3 -10 -3 -11 -2 -11 12 10zm-1 -23l10 0 2 10 -12 -10zm-281 -206l23 -3 3 20 4 18 5 17 6 16 7 15 8 14 8 13 9 12 10 11 10 10 11 9 11 8 11 7 11 6 12 6 12 5 12 4 11 4 11 3 11 3 10 2 10 2 9 1 9 1 8 1 7 1 6 0 5 0 4 0 3 0 2 0 0 0 1 23 -1 0 -2 0 -3 0 -5 0 -6 0 -7 0 -8 -1 -9 -1 -9 -1 -10 -2 -11 -2 -11 -2 -12 -3 -12 -4 -12 -4 -12 -5 -13 -5 -13 -6 -13 -7 -12 -8 -12 -9 -12 -10 -11 -11 -11 -12 -10 -13 -9 -14 -9 -15 -8 -16 -7 -18 -6 -19 -4 -20 -3 -21z"/>
   </g>
   <g>
    <polygon class="fil0" points="582,1569 581,1546 628,1544 676,1538 725,1529 774,1518 824,1504 875,1487 925,1469 976,1448 1026,1426 1076,1403 1126,1378 1175,1352 1223,1325 1270,1297 1317,1269 1361,1241 1405,1213 1446,1185 1486,1157 1524,1131 1560,1105 1594,1080 1625,1057 1654,1035 1679,1015 1702,996 1722,980 1739,967 1752,956 1761,948 1767,943 1769,941 1784,959 1782,960 1776,965 1766,973 1753,984 1736,998 1716,1014 1693,1032 1667,1053 1639,1075 1607,1098 1574,1123 1538,1149 1499,1176 1459,1204 1417,1232 1374,1260 1328,1288 1282,1317 1234,1344 1186,1371 1136,1398 1086,1423 1036,1447 985,1469 933,1490 882,1509 831,1526 780,1540 729,1552 679,1560 630,1566 "/>
   </g>
   <g>
    <polygon class="fil0" points="1013,1706 1010,1684 1040,1678 1072,1669 1105,1658 1139,1644 1175,1628 1212,1610 1249,1590 1287,1569 1325,1546 1364,1522 1403,1497 1441,1472 1480,1445 1518,1418 1555,1391 1591,1364 1627,1337 1662,1310 1695,1284 1727,1259 1757,1234 1785,1211 1812,1189 1836,1168 1858,1149 1878,1132 1895,1117 1910,1104 1921,1094 1930,1087 1935,1082 1936,1081 1952,1097 1950,1099 1945,1104 1936,1111 1925,1122 1910,1134 1893,1149 1873,1166 1851,1185 1826,1206 1800,1228 1771,1252 1741,1276 1709,1302 1676,1328 1641,1355 1605,1382 1568,1409 1531,1437 1493,1464 1454,1490 1415,1516 1376,1542 1337,1566 1298,1589 1260,1610 1222,1630 1185,1649 1148,1665 1113,1679 1078,1691 1045,1700 "/>
   </g>
   <g>
    <polygon class="fil0" points="1476,1738 1473,1715 1497,1711 1522,1704 1548,1695 1574,1684 1601,1671 1628,1656 1656,1640 1684,1622 1712,1603 1740,1582 1768,1561 1796,1539 1823,1517 1850,1494 1876,1471 1902,1447 1927,1424 1951,1401 1974,1379 1996,1357 2017,1336 2037,1316 2055,1297 2072,1279 2087,1263 2100,1248 2112,1235 2122,1224 2129,1216 2135,1209 2139,1205 2140,1204 2157,1219 2156,1220 2152,1224 2147,1231 2139,1239 2129,1250 2117,1263 2104,1278 2088,1295 2071,1312 2053,1332 2033,1352 2012,1373 1990,1395 1967,1418 1943,1441 1918,1464 1892,1488 1865,1511 1838,1534 1810,1557 1782,1579 1754,1601 1725,1621 1697,1641 1668,1659 1640,1676 1611,1691 1583,1705 1556,1716 1528,1726 1502,1733 "/>
   </g>
   <g>
    <polygon class="fil0" points="2507,2060 2506,2083 2463,2080 2423,2074 2387,2065 2353,2055 2322,2042 2294,2027 2268,2010 2245,1991 2225,1971 2207,1950 2191,1928 2177,1905 2165,1881 2154,1857 2146,1832 2139,1808 2133,1783 2129,1759 2126,1736 2124,1712 2122,1690 2122,1669 2122,1649 2123,1630 2124,1613 2125,1597 2127,1583 2128,1572 2129,1562 2131,1556 2131,1551 2132,1549 2154,1554 2154,1555 2153,1559 2152,1566 2151,1575 2149,1586 2148,1599 2146,1614 2145,1631 2145,1649 2145,1669 2145,1689 2146,1711 2148,1733 2151,1756 2156,1779 2161,1802 2167,1826 2176,1849 2185,1872 2196,1894 2210,1915 2224,1936 2241,1956 2260,1974 2282,1992 2305,2007 2332,2021 2361,2033 2393,2044 2427,2051 2465,2057 "/>
   </g>
   <g>
    <polygon class="fil0" points="2772,2145 2774,2168 2729,2169 2688,2166 2650,2159 2615,2149 2583,2136 2554,2121 2527,2103 2503,2082 2482,2060 2463,2035 2446,2010 2432,1983 2419,1955 2408,1926 2399,1897 2392,1867 2386,1838 2381,1808 2378,1780 2375,1751 2374,1724 2373,1698 2373,1673 2373,1650 2374,1629 2375,1609 2377,1592 2378,1578 2379,1566 2380,1557 2381,1552 2381,1550 2404,1554 2404,1555 2403,1560 2402,1569 2401,1580 2399,1594 2398,1611 2397,1630 2396,1651 2395,1673 2395,1698 2396,1723 2398,1750 2400,1777 2404,1805 2408,1834 2414,1862 2421,1891 2430,1919 2440,1946 2452,1973 2466,1998 2481,2022 2499,2045 2519,2066 2541,2085 2566,2101 2593,2116 2622,2128 2655,2137 2691,2143 2730,2146 "/>
   </g>
   <g>
    <path class="fil0" d="M2752 2160l18 -13 -1 -1 0 0 1 1 1 1 2 2 2 2 3 2 3 3 3 3 4 3 4 3 5 3 5 3 5 4 6 4 6 4 6 4 7 4 7 4 7 3 7 3 8 3 8 3 8 3 8 2 9 2 9 2 9 1 9 1 9 1 9 0 10 0 10 -1 3 23 -11 1 -11 1 -11 0 -10 -1 -10 -1 -10 -2 -10 -2 -9 -2 -9 -3 -9 -3 -9 -3 -8 -3 -8 -4 -8 -4 -7 -4 -7 -4 -7 -4 -6 -4 -6 -4 -6 -4 -5 -4 -5 -4 -5 -3 -4 -3 -4 -3 -3 -3 -3 -2 -2 -2 -2 -2 -1 -1 -1 -1 0 0 -1 -1zm1 1l-1 -1 -1 -1 1 1zm-88 -406l22 6 0 0 0 2 -1 3 -1 4 -1 5 -1 6 -1 7 -1 7 -1 8 -1 9 -1 10 -1 11 0 11 0 12 0 13 0 13 1 14 1 14 2 15 2 15 3 16 4 16 4 16 5 17 6 17 7 17 7 17 8 18 9 18 10 18 11 18 12 18 -18 13 -13 -19 -12 -19 -11 -19 -10 -19 -9 -18 -8 -18 -7 -18 -6 -18 -5 -18 -4 -17 -4 -17 -3 -16 -2 -16 -2 -16 -1 -15 -1 -15 0 -14 0 -13 0 -13 1 -12 1 -11 1 -10 1 -10 1 -9 1 -8 1 -7 1 -6 1 -5 1 -4 1 -3 0 -2 0 -1z"/>
   </g>
   <g>
    <path class="fil0" d="M2977 2223l-11 20 0 0 -9 -5 -8 -6 -8 -7 -7 -7 -7 -8 -6 -8 -6 -9 -5 -9 -5 -9 -5 -10 -4 -10 -4 -10 -4 -10 -3 -10 -3 -10 -3 -10 -3 -10 -2 -9 -2 -9 -2 -9 -2 -8 -1 -8 -1 -7 -1 -7 -1 -6 -1 -6 -1 -5 0 -4 0 -3 0 -2 0 -2 0 -1 23 -2 0 0 0 1 0 2 0 3 0 4 1 5 1 5 1 6 1 7 1 7 1 8 2 8 2 8 2 9 2 9 2 9 3 9 3 9 3 9 3 9 4 9 4 9 4 9 5 8 5 8 5 8 5 7 6 7 6 6 6 6 7 5 7 4 0 0zm229 1l14 18 -6 5 -6 4 -7 4 -7 4 -7 4 -7 3 -7 3 -7 3 -8 2 -8 2 -8 2 -8 1 -8 1 -8 1 -8 0 -8 0 -8 0 -8 0 -8 -1 -9 -1 -9 -1 -9 -2 -9 -2 -9 -2 -9 -3 -9 -3 -9 -3 -9 -3 -8 -4 -8 -4 -8 -4 -8 -5 11 -20 8 4 8 4 8 4 8 3 8 3 8 3 8 3 8 2 8 2 8 2 8 1 8 1 8 1 8 1 8 0 8 0 7 0 7 0 7 -1 7 -1 7 -1 7 -1 7 -2 7 -2 7 -2 6 -3 6 -3 6 -3 6 -3 6 -4 5 -4 5 -4z"/>
   </g>
   <path class="fil1" d="M4877 1175c0,649 -526,1175 -1175,1175 -649,0 -1175,-526 -1175,-1175 0,-649 526,-1175 1175,-1175 649,0 1175,526 1175,1175z"/>
   <g>
    <path class="fil0" d="M3702 2361l0 -23 0 0 60 -2 59 -5 58 -7 57 -10 56 -13 55 -16 54 -18 53 -21 52 -23 50 -26 49 -28 47 -30 46 -32 44 -35 42 -37 40 -39 39 -40 37 -42 35 -44 32 -46 30 -47 28 -49 26 -50 23 -52 21 -53 18 -54 16 -55 13 -56 10 -57 7 -58 5 -59 2 -60 23 0 -2 61 -5 60 -8 59 -10 58 -13 57 -16 56 -19 55 -21 54 -24 53 -26 51 -29 50 -31 48 -33 47 -35 45 -37 43 -39 41 -41 39 -43 37 -45 35 -47 33 -48 31 -50 29 -51 26 -53 24 -54 21 -55 19 -56 16 -57 13 -58 10 -59 8 -60 5 -61 2 0 0zm-1186 -1186l23 0 0 0 2 60 5 59 7 58 10 57 13 56 16 55 18 54 21 53 23 52 26 50 28 49 30 47 32 46 35 44 37 42 39 40 40 39 42 37 44 35 46 32 47 30 49 28 50 26 52 23 53 21 54 18 55 16 56 13 57 10 58 7 59 5 60 2 0 23 -61 -2 -60 -5 -59 -8 -58 -10 -57 -13 -56 -16 -55 -19 -54 -21 -53 -24 -51 -26 -50 -29 -48 -31 -47 -33 -45 -35 -43 -37 -41 -39 -39 -41 -37 -43 -35 -45 -33 -47 -31 -48 -29 -50 -26 -51 -24 -53 -21 -54 -19 -55 -16 -56 -13 -57 -10 -58 -8 -59 -5 -60 -2 -61 0 0zm1186 -1186l0 23 0 0 -60 2 -59 5 -58 7 -57 10 -56 13 -55 16 -54 18 -53 21 -52 23 -50 26 -49 28 -47 30 -46 32 -44 35 -42 37 -40 39 -39 40 -37 42 -35 44 -32 46 -30 47 -28 49 -26 50 -23 52 -21 53 -18 54 -16 55 -13 56 -10 57 -7 58 -5 59 -2 60 -23 0 2 -61 5 -60 8 -59 10 -58 13 -57 16 -56 19 -55 21 -54 24 -53 26 -51 29 -50 31 -48 33 -47 35 -45 37 -43 39 -41 41 -39 43 -37 45 -35 47 -33 48 -31 50 -29 51 -26 53 -24 54 -21 55 -19 56 -16 57 -13 58 -10 59 -8 60 -5 61 -2 0 0zm1186 1186l-23 0 0 0 -2 -60 -5 -59 -7 -58 -10 -57 -13 -56 -16 -55 -18 -54 -21 -53 -23 -52 -26 -50 -28 -49 -30 -47 -32 -46 -35 -44 -37 -42 -39 -40 -40 -39 -42 -37 -44 -35 -46 -32 -47 -30 -49 -28 -50 -26 -52 -23 -53 -21 -54 -18 -55 -16 -56 -13 -57 -10 -58 -7 -59 -5 -60 -2 0 -23 61 2 60 5 59 8 58 10 57 13 56 16 55 19 54 21 53 24 51 26 50 29 48 31 47 33 45 35 43 37 41 39 39 41 37 43 35 45 33 47 31 48 29 50 26 51 24 53 21 54 19 55 16 56 13 57 10 58 8 59 5 60 2 61 0 0z"/>
   </g>
   <g>
    <path class="fil0" d="M3704 2298l0 -23 0 0 57 -1 56 -4 55 -7 55 -10 54 -12 53 -15 51 -17 50 -20 49 -22 48 -24 46 -27 45 -29 43 -31 42 -33 40 -35 38 -37 37 -38 35 -40 33 -42 31 -43 29 -45 27 -46 24 -48 22 -49 20 -50 17 -51 15 -53 12 -54 10 -55 7 -55 4 -56 1 -57 23 0 -1 58 -4 57 -7 57 -10 56 -13 55 -15 54 -18 53 -20 51 -23 50 -25 49 -27 47 -29 46 -32 44 -34 43 -36 41 -37 39 -39 37 -41 36 -43 34 -44 32 -46 29 -47 27 -49 25 -50 23 -51 20 -52 18 -54 15 -55 13 -56 10 -57 7 -57 4 -58 1 0 0zm-1130 -1130l23 0 0 0 1 57 4 56 7 55 10 55 12 54 15 53 17 51 20 50 22 49 24 48 27 46 29 45 31 43 33 42 35 40 37 38 38 37 40 35 42 33 43 31 45 29 46 27 48 24 49 22 50 20 51 17 53 15 54 12 55 10 55 7 56 4 57 1 0 23 -58 -1 -57 -4 -57 -7 -56 -10 -55 -13 -54 -15 -53 -18 -51 -20 -50 -23 -49 -25 -47 -27 -46 -29 -44 -32 -43 -34 -41 -36 -39 -37 -37 -39 -36 -41 -34 -43 -32 -44 -29 -46 -27 -47 -25 -49 -23 -50 -20 -51 -18 -53 -15 -54 -13 -55 -10 -56 -7 -57 -4 -57 -1 -58 0 0zm1130 -1130l0 23 0 0 -57 1 -56 4 -55 7 -55 10 -54 12 -53 15 -51 17 -50 20 -49 22 -48 24 -46 27 -45 29 -43 31 -42 33 -40 35 -38 37 -37 38 -35 40 -33 42 -31 43 -29 45 -27 46 -24 48 -22 49 -20 50 -17 51 -15 53 -12 54 -10 55 -7 55 -4 56 -1 57 -23 0 1 -58 4 -57 7 -57 10 -56 13 -55 15 -54 18 -53 20 -51 23 -50 25 -49 27 -47 29 -46 32 -44 34 -43 36 -41 37 -39 39 -37 41 -36 43 -34 44 -32 46 -29 47 -27 49 -25 50 -23 51 -20 53 -18 54 -15 55 -13 56 -10 57 -7 57 -4 58 -1 0 0zm1130 1130l-23 0 0 0 -1 -57 -4 -56 -7 -55 -10 -55 -12 -54 -15 -53 -17 -51 -20 -50 -22 -49 -24 -48 -27 -46 -29 -45 -31 -43 -33 -42 -35 -40 -37 -38 -38 -37 -40 -35 -42 -33 -43 -31 -45 -29 -46 -27 -48 -24 -49 -22 -50 -20 -51 -17 -53 -15 -54 -12 -55 -10 -55 -7 -56 -4 -57 -1 0 -23 58 1 57 4 57 7 56 10 55 13 54 15 52 18 51 20 50 23 49 25 47 27 46 29 44 32 43 34 41 36 39 37 37 39 36 41 34 43 32 44 29 46 27 47 25 49 23 50 20 51 18 52 15 54 13 55 10 56 7 57 4 57 1 58 0 0z"/>
   </g>
   <g>
    <path class="fil0" d="M2898 1205l23 0 0 0 1 40 3 39 5 39 7 38 9 37 11 37 12 36 14 35 16 34 17 33 19 32 20 31 22 30 23 29 25 28 26 27 27 26 28 24 29 23 31 22 32 20 33 19 34 17 35 15 35 14 36 12 37 10 38 9 38 7 39 5 40 3 40 1 0 23 -41 -1 -41 -3 -40 -5 -40 -7 -39 -9 -38 -11 -37 -13 -36 -14 -36 -16 -35 -18 -34 -19 -33 -21 -31 -22 -30 -24 -29 -25 -28 -26 -27 -28 -25 -29 -24 -30 -22 -31 -21 -32 -19 -33 -18 -34 -16 -35 -14 -36 -13 -37 -11 -38 -9 -38 -7 -39 -5 -40 -3 -40 -1 -41 0 0zm802 -795l0 23 0 0 -40 1 -40 3 -39 5 -38 7 -38 9 -37 10 -36 12 -35 14 -35 15 -34 17 -33 19 -32 20 -31 22 -29 23 -28 24 -27 26 -26 27 -25 28 -23 29 -22 30 -20 31 -19 32 -17 33 -16 34 -14 35 -12 36 -11 37 -9 37 -7 38 -5 39 -3 39 -1 40 -23 0 1 -41 3 -40 5 -40 7 -39 9 -38 11 -38 13 -37 14 -36 16 -35 18 -34 19 -33 21 -32 22 -31 24 -30 25 -29 27 -28 28 -26 29 -25 30 -24 31 -22 33 -21 34 -19 35 -18 36 -16 36 -14 37 -13 38 -11 39 -9 40 -7 40 -5 41 -3 41 -1 0 0zm435 127l-12 19 -11 -7 -12 -7 -12 -7 -12 -7 -12 -6 -12 -6 -12 -6 -12 -6 -13 -6 -13 -5 -13 -5 -13 -5 -13 -5 -13 -5 -13 -4 -13 -4 -13 -4 -13 -4 -14 -3 -14 -3 -14 -3 -14 -3 -14 -2 -14 -2 -14 -2 -14 -2 -14 -1 -14 -1 -14 -1 -14 -1 -15 0 -15 0 0 -23 15 0 15 0 15 1 15 1 15 1 15 1 15 2 14 2 14 2 14 2 14 3 14 3 14 3 14 3 14 4 14 4 14 4 14 4 13 5 13 5 13 5 13 5 13 6 13 6 13 6 13 6 12 6 12 7 12 7 12 7 12 7 12 7z"/>
   </g>
   <g>
    <path class="fil0" d="M2938 1203l23 0 0 0 1 37 3 37 5 36 7 36 8 35 10 34 12 34 13 33 15 32 16 31 18 30 19 29 21 28 22 27 23 26 25 25 26 24 27 23 28 21 29 20 30 19 31 17 32 16 33 15 34 13 35 11 35 10 36 8 37 6 37 5 38 3 38 1 0 23 -39 -1 -39 -3 -38 -5 -38 -7 -37 -8 -36 -10 -36 -12 -35 -13 -34 -15 -33 -16 -32 -18 -31 -19 -30 -21 -29 -22 -28 -23 -27 -25 -25 -26 -24 -27 -23 -28 -21 -29 -20 -30 -18 -31 -17 -32 -15 -33 -14 -34 -12 -35 -10 -35 -9 -36 -7 -37 -5 -37 -3 -38 -1 -38 0 0zm768 -746l0 23 0 0 -38 1 -38 3 -37 5 -37 6 -36 8 -35 10 -35 11 -34 13 -33 14 -32 16 -31 17 -30 19 -29 20 -28 21 -27 23 -26 24 -25 25 -23 26 -22 27 -21 28 -19 29 -18 30 -16 31 -15 32 -13 33 -12 34 -10 34 -8 35 -7 36 -5 36 -3 37 -1 37 -23 0 1 -38 3 -38 5 -37 7 -37 9 -36 10 -35 12 -35 14 -34 15 -33 17 -32 18 -31 20 -30 21 -29 23 -28 24 -27 25 -26 27 -25 28 -23 29 -22 30 -21 31 -19 32 -18 33 -16 34 -15 35 -13 36 -12 36 -10 37 -8 38 -7 38 -5 39 -3 39 -1 0 0zm487 169l-14 18 -12 -10 -12 -9 -13 -9 -13 -9 -13 -9 -13 -8 -13 -8 -14 -8 -14 -7 -14 -7 -14 -7 -14 -7 -14 -6 -15 -6 -15 -6 -15 -5 -15 -5 -15 -5 -15 -5 -15 -4 -16 -4 -16 -4 -16 -3 -16 -3 -16 -3 -16 -2 -16 -2 -16 -2 -17 -1 -17 -1 -17 -1 -17 0 0 -23 17 0 17 1 17 1 17 1 17 2 17 2 17 2 17 3 16 3 16 3 16 4 16 4 16 4 16 5 16 5 15 5 15 6 15 6 15 6 15 7 15 7 14 7 14 7 14 8 14 8 14 8 14 9 13 9 13 9 13 9 13 10 13 10z"/>
   </g>
   <g>
    <path class="fil0" d="M3698 1904l0 -23 0 0 36 -1 35 -3 35 -4 34 -6 33 -8 33 -9 32 -11 31 -12 31 -14 30 -15 29 -16 28 -18 27 -19 26 -20 25 -21 24 -22 23 -24 22 -25 20 -26 19 -27 18 -28 17 -28 15 -29 14 -30 12 -31 11 -32 9 -32 8 -33 6 -33 4 -34 3 -34 1 -35 23 0 -1 36 -3 36 -5 35 -6 35 -8 34 -10 33 -11 33 -13 32 -14 31 -16 30 -17 29 -19 28 -20 28 -21 27 -22 25 -24 24 -25 23 -26 22 -27 21 -28 20 -29 18 -30 17 -31 15 -32 14 -32 13 -33 11 -34 9 -34 8 -35 6 -36 4 -36 3 -37 1 0 0zm-712 -701l23 0 0 0 1 35 3 34 4 34 6 33 8 33 9 32 11 32 12 31 14 30 15 29 17 28 18 28 19 27 20 26 22 25 23 24 24 22 25 21 26 20 27 19 28 18 29 16 30 15 31 14 31 12 32 11 33 9 33 8 34 6 35 4 35 3 36 1 0 23 -37 -1 -36 -3 -36 -4 -35 -6 -34 -8 -34 -9 -33 -11 -32 -13 -32 -14 -31 -15 -30 -17 -29 -18 -28 -20 -27 -21 -26 -22 -25 -23 -24 -24 -22 -25 -21 -26 -20 -28 -19 -28 -17 -29 -16 -30 -14 -31 -13 -32 -11 -33 -10 -33 -8 -34 -6 -35 -5 -35 -3 -36 -1 -36 0 0zm712 -702l0 23 0 0 -36 1 -35 3 -35 4 -34 6 -33 8 -33 9 -32 11 -31 12 -31 14 -30 15 -29 16 -28 18 -27 19 -26 20 -25 21 -24 22 -23 24 -22 25 -20 26 -19 27 -18 28 -17 28 -15 29 -14 30 -12 31 -11 32 -9 32 -8 33 -6 33 -4 34 -3 34 -1 35 -23 0 1 -36 3 -36 5 -35 6 -35 8 -34 10 -33 11 -33 13 -32 14 -31 16 -30 17 -29 19 -28 20 -28 21 -26 22 -25 24 -24 25 -23 26 -22 27 -21 28 -20 29 -18 30 -17 31 -15 32 -14 32 -13 33 -11 34 -9 34 -8 35 -6 36 -4 36 -3 37 -1 0 0zm712 701l-23 0 0 0 -1 -35 -3 -34 -4 -34 -6 -33 -8 -33 -9 -32 -11 -32 -12 -31 -14 -30 -15 -29 -17 -28 -18 -28 -19 -27 -20 -26 -22 -25 -23 -24 -24 -22 -25 -21 -26 -20 -27 -19 -28 -18 -29 -16 -30 -15 -31 -14 -31 -12 -32 -11 -33 -9 -33 -8 -34 -6 -35 -4 -35 -3 -36 -1 0 -23 37 1 36 3 36 4 35 6 34 8 34 9 33 11 32 13 32 14 31 15 30 17 29 18 28 20 27 21 26 22 25 23 24 24 22 25 21 26 20 28 19 28 17 29 16 30 14 31 13 32 11 33 10 33 8 34 6 35 5 35 3 36 1 36 0 0z"/>
   </g>
   <g>
    <path class="fil0" d="M3698 1858l0 -23 0 0 33 -1 32 -2 32 -4 31 -6 31 -7 30 -9 30 -10 29 -11 28 -13 28 -14 27 -15 26 -17 25 -18 24 -19 23 -20 22 -21 21 -22 20 -23 19 -24 18 -25 17 -26 15 -27 14 -27 13 -28 11 -29 10 -30 9 -30 7 -31 6 -31 4 -32 2 -32 1 -33 23 0 -1 34 -3 33 -4 33 -6 32 -7 32 -9 31 -10 31 -12 30 -13 29 -15 28 -16 28 -17 27 -18 26 -20 25 -21 24 -22 23 -23 22 -24 21 -25 20 -26 18 -27 17 -28 16 -28 15 -29 13 -30 12 -31 10 -31 9 -32 7 -33 6 -33 4 -34 3 -34 1 0 0zm-661 -658l23 0 0 0 1 33 2 32 4 32 6 31 7 31 9 30 10 30 11 29 13 28 14 27 15 27 17 26 18 25 19 24 20 23 21 22 22 21 23 20 24 19 25 18 26 17 27 15 28 14 28 13 29 11 30 10 30 9 31 7 31 6 32 4 32 2 33 1 0 23 -34 -1 -34 -3 -33 -4 -33 -6 -32 -7 -31 -9 -31 -10 -30 -12 -29 -13 -28 -15 -28 -16 -27 -17 -26 -18 -25 -20 -24 -21 -23 -22 -22 -23 -21 -24 -20 -25 -18 -26 -17 -27 -16 -28 -15 -28 -13 -29 -12 -30 -10 -31 -9 -31 -7 -32 -6 -32 -4 -33 -3 -33 -1 -34 0 0zm661 -658l0 23 0 0 -33 1 -32 2 -32 4 -31 6 -31 7 -30 9 -30 10 -29 11 -28 13 -28 14 -27 15 -26 17 -25 18 -24 19 -23 20 -22 21 -21 22 -20 23 -19 24 -18 25 -17 26 -15 27 -14 27 -13 28 -11 29 -10 30 -9 30 -7 31 -6 31 -4 32 -2 32 -1 33 -23 0 1 -34 3 -33 4 -33 6 -32 7 -32 9 -31 10 -31 12 -30 13 -29 15 -28 16 -28 17 -27 18 -26 20 -25 21 -24 22 -23 23 -22 24 -21 25 -20 26 -18 27 -17 28 -16 28 -15 29 -13 30 -12 31 -10 31 -9 32 -7 33 -6 33 -4 34 -3 34 -1 0 0zm661 658l-23 0 0 0 -1 -33 -2 -32 -4 -32 -6 -31 -7 -31 -9 -30 -10 -30 -11 -29 -13 -28 -14 -27 -15 -27 -17 -26 -18 -25 -19 -24 -20 -23 -21 -22 -22 -21 -23 -20 -24 -19 -25 -18 -26 -17 -27 -15 -28 -14 -28 -13 -29 -11 -30 -10 -30 -9 -31 -7 -31 -6 -32 -4 -32 -2 -33 -1 0 -23 34 1 34 3 33 4 33 6 32 7 31 9 31 10 30 12 29 13 28 15 28 16 27 17 26 18 25 20 24 21 23 22 22 23 21 24 20 25 18 26 17 27 16 28 15 28 13 29 12 30 10 31 9 31 7 32 6 32 4 33 3 33 1 34 0 0z"/>
   </g>
   <g>
    <polygon class="fil1" points="4052,2216 3356,2216 3356,131 4052,131 "/>
    <path id="1" class="fil0" d="M3356 2205l696 0 0 23 -696 0 -11 -11 11 -11zm0 23l-11 0 0 -11 11 11zm11 -2097l0 2085 -23 0 0 -2085 11 -11 11 11zm-23 0l0 -11 11 0 -11 11zm708 11l-696 0 0 -23 696 0 11 11 -11 11zm0 -23l11 0 0 11 -11 -11zm-11 2097l0 -2085 23 0 0 2085 -11 11 -11 -11zm23 0l0 11 -11 0 11 -11z"/>
   </g>
   <polygon class="fil2" points="3988,2144 3428,2144 3428,206 3988,206 "/>
   <g>
    <polygon class="fil1" points="5248,1546 2141,1546 2141,846 5248,846 "/>
    <path id="1" class="fil0" d="M2141 1535l3107 0 0 23 -3107 0 -11 -11 11 -11zm0 23l-11 0 0 -11 11 11zm11 -712l0 700 -23 0 0 -700 11 -11 11 11zm-23 0l0 -11 11 0 -11 11zm3119 11l-3107 0 0 -23 3107 0 11 11 -11 11zm0 -23l11 0 0 11 -11 -11zm-11 712l0 -700 23 0 0 700 -11 11 -11 -11zm23 0l0 11 -11 0 11 -11z"/>
   </g>
   <polygon class="fil2" points="5173,1478 2213,1478 2213,914 5173,914 "/>
   <polygon class="fil1" points="2353,1009 2353,1389 2424,1388 2425,1114 2500,1388 2572,1388 2647,1113 2648,1388 2719,1388 2719,1008 2605,1008 2536,1255 2464,1009 "/>
   <path class="fil1" d="M3035 1000c0,0 -185,-3 -185,199 0,202 185,197 185,197 0,0 185,13 185,-197 0,-210 -185,-199 -185,-199zm0 328c0,0 -103,8 -103,-129 0,-137 103,-133 103,-133 0,0 104,-9 104,134 0,143 -104,129 -104,129z"/>
   <path class="fil1" d="M3571 1224c0,0 98,-21 89,-110 0,0 12,-95 -100,-105l-210 0 0 380 78 0 0 -160 43 0c0,0 21,6 35,24 14,18 94,136 94,136l92 1c0,0 -64,-130 -122,-164zm-39 -58l-103 0 0 -95c0,0 54,0 103,1 50,0 50,46 50,46 1,50 -50,48 -50,48z"/>
   <path class="fil1" d="M3979 1182l168 0 0 148c0,0 -35,61 -168,60 -133,0 -186,-87 -188,-192 -1,-105 61,-198 188,-203 127,-4 159,91 164,110 5,19 -74,19 -74,19 0,0 -27,-60 -90,-60 0,0 -108,0 -108,130 0,130 102,132 107,132 0,0 66,-1 89,-38l0 -41 -88 0 0 -66z"/>
   <path class="fil1" d="M4479 1008l-82 0 -153 380 84 0 36 -87 147 0 36 87 84 0 -153 -380zm-92 229l50 -139 51 139 -100 -1z"/>
   <polygon class="fil1" points="4740,1008 4740,1388 4815,1388 4815,1148 4967,1388 5042,1388 5042,1009 4973,1009 4973,1248 4819,1008 "/>
   <polygon class="fil2" points="564,2763 561,2763 568,2993 512,2993 512,2737 600,2737 650,2939 700,2737 789,2737 789,2993 732,2993 739,2763 737,2763 678,2993 622,2993 "/>
   <path class="fil2" d="M1023 2946c-38,0 -62,-29 -62,-80 0,-51 24,-81 62,-81 39,0 62,29 62,81 0,51 -24,80 -62,80zm125 -80c0,-44 -14,-80 -41,-105 -22,-20 -50,-30 -83,-30 -33,0 -61,10 -83,30 -27,25 -41,60 -41,105 0,82 50,134 125,134 75,0 125,-52 125,-134z"/>
   <path class="fil2" d="M1318 2784l44 0c33,0 48,7 48,36 0,27 -16,35 -48,35l-44 0 0 -71zm-61 209l61 0 0 -91 41 0 50 91 69 0 -58 -103c35,-12 52,-37 52,-73 0,-55 -35,-80 -106,-80l-108 0 0 257z"/>
   <path class="fil2" d="M1991 2906l32 -102 32 102 -64 0zm-28 88l14 -40 93 0 13 40 66 0 -93 -257 -65 0 -93 257 66 0z"/>
   <polygon class="fil2" points="2238,2737 2302,2737 2400,2915 2395,2737 2453,2737 2453,2993 2389,2993 2291,2818 2296,2993 2238,2993 "/>
   <polygon class="fil2" points="2814,2763 2811,2763 2818,2993 2761,2993 2761,2737 2850,2737 2900,2939 2950,2737 3039,2737 3039,2993 2982,2993 2989,2763 2987,2763 2928,2993 2872,2993 "/>
   <path class="fil2" d="M3273 2946c-38,0 -62,-29 -62,-80 0,-51 24,-81 62,-81 39,0 62,29 62,81 0,51 -24,80 -62,80zm125 -80c0,-44 -14,-80 -41,-105 -22,-20 -50,-30 -83,-30 -33,0 -61,10 -83,30 -27,25 -41,60 -41,105 0,82 50,134 125,134 75,0 125,-52 125,-134z"/>
   <polygon class="fil2" points="3555,2787 3489,2787 3489,2737 3682,2737 3682,2787 3616,2787 3616,2993 3555,2993 "/>
   <path class="fil2" d="M3898 2946c-38,0 -62,-29 -62,-80 0,-51 24,-81 62,-81 39,0 62,29 62,81 0,51 -24,80 -62,80zm125 -80c0,-44 -14,-80 -41,-105 -22,-20 -50,-30 -83,-30 -33,0 -61,10 -83,30 -27,25 -41,60 -41,105 0,82 50,134 125,134 75,0 125,-52 125,-134z"/>
   <path class="fil2" d="M4192 2784l44 0c33,0 48,7 48,36 0,27 -16,35 -48,35l-44 0 0 -71zm-61 209l61 0 0 -91 41 0 50 91 69 0 -58 -103c35,-12 52,-37 52,-73 0,-55 -35,-80 -106,-80l-108 0 0 257z"/>
   <path class="fil2" d="M4750 3000c-73,0 -121,-52 -121,-134 0,-81 51,-134 124,-134 47,0 82,23 101,65l-48 25c-11,-25 -30,-37 -54,-37 -37,0 -61,30 -61,82 0,52 23,81 62,81 25,0 43,-12 55,-36l48 24c-24,44 -59,65 -106,65z"/>
   <path class="fil2" d="M5069 2946c-38,0 -62,-29 -62,-80 0,-51 24,-81 62,-81 39,0 62,29 62,81 0,51 -24,80 -62,80zm125 -80c0,-44 -14,-80 -41,-105 -22,-20 -50,-30 -83,-30 -33,0 -61,10 -83,30 -27,25 -41,60 -41,105 0,82 50,134 125,134 75,0 125,-52 125,-134z"/>
   <polygon class="fil2" points="5355,2763 5352,2763 5359,2993 5303,2993 5303,2737 5391,2737 5441,2939 5491,2737 5580,2737 5580,2993 5523,2993 5530,2763 5528,2763 5469,2993 5413,2993 "/>
   <path class="fil2" d="M5764 2784l40 0c37,0 53,9 53,40 0,31 -17,40 -53,40l-40 0 0 -79zm-61 209l61 0 0 -83 47 0c73,0 109,-30 109,-89 0,-60 -35,-85 -110,-85l-108 0 0 257z"/>
   <path class="fil2" d="M6066 2906l32 -102 32 102 -64 0zm-28 88l14 -40 93 0 13 40 66 0 -93 -257 -65 0 -93 257 66 0z"/>
   <polygon class="fil2" points="6313,2737 6377,2737 6475,2915 6470,2737 6528,2737 6528,2993 6464,2993 6366,2818 6371,2993 6313,2993 "/>
   <polygon class="fil2" points="6862,2737 6764,2874 6764,2993 6704,2993 6704,2874 6606,2737 6679,2737 6733,2825 6788,2737 "/>
   <path class="fil2" d="M1807 2850l0 0 0 0 -109 0 0 50 56 0c0,5 -2,10 -3,14 -4,11 -12,20 -23,26 -8,4 -19,7 -30,7 -41,0 -65,-29 -65,-81 0,-52 25,-81 67,-81 27,0 45,11 59,35l49 -27c-22,-40 -61,-62 -110,-62 -77,0 -126,52 -126,138 0,81 45,130 112,130 0,0 0,0 0,0 34,1 59,-6 77,-17 33,-21 44,-57 48,-86 3,-26 0,-46 0,-46z"/>
  </g>
 </g>
</svg>
