

<!-- Creator: CorelDRAW X6 -->
<svg xmlns="http://www.w3.org/2000/svg" x="0" y="0" xml:space="preserve" width="31mm" height="25mm" version="1.1" shape-rendering="geometricPrecision" text-rendering="geometricPrecision" image-rendering="optimizeQuality" fill-rule="evenodd" clip-rule="evenodd"
viewBox="0 0 3100 2500"
 xmlns:xlink="http://www.w3.org/1999/xlink"
 enable-background="new 0 0 912.7 290.1">
 <g id="Layer_x0020_1">
  <metadata id="CorelCorpID_0Corel-Layer"/>
 </g>
 <g id="Layer_x0020_1_0">
  <metadata id="CorelCorpID_1Corel-Layer"/>
 </g>
 <g id="Layer_x0020_1_0_1">
  <metadata id="CorelCorpID_2Corel-Layer"/>
 </g>
 <g id="Layer_x0020_1_0_2">
  <metadata id="CorelCorpID_3Corel-Layer"/>
 </g>
 <g id="Layer_x0020_1_3">
  <metadata id="CorelCorpID_4Corel-Layer"/>
 </g>
 <g id="Layer_x0020_1_0_4">
  <metadata id="CorelCorpID_5Corel-Layer"/>
 </g>
 <g id="Layer_x0020_1_0_5">
  <metadata id="CorelCorpID_6Corel-Layer"/>
 </g>
 <g id="Layer_x0020_1_0_6">
  <metadata id="CorelCorpID_7Corel-Layer"/>
 </g>
 <g id="Layer_x0020_1_0_7">
  <metadata id="CorelCorpID_8Corel-Layer"/>
 </g>
 <g id="Layer_x0020_1_0_2_8">
  <metadata id="CorelCorpID_9Corel-Layer"/>
 </g>
 <g id="Layer_x0020_1_0_2_8_9">
  <metadata id="CorelCorpID_10Corel-Layer"/>
 </g>
 <g id="Layer_x0020_1_0_10">
  <metadata id="CorelCorpID_11Corel-Layer"/>
 </g>
 <g id="Layer_x0020_1_1">
  <metadata id="CorelCorpID_12Corel-Layer"/>
 </g>
 <g id="Layer_x0020_1_11">
  <metadata id="CorelCorpID_13Corel-Layer"/>
 </g>
 <g id="Layer_x0020_1_12">
  <metadata id="CorelCorpID_14Corel-Layer"/>
  <path fill="#FEFEFE" d="M1553 0l-1 0 -6 0 -8 0 -1 0 -8 0c-299,1 -592,13 -889,52 -112,15 -229,36 -330,86 -96,43 -158,114 -199,187 -69,121 -87,268 -95,406 -4,64 -6,129 -6,193 0,142 8,283 17,425 13,203 36,408 85,604 23,92 54,183 108,263 51,76 125,129 207,167 175,80 377,87 566,98 185,12 372,18 558,19 187,-1 373,-8 558,-19 189,-12 391,-18 566,-98 83,-38 156,-91 207,-167 53,-78 84,-171 108,-263 49,-198 73,-402 85,-604 8,-138 16,-277 17,-415l0 -19c0,-61 -2,-123 -6,-183l0 0 3 -1c-11,-178 -37,-373 -169,-504 -120,-120 -294,-154 -456,-175 -304,-41 -603,-52 -910,-52zm-1178 2117c-85,-129 -100,-314 -120,-460 -33,-238 -44,-483 -41,-723 3,-188 -12,-428 108,-587 63,-84 168,-113 264,-140 51,3 31,82 33,113 3,191 13,382 22,573 28,454 61,908 120,1358 4,36 -13,51 -41,53 -17,-1 -44,-6 -75,-13 -92,-30 -208,-103 -232,-129l0 0 0 0c-12,-13 -25,-29 -37,-46zm1597 225c-19,3 -83,3 -153,5 -88,3 -178,3 -266,3 -88,0 -177,0 -266,-3 -70,-2 -133,-2 -153,-5 -19,-3 -38,-4 -33,-26 6,-21 91,-295 91,-295 56,-183 60,-194 203,-223 48,-9 102,-15 157,-16 55,0 109,7 157,16 143,28 148,40 203,223 0,0 85,274 91,295 6,21 -13,23 -33,26l0 0zm250 -2138c-66,238 -141,554 -208,793 -54,192 -116,438 -349,463 -35,3 -72,7 -109,8 -38,-1 -74,-3 -109,-8 -234,-24 -296,-271 -349,-463 -68,-239 -143,-555 -208,-793 -12,-41 6,-32 90,-43 153,-21 379,-23 578,-22 198,-2 425,2 578,22 85,12 102,2 90,43l0 0 -2 0zm631 1453c-23,164 -38,379 -157,507 -42,45 -363,233 -348,88 59,-452 92,-904 120,-1358 8,-191 19,-382 22,-573 3,-33 -18,-112 33,-113 96,28 201,56 264,140 119,159 106,398 108,587 3,241 -8,485 -41,723l0 0 -1 -1z"/>
 </g>
</svg>
