

<!-- Creator: CorelDRAW X6 -->
<svg xmlns="http://www.w3.org/2000/svg" x="0" y="0" xml:space="preserve" width="26mm" height="25mm" version="1.1" shape-rendering="geometricPrecision" text-rendering="geometricPrecision" image-rendering="optimizeQuality" fill-rule="evenodd" clip-rule="evenodd"
viewBox="0 0 2600 2500"
 xmlns:xlink="http://www.w3.org/1999/xlink"
 enable-background="new 0 0 912.7 290.1">
 <g id="Layer_x0020_1">
  <metadata id="CorelCorpID_0Corel-Layer"/>
 </g>
 <g id="Layer_x0020_1_0">
  <metadata id="CorelCorpID_1Corel-Layer"/>
 </g>
 <g id="Layer_x0020_1_0_1">
  <metadata id="CorelCorpID_2Corel-Layer"/>
 </g>
 <g id="Layer_x0020_1_0_2">
  <metadata id="CorelCorpID_3Corel-Layer"/>
 </g>
 <g id="Layer_x0020_1_3">
  <metadata id="CorelCorpID_4Corel-Layer"/>
 </g>
 <g id="Layer_x0020_1_0_4">
  <metadata id="CorelCorpID_5Corel-Layer"/>
 </g>
 <g id="Layer_x0020_1_0_5">
  <metadata id="CorelCorpID_6Corel-Layer"/>
 </g>
 <g id="Layer_x0020_1_0_6">
  <metadata id="CorelCorpID_7Corel-Layer"/>
 </g>
 <g id="Layer_x0020_1_0_7">
  <metadata id="CorelCorpID_8Corel-Layer"/>
 </g>
 <g id="Layer_x0020_1_0_2_8">
  <metadata id="CorelCorpID_9Corel-Layer"/>
 </g>
 <g id="Layer_x0020_1_0_2_8_9">
  <metadata id="CorelCorpID_10Corel-Layer"/>
 </g>
 <g id="Layer_x0020_1_0_10">
  <metadata id="CorelCorpID_11Corel-Layer"/>
 </g>
 <g id="Layer_x0020_1_1">
  <metadata id="CorelCorpID_12Corel-Layer"/>
 </g>
 <g id="Layer_x0020_1_11">
  <metadata id="CorelCorpID_13Corel-Layer"/>
 </g>
 <g id="Layer_x0020_1_12">
  <metadata id="CorelCorpID_14Corel-Layer"/>
  <polygon fill="#103793" points="2604,2500 2604,0 -4,0 -4,2500 "/>
  <path fill="#FBFFFF" d="M2076 2080c0,98 -58,159 -153,162 -93,3 -153,-53 -154,-145 -3,-93 59,-156 152,-158 93,-3 156,55 156,142l0 0 0 -1zm-232 18c2,70 31,109 80,109 64,0 78,-74 76,-116 -2,-68 -26,-117 -78,-117 -52,0 -80,47 -78,123l0 0 0 1z"/>
  <path fill="#FBFFFF" d="M1438 1991l11 -34c-30,-14 -68,-18 -101,-18 -136,0 -180,91 -180,153 0,80 53,151 166,151 78,0 123,-27 123,-27l0 -123 -75 0 0 106c0,0 -1,1 -3,2 -9,4 -28,7 -48,4 -50,-7 -83,-52 -83,-113 0,-72 63,-110 106,-113 43,-2 70,8 84,11l0 1z"/>
  <polygon fill="#FBFFFF" points="2346,1988 2252,1988 2252,2228 2176,2228 2176,1988 2084,1988 2084,1948 2346,1948 "/>
  <path fill="#FBFFFF" d="M275 1948l148 0c57,0 69,2 90,11 26,11 45,43 45,71 0,81 -58,96 -128,96l-75 0 0 103 -80 0 0 -280 -1 -1zm80 145l57 0c39,0 66,-24 66,-55 0,-31 -28,-55 -62,-55l-61 0 0 110z"/>
  <path fill="#FBFFFF" d="M993 2241l1 0c51,0 81,-13 108,-41 16,-16 26,-36 26,-82l0 -171 -74 0c0,0 0,148 0,192 0,38 -25,63 -59,63l0 0c-35,0 -61,-23 -61,-66 0,-43 0,-188 0,-188l-74 0 0 169c0,48 12,69 28,85 27,27 57,38 108,38l0 0 -1 1z"/>
  <polygon fill="#FBFFFF" points="668,2183 807,2183 807,2228 592,2228 592,1948 807,1948 807,1988 668,1988 668,2058 780,2058 780,2093 668,2093 "/>
  <polygon fill="#FBFFFF" points="1598,2184 1737,2184 1737,2228 1522,2228 1522,1948 1737,1948 1737,1989 1598,1989 1598,2059 1710,2059 1710,2093 1598,2093 "/>
  <path fill="#B2B3B3" d="M1483 1403c48,33 69,48 116,73 39,-17 84,-1 78,33 -5,23 -8,70 -33,68 -28,-3 -58,-16 -94,7 -25,14 -58,81 -81,86 16,23 28,40 28,40 62,0 108,33 133,49 101,-45 141,-26 241,-7 13,3 19,-18 15,-34 -7,-28 -23,-68 -24,-85l0 -233c-15,-18 -35,-52 -35,-52 -43,12 -63,9 -70,-17 -8,-28 -29,-85 -45,-121 0,0 91,-11 145,-80 20,-26 43,-68 42,-120 -1,-115 -88,-284 -110,-342 -13,-35 -51,-128 -14,-166 14,-15 44,-23 66,23 10,23 15,13 13,17 -27,43 -43,66 -31,105 16,55 83,107 104,121 0,0 36,25 43,19 18,-13 -25,-87 -24,-101 1,-13 2,-26 6,-40 5,-16 12,-39 16,-63 13,-77 -47,-183 -117,-193 -18,-3 -78,21 -131,103 -10,16 -24,55 -23,86 -26,-64 -57,-137 -91,-191 -11,-26 -69,-97 -87,-101 -48,-13 -91,-5 -136,-13 -18,2 -153,33 -157,39 0,0 -33,53 -33,53 -33,8 -76,23 -81,30 -15,19 -29,27 -24,34 7,22 20,26 20,26l73 0c19,-33 78,-28 112,1 12,11 0,2 6,18 -20,8 -52,19 -74,13 -31,-5 -94,-9 -111,-3l13 22c19,8 59,13 74,13 24,1 60,3 92,1 -16,23 -25,55 -47,55l-85 0c1,6 -18,4 -16,10 0,0 13,16 19,26l51 3c23,2 22,24 13,38 -14,22 -54,63 -88,67 -86,-78 -150,-136 -234,-206 -14,-12 -30,-18 -53,-22 -23,-4 -63,-8 -98,-8 -15,0 -92,-8 -97,-3l14 23c2,12 -1,18 -3,41 -1,9 -4,25 -4,25 0,0 11,16 20,30 38,-15 68,14 68,14l-28 21 27 38c45,18 76,19 141,6l125 160 -228 13c-32,1 -56,27 -63,49 -8,22 -50,30 -52,48l27 41 16 -5c9,12 24,35 48,47 8,-16 30,-35 56,-29 7,9 23,35 23,35 39,7 86,-25 94,-65l189 -3 104 128c-73,103 -148,224 -219,343 31,30 20,90 -31,96 -35,4 -73,-30 -120,-19 -47,11 -102,43 -130,86 5,8 27,39 27,39 40,10 88,34 122,80 58,-40 190,-3 239,13 13,6 24,-5 23,-25 -1,-23 -23,-54 -11,-90 21,-65 177,-199 262,-284 0,0 60,46 90,67l0 0 -1 3zm295 -569c27,71 37,102 45,150 7,38 3,73 -11,94 -17,23 -61,61 -148,39l0 0c-28,-42 -81,-121 -105,-161 18,-67 25,-83 39,-147l34 18c16,-48 55,-165 63,-207 0,0 13,23 21,51 19,61 43,110 63,163l0 0zm-462 -477c-17,8 -47,19 -72,28 -6,-14 -6,-26 -3,-43 21,-3 52,-8 71,-8 13,0 16,17 4,23l0 0z"/>
  <path fill="#FEFEFE" d="M1906 648c1,-13 5,-26 9,-40 5,-16 13,-39 16,-63 8,-77 -34,-147 -104,-157 -19,-3 -93,-15 -146,67 -10,16 -24,56 -23,86 -26,-64 -58,-138 -92,-191 -8,-11 -46,-58 -57,-62 -48,-13 -105,-28 -151,-35 -19,2 -159,54 -163,61 0,0 -16,18 -16,18 -33,8 -102,20 -107,27 -15,19 -4,37 0,44 2,3 13,43 33,43l53 0c26,-46 102,-48 123,13 -20,8 -36,18 -75,13 -48,-7 -95,10 -94,17 0,11 56,14 70,15 24,1 61,3 93,1 -16,23 -48,33 -68,33l-85 0c4,19 12,37 22,51l35 0c23,2 16,11 11,26 -9,27 -25,68 -51,92 -86,-79 -202,-178 -283,-240 -24,-18 -122,-31 -171,-12 -14,6 -23,18 -28,28l24 8c-45,28 -17,81 -17,81 22,-5 56,-17 92,39l-30 25c15,12 107,23 133,6 0,0 108,153 120,158 7,3 -44,7 -101,11 -48,1 -94,2 -129,3 -32,1 -55,26 -63,48 -8,22 -17,68 -13,88l18 -6c23,39 23,48 53,59 17,-43 77,-38 77,-38l-1 39c85,-1 93,-65 93,-65l166 -3 105 133c-86,94 -146,210 -211,334 31,30 20,90 -31,96 -35,4 -73,-30 -121,-19 -58,13 -46,62 -91,124 45,12 92,43 123,80 62,-42 188,-9 237,8 11,3 16,-17 8,-34 -6,-14 -14,-37 1,-73 13,-33 161,-190 266,-290 1,-1 37,28 73,56 57,44 133,88 133,88l15 -2c68,-16 80,48 73,69 -8,22 -28,34 -53,33 -28,-3 -58,-16 -94,7 -37,22 -21,94 -43,125 63,0 112,33 137,49 102,-45 131,-31 234,-13 8,2 13,-19 5,-32 -8,-12 -19,-42 -17,-66l0 -258c-66,9 -96,-19 -107,-57 -8,-28 -33,-84 -49,-120 0,0 101,-3 156,-72 21,-26 38,-78 28,-127 -13,-68 -22,-91 -44,-150 -19,-49 -54,-140 -68,-191 -21,-73 -23,-105 -2,-145 13,-24 42,-48 74,-31 22,11 17,18 15,22 -27,43 -38,98 -26,138 16,55 65,99 87,113 0,0 36,25 43,19 18,-14 -28,-80 -26,-101l0 0 -4 -3zm-600 -308c-17,8 -47,19 -72,28 -6,-14 -6,-26 -3,-43 21,-3 51,-8 71,-8 13,0 16,17 4,23l0 0zm431 463c27,72 37,102 45,150 7,38 3,74 -11,94 -17,23 -62,61 -148,39l0 0c-28,-42 -76,-117 -100,-157 18,-67 25,-83 39,-147 0,0 38,22 40,14 7,-28 50,-161 58,-204 0,0 7,19 16,47 20,61 43,111 63,163l0 0 -1 0z"/>
  <path fill="#EBECEC" d="M1736 803c27,71 37,102 45,150 7,38 3,73 -11,93 -17,23 -62,62 -148,40l0 0c-28,-42 -76,-117 -100,-157 18,-67 25,-83 39,-147 0,0 38,22 40,14 7,-28 50,-161 58,-204 0,0 7,19 16,47 20,61 43,111 63,163l0 0 -1 1zm-304 -277c0,188 -84,327 -95,495 -7,108 0,174 29,273 0,0 36,28 73,56 57,43 131,89 131,89l19 -2c65,-16 76,49 68,70 -8,22 -27,33 -52,31 -28,-3 -58,-16 -94,7 -37,22 -22,95 -44,126 62,0 113,34 137,49 102,-45 132,-31 234,-13 8,2 13,-20 4,-34 -7,-12 -18,-41 -17,-63l0 -259c-66,9 -96,-19 -107,-57 -8,-28 -33,-83 -48,-119 0,0 101,-3 156,-72 20,-26 38,-68 30,-127 -8,-63 -30,-117 -43,-153 -18,-50 -55,-136 -70,-187 -21,-73 -27,-103 -3,-148 13,-24 42,-48 74,-31 22,11 17,18 15,22 -27,43 -38,98 -26,138 16,55 65,99 87,113 0,0 37,25 44,19 18,-13 -28,-80 -26,-102 1,-13 4,-26 8,-40 5,-16 14,-40 17,-64 8,-77 -35,-147 -105,-157 -19,-3 -93,-15 -146,67 -10,15 -24,53 -23,86 -26,-64 -57,-138 -91,-191 -8,-11 -46,-58 -57,-62 -43,-12 -128,-33 -151,-35 0,0 72,85 72,273l0 0 -1 1z"/>
 </g>
</svg>
