

<!-- Creator: CorelDRAW X6 -->
<svg xmlns="http://www.w3.org/2000/svg" x="0" y="0" xml:space="preserve" width="23mm" height="25mm" version="1.1" shape-rendering="geometricPrecision" text-rendering="geometricPrecision" image-rendering="optimizeQuality" fill-rule="evenodd" clip-rule="evenodd"
viewBox="0 0 2300 2500"
 xmlns:xlink="http://www.w3.org/1999/xlink"
 enable-background="new 0 0 912.7 290.1">
 <g id="Layer_x0020_1">
  <metadata id="CorelCorpID_0Corel-Layer"/>
 </g>
 <g id="Layer_x0020_1_0">
  <metadata id="CorelCorpID_1Corel-Layer"/>
 </g>
 <g id="Layer_x0020_1_0_1">
  <metadata id="CorelCorpID_2Corel-Layer"/>
 </g>
 <g id="Layer_x0020_1_0_2">
  <metadata id="CorelCorpID_3Corel-Layer"/>
 </g>
 <g id="Layer_x0020_1_3">
  <metadata id="CorelCorpID_4Corel-Layer"/>
 </g>
 <g id="Layer_x0020_1_0_4">
  <metadata id="CorelCorpID_5Corel-Layer"/>
 </g>
 <g id="Layer_x0020_1_0_5">
  <metadata id="CorelCorpID_6Corel-Layer"/>
 </g>
 <g id="Layer_x0020_1_0_6">
  <metadata id="CorelCorpID_7Corel-Layer"/>
 </g>
 <g id="Layer_x0020_1_0_7">
  <metadata id="CorelCorpID_8Corel-Layer"/>
 </g>
 <g id="Layer_x0020_1_0_2_8">
  <metadata id="CorelCorpID_9Corel-Layer"/>
 </g>
 <g id="Layer_x0020_1_0_2_8_9">
  <metadata id="CorelCorpID_10Corel-Layer"/>
 </g>
 <g id="Layer_x0020_1_0_10">
  <metadata id="CorelCorpID_11Corel-Layer"/>
 </g>
 <g id="Layer_x0020_1_1">
  <metadata id="CorelCorpID_12Corel-Layer"/>
 </g>
 <g id="Layer_x0020_1_11">
  <metadata id="CorelCorpID_13Corel-Layer"/>
 </g>
 <g id="Layer_x0020_1_12">
  <metadata id="CorelCorpID_14Corel-Layer"/>
  <path fill="#393185" d="M1147 1c-41,0 -101,9 -104,9 -88,13 -207,47 -212,48 -143,40 -309,103 -311,104 -155,60 -278,119 -278,120 -97,48 -142,110 -146,117 -7,8 -71,88 -71,218l0 13c0,3 3,76 28,162 0,0 82,283 82,283 0,0 85,240 85,240 1,2 55,143 108,248 3,8 35,77 124,222 0,0 97,152 155,241 1,1 71,103 157,206 4,4 97,116 162,165 125,107 212,106 228,104 100,3 213,-94 225,-105 64,-49 158,-160 162,-165 85,-103 154,-204 155,-206 0,-1 84,-132 155,-241 92,-149 124,-220 126,-223 50,-99 101,-233 107,-248 0,0 86,-240 86,-240 0,-1 81,-283 81,-283 24,-88 28,-159 28,-162 0,0 0,-15 0,-15 0,-128 -64,-208 -71,-216 -4,-7 -48,-68 -144,-116 -5,-3 -128,-61 -280,-120 -7,-3 -171,-65 -310,-104 -5,-2 -123,-35 -212,-48 -3,-1 -63,-9 -105,-9l-5 0 -2 1z"/>
  <path fill="#FFED00" d="M499 1295c0,357 290,648 648,648 357,0 648,-291 648,-648 0,-357 -291,-648 -648,-648 -357,0 -648,290 -648,648zm1259 0c0,338 -274,613 -613,613 -338,0 -613,-274 -613,-613 0,-338 274,-613 613,-613 338,0 613,274 613,612l0 1z"/>
  <path fill="#FFED00" d="M2043 508c0,0 -36,110 -43,131 -13,-19 -132,-188 -132,-188l-48 -16 -2 6 -53 163 39 13c0,0 36,-110 43,-131 13,19 132,188 132,188l48 16 55 -168 -39 -13zm-1601 -42c-15,-8 -33,-3 -56,5l-169 59 58 168 39 -13c0,0 -18,-51 -22,-61 12,-4 125,-43 125,-43 43,-15 55,-30 55,-50 0,-10 -3,-20 -8,-33 -6,-16 -13,-26 -23,-31l0 -1zm-11 68c-3,6 -10,11 -23,15 0,0 -100,35 -126,44 -3,-9 -13,-38 -17,-48 12,-4 124,-43 124,-43 25,-9 32,-5 36,7l5 15c1,3 1,4 1,6 0,2 0,3 -1,5l0 -1zm730 -180l-2 25c0,0 94,5 106,6 -1,12 -8,146 -8,146l42 2c0,0 7,-134 8,-146 12,1 106,6 106,6l2 -32 -253 -13 0 7zm-48 59c-3,-48 -29,-66 -87,-62l-121 9c-57,4 -80,27 -76,74l3 45c2,23 8,38 20,48 14,12 35,17 67,14l121 -9c57,-4 80,-27 76,-74l-3 -45zm-43 76c-6,7 -18,11 -36,13l-115 8c-30,3 -43,-5 -45,-25l-4 -62c-1,-8 1,-15 5,-19 6,-7 18,-11 36,-13l115 -8c30,-3 43,5 45,25l5 62c1,8 -1,15 -5,19l-1 0zm596 -89l-119 -22c-56,-10 -84,6 -93,53l-8 44c-8,47 12,72 68,82l119 22c56,10 83,-6 93,-53l8 -44c8,-47 -12,-72 -68,-82zm28 66l-11 61c-3,20 -18,26 -48,21l-113 -21c-18,-3 -29,-8 -34,-16 -3,-5 -4,-12 -3,-20l11 -61c2,-8 5,-14 10,-18 8,-5 19,-6 38,-3l113 20c30,5 41,16 37,36l1 0zm-939 15c8,-6 14,-14 14,-26 0,-3 0,-6 -1,-9l-3 -13c-3,-13 -7,-26 -19,-33 -13,-8 -34,-9 -68,-3l-171 36 37 173 41 -8c0,0 -12,-53 -13,-63 9,-2 80,-17 113,-24l72 48 48 -11 -78 -53c18,-5 28,-13 28,-13l0 -1zm-62 -5c0,0 -115,24 -127,27 -2,-9 -8,-40 -10,-49 12,-3 120,-26 120,-26 44,-9 46,-3 48,8l3 15c0,2 1,3 1,4 0,8 -6,14 -34,21l-2 1z"/>
  <path fill="#009846" d="M1758 1295c0,338 -274,613 -613,613 -338,0 -613,-274 -613,-613 0,-338 274,-613 613,-613 338,0 613,274 613,612l0 1z"/>
  <path fill="#FFED00" d="M1167 723c-103,23 -188,151 -188,151 94,-42 277,-28 277,-28 244,98 432,318 432,318 -64,-10 -151,-10 -151,-10 116,59 156,126 156,126 -59,146 -170,183 -170,183 13,-25 30,-82 30,-82l-77 -35c-49,-15 -79,5 -79,5 -69,28 -141,59 -141,59 -87,42 -44,126 -44,126 58,55 74,101 97,121 23,20 39,8 39,8l59 -35c-62,220 -264,225 -264,225 -116,-365 -575,-538 -575,-538 223,-28 373,32 373,32 -76,-128 -347,-244 -347,-244 232,-18 393,74 393,74 -87,-170 -279,-259 -279,-259 205,-227 459,-198 459,-198l0 2zm-121 536c0,0 61,55 67,287 0,0 33,-131 18,-239l200 0c0,0 -103,-49 -284,-47l0 -1zm101 -259c0,0 164,40 218,79 0,0 -7,-27 -57,-52l148 -5c0,0 -156,-74 -308,-23l-1 0z"/>
 </g>
</svg>
