

<!-- Creator: CorelDRAW X8 -->
<svg xmlns="http://www.w3.org/2000/svg" xml:space="preserve" x="0" y="0" width="69.2098mm" height="29.99mm" version="1.1" style="shape-rendering:geometricPrecision; text-rendering:geometricPrecision; image-rendering:optimizeQuality; fill-rule:evenodd; clip-rule:evenodd"
viewBox="0 0 6921 2999"
 xmlns:xlink="http://www.w3.org/1999/xlink">
 <defs>
  <style type="text/css">
   <![CDATA[
    .fil1 {fill:#FDEB04}
    .fil0 {fill:#F6F5F6}
    .fil2 {fill:#2A2928}
   ]]>
  </style>
 </defs>
 <g id="Layer_x0020_1">
  <metadata id="CorelCorpID_0Corel-Layer"/>
  <polygon class="fil0" points="1171,2419 881,2419 881,2033 679,2033 679,3000 881,3000 881,2567 1171,2567 1171,3000 1373,3000 1373,2033 1171,2033 "/>
  <polygon class="fil0" points="5988,2033 5988,2180 6262,2180 6262,3000 6464,3000 6464,2180 6738,2180 6738,2033 "/>
  <polygon class="fil0" points="4922,2033 4720,2033 4720,3000 5298,3000 5298,2852 4922,2852 "/>
  <path class="fil0" d="M2612 2839c-3,10 -10,13 -21,13 -10,0 -18,-4 -21,-13l-213 -806 -236 0 244 882c12,58 51,85 105,85l186 0c55,0 90,-28 104,-84l238 -884 -178 0 -210 807 2 0z"/>
  <path class="fil0" d="M0 2184l0 665c0,108 55,151 151,151l451 0 0 -148 -327 0c-56,0 -74,-14 -74,-74l0 -524c0,-58 13,-74 74,-74l326 0 0 -148 -451 0c-103,0 -151,53 -151,151l1 1z"/>
  <path class="fil0" d="M1696 2778l0 -211 401 0 0 -148 -401 0 0 -166c0,-56 12,-74 74,-74l331 0 0 -148 -456 0c-104,0 -151,52 -151,151l0 665c0,102 50,151 151,151l499 0 0 -148 -374 0c-56,0 -74,-13 -74,-74l0 2z"/>
  <path class="fil0" d="M3589 2591c93,0 151,-42 151,-151l0 -256c0,-101 -48,-151 -151,-151l-563 0 0 967 202 0 0 -820 236 0c63,0 74,18 74,74l0 118c0,57 -16,74 -74,74l-110 0c-43,0 -67,26 -67,67 0,21 11,36 19,51l255 435 250 0 -267 -408 45 0z"/>
  <path class="fil0" d="M4447 2033l-445 0c-107,0 -151,54 -151,151l0 665c0,110 59,151 151,151l224 0 221 0c97,0 151,-46 151,-151l0 -665c0,-99 -47,-151 -151,-151l0 0zm-125 819l-97 0 -99 0c-58,0 -74,-16 -74,-74l0 -524c0,-51 7,-74 74,-74l196 0c53,0 74,9 74,74l0 524c0,63 -19,74 -74,74z"/>
  <path class="fil0" d="M5539 2778l0 -211 401 0 0 -148 -401 0 0 -166c0,-56 12,-74 74,-74l331 0 0 -148 -456 0c-104,0 -151,52 -151,151l0 665c0,102 50,151 151,151l499 0 0 -148 -374 0c-56,0 -74,-13 -74,-74l0 2z"/>
  <path class="fil1" d="M5136 276l-1075 0c-28,0 -45,-8 -45,-46l0 -159c0,-46 -25,-70 -70,-70l-1231 0c-46,0 -70,26 -70,70l0 159c0,34 -16,46 -45,46l-705 0c-54,0 -85,26 -102,60l-343 671c-4,8 -7,18 -7,28 0,27 17,61 65,61l1091 0c34,0 45,15 45,46l0 159c0,48 28,70 70,70l616 0 615 0c42,0 70,-20 70,-69l0 -160c0,-33 14,-46 45,-46l684 0c47,0 81,-12 105,-56l339 -663c7,-14 13,-22 13,-40 0,-45 -39,-61 -65,-61l0 0zm-271 267l-164 320c-10,19 -28,19 -41,19l-812 0c-34,0 -46,15 -46,46l0 184c0,31 -13,45 -46,45l-426 0 -426 0c-29,0 -46,-10 -46,-46l0 -184c0,-34 -15,-46 -46,-46l-995 0c-24,0 -41,-15 -41,-37 0,-6 2,-12 4,-17l164 -320c6,-11 17,-19 41,-19l828 0c29,0 46,-11 46,-46l0 -184c0,-33 14,-46 46,-46l853 0c31,0 46,14 46,46l0 184c0,32 15,46 46,46l979 0c31,0 41,21 41,37 0,6 -2,12 -4,17l-1 1z"/>
  <path class="fil2" d="M4175 141c0,-16 -13,-20 -27,-20l-33 0 0 76 11 0 0 -33 15 0 22 33 12 0 -23 -34c13,0 24,-7 24,-21l0 0 -1 -1zm-29 13l-20 0 0 -24 20 0c8,0 18,1 18,11 0,7 -4,14 -19,14l1 -1z"/>
  <path class="fil2" d="M4140 92c-38,0 -68,30 -68,68 0,37 30,67 68,67l0 0c37,0 68,-30 68,-68 0,-37 -30,-68 -68,-68l0 0 0 1zm0 124l0 0c-32,0 -57,-26 -57,-57 0,-31 25,-57 57,-57 31,0 57,26 57,57 0,32 -25,57 -57,57z"/>
  <path class="fil0" d="M6888 2086c0,-16 -13,-20 -27,-20l-33 0 0 76 11 0 0 -33 15 0 22 33 12 0 -23 -34c13,0 24,-7 24,-21l0 0 -1 -1zm-29 13l-20 0 0 -24 20 0c8,0 18,1 18,11 0,7 -4,14 -19,14l1 -1z"/>
  <path class="fil0" d="M6853 2037c-38,0 -68,30 -68,68 0,37 30,68 68,68l0 0c37,0 67,-30 67,-68 0,-37 -30,-68 -67,-68l0 0zm0 124l0 0c-32,0 -57,-26 -57,-57 0,-31 25,-57 57,-57 31,0 57,26 57,57 0,32 -25,57 -57,57z"/>
 </g>
</svg>
