

<!-- Creator: CorelDRAW X6 -->
<svg xmlns="http://www.w3.org/2000/svg" x="0" y="0" xml:space="preserve" width="111mm" height="25mm" version="1.1" shape-rendering="geometricPrecision" text-rendering="geometricPrecision" image-rendering="optimizeQuality" fill-rule="evenodd" clip-rule="evenodd"
viewBox="0 0 11100 2500"
 xmlns:xlink="http://www.w3.org/1999/xlink"
 enable-background="new 0 0 912.7 290.1">
 <g id="Layer_x0020_1">
  <metadata id="CorelCorpID_0Corel-Layer"/>
 </g>
 <g id="Layer_x0020_1_0">
  <metadata id="CorelCorpID_1Corel-Layer"/>
 </g>
 <g id="Layer_x0020_1_0_1">
  <metadata id="CorelCorpID_2Corel-Layer"/>
 </g>
 <g id="Layer_x0020_1_0_2">
  <metadata id="CorelCorpID_3Corel-Layer"/>
 </g>
 <g id="Layer_x0020_1_3">
  <metadata id="CorelCorpID_4Corel-Layer"/>
 </g>
 <g id="Layer_x0020_1_0_4">
  <metadata id="CorelCorpID_5Corel-Layer"/>
 </g>
 <g id="Layer_x0020_1_0_5">
  <metadata id="CorelCorpID_6Corel-Layer"/>
 </g>
 <g id="Layer_x0020_1_0_6">
  <metadata id="CorelCorpID_7Corel-Layer"/>
 </g>
 <g id="Layer_x0020_1_0_7">
  <metadata id="CorelCorpID_8Corel-Layer"/>
 </g>
 <g id="Layer_x0020_1_0_2_8">
  <metadata id="CorelCorpID_9Corel-Layer"/>
 </g>
 <g id="Layer_x0020_1_0_2_8_9">
  <metadata id="CorelCorpID_10Corel-Layer"/>
 </g>
 <g id="Layer_x0020_1_0_10">
  <metadata id="CorelCorpID_11Corel-Layer"/>
 </g>
 <g id="Layer_x0020_1_1">
  <metadata id="CorelCorpID_12Corel-Layer"/>
 </g>
 <g id="Layer_x0020_1_11">
  <metadata id="CorelCorpID_13Corel-Layer"/>
 </g>
 <g id="Layer_x0020_1_12">
  <metadata id="CorelCorpID_14Corel-Layer"/>
  <g id="_148547152">
   <path fill="#FEFEFE" d="M9486 1535c-157,140 -528,206 -972,198 -198,157 -725,190 -1310,190 -915,0 -791,544 -1682,544 -890,0 -775,-544 -1682,-544 -585,0 -1113,-33 -1310,-190 -445,8 -816,-57 -972,-198 -634,-17 -791,-140 -849,-239 387,33 2250,99 3536,99 454,0 659,-289 1278,-289 619,0 816,289 1278,289 1286,0 3149,-66 3536,-99 -57,99 -214,222 -849,239z"/>
   <path fill="#232322" d="M5520 1213c-486,0 -890,231 -890,528 0,289 404,552 890,552 495,0 890,-264 890,-552 0,-296 -395,-528 -890,-528z"/>
   <path fill="#AE935C" d="M6312 1741c0,272 -355,495 -791,495 -437,0 -783,-222 -783,-495 0,-264 346,-486 783,-486 437,0 791,222 791,486zm-791 -437c-247,0 -445,198 -445,437 0,247 198,437 445,437 256,0 454,-190 454,-437 0,-239 -198,-437 -454,-437zm412 82c91,91 140,222 140,355 0,140 -49,272 -140,363 181,-74 305,-214 305,-363 0,-148 -124,-281 -305,-355zm-957 355c0,-132 49,-264 140,-355 -181,74 -305,206 -305,355 0,148 124,289 305,363 -91,-91 -140,-222 -140,-363z"/>
   <path fill="#AE935C" d="M6143 1962c-17,46 -38,89 -64,129 -143,89 -340,144 -558,144 -228,0 -432,-61 -574,-157 -28,-46 -51,-96 -67,-149 54,72 137,133 237,175 -91,-91 -140,-222 -140,-363 0,-132 49,-264 140,-355 -97,40 -179,97 -232,164 16,-50 38,-97 66,-142 142,-94 345,-154 570,-154 216,0 411,54 554,142 25,38 47,80 63,124 -52,-54 -123,-100 -206,-133 91,91 140,222 140,355 0,140 -49,272 -140,363 85,-35 157,-84 210,-142l0 -1zm-622 -658c-247,0 -445,198 -445,437 0,247 198,437 445,437 256,0 454,-190 454,-437 0,-239 -198,-437 -454,-437z"/>
   <path fill="#E2BC6B" d="M5110 1913c-22,-51 -35,-107 -35,-164 0,-2 0,-2 0,-4 1,60 12,117 35,168z"/>
   <path fill="#15599E" d="M5653 2038c8,0 -8,0 0,0 49,-25 82,-17 116,-57 42,-33 41,-74 57,-116 0,-8 8,-17 8,-25l66 33 -42 247 -49 -33 -25 107 -132 -157z"/>
   <path fill="#AE935C" d="M5191 1807c-8,-17 -17,-33 -17,-57 0,-49 33,-74 49,-124 17,-49 17,-82 57,-124 33,-33 66,-25 116,-49 49,-17 74,-42 124,-42 49,0 74,25 124,42 49,17 82,17 116,42l-569 313 -1 0z"/>
   <path fill="#AE935C" d="M5529 2079c-57,0 -74,-25 -132,-42 -42,-17 -74,-17 -107,-49l560 -313c8,17 25,42 25,66 0,42 -25,66 -42,99l0 0c0,8 -8,17 -8,25 -8,17 -8,25 -8,33 -8,8 -8,17 -8,17 -8,25 -17,49 -41,66 -25,33 -57,33 -99,49 -8,0 -17,0 -17,8 -8,0 -8,0 -8,0l0 0c-42,17 -66,42 -116,42l1 -1z"/>
   <path fill="#FAD374" d="M5735 1741c0,116 -91,214 -214,214 -116,0 -214,-99 -214,-214 0,-107 99,-206 214,-206 124,0 214,99 214,206zm-214 -247c-140,0 -256,107 -256,247 0,140 116,256 256,256 148,0 264,-116 264,-256 0,-140 -116,-247 -264,-247z"/>
   <path fill="#AE935C" d="M5496 1494c8,0 25,0 25,8l25 25c-8,8 -17,8 -25,0l-25 -33z"/>
   <path fill="#AE935C" d="M5455 1502c0,0 17,0 25,0l33 25c-8,8 -25,17 -25,8l-33 -33z"/>
   <path fill="#AE935C" d="M5414 1527c0,-17 17,-17 25,-17l33 25c-8,8 -17,17 -25,8l-33 -17z"/>
   <path fill="#AE935C" d="M5372 1543c0,-8 17,-17 25,-8l33 8c0,17 -8,17 -17,17l-42 -17z"/>
   <path fill="#AE935C" d="M5340 1576c0,-17 17,-17 17,-17l42 8c0,8 -8,17 -17,17l-42 -8z"/>
   <path fill="#AE935C" d="M5315 1609c0,-17 8,-25 17,-25l42 0c0,17 -8,25 -17,25l-41 0 -1 0z"/>
   <path fill="#AE935C" d="M5290 1642c0,-8 8,-17 17,-17l33 -8c8,8 0,17 -8,25l-41 0 -1 0z"/>
   <path fill="#AE935C" d="M5273 1683c0,-8 8,-17 8,-17l42 -17c8,8 0,17 -8,25l-42 8z"/>
   <path fill="#AE935C" d="M5265 1732c0,-17 0,-25 8,-25l33 -25c8,8 8,17 0,25l-41 25 -1 0z"/>
   <path fill="#AE935C" d="M5273 1774c-8,-8 -8,-25 0,-25l25 -25c8,8 8,17 8,25l-33 25z"/>
   <path fill="#AE935C" d="M5282 1815c-8,-8 -8,-17 -8,-25l25 -33c8,8 17,17 8,25l-25 33z"/>
   <path fill="#AE935C" d="M5298 1856c-8,-8 -17,-17 -8,-25l17 -33c8,0 17,17 8,17l-17 42z"/>
   <path fill="#AE935C" d="M5323 1889c-17,0 -17,-17 -17,-17l17 -41c8,0 17,17 8,25l-8 33 0 -1z"/>
   <path fill="#AE935C" d="M5347 1922c-8,0 -17,-8 -17,-17l8 -42c8,0 17,8 17,17l-8 42z"/>
   <path fill="#AE935C" d="M5381 1956c-8,0 -17,-17 -17,-25l0 -33c8,0 17,0 17,8l0 49 0 1z"/>
   <path fill="#AE935C" d="M5422 1971c-8,0 -25,-8 -25,-17l-8 -33c17,-8 25,0 25,8l8 42z"/>
   <path fill="#AE935C" d="M5463 1988c-8,0 -25,-8 -25,-8l-17 -42c17,-8 25,0 25,8l17 41 0 1z"/>
   <path fill="#AE935C" d="M5512 1988c-17,8 -25,8 -33,0l-17 -33c8,-8 17,-8 25,0l25 33z"/>
   <path fill="#AE935C" d="M5554 1988c-8,8 -25,8 -25,0l-25 -25c0,-8 17,-8 25,-8l25 33z"/>
   <path fill="#AE935C" d="M5595 1980c-8,8 -17,8 -25,8l-33 -25c8,-8 17,-17 25,-8l33 25z"/>
   <path fill="#AE935C" d="M5636 1963c0,8 -17,17 -25,8l-33 -17c0,-8 17,-17 25,-8l33 17z"/>
   <path fill="#AE935C" d="M5677 1947c-8,8 -17,8 -25,8l-42 -17c8,-8 17,-17 25,-8l42 17z"/>
   <path fill="#AE935C" d="M5710 1914c0,8 -17,17 -25,17l-41 -8c8,-8 17,-17 25,-17l42 8 -1 0z"/>
   <path fill="#AE935C" d="M5735 1881c0,8 -8,17 -17,17l-41 0c0,-8 8,-17 17,-17l42 0 -1 0z"/>
   <path fill="#AE935C" d="M5759 1840c0,17 -8,25 -17,25l-41 8c0,-8 8,-17 17,-25l42 -8 -1 0z"/>
   <path fill="#AE935C" d="M5776 1798c0,17 -8,25 -17,25l-33 17c-8,-8 0,-17 8,-25l42 -17z"/>
   <path fill="#AE935C" d="M5776 1757c8,8 0,25 0,25l-42 25c0,-8 0,-25 8,-25l33 -25z"/>
   <path fill="#AE935C" d="M5776 1716c8,8 8,25 0,25l-33 25c-8,-8 -8,-17 0,-25l33 -25z"/>
   <path fill="#AE935C" d="M5768 1675c8,8 8,17 8,25l-33 33c-8,-8 -8,-17 0,-25l25 -33z"/>
   <path fill="#AE935C" d="M5752 1633c8,8 17,17 8,25l-17 33c-8,0 -17,-17 -17,-25l25 -33z"/>
   <path fill="#AE935C" d="M5727 1593c17,8 17,17 17,25l-17 42c-8,-8 -17,-17 -17,-25l17 -42z"/>
   <path fill="#AE935C" d="M5702 1568c8,0 17,8 17,17l-8 41c-8,0 -17,-8 -17,-17l8 -42 0 1z"/>
   <path fill="#AE935C" d="M5669 1535c8,0 17,17 17,17l0 41c-8,0 -17,-8 -17,-17l0 -42 0 1z"/>
   <path fill="#AE935C" d="M5628 1518c8,0 17,8 17,8l8 41c-8,0 -17,0 -17,-8l-8 -42 0 1z"/>
   <path fill="#AE935C" d="M5587 1502c8,0 17,0 25,8l8 42c-8,0 -17,0 -25,-8l-8 -42z"/>
   <path fill="#AE935C" d="M5537 1494c8,0 25,0 25,8l25 33c-8,8 -25,8 -25,0l-25 -41 0 -1z"/>
   <path fill="#FAD374" d="M5867 1856c25,-42 42,-66 42,-116 0,-57 -25,-82 -49,-132 -25,-57 -25,-91 -66,-132 -41,-42 -82,-42 -132,-57 -57,-25 -82,-49 -140,-49 -57,0 -82,25 -132,49 -57,25 -99,25 -140,57 -41,41 -41,82 -57,132 -25,57 -49,82 -49,140 0,57 25,82 49,132 25,49 25,91 57,132 49,41 91,33 140,57 57,17 82,49 140,49 57,0 82,-33 132,-49 0,0 8,0 8,0l116 140 25 -107 49 25 57 -256 -49 -17 -2 2zm-676 -49c-8,-17 -17,-33 -17,-57 0,-49 33,-74 49,-124 17,-49 17,-82 57,-124 33,-33 66,-25 116,-49 49,-17 74,-42 124,-42 49,0 74,25 124,42 49,17 82,17 116,42l-569 313 -1 0zm338 272c-57,0 -74,-25 -132,-42 -42,-17 -74,-17 -107,-49l560 -313c8,17 25,42 25,66 0,42 -25,66 -42,99l0 0c0,8 -8,17 -8,25 -8,17 -8,25 -8,33 -8,8 -8,17 -8,17 -8,25 -17,49 -41,66 -25,33 -57,33 -99,49 -8,0 -17,0 -17,8 -8,0 -8,0 -8,0l0 0c-42,17 -66,42 -116,42l1 -1zm239 74l-74 -99c41,-8 74,-17 107,-49 8,-8 17,-17 17,-25l-49 173 -1 0zm74 -66l-25 -17 41 -148 -17 -8c8,-8 8,-25 17,-33l25 8 -42 198 1 0z"/>
   <path fill="#E22832" d="M5520 1568c-91,0 -165,74 -173,157l247 -140c-17,-8 -42,-17 -74,-17z"/>
   <path fill="#E22832" d="M5446 1897c25,17 49,25 74,25 99,0 173,-74 181,-165l-256 140z"/>
   <path fill="#15599E" d="M5265 1971c-17,-33 -25,-66 -42,-107 -8,-8 -8,-17 -17,-25l569 -321c25,33 25,57 49,107 0,8 8,17 17,25l-577 321 1 0z"/>
   <polygon fill="#FAD374" points="5397,1683 5422,1625 5430,1650 5488,1584 5496,1601 5520,1576 5496,1625 5488,1609 5430,1667 5422,1658 "/>
   <polygon fill="#FAD374" points="5529,1914 5554,1856 5570,1872 5628,1815 5636,1832 5661,1807 5636,1856 5628,1840 5570,1897 5554,1881 "/>
   <polygon fill="#FAD374" points="5347,1774 5364,1766 5364,1823 5389,1807 5389,1749 5406,1741 5406,1872 5389,1881 5389,1823 5364,1840 5364,1897 5347,1906 "/>
   <path fill="#FAD374" d="M5438 1791l0 -49 8 -8c8,0 8,0 8,8l0 25c0,8 0,8 -8,17l-8 8 0 -1zm25 -8c8,-8 8,-8 8,-17l0 -33c0,-17 -8,-25 -25,-17l-25 17 0 132 17 -8 0 -57 8 0 17 49 17 -17 -17 -49 0 1z"/>
   <polygon fill="#FAD374" points="5496,1766 5471,1707 5488,1700 5505,1741 5520,1675 5537,1667 5512,1757 5512,1815 5496,1823 "/>
   <path fill="#FAD374" d="M5562 1724c-8,8 -17,0 -17,-8l0 -33c0,-17 0,-17 17,-25l17 -8c8,-8 17,-8 17,8l0 17 -17 8 0 -25 -17 8 0 49 17 -8c8,-8 17,-8 17,8l0 33c0,17 0,25 -17,33l-17 8c-8,0 -17,0 -17,-8l0 -25 8 -8 0 25 33 -8 0 -49 -25 8z"/>
   <polygon fill="#FAD374" points="5611,1625 5628,1618 5628,1741 5653,1724 5653,1741 5611,1766 "/>
   <polygon fill="#FAD374" points="5661,1601 5710,1576 5710,1584 5677,1601 5677,1650 5702,1633 5702,1650 5677,1658 5677,1707 5710,1692 5710,1707 5661,1732 "/>
   <path fill="#FAD374" d="M5735 1618l0 -42 8 -8c8,-8 17,0 17,0l0 33c0,8 -8,8 -8,8l-17 8zm25 0c8,-8 17,-8 17,-25l0 -33c0,-8 -17,-17 -25,-8l-33 17 0 132 17 -8 0 -57 8 -8 17 49 17 -8 -17 -49 0 1z"/>
   <path fill="#FAD374" d="M5315 1840l0 -33 -25 17 0 99 25 -17 0 -25 17 -8 0 25c0,17 0,25 -17,25l-17 8c-8,8 -25,8 -25,-8l0 -91c0,-17 8,-25 25,-33l17 -8c8,0 17,0 17,17l0 25 -17 8z"/>
   <path fill="#232322" d="M10326 1263c-379,25 -2225,91 -3528,91 -206,0 -363,-57 -528,-124 -190,-74 -412,-157 -750,-157 -338,0 -560,82 -750,157 -165,66 -321,124 -528,124 -1302,0 -3149,-66 -3528,-91l-66 -8 25 57c57,107 206,239 866,256 214,181 701,206 972,198 181,132 577,190 1327,190 445,0 634,132 824,272 198,132 404,272 857,272 454,0 659,-140 849,-272 198,-140 387,-272 833,-272 742,0 1146,-57 1319,-190 281,8 767,-17 981,-198 659,-17 808,-148 857,-256l33 -57 -66 8zm-841 272c-157,140 -528,206 -972,198 -198,157 -725,190 -1310,190 -915,0 -791,544 -1682,544 -890,0 -775,-544 -1682,-544 -585,0 -1113,-33 -1310,-190 -445,8 -816,-57 -972,-198 -634,-17 -791,-140 -849,-239 387,33 2250,99 3536,99 454,0 659,-289 1278,-289 619,0 816,289 1278,289 1286,0 3149,-66 3536,-99 -57,99 -214,222 -849,239z"/>
   <path fill="#232322" d="M10268 1304l25 -8c0,0 -8,17 -25,33l-41 0c25,-8 41,-25 41,-25z"/>
   <path fill="#232322" d="M10227 1329c-206,82 -898,165 -3347,165 -264,0 -330,-33 -371,-33 -41,0 -49,33 -33,66 17,25 33,66 42,91 -8,-57 42,-41 247,-41 1747,0 2126,-33 2654,-91 -222,148 -1500,157 -2514,157 -116,8 -239,8 -330,8 -33,0 -49,8 -42,42 0,25 8,74 0,107 33,-42 25,-74 231,-74 1039,0 1500,-33 1690,-57 -165,91 -420,132 -1583,132 -495,0 -552,544 -1352,544 -799,0 -857,-544 -1352,-544 -1162,0 -1418,-42 -1583,-132 190,25 651,57 1690,57 206,0 198,33 231,74 -8,-33 0,-82 0,-107 8,-33 -8,-42 -42,-42 -91,0 -214,0 -330,-8 -1014,0 -2291,-8 -2514,-157 528,57 907,91 2654,91 206,0 256,-17 247,41 8,-25 25,-66 42,-91 17,-33 8,-66 -33,-66 -42,0 -107,33 -371,33 -2456,0 -3140,-82 -3347,-165l-42 0c99,66 272,116 808,157 132,124 470,157 957,181 157,148 577,173 1484,173 684,0 668,552 1500,552 833,0 816,-552 1500,-552 907,0 1319,-25 1484,-173 478,-25 824,-57 957,-181 536,-42 708,-91 808,-157l-41 0 2 0z"/>
   <path fill="#232322" d="M773 1304l-25 -8c0,0 8,17 25,33l42 0c-25,-8 -42,-25 -42,-25z"/>
   <polygon fill="#232322" points="7227,612 8224,612 8224,505 7532,505 7532,27 7227,27 "/>
   <path fill="#232322" d="M1465 27l0 585 305 0c0,0 0,-231 0,-239 8,0 528,0 536,0 0,8 0,239 0,239l305 0 0 -585 -305 0c0,0 0,231 0,239 -8,0 -528,0 -536,0 0,-8 0,-239 0,-239l-305 0z"/>
   <path fill="#232322" d="M5290 27l-289 247 -289 -247 -355 0c0,0 429,346 429,346 0,8 0,239 0,239l305 0c0,0 0,-239 0,-239 8,-8 404,-346 404,-346l-206 0 2 0z"/>
   <polygon fill="#232322" points="8562,612 9576,612 9576,513 8867,513 8867,365 9551,365 9551,266 8867,266 8867,126 9568,126 9568,27 8562,27 "/>
   <path fill="#232322" d="M5752 183c0,132 157,165 379,190 222,33 330,41 330,91 0,41 -66,66 -256,66 -222,0 -412,-49 -437,-57 0,8 -25,124 -25,124 25,8 206,49 470,49 296,0 577,-49 577,-206 0,-107 -116,-165 -445,-198 -132,-17 -272,-25 -272,-74 0,-42 33,-57 231,-57 190,0 355,42 379,42l25 -107c-33,-8 -222,-42 -478,-42 -206,0 -478,25 -478,181l2 0z"/>
   <path fill="#232322" d="M7 323c0,190 206,321 634,321 165,0 338,-25 371,-33l25 -124c-33,8 -181,25 -330,25 -239,0 -404,-57 -404,-190 0,-140 157,-198 404,-198 140,0 296,17 330,25l-25 -124c-41,-8 -198,-25 -363,-25 -437,0 -643,124 -643,321l0 2z"/>
   <path fill="#232322" d="M3081 612l305 0 0 -478c41,-8 91,-8 157,-8 74,0 132,0 173,8 91,8 124,42 124,82 0,33 -41,74 -132,82 -66,8 -107,17 -157,17 -33,0 -57,0 -99,-8l346 305 387 0 -346 -239c66,-8 91,-8 165,-33 91,-25 132,-74 140,-124 0,-74 -49,-132 -222,-173 -91,-17 -214,-25 -371,-25 -222,0 -445,8 -470,8 0,0 0,585 0,585l0 1z"/>
   <path fill="#232322" d="M9980 612l305 0 0 -478c49,-8 91,-8 165,-8 74,0 124,0 173,8 91,8 124,42 116,82 0,33 -42,74 -132,82 -57,8 -99,17 -157,17 -33,0 -57,0 -91,-8l346 305 387 0 -355 -239c74,-8 99,-8 165,-33 91,-25 140,-74 140,-124 0,-74 -42,-132 -214,-173 -99,-17 -214,-25 -379,-25 -214,0 -445,8 -470,8 0,0 0,585 0,585l-1 1z"/>
  </g>
 </g>
</svg>
