

<!-- Creator: CorelDRAW X8 -->
<svg xmlns="http://www.w3.org/2000/svg" xml:space="preserve" x="0" y="0" width="26.3888mm" height="25mm" version="1.1" shape-rendering="geometricPrecision" text-rendering="geometricPrecision" image-rendering="optimizeQuality" fill-rule="evenodd" clip-rule="evenodd"
viewBox="0 0 2639 2500"
 xmlns:xlink="http://www.w3.org/1999/xlink">
 <defs>
   <radialGradient id="id0" gradientUnits="userSpaceOnUse" gradientTransform="matrix(1.41421 -0 -0 1.41421 -547 -518)" cx="1319.44" cy="1250" r="2975" fx="1319.44" fy="1250">
    <stop offset="0" stop-opacity="1" stop-color="#FEFEFE"/>
    <stop offset="0.580392" stop-opacity="1" stop-color="#FEFEFE"/>
    <stop offset="0.678431" stop-opacity="1" stop-color="#DCE0E7"/>
    <stop offset="0.721569" stop-opacity="1" stop-color="#32383B"/>
    <stop offset="1" stop-opacity="1" stop-color="#4A5054"/>
   </radialGradient>
   <radialGradient id="id1" gradientUnits="userSpaceOnUse" gradientTransform="matrix(1.41422 -0 -0 1.41422 -547 -518)" cx="1319.44" cy="1250" r="2207.05" fx="1319.44" fy="1250">
    <stop offset="0" stop-opacity="1" stop-color="#5A5A5A"/>
    <stop offset="0.639216" stop-opacity="1" stop-color="#4A5054"/>
    <stop offset="0.690196" stop-opacity="1" stop-color="#CED3D6"/>
    <stop offset="1" stop-opacity="1" stop-color="#CED3D6"/>
   </radialGradient>
    <clipPath id="id2">
     <path d="M682 1924c-3,-3 -5,-6 -8,-8 -3,-3 -5,-5 -8,-8 -3,-3 -5,-5 -8,-8 -2,-2 -5,-5 -8,-8 -2,-2 -5,-5 -7,-8 -3,-3 -5,-5 -8,-8 -2,-3 -5,-6 -7,-8 -3,-3 -5,-6 -8,-9 -2,-3 -4,-5 -7,-8 -1,-1 -2,-2 -2,-3 -1,-1 -2,-2 -3,-3 -1,-1 -2,-2 -3,-3 -1,-1 -1,-2 -2,-3 -1,-2 -2,-3 -3,-4 -1,-1 -1,-2 -2,-3 -1,-1 -2,-2 -3,-3 -1,-1 -1,-2 -2,-3 -1,-1 -2,-2 -3,-3 -3,-4 -5,-7 -8,-11 -3,-3 -6,-7 -8,-11 -2,-2 -4,-5 -6,-8 -1,-1 -2,-2 -2,-3 -2,-3 -4,-6 -6,-8 -1,-2 -2,-3 -3,-4 -3,-5 -7,-10 -10,-15 -4,-5 -7,-11 -10,-16 -4,-5 -7,-10 -10,-16 -4,-5 -7,-10 -10,-16 -3,-5 -6,-11 -9,-16 -3,-5 -6,-11 -9,-16 -2,-5 -5,-10 -8,-16 -3,-5 -5,-11 -8,-16 -3,-5 -5,-11 -8,-16 -2,-6 -4,-11 -7,-17 -2,-5 -5,-11 -7,-16 -2,-6 -4,-12 -7,-17 -2,-6 -4,-12 -6,-17 -2,-6 -4,-12 -6,-17 2,2 5,4 8,6 2,2 5,4 7,6 3,2 5,4 8,6 2,1 4,3 5,4 2,5 3,9 5,13 7,17 13,34 21,50 7,17 16,33 24,48 9,16 18,31 28,45 6,7 11,14 17,21 7,8 13,16 20,23 15,14 32,28 49,40 4,3 9,6 14,9 4,2 9,5 13,8 5,2 10,5 15,7 4,3 9,5 14,7 5,3 10,5 15,7 5,2 10,4 15,6 5,1 10,3 15,5 5,1 11,3 16,4 5,2 10,3 15,4 0,0 0,0 0,0 0,0 0,0 0,0 1,0 1,0 1,0 0,0 0,0 0,0 0,0 0,0 0,0 0,0 0,0 0,0 19,17 38,33 59,48 33,25 68,47 105,67 37,19 75,36 115,50 40,14 81,25 123,33 43,7 86,12 131,13 6,0 13,0 19,0 70,0 138,-9 202,-25 74,-18 143,-46 208,-83 64,-36 123,-81 175,-132 49,-49 92,-104 128,-164 0,0 0,0 0,0 0,0 0,0 0,0 0,0 0,0 0,0 0,0 0,0 0,0 0,0 0,0 0,0 1,0 1,-1 2,-2 1,-1 1,-3 2,-4 1,-2 2,-4 3,-6 2,-3 4,-5 5,-8 2,-3 3,-6 5,-9 2,-2 3,-5 5,-8 0,0 0,0 0,-1 0,0 1,-2 3,-5 3,-3 6,-8 11,-14 4,-5 10,-11 16,-16 7,-5 15,-9 23,-12 5,-2 11,-3 17,-3 3,0 5,0 8,1 6,0 12,0 17,0 2,0 4,0 5,0 2,0 3,0 5,0 1,0 2,0 4,0 1,0 2,0 4,0 1,0 2,0 3,0 1,0 2,1 3,1 1,0 2,0 3,0 1,0 2,0 2,0 1,0 2,0 2,0 1,0 1,0 1,0 0,0 0,0 0,0 1,0 1,0 1,0 0,0 0,0 0,0 -1,3 -2,5 -3,8 -3,6 -5,13 -8,19 -3,6 -6,13 -9,19 -2,6 -5,12 -8,19 -3,6 -7,12 -10,18 -3,6 -6,12 -9,19 -4,6 -7,12 -11,18 -4,7 -7,13 -11,19 -4,6 -7,12 -11,18 -4,6 -8,12 -12,18 -4,6 -8,12 -12,18 -1,1 -2,2 -3,4 -2,3 -4,5 -6,8 -1,1 -2,2 -2,3 -2,3 -4,6 -6,8 -3,4 -6,8 -9,11 -2,4 -5,7 -8,11 -1,1 -2,2 -3,3 0,1 -1,2 -2,3 -1,1 -2,2 -3,3 0,1 -1,2 -2,3 -1,1 -2,2 -3,3 -1,1 -1,2 -2,3 -1,2 -2,3 -3,4 -1,1 -2,2 -3,3 0,1 -1,2 -2,3 -3,2 -5,5 -8,8 -2,3 -5,6 -7,8 -3,3 -5,6 -8,9 -2,2 -5,5 -7,8 -3,2 -5,5 -8,8 -3,2 -5,5 -8,8 -2,2 -5,5 -8,8 -2,2 -5,5 -8,7 -3,3 -5,5 -8,8 -2,2 -5,4 -7,7 -3,2 -5,4 -7,6 -3,2 -5,4 -8,7 -2,2 -5,4 -7,6 -3,2 -5,4 -8,6 -2,2 -5,4 -7,7 -3,2 -5,4 -8,6 -2,2 -5,4 -7,6 -3,2 -5,4 -8,6 -8,6 -16,12 -24,18 -9,6 -17,11 -25,17 -9,6 -17,11 -26,17 -8,5 -17,10 -26,15 -9,5 -18,10 -27,15 -9,5 -18,10 -27,14 -9,5 -18,9 -27,13 -10,4 -19,9 -29,12 -9,4 -19,8 -28,12 -7,2 -13,5 -20,7 -5,2 -10,3 -15,5 -12,4 -24,7 -35,11 -12,3 -24,6 -36,9 -13,3 -25,6 -37,8 -12,3 -25,5 -37,7 -12,2 -25,4 -38,5 -12,2 -25,3 -37,4 -13,1 -26,1 -39,2 -10,0 -21,0 -32,0 -2,0 -5,0 -7,0 -10,0 -21,0 -31,0 -10,-1 -20,-1 -30,-2 -10,-1 -21,-2 -31,-3 -10,-1 -20,-2 -30,-4 -10,-1 -19,-2 -29,-4 -10,-2 -20,-4 -30,-6 -9,-2 -19,-4 -29,-6 -9,-3 -19,-5 -28,-8 -1,0 -2,0 -3,0 -8,-3 -17,-5 -26,-8 -3,-1 -6,-2 -10,-3 -3,-1 -7,-2 -10,-3 -3,-2 -7,-3 -10,-4 -3,-1 -7,-2 -10,-3 -4,-2 -7,-3 -10,-4 -4,-1 -7,-3 -10,-4 -3,-1 -7,-2 -10,-4 -3,-1 -7,-2 -10,-4 -3,-1 -6,-2 -10,-4 -11,-5 -22,-10 -33,-15 -11,-5 -22,-11 -33,-16 -11,-6 -22,-12 -32,-18 -11,-6 -21,-12 -31,-19 -11,-6 -21,-13 -31,-20 -10,-7 -20,-14 -29,-21 -10,-7 -20,-15 -29,-23 -10,-7 -19,-15 -28,-23 -9,-8 -18,-16 -27,-24z"/>
    </clipPath>
    <clipPath id="id3">
     <path d="M463 895c0,0 -1,0 -1,0 3,-6 6,-13 9,-20 3,-6 6,-13 9,-20 3,-6 6,-13 10,-19 3,-7 6,-14 10,-20 3,-6 7,-13 10,-19 4,-7 8,-13 11,-19 4,-6 8,-13 12,-19 4,-6 7,-12 11,-18 4,-6 9,-12 13,-18 3,-5 6,-10 10,-14 3,-5 6,-10 10,-14 3,-5 6,-9 10,-14 3,-4 7,-9 11,-13 3,-4 7,-9 10,-13 4,-5 8,-9 11,-13 4,-4 8,-9 12,-13 4,-4 7,-8 11,-12 4,-5 8,-9 12,-13 4,-4 9,-9 13,-13 4,-4 9,-8 13,-13 5,-4 9,-8 14,-12 4,-4 9,-8 13,-12 5,-4 9,-9 14,-12 5,-4 10,-8 14,-12 5,-4 10,-8 15,-12 5,-3 9,-7 14,-11 5,-3 10,-7 15,-11 13,-9 27,-18 41,-27 14,-9 28,-18 42,-26 14,-8 29,-16 44,-23 1,-1 2,-1 3,-2 2,2 4,4 5,6 2,2 4,4 6,6 2,2 3,4 5,6 2,2 4,4 6,6 2,3 3,5 5,7 2,2 4,4 6,6 2,2 4,4 6,7 2,2 4,4 6,6 2,3 4,5 5,7 2,2 4,5 6,7 2,2 4,4 6,7 2,2 4,4 6,7 2,2 4,4 6,6 0,0 0,0 0,1 -11,5 -22,10 -34,16 -11,6 -23,12 -34,18 -6,4 -13,8 -19,11 -6,4 -13,8 -19,12 -6,4 -12,8 -19,13 -6,4 -12,8 -18,12 -6,5 -12,9 -18,14 -5,4 -11,9 -17,13 -6,5 -11,10 -17,15 -6,4 -11,9 -17,14 -5,5 -11,10 -16,15 -6,6 -11,11 -17,17 -6,5 -11,11 -16,17 -6,6 -11,12 -16,17 -6,6 -11,12 -16,18 -5,6 -10,13 -15,19 -5,6 -10,12 -14,19 -5,6 -10,13 -14,19 -5,7 -9,13 -13,20 -3,4 -6,8 -8,12 -1,1 -2,2 -2,3 -4,5 -8,9 -13,14 -4,5 -8,10 -13,14 -5,5 -10,9 -15,14 -5,4 -10,8 -16,12 -5,3 -11,7 -17,10 -6,3 -13,5 -19,8 -7,2 -14,4 -21,5 -7,1 -15,2 -23,2 -8,1 -16,0 -24,-1z"/>
    </clipPath>
    <clipPath id="id4">
     <path d="M1537 460c-3,-1 -6,-2 -8,-2 -3,-1 -6,-2 -9,-3 -3,0 -6,-1 -9,-2 -3,0 -5,-1 -8,-2 -3,0 -6,-1 -9,-2 -3,0 -6,-1 -9,-2 -3,0 -6,-1 -9,-1 -3,-1 -5,-1 -8,-2 -3,0 -6,-1 -9,-1 -1,-1 -2,-1 -3,-1 -1,0 -2,0 -3,0 -1,-1 -2,-1 -3,-1 -1,0 -2,0 -3,0 0,0 -1,-1 -2,-1 -1,0 -2,0 -3,0 -1,0 -2,0 -3,-1 -1,0 -2,0 -3,0 -1,0 -2,0 -3,0 -8,-2 -17,-3 -26,-4 0,-2 0,-5 0,-8 0,-4 0,-8 0,-12 0,-5 0,-9 0,-13 0,-4 0,-8 0,-13 0,-4 0,-8 0,-12 0,-4 0,-8 0,-13 0,-4 0,-8 0,-12 0,-4 0,-9 0,-13 0,-4 0,-8 0,-12 13,1 27,3 40,4 13,2 27,4 40,7 13,2 26,5 39,8 13,3 26,6 39,9 12,4 25,8 38,12 12,4 25,8 37,13 12,4 24,9 36,14 12,5 24,10 36,16 12,5 24,11 35,17 6,3 12,7 19,10 6,3 12,7 18,10 6,4 12,7 18,11 6,3 12,7 17,11 6,4 12,7 18,11 6,4 11,8 17,12 6,4 11,8 17,12 5,5 11,9 16,13 6,4 11,9 17,13 2,2 4,3 6,5 2,1 4,3 6,5 2,1 4,3 6,5 2,1 4,3 5,5 2,2 4,3 6,5 2,2 4,3 6,5 2,2 4,4 6,5 2,2 4,4 6,6 2,1 3,3 5,5 5,5 10,9 15,14 5,5 9,10 14,14 5,5 9,10 14,15 5,5 9,10 14,15 4,5 9,10 13,15 4,6 9,11 13,16 4,5 8,10 13,16 4,5 8,11 12,16 4,5 8,11 12,16 1,2 2,4 4,6 1,2 2,3 3,5 2,2 3,4 4,6 1,2 3,3 4,5 1,2 2,4 4,6 1,2 2,4 3,5 1,2 3,4 4,6 1,2 2,4 3,6 2,2 3,3 4,5 4,6 7,12 11,18 3,6 7,13 10,19 4,6 7,12 10,18 4,7 7,13 10,19 3,6 6,13 9,19 3,7 6,13 9,20 3,6 6,13 8,19 3,7 6,13 8,20 3,7 5,13 8,20 -3,0 -5,-1 -8,-1 -2,0 -5,-1 -7,-1 -3,-1 -5,-1 -8,-2 -2,0 -5,-1 -7,-1 -3,-1 -5,-2 -8,-3 -2,0 -4,-1 -7,-2 -2,-1 -5,-2 -7,-3 -3,0 -5,-2 -8,-3 -2,-1 -4,-2 -7,-3 -6,-3 -13,-7 -19,-11 -6,-4 -12,-8 -18,-13 -6,-5 -12,-10 -18,-16 -6,-6 -11,-12 -16,-19 -3,-3 -5,-6 -7,-10 -3,-3 -6,-7 -8,-11 -5,-6 -9,-12 -13,-17 -4,-6 -8,-12 -12,-17 -4,-5 -8,-10 -12,-14 -3,-5 -7,-9 -10,-13 -4,-5 -7,-9 -11,-13 -3,-3 -6,-7 -10,-10 -3,-4 -6,-7 -8,-10 -1,0 -1,0 -1,0 -17,-22 -35,-42 -53,-61 -20,-21 -42,-41 -64,-59 -22,-19 -45,-36 -69,-52 -24,-17 -49,-32 -75,-45 -26,-14 -52,-26 -80,-37 -27,-11 -55,-20 -84,-28z"/>
    </clipPath>
    <clipPath id="id5">
     <path d="M654 736c-2,-3 -3,-5 -4,-8 -1,-3 -1,-7 -1,-10 0,-4 1,-9 2,-13 0,-3 1,-5 2,-8 2,-8 4,-16 6,-23 5,-16 11,-31 18,-46 0,0 0,-1 1,-2 3,-6 6,-13 10,-19 3,-7 7,-13 11,-19 3,-6 7,-12 11,-18 5,-6 9,-12 13,-17 1,-2 2,-3 3,-4 1,-2 3,-3 4,-4 0,0 0,0 0,0 1,-2 2,-3 3,-4 1,-1 2,-2 3,-4 1,-1 2,-2 3,-4 1,-1 3,-2 4,-3 1,-1 2,-3 3,-4 1,-1 2,-2 4,-4 1,-1 2,-2 3,-3 1,-1 1,-2 2,-2 1,-1 1,-2 2,-2 1,-1 1,-2 2,-2 1,-1 2,-2 2,-2 1,-1 2,-2 2,-2 1,-1 2,-2 2,-2 1,-1 1,-1 2,-2 0,0 1,0 1,-1 1,-1 3,-2 4,-3 2,-1 3,-2 4,-3 7,-4 13,-9 20,-13 6,-5 13,-9 19,-13 7,-5 14,-9 20,-13 7,-4 14,-8 21,-12 7,-4 13,-8 20,-12 7,-4 14,-7 21,-11 8,-4 15,-7 22,-11 7,-3 14,-6 22,-10 7,-3 14,-6 21,-9 20,-8 40,-16 61,-23 3,-1 6,-2 10,-3 23,-8 48,-15 72,-20 25,-6 50,-11 75,-15 1,0 3,0 4,-1 27,-4 55,-6 82,-8 29,-1 58,-2 87,-1 29,1 58,4 87,8 29,3 58,8 86,15 21,5 41,10 61,16 5,3 9,6 14,8 15,11 30,22 42,34 2,1 3,2 4,3 1,1 2,2 4,3 1,1 2,3 3,4 1,1 2,2 3,3 2,1 3,2 4,3 1,2 2,3 3,4 1,1 2,2 3,3 1,1 2,2 3,4 1,1 2,2 3,3 2,2 4,4 5,6 2,2 4,4 5,6 2,2 3,4 5,6 1,2 3,4 4,6 1,2 3,4 4,6 1,2 2,4 4,6 1,2 2,3 3,5 0,0 0,0 0,1 1,1 2,3 3,5 1,2 2,4 3,6 1,2 2,3 3,5 2,4 3,8 4,12 1,4 1,7 -1,9 0,2 -2,4 -4,5 0,0 0,0 0,0 -1,0 -1,0 -1,0 0,0 0,0 0,0 0,0 -1,0 -1,0 0,0 -1,0 -1,0 0,0 -1,0 -1,0 0,1 -1,1 -1,1 0,0 -1,0 -1,0 -5,0 -11,-1 -18,-3 -2,0 -4,-1 -7,-2 -34,-16 -68,-30 -103,-42 -51,-17 -102,-28 -154,-35 -52,-6 -104,-8 -156,-5 -52,4 -103,12 -153,25 -51,13 -100,31 -147,53 -47,23 -92,50 -134,81 -43,31 -83,67 -119,107 -5,6 -10,11 -15,17 -4,5 -8,9 -12,15 -4,2 -7,4 -9,5 -2,1 -3,1 -4,2 -1,0 -2,1 -3,1 -1,0 -2,1 -3,1 -1,0 -1,0 -2,1 -1,0 -2,0 -3,0 -1,0 -1,0 -2,0 -1,-1 -1,-1 -2,-1 0,0 -1,0 -1,0 -1,-1 -1,-1 -2,-1 0,-1 -1,-2 -2,-2z"/>
    </clipPath>
   <radialGradient id="id6" gradientUnits="userSpaceOnUse" gradientTransform="matrix(1.41421 -0 -0 1.41421 -547 -518)" cx="1319.44" cy="1250" r="2973.67" fx="1319.44" fy="1250">
    <stop offset="0" stop-opacity="1" stop-color="#FEFEFE"/>
    <stop offset="0.580392" stop-opacity="1" stop-color="#FEFEFE"/>
    <stop offset="0.678431" stop-opacity="1" stop-color="#DCE0E7"/>
    <stop offset="0.701961" stop-opacity="1" stop-color="#2B2A29"/>
    <stop offset="1" stop-opacity="1" stop-color="#2B2A29"/>
   </radialGradient>
   <linearGradient id="id7" gradientUnits="userSpaceOnUse" x1="2334.76" y1="134.5" x2="1867.12" y2="802.37">
    <stop offset="0" stop-opacity="1" stop-color="#E1E5EB"/>
    <stop offset="0.6" stop-opacity="1" stop-color="#FEFEFE"/>
    <stop offset="1" stop-opacity="1" stop-color="#FEFEFE"/>
   </linearGradient>
    <clipPath id="id8">
     <path d="M1825 442c3,-4 7,-7 10,-11 4,-3 7,-6 11,-10 3,-3 7,-7 11,-10 3,-4 7,-7 10,-11 4,-3 7,-7 11,-11 4,-3 7,-7 11,-10 1,-2 2,-3 3,-4 2,-2 4,-4 6,-5 0,-1 1,-2 2,-3 3,-3 7,-7 11,-11 3,-4 7,-7 11,-11 1,-2 2,-3 4,-4 1,-2 2,-3 3,-4 2,-2 3,-3 4,-4 1,-2 3,-3 4,-4 1,-2 3,-3 4,-4 1,-2 2,-3 4,-4 1,-2 2,-3 3,-4 2,-2 3,-3 4,-4 1,-2 3,-3 4,-4 0,-1 0,-1 1,-1 0,0 0,0 0,-1 0,0 1,0 1,0 0,-1 0,-1 0,-1 1,0 1,-1 1,-1 0,0 1,0 1,-1 0,0 0,0 0,0 1,0 1,-1 1,-1 0,0 1,0 1,-1 4,-5 9,-10 14,-15 4,-5 9,-10 14,-15 4,-5 9,-10 14,-16 4,-5 9,-10 13,-15 5,-5 10,-10 14,-16 5,-5 9,-10 14,-15 4,-6 9,-11 13,-16 5,-5 9,-11 14,-16 1,-1 1,-2 2,-3 2,0 3,0 4,1 0,0 1,0 1,0 0,0 1,0 1,0 1,0 1,1 1,1 1,0 1,0 1,0 0,0 0,0 0,0 1,0 1,0 1,0 1,0 1,0 1,0 1,0 1,1 1,1 1,0 1,0 1,0 1,0 1,0 1,0 1,0 1,0 1,0 1,0 1,1 2,1 0,0 0,0 1,0 0,0 1,0 1,0 0,0 1,0 1,1 1,0 1,0 1,0 1,0 1,0 2,0 0,0 0,0 1,1 0,0 1,0 1,0 0,0 0,0 0,0 0,0 0,0 0,0 0,0 0,0 0,0 0,0 0,0 0,0 0,0 1,0 1,0 0,0 0,0 0,0 0,0 0,0 0,0 0,0 0,0 0,0 0,0 0,0 0,0 0,0 0,0 0,0 0,0 0,0 0,0 0,0 0,0 0,0 1,0 1,0 1,0 -1,1 -1,1 -1,1 -2,2 -4,4 -5,6 -2,1 -3,3 -5,5 -2,1 -3,3 -5,5 -1,1 -3,3 -4,5 -2,1 -4,3 -5,4 -2,2 -3,4 -4,5 -1,0 -1,0 -1,0 -4,5 -8,10 -13,14 -4,5 -8,9 -12,13 -1,1 -2,2 -3,3 -2,2 -4,4 -6,6 -1,1 -2,3 -3,4 -4,4 -8,7 -11,11 -4,4 -7,8 -11,11 -3,4 -7,7 -10,11 -3,3 -7,7 -10,10 -3,4 -7,7 -10,10 -3,3 -6,7 -9,10 -1,1 -3,2 -4,3 -1,1 -2,2 -3,3 -1,1 -2,2 -3,3 -1,1 -2,2 -3,3 -1,1 -2,2 -3,3 -1,1 -2,2 -3,3 -1,1 -2,2 -3,3 -1,1 -2,2 -3,3 -1,1 -2,2 -2,3 -1,1 -2,1 -3,2 -1,1 -1,2 -2,2 -1,1 -2,2 -3,3 0,1 -1,1 -2,2 -1,1 -1,2 -2,2 -1,1 -1,1 -2,2 0,0 0,0 -1,1 -1,1 -1,1 -2,2 -1,1 -2,2 -3,3 -1,1 -2,1 -3,2 -2,3 -5,6 -8,8 -3,3 -6,6 -9,8 0,0 0,0 0,1 -5,4 -9,8 -13,12 -5,4 -9,7 -14,11 -4,4 -8,7 -12,10 -3,2 -5,4 -8,6 -1,1 -2,2 -3,3 -4,3 -8,6 -11,8 -4,2 -7,4 -10,6 -3,2 -6,4 -9,6z"/>
    </clipPath>
    <clipPath id="id9">
     <path d="M2121 751c3,-4 6,-7 10,-11 3,-3 7,-7 10,-10 4,-4 7,-8 11,-11 3,-4 7,-7 10,-11 4,-3 7,-7 11,-11 3,-3 7,-7 11,-10 1,-1 2,-3 3,-4 2,-2 4,-3 6,-5 0,-1 1,-2 2,-2 4,-4 7,-8 11,-11 4,-4 8,-8 12,-11 1,-2 2,-3 4,-4 1,-1 2,-3 4,-4 1,-1 2,-2 3,-4 2,-1 3,-2 4,-4 2,-1 3,-2 4,-3 2,-2 3,-3 5,-4 1,-1 2,-3 4,-4 1,-1 2,-2 4,-4 1,-1 2,-2 4,-3 0,-1 0,-1 0,-1 0,0 1,0 1,-1 0,0 0,0 1,0 0,-1 0,-1 0,-1 1,0 1,0 1,-1 0,0 1,0 1,0 0,-1 0,-1 0,-1 1,0 1,0 1,-1 0,0 1,0 1,0 5,-5 10,-10 15,-15 6,-4 11,-9 16,-14 6,-5 11,-10 17,-15 5,-5 11,-10 16,-15 6,-4 11,-9 17,-14 6,-5 11,-10 17,-15 5,-4 11,-9 16,-14 6,-4 11,-9 16,-13 1,-1 3,-2 4,-3 -1,-1 -1,-2 -1,-3 0,-1 0,-1 -1,-2 0,0 0,-1 0,-1 0,0 0,-1 0,-1 0,0 0,0 0,-1 0,0 0,0 0,0 0,-1 -1,-1 -1,-1 0,-1 0,-1 0,-1 0,0 0,-1 0,-1 0,0 0,-1 0,-1 0,0 -1,-1 -1,-1 0,0 0,-1 0,-1 0,-1 0,-1 0,-1 0,-1 0,-1 0,-1 -1,-1 -1,-1 -1,-2 0,0 0,0 0,-1 0,0 0,-1 0,-1 0,-1 -1,-1 -1,-1 0,-1 0,-1 0,-2 0,0 0,-1 0,-1 0,0 0,0 0,0 0,0 0,0 0,0 0,0 0,0 0,0 0,0 0,0 0,0 0,0 0,0 0,0 0,0 0,0 0,0 0,0 0,0 0,0 0,0 0,0 0,0 0,0 0,0 0,0 0,-1 0,-1 0,-1 0,0 -1,0 -1,0 0,0 0,0 0,0 0,0 0,0 0,0 0,0 -1,0 -1,1 -2,1 -4,3 -6,5 -2,2 -4,4 -6,6 -2,2 -4,4 -6,6 -3,2 -5,4 -7,6 -2,2 -4,3 -6,5 -2,2 -3,3 -5,5 0,0 0,0 0,0 -5,5 -9,9 -14,13 -4,4 -9,9 -13,13 -1,1 -2,1 -2,2 -3,2 -5,4 -7,6 -1,1 -2,2 -4,4 -3,3 -7,7 -11,11 -4,3 -7,7 -11,10 -4,4 -7,7 -11,11 -3,3 -7,6 -10,10 -3,3 -7,6 -10,9 -3,4 -6,7 -10,10 -1,1 -2,2 -3,3 -1,1 -2,2 -3,3 -1,1 -2,2 -3,3 -1,1 -2,2 -3,3 -1,1 -2,2 -3,3 -1,1 -2,2 -3,3 -1,1 -2,2 -3,3 -1,1 -2,2 -3,3 -1,1 -2,2 -3,3 0,1 -1,2 -2,2 -1,1 -1,2 -2,3 -1,0 -2,1 -3,2 0,1 -1,2 -2,2 -1,1 -1,2 -2,3 0,0 -1,1 -1,1 -1,0 -1,1 -1,1 -1,1 -2,2 -3,3 -1,1 -2,2 -2,2 -1,1 -2,2 -3,3 -3,3 -5,6 -8,9 -3,2 -5,5 -8,8 0,0 0,0 0,0 -4,5 -8,9 -12,14 -4,4 -8,9 -12,13 -3,4 -7,8 -10,12 -2,3 -4,6 -6,8 -1,1 -2,3 -3,4 -3,4 -5,7 -8,11 -2,3 -4,6 -6,10 -2,3 -4,6 -5,9z"/>
    </clipPath>
    <clipPath id="id10">
     <path d="M2246 322c-1,-1 -2,-3 -4,-4 -1,-1 -2,-2 -3,-3 -1,-1 -2,-2 -4,-4 -1,-1 -2,-2 -3,-3 -1,-1 -2,-2 -3,-3 -2,-1 -3,-2 -4,-4 -1,-1 -2,-2 -3,-3 -2,-1 -3,-2 -4,-3 -1,-1 -2,-2 -4,-3 -1,-2 -2,-3 -3,-4 -2,-1 -3,-2 -4,-4 -2,-1 -3,-2 -4,-3 -1,-1 -3,-2 -4,-4 -1,-1 -3,-2 -4,-3 -1,-1 -3,-2 -4,-4 -1,-1 -2,-2 -4,-3 -1,-1 -2,-2 -4,-4 -1,-1 -2,-2 -4,-3 -5,-5 -10,-9 -16,-14 -5,-4 -11,-9 -16,-13 -6,-5 -11,-9 -17,-13 -5,-5 -11,-9 -16,-13 -6,-5 -12,-9 -17,-13 -6,-4 -12,-8 -17,-12 -6,-4 -12,-8 -18,-12 -6,-4 -11,-8 -17,-12 -6,-4 -12,-8 -18,-12 -30,-19 -61,-37 -92,-54 0,0 -1,0 -1,0 -1,-1 -2,-1 -4,-2 -1,-1 -2,-2 -4,-2 -1,-1 -3,-2 -4,-3 -1,-1 -3,-1 -4,-2 -1,-1 -2,-2 -3,-3 -1,-1 -2,-2 -3,-3 -1,0 -1,-1 -1,-1 -4,-4 -6,-8 -7,-12 -2,-5 -2,-9 -2,-14 0,-1 0,-2 0,-3 1,-1 1,-2 1,-3 0,-1 1,-2 1,-3 0,-1 1,-2 1,-3 0,-1 1,-2 1,-2 1,-1 1,-2 2,-3 0,-1 1,-2 1,-3 1,0 1,-1 2,-2 1,-1 1,-1 2,-2 1,-1 2,-2 3,-3 1,0 2,-1 3,-2 1,0 2,-1 3,-2 1,0 2,-1 3,-1 1,-1 2,-1 3,-1 2,-1 3,-1 4,-1 1,-1 3,-1 4,-1 1,0 2,0 2,0 3,0 6,0 9,0 9,0 17,0 25,0 10,0 19,0 29,0 9,0 19,0 28,0 10,0 19,0 29,0 9,0 19,0 28,0 10,0 19,0 29,0 9,0 18,0 28,0 9,0 19,0 28,0 10,0 19,0 29,0 9,0 19,0 28,0 11,0 22,0 33,0 11,0 22,0 33,0 11,0 21,0 32,0 11,0 22,0 33,0 11,0 22,0 33,0 11,0 22,0 33,0 11,0 21,0 32,0 11,0 22,0 33,0 11,0 22,0 33,0 0,0 1,0 1,0 1,0 1,0 2,0 0,0 1,0 1,0 1,0 1,1 1,1 1,0 1,0 2,0 0,0 1,0 1,0 1,0 1,0 2,1 0,0 0,0 1,0 0,0 1,0 1,1 1,0 1,0 1,0 1,0 1,1 2,1 0,0 0,0 1,0 0,1 1,1 1,1 0,0 1,1 1,1 0,0 1,0 1,1 0,0 1,0 1,1 1,0 1,0 1,0 1,1 1,1 1,1 0,1 1,1 1,1 0,0 0,1 0,1 1,0 1,0 1,1 0,0 1,0 1,0 0,1 0,1 0,1 0,0 1,1 1,1 0,0 0,0 0,1 1,0 1,0 1,0 0,1 0,1 0,1 1,1 1,2 2,3 0,0 0,1 0,1 1,2 1,3 2,5 0,1 0,3 0,4 0,1 0,2 0,3 0,8 0,17 0,27 0,20 0,43 0,67 0,24 0,49 0,74 0,25 0,51 0,76 0,25 0,49 0,71 0,23 0,43 0,61 0,17 0,31 0,44 0,13 0,24 0,34 0,11 0,20 0,30 0,10 0,19 0,30 0,10 0,22 0,35 0,11 0,24 0,39 0,0 0,0 0,0 0,1 0,3 0,4 0,1 0,2 -1,3 0,1 0,2 -1,3 0,0 0,0 0,1 0,0 0,0 0,0 -1,0 -1,1 -1,1 0,0 0,0 0,1 0,0 -1,0 -1,0 0,1 0,1 0,1 0,0 0,1 -1,1 0,0 0,0 0,0 0,1 0,1 -1,1 0,0 0,0 0,1 0,0 0,0 -1,0 0,0 0,1 0,1 0,0 0,0 -1,0 0,1 0,1 0,1 0,0 0,0 -1,1 0,0 0,0 0,0 0,0 -1,1 -1,1 0,0 0,0 0,0 -1,1 -1,1 -1,1 -1,1 -1,1 -2,1 0,1 -1,1 -1,1 0,1 -1,1 -1,1 -1,1 -1,1 -2,1 0,1 -1,1 -1,1 0,0 -1,1 -1,1 -1,0 -1,0 -2,1 0,0 -1,0 -1,0 -1,1 -2,1 -3,2 -1,0 -2,0 -3,1 -1,0 -2,0 -3,0 -1,1 -2,1 -3,1 -1,0 -2,0 -3,0 -1,0 -2,-1 -3,-1 -1,0 -2,0 -3,0 -1,-1 -2,-1 -3,-1 -1,-1 -2,-1 -3,-1 -1,-1 -3,-2 -4,-3 -2,-1 -4,-2 -5,-4 -2,-1 -3,-2 -5,-4 -1,-1 -2,-3 -4,-4 -1,-2 -2,-4 -3,-5 -1,-2 -2,-4 -4,-5 -1,-2 -2,-4 -2,-5 -1,-1 -1,-2 -2,-2 -6,-12 -12,-24 -19,-35 -10,-19 -21,-37 -33,-55 -3,-5 -6,-10 -9,-14 -3,-5 -6,-10 -9,-14 -3,-5 -7,-10 -10,-14 -3,-5 -6,-9 -9,-14 -4,-4 -7,-9 -10,-14 -4,-4 -7,-9 -10,-13 -4,-4 -7,-9 -11,-13 -3,-5 -6,-9 -10,-13 -3,-5 -7,-9 -10,-14 -4,-3 -7,-7 -10,-11 -3,-4 -6,-8 -9,-11 -4,-4 -7,-8 -10,-11 -3,-4 -7,-8 -10,-12 -3,-3 -7,-7 -10,-11 -3,-3 -7,-7 -10,-10 -4,-4 -7,-8 -10,-11 -4,-4 -7,-7 -11,-11 -3,-3 -7,-7 -10,-10z"/>
    </clipPath>
   <linearGradient id="id11" gradientUnits="userSpaceOnUse" x1="1917.28" y1="35.39" x2="2552.69" y2="35.39">
    <stop offset="0" stop-opacity="1" stop-color="#59687B"/>
    <stop offset="0.509804" stop-opacity="1" stop-color="#6C7682"/>
    <stop offset="1" stop-opacity="1" stop-color="#FEFEFE"/>
   </linearGradient>
   <linearGradient id="id12" gradientUnits="userSpaceOnUse" x1="2534.44" y1="24.57" x2="2534.44" y2="651.1">
    <stop offset="0" stop-opacity="1" stop-color="#1D2931"/>
    <stop offset="1" stop-opacity="1" stop-color="#BFC6CB"/>
   </linearGradient>
   <linearGradient id="id13" gradientUnits="userSpaceOnUse" x1="2228.89" y1="59.19" x2="2228.89" y2="620.41">
    <stop offset="0" stop-opacity="1" stop-color="#D0DCE7"/>
    <stop offset="1" stop-opacity="1" stop-color="#FEFEFE"/>
   </linearGradient>
   <linearGradient id="id14" gradientUnits="userSpaceOnUse" x1="2124.7" y1="502.07" x2="2368.83" y2="146.71">
    <stop offset="0" stop-opacity="1" stop-color="#777777"/>
    <stop offset="1" stop-opacity="1" stop-color="#FEFEFE"/>
   </linearGradient>
    <clipPath id="id15">
     <path d="M41 1576c-3,-12 -6,-23 -9,-35 -2,-12 -5,-24 -7,-36 -3,-12 -5,-25 -7,-37 -2,-12 -4,-24 -6,-36 -1,-13 -3,-25 -4,-38 -1,-12 -3,-24 -4,-37 -1,-12 -2,-25 -2,-38 -1,-12 -1,-25 -2,-37 0,-11 0,-21 0,-32 0,-2 0,-5 0,-7 0,-13 0,-25 1,-38 0,-13 1,-25 2,-38 0,-12 1,-25 2,-37 2,-13 3,-25 4,-38 2,-12 3,-24 5,-37 2,-12 4,-24 6,-36 2,-12 5,-25 7,-37 3,-12 5,-24 8,-35 3,-12 6,-24 9,-36 1,-2 1,-4 2,-6 0,-1 0,-1 0,-1 0,0 0,-1 0,-1 0,0 0,0 0,-1 1,0 1,0 1,0 0,0 0,-1 0,-1 0,0 0,0 0,-1 1,0 1,0 1,0 0,0 0,0 0,-1 1,1 2,1 3,1 3,1 7,3 10,4 2,0 4,1 6,2 2,0 4,1 6,2 2,0 4,1 6,2 2,0 4,1 6,2 2,0 4,1 6,2 2,0 4,1 6,2 2,0 4,1 6,2 3,0 5,1 7,2 2,1 4,1 6,2 1,1 3,2 4,3 1,1 2,2 2,3 1,2 1,3 2,5 0,0 0,0 0,0 0,0 0,0 -1,0 0,1 0,1 0,1 0,0 0,1 0,1 0,0 0,0 0,0 -9,32 -16,64 -22,97 -6,34 -11,69 -14,104 -4,35 -5,71 -6,107 0,2 0,4 0,6 0,33 2,66 4,98 3,34 7,68 13,101 5,33 12,66 21,99 0,1 0,2 1,4 0,0 0,1 0,2 0,0 1,1 1,1 1,1 1,2 1,2 0,0 0,0 0,0 0,1 -1,2 -1,3 -1,1 -2,1 -2,2 -1,1 -2,1 -3,2 -2,1 -4,1 -6,2 -2,1 -5,1 -7,2 -2,1 -4,1 -6,2 -2,1 -4,2 -6,2 -2,1 -4,2 -6,2 -2,1 -4,2 -6,2 -2,1 -4,2 -6,2 -3,1 -5,2 -7,2 -2,1 -4,2 -6,3 -3,1 -6,2 -10,3 -1,0 -3,1 -5,2 0,0 0,-1 -1,-1 0,0 0,0 0,0 0,-1 0,-1 0,-1 -1,0 -1,-1 -1,-1 0,0 0,0 0,-1 0,0 0,0 -1,-1 0,0 0,0 0,0 0,-1 0,-1 0,-1 0,-2 -1,-3 -1,-5z"/>
    </clipPath>
    <clipPath id="id16">
     <path d="M2598 1576c3,-12 6,-23 9,-35 2,-12 5,-24 7,-36 3,-12 5,-25 7,-37 2,-12 4,-24 5,-36 2,-13 4,-25 5,-38 1,-12 3,-24 4,-37 1,-12 1,-25 2,-38 1,-12 1,-25 2,-37 0,-11 0,-21 0,-32 0,-2 0,-5 0,-7 0,-13 0,-25 -1,-38 0,-13 -1,-25 -2,-38 0,-12 -1,-25 -3,-37 -1,-13 -2,-25 -3,-38 -2,-12 -4,-24 -5,-37 -2,-12 -4,-24 -6,-36 -2,-12 -5,-25 -7,-37 -3,-12 -5,-24 -8,-35 -3,-12 -6,-24 -9,-36 -1,-2 -1,-4 -2,-6 0,-1 0,-1 0,-1 0,0 0,-1 0,-1 0,0 0,0 -1,-1 0,0 0,0 0,0 0,0 0,-1 0,-1 0,0 0,0 -1,-1 0,0 0,0 0,0 0,0 0,0 0,-1 -1,1 -2,1 -4,1 -3,1 -6,3 -9,4 -2,0 -4,1 -6,2 -2,0 -4,1 -6,2 -2,0 -4,1 -6,2 -2,0 -4,1 -6,2 -2,0 -4,1 -6,2 -2,0 -4,1 -6,2 -2,0 -5,1 -7,2 -2,0 -4,1 -6,2 -2,1 -4,1 -6,2 -1,1 -3,2 -4,3 -1,1 -2,2 -2,3 -1,2 -2,3 -2,5 0,0 0,0 0,0 0,0 0,0 0,0 1,1 1,1 1,1 0,0 0,1 0,1 0,0 0,0 0,0 9,32 16,64 22,97 6,34 11,69 14,104 4,35 5,71 6,107 0,2 0,4 0,6 0,33 -2,66 -4,98 -3,34 -7,68 -13,101 -5,33 -12,66 -21,99 0,1 0,2 -1,4 0,0 0,1 0,2 -1,0 -1,1 -1,1 -1,1 -1,2 -1,2 0,0 0,0 0,0 0,1 0,2 1,3 1,1 2,1 2,2 1,1 2,1 3,2 2,1 4,1 6,2 2,1 4,1 6,2 3,1 5,1 7,2 2,1 4,2 6,2 2,1 4,2 6,2 2,1 4,2 6,2 2,1 4,2 6,2 2,1 4,2 7,2 2,1 4,2 6,3 3,1 6,2 9,3 2,0 4,1 6,2 0,0 0,-1 0,-1 1,0 1,0 1,0 0,-1 0,-1 0,-1 0,0 1,-1 1,-1 0,0 0,0 0,-1 0,0 0,0 0,-1 1,0 1,0 1,0 0,-1 0,-1 0,-1 0,-2 1,-3 1,-5z"/>
    </clipPath>
    <clipPath id="id17">
     <path d="M62 897c0,0 0,0 0,0 0,0 -1,0 -1,0 0,0 0,0 0,0 0,0 -1,0 -1,0 0,0 0,0 0,0 0,-1 -1,-1 -1,-1 0,0 0,0 0,0 -1,0 -1,0 -1,0 0,0 0,0 0,0 -1,0 -2,-1 -3,-1 0,0 -1,0 -2,-1 0,0 0,0 0,0 1,0 1,0 1,0 0,0 0,0 0,0 0,0 0,0 0,0 0,0 0,0 0,0 0,0 0,0 0,0 0,0 0,0 0,0 0,0 0,0 0,0 0,0 1,0 1,0 0,0 0,0 0,0 0,0 0,0 0,-1 1,0 1,0 1,0 0,0 0,0 0,0 0,0 0,0 0,0 1,0 1,0 1,0 0,0 0,0 0,0 0,0 0,0 1,0 0,0 0,0 1,0 0,-1 0,-1 0,-1 1,0 1,0 1,0 1,0 1,0 1,0 1,0 1,0 1,0 24,0 48,0 72,0 46,0 92,0 138,0 46,0 92,0 138,0 46,0 92,0 138,0 46,0 92,0 138,0 24,0 47,0 71,0 23,0 47,0 70,0 24,0 47,0 70,0 24,0 47,0 71,0 23,0 47,0 70,0 24,0 47,0 70,0 24,0 47,0 71,0 23,0 47,0 70,0 24,0 47,0 70,0 0,1 0,1 0,2 0,1 0,1 0,2 0,0 0,1 0,1 0,1 0,2 0,2 0,1 0,1 0,2 0,0 0,1 0,2 0,0 0,1 0,1 0,1 0,2 0,2 0,1 0,1 0,2 0,0 0,1 0,2 0,0 0,1 0,1 0,1 0,2 0,2 0,1 0,1 0,2 0,0 0,1 0,2 0,0 0,1 0,1 0,1 0,1 0,2 0,1 0,1 0,2 0,0 0,1 0,2 -23,0 -46,0 -70,0 -23,0 -47,0 -70,0 -24,0 -47,0 -71,0 -23,0 -46,0 -70,0 -23,0 -47,0 -70,0 -24,0 -47,0 -71,0 -23,0 -46,0 -70,0 -23,0 -47,0 -70,0 -24,0 -47,0 -71,0 -42,0 -84,0 -126,0 -42,0 -84,0 -126,0 -42,0 -84,0 -126,0 -42,0 -85,0 -127,0 -3,0 -7,0 -11,0 -5,-1 -9,-1 -14,-2 -5,0 -9,-1 -13,-2 -5,-1 -9,-1 -13,-2 -4,-1 -8,-2 -12,-3 -4,-1 -8,-2 -11,-3 -2,0 -3,-1 -5,-1 -1,-1 -3,-1 -4,-2 -2,0 -4,-1 -5,-1 -2,-1 -3,-1 -5,-2 -1,0 -3,-1 -5,-1 -1,-1 -3,-2 -5,-2 -1,-1 -3,-1 -5,-2 -2,0 -3,-1 -5,-2 -2,0 -4,-1 -6,-2z"/>
    </clipPath>
    <clipPath id="id18">
     <path d="M2577 897c0,0 0,0 0,0 0,0 0,0 1,0 0,0 0,0 0,0 0,0 0,0 1,0 0,0 0,0 0,0 0,-1 1,-1 1,-1 0,0 0,0 0,0 0,0 1,0 1,0 0,0 0,0 0,0 1,0 2,-1 2,-1 1,0 2,0 2,-1 0,0 0,0 0,0 0,0 0,0 0,0 0,0 0,0 0,0 0,0 0,0 0,0 0,0 0,0 0,0 0,0 0,0 0,0 0,0 0,0 0,0 0,0 0,0 0,0 -1,0 -1,0 -1,0 0,0 0,0 0,0 0,0 0,0 0,-1 -1,0 -1,0 -1,0 0,0 0,0 0,0 0,0 0,0 -1,0 0,0 0,0 0,0 0,0 0,0 0,0 0,0 -1,0 -1,0 0,0 0,0 -1,0 0,-1 0,-1 -1,-1 0,0 0,0 -1,0 0,0 0,0 -1,0 0,0 0,0 0,0 -24,0 -48,0 -73,0 -46,0 -92,0 -138,0 -46,0 -92,0 -138,0 -46,0 -92,0 -138,0 -46,0 -92,0 -138,0 -23,0 -46,0 -70,0 -23,0 -47,0 -70,0 -24,0 -47,0 -71,0 -23,0 -46,0 -70,0 -23,0 -47,0 -70,0 -24,0 -47,0 -71,0 -23,0 -46,0 -70,0 -23,0 -47,0 -70,0 -24,0 -47,0 -71,0 0,1 0,1 0,2 0,1 0,1 0,2 0,0 0,1 0,1 0,1 0,2 0,2 0,1 0,1 0,2 0,0 0,1 0,2 0,0 0,1 0,1 0,1 0,2 0,2 0,1 0,1 0,2 0,0 0,1 0,2 0,0 0,1 0,1 0,1 0,2 0,2 0,1 0,1 0,2 0,0 0,1 0,2 0,0 0,1 0,1 0,1 0,1 0,2 0,1 0,1 0,2 0,0 0,1 0,2 24,0 47,0 71,0 23,0 47,0 70,0 24,0 47,0 70,0 24,0 47,0 71,0 23,0 47,0 70,0 24,0 47,0 70,0 24,0 47,0 71,0 23,0 47,0 70,0 24,0 47,0 70,0 43,0 85,0 127,0 42,0 84,0 126,0 42,0 84,0 126,0 42,0 84,0 127,0 3,0 7,0 11,0 5,-1 9,-1 14,-2 4,0 9,-1 13,-2 5,-1 9,-1 13,-2 4,-1 8,-2 12,-3 4,-1 7,-2 11,-3 2,0 3,-1 5,-1 1,-1 3,-1 4,-2 2,0 3,-1 5,-1 2,-1 3,-1 5,-2 1,0 3,-1 5,-1 1,-1 3,-2 5,-2 1,-1 3,-1 5,-2 1,0 3,-1 5,-2 2,0 4,-1 6,-2z"/>
    </clipPath>
   <linearGradient id="id19" gradientUnits="userSpaceOnUse" x1="1319.44" y1="1593.45" x2="1319.44" y2="1562.09">
    <stop offset="0" stop-opacity="1" stop-color="#6A7581"/>
    <stop offset="0.658824" stop-opacity="1" stop-color="#6A7581"/>
    <stop offset="1" stop-opacity="1" stop-color="#FEFEFE"/>
   </linearGradient>
 </defs>
 <g id="Layer_x0020_1">
  <metadata id="CorelCorpID_0Corel-Layer"/>
  <path fill="url(#id0)" d="M1319 0c691,0 1250,560 1250,1250 0,690 -559,1250 -1250,1250 -690,0 -1250,-560 -1250,-1250 0,-690 560,-1250 1250,-1250zm0 431c453,0 820,367 820,819 0,453 -367,819 -820,819 -452,0 -819,-366 -819,-819 0,-452 367,-819 819,-819z"/>
  <path fill="url(#id1)" d="M1319 323c513,0 928,415 928,927 0,512 -415,927 -928,927 -512,0 -927,-415 -927,-927 0,-512 415,-927 927,-927zm0 108c453,0 820,367 820,819 0,453 -367,819 -820,819 -452,0 -819,-366 -819,-819 0,-452 367,-819 819,-819z"/>
  <g>
   <g clip-path="url(#id2)">
    <image x="400" y="1509" width="1824" height="711" xlink:href="8996-vehicle_volvo-ed8ca897-9b26-4797-a2c9-6929569323a9_Images\8996-vehicle_volvo-ed8ca897-9b26-4797-a2c9-6929569323a9_ImgID1.png"/>
   </g>
  </g>
  <path fill="#FEFEFE" d="M1319 71c652,0 1179,528 1179,1179 0,651 -527,1179 -1179,1179 -651,0 -1178,-528 -1178,-1179 0,-651 527,-1179 1178,-1179zm0 -9c657,0 1189,532 1189,1188 0,656 -532,1188 -1189,1188 -656,0 -1188,-532 -1188,-1188 0,-656 532,-1188 1188,-1188z"/>
  <g>
   <g clip-path="url(#id3)">
    <image x="420" y="376" width="605" height="562" xlink:href="8996-vehicle_volvo-ed8ca897-9b26-4797-a2c9-6929569323a9_Images\8996-vehicle_volvo-ed8ca897-9b26-4797-a2c9-6929569323a9_ImgID2.png"/>
   </g>
  </g>
  <g>
   <g clip-path="url(#id4)">
    <image x="1365" y="285" width="869" height="692" xlink:href="8996-vehicle_volvo-ed8ca897-9b26-4797-a2c9-6929569323a9_Images\8996-vehicle_volvo-ed8ca897-9b26-4797-a2c9-6929569323a9_ImgID3.png"/>
   </g>
  </g>
  <g>
   <g clip-path="url(#id5)">
    <image x="607" y="281" width="1151" height="501" xlink:href="8996-vehicle_volvo-ed8ca897-9b26-4797-a2c9-6929569323a9_Images\8996-vehicle_volvo-ed8ca897-9b26-4797-a2c9-6929569323a9_ImgID4.png"/>
   </g>
  </g>
  <path fill="none" d="M1319 0c691,0 1250,560 1250,1250 0,690 -559,1250 -1250,1250 -690,0 -1250,-560 -1250,-1250 0,-690 560,-1250 1250,-1250z"/>
  <path fill="url(#id6)" d="M1319 1c420,0 790,206 1017,523l0 0 5 6c4,6 8,12 12,18l5 7c4,6 8,12 12,19l4 6c4,6 8,13 12,19l4 6c4,7 8,14 12,21l3 4c4,8 8,15 12,22l2 4c4,8 8,16 12,23l2 4c4,8 8,16 12,24l1 3c4,8 8,16 12,25l1 2c4,9 8,17 11,26 64,149 99,314 99,487 0,162 -31,318 -88,460 -3,8 -6,16 -9,24l-2 4c-4,8 -7,16 -10,24l-3 5c-3,7 -6,14 -10,22l-3 6c-3,7 -7,13 -10,20l-4 8c-3,6 -6,12 -10,19 -1,2 -3,5 -4,8 -4,6 -7,12 -10,17 -2,3 -4,7 -6,10 -3,5 -6,10 -9,16 -2,3 -4,7 -6,10 -3,5 -6,10 -9,14 -3,5 -5,9 -8,13 -3,4 -6,8 -8,12 -3,5 -6,9 -9,14 -3,3 -5,7 -8,10 -3,5 -7,10 -10,15 -2,3 -5,6 -7,9 -4,5 -7,10 -11,15 -3,3 -5,6 -7,9 -4,5 -8,10 -12,15 -2,3 -4,5 -6,8 -4,5 -8,10 -13,15l0 1 0 0c-229,273 -573,446 -958,446 -437,0 -822,-225 -1045,-565l0 0 -1 -1c-4,-6 -8,-13 -12,-19l-3 -5 -2 -2c-3,-6 -7,-12 -11,-18l-4 -8c-3,-6 -7,-12 -10,-18l-5 -8c-3,-6 -7,-12 -10,-18 -1,-3 -3,-6 -5,-9 -3,-6 -6,-12 -8,-18 -2,-3 -4,-6 -6,-10 -81,-166 -127,-353 -127,-550 0,-690 559,-1249 1249,-1249zm1011 529l-22 24c0,0 56,89 56,93 0,4 15,21 35,28 11,4 23,13 34,27 81,165 127,351 127,548 0,157 -29,306 -82,444 -3,-20 -1,-40 -8,-64 -5,-16 -9,-28 -12,-40 -50,168 -136,321 -250,449 37,-19 79,-40 74,-15 -1,4 -2,8 -2,12 -228,278 -573,455 -961,455 -193,0 -375,-44 -538,-123 13,2 40,6 93,10 34,2 64,5 90,6 -380,-119 -678,-423 -787,-807l-11 6c0,0 10,36 17,52 7,15 14,40 11,55 -3,14 -5,33 -1,57 1,6 0,14 -1,22 -73,-158 -113,-334 -113,-519 0,-195 45,-380 125,-545 -7,16 -13,32 -19,49 -25,72 -24,95 -17,120 7,25 -11,52 -11,52l22 -11c27,-92 65,-179 111,-259 3,-83 48,-167 79,-204 228,-271 569,-443 950,-443 197,0 383,46 548,127 9,9 21,22 27,36 14,31 43,40 72,59 41,26 90,62 92,61l28 -18c93,73 175,159 244,256zm-2028 1430c152,139 408,355 459,398 -184,-93 -342,-230 -459,-398z"/>
  <path fill="url(#id7)" d="M2388 490l-235 227 -42 43c-77,-123 -181,-227 -304,-302l10 -10 265 -265c118,85 222,188 306,307z"/>
  <g>
   <g clip-path="url(#id8)">
    <image x="1783" y="133" width="359" height="351" xlink:href="8996-vehicle_volvo-ed8ca897-9b26-4797-a2c9-6929569323a9_Images\8996-vehicle_volvo-ed8ca897-9b26-4797-a2c9-6929569323a9_ImgID5.png"/>
   </g>
  </g>
  <g>
   <g clip-path="url(#id9)">
    <image x="2079" y="429" width="357" height="364" xlink:href="8996-vehicle_volvo-ed8ca897-9b26-4797-a2c9-6929569323a9_Images\8996-vehicle_volvo-ed8ca897-9b26-4797-a2c9-6929569323a9_ImgID6.png"/>
   </g>
  </g>
  <g>
   <g clip-path="url(#id10)">
    <image x="1860" y="-27" width="737" height="737" xlink:href="8996-vehicle_volvo-ed8ca897-9b26-4797-a2c9-6929569323a9_Images\8996-vehicle_volvo-ed8ca897-9b26-4797-a2c9-6929569323a9_ImgID7.png"/>
   </g>
  </g>
  <path fill="url(#id11)" d="M1917 19l24 -7 602 2 10 8 -42 40c-5,-4 -8,-8 -14,-10l-527 0 -3 0c-19,0 -36,-22 -50,-33z"/>
  <polygon fill="#2B2A29" points="1901,42 1953,70 1951,79 1899,53 "/>
  <path fill="url(#id12)" d="M2518 597c0,0 -2,16 6,24 8,9 22,25 25,29 2,5 9,-9 9,-9l0 -23 1 -276 -1 -291c0,0 -2,-18 -5,-22 -4,-4 -3,-4 -3,-4l-40 38 3 10 1 30 -1 245 0 163 1 74 4 12z"/>
  <path fill="#FEFEFE" d="M1964 52l530 0c13,0 23,10 23,23l0 530c0,1 0,2 0,4l-8 0c1,-1 1,-3 1,-4l0 -530c0,-9 -7,-16 -16,-16l-530 0c-2,0 -3,0 -5,1l0 -8c2,0 3,0 5,0z"/>
  <path fill="#2B2A29" d="M2523 16l-585 0c-30,0 -47,39 -26,61 6,6 16,11 23,15 54,28 107,61 156,97l1 1 -6 6 0 0c-49,-36 -101,-68 -155,-97 -10,-5 -19,-11 -25,-16 -27,-28 -5,-75 32,-75l585 0c21,0 39,17 39,39l0 588c0,17 -14,30 -27,36 -20,10 -46,3 -65,-35 -28,-53 -60,-105 -96,-153l6 -6c36,49 69,101 97,155 10,20 30,44 55,32 10,-6 22,-16 22,-29l0 -588c0,-17 -14,-31 -31,-31zm-143 461l-6 6 6 -6z"/>
  <path fill="#2B2A29" d="M2489 619c0,0 13,20 19,33 6,14 9,19 9,19l12 0c0,0 -9,-19 -18,-36 -9,-16 -13,-22 -13,-22l-9 6z"/>
  <path fill="url(#id13)" d="M1964 59l530 0c9,0 16,7 16,16l0 530c0,8 -7,15 -16,15 -5,0 -11,0 -19,-14 -119,-212 -294,-389 -506,-508 -16,-9 -21,-13 -21,-23 0,-9 7,-16 16,-16z"/>
  <path fill="url(#id14)" d="M2238 328c-45,-45 -94,-86 -143,-126 -4,-3 -5,-7 -3,-11 30,21 59,45 87,69 12,10 24,21 35,32 11,9 22,19 32,30 31,31 61,64 90,98 15,19 30,38 44,58 -9,2 -9,1 -15,-4 -1,-2 -2,-3 -3,-4 -37,-51 -79,-98 -124,-142z"/>
  <path fill="#FEFEFE" d="M62 892l2515 0c8,0 14,5 16,13 30,110 46,225 46,345 0,114 -15,225 -42,331 -2,7 -9,12 -16,12l-2523 0c-8,0 -14,-5 -16,-12 -27,-106 -42,-217 -42,-331 0,-120 16,-235 46,-345 2,-8 8,-13 16,-13z"/>
  <path fill="#FEFEFE" d="M138 924l2363 0c7,0 13,4 15,11 27,100 42,206 42,314 0,104 -14,205 -39,302 -1,6 -7,11 -14,11l-2371 0c-7,0 -13,-5 -14,-11 -25,-97 -39,-198 -39,-302 0,-108 15,-214 42,-314 2,-7 8,-11 15,-11z"/>
  <path fill="#393185" d="M1169 1337l0 42 386 0 0 -126 -44 0 0 0c-3,40 -24,81 -81,84l-68 0 0 -192 66 0 0 -42 -258 0 0 42 63 0 0 192 -64 0 0 0zm-214 48c-106,0 -194,-54 -194,-140 0,-97 88,-145 194,-145 118,0 194,54 194,145 0,85 -85,140 -194,140l0 0zm0 -47c37,0 64,-42 64,-93 0,-57 -25,-100 -64,-100 -39,0 -63,43 -63,100 0,57 24,93 63,93l0 0zm-709 -235l0 42 64 0 128 234 152 0 131 -234 64 0 0 -42 -195 0 0 42 56 0 -94 169 -93 -169 68 0 0 -42 -281 0 0 0zm1245 0l281 0 0 42 -68 0 93 169 94 -169 -56 0 0 -42 195 0 0 42 -64 0 -131 234 -152 0 -128 -234 -64 0 0 -42zm708 282c109,0 194,-55 194,-140 0,-91 -76,-145 -194,-145 -106,0 -195,48 -195,145 0,86 89,140 195,140l0 0zm0 -47c-39,0 -63,-36 -63,-93 0,-57 24,-100 63,-100 39,0 64,43 64,100 0,51 -27,93 -64,93l0 0zm-2040 -395l2321 0c4,0 7,2 8,6 25,96 38,197 38,301 0,99 -12,195 -34,287 -1,3 -4,6 -8,6l-2329 0c-4,0 -7,-3 -8,-6 -22,-92 -34,-188 -34,-287 0,-104 13,-205 38,-301 1,-4 4,-6 8,-6z"/>
  <g>
   <g clip-path="url(#id15)">
    <image x="-42" y="857" width="208" height="771" xlink:href="8996-vehicle_volvo-ed8ca897-9b26-4797-a2c9-6929569323a9_Images\8996-vehicle_volvo-ed8ca897-9b26-4797-a2c9-6929569323a9_ImgID8.png"/>
   </g>
  </g>
  <g>
   <g clip-path="url(#id16)">
    <image x="2473" y="857" width="208" height="771" xlink:href="8996-vehicle_volvo-ed8ca897-9b26-4797-a2c9-6929569323a9_Images\8996-vehicle_volvo-ed8ca897-9b26-4797-a2c9-6929569323a9_ImgID9.png"/>
   </g>
  </g>
  <path fill="none" d="M62 892l2515 0c8,0 14,5 16,13 30,110 46,225 46,345 0,114 -15,225 -42,331 -2,7 -9,12 -16,12l-2523 0c-8,0 -14,-5 -16,-12 -27,-106 -42,-217 -42,-331 0,-120 16,-235 46,-345 2,-8 8,-13 16,-13z"/>
  <g>
   <g clip-path="url(#id17)">
    <image x="11" y="850" width="1350" height="115" xlink:href="8996-vehicle_volvo-ed8ca897-9b26-4797-a2c9-6929569323a9_Images\8996-vehicle_volvo-ed8ca897-9b26-4797-a2c9-6929569323a9_ImgID10.png"/>
   </g>
  </g>
  <g>
   <g clip-path="url(#id18)">
    <image x="1277" y="850" width="1350" height="115" xlink:href="8996-vehicle_volvo-ed8ca897-9b26-4797-a2c9-6929569323a9_Images\8996-vehicle_volvo-ed8ca897-9b26-4797-a2c9-6929569323a9_ImgID11.png"/>
   </g>
  </g>
  <path fill="url(#id19)" d="M58 1593l1241 0 40 0 1242 0c5,0 9,-2 12,-5 -39,-13 -66,-26 -109,-26l-1145 0 -40 0 -1144 0c-44,0 -70,13 -110,26 4,3 8,5 13,5z"/>
  <path fill="#2B2A29" d="M62 892l2515 0c8,0 14,5 16,13 30,110 46,225 46,345 0,114 -15,225 -42,331 -2,7 -9,12 -16,12l-2523 0c-8,0 -14,-5 -16,-12 -27,-106 -42,-217 -42,-331 0,-120 16,-235 46,-345 2,-8 8,-13 16,-13zm0 9c-4,0 -7,2 -8,6 -30,112 -46,227 -46,343 0,111 14,221 42,329 1,4 4,6 8,6l2523 0c4,0 7,-2 8,-6 28,-108 41,-218 41,-329 0,-116 -15,-231 -45,-343 -1,-4 -4,-6 -8,-6l-2515 0z"/>
 </g>
</svg>
