

<!-- Creator: CorelDRAW X6 -->
<svg xmlns="http://www.w3.org/2000/svg" x="0" y="0" xml:space="preserve" width="25mm" height="25mm" version="1.1" shape-rendering="geometricPrecision" text-rendering="geometricPrecision" image-rendering="optimizeQuality" fill-rule="evenodd" clip-rule="evenodd"
viewBox="0 0 2500 2500"
 xmlns:xlink="http://www.w3.org/1999/xlink"
 enable-background="new 0 0 912.7 290.1">
 <g id="Layer_x0020_1">
  <metadata id="CorelCorpID_0Corel-Layer"/>
 </g>
 <g id="Layer_x0020_1_0">
  <metadata id="CorelCorpID_1Corel-Layer"/>
 </g>
 <g id="Layer_x0020_1_0_1">
  <metadata id="CorelCorpID_2Corel-Layer"/>
 </g>
 <g id="Layer_x0020_1_0_2">
  <metadata id="CorelCorpID_3Corel-Layer"/>
 </g>
 <g id="Layer_x0020_1_3">
  <metadata id="CorelCorpID_4Corel-Layer"/>
 </g>
 <g id="Layer_x0020_1_0_4">
  <metadata id="CorelCorpID_5Corel-Layer"/>
 </g>
 <g id="Layer_x0020_1_0_5">
  <metadata id="CorelCorpID_6Corel-Layer"/>
 </g>
 <g id="Layer_x0020_1_0_6">
  <metadata id="CorelCorpID_7Corel-Layer"/>
 </g>
 <g id="Layer_x0020_1_0_7">
  <metadata id="CorelCorpID_8Corel-Layer"/>
 </g>
 <g id="Layer_x0020_1_0_2_8">
  <metadata id="CorelCorpID_9Corel-Layer"/>
 </g>
 <g id="Layer_x0020_1_0_2_8_9">
  <metadata id="CorelCorpID_10Corel-Layer"/>
 </g>
 <g id="Layer_x0020_1_0_10">
  <metadata id="CorelCorpID_11Corel-Layer"/>
  <g id="_334236576">
   <polygon fill="#393185" points="0,0 2500,0 2500,2500 0,2500 "/>
   <path fill="#FEFEFE" d="M1248 1638c363,0 700,-113 881,-293 90,-90 137,-193 137,-298 0,-105 -48,-208 -137,-298 -181,-181 -518,-293 -881,-293 -269,0 -523,60 -713,168 -196,112 -304,262 -304,423 0,105 48,208 137,298 181,181 518,293 881,293l-1 0z"/>
   <path fill="#2B2A29" d="M286 1047c0,-90 42,-179 121,-258 171,-171 493,-277 841,-277 348,0 670,106 841,277 79,79 121,168 121,258 0,295 -431,534 -961,534 -348,0 -670,-106 -841,-277 -79,-79 -121,-168 -121,-258l-1 0 0 1z"/>
   <path fill="#FEFEFE" d="M885 599c-3,-9 -8,-9 -11,0l-84 235c-3,9 -13,18 -23,19l-422 73c-9,2 -9,4 0,6l422 70c9,2 19,10 23,18l84 228c3,8 8,8 12,0l81 -228c3,-9 13,-18 23,-19l414 -70c9,-2 9,-4 0,-6l-414 -73c-9,-2 -19,-10 -23,-19l-81 -235 -1 1z"/>
   <path fill="#FEFEFE" d="M1434 963c-2,-4 -3,-4 -5,0l-38 105c-2,4 -6,8 -10,8l-188 33c-4,1 -4,2 0,3l188 31c4,1 8,4 10,8l38 102c2,4 3,4 5,0l36 -102c2,-4 6,-8 10,-8l184 -31c4,-1 4,-2 0,-3l-184 -33c-4,-1 -8,-4 -10,-8l-36 -105z"/>
   <path fill="#FEFEFE" d="M1943 963c-2,-4 -3,-4 -5,0l-38 105c-2,4 -6,8 -10,8l-188 33c-4,1 -4,2 0,3l188 31c4,1 8,4 10,8l38 102c2,4 3,4 5,0l36 -102c2,-4 6,-8 10,-8l184 -31c4,-1 4,-2 0,-3l-184 -33c-4,-1 -8,-4 -10,-8l-36 -105z"/>
   <path fill="#FEFEFE" d="M1793 663c-2,-4 -3,-4 -5,0l-38 105c-2,4 -6,8 -10,8l-188 33c-4,1 -4,2 0,3l188 31c4,1 8,4 10,8l38 102c2,4 3,4 5,0l36 -102c2,-4 6,-8 10,-8l184 -31c4,-1 4,-2 0,-3l-184 -33c-4,-1 -8,-4 -10,-8l-36 -105z"/>
   <path fill="#FEFEFE" d="M1611 1196c-2,-4 -3,-4 -5,0l-38 105c-2,4 -6,8 -10,8l-188 33c-4,1 -4,2 0,3l188 31c4,1 8,4 10,8l38 102c2,4 3,4 5,0l36 -102c2,-4 6,-8 10,-8l184 -31c4,-1 4,-2 0,-3l-184 -33c-4,-1 -8,-4 -10,-8l-36 -105z"/>
   <path fill="#FEFEFE" d="M1088 1243c-2,-4 -3,-4 -5,0l-38 105c-2,4 -6,8 -10,8l-188 33c-4,1 -4,2 0,3l188 31c4,1 8,4 10,8l38 102c2,4 3,4 5,0l36 -102c2,-4 6,-8 10,-8l184 -31c4,-1 4,-2 0,-3l-184 -33c-4,-1 -8,-4 -10,-8l-36 -104 0 -1z"/>
   <path fill="#FEFEFE" d="M247 1974l78 0c0,27 11,29 33,29l95 0c17,0 33,-2 33,-22 0,-22 -9,-23 -109,-23 -117,0 -130,-14 -130,-77 0,-46 4,-81 103,-81l108 0c89,0 98,31 98,75l0 8 -78 0c0,-18 -3,-26 -38,-26l-86 0c-18,0 -29,6 -29,20 0,22 9,23 93,23 121,0 148,7 148,81 0,68 -23,79 -127,79l-94 0c-71,0 -99,-13 -99,-68l0 -18 0 -1 1 1z"/>
   <path fill="#FEFEFE" d="M583 1803l78 0 0 146c0,33 12,45 43,45l77 0c32,0 43,-13 43,-45l0 -146 78 0 0 163c0,63 -33,93 -104,93l-111 0c-72,0 -104,-30 -104,-93l0 -163 1 0 -1 0z"/>
   <path fill="#FEFEFE" d="M917 1803l223 0c62,0 92,17 92,67 0,43 -16,52 -38,58l0 1c34,4 47,23 47,61 0,56 -33,68 -78,68l-248 0 0 -253 1 -1 1 -1z"/>
   <path fill="#2B2A29" d="M994 1996l139 0c17,0 28,-4 28,-18 0,-18 -11,-21 -28,-21l-139 0 0 39z"/>
   <path fill="#2B2A29" d="M994 1904l138 0c14,0 23,-5 23,-20 0,-15 -8,-20 -23,-20l-138 0 0 39 0 1z"/>
   <polygon fill="#FEFEFE" points="1365,1803 1467,1803 1606,2057 1519,2057 1495,2012 1338,2012 1315,2057 1228,2057 "/>
   <polygon fill="#2B2A29" points="1367,1958 1466,1958 1416,1863 "/>
   <path fill="#FEFEFE" d="M1618 1803l234 0c60,0 76,30 76,75l0 16c0,34 -8,54 -43,63l0 1c23,4 43,14 43,56l0 43 -78 0 0 -31c0,-27 -8,-35 -32,-35l-122 0 0 66 -78 0 0 -253 -1 0 1 -1z"/>
   <path fill="#2B2A29" d="M1695 1928l128 0c21,0 28,-8 28,-27l0 -8c0,-23 -11,-27 -36,-27l-122 0 0 62 1 0 1 0z"/>
   <path fill="#FEFEFE" d="M1943 1803l78 0 0 146c0,33 12,45 43,45l77 0c32,0 43,-13 43,-45l0 -146 78 0 0 163c0,63 -33,93 -104,93l-111 0c-72,0 -104,-30 -104,-93l0 -163 1 0 -1 0z"/>
   <path fill="#FEFEFE" d="M2367 2009c0,27 -21,48 -48,48 -27,0 -48,-21 -48,-48 0,-26 21,-48 48,-48 26,0 48,21 48,48z"/>
   <path fill="#2B2A29" d="M2280 2009c0,23 18,40 40,40 22,0 40,-18 40,-40 0,-22 -18,-40 -40,-40 -23,0 -40,18 -40,40z"/>
   <path fill="#FEFEFE" d="M2343 2036l-8 0 -15 -23 -10 0 0 23 -8 0 0 -53 23 0c9,0 19,3 19,14 0,11 -8,15 -17,15l16 24 -1 0 1 0z"/>
   <path fill="#2B2A29" d="M2310 2007l14 0c11,0 13,-4 13,-9 0,-7 -8,-8 -13,-8l-14 0 0 18 0 -1z"/>
  </g>
 </g>
</svg>
