

<!-- Creator: CorelDRAW X6 -->
<svg xmlns="http://www.w3.org/2000/svg" x="0" y="0" xml:space="preserve" width="25mm" height="25mm" version="1.1" shape-rendering="geometricPrecision" text-rendering="geometricPrecision" image-rendering="optimizeQuality" fill-rule="evenodd" clip-rule="evenodd"
viewBox="0 0 2500 2500"
 xmlns:xlink="http://www.w3.org/1999/xlink"
 enable-background="new 0 0 912.7 290.1">
 <g id="Layer_x0020_1">
  <metadata id="CorelCorpID_0Corel-Layer"/>
  <path fill="#0756A1" d="M1251 0c688,0 1249,562 1249,1251 0,688 -562,1249 -1249,1249 -688,0 -1251,-563 -1251,-1249 0,-689 563,-1251 1251,-1251z"/>
  <path fill="#FEFEFE" d="M1251 158c600,0 1091,491 1091,1092 0,600 -491,1090 -1091,1090 -600,0 -1091,-489 -1091,-1090 0,-601 491,-1092 1091,-1092zm-730 505l391 1015 143 -371 111 0 155 0 111 0 143 371 395 -1028c-70,-84 -153,-156 -248,-211l-274 756 -122 0 -143 0 -122 0 -276 -759c-102,58 -191,135 -264,227l-1 0 1 0zm1607 255l-446 1163c299,-157 505,-470 505,-831 0,-117 -21,-228 -59,-332zm-640 1238l-3 -23 -242 -627 -242 627 -1 19c80,23 164,34 251,34 82,0 161,-10 237,-30zm-686 -86l-434 -1132c-35,98 -53,202 -53,312 0,353 197,662 488,820l-1 0zm450 -1758c82,0 163,10 240,31l-237 654 -238 -656c75,-19 153,-30 234,-30l0 1 1 0z"/>
 </g>
 <g id="Layer_x0020_1_0">
  <metadata id="CorelCorpID_1Corel-Layer"/>
 </g>
 <g id="Layer_x0020_1_1">
  <metadata id="CorelCorpID_2Corel-Layer"/>
 </g>
 <g id="Layer_x0020_1_0_2">
  <metadata id="CorelCorpID_3Corel-Layer"/>
 </g>
 <g id="Layer_x0020_1_0_3">
  <metadata id="CorelCorpID_4Corel-Layer"/>
 </g>
</svg>
