

<!-- Creator: CorelDRAW X6 -->
<svg xmlns="http://www.w3.org/2000/svg" x="0" y="0" xml:space="preserve" width="25mm" height="25mm" version="1.1" shape-rendering="geometricPrecision" text-rendering="geometricPrecision" image-rendering="optimizeQuality" fill-rule="evenodd" clip-rule="evenodd"
viewBox="0 0 2500 2500"
 xmlns:xlink="http://www.w3.org/1999/xlink"
 enable-background="new 0 0 912.7 290.1">
 <g id="Layer_x0020_1">
  <metadata id="CorelCorpID_0Corel-Layer"/>
 </g>
 <g id="Layer_x0020_1_0">
  <metadata id="CorelCorpID_1Corel-Layer"/>
 </g>
 <g id="Layer_x0020_1_0_1">
  <metadata id="CorelCorpID_2Corel-Layer"/>
 </g>
 <g id="Layer_x0020_1_0_2">
  <metadata id="CorelCorpID_3Corel-Layer"/>
 </g>
 <g id="Layer_x0020_1_3">
  <metadata id="CorelCorpID_4Corel-Layer"/>
 </g>
 <g id="Layer_x0020_1_0_4">
  <metadata id="CorelCorpID_5Corel-Layer"/>
 </g>
 <g id="Layer_x0020_1_0_5">
  <metadata id="CorelCorpID_6Corel-Layer"/>
 </g>
 <g id="Layer_x0020_1_0_6">
  <metadata id="CorelCorpID_7Corel-Layer"/>
 </g>
 <g id="Layer_x0020_1_0_7">
  <metadata id="CorelCorpID_8Corel-Layer"/>
 </g>
 <g id="Layer_x0020_1_0_2_8">
  <metadata id="CorelCorpID_9Corel-Layer"/>
 </g>
 <g id="Layer_x0020_1_0_2_8_9">
  <metadata id="CorelCorpID_10Corel-Layer"/>
 </g>
 <g id="Layer_x0020_1_0_10">
  <metadata id="CorelCorpID_11Corel-Layer"/>
 </g>
 <g id="Layer_x0020_1_1">
  <metadata id="CorelCorpID_12Corel-Layer"/>
 </g>
 <g id="Layer_x0020_1_11">
  <metadata id="CorelCorpID_13Corel-Layer"/>
 </g>
 <g id="Layer_x0020_1_12">
  <metadata id="CorelCorpID_14Corel-Layer"/>
  <g id="_1_x0020__x0028_67_x0029_.eps">
   <path fill="#F9E2A5" d="M1430 38c-11,-2 -27,-2 -37,0 -9,2 0,3 20,3 20,0 27,-1 17,-3l0 0 0 0zm-325 0c-11,-2 -27,-2 -37,0 -9,2 0,3 20,3 20,0 27,-1 17,-3l0 0zm419 7c-6,-2 -14,-2 -18,0 -4,2 1,3 11,3 10,0 13,-2 8,-3l0 1zm-536 0c-4,-2 -10,-2 -12,1 -2,2 2,3 8,3 8,0 8,-2 3,-4l0 0zm607 7c-4,-2 -11,-2 -15,0 -4,2 -1,3 8,3 8,0 12,-2 8,-3zm48 6c-4,-2 -10,-2 -12,1 -2,2 2,3 8,3 8,0 8,-2 3,-4l0 0zm49 6c-4,-2 -10,-2 -12,1 -2,2 2,3 8,3 8,0 8,-2 3,-4l0 0zm-735 118c-4,-2 -10,-2 -12,1 -2,2 2,3 8,3 8,0 8,-2 3,-4l0 0zm155 4c6,-7 10,-13 8,-13 -2,0 -8,6 -14,13 -6,7 -10,13 -8,13 2,0 8,-6 14,-13zm-265 8c-4,-2 -10,-2 -12,1 -2,2 2,3 8,3 8,0 8,-2 3,-4l0 0zm1450 93c0,-3 -6,-13 -13,-20l-13 -15 11 20c12,21 14,24 14,15l0 0zm-2086 -4c3,-6 1,-8 -3,-6 -3,3 -6,7 -6,10 0,9 4,7 8,-4l0 0zm771 117c-4,-2 -10,-2 -12,1 -2,2 2,3 8,3 8,0 8,-2 3,-4l0 0zm-588 1079c-8,-13 -9,-8 -3,8 3,6 5,9 7,8 2,-2 0,-8 -3,-14l0 -1zm53 113c-18,-36 -32,-64 -34,-63 -3,3 59,128 63,128 2,0 -12,-29 -29,-65zm57 109c-3,-7 -8,-13 -10,-13 -2,0 0,6 3,13 3,7 8,13 10,13 2,0 0,-6 -3,-13zm19 31c-3,-7 -8,-13 -10,-13 -2,0 0,6 3,13 3,7 8,13 10,13 2,0 0,-6 -3,-13zm18 31c-3,-7 -8,-13 -10,-13 -2,0 0,6 3,13 3,7 8,13 10,13 2,0 0,-6 -3,-13zm86 129c0,-2 -5,-6 -11,-11 -10,-8 -10,-8 -3,3 8,10 13,13 13,8l0 0zm18 25c0,-2 -5,-6 -11,-11 -10,-8 -10,-8 -3,3 8,10 13,13 13,8l0 0zm19 25c0,-2 -5,-6 -11,-11 -10,-8 -10,-8 -3,3 8,10 13,13 13,8zm24 32c0,-1 -6,-8 -14,-14l-14 -12 12 14c11,13 16,17 16,12l0 0 1 0zm24 31c0,-1 -6,-8 -14,-14l-14 -12 12 14c11,13 16,17 16,12l1 0zm37 44c0,-1 -8,-9 -17,-18l-17 -15 15 18c14,16 19,20 19,15l-1 0zm55 62c-22,-22 -41,-41 -43,-41 -2,0 15,18 37,41 22,22 41,41 43,41 2,0 -15,-18 -37,-41zm92 93c-22,-22 -41,-41 -43,-41 -2,0 15,18 37,41 22,22 41,41 43,41 2,0 -15,-18 -37,-41zm86 83c0,-1 -8,-9 -17,-18l-17 -15 15 18c14,16 19,20 19,15l-1 0zm37 31c0,-2 -5,-6 -11,-11 -10,-8 -10,-8 -3,3 8,10 13,13 13,8l0 0zm243 154c-6,-2 -16,-2 -22,0 -6,2 -1,3 11,3 12,0 17,-2 11,-3l0 0zm-77 11c-35,-20 -136,-98 -216,-166 -133,-114 -249,-240 -353,-382 -224,-305 -363,-661 -424,-1085 -29,-203 -40,-486 -22,-548 12,-40 38,-77 72,-101 36,-25 152,-71 256,-101 220,-63 462,-93 751,-94 368,0 668,49 922,150 91,36 124,62 150,117l18 36 0 156c-1,433 -99,855 -277,1195 -46,87 -152,254 -206,322 -98,124 -212,243 -325,341 -76,66 -189,151 -220,167 -38,19 -83,18 -124,-5l0 0 0 0z"/>
   <path fill="#FBD158" d="M1549 231c-2,-2 -3,2 -3,8 0,8 2,8 3,4 2,-4 2,-10 -1,-12l0 0 1 -1zm-182 42c15,-15 16,-45 3,-59 -14,-14 -18,-12 -6,4 22,31 8,54 -35,62l-26 4 26 1c18,1 29,-3 38,-12zm-373 8c18,-14 19,-47 3,-62 -11,-10 -11,-10 -3,0 10,13 7,49 -5,55 -5,3 -19,8 -31,11l-22 6 22 1c13,0 27,-4 36,-11l0 0 0 0zm753 -20l0 -51 17 4c13,3 14,3 8,-3 -5,-3 -14,-7 -20,-7 -9,0 -11,7 -11,50l0 50 -32 -3c-25,-2 -27,-2 -11,3 51,11 49,13 49,-44l0 0 1 0zm-713 51c-3,-3 -7,-7 -11,-7 -4,0 -3,3 1,9 8,10 16,8 9,-3l1 0zm525 -2l32 -3 -35 -1c-35,-1 -35,-1 -34,16 1,14 2,15 3,3 3,-12 8,-14 34,-16l0 0zm-733 -104c3,-3 11,-7 18,-8 8,-2 6,-3 -7,-3l-19 -1 -19 67c-11,37 -19,72 -19,77 0,5 10,-21 21,-58 12,-37 22,-70 26,-72zm359 169c8,-16 11,-37 11,-75 0,-67 -12,-96 -40,-98 -11,-1 -22,2 -27,8 -7,8 -5,8 12,2 18,-7 21,-6 31,7 22,27 24,128 3,161 -8,13 -14,16 -27,13 -10,-2 -16,0 -14,3 2,3 12,5 22,3 15,-2 22,-7 30,-24l0 2zm366 19c3,-7 7,-16 7,-20 0,-4 -3,-1 -8,8 -7,13 -13,16 -30,15 -13,0 -21,2 -19,5 7,11 45,6 52,-7l-1 -1zm-963 7c7,-4 7,-11 -2,-36l-9 -31 3 28c3,25 2,29 -11,36 -13,7 -13,7 -2,8 7,0 16,-2 20,-5l-1 0zm872 -9c-14,-27 -18,-114 -8,-152 11,-38 37,-61 67,-58 13,1 22,0 20,-3 -2,-3 -14,-5 -27,-5 -30,0 -56,23 -66,60 -11,41 -8,120 5,151 7,14 13,27 15,27 2,0 -1,-9 -7,-20l0 0 0 -1zm-461 4c14,-13 16,-52 3,-68 -9,-12 -9,-12 -3,2 16,34 1,71 -30,71 -8,0 -20,3 -25,7 -7,5 -3,6 18,3 14,-2 32,-8 38,-14l0 0 0 0zm364 -9c-6,-18 -12,-31 -13,-29 -2,2 2,18 8,35 6,18 12,31 13,29 2,-2 -2,-18 -8,-35zm-40 -211c27,1 45,0 41,-3 -4,-3 -27,-5 -52,-5l-44 0 2 129 2 129 2 -127 2 -127 48 3 0 0zm-216 230c-19,-22 -25,-51 -24,-110 1,-51 15,-97 35,-111 8,-5 24,-9 37,-9 20,0 22,-2 13,-7 -15,-9 -41,-2 -61,18 -43,42 -48,178 -8,222 20,22 25,20 7,-3l0 -1zm938 -123c17,3 16,3 -2,-5l-18 -8 -3 76c-2,42 -2,80 0,85 2,5 4,-27 5,-71l2 -80c0,0 17,3 17,3l0 0zm-392 -84l17 -1 -15 -5c-8,-3 -18,-3 -20,-3 -3,2 -4,59 -3,128l2 126 2 -123 2 -123c0,0 17,-1 17,-1l1 2zm-740 116l0 -121 27 -4c15,-3 37,-3 49,-2 12,2 19,0 17,-3 -3,-3 -27,-4 -53,-3l-48 2 -2 130c-1,88 0,128 5,126 4,-3 7,-49 7,-125l0 0 -2 0zm-86 67c0,-37 -1,-65 -3,-64 -5,6 -8,131 -3,131 3,0 6,-30 6,-67l0 0zm917 -7c-2,-17 -3,-3 -3,30 0,32 1,46 3,30 2,-17 2,-43 0,-59l0 -1zm-990 27c-8,-26 -17,-45 -18,-44 -1,1 4,25 12,53 8,27 16,48 18,44 2,-3 -3,-27 -12,-53zm1094 -174c15,-3 15,-3 -3,-3l-20 -1 2 127 2 127 2 -123 2 -123 17 -3 1 -1zm-1160 119c1,-120 1,-121 15,-123 8,-1 14,-5 14,-8 0,-3 -6,-5 -14,-3 -8,2 -16,4 -18,4 -3,0 -5,58 -5,129 0,71 2,128 3,126 2,-2 4,-58 5,-124l0 -2zm-79 111c-3,-13 -6,-22 -8,-20 -2,2 -1,13 1,26 3,13 6,22 8,20 2,-2 1,-13 -1,-26zm1323 -207c8,2 13,1 12,-3 -2,-3 -10,-5 -18,-5l-15 0 2 127 2 127 2 -124 2 -124c0,0 15,3 15,3l0 -1zm83 237c-8,-13 -9,-8 -3,8 3,6 5,9 7,8 2,-2 0,-8 -3,-14l0 -1zm-1489 -111c26,-115 27,-118 45,-126l18 -8 -16 0c-9,0 -19,3 -22,8 -6,8 -63,248 -62,262 1,17 11,-22 37,-135l1 -1zm-59 119c4,-4 1,-4 -9,-2 -24,8 -55,21 -55,24 0,4 58,-16 64,-22l0 0zm1662 -185c9,3 14,4 11,1 -3,-3 -13,-8 -20,-10l-14 -4 2 130 2 130 2 -126 2 -126 17 7 1 -2zm-759 250c7,-4 6,-6 -3,-8 -7,-2 -15,1 -19,5 -7,7 -6,8 3,8 6,0 15,-3 19,-5zm-1010 -118c-2,-123 -2,-123 12,-129 20,-9 17,-16 -5,-8l-18 7 0 128c0,88 2,128 7,128 5,0 6,-37 5,-123l0 -1zm804 154c-27,-17 -25,-40 5,-61 18,-12 27,-14 53,-13 22,2 32,0 32,-6 0,-4 13,-12 29,-17l29 -9 -37 3c-57,5 -96,18 -123,42 -20,18 -23,23 -19,37 3,9 12,21 21,26 25,14 32,12 8,-3l0 0 0 -1zm449 147c5,-12 9,-28 9,-36 0,-19 -21,-53 -38,-62l-14 -8 13 15c28,32 34,61 18,93 -6,12 -7,18 -3,18 3,0 11,-10 16,-22l-1 0zm-256 38c-32,-27 -16,-46 23,-28 13,6 16,11 13,22 -2,9 -1,13 3,9 11,-11 2,-29 -21,-40 -40,-20 -61,3 -29,33 11,10 21,18 23,18 3,0 -3,-7 -13,-14l-1 0zm145 323c-8,-22 -23,-73 -33,-114 -11,-43 -30,-98 -47,-131 -27,-55 -34,-64 -42,-53 -4,7 28,88 51,128 10,18 25,61 34,98 9,37 22,76 32,89 8,13 17,23 18,23 1,0 -5,-18 -13,-41l1 0zm-133 48c7,-2 -1,-43 -11,-62 -9,-18 -17,-25 -32,-28 -60,-13 -75,-31 -69,-87 4,-43 4,-43 -29,-68 -13,-10 -27,-24 -30,-32 -9,-20 -18,-19 -60,5 -49,27 -54,37 -32,67 10,13 20,35 22,50 3,15 8,27 12,27 12,0 22,28 22,58 0,22 4,32 27,58l27 32 76 -8c42,-4 77,-8 77,-8l0 0 1 -3zm-369 72c10,-16 25,-31 33,-33 17,-5 58,8 82,24 24,17 55,21 65,8 4,-6 15,-10 24,-10 16,0 16,-1 4,-9 -8,-6 -26,-9 -49,-9 -45,0 -65,-9 -77,-37l-9 -21 -12 13c-17,18 -36,14 -40,-9l-3 -18 -19 28c-27,40 -39,66 -39,83 0,33 14,29 39,-10l0 0 2 0zm652 36c0,-7 -2,-9 -3,-5 -2,4 -8,8 -15,8 -7,0 -12,3 -12,5 0,3 7,5 15,5 12,0 15,-3 15,-13l0 0zm-171 59c-41,-5 -55,-13 -76,-38 -27,-32 -19,-68 17,-84l19 -8 -22 0c-64,-1 -65,90 -2,124 17,8 34,13 60,12l37 -1 -34 -4 1 0zm-197 10c27,-5 37,-14 37,-35 0,-18 -18,-49 -18,-32 0,5 -13,22 -27,37 -15,15 -28,32 -30,39 -3,11 -2,12 8,3 6,-5 20,-11 31,-13l0 0 0 1zm138 96c3,-3 -3,-6 -10,-5 -11,1 -15,-3 -18,-18 -4,-18 -4,-18 -5,-3 -1,24 22,42 33,25l0 0 0 0zm-102 106c-10,-17 -20,-31 -21,-31 -1,0 5,15 14,33 9,18 18,32 21,31 3,-2 -4,-17 -14,-33zm-428 52c0,-2 -3,-3 -6,-3 -3,0 -6,3 -6,7 0,3 3,5 6,3 3,-3 6,-5 6,-7zm162 81c11,-11 13,-27 3,-27 -3,0 -6,3 -6,6 0,3 -7,8 -15,10 -15,4 -19,9 -11,18 7,7 19,5 29,-6l-1 0zm132 776c-28,-18 -109,-80 -172,-133 -333,-281 -563,-622 -695,-1034 -51,-158 -89,-344 -110,-537 -10,-93 -22,-360 -18,-389 8,-48 8,-48 22,-40 19,11 28,-2 15,-22 -8,-13 -9,-19 -3,-28 33,-64 340,-162 615,-196 133,-17 237,-22 408,-22 330,0 578,35 817,115 107,36 173,65 190,85 11,13 11,13 1,31 -13,23 -9,31 18,31 22,0 22,-1 30,49 5,31 -8,302 -18,400 -50,451 -191,835 -422,1152 -136,187 -345,393 -529,523l-44 31 -10 -14c-8,-13 -13,-14 -35,-11 -13,2 -28,8 -32,13 -6,8 -9,8 -27,-3l0 0 1 0zm145 -5c198,-137 403,-339 550,-546 196,-273 324,-597 388,-977 37,-222 53,-543 31,-621 -13,-46 -55,-78 -144,-114 -262,-105 -620,-159 -985,-149 -333,9 -601,58 -831,148 -66,26 -83,36 -111,63 -33,32 -34,33 -42,83 -9,58 -1,282 16,427 79,707 370,1233 907,1645 84,65 106,77 138,77 25,0 36,-5 83,-37l-1 1zm-142 47c-110,-58 -366,-291 -499,-453 -339,-411 -508,-907 -531,-1559 -6,-162 5,-203 65,-258 77,-71 380,-158 649,-187 501,-55 981,-3 1324,143 96,41 133,95 138,203 3,70 -8,280 -20,392 -79,693 -363,1218 -884,1630 -109,86 -135,102 -177,104 -28,2 -41,-1 -65,-14l-1 -1z"/>
   <path fill="#DBA51A" d="M323 218c-2,-2 -7,0 -11,4 -6,6 -5,7 3,3 6,-3 9,-6 8,-8l0 0zm1258 17c0,-3 -4,-4 -9,-3 -5,2 -9,5 -9,6 0,2 4,3 9,3 5,0 9,-3 9,-6zm-24 9c0,-8 -15,-34 -21,-37 -5,-2 -4,4 3,18 8,18 19,28 19,18l0 0 -1 0zm-77 8c3,-13 9,-29 16,-36 7,-7 9,-13 6,-13 -11,0 -26,30 -28,58 -3,31 1,25 7,-9l0 0zm267 11c0,-46 0,-47 16,-47 9,0 14,-3 12,-6 -3,-3 -11,-6 -18,-6 -15,0 -15,1 -15,50 0,36 -3,50 -8,49 -4,0 -21,-3 -37,-5 -16,-3 -29,-3 -29,0 0,3 13,7 29,9 16,3 32,5 35,6 13,3 15,-5 15,-50l0 0 0 -1zm-167 131c-2,-2 -5,2 -8,8 -3,9 -3,10 3,3 4,-4 6,-9 4,-11l0 0zm-33 7c22,-22 18,-72 -6,-72 -5,0 -8,-4 -8,-10 0,-7 3,-8 10,-6 5,3 16,4 24,4 13,0 15,3 17,32l3 32 1 -39 1 -39 -33 0c-32,0 -33,1 -33,15 0,12 3,16 17,18 15,2 17,4 15,21 -3,27 -12,41 -27,40 -22,0 -41,-20 -47,-50 -3,-19 -6,-22 -6,-11 -2,52 47,93 75,65l-1 -1zm-63 12c-24,-21 -33,-51 -34,-109 -1,-62 15,-104 43,-116 27,-12 61,-1 76,25 4,7 7,9 8,4 0,-4 -8,-17 -18,-27 -13,-14 -23,-18 -42,-18 -53,0 -77,46 -73,138 3,64 16,102 38,112 22,9 23,7 4,-10l-2 1zm-182 -142c-2,-5 -3,-22 -2,-39 2,-29 3,-31 22,-32 39,-4 67,48 37,70 -17,12 -53,13 -58,1l1 1zm75 141c-2,-3 -10,-27 -19,-56l-17 -52 -24 0c-15,0 -24,-3 -24,-8 0,-5 12,-8 34,-9 18,-1 37,-4 43,-8 22,-19 15,-67 -13,-81 -18,-8 -55,-9 -60,-2 -2,3 -4,37 -5,75 -1,38 -3,67 -5,66 -2,-2 -5,-38 -7,-81l-3 -77 43 0c50,0 66,8 77,41 9,29 3,56 -19,73l-18 14 18 54c14,42 16,54 10,54 -5,0 -10,-3 -11,-5l0 0 1 1zm27 4c0,-3 -8,-27 -18,-56l-18 -51 14 -10c32,-22 32,-93 -2,-120 -13,-11 -25,-13 -64,-13l-48 0 0 128 0 128 15 0c15,0 15,-1 15,-56l0 -56 17 0c16,0 18,3 34,58 18,58 18,58 35,55 10,-2 18,-5 18,-8l0 0 2 0zm-275 -37c-25,-26 -26,-133 -1,-159 18,-20 34,-20 48,1 8,13 11,30 11,77 0,47 -3,63 -11,77 -13,20 -30,22 -47,5l0 0zm53 37c24,-15 37,-44 42,-96 10,-107 -38,-180 -98,-151 -31,15 -48,54 -52,116 -7,112 43,172 107,131l1 0zm375 9c10,-7 11,-8 3,-5 -7,3 -22,7 -33,9 -21,5 -21,5 -3,5 10,0 25,-4 33,-9zm488 -142c17,3 17,3 -2,-6l-18 -9 -2 72c-2,65 -3,71 -11,60 -8,-11 -8,-10 -3,7 13,40 15,35 17,-45l2 -83 17 3 0 1zm-403 37c0,-119 0,-123 13,-119 7,2 13,1 13,-2 0,-4 -20,-13 -32,-13 -3,0 -5,58 -5,128 0,81 3,128 6,128 4,0 6,-45 6,-123l0 1zm-702 -43c-2,-5 -3,-21 -2,-36 2,-24 3,-27 18,-29 27,-3 42,8 42,32 0,24 -8,32 -36,37 -14,3 -21,2 -23,-5l0 0 1 1zm-3 81l0 -41 23 0c28,0 44,15 44,42 0,25 -17,39 -45,39l-22 0 0 -41 0 1zm49 72c33,-8 50,-31 53,-71 3,-30 1,-36 -13,-49 -14,-15 -15,-16 -4,-29 18,-22 15,-66 -4,-85 -14,-14 -19,-16 -66,-14l-51 2 -2 128 -2 128 32 -3c18,-2 43,-5 54,-8l1 1zm757 -64c-1,-18 -3,-3 -3,32 0,36 1,51 3,32 1,-18 1,-48 0,-66l0 1zm88 -15l-2 -123 16 4c8,3 16,2 16,-2 0,-3 -8,-7 -18,-8l-18 -3 0 127c0,70 2,127 5,127 3,0 4,-55 3,-123l0 0 -1 0zm-1124 116c7,0 9,-16 9,-83 1,-46 2,-76 3,-67 4,25 39,140 44,146 3,3 7,-6 8,-18 3,-13 13,-53 25,-89l21 -66 -3 82 -3 82 19 -3 19 -3 2 -128 2 -128 -19 0c-18,0 -20,2 -32,45 -8,25 -18,64 -24,88l-11 43 -22 -72c-13,-39 -22,-74 -22,-78 0,-8 -8,-8 -29,-3 -13,3 -14,4 -14,132 0,114 1,128 10,124 5,-3 13,-4 18,-4l1 1zm1215 -96l0 -121 17 3c13,3 15,2 8,-4 -5,-3 -15,-7 -23,-7l-14 0 0 125c0,79 3,125 6,125 4,0 6,-44 6,-121l1 0zm-1366 -105c0,-8 4,-11 13,-11 9,0 11,2 5,4 -5,2 -11,7 -13,11 -3,4 -4,3 -5,-4zm-14 67c7,-42 15,-60 11,-25 -2,18 -6,35 -9,41 -3,6 -4,1 -2,-16l0 0zm-9 38c0,-7 1,-10 3,-8 2,2 3,8 1,12 -2,5 -3,3 -3,-4l0 0 -1 1zm18 10c0,-9 4,-31 8,-48l8 -31 8 43c7,35 6,44 0,48 -15,10 -23,6 -22,-12l-1 -1zm-25 14c0,-7 1,-10 3,-8 2,2 3,8 1,12 -2,5 -3,3 -3,-4l0 0 -1 1zm-13 56c0,-7 1,-10 3,-8 2,2 3,8 1,12 -2,5 -3,3 -3,-4l0 0 -1 1zm-4 30c-2,-5 -3,-11 -1,-13 2,-2 4,3 7,10 4,15 -1,18 -6,3l0 0 0 -1zm19 -2c6,-39 8,-43 27,-48 9,-3 21,-5 27,-7 8,-3 12,4 18,31l7 34 18 -7c22,-8 23,7 -15,-142l-26 -103 -19 5c-18,5 -19,8 -29,53 -6,27 -19,88 -31,137l-20 88 20 -6c18,-6 20,-9 24,-34l0 -1zm1466 -51c-21,-52 -39,-93 -40,-93 -2,2 12,38 29,83 18,44 34,87 37,95 3,8 7,13 8,12 2,-2 -14,-46 -35,-98l0 0 0 1zm118 2l-2 -123 18 4c20,5 13,-5 -9,-12l-14 -4 0 128c0,71 2,128 5,128 3,0 4,-55 3,-123l0 0 0 0zm-737 129c6,-4 5,-6 -6,-9 -8,-2 -16,-2 -18,2 -2,3 -13,7 -25,8 -18,3 -15,3 9,3 17,1 34,-2 39,-4l0 0zm-1016 -119c0,-104 2,-124 9,-128 8,-3 9,11 9,105 0,121 -3,116 43,100 30,-11 37,-12 37,-4 0,3 -21,13 -46,22 -26,9 -45,18 -44,20 2,2 23,-5 49,-14 41,-15 47,-19 49,-34 3,-19 0,-19 -43,-1 -39,17 -38,20 -37,-101 1,-60 2,-109 1,-109 0,0 -9,3 -20,7l-19 7 0 131c0,86 3,129 6,127 4,-3 6,-52 6,-128l1 0zm830 164c-53,-19 -56,-56 -6,-75 24,-9 40,-9 66,1 7,3 10,0 10,-7 0,-13 24,-22 63,-23 25,-1 28,-2 17,-6 -62,-21 -178,12 -205,58l-11 19 22 21c18,16 27,21 45,20l23 -1 -24 -9 -1 2zm107 119c4,-5 7,-9 4,-9 -2,0 -7,4 -11,9 -4,5 -6,9 -4,9 2,0 7,-4 11,-9zm-40 34c6,-7 10,-13 8,-13 -2,0 -8,6 -14,13 -6,7 -10,13 -8,13 2,0 8,-6 14,-13zm368 -33c8,-44 -31,-92 -83,-102 -21,-4 -21,-4 6,11 48,26 70,81 46,117 -5,8 -8,18 -5,21 7,11 32,-22 37,-47l0 0zm-539 146c6,-7 10,-13 8,-13 -2,0 -8,6 -14,13 -6,7 -10,13 -8,13 2,0 8,-6 14,-13zm-48 89c-2,-2 -3,2 -3,8 0,8 2,8 3,4 2,-4 2,-10 -1,-12l0 0 1 -1zm617 -9c-4,-26 -13,-36 -22,-22 -9,14 -6,48 5,60 10,11 11,11 16,-2 3,-7 3,-23 1,-36l0 0zm-652 138c13,-21 24,-42 24,-45 0,-4 -7,5 -15,20 -8,15 -21,35 -27,45 -7,10 -11,18 -9,18 2,0 14,-18 28,-38l0 0 -1 0zm633 35c4,-13 -3,-59 -8,-59 -10,0 -17,56 -8,64 7,7 13,5 17,-6l0 0 0 1zm25 158c-3,-4 -5,-13 -5,-20 0,-7 -4,-14 -9,-16 -5,-2 -7,0 -4,4 3,4 0,7 -8,7 -7,0 -13,4 -16,9 -3,7 1,9 14,9 10,0 19,3 22,6 3,3 5,6 7,6 2,0 1,-3 -1,-8l0 0 0 3zm-124 40c6,-6 -2,-8 -37,-8 -67,0 -99,-22 -99,-69 0,-52 64,-66 81,-18 3,10 9,18 12,18 3,0 3,-5 -1,-12 -10,-20 -8,-25 13,-26 15,-1 12,-3 -13,-7 -18,-3 -37,-8 -44,-12 -25,-13 -67,-4 -84,18 -22,28 3,88 48,112 23,13 34,15 72,13 24,-1 48,-6 52,-10l0 0 1 -1zm-182 -548c-15,-13 -17,-17 -10,-21 17,-12 55,13 43,28 -9,12 -12,11 -32,-7l0 -1zm-245 392c-6,-6 -13,-17 -16,-25 -8,-22 -22,-24 -40,-8 -18,18 -25,13 -17,-11 3,-9 10,-44 13,-76 12,-93 37,-107 58,-34 5,18 13,37 18,43 5,5 9,20 9,34 0,20 5,31 24,54 13,16 24,30 24,32 0,2 -15,3 -33,3 -22,0 -37,-3 -43,-10l0 0 2 -1zm-83 82c0,-18 10,-40 18,-40 8,0 8,40 -2,48 -12,12 -18,9 -18,-8l1 0zm238 131c2,-11 7,-13 32,-12 34,1 53,-13 59,-42 3,-14 1,-22 -9,-32 -8,-8 -23,-36 -37,-62 -27,-55 -26,-58 24,-53 17,2 30,1 30,-2 0,-8 31,-19 55,-19 18,0 27,3 32,13 4,7 12,13 17,13 8,0 7,-2 -2,-7 -19,-12 -12,-19 8,-8 15,8 18,12 11,16 -7,4 -4,6 7,6 15,0 15,0 -5,-18 -15,-14 -26,-18 -45,-18 -13,0 -30,-3 -37,-7 -14,-8 -17,-27 -3,-22 5,3 17,5 26,8l17 3 -15 -13c-8,-8 -22,-17 -32,-20 -20,-8 -22,-22 -3,-29 13,-5 13,-5 -5,-9 -12,-3 -22,-11 -28,-23 -9,-18 -13,-19 -29,-15 -21,5 -49,-10 -49,-25 0,-5 6,-15 13,-22l13 -13 -12 -38c-12,-37 -13,-39 -46,-55 -50,-25 -52,-45 -7,-77 27,-19 49,-20 82,-3 27,14 43,41 43,73 0,12 11,33 33,64 34,48 49,84 45,115 -2,15 -6,18 -20,21 -16,3 -15,3 9,6 23,3 29,7 37,22 13,26 43,64 43,54 0,-4 -6,-22 -13,-41 -7,-18 -22,-69 -34,-114 -13,-47 -32,-103 -47,-134 -14,-29 -27,-55 -27,-58 -1,-3 3,-5 11,-5 20,0 55,36 81,85 26,48 47,67 68,64 12,-2 13,-6 13,-27 -2,-30 -22,-73 -39,-85 -18,-12 -15,-18 9,-18 21,0 33,-8 22,-15 -3,-2 -27,-9 -52,-16 -25,-7 -73,-25 -107,-41 -37,-18 -67,-27 -73,-25 -7,2 -27,17 -44,33 -50,45 -90,72 -134,93 -73,36 -89,61 -107,176 -6,36 -13,67 -15,68 -12,8 -69,91 -77,111 -11,27 -12,40 -2,61 9,20 32,21 44,3 14,-21 28,-11 24,16 -3,14 -1,22 3,22 11,0 32,-24 42,-48 12,-28 23,-32 51,-16 29,17 64,18 84,1 8,-7 18,-11 21,-9 7,4 15,-10 15,-25 0,-17 19,-19 27,-4 5,9 5,16 -1,25 -11,18 -1,23 19,12l18 -10 3 22c3,20 0,26 -27,52 -32,32 -41,54 -31,78 8,18 21,17 24,-2l0 0 2 1zm-322 -40l3 -34 -9 22c-5,12 -11,36 -12,53 -3,31 -2,31 6,13 5,-10 10,-34 12,-53l0 0zm483 87c0,-3 -6,-8 -13,-12 -7,-3 -13,-11 -13,-16 0,-5 -3,-9 -6,-9 -11,0 -7,37 4,43 11,7 27,3 27,-6l0 0 0 0zm245 136c0,-4 -3,-12 -5,-17 -7,-11 -16,2 -11,15 4,11 16,12 16,2zm-325 10c11,-6 13,-8 6,-13 -5,-3 -14,-15 -22,-27 -16,-27 -38,-52 -43,-48 -2,2 6,18 17,35 17,26 19,36 17,56 -3,27 3,41 8,18 2,-8 10,-18 18,-22l0 0 -1 1zm-449 4c1,-10 -1,-18 -3,-18 -8,0 -20,30 -16,41 6,16 18,1 20,-22l-1 0zm162 94c26,-27 10,-45 -20,-23 -11,8 -21,15 -22,16 -5,3 13,21 22,21 5,0 14,-6 21,-13l0 -1zm155 740c-14,-8 -53,-37 -88,-63 -35,-27 -67,-48 -71,-48 -4,0 -17,-8 -28,-18l-20 -18 23 17c31,22 29,17 -3,-10 -14,-12 -23,-18 -21,-13 10,17 -8,6 -30,-19 -13,-14 -18,-21 -9,-14 8,7 -30,-36 -86,-93 -98,-102 -192,-216 -253,-306 -35,-51 -44,-62 -34,-41l8 16 -13 -16c-7,-8 -12,-19 -10,-23 2,-4 0,-7 -3,-4 -6,4 -27,-30 -21,-36 2,-2 -11,-28 -27,-60 -44,-83 -77,-155 -117,-253 -19,-48 -37,-84 -38,-82 -2,2 -3,-3 -1,-11 2,-9 2,-12 -3,-7 -8,11 -28,-50 -23,-68 3,-12 3,-13 -3,-5 -5,8 -6,4 -3,-13 3,-18 3,-20 -3,-13 -6,8 -7,8 -3,-2 2,-7 -3,-38 -12,-72 -40,-161 -82,-448 -83,-575 0,-20 -2,-24 -5,-16 -4,12 -5,11 -8,-3 -3,-8 -4,-30 -4,-48 0,-50 -13,-43 -21,11 -2,8 -3,-27 -3,-78 0,-52 2,-97 4,-100 3,-3 13,-6 22,-6 22,0 27,-13 13,-40 -8,-18 -8,-19 8,-35 16,-16 73,-47 105,-55 15,-4 15,-4 -2,6 -9,5 -17,13 -17,16 0,8 0,8 31,-3 31,-11 39,-12 33,-3 -3,4 0,6 8,3 132,-43 245,-71 363,-91 57,-10 96,-19 89,-21 -7,-2 2,-3 18,-1 23,3 28,2 22,-4 -7,-5 -1,-6 24,-4 18,2 93,1 165,-3 244,-10 346,-13 338,-8 -4,3 33,8 83,13 111,9 280,34 372,54 37,8 75,13 83,12 12,-3 13,-2 6,4 -8,6 -7,7 4,3 16,-4 46,3 42,9 -2,3 3,3 10,2 10,-3 12,-2 8,4 -3,6 -2,7 9,3 9,-3 13,-3 10,2 -3,3 10,11 28,18 61,21 130,53 147,70 37,35 37,43 37,181 -1,107 -13,298 -23,376 -3,24 -2,20 17,-37 7,-22 15,-43 18,-48 3,-3 8,-22 11,-41 6,-32 6,-32 3,13 -22,312 -128,683 -269,944 -121,222 -296,443 -467,590l-40 34 27 -31c15,-17 32,-41 37,-53 6,-13 19,-33 30,-47l20 -24 -21 19c-12,11 -39,36 -61,56 -48,44 -172,146 -227,186 -51,37 -67,41 -101,21l0 0 1 1zm116 32c144,-98 372,-312 485,-457 122,-155 251,-378 316,-546 100,-258 156,-521 178,-839 8,-107 8,-253 1,-285 -3,-16 -3,-24 2,-26 9,-3 -12,-36 -22,-36 -4,0 -15,-8 -22,-16 -58,-63 -354,-152 -624,-186 -197,-25 -527,-28 -723,-7 -302,33 -623,124 -688,196 -10,11 -20,18 -22,17 -32,-20 -32,277 1,533 70,564 272,1001 630,1367 127,129 280,258 363,306 44,25 65,22 128,-22l0 0 -2 0zm-133 44c-73,-36 -267,-198 -395,-333 -351,-368 -547,-802 -618,-1372 -9,-76 -24,-304 -24,-375 0,-116 36,-186 115,-224 85,-41 254,-94 384,-121 227,-46 544,-67 784,-50 269,18 471,56 666,124 139,49 181,77 212,144 16,34 16,35 15,172 -5,560 -150,1053 -426,1446 -129,184 -313,373 -511,524 -106,81 -143,93 -202,65l0 0 0 0z"/>
   <path fill="#A56F29" d="M1307 274c-1,-1 -1,-17 -1,-37l0 -36 19 -1c21,-1 27,0 35,8 13,13 13,49 -2,61l-5 5 -22 0c-13,0 -23,-1 -23,-1l-1 0zm108 150c0,-1 -10,-27 -22,-58 -13,-31 -22,-58 -22,-58 0,-1 3,-2 6,-3 22,-4 36,-27 36,-62 0,-33 -14,-64 -35,-77 -8,-5 -20,-6 -80,-8l-37 -1 0 131 0 131 5 1c3,1 13,1 24,1l19 0 0 -56 0 -56 13 -1 13 -1 13 45c8,25 16,51 18,58l4 13 17 1c9,0 18,1 19,1 6,2 11,1 11,-1l0 0 0 0zm-276 -39c-8,-3 -15,-8 -19,-16l-4 -7 0 -65 0 -65 4 -9c11,-22 36,-26 54,-8 7,7 11,15 13,27 1,5 2,34 2,64 1,54 1,55 -3,62 -8,16 -29,24 -47,18l0 0 1 -1zm32 40c32,-7 54,-30 58,-60 1,-7 1,-39 1,-74 0,-69 -1,-71 -11,-91 -6,-12 -21,-27 -31,-32 -10,-6 -23,-9 -36,-10 -27,-2 -56,18 -71,48 -11,22 -11,27 -10,98 1,67 2,72 9,87 14,27 53,41 90,33l0 0 1 1zm-222 -146l-9 -1 0 -34 1 -34 21 -1 21 -1 8 8c17,19 15,49 -3,59 -7,3 -13,4 -37,3l0 0 0 1zm-8 114c-1,-1 -1,-18 -1,-37l0 -36 22 -1 22 -1 5 5c3,3 7,9 9,13 3,8 4,11 4,22 0,13 -1,15 -4,22 -7,12 -10,13 -36,13 -12,0 -22,0 -22,-1l0 0 0 1zm20 37c53,-4 56,-6 69,-20 24,-27 27,-82 7,-104 -5,-5 -15,-10 -20,-10 -2,0 -1,-1 3,-3 23,-12 30,-60 13,-96 -7,-14 -15,-23 -27,-28l-8 -4 -25 2c-26,2 -76,7 -76,8 0,0 -1,59 -2,131l-1 131 14 -1c8,-1 32,-3 52,-4l0 1zm580 8c23,-6 38,-21 46,-45 3,-8 3,-15 3,-53l0 -43 -35 0 -35 0 0 8c0,4 -1,13 -1,19l-1 12 15 0 15 0 -1 21c-1,19 -1,21 -5,27 -12,18 -35,14 -48,-7 -10,-15 -10,-18 -10,-84 0,-58 0,-59 3,-66 4,-8 13,-16 18,-18 3,-1 5,-1 6,-2 3,-1 13,3 18,8 7,6 11,14 13,24l1 7 22 0c26,0 24,2 21,-16 -8,-36 -36,-59 -72,-59 -35,0 -64,22 -75,58 -2,5 -2,22 -2,68 0,68 1,76 10,95 6,12 18,26 29,33 8,6 22,12 32,13 9,2 24,1 32,-2l0 0 -1 3zm237 -102l0 -131 -3 -1c-15,-3 -37,-8 -42,-8l-5 0 1 51c1,49 1,51 -2,51 -2,0 -14,-2 -28,-4 -14,-3 -26,-4 -27,-4 -1,0 -1,-23 -1,-52l0 -52 -3 -1c-7,-2 -39,-6 -43,-6l-4 0 0 131 0 131 24 3c13,2 24,3 25,3 1,0 1,-27 0,-60l-1 -59 3 1c2,1 15,3 28,4l25 3 0 61 0 61 5 0c3,0 13,2 24,3 11,2 20,3 21,3 1,0 2,-45 2,-131l0 0 1 2zm-1078 129c11,-3 20,-4 20,-4 0,0 1,-30 1,-66 0,-49 1,-65 2,-62 1,3 11,30 22,62 12,32 22,58 22,58 5,0 4,2 37,-109 4,-15 8,-28 9,-29 1,-1 2,28 2,64 0,36 1,66 1,66 2,0 36,-4 41,-6l5 -1 -1 -126c0,-69 -1,-128 -2,-131 -1,-5 -1,-5 -6,-4 -13,3 -35,4 -38,4 -3,-1 -4,0 -4,0 0,1 -10,32 -22,69 -12,37 -22,70 -22,73 -1,3 -2,5 -3,4 0,0 -10,-29 -22,-63 -12,-35 -22,-64 -22,-65 -1,-1 -6,-1 -19,2 -10,2 -20,3 -22,3l-5 0 -1 49c-1,27 -1,86 -1,131 0,88 0,82 7,83 1,0 10,-2 21,-3l0 0 1 0zm1166 -112l1 -130 -9 -2c-5,-1 -16,-3 -25,-5 -9,-2 -18,-3 -19,-3 -3,0 -3,6 -3,94 0,91 0,167 1,168 1,1 51,11 52,10 1,-1 2,-59 2,-131l0 0 2 -1zm-1312 45c0,-3 15,-79 17,-82 1,-3 3,4 12,44l7 29 -7 2c-7,2 -22,6 -26,8 -2,1 -3,0 -3,-1zm-57 121c3,-2 12,-4 20,-7 8,-3 15,-5 15,-5 0,0 3,-17 8,-37l8 -37 7 -3c24,-8 40,-11 42,-9 1,1 4,15 8,32 3,17 8,31 8,31 1,1 11,-1 23,-4 18,-4 22,-6 22,-8 0,-2 -6,-22 -13,-45 -7,-23 -22,-77 -34,-120 -13,-43 -22,-77 -22,-77 0,0 -8,1 -17,3 -8,3 -18,4 -19,4 -3,1 -4,3 -22,86 -10,47 -24,110 -31,140 -13,55 -13,55 -9,57 4,2 4,2 10,-1l-2 -1zm1563 -169l0 -72 -18 -6c-9,-3 -18,-7 -20,-8 -2,-1 -5,-2 -8,-2l-5 0 0 66c0,36 0,67 0,67 1,8 -7,-8 -33,-76 -23,-58 -32,-77 -34,-78 -6,-3 -34,-9 -39,-9l-5 0 0 131 0 131 4 0c3,0 33,7 44,10 3,1 3,-3 2,-79 -1,-55 -1,-79 1,-78 1,1 18,42 37,91l36 89 18 6 18 6 1 -58c1,-32 1,-91 1,-131l0 0 1 0zm85 166c0,-31 -1,-90 -2,-131l-1 -75 -20 -8c-11,-5 -22,-8 -24,-8l-4 0 0 130 0 130 7 2c3,1 14,5 24,9 10,4 18,8 19,8 1,0 2,-19 1,-56l0 0 0 -1zm-1778 55c14,-8 52,-23 83,-35l27 -10 0 -22c0,-13 -1,-22 -2,-22 -2,0 -47,18 -62,26 -7,3 -13,6 -13,6 -1,0 -2,-48 -2,-110 0,-61 -1,-110 -1,-110 -1,0 -11,5 -23,11l-22 11 -1 129c0,71 0,130 0,131 1,3 8,1 18,-4l-1 -1zm1293 591c3,-3 8,-8 12,-13l7 -9 -4 -5c-15,-19 -25,-33 -32,-48 -5,-9 -8,-18 -8,-19 0,-4 5,-8 14,-15 21,-13 23,-19 24,-59 1,-19 0,-32 -1,-39 -3,-13 -10,-27 -19,-37l-8 -9 -6 2c-8,3 -18,13 -22,22 -4,9 -3,19 2,41 3,13 5,22 5,31 0,14 -1,18 -8,45 -7,27 -8,43 -8,66 0,21 2,31 8,39 10,15 33,21 46,11l0 -1zm-478 538c3,-1 2,-1 -7,-2 -10,0 -11,-1 -11,-3 0,-2 4,-4 8,-7 4,-3 8,-4 9,-5 1,-1 2,-7 2,-13 0,-15 3,-18 13,-20 8,-2 12,-5 12,-11 0,-3 -2,-4 -7,-7 -8,-4 -12,-8 -8,-12 2,-2 8,-8 15,-13 11,-10 13,-12 15,-19 4,-15 8,-35 6,-37 -2,-4 -7,-10 -9,-10 -1,0 -3,-2 -5,-3 -2,-3 -3,-3 -3,-1 0,1 -5,10 -10,19 -6,9 -13,22 -17,30 -6,12 -8,13 -16,19 -23,16 -36,37 -39,64 -2,13 -1,22 3,22 1,0 6,-3 10,-7 4,-4 9,-7 11,-7 3,0 3,1 2,11l-1 11 5 2c6,2 14,3 21,1l0 0 1 -2zm-161 -3c-10,-8 -19,-17 -19,-19 0,-2 3,-4 9,-8l9 -5 6 4c8,6 16,7 25,3 11,-4 13,-3 11,7 -1,4 -3,10 -3,12 -3,5 -13,9 -23,11 -8,1 -9,1 -15,-4l0 0 1 0zm-15 85c11,-6 20,-17 29,-34 4,-8 10,-18 15,-22 9,-9 11,-13 15,-28 4,-15 11,-28 23,-48 14,-21 20,-27 38,-37 29,-16 31,-18 32,-40 1,-8 3,-18 3,-20 3,-6 18,-19 29,-27l9 -6 -43 0c-33,0 -45,1 -53,3 -6,2 -14,3 -18,2l-8 -1 -9 24c-5,13 -9,26 -9,27 0,5 -5,23 -8,29 -4,8 -30,36 -37,39 -3,2 -8,3 -10,3 -5,0 -12,4 -14,11 -1,3 -7,8 -13,13 -14,10 -31,26 -35,32 -5,8 -8,20 -8,37 0,17 3,31 7,31 2,0 8,-3 13,-8 18,-13 21,-10 11,8 -3,6 -6,11 -6,12 0,3 11,5 24,5 11,0 14,-1 21,-4l0 0 -2 0zm316 -1219c-2,-1 -7,-3 -10,-4 -8,-4 -11,-8 -6,-13 4,-3 8,-3 16,1 3,2 11,3 16,4 7,1 11,2 15,5 7,4 7,6 3,8 -3,1 -29,1 -33,0l0 0 -1 -1zm45 220c-3,-3 -6,-7 -8,-9 -2,-3 -7,-9 -11,-13 -8,-10 -10,-14 -6,-18 4,-4 22,-4 29,0 8,4 13,17 15,31l1 12 -5 -1c-3,-1 -5,0 -6,2 -2,3 -6,3 -11,-2l0 0 1 -2zm33 247c-1,-3 -1,-10 0,-18l1 -14 -4 -3c-4,-3 -8,-3 -36,-3 -27,0 -32,-1 -37,-3l-6 -3 5 -1c3,-1 11,-1 19,-2 17,0 23,-2 31,-8 20,-15 16,-33 -14,-63 -18,-18 -22,-23 -21,-33l1 -7 8 8c4,4 10,12 13,18 8,15 37,53 47,65 15,17 21,32 18,48 -2,8 -10,20 -18,21 -4,1 -5,1 -6,-3l0 0 -1 3zm-249 125c-6,-3 -13,-6 -18,-7 -10,-3 -16,-5 -18,-10 -3,-3 -3,-5 0,-13 3,-11 2,-20 -4,-25 -3,-3 -5,-3 -17,-3 -8,0 -16,2 -20,3 -3,2 -7,3 -8,3 -1,0 1,-15 3,-21 1,-4 3,-7 7,-9 9,-6 11,-9 9,-25 -1,-19 1,-28 8,-28 1,0 4,3 7,6 4,4 7,9 9,17 6,18 8,22 14,22 9,0 9,1 9,23 0,24 2,27 18,44 24,25 25,33 0,22l0 0 2 1zm-247 330c-7,-3 -8,-11 -8,-27 1,-15 7,-29 15,-34l5 -3 4 5c3,3 5,5 8,5 6,0 18,-7 26,-15 4,-4 12,-11 17,-15 11,-10 13,-16 13,-32 0,-21 -2,-25 -12,-34 -10,-9 -13,-17 -13,-28 0,-13 7,-21 18,-21 7,0 11,4 18,18 13,22 32,32 45,21 6,-5 8,-6 12,-3 2,2 3,7 3,25 0,13 1,24 2,26 1,3 4,5 10,8 11,4 14,9 13,20 -1,8 -6,14 -13,16 -8,3 -15,0 -41,-15 -8,-4 -17,-5 -22,-2 -2,2 -8,8 -12,13 -6,8 -11,13 -23,21 -17,12 -22,16 -31,32 -7,11 -15,20 -18,21 -1,0 -3,0 -5,1 -2,0 -5,0 -8,-2l0 0 -1 -1zm456 129c-4,-1 -8,-3 -9,-3 -3,-3 -5,-22 -3,-27 3,-9 15,-5 18,7 2,7 2,7 8,7 7,0 9,3 9,12 0,5 -1,6 -5,7 -7,2 -8,1 -18,-2l0 0 1 0zm-488 14c-3,-3 -4,-5 -4,-17 0,-8 0,-14 -1,-15 -1,-1 0,-3 1,-4 2,-2 3,-2 6,3 4,4 6,5 11,5 4,0 8,-1 10,-3 5,-4 8,-3 8,3 0,11 -7,22 -16,28 -8,5 -11,5 -16,0l0 0 1 0zm-49 148c-5,-3 -13,-20 -12,-27 1,-6 3,-7 11,-3 8,3 13,3 20,-3 8,-6 10,-7 13,-3 3,3 3,8 -2,14 -2,3 -4,8 -6,11 -4,8 -18,15 -25,12l1 1zm14 85c19,-8 25,-22 27,-59 2,-24 7,-33 18,-37l6 -2 -1 -15c-1,-22 -1,-55 0,-59 1,-3 8,-13 17,-24 21,-26 32,-44 37,-53 2,-4 4,-18 6,-30 3,-25 3,-22 30,-67 8,-13 21,-37 27,-51 8,-15 15,-28 18,-32 3,-3 8,-8 9,-10 2,-2 4,-3 4,-3 3,0 13,10 16,17 3,7 3,9 3,43 0,37 0,37 3,39 2,2 5,3 8,3 3,0 3,0 -1,-5 -7,-7 -8,-16 -7,-43 1,-21 1,-23 -3,-32 -2,-6 -3,-13 -3,-15 1,-5 1,-5 8,-6 8,-1 12,-3 16,-12 3,-6 3,-11 3,-19 0,-4 -2,-6 -8,-9 -11,-6 -13,-10 -15,-23 -3,-15 0,-62 3,-72 3,-9 4,-9 15,-2 11,8 43,22 59,26 20,5 47,6 55,1 8,-4 35,-25 47,-36 5,-5 13,-12 19,-16 5,-3 12,-9 15,-12 3,-3 8,-5 9,-5 6,0 20,6 25,10 9,8 5,16 -18,31 -18,12 -37,32 -45,50 -4,8 -22,64 -22,68 0,7 5,20 10,27 18,26 27,41 29,48 1,4 3,11 4,14 5,13 -1,19 -21,24 -8,2 -18,4 -22,4l-8 1 3 4c3,3 3,3 4,2 1,-2 4,-3 19,-3 14,0 19,-1 26,-3l8 -3 4 5c4,6 29,32 29,31 0,-4 -12,-32 -22,-49 -7,-13 -15,-29 -19,-37 -4,-8 -13,-22 -19,-32 -7,-9 -13,-19 -13,-21 -3,-8 -1,-21 3,-32 6,-17 11,-16 11,3 0,13 2,18 17,39 17,25 18,27 27,48 8,18 16,34 27,49 5,8 15,34 15,41 0,3 -2,6 -5,9l-5 5 -3 -4c-2,-3 -4,-4 -4,-3 -1,1 -2,6 -2,11 -1,10 -1,10 5,15 5,5 6,6 6,14 0,12 3,19 10,23 3,2 12,5 22,7l17 3 6 -5c11,-8 22,-23 25,-30 2,-8 1,-14 -3,-18 -2,-2 -4,-5 -5,-7 -3,-6 -1,-8 13,-8 11,0 12,0 16,-4 4,-5 14,-28 21,-46 3,-9 4,-14 4,-26 0,-12 1,-17 4,-27 6,-16 6,-27 0,-38 -4,-9 -8,-12 -19,-19 -13,-8 -11,-13 6,-20 10,-4 15,-8 15,-13 0,-3 0,-3 -13,-3 -13,1 -13,1 -17,-3 -8,-13 -13,-14 -22,-8 -9,7 -31,46 -31,57 0,7 7,13 19,18 7,3 13,6 15,8 7,4 9,12 9,22 0,5 1,12 2,14 1,3 2,9 2,14 0,8 -1,12 -5,20 -6,13 -26,38 -31,40 -6,3 -11,-3 -14,-11 -2,-6 -2,-8 2,-15 8,-17 8,-22 7,-47 -1,-13 -3,-24 -3,-27 -3,-8 -8,-5 -19,8 -10,13 -17,18 -22,18 -5,0 -7,-5 -6,-18 1,-13 3,-21 15,-46 8,-18 22,-53 26,-68 3,-12 4,-42 1,-54 -2,-7 -4,-11 -10,-18 -14,-15 -32,-41 -42,-59 -11,-22 -18,-43 -15,-43 3,0 19,22 26,34 8,14 13,18 21,18 6,-1 6,-1 7,5 3,18 12,37 25,53 7,8 32,28 40,32 9,4 23,9 40,13 10,3 18,3 38,3 26,0 32,-1 38,-8 2,-2 7,-4 12,-7 5,-2 11,-4 13,-5 5,-3 9,-9 8,-13 -1,-3 -3,-3 -20,-4 -23,-1 -44,-6 -60,-14 -6,-3 -16,-8 -22,-10 -18,-7 -32,-18 -35,-28 -2,-5 2,-9 8,-11 3,-1 6,-2 6,-3 1,-1 2,-2 3,-2 7,0 7,-2 3,-17 -4,-18 -4,-21 0,-21 7,0 11,4 19,17 5,8 13,18 18,22 8,8 9,9 15,9 3,0 7,-1 8,-2 1,-1 -1,-4 -3,-8 -2,-4 -3,-9 -3,-14 0,-7 1,-8 5,-13 4,-5 5,-6 13,-6 10,0 18,4 23,13 3,5 4,6 11,6 5,0 8,-1 13,-4 5,-3 7,-4 10,-3 2,1 6,4 8,8 2,3 6,8 8,10 4,4 5,4 13,3 5,-1 10,0 13,1 7,3 8,7 5,22 -3,13 -3,14 0,21 2,4 5,9 8,13 5,6 5,6 8,26 3,18 0,32 -8,53 -3,9 -8,22 -12,31 -3,8 -8,18 -10,20l-4 5 7 5c8,7 14,17 23,39 13,32 13,37 13,48 0,10 -1,15 -7,32 -8,27 -9,37 -1,48 3,4 5,8 5,10 0,2 -4,9 -8,17 -19,32 -19,47 0,65 10,9 19,14 25,13 4,-1 4,-1 4,-9 1,-10 5,-16 10,-15 3,0 3,2 4,11 2,13 2,15 6,15 7,0 27,-17 32,-25l3 -4 -7 5c-3,3 -8,7 -10,8 -4,5 -9,5 -14,1 -5,-4 -7,-10 -3,-22 3,-13 3,-24 -3,-29 -3,-3 -6,-3 -16,-3 -7,0 -13,-1 -14,-2 -4,-3 1,-9 11,-14 14,-8 15,-13 3,-19 -8,-4 -10,-7 -10,-14 0,-8 6,-16 13,-18 10,-3 14,-9 14,-19 0,-11 -3,-18 -13,-25 -15,-12 -15,-11 -15,-25 0,-10 1,-13 3,-15 3,-3 3,-6 3,-16 1,-8 2,-15 4,-19 5,-11 4,-13 -5,-28 -7,-9 -8,-19 -8,-42 0,-9 -1,-18 -2,-21 -2,-5 0,-23 3,-24 4,-2 12,3 16,12 5,9 7,10 8,5 2,-5 9,-4 27,4 40,18 85,22 109,9 14,-8 38,-29 45,-40 6,-10 6,-10 -19,-9 -25,1 -40,-1 -57,-7 -14,-5 -30,-16 -38,-26 -4,-5 -14,-14 -22,-22 -8,-8 -16,-14 -17,-16 -1,-2 -2,-3 -3,-3 -5,0 -26,-10 -37,-18 -7,-4 -14,-9 -18,-11 -11,-6 -53,-14 -79,-17l-14 -1 -1 -6c-2,-10 -5,-18 -14,-32 -8,-13 -9,-16 -9,-22 0,-8 -3,-16 -14,-34 -6,-9 -9,-18 -12,-26 -2,-7 -6,-18 -9,-26 -8,-18 -10,-27 -13,-44 -3,-20 -5,-31 -12,-49 -3,-9 -8,-24 -9,-33 -5,-24 -7,-29 -19,-48 -6,-9 -12,-19 -13,-22 -1,-3 -3,-8 -5,-10 -3,-3 -7,-9 -10,-15 -3,-6 -8,-13 -9,-15 -2,-3 -3,-8 -3,-9 0,-7 3,-8 15,-8 24,1 43,19 67,67 19,37 36,57 56,67 8,4 13,6 18,6 9,0 13,-3 13,-14 1,-9 -1,-18 -9,-44 -5,-15 -7,-23 -8,-36 -1,-19 -2,-21 -19,-27 -15,-5 -16,-8 -3,-11 13,-3 25,0 39,10 9,7 11,8 17,7 5,-1 8,-3 15,-9 8,-8 9,-9 8,-14 -1,-7 3,-16 9,-21 4,-4 8,-11 13,-31 7,-27 5,-50 -6,-69 -8,-15 -49,-48 -73,-59 -22,-10 -22,-10 -141,-12 -131,-2 -190,-4 -207,-10 -24,-8 -43,-23 -39,-34 2,-6 10,-14 17,-18 13,-5 33,-2 71,14 34,14 55,18 95,16 35,-1 63,-6 70,-11 3,-2 3,-3 0,-4 -2,-2 -13,-5 -25,-8 -27,-7 -42,-13 -42,-16 0,-3 3,-3 20,-2 21,1 43,5 61,11 11,3 36,4 44,2 5,-2 7,-6 3,-10 -10,-10 -63,-30 -105,-38 -26,-6 -47,-7 -90,-6 -53,1 -76,5 -102,18 -21,11 -45,33 -53,49 -9,18 -3,31 23,47 18,11 32,16 62,20 54,8 93,10 198,10 52,0 93,1 98,2 16,3 34,9 44,16 12,8 26,24 32,39 5,9 6,13 6,22 0,10 -1,13 -4,20 -6,11 -18,24 -24,27 -8,3 -24,0 -45,-8 -14,-6 -19,-7 -33,-8 -18,-2 -21,-2 -48,-14 -28,-13 -72,-27 -93,-31 -10,-2 -20,0 -35,7 -14,7 -22,13 -52,42 -27,27 -39,37 -55,43 -27,13 -107,58 -113,65 -11,9 -29,32 -37,45 -14,24 -18,43 -20,87 -1,30 -2,32 -6,44 -5,14 -19,38 -38,67 -18,27 -31,49 -40,67 -17,34 -20,48 -22,96l-1 36 -6 17c-3,9 -9,26 -14,37 -18,43 -18,41 -19,119l-1 58 -7 13c-3,8 -9,18 -13,22 -8,13 -11,22 -14,59 -2,16 -3,31 -3,34 -1,6 -3,9 -20,28 -32,37 -45,55 -45,68 0,7 -1,8 -7,12 -12,8 -28,27 -34,40 -7,14 -8,27 -4,35 4,9 8,8 20,-10l12 -15 3 3c2,2 3,4 3,6 0,1 -3,8 -6,15 -3,8 -6,15 -6,17 1,5 6,6 38,6 22,0 26,-1 33,-4l0 0 -2 1zm397 558c-9,-3 -31,-18 -74,-52 -267,-210 -418,-375 -569,-621 -20,-32 -48,-79 -65,-112 -18,-32 -76,-155 -104,-222 -102,-237 -158,-483 -176,-768 -6,-101 -7,-238 -2,-267 6,-32 16,-59 30,-81 15,-23 43,-47 71,-58 55,-23 181,-59 288,-83 187,-42 361,-62 557,-68 54,-2 147,-1 167,1 3,0 17,1 29,2 121,5 283,22 400,43 144,26 253,58 347,102 15,7 32,15 38,18 52,24 76,62 83,133 4,35 -5,207 -18,328 -34,343 -104,594 -234,848 -53,102 -137,243 -201,333 -109,156 -215,265 -428,441 -4,3 -22,18 -40,33 -18,15 -37,30 -43,34 -20,13 -39,18 -55,14l0 0 -3 1zm41 63c19,-5 35,-13 65,-36 289,-213 451,-387 636,-683 49,-79 73,-122 93,-163 53,-114 93,-208 124,-304 77,-232 119,-478 129,-763 3,-67 2,-197 -1,-213 -8,-44 -34,-86 -73,-115 -14,-11 -64,-37 -97,-50 -95,-39 -204,-68 -347,-93 -83,-15 -192,-28 -298,-37 -11,-1 -23,-2 -28,-3 -14,-2 -82,-5 -120,-8 -74,-3 -208,-2 -301,4 -245,15 -514,64 -698,128 -51,18 -69,26 -95,43 -43,28 -62,49 -76,83 -17,40 -19,74 -17,194 3,153 13,272 30,397 35,249 98,458 203,688 41,89 53,111 118,216 16,26 60,93 78,118 123,177 243,304 421,449 46,37 156,121 175,133 7,4 24,11 32,13 12,3 32,2 45,-2l0 0 0 3zm-39 14c-23,-3 -38,-11 -72,-35 -113,-83 -207,-159 -290,-237 -32,-30 -102,-102 -128,-131 -101,-116 -185,-234 -288,-407 -22,-38 -50,-95 -88,-181 -123,-279 -187,-561 -206,-905 -3,-60 -5,-107 -5,-170l0 -3c0,-7 0,-13 0,-21 0,-62 1,-70 3,-87 6,-32 17,-61 30,-81 17,-25 61,-60 97,-77 51,-24 173,-61 284,-86 30,-7 89,-19 110,-22 6,-1 18,-3 27,-5 9,-2 22,-3 27,-4 6,-1 16,-3 22,-3 6,-1 17,-3 24,-4 8,-1 23,-3 35,-5 12,-2 24,-3 28,-4 37,-4 49,-6 73,-8 99,-11 225,-17 333,-17 27,0 53,0 77,1 53,2 172,8 181,11 3,1 14,2 26,3 12,1 31,3 43,4 12,2 31,3 43,5 53,6 100,13 119,16 8,2 26,4 43,7 168,27 308,67 413,117 45,22 62,34 85,58 26,27 41,57 48,93 7,31 3,223 -6,346 -13,167 -34,307 -70,454 -38,158 -90,304 -165,465 -25,54 -32,67 -53,103 -12,19 -21,36 -22,37 -1,1 -3,5 -5,8 -3,4 -6,8 -7,10 -1,2 -5,8 -8,14 -3,6 -7,12 -8,13 0,1 -1,2 -2,3 -1,1 -4,6 -8,12 -3,6 -9,15 -13,20 -3,5 -6,9 -6,10 0,1 -1,2 -1,3 -2,1 -9,13 -9,15 0,1 -1,2 -3,3 -2,1 -3,2 -3,3 0,1 -4,8 -8,14 -5,7 -8,13 -8,14 0,1 -1,2 -3,3 -2,1 -3,2 -3,3 0,2 -1,3 -2,3 -1,0 -3,2 -3,4 -1,3 -3,5 -3,6 -5,7 -12,16 -22,32 -11,16 -22,32 -38,53 -138,187 -283,327 -509,493 -33,24 -48,33 -67,38 -13,3 -32,5 -44,3l4 -3z"/>
   <path fill="#69542C" d="M163 391c0,-19 1,-27 3,-18 2,9 2,25 0,34 -2,9 -3,2 -3,-18l0 1zm-1 56c0,-8 2,-13 3,-8 2,4 2,12 0,16 -2,4 -3,1 -3,-8l0 -1zm1149 -172c-3,-3 -5,-20 -5,-39l0 -34 26 3c37,5 53,31 34,57 -8,12 -48,21 -55,13l0 0zm-5 95c0,-53 1,-55 13,-53 11,2 17,13 32,57l19 55 22 0 22 0 -20 -59 -20 -59 17 -16c20,-19 27,-48 18,-80 -9,-36 -33,-48 -93,-49l-48 0 -2 128c-1,71 -2,129 -1,129 1,1 9,1 20,1l19 0 0 -55 0 2zm-176 4c-8,-13 -12,-32 -13,-73 -2,-48 0,-59 11,-77 16,-26 36,-25 49,2 14,28 13,126 -2,148 -14,22 -32,22 -46,0l0 0 0 1zm58 44c8,-5 20,-22 27,-36 19,-37 20,-132 1,-174 -13,-28 -37,-49 -61,-49 -22,0 -50,20 -63,44 -28,52 -22,166 10,206 13,16 20,18 44,18 16,0 35,-4 43,-10l0 0 0 1zm379 7c16,-11 27,-44 27,-86 0,-32 -1,-33 -44,-37l-29 -3 0 21c0,18 2,21 15,21 13,0 15,3 15,16 0,37 -29,53 -51,29 -30,-34 -23,-163 9,-173 13,-4 36,12 36,26 0,6 8,8 22,8 24,0 27,-8 13,-37 -13,-26 -32,-37 -62,-37 -53,0 -77,40 -76,128 0,58 9,95 27,116 22,24 69,28 98,9l0 0 0 1zm-622 -175l0 -34 20 0c24,0 35,9 35,32 0,20 -8,27 -35,32l-20 4c0,0 0,-34 0,-34l0 0zm0 111c0,-32 2,-37 13,-41 34,-9 59,26 42,58 -7,12 -15,17 -32,18l-22 2c0,0 0,-37 0,-37zm61 65c25,-13 39,-38 40,-72 0,-24 -3,-34 -13,-45 -13,-13 -13,-13 -2,-33 14,-23 15,-48 3,-72 -12,-22 -41,-31 -92,-26l-37 4 -2 130 -2 130 44 -4c24,-3 51,-8 59,-12l0 0 0 1zm771 -90l-2 -129 -17 -2 -17 -2 0 50 0 50 -26 -3c-43,-6 -42,-4 -42,-58 0,-36 -3,-50 -8,-50 -4,0 -14,-2 -22,-4l-14 -4 0 131 0 131 22 3 22 3 0 -58c0,-64 -2,-62 44,-54l23 4 0 58c0,50 2,58 11,61 27,8 27,11 25,-125l0 0 -1 0zm-1063 132c6,-3 8,-14 6,-46 -1,-23 -1,-53 0,-67 2,-23 3,-19 26,47l24 72 22 -80 22 -80 2 70c2,60 3,69 11,67 5,-2 15,-3 21,-3 11,0 12,-6 12,-130l0 -130 -21 3c-21,3 -21,3 -37,57 -9,30 -20,65 -24,79l-8 25 -20 -66c-11,-36 -22,-67 -25,-71 -3,-3 -13,-3 -24,-1l-19 4 0 128c0,122 1,128 12,128 7,0 16,-2 20,-3l2 0zm1157 -112c0,-70 -2,-128 -5,-130 -3,-2 -13,-4 -22,-7l-17 -4 0 131 0 131 17 3c9,2 19,3 22,3 3,1 5,-57 5,-127l0 0zm-1314 28c2,-7 6,-24 8,-39l5 -27 8 33c7,28 7,34 0,39 -15,9 -25,7 -21,-6l0 0 -1 0zm-27 127c3,-2 6,-18 8,-37 5,-38 4,-38 35,-44l22 -4 8 32c8,31 8,32 27,27 11,-2 21,-5 22,-6 3,-3 -55,-235 -60,-240 -2,-3 -13,-2 -22,2 -18,5 -19,6 -42,107 -13,56 -27,117 -32,138l-8 37 19 -4c11,-3 21,-5 23,-7l0 0zm1529 -107l-2 -129 -17 -5 -17 -5 0 70c0,80 -1,80 -37,-14 -27,-69 -36,-81 -58,-81l-14 0 0 128c0,98 2,128 8,128 4,0 14,2 21,4 13,3 13,3 15,-72l2 -76 33 85c18,47 37,88 43,91 24,14 25,11 23,-123l1 1zm94 36l0 -130 -19 -7c-11,-4 -20,-7 -22,-7 -1,0 -3,58 -3,130l0 130 20 7c11,3 21,7 22,8 1,0 2,-58 2,-130l0 0 0 -1zm-1729 104c48,-18 51,-20 51,-37 0,-10 -1,-18 -3,-18 -1,0 -18,6 -37,13 -20,7 -37,13 -37,13 -1,0 -3,-49 -3,-109 0,-60 -1,-109 -3,-109 -1,0 -11,3 -22,7l-19 7 0 131c0,123 1,131 11,127 6,-3 33,-13 61,-23l1 1zm883 7c-18,-11 -1,-14 26,-4l27 9 -22 0c-12,0 -26,-3 -31,-5zm-468 1309c10,-4 17,-16 22,-36 4,-16 12,-34 18,-40 6,-7 11,-27 13,-53 3,-37 5,-45 26,-72 13,-18 27,-46 33,-66 6,-20 14,-44 19,-54 39,-77 65,-122 69,-122 13,0 24,30 24,67 0,29 3,40 10,44 9,5 9,8 1,23 -5,10 -11,27 -13,37 -6,25 -26,52 -46,62 -9,5 -30,22 -46,37 -22,22 -28,32 -28,48 0,27 9,42 19,32 13,-13 18,-9 13,9 -4,16 -3,17 17,13 25,-5 48,-20 53,-34 2,-6 6,-15 8,-20 3,-5 14,-28 25,-52 13,-29 28,-50 48,-66 15,-13 32,-32 37,-44 14,-35 57,-65 57,-41 0,15 -23,59 -41,77 -22,22 -38,52 -38,68 0,14 8,19 15,8 7,-11 14,-7 11,6 -3,11 0,13 16,13 32,0 61,-18 66,-40 3,-11 9,-28 16,-39 8,-13 11,-25 8,-36 -4,-17 8,-60 16,-60 7,0 28,47 34,72 3,10 10,25 16,32 11,13 16,13 71,10 57,-3 60,-4 74,-22 11,-14 17,-30 19,-57 4,-48 25,-81 72,-115l36 -26 9 14c5,8 15,30 23,50 13,33 14,38 7,67 -4,17 -6,37 -3,44 3,8 -1,27 -7,44l-11 31 14 16c17,18 27,20 33,7 5,-13 16,-12 16,1 0,13 12,8 26,-11 11,-14 11,-18 2,-43 -5,-15 -8,-32 -7,-38 2,-6 0,-22 -3,-37 -8,-33 -8,-72 1,-114 6,-29 5,-35 -8,-66 -8,-18 -14,-35 -13,-36 2,-2 13,2 26,7 59,24 106,18 134,-16l17 -20 -36 -3c-41,-3 -43,-4 -87,-43 -31,-27 -32,-29 -28,-54 2,-14 -1,-46 -7,-73 -10,-44 -10,-50 -1,-82 5,-18 10,-43 10,-53 0,-30 -17,-77 -36,-102 -10,-13 -21,-34 -25,-48 -3,-14 -13,-35 -22,-48 -14,-22 -14,-24 -6,-44 5,-12 9,-37 9,-56 0,-30 -3,-37 -20,-58 -37,-43 -55,-48 -234,-53 -207,-6 -239,-14 -208,-50 13,-15 35,-14 79,2 49,18 108,22 143,10 30,-10 31,-9 -22,-20 -8,-2 -15,-7 -15,-10 0,-5 9,-6 29,-3 80,11 93,12 93,6 0,-10 -54,-31 -110,-43 -90,-18 -178,-3 -218,38 -25,26 -28,53 -8,67 27,18 70,23 226,28 142,4 159,7 184,18 31,15 43,35 43,63 -1,24 -17,50 -31,50 -24,0 -103,-20 -159,-41 -32,-12 -65,-22 -72,-22 -15,0 -33,12 -86,58 -22,20 -63,48 -90,62 -87,46 -113,83 -126,172 -7,48 -15,67 -52,123 -31,47 -53,109 -53,152 0,21 -8,53 -19,88 -16,45 -19,65 -20,117 -1,53 -3,67 -17,92 -10,18 -18,45 -20,70 -4,37 -7,44 -34,77 -17,20 -30,39 -30,43 0,4 -8,18 -18,29 -23,27 -35,58 -25,68 5,5 9,3 17,-7 13,-19 21,-18 15,5 -3,13 -3,19 2,22 9,4 44,-2 62,-10l0 0 -2 0zm372 539c-51,-32 -179,-136 -265,-215 -141,-131 -282,-306 -378,-469 -205,-348 -312,-755 -324,-1236 -3,-141 -3,-145 10,-173 18,-37 33,-48 117,-81 232,-91 477,-133 813,-139 379,-8 693,38 945,138 88,34 103,45 121,83 13,28 13,32 10,176 -21,791 -292,1377 -845,1827 -67,55 -138,104 -155,110 -8,3 -24,-3 -50,-19l0 0 1 -1z"/>
   <path fill="#393735" d="M326 296c1,-8 -21,-5 -36,5l-14 10 14 15 14 15 11 -21c6,-12 11,-22 11,-25l0 0zm986 -56l0 -33 21 3c27,3 35,13 32,40 -2,19 -3,21 -28,22l-26 2 0 -33 1 0zm104 190c0,-3 -8,-30 -18,-60l-18 -55 19 -22c18,-20 18,-25 16,-55 -4,-56 -35,-77 -113,-77l-38 0 0 134 0 134 24 0 24 0 0 -56c0,-75 10,-75 37,0 18,49 22,56 36,58 29,4 32,4 32,-1l0 0 1 -1zm-278 -48c-32,-32 -26,-162 8,-174 39,-15 58,133 22,173 -13,14 -17,14 -29,2zm49 42c27,-17 41,-52 44,-111 5,-95 -25,-152 -79,-152 -20,0 -28,4 -45,21 -27,27 -36,62 -32,136 2,48 5,64 16,82 22,37 62,47 97,25l0 0 0 0zm373 11c22,-10 34,-42 34,-88l0 -40 -28 -4c-45,-6 -45,-6 -45,18 0,18 3,22 13,22 18,0 18,48 0,53 -31,10 -49,-25 -49,-95 0,-53 13,-83 34,-83 13,0 18,4 23,19 7,18 8,19 28,15 12,-3 22,-5 23,-6 1,-1 -2,-12 -7,-23 -27,-66 -107,-71 -133,-8 -17,37 -21,98 -12,144 10,51 42,84 78,84 13,0 32,-3 40,-8l0 0 0 0zm-615 -183c0,-24 2,-27 15,-31 21,-5 33,1 38,19 5,20 -13,40 -35,40 -17,0 -18,-2 -18,-27l-1 -1zm3 138c-2,-5 -3,-21 -2,-36 2,-25 3,-27 19,-29 24,-3 35,8 35,37 0,20 -3,25 -16,31 -22,8 -33,8 -37,-3l0 -1zm58 43c40,-17 58,-78 33,-118 -10,-17 -10,-21 -3,-31 12,-16 11,-66 -2,-83 -15,-22 -37,-27 -87,-22l-44 4 0 133 0 133 42 -4c22,-3 50,-8 61,-13l0 1zm779 -90c0,-72 -2,-132 -5,-133 -3,-2 -13,-4 -23,-5l-18 -3 -2 48c-2,48 -2,48 -18,48 -42,0 -43,-3 -46,-58l-2 -51 -20 -2 -20 -2 0 131c0,140 0,138 31,138 10,0 12,-6 13,-58l2 -58 24 3c13,1 27,3 29,5 3,2 5,29 5,62l0 58 20 3c11,2 22,3 24,3 3,1 5,-58 5,-130l0 0 1 -1zm-1073 133c13,-3 14,-7 14,-64l1 -60 20 61c11,33 22,62 23,64 2,2 9,-16 16,-39 7,-23 17,-57 22,-73l9 -31 1 63 1 63 23 -4 23 -4 -3 -131c-2,-72 -3,-132 -4,-133 -1,-1 -11,1 -22,3 -20,5 -21,8 -42,79l-22 74 -22 -67c-22,-67 -22,-67 -40,-66 -10,1 -20,4 -22,6 -3,3 -5,62 -6,133 -2,140 -3,135 30,126l0 0 -1 -1zm1159 -117l0 -133 -19 -4c-11,-3 -20,-3 -21,-3 -1,1 -3,59 -5,130l-4 129 23 7c13,3 24,7 25,7 1,0 2,-59 2,-133l-1 0zm367 43c0,-45 -4,-72 -12,-72 -3,0 -9,3 -15,8 -11,8 -11,11 -1,77 6,37 12,72 14,77 5,13 13,-39 13,-91l0 0 0 0zm-1675 -23c2,-11 3,-23 3,-29 0,-16 10,0 14,22 3,16 2,20 -9,23 -12,3 -13,2 -9,-16l1 0zm-47 144c17,-6 20,-11 26,-43 7,-33 8,-37 26,-40 27,-6 27,-6 32,20 6,37 10,39 36,32 13,-3 22,-8 22,-10 0,-2 -11,-43 -23,-92 -13,-48 -27,-103 -32,-122 -8,-32 -8,-32 -27,-29 -10,3 -21,6 -23,8 -4,4 -66,259 -66,273 0,9 5,10 29,1l0 1zm1551 -112c0,-72 -2,-132 -5,-133 -3,-2 -14,-5 -25,-8l-21 -4 3 63c1,35 1,63 -1,63 -2,0 -15,-30 -29,-67 -32,-83 -31,-80 -55,-86l-20 -4 0 131c0,72 2,133 5,134 3,2 13,4 22,7l17 4 0 -73c0,-40 3,-71 5,-67 3,3 18,41 35,83 29,75 37,87 62,88 6,0 8,-30 8,-130l0 -1zm82 -101c-3,-3 -13,-7 -22,-9l-17 -4 0 132 0 132 20 8 20 8 2 -131c1,-72 -1,-133 -3,-136l0 0zm-1667 199c0,-13 -1,-23 -3,-23 -1,0 -18,6 -37,13 -20,7 -37,11 -39,9 -2,-2 -4,-49 -6,-106 -2,-57 -5,-102 -8,-102 -3,0 -12,3 -21,6l-16 6 0 134 0 134 64 -23 64 -23 0 -23 1 -1zm-108 580c-28,-150 -48,-320 -57,-513 -10,-203 -10,-206 -22,-223 -6,-9 -13,-17 -16,-17 -18,0 5,354 35,537 17,105 55,262 63,262 3,0 1,-20 -4,-45l0 0zm938 -535c-7,-11 -2,-11 22,-3l22 8 -19 1c-11,0 -22,-3 -23,-6l0 0 -1 -1zm-470 1311c14,-9 21,-18 24,-36 3,-13 9,-30 16,-38 8,-11 12,-25 12,-54 0,-37 2,-41 25,-69 17,-21 29,-46 39,-78 8,-27 20,-56 27,-66 7,-9 21,-35 32,-57 11,-22 22,-39 24,-39 13,0 22,22 20,52 -2,38 3,54 15,54 8,0 8,3 0,18 -5,10 -9,22 -9,26 0,19 -27,62 -47,75 -12,8 -27,19 -35,27 -8,8 -20,18 -27,24 -13,10 -17,27 -13,58 2,18 11,26 20,17 12,-12 18,-9 11,5 -6,12 -5,13 13,13 23,0 60,-21 60,-33 0,-8 43,-97 58,-118 4,-7 17,-17 27,-23 10,-7 23,-22 29,-35 14,-31 32,-52 46,-52 6,0 11,2 11,3 0,11 -37,77 -45,80 -12,4 -43,65 -37,73 5,8 22,8 22,0 0,-3 3,-6 6,-6 3,0 4,4 3,10 -5,14 8,20 32,15 32,-8 52,-22 52,-41 0,-8 6,-24 13,-34 10,-14 13,-23 9,-41 -3,-22 5,-53 15,-53 7,0 21,29 30,62 12,46 17,48 87,48 47,0 63,-3 68,-9 4,-5 13,-15 19,-22 8,-9 12,-23 13,-49 1,-30 4,-41 22,-65 26,-37 77,-74 88,-65 4,3 15,25 24,48 15,37 16,44 9,68 -4,15 -6,34 -4,44 2,9 -1,27 -5,38 -13,30 -11,43 7,60 18,19 27,19 33,2l5 -14 6 15 6 15 17 -17c18,-18 20,-35 8,-60 -5,-10 -8,-23 -5,-31 2,-8 0,-31 -4,-52 -7,-31 -7,-48 0,-89 8,-48 8,-53 -5,-76 -20,-37 -18,-41 18,-27 53,21 109,12 131,-20 15,-22 13,-31 -8,-27 -32,7 -58,-3 -95,-35l-35 -31 -3 -55c-3,-58 -3,-91 -1,-182 2,-55 2,-55 -22,-92 -13,-20 -29,-50 -34,-67 -6,-17 -16,-37 -23,-45 -13,-14 -13,-16 -4,-34 29,-58 12,-114 -45,-147l-33 -19 -157 -5c-198,-7 -236,-13 -221,-43 10,-19 32,-20 85,-3 54,18 113,21 147,9 22,-8 20,-18 -4,-18 -9,0 -22,-4 -28,-10 -11,-9 -10,-9 13,-7 75,10 101,12 101,4 0,-4 -12,-13 -26,-18 -88,-38 -201,-43 -265,-10 -32,17 -64,49 -64,67 0,12 30,36 53,43 13,4 95,10 183,13 172,7 201,12 223,42 17,22 16,53 -2,73l-14 17 -48 -10c-27,-6 -72,-19 -101,-29 -92,-33 -93,-33 -165,28 -25,21 -72,53 -107,72 -88,48 -105,77 -118,188 -3,21 -13,43 -35,78 -47,73 -60,107 -67,169 -3,32 -13,77 -24,107 -16,44 -18,62 -18,110 0,48 -3,61 -15,84 -8,15 -17,42 -18,58 -7,53 -8,58 -37,90 -15,17 -29,37 -32,45 -3,8 -13,23 -22,35 -19,22 -27,46 -21,62 3,9 6,8 20,-8l15 -18 -4 23 -4 23 27 0c15,0 34,-5 46,-13l0 0 -6 3zm353 507c-151,-109 -338,-288 -444,-421 -319,-402 -470,-854 -493,-1476 -6,-165 3,-185 92,-223 234,-100 536,-150 903,-150 277,0 471,22 683,77 96,25 231,72 265,93 26,16 43,45 48,81 5,36 -7,288 -19,399 -64,573 -271,1017 -647,1387 -121,119 -303,266 -331,266 -6,0 -32,-16 -59,-35l0 0 2 2z"/>
   <path fill="#262523" d="M671 189c257,-43 511,-55 779,-41 110,6 297,24 371,37 32,5 43,4 36,-3 -5,-5 -149,-32 -225,-43 -143,-19 -257,-24 -462,-21 -213,3 -304,12 -444,39 -104,21 -192,47 -157,47 6,0 53,-7 103,-15l-1 0zm-357 144c0,-4 7,-18 16,-31 13,-18 13,-23 6,-23 -11,0 -58,23 -58,28 0,2 6,12 13,22 13,18 23,20 23,4zm998 -92c0,-31 0,-31 20,-31 24,0 35,9 35,31 0,22 -11,31 -35,31 -20,0 -20,0 -20,-31zm-2 136c3,-73 13,-72 38,2l20 56 27 0c15,0 27,-1 27,-2 0,-1 -9,-27 -20,-60l-20 -58 18 -18c14,-15 18,-22 18,-49 0,-65 -21,-83 -99,-87l-53 -3 0 134c0,143 0,142 31,140 15,-1 15,-3 18,-56l0 0 -3 0zm-178 -3c-6,-7 -9,-31 -10,-70 -2,-66 5,-90 28,-93 22,-3 34,33 31,100 -3,56 -10,74 -29,74 -6,0 -14,-5 -19,-10l-1 -1zm61 45c26,-22 39,-60 40,-115 2,-92 -27,-143 -78,-143 -54,0 -86,52 -86,140 0,58 14,102 38,122 22,18 63,17 87,-3l0 0 -1 0zm373 12c20,-13 26,-33 26,-83 0,-48 -3,-50 -51,-50 -22,0 -23,0 -23,25 0,21 2,25 13,25 9,0 13,4 13,18 0,27 -14,36 -33,23 -19,-13 -25,-32 -25,-92 0,-72 27,-105 51,-62 9,16 13,18 32,18 19,-2 22,-3 20,-19 -3,-41 -51,-75 -91,-64 -24,6 -49,36 -57,68 -15,61 -4,144 24,181 22,28 70,35 102,13l-1 -1zm397 -23c-7,-22 -8,-36 -3,-32 8,5 18,41 12,41 -3,0 -7,-3 -8,-8l0 -1zm168 408c18,-43 43,-203 43,-261 0,-22 -5,-45 -12,-61 -10,-21 -12,-39 -12,-107l0 -82 -22 -7 -22 -7 -2 76c-2,72 -3,76 -14,74 -27,-4 -27,-4 -27,-88l0 -81 -19 -4c-11,-3 -22,-4 -24,-4 -3,0 -6,27 -6,61l0 61 -27 -68c-15,-37 -30,-71 -32,-72 -3,-3 -13,-6 -24,-8l-20 -4 0 82c0,81 0,82 -14,82 -26,0 -29,-10 -29,-94 0,-77 -1,-79 -14,-83 -36,-10 -35,-12 -35,81l0 85 -14 -4c-8,-2 -16,-4 -18,-4 -3,0 -5,-39 -5,-87l0 -87 -19 -4c-11,-3 -22,-4 -24,-4 -3,0 -5,22 -5,50 0,54 0,53 -36,46l-19 -4 -2 -51 -2 -51 -23 -2 -23 -2 0 134 0 134 22 3c12,2 22,2 24,0 2,-2 3,-27 3,-58 0,-59 -1,-58 36,-51l19 4 0 48c1,53 9,172 13,191 23,97 100,186 189,222 48,19 75,23 135,22 51,-1 53,-2 60,-17l0 0 2 -1zm-1182 -565c0,-28 0,-28 22,-28 22,0 25,5 22,31 -2,13 -18,25 -32,25 -9,0 -11,-5 -11,-28l0 1zm-140 109c0,-8 2,-13 3,-8 2,4 2,12 0,16 -2,4 -3,1 -3,-8l0 -1zm-83 21c-3,-3 -4,-8 -4,-14 0,-8 2,-8 7,2 7,12 5,20 -3,13zm223 -20c0,-26 2,-31 13,-34 22,-6 36,6 36,29 0,25 -9,35 -32,35 -17,0 -18,-2 -18,-31l0 1zm-389 21c2,-6 3,-16 3,-23 0,-17 9,-7 15,16 3,15 2,18 -9,18 -9,0 -12,-3 -9,-10l0 0 0 0zm74 600c119,-32 230,-126 283,-237 7,-13 12,-27 13,-28 0,-2 6,-20 12,-41 8,-27 12,-57 12,-112 0,-84 -4,-109 -20,-110 -6,-1 5,-3 24,-6 67,-10 91,-34 91,-92 0,-21 -3,-36 -12,-46 -11,-14 -11,-16 -2,-27 7,-8 10,-22 10,-43 0,-27 -3,-33 -20,-49 -21,-19 -48,-23 -101,-14l-23 4 0 83c0,46 -2,88 -3,93 -2,6 -10,10 -18,10l-15 0 0 -91c0,-90 0,-91 -14,-90 -36,0 -38,3 -60,79l-21 72 -22 -67 -22 -67 -22 4c-12,3 -23,5 -26,7 -3,2 -5,42 -5,89l0 87 -16 4c-9,3 -18,2 -21,-1 -3,-3 -13,-38 -23,-79 -11,-41 -20,-75 -22,-77 -2,-2 -13,-1 -24,2l-22 4 -16 69c-29,126 -23,114 -60,123 -18,4 -41,12 -52,16l-20 8 0 -84c0,-75 -1,-84 -10,-81 -5,3 -17,6 -25,8l-15 4 3 141c3,156 11,213 50,357 30,111 57,180 73,187 18,8 116,3 160,-10l0 0 2 2zm-191 367c-12,-37 -33,-117 -48,-179 -52,-212 -68,-354 -86,-715 -3,-62 -7,-83 -16,-98 -13,-22 -24,-25 -24,-5 -8,256 33,582 104,820 31,103 81,246 87,246 3,0 -5,-30 -17,-67l0 0 0 -2zm867 -794c-8,-5 -7,-6 3,-6 7,0 18,3 24,6 11,5 11,5 -3,6 -8,0 -19,-3 -24,-6zm-422 1220c3,-9 6,-30 6,-47 -1,-25 3,-35 18,-54 23,-30 35,-54 44,-89 8,-30 72,-156 79,-156 13,0 19,19 19,58 0,32 3,43 9,48 16,9 -7,72 -35,101 -37,37 -56,53 -73,64 -13,8 -18,18 -21,36 -3,14 -6,25 -9,25 -3,0 -13,8 -24,16l-19 16 6 -17 1 0zm417 576c80,-53 158,-119 248,-213 123,-128 195,-213 220,-262 8,-15 8,-18 -3,-27 -12,-11 -14,-8 -96,74 -102,103 -173,161 -173,142 0,-11 -79,-57 -127,-73 -84,-29 -177,-27 -252,8l-32 14 -10 -35c-29,-100 -45,-232 -30,-243 3,-3 14,-22 24,-43 13,-27 26,-47 49,-67 19,-17 34,-36 37,-48 6,-21 32,-47 44,-43 10,3 -12,48 -40,81 -13,16 -28,37 -32,48 -8,18 -7,22 2,30 9,9 10,9 14,-2 4,-11 5,-11 8,3 5,20 23,22 57,8 24,-11 27,-15 31,-37 3,-13 8,-28 13,-33 7,-6 9,-17 8,-33 -2,-27 5,-60 13,-60 8,0 24,33 28,58 3,13 10,31 17,39 12,15 15,16 75,16l63 0 18 -23c13,-18 18,-31 18,-56 2,-44 23,-82 68,-114l35 -26 10 13c6,8 16,30 23,50 10,29 12,41 7,53 -3,9 -8,33 -8,54 -2,21 -4,48 -7,60 -3,20 -2,24 13,36 21,17 27,17 33,-1 4,-10 6,-11 6,-3 1,18 13,19 29,4 13,-13 15,-18 12,-40 -2,-13 -6,-43 -9,-66 -3,-22 -8,-46 -10,-52 -3,-6 -1,-37 3,-68 8,-55 8,-58 -5,-84 -18,-36 -17,-42 6,-29 27,14 86,19 109,9 20,-8 43,-33 43,-48 0,-6 -8,-8 -29,-5 -24,3 -32,1 -48,-11 -11,-8 -31,-23 -44,-33 -24,-18 -25,-20 -22,-44 2,-15 -1,-45 -7,-71 -6,-25 -8,-54 -7,-65 2,-11 7,-33 10,-49 8,-42 -2,-83 -30,-128 -13,-20 -27,-47 -31,-61 -4,-13 -13,-32 -20,-43 -12,-17 -12,-18 -2,-49 20,-60 -1,-109 -57,-138 -27,-13 -39,-15 -179,-19 -134,-4 -204,-11 -221,-21 -12,-8 -6,-28 10,-35 13,-6 24,-4 69,11 57,19 117,23 150,10 22,-9 17,-17 -13,-22 -13,-3 -26,-7 -28,-10 -5,-8 8,-8 55,3 37,9 71,8 71,-3 0,-7 -52,-28 -96,-40 -50,-13 -138,-13 -179,0 -37,13 -77,45 -83,68 -5,21 12,41 44,52 13,4 98,11 194,16 182,8 199,12 220,43 14,20 12,52 -5,71 -14,17 -15,17 -48,9 -18,-4 -69,-19 -113,-34 -62,-21 -84,-25 -98,-22 -10,3 -39,23 -64,46 -26,22 -72,55 -106,72 -84,45 -110,81 -121,164 -6,48 -16,72 -58,140 -29,47 -46,94 -46,132 0,19 -8,57 -22,97 -18,55 -22,74 -22,121 0,47 -3,60 -15,86 -8,17 -17,44 -19,62 -6,52 -8,55 -39,93 -17,21 -31,43 -31,48 0,6 -3,11 -6,11 -10,0 -37,46 -37,63 0,23 12,28 25,11l12 -15 -4 20c-3,18 -3,20 9,20 9,0 18,9 29,30 65,116 208,286 315,373 54,44 128,96 138,96 4,0 25,-12 47,-26l0 0 0 3zm-147 -8c-431,-330 -697,-735 -820,-1248 -50,-207 -80,-461 -80,-675 0,-117 8,-130 109,-170 323,-131 803,-177 1269,-122 236,27 535,115 582,169 19,22 23,35 11,30 -4,-2 -14,3 -22,8 -14,11 -14,11 -5,64 5,29 11,83 13,120 3,37 7,67 9,67 8,0 13,-44 13,-150l2 -103 3 84c4,158 -19,393 -57,583 -71,355 -208,662 -417,929 -132,168 -464,471 -517,471 -9,0 -44,-22 -91,-58l0 0 -2 0z"/>
  </g>
 </g>
</svg>
