

<!-- Creator: CorelDRAW X6 -->
<svg xmlns="http://www.w3.org/2000/svg" x="0" y="0" xml:space="preserve" width="28mm" height="25mm" version="1.1" shape-rendering="geometricPrecision" text-rendering="geometricPrecision" image-rendering="optimizeQuality" fill-rule="evenodd" clip-rule="evenodd"
viewBox="0 0 2800 2500"
 xmlns:xlink="http://www.w3.org/1999/xlink"
 enable-background="new 0 0 912.7 290.1">
 <g id="Layer_x0020_1">
  <metadata id="CorelCorpID_0Corel-Layer"/>
 </g>
 <g id="Layer_x0020_1_0">
  <metadata id="CorelCorpID_1Corel-Layer"/>
 </g>
 <g id="Layer_x0020_1_0_1">
  <metadata id="CorelCorpID_2Corel-Layer"/>
 </g>
 <g id="Layer_x0020_1_0_2">
  <metadata id="CorelCorpID_3Corel-Layer"/>
 </g>
 <g id="Layer_x0020_1_3">
  <metadata id="CorelCorpID_4Corel-Layer"/>
 </g>
 <g id="Layer_x0020_1_0_4">
  <metadata id="CorelCorpID_5Corel-Layer"/>
 </g>
 <g id="Layer_x0020_1_0_5">
  <metadata id="CorelCorpID_6Corel-Layer"/>
 </g>
 <g id="Layer_x0020_1_0_6">
  <metadata id="CorelCorpID_7Corel-Layer"/>
 </g>
 <g id="Layer_x0020_1_0_7">
  <metadata id="CorelCorpID_8Corel-Layer"/>
 </g>
 <g id="Layer_x0020_1_0_2_8">
  <metadata id="CorelCorpID_9Corel-Layer"/>
 </g>
 <g id="Layer_x0020_1_0_2_8_9">
  <metadata id="CorelCorpID_10Corel-Layer"/>
 </g>
 <g id="Layer_x0020_1_0_10">
  <metadata id="CorelCorpID_11Corel-Layer"/>
 </g>
 <g id="Layer_x0020_1_1">
  <metadata id="CorelCorpID_12Corel-Layer"/>
 </g>
 <g id="Layer_x0020_1_11">
  <metadata id="CorelCorpID_13Corel-Layer"/>
 </g>
 <g id="Layer_x0020_1_12">
  <metadata id="CorelCorpID_14Corel-Layer"/>
  <path fill="#FEFEFE" d="M1328 214l-494 -215 496 1854 499 -1854 -501 215zm-423 -129l425 184 427 -182 -427 1581 -425 -1582 0 -1z"/>
  <path fill="#FEFEFE" d="M1330 305l-370 -160 370 1406 375 -1405 -375 159zm0 366l-31 -126 -191 -30 191 -31 31 -122 30 122 196 31 -196 30 -30 126z"/>
  <path fill="#FEFEFE" d="M1798 2489c5,0 9,-4 9,-9l0 0 0 -319c0,-5 -4,-9 -9,-9l0 0 -50 0c-5,0 -9,4 -9,9l0 0 0 319c0,5 4,9 9,9l0 0 50 0z"/>
  <path fill="#FEFEFE" d="M1243 2161c0,-5 4,-9 9,-9l0 0 50 0c5,0 9,4 9,9l0 0 0 261c0,26 -10,68 -67,68 -20,-1 -42,-5 -59,-29l0 0 -157 -223c-7,-8 -20,-11 -20,5l0 0 0 237c0,5 -4,9 -9,9l0 0 -50 0c-5,0 -9,-4 -9,-9l0 0 0 -236c-1,-29 10,-92 67,-92 20,0 43,1 63,30l0 0 155 219c7,8 19,10 19,-5l0 0 0 -235z"/>
  <path fill="#FEFEFE" d="M150 2336c-5,0 -9,4 -9,9l0 0 0 50c0,5 4,9 9,9l0 0 156 0c51,0 122,-22 122,-126 0,-104 -82,-126 -131,-126l0 0 -253 0c-5,0 -9,4 -9,9l0 0 0 319c0,5 4,9 9,9l0 0 50 0c5,0 9,-4 9,-9l0 0 0 -246c0,-8 4,-15 12,-15l0 0 187 0c22,0 58,7 58,56 0,45 -22,59 -58,59l0 0 -152 0 1 0z"/>
  <path fill="#FEFEFE" d="M2074 2245c-8,-13 -18,-14 -26,-1l0 0 -135 235c-4,8 -7,10 -12,10 -7,0 -55,0 -55,0 -9,0 -8,-5 -5,-8l0 0 169 -293c30,-52 78,-48 106,1l0 0 169 293c5,8 1,8 -6,8l0 0 -51 0c-8,0 -14,-4 -16,-8l0 0 -29 -51c-2,-4 -5,-8 -18,-8l0 0 -172 0c-4,0 -7,-2 -3,-8 4,-6 33,-54 33,-54 2,-3 4,-7 10,-7l0 0 96 0c5,0 8,-4 5,-9 -3,-6 -57,-99 -57,-99l0 0 -2 0z"/>
  <path fill="#FEFEFE" d="M2632 2422c5,0 9,4 9,9l0 0 0 50c0,5 -4,9 -9,9l0 0 -199 0c-74,0 -161,-51 -162,-170 -1,-129 96,-168 149,-168l0 0 212 0c5,0 9,4 9,9l0 0 0 47c0,5 -4,9 -9,9l0 0 -193 0c-49,1 -99,22 -99,102 0,81 67,102 99,102l0 0 194 0 -1 -1z"/>
  <path fill="#FEFEFE" d="M739 2153l-102 0c-87,0 -166,59 -166,168 0,108 67,170 148,170l0 0 114 0c82,0 150,-59 150,-175 0,-116 -96,-162 -144,-162l0 0zm-29 275l-66 0c-84,0 -106,-55 -106,-102 0,-91 67,-107 96,-107l0 0 87 0c51,0 95,37 95,102 0,87 -62,107 -106,107l0 0z"/>
  <path fill="#FEFEFE" d="M1493 2481c0,5 4,9 9,9l0 0 50 0c5,0 9,-4 9,-9l0 0 0 -254c0,-5 3,-8 8,-8l0 0 127 0c5,0 9,-4 9,-9l0 0 0 -47c0,-5 -4,-9 -9,-9l0 0 -337 0c-5,0 -9,4 -9,9l0 0 0 47c0,5 4,9 9,9l0 0 127 0c5,0 8,3 8,7l0 0 0 255 -1 0z"/>
  <path fill="#FEFEFE" d="M1642 1343c-32,0 -60,22 -60,59 0,38 28,59 60,59 32,0 60,-22 60,-59 0,-37 -28,-59 -60,-59l0 0zm0 105l0 0c-23,0 -42,-18 -42,-46 0,-27 19,-46 42,-46 23,0 42,18 42,46 0,27 -20,46 -42,46l0 0z"/>
  <path fill="#FEFEFE" d="M1653 1407c8,-1 15,-5 15,-17 0,-15 -9,-20 -26,-20l0 0 -24 0 0 64 14 0 0 -27 7 0 15 27 16 0 -16 -28 0 1zm-9 -9l-12 0 0 -15 9 0c6,0 12,1 12,8 0,8 -4,8 -9,8l0 0 0 -1z"/>
  <path fill="#FEFEFE" d="M2723 2417c-23,0 -42,15 -42,41 0,26 20,41 42,41 22,0 42,-15 42,-41 0,-26 -20,-41 -42,-41l0 0zm0 74l0 0c-17,0 -30,-13 -30,-32 0,-19 13,-32 30,-32 16,0 30,13 30,32 0,19 -14,32 -30,32l0 0z"/>
  <path fill="#FEFEFE" d="M2731 2462c6,0 11,-4 11,-11 0,-10 -7,-13 -19,-13l0 0 -17 0 0 45 9 0 0 -19 5 0 10 19 11 0 -11 -20 0 -1zm-7 -7l-8 0 0 -11 7 0c4,0 8,0 8,5 0,5 -3,6 -7,6l0 0 0 1z"/>
 </g>
</svg>
