

<!-- Creator: CorelDRAW X8 -->
<svg xmlns="http://www.w3.org/2000/svg" xml:space="preserve" x="0" y="0" width="25mm" height="25mm" version="1.1" shape-rendering="geometricPrecision" text-rendering="geometricPrecision" image-rendering="optimizeQuality" fill-rule="evenodd" clip-rule="evenodd"
viewBox="0 0 2500 2500"
 xmlns:xlink="http://www.w3.org/1999/xlink"
 enable-background="new 0 0 24 24">
 <defs>
     <linearGradient id="id0" gradientUnits="userSpaceOnUse" x1="835.21" y1="115.34" x2="1650.22" y2="1839.4">
      <stop offset="0" stop-opacity="1" stop-color="#AAAAAB"/>
      <stop offset="0.329412" stop-opacity="1" stop-color="#F7F7F7"/>
      <stop offset="1" stop-opacity="1" stop-color="black"/>
     </linearGradient>
     <linearGradient id="id1" gradientUnits="userSpaceOnUse" x1="142" y1="1278.97" x2="2466.6" y2="673.61">
      <stop offset="0" stop-opacity="1" stop-color="#AAAAAB"/>
      <stop offset="0.329412" stop-opacity="1" stop-color="#F7F7F7"/>
      <stop offset="1" stop-opacity="1" stop-color="black"/>
     </linearGradient>
     <linearGradient id="id2" gradientUnits="userSpaceOnUse" x1="2446.84" y1="1234.84" x2="1580.42" y2="834.06">
      <stop offset="0" stop-opacity="1" stop-color="#AAAAAB"/>
      <stop offset="0.329412" stop-opacity="1" stop-color="#F7F7F7"/>
      <stop offset="1" stop-opacity="1" stop-color="#434343"/>
     </linearGradient>
     <linearGradient id="id3" gradientUnits="userSpaceOnUse" x1="1566.46" y1="1519.62" x2="842.42" y2="1065.89">
      <stop offset="0" stop-opacity="1" stop-color="#AAAAAB"/>
      <stop offset="0.329412" stop-opacity="1" stop-color="#F7F7F7"/>
      <stop offset="1" stop-opacity="1" stop-color="#434343"/>
     </linearGradient>
     <linearGradient id="id4" gradientUnits="userSpaceOnUse" x1="632.45" y1="940.06" x2="108.12" y2="962.21">
      <stop offset="0" stop-opacity="1" stop-color="#AAAAAB"/>
      <stop offset="0.329412" stop-opacity="1" stop-color="#F7F7F7"/>
      <stop offset="1" stop-opacity="1" stop-color="#434343"/>
     </linearGradient>
     <linearGradient id="id5" gradientUnits="userSpaceOnUse" x1="1744.05" y1="877.55" x2="921.92" y2="541.63">
      <stop offset="0" stop-opacity="1" stop-color="gainsboro"/>
      <stop offset="0.329412" stop-opacity="1" stop-color="#F7F7F7"/>
      <stop offset="1" stop-opacity="1" stop-color="#434343"/>
     </linearGradient>
    <linearGradient id="id6" gradientUnits="userSpaceOnUse" x1="553.38" y1="2535.08" x2="1946.64" y2="1406.81">
     <stop offset="0" stop-opacity="1" stop-color="#AAAAAB"/>
     <stop offset="0.541176" stop-opacity="1" stop-color="#EEEEEE"/>
     <stop offset="1" stop-opacity="1" stop-color="#898989"/>
    </linearGradient>
 </defs>
 <g id="Katman_x0020_1">
  <metadata id="CorelCorpID_0Corel-Layer"/>
  <rect fill="none" width="2500" height="2500"/>
  <g id="_1874551218336">
   <g>
    <path fill="url(#id0)" d="M2450 960c-9,-337 -554,-596 -1217,-578 -662,18 -1192,306 -1183,644 9,337 554,595 1217,577 662,-18 1192,-306 1183,-643zm-1508 -410l0 0c47,-38 112,-58 214,-59 55,-1 126,1 187,3 228,7 473,31 543,63 38,20 89,41 12,114 -25,23 -81,59 -154,100 -94,52 -216,111 -349,153 -106,34 -218,56 -323,61 0,0 -55,3 -105,-12 -52,-15 -99,-50 -102,-158 0,-49 2,-92 8,-129 11,-68 37,-108 69,-136zm-540 801l0 0c-41,6 -87,-25 -145,-77 0,0 -54,-43 -69,-62 0,0 -34,-34 -58,-83 -33,-75 -51,-181 83,-316 79,-79 184,-134 277,-180 54,-26 108,-46 156,-61 104,-33 183,-39 208,-21 12,7 20,23 13,39 -19,48 -51,109 -51,109 -73,138 -67,130 -150,277 -80,142 -163,282 -163,282 0,0 -57,90 -101,93zm1156 75l0 0c-47,38 -115,58 -227,59 -55,1 -114,-1 -174,-3 -228,-7 -469,-30 -539,-62 -35,-17 -90,-42 -13,-114 83,-79 492,-316 831,-331 0,0 213,-28 206,170 0,49 -1,92 -7,129 -11,68 -35,117 -77,152zm728 -260l0 0c-79,80 -184,134 -277,180 -54,27 -108,46 -156,61 -104,33 -183,40 -208,22 -12,-8 -20,-24 -13,-40 19,-47 51,-108 51,-108 73,-139 67,-131 150,-278 80,-141 163,-282 163,-282 0,0 57,-90 101,-93 41,-5 87,25 145,78 0,0 54,42 69,62 0,0 33,33 58,82 32,75 51,181 -83,316z"/>
    <path fill="url(#id1)" d="M2420 956c-9,-321 -540,-566 -1186,-547 -645,18 -1161,294 -1152,615 9,321 540,566 1186,548 646,-19 1162,-295 1152,-616zm-1424 -181l0 0c5,-177 37,-257 231,-261 194,-4 466,14 530,45 27,13 67,35 4,93 -63,57 -361,242 -611,253 0,0 -158,25 -154,-130zm-503 453l0 0c0,0 -43,80 -88,82 -28,2 -60,-19 -107,-64 0,0 -43,-38 -54,-52 0,0 -27,-28 -47,-75 -26,-64 -33,-157 70,-271 63,-69 142,-116 217,-155 140,-74 270,-104 299,-82 9,7 14,20 11,34 -10,40 -44,97 -44,97 0,0 -61,123 -125,245 -64,121 -132,241 -132,241zm1007 -21l0 0c-5,177 -38,257 -232,261 -194,4 -465,-14 -530,-45 -26,-13 -67,-35 -3,-93 63,-58 361,-242 610,-253 0,0 159,-26 155,130zm718 -73l0 0c-63,68 -143,115 -217,155 -140,73 -270,103 -299,81 -10,-6 -14,-20 -11,-34 10,-40 44,-96 44,-96 0,0 61,-124 125,-245 64,-122 132,-242 132,-242 0,0 43,-79 87,-82 29,-2 61,19 108,64 0,0 43,38 54,53 0,0 27,27 46,74 27,64 34,158 -69,272z"/>
    <path fill="url(#id2)" d="M2369 850c-25,-49 -58,-82 -58,-82 -15,-20 -69,-62 -69,-62 -58,-53 -104,-83 -145,-78 -44,3 -101,93 -101,93 0,0 -83,141 -163,282 -83,147 -77,139 -150,278 0,0 -32,61 -51,108 -7,16 1,32 13,40 25,18 104,11 208,-22 48,-15 102,-34 156,-61 93,-46 198,-100 277,-180 134,-135 115,-241 83,-316zm-151 284l0 0c-63,68 -143,115 -217,155 -140,73 -270,103 -299,81 -10,-6 -14,-20 -11,-34 10,-40 44,-96 44,-96 0,0 61,-124 125,-245 64,-122 132,-242 132,-242 0,0 43,-79 87,-82 29,-2 61,19 108,64 0,0 43,38 54,53 0,0 27,27 46,74 27,64 34,158 -69,272z"/>
    <path fill="url(#id3)" d="M1436 975c-339,15 -748,252 -831,331 -77,72 -22,97 13,114 70,32 311,55 539,62 60,2 119,4 174,3 112,-1 180,-21 227,-59 42,-35 66,-84 77,-152 6,-37 7,-80 7,-129 7,-198 -206,-170 -206,-170zm64 232l0 0c-5,177 -38,257 -232,261 -194,4 -465,-14 -530,-45 -26,-13 -67,-35 -3,-93 63,-58 361,-242 610,-253 0,0 159,-26 155,130z"/>
    <path fill="url(#id4)" d="M854 551c-25,-18 -104,-12 -208,21 -48,15 -102,35 -156,61 -93,46 -198,101 -277,180 -134,135 -116,241 -83,316 24,49 58,83 58,83 15,19 69,62 69,62 58,52 104,83 145,77 44,-3 101,-93 101,-93 0,0 83,-140 163,-282 83,-147 77,-139 150,-277 0,0 32,-61 51,-109 7,-16 -1,-32 -13,-39zm-60 94l0 0c-10,40 -44,97 -44,97 0,0 -61,123 -125,245 -64,121 -132,241 -132,241 0,0 -43,80 -88,82 -28,2 -60,-19 -107,-64 0,0 -43,-38 -54,-52 0,0 -27,-28 -47,-75 -26,-64 -33,-157 70,-271 63,-69 142,-116 217,-155 140,-74 270,-104 299,-82 9,7 14,20 11,34z"/>
    <path fill="url(#id5)" d="M1886 557c-70,-32 -315,-56 -543,-63 -61,-2 -132,-4 -187,-3 -102,1 -167,21 -214,59 -32,28 -58,68 -69,136 -6,37 -8,80 -8,129 3,108 50,143 102,158 50,15 105,12 105,12 105,-5 217,-27 323,-61 133,-42 255,-101 349,-153 73,-41 129,-77 154,-100 77,-73 26,-94 -12,-114zm-125 95l0 0c-63,57 -361,242 -611,253 0,0 -158,25 -154,-130 5,-177 37,-257 231,-261 194,-4 466,14 530,45 27,13 67,35 4,93z"/>
   </g>
   <path fill="url(#id6)" d="M422 1936l-127 0 0 -113 -79 0 0 296 79 0 0 -120 127 0 0 120 79 0 0 -296 -79 0 0 113zm267 -7l0 0 -74 -106 -92 0 126 178 0 118 79 0 0 -118 125 -178 -92 0 -72 106zm390 94l0 0c0,22 -12,31 -35,31l-90 0 0 -231 -79 0 0 296 204 0c31,0 80,-13 79,-76l0 -220 -79 0 0 200zm332 -200l0 0 -204 0 0 296 79 0 0 -231 90 0c22,0 35,9 35,31l0 200 79 0 0 -220c1,-63 -48,-76 -79,-76zm794 0l0 0 0 296 79 0 0 -296 -79 0zm-461 0l0 0 -205 0 0 296 205 0c39,0 80,-22 80,-76l0 -152c0,-30 -7,-68 -80,-68zm0 202l0 0c0,11 -3,25 -22,26l-104 0 0 -160 106 0c13,0 20,9 20,22l0 112zm126 -134l0 0 0 228 80 0 0 -72 124 0 0 72 79 0 0 -296 -207 0c-52,0 -76,25 -76,68zm80 27l0 0c0,-20 7,-26 24,-27l100 0 0 96 -124 0 0 -69z"/>
  </g>
 </g>
</svg>
