

<!-- Creator: CorelDRAW X6 -->
<svg xmlns="http://www.w3.org/2000/svg" x="0" y="0" xml:space="preserve" width="29mm" height="25mm" version="1.1" shape-rendering="geometricPrecision" text-rendering="geometricPrecision" image-rendering="optimizeQuality" fill-rule="evenodd" clip-rule="evenodd"
viewBox="0 0 2900 2500"
 xmlns:xlink="http://www.w3.org/1999/xlink"
 enable-background="new 0 0 912.7 290.1">
 <g id="Layer_x0020_1">
  <metadata id="CorelCorpID_0Corel-Layer"/>
 </g>
 <g id="Layer_x0020_1_0">
  <metadata id="CorelCorpID_1Corel-Layer"/>
 </g>
 <g id="Layer_x0020_1_0_1">
  <metadata id="CorelCorpID_2Corel-Layer"/>
 </g>
 <g id="Layer_x0020_1_0_2">
  <metadata id="CorelCorpID_3Corel-Layer"/>
 </g>
 <g id="Layer_x0020_1_3">
  <metadata id="CorelCorpID_4Corel-Layer"/>
  <g id="_403985112">
   <path fill="#FEFEFE" d="M1778 680c-39,-307 -180,-551 -320,-551 -154,0 -283,217 -334,551l-25 0c-307,-64 -473,-154 -473,-270 0,-166 358,-295 807,-295 461,0 843,129 843,295 0,115 -191,230 -498,270l-1 0 1 0zm1099 242c0,-523 -627,-922 -1433,-922 -793,0 -1419,398 -1419,910 0,525 627,933 1433,933 779,0 1419,-408 1419,-922l0 1zm-1318 807c166,-152 244,-422 244,-818l0 0 12 -14c410,-51 691,-230 691,-422l0 -14c115,129 166,270 166,424 0,436 -486,807 -1113,843l0 1zm-1163 -1279c-14,12 -14,12 -14,25 0,191 281,359 705,422l12 14 0 25c0,385 90,652 244,793 -654,-51 -1115,-408 -1115,-858 0,-141 53,-295 168,-422l0 1zm1253 256l-14 0c-51,0 -115,0 -178,0 -78,0 -141,0 -193,0l-25 -14c39,-217 115,-346 205,-346 103,0 166,115 205,346l0 14zm25 217c-12,309 -102,525 -217,525 -129,0 -219,-217 -230,-525l12 0c64,0 141,14 230,14 103,0 129,0 205,-14z"/>
   <g>
    <polygon fill="#FEFEFE" points="429,2094 278,2094 278,2482 170,2482 170,2094 23,2094 23,2005 429,2005 "/>
    <path fill="#FEFEFE" d="M844 2245c0,94 -56,161 -137,161 -85,0 -141,-61 -141,-161 4,-94 56,-161 141,-161 81,0 137,66 137,161zm114 0c0,-142 -114,-255 -251,-255 -141,0 -255,113 -255,259 0,138 114,251 251,251 146,0 255,-113 255,-255z"/>
    <polygon fill="#FEFEFE" points="1264,2307 1264,2482 1155,2482 1155,2307 967,2005 1089,2005 1208,2203 1329,2005 1457,2005 "/>
    <path fill="#FEFEFE" d="M1844 2245c0,94 -52,161 -137,161 -85,0 -137,-61 -137,-161 0,-94 56,-161 141,-161 81,0 133,66 133,161zm118 0c0,-142 -113,-255 -255,-255 -137,0 -251,113 -251,259 0,138 108,251 251,251 142,0 255,-113 255,-255z"/>
    <polygon fill="#FEFEFE" points="2391,2094 2240,2094 2240,2482 2132,2482 2132,2094 1986,2094 1986,2005 2391,2005 "/>
    <path fill="#FEFEFE" d="M2618 2108l66 183 -137 0 71 -183zm66 -103l-133 0 -193 477 118 0 38 -104 203 0 43 104 117 0 -192 -477 -1 0z"/>
   </g>
  </g>
 </g>
</svg>
