

<!-- Creator: CorelDRAW X6 -->
<svg xmlns="http://www.w3.org/2000/svg" x="0" y="0" xml:space="preserve" width="25mm" height="25mm" version="1.1" shape-rendering="geometricPrecision" text-rendering="geometricPrecision" image-rendering="optimizeQuality" fill-rule="evenodd" clip-rule="evenodd"
viewBox="0 0 2500 2500"
 xmlns:xlink="http://www.w3.org/1999/xlink"
 enable-background="new 0 0 912.7 290.1">
 <g id="Layer_x0020_1">
  <metadata id="CorelCorpID_0Corel-Layer"/>
  <g id="_1798237856">
   <polygon fill="#FEFEFE" points="0,0 2500,0 2500,2500 0,2500 "/>
   <path fill="#2B2A29" d="M99 99l2303 0 0 2303 -2303 0 0 -2303zm79 79l0 2144 2144 0 0 -2144 -2144 0zm1072 173c396,0 717,321 717,717 0,396 -321,717 -717,717 -396,0 -717,-321 -717,-717 0,-396 321,-717 717,-717zm0 76c-354,0 -641,287 -641,641 0,354 287,641 641,641 354,0 641,-287 641,-641 0,-354 -287,-641 -641,-641zm378 998c-14,0 -25,-11 -25,-25 0,-13 11,-24 25,-24 14,0 25,11 25,24 0,14 -11,25 -25,25zm0 -3c12,0 22,-10 22,-23 0,-12 -10,-22 -22,-22 -12,0 -22,10 -22,22 0,13 10,23 22,23zm4 -21l8 13 -4 0 -8 -13 -6 0 0 13 -3 0 0 -28 12 0c3,0 5,0 7,2 3,1 3,3 3,6 0,6 -4,8 -9,8l1 1zm-10 -3l5 0c4,0 10,1 10,-5 0,-4 -3,-5 -7,-5l-8 0 0 10zm-213 -201c-36,169 -148,316 -155,326l0 0c-3,-7 -76,-103 -124,-228 -36,169 -148,317 -155,327l0 0c-5,-11 -166,-218 -166,-426l0 -358 279 0 0 -98 278 0 0 -99 332 0 0 358c0,208 -158,414 -166,426l0 0c-3,-7 -77,-103 -125,-228l2 0zm-547 -307l0 312c0,157 107,300 113,312 7,-11 113,-154 113,-312l0 -312 -227 0zm279 -99l0 312c0,158 107,301 113,312 7,-11 113,-154 113,-312l0 -312 -226 0 -1 0zm278 -99l0 312c0,158 107,301 113,312 7,-11 113,-154 113,-312l0 -312 -227 0zm12 12l203 0 0 249c0,54 -2,87 -3,105l-199 -355 -1 1zm0 147l173 304c-23,62 -49,104 -71,139 -48,-73 -102,-184 -102,-285 0,-108 0,-158 0,-158l-1 0zm-278 -48l203 0 0 249c0,54 -2,87 -3,105l-199 -355 0 1zm0 147l173 304c-23,62 -49,104 -71,139 -48,-73 -102,-184 -102,-285 0,-108 0,-158 0,-158zm-279 -48l203 0 0 249c0,54 -2,87 -3,105l-199 -354 -1 0zm0 147l173 304c-23,62 -49,104 -71,139 -48,-73 -102,-185 -102,-285 0,-108 0,-158 0,-158l-1 0zm-527 863c134,3 188,2 289,0 63,-1 94,12 94,56 0,45 -36,58 -74,62 -9,1 -7,5 0,6 54,4 90,10 90,61 0,50 -40,78 -122,77 -113,-1 -157,-2 -278,0l0 -17c39,0 62,-11 62,-54l0 -126c0,-33 -7,-48 -59,-48l0 -17 -2 0zm129 112c58,1 86,3 123,0 35,-2 54,-18 54,-50 0,-32 -27,-43 -58,-43 -32,0 -46,-1 -78,-1 -32,0 -39,13 -40,28 -1,15 -1,30 -1,65l0 1zm0 26c0,0 -1,28 0,60 0,33 13,40 41,41 30,2 58,3 93,0 27,-1 58,-18 58,-55 0,-38 -28,-44 -63,-46 -36,-3 -90,-2 -128,0zm281 -138l135 0c-4,92 -7,135 -7,178 0,43 19,66 76,66 57,0 93,-21 97,-66 3,-49 3,-86 3,-118 0,-32 -25,-43 -59,-43l0 -18 133 0c-1,83 -4,139 -4,183 0,45 3,57 54,57l0 20 -122 0 0 -35c-28,32 -61,39 -111,39 -50,0 -137,-7 -137,-79 1,-73 3,-103 3,-131 0,-28 -18,-38 -61,-38l0 -18 0 2zm628 261l-182 0 0 -21c42,0 55,-13 55,-43l0 -139c0,-32 -18,-42 -53,-42l0 -18 178 0 0 18c-34,0 -53,10 -53,42l0 138c0,29 14,43 56,43l0 21 0 1zm25 -130c0,-88 43,-138 184,-138 88,0 128,10 156,16l0 73 -53 0c0,-44 -29,-68 -103,-68 -74,0 -108,24 -108,118 0,93 35,114 108,114 72,0 105,-24 105,-78l58 0c0,57 -49,98 -163,98 -114,0 -184,-28 -184,-134l0 -1zm377 -131l176 0 0 18c-38,0 -53,8 -53,39l0 76c29,-22 82,-59 102,-74 20,-15 34,-43 -19,-43l0 -16 168 0 0 17c-82,12 -119,48 -167,84 57,48 103,88 131,112 27,23 45,32 61,32l0 17 -115 0c0,0 -104,-94 -114,-105 -11,-10 -18,-17 -33,-6 -8,5 -13,9 -13,9l0 41c0,31 30,43 60,43l0 18 -192 0 0 -18c32,0 62,-5 62,-41l0 -146c0,-33 -18,-39 -54,-39l0 -18 0 1zm453 261c-14,0 -25,-11 -25,-25 0,-13 11,-25 25,-25 13,0 24,12 24,25 0,14 -11,25 -24,25zm0 -3c12,0 22,-9 22,-22 0,-12 -10,-22 -22,-22 -13,0 -22,10 -22,22 0,13 9,22 22,22zm4 -21l8 13 -4 0 -8 -13 -6 0 0 13 -3 0 0 -28 12 0c3,0 5,0 7,1 3,1 3,3 3,6 0,6 -3,8 -8,8l0 1zm-10 -3l5 0c3,0 10,1 10,-5 0,-4 -3,-5 -7,-5l-8 0 0 10z"/>
  </g>
 </g>
 <g id="Layer_x0020_1_0">
  <metadata id="CorelCorpID_1Corel-Layer"/>
 </g>
 <g id="Layer_x0020_1_1">
  <metadata id="CorelCorpID_2Corel-Layer"/>
 </g>
 <g id="Layer_x0020_1_0_2">
  <metadata id="CorelCorpID_3Corel-Layer"/>
 </g>
 <g id="Layer_x0020_1_0_3">
  <metadata id="CorelCorpID_4Corel-Layer"/>
 </g>
 <g id="Layer_x0020_1_4">
  <metadata id="CorelCorpID_5Corel-Layer"/>
 </g>
 <g id="Layer_x0020_1_0_5">
  <metadata id="CorelCorpID_6Corel-Layer"/>
 </g>
 <g id="Layer_x0020_1_0_6">
  <metadata id="CorelCorpID_7Corel-Layer"/>
 </g>
 <g id="Layer_x0020_1_0_7">
  <metadata id="CorelCorpID_8Corel-Layer"/>
 </g>
 <g id="Layer_x0020_1_0_8">
  <metadata id="CorelCorpID_9Corel-Layer"/>
 </g>
 <g id="Layer_x0020_1_0_2_9">
  <metadata id="CorelCorpID_10Corel-Layer"/>
 </g>
 <g id="Layer_x0020_1_0_2_8">
  <metadata id="CorelCorpID_11Corel-Layer"/>
 </g>
 <g id="Layer_x0020_1_0_10">
  <metadata id="CorelCorpID_12Corel-Layer"/>
 </g>
 <g id="Layer_x0020_1_1_11">
  <metadata id="CorelCorpID_13Corel-Layer"/>
 </g>
 <g id="Layer_x0020_1_12">
  <metadata id="CorelCorpID_14Corel-Layer"/>
 </g>
</svg>
