

<!-- Creator: CorelDRAW X6 -->
<svg xmlns="http://www.w3.org/2000/svg" x="0" y="0" xml:space="preserve" width="36mm" height="25mm" version="1.1" shape-rendering="geometricPrecision" text-rendering="geometricPrecision" image-rendering="optimizeQuality" fill-rule="evenodd" clip-rule="evenodd"
viewBox="0 0 3600 2500"
 xmlns:xlink="http://www.w3.org/1999/xlink"
 enable-background="new 0 0 912.7 290.1">
 <g id="Layer_x0020_1">
  <metadata id="CorelCorpID_0Corel-Layer"/>
 </g>
 <g id="Layer_x0020_1_0">
  <metadata id="CorelCorpID_1Corel-Layer"/>
 </g>
 <g id="Layer_x0020_1_0_1">
  <metadata id="CorelCorpID_2Corel-Layer"/>
 </g>
 <g id="Layer_x0020_1_0_2">
  <metadata id="CorelCorpID_3Corel-Layer"/>
 </g>
 <g id="Layer_x0020_1_3">
  <metadata id="CorelCorpID_4Corel-Layer"/>
 </g>
 <g id="Layer_x0020_1_0_4">
  <metadata id="CorelCorpID_5Corel-Layer"/>
 </g>
 <g id="Layer_x0020_1_0_5">
  <metadata id="CorelCorpID_6Corel-Layer"/>
 </g>
 <g id="Layer_x0020_1_0_6">
  <metadata id="CorelCorpID_7Corel-Layer"/>
 </g>
 <g id="Layer_x0020_1_0_7">
  <metadata id="CorelCorpID_8Corel-Layer"/>
 </g>
 <g id="Layer_x0020_1_0_2_8">
  <metadata id="CorelCorpID_9Corel-Layer"/>
 </g>
 <g id="Layer_x0020_1_0_2_8_9">
  <metadata id="CorelCorpID_10Corel-Layer"/>
 </g>
 <g id="Layer_x0020_1_0_10">
  <metadata id="CorelCorpID_11Corel-Layer"/>
 </g>
 <g id="Layer_x0020_1_1">
  <metadata id="CorelCorpID_12Corel-Layer"/>
 </g>
 <g id="Layer_x0020_1_11">
  <metadata id="CorelCorpID_13Corel-Layer"/>
 </g>
 <g id="Layer_x0020_1_12">
  <metadata id="CorelCorpID_14Corel-Layer"/>
  <g id="_1_x0020__x0028_66_x0029_.eps">
   <path fill="#005DA5" d="M1740 286c0,3 0,7 0,10 6,115 -65,268 -195,398 -27,27 -54,51 -82,72 -1,1 -3,1 -4,1 -3,-1 -4,-3 -4,-7l127 -699c0,-3 -3,-5 -5,-5 -700,33 -1243,275 -1243,569 0,317 629,573 1406,573 777,0 1406,-257 1406,-573 0,-317 -629,-572 -1406,-572 -25,0 -49,0 -73,1 -3,0 -4,2 -5,4l-15 82c0,3 1,4 3,5 53,25 91,79 91,142l1 1zm348 394l0 0c-1,-3 -3,-3 -4,-4 -43,-7 -88,-12 -135,-16 -3,-1 -4,-3 -3,-9 144,-152 199,-345 126,-497 0,-3 3,-5 6,-5 497,60 860,250 860,475 0,273 -537,495 -1198,495 -662,0 -1198,-222 -1198,-495 0,-237 403,-435 942,-483 3,0 5,3 5,6l-117 643c-1,5 -2,10 -2,15 0,43 35,78 78,78l4 0c104,-6 217,-38 323,-99 31,-18 59,-37 87,-58 2,-2 4,-2 6,-1 35,23 56,51 56,80 0,40 -38,77 -99,104 -72,33 -176,53 -292,53 -98,0 -188,-14 -258,-38 -3,-1 -6,2 -6,4l-10 54c0,3 2,5 4,6 142,33 305,52 478,52 216,0 391,-70 391,-156 0,-33 -27,-65 -72,-90 -39,-19 -64,-44 -58,-61 7,-18 44,-20 89,-8 3,0 5,-1 6,-6l-8 -41 -3 2zm-1911 -55l0 0c0,-345 699,-625 1563,-625 863,0 1563,280 1563,625 0,345 -699,625 -1563,625 -863,0 -1563,-280 -1563,-625z"/>
   <polygon fill="#005DA5" points="283,1563 283,2328 708,2328 708,2500 21,2500 21,1563 "/>
   <path fill="#005DA5" d="M1354 1563l357 937 -273 0 -78 -222 -343 0 -78 222 -219 0 353 -937 283 0zm-44 558l0 0 -123 -342 -123 342 245 0z"/>
   <path fill="#005DA5" d="M1740 1563l384 0c111,0 279,11 408,122 105,89 153,233 153,346 0,82 -26,250 -170,363 -114,90 -243,107 -364,107l-412 0 0 -937 0 -1zm262 765l0 0 118 0c70,0 163,-13 224,-93 61,-81 63,-175 63,-213 0,-49 -7,-149 -77,-218 -65,-63 -150,-68 -214,-68l-113 0 0 593 -1 0z"/>
   <path fill="#005DA5" d="M3223 1563l357 937 -273 0 -78 -222 -343 0 -78 222 -219 0 353 -937 283 0zm-44 558l0 0 -123 -342 -123 342 245 0z"/>
  </g>
 </g>
</svg>
