

<!-- Creator: CorelDRAW X6 -->
<svg xmlns="http://www.w3.org/2000/svg" x="0" y="0" xml:space="preserve" width="20mm" height="25mm" version="1.1" shape-rendering="geometricPrecision" text-rendering="geometricPrecision" image-rendering="optimizeQuality" fill-rule="evenodd" clip-rule="evenodd"
viewBox="0 0 2000 2500"
 xmlns:xlink="http://www.w3.org/1999/xlink"
 enable-background="new 0 0 912.7 290.1">
 <g id="Layer_x0020_1">
  <metadata id="CorelCorpID_0Corel-Layer"/>
 </g>
 <g id="Layer_x0020_1_0">
  <metadata id="CorelCorpID_1Corel-Layer"/>
 </g>
 <g id="Layer_x0020_1_0_1">
  <metadata id="CorelCorpID_2Corel-Layer"/>
 </g>
 <g id="Layer_x0020_1_0_2">
  <metadata id="CorelCorpID_3Corel-Layer"/>
 </g>
 <g id="Layer_x0020_1_3">
  <metadata id="CorelCorpID_4Corel-Layer"/>
 </g>
 <g id="Layer_x0020_1_0_4">
  <metadata id="CorelCorpID_5Corel-Layer"/>
 </g>
 <g id="Layer_x0020_1_0_5">
  <metadata id="CorelCorpID_6Corel-Layer"/>
  <path fill="#FEFEFE" d="M1038 1751l246 -1384c234,0 308,26 319,131 0,0 157,-58 237,-177 -310,-143 -621,-150 -621,-150l-182 221 0 0 -182 -221c0,0 -311,7 -621,150 79,119 237,177 237,177 11,-105 85,-131 317,-131l248 1384 1 0 1 0z"/>
  <path fill="#FEFEFE" d="M1038 107c250,-2 536,38 830,167 39,-71 49,-102 49,-102 -321,-127 -621,-170 -879,-172 -258,1 -559,44 -879,172 0,0 14,38 49,102 293,-127 580,-168 830,-167l0 0z"/>
  <path fill="#FEFEFE" d="M522 2298l187 0c26,-5 46,-28 51,-50l-289 0c5,23 25,45 51,50z"/>
  <path fill="#FEFEFE" d="M522 2397l187 0c26,-5 46,-28 51,-50l-289 0c5,22 25,45 51,50z"/>
  <path fill="#FEFEFE" d="M522 2499l187 0c26,-5 46,-28 51,-50l-289 0c5,23 25,45 51,50z"/>
  <path fill="#FEFEFE" d="M1729 2298l187 0c26,-5 46,-28 51,-50l-289 0c6,23 25,45 51,50z"/>
  <path fill="#FEFEFE" d="M35 2248c6,22 25,44 51,50l79 0 4 2 0 199 49 0 0 -199 4 -2 79 0c27,-7 45,-28 51,-50l0 -1 -317 0 0 1 -1 0 1 0z"/>
  <path fill="#FEFEFE" d="M1538 2499c24,-11 37,-28 42,-49l-218 0 0 -202 -49 0 0 252 225 0 0 -1z"/>
  <path fill="#FEFEFE" d="M949 2297l173 0c26,-7 48,-27 53,-49l-275 0 0 148 225 0 0 52 -177 0c-27,8 -51,27 -62,51l14 0 273 0 0 -152 -225 0 0 -50 1 0z"/>
  <polygon fill="#FEFEFE" points="1686,2347 1686,2499 1734,2499 1734,2398 1912,2398 1912,2499 1961,2499 1961,2348 "/>
 </g>
 <g id="Layer_x0020_1_0_6">
  <metadata id="CorelCorpID_7Corel-Layer"/>
 </g>
</svg>
