

<!-- Creator: CorelDRAW X6 -->
<svg xmlns="http://www.w3.org/2000/svg" x="0" y="0" xml:space="preserve" width="21mm" height="25mm" version="1.1" shape-rendering="geometricPrecision" text-rendering="geometricPrecision" image-rendering="optimizeQuality" fill-rule="evenodd" clip-rule="evenodd"
viewBox="0 0 2100 2500"
 xmlns:xlink="http://www.w3.org/1999/xlink"
 enable-background="new 0 0 912.7 290.1">
 <g id="Layer_x0020_1">
  <metadata id="CorelCorpID_0Corel-Layer"/>
 </g>
 <g id="Layer_x0020_1_0">
  <metadata id="CorelCorpID_1Corel-Layer"/>
 </g>
 <g id="Layer_x0020_1_0_1">
  <metadata id="CorelCorpID_2Corel-Layer"/>
 </g>
 <g id="Layer_x0020_1_0_2">
  <metadata id="CorelCorpID_3Corel-Layer"/>
 </g>
 <g id="Layer_x0020_1_3">
  <metadata id="CorelCorpID_4Corel-Layer"/>
 </g>
 <g id="Layer_x0020_1_0_4">
  <metadata id="CorelCorpID_5Corel-Layer"/>
 </g>
 <g id="Layer_x0020_1_0_5">
  <metadata id="CorelCorpID_6Corel-Layer"/>
 </g>
 <g id="Layer_x0020_1_0_6">
  <metadata id="CorelCorpID_7Corel-Layer"/>
 </g>
 <g id="Layer_x0020_1_0_7">
  <metadata id="CorelCorpID_8Corel-Layer"/>
 </g>
 <g id="Layer_x0020_1_0_2_8">
  <metadata id="CorelCorpID_9Corel-Layer"/>
  <path fill="#E31E24" d="M763 529c19,-63 68,-31 68,-31 0,0 127,97 473,317 347,221 779,-86 779,-86l-1027 -729c-450,477 -1027,648 -1027,648l2 1 1312 920c-19,62 -68,31 -68,31 0,0 -127,-97 -473,-317 -347,-221 -779,86 -779,86l1027 729c450,-478 1027,-648 1027,-648l-2 -1 -1312 -920z"/>
  <path fill="#3A3185" d="M13 2387l158 1c3,15 -2,15 7,23 13,13 33,15 50,12 14,-3 35,-7 37,-24 1,-18 -12,-25 -28,-28 -23,-3 -45,-3 -68,-8 -58,-9 -88,-13 -113,-29 -25,-16 -27,-50 -27,-74 0,-16 7,-31 19,-45 13,-14 32,-25 58,-33 26,-8 60,-13 105,-13 54,0 96,8 124,23 28,15 46,48 51,80 0,0 -134,0 -134,0 1,-2 -3,-11 -3,-13 -5,-18 -23,-24 -40,-28 -14,-3 -30,-3 -43,4 -8,5 -14,10 -14,17 0,5 3,9 10,13 6,4 21,8 44,12 58,9 98,18 123,28 25,9 43,21 54,34 12,13 17,29 17,46 0,20 -8,38 -23,55 -15,17 -36,29 -63,38 -28,8 -61,13 -102,13 -73,0 -123,-10 -150,-31 -28,-20 -43,-42 -48,-73l-1 0z"/>
  <path fill="#3A3185" d="M653 2176l117 0 0 219c0,45 -28,77 -84,96 -26,8 -57,9 -93,9 -32,0 -60,1 -86,-6 -62,-25 -93,-58 -93,-98l0 -219 118 0 0 188c0,34 4,60 61,60 58,0 58,-27 58,-61l1 -187 1 -1z"/>
  <path fill="#3A3185" d="M1417 2176l117 0 0 219c0,45 -28,77 -84,96 -26,8 -57,9 -93,9 -32,0 -60,1 -86,-6 -62,-25 -93,-58 -93,-98l0 -219 118 0 0 188c0,34 4,60 61,60 58,0 58,-27 58,-61l1 -187 1 -1z"/>
  <polygon fill="#3A3185" points="794,2178 1156,2178 1156,2246 979,2404 1156,2404 1156,2492 794,2492 794,2417 967,2260 794,2260 "/>
  <polygon fill="#3A3185" points="1562,2492 1562,2177 1678,2177 1678,2294 1803,2177 1948,2177 1782,2330 1955,2492 1798,2492 1679,2379 1681,2492 "/>
  <polygon fill="#3A3185" points="2087,2177 2087,2492 1972,2492 1972,2177 "/>
 </g>
</svg>
