

<!-- Creator: CorelDRAW X6 -->
<svg xmlns="http://www.w3.org/2000/svg" x="0" y="0" xml:space="preserve" width="27mm" height="30mm" version="1.1" style="shape-rendering:geometricPrecision; text-rendering:geometricPrecision; image-rendering:optimizeQuality; fill-rule:evenodd; clip-rule:evenodd"
viewBox="0 0 2700 3000"
 xmlns:xlink="http://www.w3.org/1999/xlink"
 enable-background="new 0 0 912.7 290.1">
 <defs>
  <style type="text/css">
   <![CDATA[
    .fil0 {fill="#B2B3B3"}
    .fil1 {fill="#B2B3B3" opacity:"0.101961"}
   ]]>
  </style>
 </defs>
 <g id="Layer_x0020_1">
  <metadata id="CorelCorpID_0Corel-Layer"/>
  <g id="_334163376">
   <g>
    <g>
     <g>
      <path fill="#B2B3B3" d="M1922 2703l0 117 -371 0 0 -32c0,-51 8,-84 68,-84l304 0zm-327 -72c-97,0 -142,52 -142,135l0 234 97 0 0 -108 371 0 0 108 98 0 0 -369 -425 0zm544 0l0 72 229 0 0 297 97 0 0 -297 230 0 0 -72 -556 0zm-1312 227c0,52 11,70 68,70l407 0 0 72 -430 0c-97,0 -143,-44 -143,-127l0 -242 573 0 0 72 -475 0 0 72 455 0 0 70 -455 0 0 13 0 0zm-698 -98c-30,-2 -35,-13 -35,-31 0,-17 9,-26 32,-26l450 0 0 -71 -461 0c-66,0 -110,25 -110,99 0,74 34,99 109,105l365 30c28,2 36,12 36,32 0,19 -9,31 -33,31l-457 0 0 72 466 0c80,0 115,-32 115,-108 0,-69 -32,-96 -110,-103l-364 -30z"/>
     </g>
    </g>
   </g>
   <g>
    <g>
     <g>
      <path fill="#B2B3B3" d="M2694 1386l-2688 -478c0,0 7,-301 13,-460 6,-159 39,-256 105,-315 91,-80 197,-100 450,-113 586,-32 1182,-27 1929,25 78,6 107,20 122,31 33,22 37,48 46,181 7,107 24,465 24,465 0,0 -882,-32 -1315,-32 -122,0 -221,1 -301,2 -54,1 -78,6 -99,16l1715 292 0 387 -1 0z"/>
     </g>
     <g>
      <path fill="#B2B3B3" d="M5 1010l2688 478c0,0 -7,301 -13,460 -6,159 -39,256 -105,315 -91,80 -197,100 -450,113 -586,32 -1182,27 -1929,-25 -78,-6 -107,-20 -122,-31 -33,-22 -37,-48 -46,-181 -6,-106 -23,-464 -23,-464 0,0 882,32 1315,32 122,0 221,-1 301,-2 54,-1 79,-6 99,-16l-1715 -293 0 -387z"/>
     </g>
    </g>
    <g id="did_2_">
     <g>
      <path fill="#B2B3B3" d="M2694 1386l-2688 -478c0,0 7,-301 13,-460 6,-159 39,-256 105,-315 91,-80 197,-100 450,-113 586,-32 1182,-27 1929,25 78,6 107,20 122,31 33,22 37,48 46,181 7,107 24,465 24,465 0,0 -882,-32 -1315,-32 -122,0 -221,1 -301,2 -54,1 -78,6 -99,16l1715 292 0 387 -1 0zm-2690 -376l2688 478c0,0 -7,301 -13,460 -6,159 -39,256 -105,315 -91,80 -197,100 -450,113 -586,32 -1182,27 -1929,-25 -78,-6 -107,-20 -122,-31 -33,-22 -37,-48 -46,-181 -6,-106 -23,-464 -23,-464 0,0 882,32 1315,32 122,0 221,-1 301,-2 54,-1 79,-6 99,-16l-1715 -293 0 -387zm28 34l0 329 1748 297c0,0 -24,32 -49,44 -25,12 -56,17 -111,19 -81,2 -179,2 -302,2 -383,0 -1125,-26 -1286,-31 4,89 17,347 23,434 9,132 13,145 34,159 7,5 30,20 108,26 431,31 820,45 1187,45 248,0 489,-7 737,-20 245,-13 348,-31 432,-107 60,-53 90,-147 95,-294 4,-131 11,-361 12,-435l-2630 -468zm2633 308l0 -329 -1748 -297c0,0 24,-32 49,-44 24,-12 56,-17 111,-19 80,-2 179,-2 301,-2 383,0 1125,26 1286,31 -4,-89 -17,-347 -23,-434 -9,-132 -13,-145 -34,-159 -7,-5 -30,-20 -108,-26 -431,-31 -820,-45 -1187,-45 -248,0 -489,7 -737,20 -245,12 -347,31 -431,105 -60,54 -90,147 -95,295 -5,131 -11,360 -12,435l2630 468z"/>
      <path fill="#B2B3B3" d="M1419 1849c-16,0 -94,0 -111,0 -357,0 -740,-2 -1206,-28l-68 -116 18 1 78 89c403,22 773,27 1179,27 17,0 93,0 111,0 57,0 124,0 183,-2 205,-7 267,-28 407,-170l50 -5 -21 22c-151,156 -213,172 -436,179 -60,3 -127,3 -185,3l0 0z"/>
      <polygon fill="#B2B3B3" points="2664,1512 33,1044 33,1061 79,1084 79,1300 33,1352 33,1374 105,1314 105,1074 2626,1522 "/>
      <path fill="#B2B3B3" d="M2598 1517c-2,44 -3,99 -5,150 -2,43 -2,80 -4,115 -2,47 -4,94 -7,158 -7,164 -44,216 -115,259 -68,41 -147,47 -388,59 -245,12 -506,19 -777,21 -21,0 -41,0 -62,0 -317,0 -607,-17 -972,-46 -62,-5 -102,-10 -119,-21 -19,-12 -24,-16 -30,-94 -1,-12 -2,-22 -2,-33 -2,-30 -4,-56 -6,-96 -2,-40 -4,-80 -10,-168l-24 -40c5,93 8,173 10,214 2,37 2,62 4,92l0 3c1,9 1,19 2,29 5,79 11,94 41,114 22,15 64,21 131,26 365,28 655,46 973,46 21,0 41,0 62,0 271,-2 533,-9 778,-21 246,-12 327,-18 401,-63 79,-48 121,-105 127,-280 2,-63 4,-110 7,-155l0 -2c3,-74 7,-152 11,-260l-27 -2z"/>
      <g>
       <path fill="#B2B3B3" d="M2599 613l0 0 -11 0c-384,-19 -776,-17 -1218,-17 -28,0 -63,0 -101,1 -117,2 -207,2 -260,12 -117,21 -111,81 -67,89 7,-7 16,-12 24,-17 24,-12 56,-17 111,-19 80,-2 179,-2 301,-2 374,0 1088,24 1273,31 -13,-21 -45,-68 -51,-78z"/>
      </g>
      <path fill="#B2B3B3" d="M2547 217l15 -21 -4 -2c-19,-13 -59,-21 -126,-26 -344,-24 -725,-39 -995,-39 -18,0 -36,0 -55,0 -57,0 -111,1 -162,1 -259,2 -463,4 -612,12 -12,1 -25,2 -37,2 -213,12 -320,17 -404,92 -56,50 -79,118 -85,251l-2 64c-4,101 -6,164 -10,298 -7,3 -27,12 -34,16l-1 21 61 -25 1 -31c3,-117 6,-188 10,-279l2 -64c5,-125 26,-188 76,-232 77,-69 181,-74 388,-85 12,-1 25,-2 37,-2 149,-8 352,-11 611,-12 51,0 105,-1 162,-1 17,0 36,0 54,0 269,0 649,15 992,39 60,4 99,12 114,22l5 2 0 0z"/>
      <path fill="#B2B3B3" d="M80 548l2 -64c6,-133 28,-201 85,-251 12,-11 26,-21 39,-29 -12,-25 -16,-48 -7,-65 7,-14 37,-39 101,-62 -68,16 -115,39 -157,77 -60,54 -90,147 -95,295 -4,120 -10,323 -12,414 5,-2 26,-12 34,-16 4,-135 6,-198 10,-299z"/>
      <path fill="#B2B3B3" d="M2574 205c17,-26 43,-27 66,32 -8,-113 -13,-126 -32,-139 -7,-5 -30,-20 -108,-26 -431,-31 -820,-45 -1187,-45 -248,0 -489,7 -737,20 -122,7 -208,14 -275,29 -64,23 -93,48 -101,62 -9,17 -5,41 7,65 79,-47 183,-53 364,-63 12,-1 25,-2 37,-2 150,-8 353,-11 612,-12 51,0 105,-1 162,-1 17,0 36,0 55,0 270,0 651,15 995,39 67,5 107,13 126,26l4 2c4,3 8,7 12,11z"/>
      <path fill="#B2B3B3" d="M2664 675l-52 -88c-1,-71 -7,-218 -12,-279 -6,-59 -8,-83 -25,-102 -3,-4 -7,-7 -12,-11l-15 21c17,12 19,23 26,93 6,64 16,224 17,288l62 94 13 1 -1 -18z"/>
      <path fill="#B2B3B3" d="M2640 238c-23,-59 -50,-59 -66,-32 17,19 19,44 25,102 6,61 12,208 12,279l52 88c-5,-101 -17,-335 -22,-417m-1 -19l0 0 0 0z"/>
      <path fill="#B2B3B3" d="M2589 597c-359,-17 -745,-27 -1218,-27 -94,0 -278,3 -363,5 -143,2 -168,92 -169,125l1763 409 0 218 64 26 -2630 -468 61 -25 1 -31c0,0 6,-188 10,-279l2 -64c5,-125 26,-188 76,-232 77,-69 181,-74 388,-85 12,-1 25,-2 37,-2 149,-8 352,-11 611,-12 51,0 105,-1 162,-1 17,0 36,0 54,0 269,0 649,15 992,39 60,4 99,12 114,22l4 2c0,0 0,0 1,0l1 1 0 0c1,0 1,1 2,1l0 0c1,0 1,1 2,1l0 0c1,0 1,1 1,1l0 0c0,1 1,1 1,1l0 0c10,11 12,26 17,75 0,4 1,8 1,12 7,64 17,225 17,288z"/>
      <path fill="#B2B3B3" d="M2589 597c-359,-17 -745,-27 -1218,-27 -94,0 -278,3 -363,5 -143,2 -168,92 -169,125l1763 409 0 218 64 26 -2630 -468 61 -25 1 -31c0,0 6,-188 10,-279l2 -64c5,-125 26,-188 76,-232 77,-69 181,-74 388,-85 12,-1 25,-2 37,-2 149,-8 352,-11 611,-12 51,0 105,-1 162,-1 17,0 36,0 54,0 269,0 649,15 992,39 60,4 99,12 114,22l4 2c0,0 0,0 1,0l1 1 0 0c1,0 1,1 2,1l0 0c1,0 1,1 2,1l0 0c1,0 1,1 1,1l0 0c0,1 1,1 1,1l0 0c10,11 12,26 17,75 0,4 1,8 1,12 7,64 17,225 17,288z"/>
      <polygon fill="#B2B3B3" points="33,1061 79,1084 79,1300 33,1352 "/>
      <path fill="#B2B3B3" d="M2398 2319c19,-12 28,-24 31,-31 7,-13 1,-26 -11,-40 -65,21 -157,26 -339,35 -245,12 -507,19 -778,22 -21,0 -41,0 -62,0 -318,0 -608,-17 -973,-46 -68,-5 -109,-11 -131,-26 -7,-5 -13,-10 -18,-15 -2,2 -6,6 -10,9 -23,21 -36,17 -45,-16 6,66 12,76 28,87 7,5 30,20 108,26 431,31 820,45 1187,45 248,0 489,-7 737,-20 123,-7 209,-15 275,-30l0 0z"/>
      <path fill="#B2B3B3" d="M92 2088l0 -3c-2,-30 -2,-55 -4,-92 -2,-41 -5,-121 -10,-214l-44 -74c4,89 17,347 23,434l6 72c9,33 21,37 45,16 4,-4 7,-7 10,-9 -15,-17 -19,-40 -23,-99 -1,-11 -2,-20 -2,-30z"/>
      <path fill="#B2B3B3" d="M2626 1522c-4,108 -7,187 -11,260l0 2c-2,45 -4,93 -7,155 -7,176 -49,232 -127,280 -19,12 -39,21 -61,28 11,14 17,26 11,40 -3,7 -13,19 -31,31 68,-16 116,-39 158,-77 60,-53 90,-147 95,-294 4,-131 11,-361 12,-435l-39 10z"/>
      <path fill="#B2B3B3" d="M2589 1781c-2,47 -4,94 -7,158 -7,164 -44,216 -115,259 -68,41 -147,47 -388,59 -245,12 -506,19 -777,21 -21,0 -41,0 -62,0 -317,0 -607,-17 -972,-46 -62,-5 -102,-10 -119,-21 -19,-12 -24,-16 -30,-94 -1,-12 -2,-22 -2,-33 -2,-30 -4,-56 -6,-96 -2,-40 -4,-80 -10,-168 468,26 850,28 1206,28 17,0 95,0 111,0 58,0 125,0 184,-2 223,-7 285,-23 436,-179l21 -21 -1955 -329 0 -240 2494 443 0 0 0 0c-2,44 -3,99 -5,150 -2,43 -3,80 -5,115z"/>
      <path fill="#B2B3B3" d="M1780 1780c-1,9 -13,22 -59,32 118,-14 179,-52 288,-162l-230 21c0,0 -24,32 -49,44 -17,7 -36,13 -63,16 49,11 64,17 84,25 17,6 28,17 27,25z"/>
      <path fill="#B2B3B3" d="M1722 1812c45,-10 58,-23 59,-32 1,-7 -11,-19 -26,-25 -19,-7 -36,-13 -84,-25 0,0 -30,2 -48,2 -81,2 -179,2 -302,2 -371,0 -1077,-24 -1268,-31l0 0 78 89c403,22 773,27 1179,27 17,0 93,0 111,0 57,0 124,0 183,-2 45,0 84,-2 118,-7z"/>
      <g>
       <path fill="#B2B3B3" d="M2597 1079l43 -60 -1572 -268c163,53 599,155 933,230 -16,-3 543,89 597,98z"/>
      </g>
      <g>
       <path fill="#B2B3B3" d="M1604 1595c-43,-8 -76,-16 -112,-21 -16,-2 -852,-145 -1410,-242l-50 40 1748 297c-25,-28 -112,-62 -177,-75z"/>
      </g>
      <path fill="#B2B3B3" d="M1604 1595c-43,-8 -76,-16 -112,-21 -16,-2 -852,-145 -1410,-242l22 -18 1957 331 -280 26c-17,-21 -98,-60 -178,-76z"/>
      <path fill="#B2B3B3" d="M2589 597c-359,-17 -745,-27 -1218,-27 -94,0 -278,3 -363,5 -178,3 -280,88 -362,179l-15 15 292 -50c0,0 5,-7 20,-21 -44,-8 -50,-69 67,-89 53,-10 144,-10 260,-12 38,-1 74,-1 101,-1 442,0 834,-2 1218,17l11 1 -11 -17z"/>
      <path fill="#B2B3B3" d="M678 761c120,21 803,133 1322,219 -334,-75 -770,-176 -933,-230l-144 -32 -245 43z"/>
      <path fill="#B2B3B3" d="M2589 1781c-2,47 -4,94 -7,158 -7,164 -44,216 -115,259 -68,41 -147,47 -388,59 -245,12 -506,19 -777,21 -21,0 -41,0 -62,0 -317,0 -607,-17 -972,-46 -62,-5 -102,-10 -119,-21 -19,-12 -24,-16 -30,-94 -1,-12 -2,-22 -2,-33 -2,-30 -4,-56 -6,-96 -2,-40 -4,-80 -10,-168 468,26 850,28 1206,28 17,0 95,0 111,0 58,0 125,0 184,-2 223,-7 285,-23 436,-179l21 -21 -1955 -329 0 -240 2494 443 0 0 0 0c-2,44 -3,99 -5,150 -2,43 -3,80 -5,115z"/>
      <path fill="#B2B3B3" d="M632 769l46 -8c189,32 1779,293 1919,317l43 -60 26 4 -64 85 -1970 -338z"/>
      <path fill="#B2B3B3" opacity="0.101961" d="M2467 2198c71,-43 108,-95 115,-259 2,-64 5,-112 7,-158 2,-35 2,-72 4,-115 2,-50 3,-106 5,-150l0 0 -708 -126c-123,42 -233,100 -325,171l496 84 -21 21c-151,156 -213,172 -436,179 -60,2 -126,2 -184,2 -12,0 -59,0 -88,0 -31,72 -49,148 -49,226 0,70 13,138 39,202 264,-2 519,-9 758,-21 241,-13 321,-19 388,-60z" enable-background="new    "/>
     </g>
     <polygon fill="#B2B3B3" points="2603,1327 2627,1319 2627,1074 2603,1108 "/>
     <polygon fill="#B2B3B3" points="2603,1327 2627,1319 2665,1338 2665,1352 "/>
     <polygon fill="#B2B3B3" points="2665,1023 2627,1074 2627,1319 2665,1338 "/>
    </g>
   </g>
  </g>
 </g>
</svg>
