

<!-- Creator: CorelDRAW X6 -->
<svg xmlns="http://www.w3.org/2000/svg" x="0" y="0" xml:space="preserve" width="50mm" height="25mm" version="1.1" shape-rendering="geometricPrecision" text-rendering="geometricPrecision" image-rendering="optimizeQuality" fill-rule="evenodd" clip-rule="evenodd"
viewBox="0 0 5000 2500"
 xmlns:xlink="http://www.w3.org/1999/xlink"
 enable-background="new 0 0 912.7 290.1">
 <g id="Layer_x0020_1">
  <metadata id="CorelCorpID_0Corel-Layer"/>
 </g>
 <g id="Layer_x0020_1_0">
  <metadata id="CorelCorpID_1Corel-Layer"/>
 </g>
 <g id="Layer_x0020_1_0_1">
  <metadata id="CorelCorpID_2Corel-Layer"/>
 </g>
 <g id="Layer_x0020_1_0_2">
  <metadata id="CorelCorpID_3Corel-Layer"/>
 </g>
 <g id="Layer_x0020_1_3">
  <metadata id="CorelCorpID_4Corel-Layer"/>
 </g>
 <g id="Layer_x0020_1_0_4">
  <metadata id="CorelCorpID_5Corel-Layer"/>
 </g>
 <g id="Layer_x0020_1_0_5">
  <metadata id="CorelCorpID_6Corel-Layer"/>
 </g>
 <g id="Layer_x0020_1_0_6">
  <metadata id="CorelCorpID_7Corel-Layer"/>
 </g>
 <g id="Layer_x0020_1_0_7">
  <metadata id="CorelCorpID_8Corel-Layer"/>
 </g>
 <g id="Layer_x0020_1_0_2_8">
  <metadata id="CorelCorpID_9Corel-Layer"/>
 </g>
 <g id="Layer_x0020_1_0_2_8_9">
  <metadata id="CorelCorpID_10Corel-Layer"/>
 </g>
 <g id="Layer_x0020_1_0_10">
  <metadata id="CorelCorpID_11Corel-Layer"/>
 </g>
 <g id="Layer_x0020_1_1">
  <metadata id="CorelCorpID_12Corel-Layer"/>
 </g>
 <g id="Layer_x0020_1_11">
  <metadata id="CorelCorpID_13Corel-Layer"/>
 </g>
 <g id="Layer_x0020_1_12">
  <metadata id="CorelCorpID_14Corel-Layer"/>
  <path fill="#E31E24" d="M3142 1c1041,80 1809,349 1809,669 0,258 -499,483 -1239,602l207 246 -388 0 -1023 -1211 -683 809c207,17 428,25 658,25 108,0 215,-2 319,-6l207 212c-164,10 -334,15 -509,15 -298,0 -583,-15 -847,-42l-186 220 -388 0 224 -266c-748,-118 -1254,-345 -1254,-605 0,-313 736,-578 1746,-664l-128 221c-724,73 -1230,242 -1230,437 0,177 415,332 1031,414l846 -1001 0 0 388 0 0 0 841 996c591,-83 986,-235 986,-408 0,-197 -511,-366 -1240,-438l-147 -225 0 1z"/>
  <path fill="#FEFEFE" d="M1503 2279l112 36c-17,62 -46,109 -86,139 -40,30 -91,46 -152,46 -76,0 -138,-26 -187,-78 -49,-52 -73,-123 -73,-213 0,-96 25,-169 74,-222 49,-52 114,-79 194,-79 70,0 127,21 171,62 26,24 46,60 59,106l-115 27c-7,-30 -21,-53 -42,-71 -22,-17 -47,-26 -78,-26 -42,0 -77,15 -103,46 -27,31 -40,80 -40,148 0,72 13,124 39,155 26,31 60,46 102,46 31,0 57,-10 79,-29 22,-19 38,-50 47,-92z"/>
  <polygon fill="#FEFEFE" points="1715,2490 1715,1917 1831,1917 1831,2143 2058,2143 2058,1917 2173,1917 2173,2490 2058,2490 2058,2239 1831,2239 1831,2490 "/>
  <polygon fill="#FEFEFE" points="2293,2490 2293,1917 2718,1917 2718,2014 2408,2014 2408,2141 2697,2141 2697,2238 2408,2238 2408,2393 2729,2393 2729,2490 "/>
  <path fill="#FEFEFE" d="M2827 2490l0 -573 244 0c62,0 106,5 133,16 27,10 50,28 67,55 17,27 25,57 25,90 0,43 -12,78 -38,107 -25,27 -63,46 -113,52 25,15 46,31 62,48 17,18 38,48 66,93l70 112 -138 0 -83 -125c-30,-45 -50,-72 -61,-84 -11,-12 -22,-19 -35,-24 -13,-4 -32,-7 -58,-7l-23 0 0 239 -116 0 0 1zm116 -331l86 0c56,0 90,-3 104,-7 14,-5 24,-13 32,-24 8,-12 12,-26 12,-43 0,-19 -5,-35 -16,-47 -10,-12 -25,-19 -43,-23 -9,-1 -37,-2 -84,-2l-90 0 0 145 -1 0z"/>
  <polygon fill="#FEFEFE" points="3526,2490 3526,2249 3316,1917 3452,1917 3587,2143 3719,1917 3852,1917 3641,2250 3641,2490 "/>
 </g>
</svg>
