

<!-- Creator: CorelDRAW X6 -->
<svg xmlns="http://www.w3.org/2000/svg" x="0" y="0" xml:space="preserve" width="44mm" height="30mm" version="1.1" style="shape-rendering:geometricPrecision; text-rendering:geometricPrecision; image-rendering:optimizeQuality; fill-rule:evenodd; clip-rule:evenodd"
viewBox="0 0 4400 3000"
 xmlns:xlink="http://www.w3.org/1999/xlink">
 <defs>
  <style type="text/css">
   <![CDATA[
    .fil0 {fill:#2B2A29}
    .fil1 {fill:#FEFEFE}
   ]]>
  </style>
 </defs>
 <g id="Layer_x0020_1">
  <metadata id="CorelCorpID_0Corel-Layer"/>
  <g id="_424179208">
   <polygon class="fil0" points="0,2 4400,2 4400,2998 0,2998 "/>
   <path class="fil1" d="M685 1756c-140,0 -253,83 -253,185 0,104 113,187 253,187 139,0 251,-83 251,-187 0,-102 -113,-185 -251,-185zm0 326c-101,0 -182,-62 -182,-140 0,-76 81,-139 182,-139 99,0 180,62 180,139 0,78 -81,140 -180,140z"/>
   <path class="fil1" d="M1418 1763l0 114c-35,-23 -80,-36 -132,-36 -107,0 -196,64 -196,146 0,80 88,146 196,146 52,0 97,-16 132,-38l0 31 66 0 0 -362 -66 0zm-132 327c-75,0 -135,-47 -135,-104 0,-59 61,-106 135,-106 76,0 137,47 137,106 0,57 -61,104 -137,104z"/>
   <path class="fil1" d="M2672 1841c-107,0 -196,64 -196,146 0,80 88,146 196,146 109,0 198,-66 198,-146 0,-81 -88,-146 -198,-146zm0 249c-75,0 -135,-47 -135,-104 0,-59 61,-106 135,-106 76,0 137,47 137,106 0,57 -61,104 -137,104z"/>
   <polygon class="fil1" points="981,2125 1045,2125 1045,1763 981,1763 "/>
   <path class="fil1" d="M3104 1839c-50,0 -97,14 -132,36l0 -114 -64 0 0 362 64 0 0 -31c35,23 81,36 132,36 109,0 196,-64 196,-144 0,-81 -87,-146 -196,-146zm0 250c-75,0 -137,-47 -137,-104 0,-59 62,-106 137,-106 75,0 137,47 137,106 0,57 -62,104 -137,104z"/>
   <polygon class="fil1" points="3341,2123 3407,2123 3407,1850 3341,1850 "/>
   <polygon class="fil1" points="3467,2123 3533,2123 3533,1763 3467,1763 "/>
   <path class="fil1" d="M3372 1824c21,0 38,-14 38,-29 0,-17 -17,-31 -38,-31 -21,0 -36,14 -36,31 0,16 16,29 36,29z"/>
   <path class="fil1" d="M3772 1843c-109,0 -196,64 -196,146 0,80 87,144 196,144 80,0 147,-35 178,-85l-68 0c0,0 -26,42 -111,42 -125,0 -135,-85 -135,-85l329 0c2,-5 2,-10 2,-16 0,-81 -88,-146 -196,-146zm-132 120c0,0 17,-78 126,-78 111,0 133,78 133,78l-260 0z"/>
   <path class="fil1" d="M1854 1921l-66 0c0,0 -7,-42 -97,-42 -90,0 -88,43 -88,43 0,0 -10,35 94,35 88,0 173,12 173,75 0,83 -126,99 -175,99 -170,0 -175,-92 -175,-92l68 0c0,0 14,49 106,49 92,0 104,-31 104,-49 0,-16 -16,-35 -100,-35 -87,0 -163,-21 -163,-83 0,-61 107,-85 161,-85 159,0 159,85 159,85z"/>
   <path class="fil1" d="M2435 1954c-3,-83 -71,-114 -135,-114 -66,0 -123,50 -123,50 0,0 -45,-49 -104,-50 -47,-2 -83,24 -100,35l0 -29 -59 0 0 279 62 0 0 -156c-2,-28 9,-81 83,-81 68,0 81,45 85,75l0 163 62 0 0 -144c2,-55 10,-95 90,-94 69,2 75,59 75,73l0 165 64 0 0 -161c0,-3 0,-7 0,-9z"/>
   <path class="fil1" d="M2892 812c-28,-16 -54,-28 -83,-43 21,-12 40,-24 59,-36 10,-5 21,-10 21,-26 0,-9 -7,-17 -12,-19 -9,-5 -23,-5 -31,0 -38,16 -73,38 -113,55 -345,-113 -799,-90 -1105,54 -191,88 -274,177 -300,289 -28,113 57,213 142,270 71,47 144,109 237,78 2,-2 5,-2 5,-2 57,-35 333,-201 476,-289l402 -243 130 -80c90,31 296,140 269,284 -16,87 -114,146 -203,185 -118,54 -416,99 -627,69 -10,-2 -16,-10 -12,-16 92,-107 191,-203 288,-301 0,0 9,-7 2,-19 -5,-7 -16,-10 -23,-5 -199,123 -397,248 -594,371 -21,16 -52,31 -52,55 2,26 23,33 28,33 312,78 688,61 974,-57 127,-52 282,-149 312,-296 24,-135 -78,-248 -189,-312zm-1126 355c-55,16 -198,49 -269,12 -21,-12 -40,-36 -38,-64 5,-106 116,-185 196,-230 229,-132 539,-168 830,-128 52,9 144,29 154,36 -300,163 -591,295 -873,374zm955 -418c0,0 -19,10 -26,14 -352,-106 -811,-73 -1105,100 -71,42 -172,132 -184,206 -12,83 47,220 452,81 286,-97 667,-277 979,-452 10,-3 19,-10 31,-3 2,0 0,2 0,2 -49,38 -639,364 -851,478 -21,12 -210,109 -305,149 -95,42 -199,-2 -288,-76 -52,-42 -83,-116 -59,-182 50,-137 199,-227 289,-269 282,-130 745,-152 1066,-49zm-298 277c0,0 -317,222 -475,336 -45,29 -106,50 -158,69 0,0 -2,2 -2,0 -2,0 -5,-2 2,-9 7,-7 423,-270 629,-397 0,0 2,-2 3,0zm-639 430c-2,-2 -2,-5 -2,-7 0,-2 3,-3 3,-5 14,-9 47,-9 55,-7 303,61 669,61 946,-61 111,-49 275,-151 275,-301 -2,-16 -2,-31 -9,-45 0,0 -2,-5 -5,-10 2,7 3,16 3,16 17,113 -59,194 -158,256 -161,99 -376,142 -596,146 -64,0 -211,-2 -258,-26 -10,-5 -19,-14 -21,-19 -3,-10 2,-19 17,-36 87,-88 255,-225 388,-324l3 -3c0,3 0,9 -2,10 -102,97 -291,272 -312,301 -5,7 -9,23 -5,31 9,19 24,28 52,29 286,19 570,-19 762,-149 59,-40 120,-106 111,-185 -12,-137 -156,-227 -267,-277 7,-5 17,-12 24,-16 116,45 255,137 277,272 19,132 -90,237 -185,293 -296,172 -714,189 -1067,114 -9,-2 -29,7 -33,3zm-88 -61c-7,7 -17,12 -29,12 -17,0 -31,-9 -31,-19 0,-12 14,-21 31,-21 5,0 26,-2 33,-3 73,-19 132,-68 199,-99 237,-133 653,-374 889,-506 -218,132 -596,345 -639,373 -38,24 -399,229 -438,251 -2,2 -12,9 -14,12z"/>
  </g>
 </g>
</svg>
