

<!-- Creator: CorelDRAW X8 -->
<svg xmlns="http://www.w3.org/2000/svg" xml:space="preserve" x="0" y="0" width="25mm" height="25mm" version="1.1" shape-rendering="geometricPrecision" text-rendering="geometricPrecision" image-rendering="optimizeQuality" fill-rule="evenodd" clip-rule="evenodd"
viewBox="0 0 2500 2500"
 xmlns:xlink="http://www.w3.org/1999/xlink"
 enable-background="new 0 0 24 24">
 <defs>
    <clipPath id="id0" clip-rule="nonzero">
     <rect x="584" y="1210" width="223" height="358"/>
    </clipPath>
     <clipPath id="id1">
      <path d="M1937 955l-66 0c252,58 428,152 468,261 -25,-105 -176,-198 -402,-261zm-1293 0l-76 0c-248,69 -407,174 -407,292 0,17 4,33 11,50 -2,-10 -5,-23 -5,-33 0,-129 189,-242 477,-309z"/>
     </clipPath>
     <clipPath id="id2">
      <path d="M568 955l76 0c175,-41 386,-65 614,-65 227,0 439,24 613,65l66 0c-186,-52 -423,-84 -680,-84l-7 0c-258,0 -496,32 -682,84z"/>
     </clipPath>
     <clipPath id="id3">
      <path d="M2377 1199c4,17 6,31 6,48 0,228 -505,411 -1130,411 -555,0 -1019,-146 -1113,-338 74,201 547,355 1121,355 625,0 1131,-184 1131,-407 0,-23 -7,-46 -15,-69z"/>
     </clipPath>
     <clipPath id="id4">
      <path d="M50 1723l0 0 0 0 0 0z"/>
     </clipPath>
     <clipPath id="id5">
      <path d="M965 795l-8 2c95,-10 194,-15 294,-16 69,0 136,2 201,7 -65,-5 -132,-7 -199,-7 -99,0 -196,5 -288,14zm-681 182l-13 4c-134,75 -212,167 -212,266 0,13 0,25 4,35 -2,-10 -4,-20 -4,-31 0,-54 25,-110 73,-163 38,-40 90,-77 152,-111z"/>
     </clipPath>
     <clipPath id="id6">
      <path d="M50 1723l0 0 0 0 0 0z"/>
     </clipPath>
     <clipPath id="id7">
      <path d="M921 854l0 35c105,-12 217,-18 332,-18 115,0 226,6 330,18l0 -36c-104,-11 -215,-17 -330,-17 -115,0 -227,6 -332,18zm0 751l0 35c105,12 217,18 332,18 115,0 226,-6 330,-17l0 -36c-104,12 -215,18 -330,18 -115,0 -227,-6 -332,-18z"/>
     </clipPath>
     <clipPath id="id8">
      <path d="M1200 836l0 35c18,0 36,0 53,0 18,0 35,0 52,0l0 -35c-17,0 -34,0 -52,0 -17,0 -35,0 -53,0zm0 786l0 36c18,0 36,0 53,0 18,0 35,0 52,0l0 -36c-17,1 -34,1 -52,1 -17,0 -35,0 -53,-1z"/>
     </clipPath>
     <clipPath id="id9">
      <path d="M1156 837l0 36c32,-2 65,-2 97,-2 32,0 64,0 95,1l0 -35c-31,-1 -63,-1 -95,-1 -32,0 -65,0 -97,1zm0 784l0 36c32,1 65,1 97,1 32,0 64,0 95,-1l0 -35c-31,0 -63,1 -95,1 -32,0 -65,-1 -97,-2z"/>
     </clipPath>
     <clipPath id="id10">
      <path d="M1483 1374l0 0c-12,-14 -17,-41 -2,-64 -4,-7 -4,-15 -2,-21 0,-2 -4,-4 -6,-2 -27,27 -27,62 -11,79 6,6 13,8 21,8z"/>
     </clipPath>
     <clipPath id="id11">
      <path d="M1746 1345l0 0 0 1c0,5 0,12 2,18 2,-4 2,-6 4,-8 0,-3 0,-5 0,-5 -4,0 -6,-2 -6,-4l0 -1 0 -1z"/>
     </clipPath>
     <clipPath id="id12">
      <path d="M1778 1255l0 0c8,9 14,19 16,27 0,7 2,7 7,3 0,-3 0,-3 2,-5l-2 -2c-5,-6 -13,-14 -23,-23z"/>
     </clipPath>
     <clipPath id="id13">
      <path d="M1427 1280c2,-2 2,-4 4,-4 -6,-16 -13,-33 -19,-37 6,8 11,23 11,39 0,7 2,4 4,2z"/>
     </clipPath>
     <clipPath id="id14">
      <path d="M1631 1450c2,2 7,4 9,4 0,-4 -2,-9 -2,-13 0,-31 10,-62 35,-92 29,-37 61,-54 84,-46 -2,-8 -7,-14 -15,-18 -23,-11 -56,8 -86,46 -25,29 -37,60 -39,91 0,11 4,23 14,28z"/>
     </clipPath>
     <clipPath id="id15">
      <path d="M1168 1291c4,-2 4,-4 2,-9 0,-6 -4,-20 -6,-22l0 0c2,2 0,4 -5,6 -33,12 -66,33 -89,65 -25,35 -34,77 -15,102 4,4 8,8 15,12 -11,-29 -5,-69 18,-100 23,-29 51,-42 80,-54z"/>
     </clipPath>
     <clipPath id="id16">
      <path d="M1542 1399c-9,5 -19,11 -32,17 -16,4 -25,8 -39,6 -19,0 -36,-6 -46,-25 -7,-10 -11,-25 -11,-37 0,0 -2,-2 -4,0 -31,48 -61,94 -90,142 -2,2 -4,4 -6,4 -19,0 -42,0 -63,0 -2,0 -2,0 -4,-2 2,8 4,21 6,23 0,2 2,4 5,4 23,0 50,0 69,0 2,0 4,-2 6,-4 29,-44 58,-92 87,-136 7,23 9,33 21,44 13,10 23,12 40,12 15,0 29,-6 46,-12 6,-2 12,-6 17,-8 0,-9 0,-17 2,-25 0,0 0,-7 -4,-3z"/>
     </clipPath>
     <clipPath id="id17">
      <path d="M1949 1383l0 0 0 2c-32,35 -63,71 -94,94 -50,39 -98,48 -123,25 -9,-11 -15,-23 -15,-34 0,-6 -4,-6 -6,-4 -30,29 -80,61 -126,38 -23,-11 -35,-34 -39,-57l0 1c2,16 6,41 14,56 7,10 17,23 25,25 40,21 99,-2 136,-38 0,0 0,0 0,-2 2,6 4,15 4,17 2,8 7,15 11,19 25,29 79,16 136,-27 31,-25 54,-51 83,-82 0,-2 0,-4 0,-8 -2,-6 -4,-19 -6,-25z"/>
     </clipPath>
     <clipPath id="id18">
      <path d="M1539 1349c17,-8 30,-25 28,-54 0,-13 -5,-27 -11,-40 4,9 6,19 4,30 -2,18 -12,33 -29,41 -14,9 -31,7 -42,-4 -4,-4 -6,-6 -8,-10 2,12 4,23 8,29 11,15 30,19 50,8z"/>
     </clipPath>
     <clipPath id="id19">
      <path d="M1995 1143c0,-3 -7,-32 -7,-34 0,2 0,2 0,4 -10,15 -192,295 -204,324 -4,8 -4,17 0,21 4,4 8,6 14,6 3,-2 3,-6 5,-10 12,-29 183,-291 192,-307 2,-2 2,-2 0,-4z"/>
     </clipPath>
     <clipPath id="id20">
      <path d="M1226 1243c2,0 2,0 2,2 11,15 17,37 19,63 0,4 2,4 4,2 2,-2 4,-5 7,-7 -3,-12 -9,-25 -13,-35 -2,-4 -10,-19 -19,-25z"/>
     </clipPath>
     <clipPath id="id21">
      <path d="M909 1458l0 0c4,19 4,21 10,29 6,9 11,15 13,17 2,0 6,0 8,-2 11,-4 34,-21 42,-34 2,-2 6,-2 6,2 4,13 11,21 17,32 6,12 21,23 39,29 24,6 49,6 82,-6 27,-11 56,-32 77,-55 25,-27 36,-45 46,-58 17,-21 42,-59 80,-90 12,-10 27,-17 35,-14 4,-13 2,-21 -2,-26 -10,-4 -27,5 -42,15 -39,29 -73,77 -90,98 -8,13 -18,30 -43,59 -42,44 -97,69 -149,52 -27,-10 -48,-33 -56,-61 -2,-6 -4,-6 -6,-4 -11,11 -27,27 -42,36 0,2 -4,4 -9,2 -2,0 -12,-17 -14,-21l-2 0z"/>
     </clipPath>
     <clipPath id="id22">
      <path d="M608 1395c-4,-21 0,-42 8,-58 15,-27 32,-40 51,-50 8,-7 12,-11 6,-23 0,-4 -2,-11 -2,-17 0,6 -2,10 -9,13 -23,12 -48,31 -62,58 -11,21 -13,48 4,71 2,2 2,4 4,6z"/>
     </clipPath>
     <clipPath id="id23">
      <path d="M821 1025l-42 0c-27,24 -37,54 -27,78 2,6 6,10 13,15 -6,-28 12,-70 56,-93z"/>
     </clipPath>
     <clipPath id="id24">
      <path d="M779 1025l42 0c7,-4 15,-7 23,-10 81,-27 171,-10 244,4 11,-6 19,-10 28,-14 4,-2 0,-7 -3,-7 -91,-16 -190,-39 -281,-4 -22,8 -40,19 -53,31z"/>
     </clipPath>
     <clipPath id="id25">
      <path d="M1011 1218c32,-4 59,-7 86,-9 8,-2 14,-2 17,0 10,11 20,19 29,25 4,0 8,0 12,3 2,0 7,-3 9,-3 2,-4 2,-8 2,-12 0,-6 -2,-19 -4,-23 0,2 0,6 -3,10 -4,2 -6,5 -10,5 -4,0 -6,-3 -10,-5 -9,-4 -21,-12 -28,-23 -4,-2 -4,-2 -10,-2 -29,2 -75,7 -106,11 -7,0 -9,2 -11,4 -48,81 -100,169 -159,228 -60,62 -113,77 -167,79 -62,0 -119,-36 -131,-98 6,35 29,77 54,96 27,17 54,23 83,25 63,0 119,-25 180,-86 56,-58 106,-140 155,-221 2,-2 4,-4 12,-4z"/>
     </clipPath>
     <clipPath id="id26">
      <path d="M913 1207l0 0c-2,0 -2,0 -2,0 -29,0 -52,9 -77,27 -7,5 -17,5 -21,-4 0,-2 -2,-4 -2,-6 0,10 4,25 8,31 4,7 15,9 23,2 19,-14 35,-20 54,-25 4,-6 11,-14 15,-23 2,0 2,-1 2,-2z"/>
     </clipPath>
     <clipPath id="id27">
      <path d="M1621 1025l-24 0c-7,5 -15,11 -26,17 -40,21 -80,27 -123,27 -81,2 -157,-23 -234,-44l-69 0c-55,38 -101,79 -134,136 -2,0 0,2 2,2 9,0 17,-2 25,-2 30,-46 63,-73 111,-110 4,-2 8,-5 6,-15 100,21 176,59 303,59 40,0 94,-13 121,-30 26,-16 38,-28 42,-40z"/>
     </clipPath>
     <clipPath id="id28">
      <path d="M1145 1025l69 0c-21,-6 -42,-12 -63,-16 0,4 0,10 -2,12l-4 4zm452 0l24 0c2,-4 2,-8 2,-12l0 -1c0,-4 0,-10 -2,-14 0,-6 0,-12 -2,-16 0,2 0,4 0,6 0,13 -7,24 -22,37z"/>
     </clipPath>
     <clipPath id="id29">
      <path d="M1130 1151l0 0c2,0 4,-2 6,-2 0,-6 3,-11 9,-17 4,-2 8,-4 12,-4 5,-6 7,-17 0,-21 -4,-4 -10,-2 -16,2 0,0 -2,2 -5,2 -8,11 -12,25 -10,36 0,4 2,4 4,4z"/>
     </clipPath>
     <clipPath id="id30">
      <path d="M1187 1166c4,-11 6,-17 4,-36 -2,-13 -4,-23 -7,-29 7,12 3,29 -4,44 -8,16 -25,27 -39,31 0,0 -2,0 -2,4 0,2 10,9 16,15 2,0 2,-2 2,-2 9,-2 21,-11 30,-27z"/>
     </clipPath>
     <clipPath id="id31">
      <path d="M729 1201c15,8 32,13 50,13 67,-3 117,-57 134,-103 4,-12 0,-25 -2,-35 0,-2 -2,-11 -4,-17 2,4 2,13 -2,21 -27,63 -80,115 -142,117 -38,0 -67,-19 -80,-48 9,21 29,42 46,52z"/>
     </clipPath>
     <clipPath id="id32">
      <path d="M1286 1273l0 55c10,-11 22,-22 34,-31 15,-10 32,-19 42,-15 6,7 8,17 -2,36 -23,42 -52,87 -74,122l0 66 28 0c2,0 4,-2 6,-4 29,-48 59,-94 90,-142 2,-2 4,0 4,0 0,12 4,27 11,37 10,19 27,25 46,25 14,2 23,-2 39,-6 13,-6 23,-12 32,-17 4,-4 4,3 4,3 -7,37 2,83 39,102 10,4 19,7 29,8l0 -223c-28,23 -53,48 -83,69 -21,14 -50,25 -69,8 -16,-17 -16,-52 11,-79 2,-2 6,0 6,2 -2,12 0,25 10,33 11,11 28,13 42,4 17,-8 27,-23 29,-41 5,-30 -16,-53 -43,-55 -23,-2 -44,7 -65,23 -11,9 -17,15 -25,27 -2,2 -4,5 -4,-2 0,-35 -15,-56 -44,-56 -23,0 -48,12 -67,27 -10,7 -18,15 -26,24z"/>
     </clipPath>
     <clipPath id="id33">
      <path d="M1424 1282l0 114c0,0 0,1 1,1 10,19 27,25 46,25 1,1 3,1 5,1l0 -50c-5,-1 -10,-3 -14,-7 -16,-17 -16,-52 11,-79 1,-1 2,-1 3,-1l0 -48c-8,4 -16,9 -24,15 -11,9 -17,15 -25,27 -1,2 -3,3 -3,2z"/>
     </clipPath>
     <clipPath id="id34">
      <path d="M1402 1228l0 145 8 -13c2,-2 4,0 4,0 0,12 4,27 11,37 10,19 27,25 46,25 10,2 17,0 27,-2l0 -47c-13,3 -26,2 -36,-7 -17,-17 -17,-52 11,-79 2,-2 6,0 6,2 -2,12 0,25 10,33 3,3 6,5 9,6l0 -97c-16,3 -31,10 -46,22 -11,9 -17,15 -25,27 -2,2 -4,5 -4,-2 0,-24 -7,-42 -21,-50z"/>
     </clipPath>
     <clipPath id="id35">
      <path d="M842 949l0 41c89,-29 183,-8 271,8 3,0 7,5 3,7 -17,8 -34,16 -59,37 -19,17 -42,38 -60,61 -19,23 -32,42 -51,65 -2,2 -4,2 -4,2 -34,7 -68,11 -100,27l0 32c22,-15 43,-22 69,-22 0,0 0,0 2,0 0,0 0,2 -2,2 -34,50 -47,67 -69,93l0 107c52,-58 99,-136 142,-210 2,-2 4,-4 10,-4 32,-4 78,-9 107,-11 6,0 6,0 10,2 7,11 19,19 28,23 4,3 6,4 10,4 4,0 6,-1 10,-4 2,-4 2,-8 2,-10 -2,-4 -22,-15 -22,-19 0,-4 2,-4 2,-4 14,-4 31,-15 39,-31 11,-19 11,-42 -6,-57 -15,-10 -38,-8 -54,7 -19,16 -23,39 -21,58 0,4 0,6 -4,6 -27,2 -55,2 -82,5 -2,0 -4,-3 -2,-3 34,-58 82,-100 138,-140 2,-2 2,-8 2,-12 49,10 97,26 146,39l0 -66 -4 0c-136,-17 -263,-52 -399,-42 -17,2 -35,5 -52,9zm0 156l0 60c27,-21 48,-52 63,-85 10,-25 -9,-36 -19,-21 -11,19 -26,34 -44,46zm284 42c0,4 2,4 4,4 9,-2 19,-11 25,-19 6,-8 9,-19 2,-25 -4,-4 -12,-2 -18,2 -11,11 -15,25 -13,38z"/>
     </clipPath>
     <clipPath id="id36">
      <path d="M1034 943l0 41c24,4 48,9 71,13l0 -45c-24,-3 -47,-6 -71,-9zm0 120l0 64c21,-28 44,-51 71,-73l0 -44c-13,7 -28,16 -48,32 -7,7 -15,14 -23,21zm0 99l0 28c24,-2 49,-4 67,-6 2,0 3,0 4,0l0 -70c-6,13 -8,27 -6,39 0,4 0,6 -4,6 -21,2 -41,2 -61,3z"/>
     </clipPath>
     <clipPath id="id37">
      <path d="M1004 940l0 40c37,4 74,12 109,18 3,0 7,5 3,7 -17,8 -34,16 -59,37 -16,15 -36,33 -53,52l0 100c30,-4 70,-8 97,-10 6,0 6,0 10,2 6,10 16,17 24,22l0 -59c-1,1 -3,1 -5,2 -2,0 -4,0 -4,-4 -2,-11 1,-24 9,-34l0 -28c-5,2 -10,5 -15,10 -19,16 -23,39 -21,58 0,4 0,6 -4,6 -27,2 -55,2 -82,5 -2,0 -4,-3 -2,-3 31,-53 74,-93 124,-130l0 -74c-43,-7 -87,-13 -131,-17z"/>
     </clipPath>
 </defs>
 <g id="Katman_x0020_1">
  <metadata id="CorelCorpID_0Corel-Layer"/>
  <rect fill="none" width="2500" height="2500"/>
  <g id="_1874581150544">
   <g clip-path="url(#id0)">
    <image x="584" y="1210" width="223" height="358" xlink:href="vehicle_ford_Images\vehicle_ford_ImgID1.png"/>
   </g>
   <g>
    <path fill="#D9DADA" d="M1253 777c-666,0 -1198,209 -1198,470 0,259 536,470 1198,470 660,0 1197,-211 1197,-470 0,-259 -537,-470 -1197,-470zm1191 434c0,3 0,5 0,7 0,-2 0,-4 0,-7z"/>
    <path fill="#31A6DE" d="M1253 796c-651,0 -1180,202 -1180,451 0,248 529,449 1180,449 652,0 1180,-201 1180,-449 0,-249 -528,-451 -1180,-451z"/>
    <path fill="#31A6DE" d="M1253 796c-651,0 -1180,202 -1180,451 0,248 529,449 1180,449 652,0 1180,-201 1180,-449 0,-249 -528,-451 -1180,-451z"/>
    <path fill="#31A6DE" d="M902 816c114,-7 228,-12 343,-12 127,0 253,5 378,15 470,59 810,229 810,428 0,248 -528,449 -1180,449 -651,0 -1180,-201 -1180,-449 0,-202 349,-373 829,-431z"/>
    <path fill="#31A6DE" d="M219 1030c331,-71 674,-109 1026,-109 361,0 712,40 1051,115 88,63 137,135 137,211 0,248 -528,449 -1180,449 -651,0 -1180,-201 -1180,-449 0,-79 53,-152 146,-217z"/>
    <path fill="#31A6DE" d="M214 1033c333,-72 678,-110 1031,-110 362,0 715,40 1055,116 85,62 133,133 133,208 0,248 -528,449 -1180,449 -651,0 -1180,-201 -1180,-449 0,-77 51,-150 141,-214z"/>
    <path fill="#31A6DE" d="M210 1036c334,-72 680,-111 1035,-111 364,0 718,41 1059,117 83,61 129,131 129,205 0,248 -528,449 -1180,449 -651,0 -1180,-201 -1180,-449 0,-76 50,-148 137,-211z"/>
    <path fill="#31A6DE" d="M210 1036c334,-72 680,-111 1035,-111 364,0 718,41 1059,117 83,61 129,131 129,205 0,248 -528,449 -1180,449 -651,0 -1180,-201 -1180,-449 0,-76 50,-148 137,-211z"/>
    <path fill="#31A6DE" d="M206 1040c335,-74 682,-113 1039,-113 365,0 721,41 1063,118 80,61 125,129 125,202 0,248 -528,449 -1180,449 -651,0 -1180,-201 -1180,-449 0,-75 48,-145 133,-207z"/>
    <path fill="#34A5DD" d="M202 1042c336,-73 685,-112 1043,-112 366,0 723,41 1067,118 78,60 121,128 121,199 0,248 -528,449 -1180,449 -651,0 -1180,-201 -1180,-449 0,-74 47,-143 129,-205z"/>
    <path fill="#34A5DD" d="M198 1045c338,-74 688,-113 1047,-113 368,0 726,41 1071,119 75,59 117,126 117,196 0,248 -528,449 -1180,449 -651,0 -1180,-201 -1180,-449 0,-72 45,-141 125,-202z"/>
    <path fill="#2FA4DD" d="M198 1046c337,-75 688,-114 1047,-114 368,0 726,41 1071,119 75,59 117,126 117,196 0,248 -528,449 -1180,449 -651,0 -1180,-201 -1180,-449 0,-72 45,-141 125,-201z"/>
    <path fill="#2FA4DD" d="M194 1048c339,-74 690,-114 1051,-114 369,0 729,41 1074,120 73,58 114,124 114,193 0,248 -528,449 -1180,449 -651,0 -1180,-201 -1180,-449 0,-71 44,-139 121,-199z"/>
    <path fill="#2FA3DB" d="M190 1052c340,-76 693,-116 1055,-116 370,0 731,42 1078,121 71,58 110,122 110,190 0,248 -528,449 -1180,449 -651,0 -1180,-201 -1180,-449 0,-70 42,-136 117,-195z"/>
    <path fill="#2FA3DB" d="M187 1054c341,-76 695,-116 1058,-116 372,0 734,42 1082,122 68,57 106,120 106,187 0,248 -528,449 -1180,449 -651,0 -1180,-201 -1180,-449 0,-69 41,-134 114,-193z"/>
    <path fill="#2FA3DB" d="M186 1054c341,-76 696,-116 1059,-116 372,0 734,42 1082,122 68,57 106,120 106,187 0,248 -528,449 -1180,449 -651,0 -1180,-201 -1180,-449 0,-69 41,-134 113,-193z"/>
    <path fill="#2FA3DB" d="M183 1057c342,-76 697,-117 1062,-117 373,0 736,43 1085,123 66,56 103,118 103,184 0,248 -528,449 -1180,449 -651,0 -1180,-201 -1180,-449 0,-68 40,-132 110,-190z"/>
    <path fill="#30A2DA" d="M180 1060c343,-77 699,-118 1065,-118 374,0 738,43 1088,123 65,56 100,117 100,182 0,248 -528,449 -1180,449 -651,0 -1180,-201 -1180,-449 0,-67 38,-130 107,-187z"/>
    <path fill="#30A2DA" d="M179 1060c343,-77 700,-118 1066,-118 374,0 738,43 1089,123 64,56 99,117 99,182 0,248 -528,449 -1180,449 -651,0 -1180,-201 -1180,-449 0,-66 38,-130 106,-187z"/>
    <path fill="#30A2DA" d="M176 1063c344,-78 702,-119 1069,-119 375,0 741,43 1092,124 62,55 96,116 96,179 0,248 -528,449 -1180,449 -651,0 -1180,-201 -1180,-449 0,-65 37,-128 103,-184z"/>
    <path fill="#30A2DA" d="M173 1066c345,-78 704,-120 1072,-120 376,0 743,44 1095,125 60,54 93,114 93,176 0,248 -528,449 -1180,449 -651,0 -1180,-201 -1180,-449 0,-64 36,-126 100,-181z"/>
    <path fill="#33A0D8" d="M169 1069c347,-79 707,-121 1076,-121 377,0 745,44 1098,126 58,53 90,112 90,173 0,248 -528,449 -1180,449 -651,0 -1180,-201 -1180,-449 0,-63 35,-123 96,-178z"/>
    <path fill="#33A0D8" d="M169 1069c347,-79 706,-121 1076,-121 378,0 745,44 1098,126 58,53 90,112 90,173 0,248 -528,449 -1180,449 -651,0 -1180,-201 -1180,-449 0,-63 35,-123 96,-178z"/>
    <path fill="#33A0D8" d="M166 1072c347,-79 708,-122 1079,-122 379,0 747,44 1101,127 56,52 87,110 87,170 0,248 -528,449 -1180,449 -651,0 -1180,-201 -1180,-449 0,-62 33,-121 93,-175z"/>
    <path fill="#2B9FD8" d="M163 1074c348,-79 710,-121 1082,-121 380,0 749,43 1104,127 54,51 84,108 84,167 0,248 -528,449 -1180,449 -651,0 -1180,-201 -1180,-449 0,-61 32,-119 90,-173z"/>
    <path fill="#2B9FD8" d="M163 1075c348,-80 710,-122 1082,-122 380,0 749,44 1104,127 54,51 84,108 84,167 0,248 -528,449 -1180,449 -651,0 -1180,-201 -1180,-449 0,-61 32,-119 90,-172z"/>
    <path fill="#2B9FD8" d="M160 1077c349,-80 712,-122 1085,-122 381,0 751,44 1107,127 52,51 81,107 81,165 0,248 -528,449 -1180,449 -651,0 -1180,-201 -1180,-449 0,-60 31,-117 87,-170z"/>
    <path fill="#2B9DD7" d="M157 1080c350,-81 714,-123 1088,-123 382,0 753,44 1110,128 50,50 78,105 78,162 0,248 -528,449 -1180,449 -651,0 -1180,-201 -1180,-449 0,-59 30,-115 84,-167z"/>
    <path fill="#2B9DD7" d="M154 1083c351,-81 716,-124 1091,-124 383,0 755,44 1113,129 48,49 75,103 75,159 0,248 -528,449 -1180,449 -651,0 -1180,-201 -1180,-449 0,-58 29,-113 81,-164z"/>
    <path fill="#2B9DD7" d="M154 1083c351,-81 716,-124 1091,-124 383,0 755,45 1113,129 49,50 75,103 75,159 0,248 -528,449 -1180,449 -651,0 -1180,-201 -1180,-449 0,-58 29,-113 81,-164z"/>
    <path fill="#2B9DD7" d="M152 1086c351,-82 717,-125 1093,-125 384,0 757,45 1116,130 47,49 72,101 72,156 0,248 -528,449 -1180,449 -651,0 -1180,-201 -1180,-449 0,-57 28,-111 79,-161z"/>
    <path fill="#269BD4" d="M149 1088c352,-82 719,-125 1096,-125 385,0 759,45 1118,131 46,47 70,99 70,153 0,248 -528,449 -1180,449 -651,0 -1180,-201 -1180,-449 0,-56 27,-109 76,-159z"/>
    <path fill="#269BD4" d="M149 1088c352,-82 719,-125 1096,-125 385,0 759,45 1118,131 46,48 70,99 70,153 0,248 -528,449 -1180,449 -651,0 -1180,-201 -1180,-449 0,-56 27,-109 76,-159z"/>
    <path fill="#269BD4" d="M146 1091c353,-82 721,-126 1099,-126 386,0 761,46 1121,132 43,47 67,97 67,150 0,248 -528,449 -1180,449 -651,0 -1180,-201 -1180,-449 0,-55 26,-107 73,-156z"/>
    <path fill="#269BD4" d="M143 1094c355,-83 723,-127 1102,-127 387,0 763,46 1123,132 42,47 65,96 65,148 0,248 -528,449 -1180,449 -651,0 -1180,-201 -1180,-449 0,-54 25,-105 70,-153z"/>
    <path fill="#269BD4" d="M141 1097c355,-84 724,-128 1104,-128 388,0 764,46 1126,133 40,46 62,94 62,145 0,248 -528,449 -1180,449 -651,0 -1180,-201 -1180,-449 0,-53 24,-103 68,-150z"/>
    <path fill="#2799D3" d="M141 1097c355,-84 724,-128 1104,-128 388,0 764,46 1126,133 40,46 62,94 62,145 0,248 -528,449 -1180,449 -651,0 -1180,-201 -1180,-449 0,-53 24,-103 68,-150z"/>
    <path fill="#2799D2" d="M139 1099c355,-83 725,-128 1106,-128 388,0 766,47 1128,134 39,45 60,92 60,142 0,248 -528,449 -1180,449 -651,0 -1180,-201 -1180,-449 0,-52 23,-101 66,-148z"/>
    <path fill="#2799D2" d="M136 1102c356,-84 728,-129 1109,-129 389,0 768,47 1131,135 37,43 57,90 57,139 0,248 -528,449 -1180,449 -651,0 -1180,-201 -1180,-449 0,-51 22,-99 63,-145z"/>
    <path fill="#2898D1" d="M134 1105c357,-85 729,-129 1111,-129 390,0 769,46 1133,134 36,43 55,89 55,137 0,248 -528,449 -1180,449 -651,0 -1180,-201 -1180,-449 0,-50 22,-97 61,-142z"/>
    <path fill="#1E97D1" d="M133 1105c358,-85 730,-129 1112,-129 390,0 769,46 1133,134 36,44 55,89 55,137 0,248 -528,449 -1180,449 -651,0 -1180,-201 -1180,-449 0,-50 22,-97 60,-142z"/>
    <path fill="#1E97D1" d="M131 1108c358,-85 731,-130 1114,-130 391,0 771,47 1135,135 35,42 53,87 53,134 0,248 -528,449 -1180,449 -651,0 -1180,-201 -1180,-449 0,-49 21,-95 58,-139z"/>
    <path fill="#1E97D1" d="M129 1110c358,-85 732,-130 1116,-130 392,0 772,47 1137,136 33,41 51,85 51,131 0,248 -528,449 -1180,449 -651,0 -1180,-201 -1180,-449 0,-48 20,-94 56,-137z"/>
    <path fill="#1E97D1" d="M129 1110c358,-85 732,-130 1116,-130 392,0 772,47 1137,136 33,41 51,85 51,131 0,248 -528,449 -1180,449 -651,0 -1180,-201 -1180,-449 0,-48 20,-94 56,-137z"/>
    <path fill="#2095D0" d="M127 1113c359,-86 733,-131 1118,-131 392,0 774,47 1139,136 32,41 49,84 49,129 0,248 -528,449 -1180,449 -651,0 -1180,-201 -1180,-449 0,-47 19,-92 54,-134z"/>
    <path fill="#2095D0" d="M125 1116c359,-86 734,-132 1120,-132 393,0 775,48 1142,137 30,40 46,82 46,126 0,248 -528,449 -1180,449 -651,0 -1180,-201 -1180,-449 0,-46 18,-90 52,-131z"/>
    <path fill="#2094CE" d="M122 1118c361,-86 737,-132 1123,-132 394,0 777,48 1143,138 30,39 45,80 45,123 0,248 -528,449 -1180,449 -651,0 -1180,-201 -1180,-449 0,-45 18,-88 49,-129z"/>
    <path fill="#2094CE" d="M122 1118c361,-86 737,-132 1123,-132 394,0 777,48 1144,138 29,39 44,80 44,123 0,248 -528,449 -1180,449 -651,0 -1180,-201 -1180,-449 0,-45 18,-88 49,-129z"/>
    <path fill="#2094CE" d="M120 1121c361,-87 738,-133 1125,-133 395,0 778,48 1145,138 28,39 43,79 43,121 0,248 -528,449 -1180,449 -651,0 -1180,-201 -1180,-449 0,-44 17,-86 47,-126z"/>
    <path fill="#1A93CD" d="M118 1124c362,-88 739,-134 1127,-134 395,0 779,48 1147,139 27,37 41,77 41,118 0,248 -528,449 -1180,449 -651,0 -1180,-201 -1180,-449 0,-43 16,-84 45,-123z"/>
    <path fill="#1A93CD" d="M118 1124c362,-87 739,-134 1127,-134 395,0 779,48 1147,139 27,38 41,77 41,118 0,248 -528,449 -1180,449 -651,0 -1180,-201 -1180,-449 0,-43 16,-84 45,-123z"/>
    <path fill="#1A93CD" d="M116 1126c363,-87 740,-134 1129,-134 396,0 781,49 1149,139 26,37 39,76 39,116 0,248 -528,449 -1180,449 -651,0 -1180,-201 -1180,-449 0,-42 15,-82 43,-121z"/>
    <path fill="#1D91CC" d="M115 1129c362,-88 741,-135 1130,-135 397,0 782,49 1151,140 24,36 37,74 37,113 0,248 -528,449 -1180,449 -651,0 -1180,-201 -1180,-449 0,-41 15,-80 42,-118z"/>
    <path fill="#1D91CC" d="M113 1131c363,-88 742,-135 1132,-135 397,0 783,49 1153,141 23,35 35,72 35,110 0,248 -528,449 -1180,449 -651,0 -1180,-201 -1180,-449 0,-40 14,-79 40,-116z"/>
    <path fill="#1D90CB" d="M113 1132c363,-89 742,-136 1132,-136 397,0 783,49 1153,141 23,35 35,72 35,110 0,248 -528,449 -1180,449 -651,0 -1180,-201 -1180,-449 0,-40 14,-79 40,-115z"/>
    <path fill="#1390CA" d="M111 1134c364,-88 743,-136 1134,-136 398,0 784,50 1154,141 22,35 34,71 34,108 0,248 -528,449 -1180,449 -651,0 -1180,-201 -1180,-449 0,-39 13,-77 38,-113z"/>
    <path fill="#168FCA" d="M109 1137c365,-89 745,-136 1136,-136 398,0 785,49 1156,141 21,33 32,69 32,105 0,248 -528,449 -1180,449 -651,0 -1180,-201 -1180,-449 0,-38 13,-75 36,-110z"/>
    <path fill="#168FCA" d="M109 1137c365,-89 745,-136 1136,-136 398,0 785,49 1156,141 21,34 32,69 32,105 0,248 -528,449 -1180,449 -651,0 -1180,-201 -1180,-449 0,-38 13,-75 36,-110z"/>
    <path fill="#168FCA" d="M108 1139c364,-89 745,-136 1137,-136 399,0 787,49 1158,141 20,33 30,68 30,103 0,248 -528,449 -1180,449 -651,0 -1180,-201 -1180,-449 0,-37 12,-73 35,-108z"/>
    <path fill="#1C8CC7" d="M106 1142c365,-90 747,-137 1139,-137 399,0 788,49 1159,142 19,32 29,66 29,100 0,248 -528,449 -1180,449 -651,0 -1180,-201 -1180,-449 0,-36 12,-71 33,-105z"/>
    <path fill="#1C8CC7" d="M104 1144c366,-89 748,-137 1141,-137 400,0 789,49 1160,142 19,32 28,64 28,98 0,248 -528,449 -1180,449 -651,0 -1180,-201 -1180,-449 0,-35 11,-70 31,-103z"/>
    <path fill="#1C8CC7" d="M104 1144c366,-89 748,-137 1141,-137 400,0 789,49 1160,142 19,32 28,65 28,98 0,248 -528,449 -1180,449 -651,0 -1180,-201 -1180,-449 0,-35 11,-70 31,-103z"/>
    <path fill="#1C8CC7" d="M103 1147c366,-90 749,-138 1142,-138 400,0 790,50 1162,143 17,31 26,62 26,95 0,248 -528,449 -1180,449 -651,0 -1180,-201 -1180,-449 0,-34 11,-68 30,-100z"/>
    <path fill="#1B8AC5" d="M101 1149c367,-90 750,-138 1144,-138 401,0 791,50 1163,143 17,30 25,61 25,93 0,248 -528,449 -1180,449 -651,0 -1180,-201 -1180,-449 0,-34 10,-66 28,-98z"/>
    <path fill="#1B8AC5" d="M100 1152c367,-91 751,-139 1145,-139 402,0 791,50 1165,144 15,29 23,59 23,90 0,248 -528,449 -1180,449 -651,0 -1180,-201 -1180,-449 0,-33 10,-64 27,-95z"/>
    <path fill="#1B8AC5" d="M100 1152c367,-91 750,-139 1145,-139 402,0 792,50 1165,144 15,29 23,59 23,90 0,248 -528,449 -1180,449 -651,0 -1180,-201 -1180,-449 0,-33 10,-64 27,-95z"/>
    <path fill="#1E89C3" d="M99 1154c367,-90 751,-139 1146,-139 402,0 792,50 1166,144 15,29 22,58 22,88 0,248 -528,449 -1180,449 -651,0 -1180,-201 -1180,-449 0,-32 9,-63 26,-93z"/>
    <path fill="#1E89C3" d="M97 1157c368,-91 752,-140 1148,-140 402,0 793,51 1167,145 14,27 21,56 21,85 0,248 -528,449 -1180,449 -651,0 -1180,-201 -1180,-449 0,-31 9,-61 24,-90z"/>
    <path fill="#1488C3" d="M97 1157c368,-91 752,-140 1148,-140 402,0 793,51 1167,145 14,27 21,56 21,85 0,248 -528,449 -1180,449 -651,0 -1180,-201 -1180,-449 0,-31 9,-61 24,-90z"/>
    <path fill="#1488C3" d="M96 1159c368,-91 753,-140 1149,-140 403,0 794,51 1168,145 13,27 20,55 20,83 0,248 -528,449 -1180,449 -651,0 -1180,-201 -1180,-449 0,-30 8,-59 23,-88z"/>
    <path fill="#1A86C2" d="M95 1162c368,-92 754,-141 1150,-141 403,0 795,51 1170,146 12,26 18,53 18,80 0,248 -528,449 -1180,449 -651,0 -1180,-201 -1180,-449 0,-29 8,-58 22,-85z"/>
    <path fill="#1A85C0" d="M94 1164c369,-92 754,-140 1151,-140 404,0 796,50 1171,145 11,25 17,51 17,78 0,248 -528,449 -1180,449 -651,0 -1180,-201 -1180,-449 0,-28 7,-56 21,-83z"/>
    <path fill="#1A85C0" d="M93 1164c370,-91 755,-140 1152,-140 404,0 796,50 1171,145 11,25 17,51 17,78 0,248 -528,449 -1180,449 -651,0 -1180,-201 -1180,-449 0,-28 7,-56 20,-83z"/>
    <path fill="#1E84C0" d="M92 1167c370,-92 756,-141 1153,-141 404,0 797,50 1172,146 11,24 16,49 16,75 0,248 -528,449 -1180,449 -651,0 -1180,-201 -1180,-449 0,-27 7,-54 19,-80z"/>
    <path fill="#1E84C0" d="M91 1169c370,-92 756,-141 1154,-141 404,0 797,51 1173,146 10,24 15,48 15,73 0,248 -528,449 -1180,449 -651,0 -1180,-201 -1180,-449 0,-27 7,-53 18,-78z"/>
    <path fill="#1E84C0" d="M91 1169c370,-92 756,-141 1154,-141 404,0 797,51 1173,146 10,24 15,48 15,73 0,248 -528,449 -1180,449 -651,0 -1180,-201 -1180,-449 0,-26 7,-52 18,-78z"/>
    <path fill="#1884BF" d="M90 1172c370,-93 757,-142 1155,-142 405,0 798,51 1174,146 9,23 14,47 14,71 0,248 -528,449 -1180,449 -651,0 -1180,-201 -1180,-449 0,-26 6,-51 17,-75z"/>
    <path fill="#1A82BE" d="M89 1174c370,-93 758,-142 1156,-142 405,0 799,51 1175,147 9,22 13,45 13,68 0,248 -528,449 -1180,449 -651,0 -1180,-201 -1180,-449 0,-25 6,-49 16,-73z"/>
    <path fill="#1A81BD" d="M88 1176c371,-92 758,-142 1157,-142 406,0 799,51 1176,147 8,22 12,44 12,66 0,248 -528,449 -1180,449 -651,0 -1180,-201 -1180,-449 0,-24 5,-48 15,-71z"/>
    <path fill="#1B80BC" d="M88 1176c371,-92 758,-142 1157,-142 406,0 799,51 1176,147 8,22 12,44 12,66 0,248 -528,449 -1180,449 -651,0 -1180,-201 -1180,-449 0,-24 5,-48 15,-71z"/>
    <path fill="#1B80BC" d="M87 1179c371,-93 759,-143 1158,-143 406,0 800,51 1177,148 7,20 11,42 11,63 0,248 -528,449 -1180,449 -651,0 -1180,-201 -1180,-449 0,-23 5,-46 14,-68z"/>
    <path fill="#1680BC" d="M86 1181c371,-93 759,-143 1159,-143 406,0 801,52 1177,148 8,20 11,40 11,61 0,248 -528,449 -1180,449 -651,0 -1180,-201 -1180,-449 0,-22 5,-44 13,-66z"/>
    <path fill="#1680BC" d="M86 1181c371,-93 759,-143 1159,-143 406,0 801,52 1177,148 8,20 11,40 11,61 0,248 -528,449 -1180,449 -651,0 -1180,-201 -1180,-449 0,-22 5,-44 13,-66z"/>
    <path fill="#187EB9" d="M85 1184c372,-94 760,-144 1160,-144 407,0 801,52 1178,148 7,20 10,39 10,59 0,248 -528,449 -1180,449 -651,0 -1180,-201 -1180,-449 0,-22 5,-43 12,-63z"/>
    <path fill="#187EB9" d="M84 1186c372,-94 761,-144 1161,-144 407,0 802,52 1179,149 6,18 9,37 9,56 0,248 -528,449 -1180,449 -651,0 -1180,-201 -1180,-449 0,-21 4,-41 11,-61z"/>
    <path fill="#187EB9" d="M84 1188c372,-94 761,-144 1161,-144 407,0 802,52 1180,149 5,18 8,36 8,54 0,248 -528,449 -1180,449 -651,0 -1180,-201 -1180,-449 0,-20 4,-40 11,-59z"/>
    <path fill="#187EB9" d="M83 1188c373,-94 761,-144 1162,-144 407,0 802,52 1180,149 5,18 8,36 8,54 0,248 -528,449 -1180,449 -651,0 -1180,-201 -1180,-449 0,-20 4,-40 10,-59z"/>
    <path fill="#197DB9" d="M83 1191c372,-94 761,-144 1162,-144 407,0 803,51 1180,148 6,17 8,34 8,52 0,248 -528,449 -1180,449 -651,0 -1180,-201 -1180,-449 0,-19 4,-38 10,-56z"/>
    <path fill="#117CB8" d="M82 1193c373,-94 762,-144 1163,-144 408,0 803,51 1181,149 5,16 7,32 7,49 0,248 -528,449 -1180,449 -651,0 -1180,-201 -1180,-449 0,-18 3,-36 9,-54z"/>
    <path fill="#147AB6" d="M81 1195c373,-94 763,-144 1164,-144 408,0 804,52 1182,149 4,15 6,31 6,47 0,248 -528,449 -1180,449 -651,0 -1180,-201 -1180,-449 0,-18 3,-35 8,-52z"/>
    <path fill="#147AB6" d="M81 1195c373,-94 763,-144 1164,-144 408,0 804,52 1182,149 4,15 6,31 6,47 0,248 -528,449 -1180,449 -651,0 -1180,-201 -1180,-449 0,-18 3,-35 8,-52z"/>
    <path fill="#147AB6" d="M81 1198c373,-95 762,-145 1164,-145 408,0 804,52 1183,149 3,15 5,30 5,45 0,248 -528,449 -1180,449 -651,0 -1180,-201 -1180,-449 0,-17 3,-33 8,-49z"/>
    <path fill="#147AB6" d="M80 1200c373,-95 763,-145 1165,-145 408,0 805,52 1183,149 3,14 5,29 5,43 0,248 -528,449 -1180,449 -651,0 -1180,-201 -1180,-449 0,-16 3,-32 7,-47z"/>
    <path fill="#1078B5" d="M80 1200c373,-95 763,-145 1165,-145 408,0 805,52 1183,150 3,14 5,28 5,42 0,248 -528,449 -1180,449 -651,0 -1180,-201 -1180,-449 0,-16 3,-32 7,-47z"/>
    <path fill="#1078B4" d="M79 1202c374,-95 764,-145 1166,-145 408,0 805,52 1184,150 3,13 4,26 4,40 0,248 -528,449 -1180,449 -651,0 -1180,-201 -1180,-449 0,-15 2,-30 6,-45z"/>
    <path fill="#1078B4" d="M79 1204c373,-94 764,-145 1166,-145 409,0 805,52 1184,150 3,12 4,25 4,38 0,248 -528,449 -1180,449 -651,0 -1180,-201 -1180,-449 0,-14 2,-29 6,-43z"/>
    <path fill="#1376B2" d="M78 1207c374,-95 765,-146 1167,-146 409,0 806,52 1185,150 2,12 3,24 3,36 0,248 -528,449 -1180,449 -651,0 -1180,-201 -1180,-449 0,-14 2,-27 5,-40z"/>
    <path fill="#1376B2" d="M78 1207c374,-95 765,-146 1167,-146 409,0 806,52 1185,150 2,12 3,24 3,36 0,248 -528,449 -1180,449 -651,0 -1180,-201 -1180,-449 0,-14 2,-27 5,-40z"/>
    <path fill="#1376B2" d="M78 1209c373,-95 764,-146 1167,-146 409,0 806,53 1185,151 2,11 3,22 3,33 0,248 -528,449 -1180,449 -651,0 -1180,-201 -1180,-449 0,-13 2,-25 5,-38z"/>
    <path fill="#0F74B1" d="M77 1211c374,-95 765,-146 1168,-146 409,0 806,53 1185,151 2,10 3,20 3,31 0,248 -528,449 -1180,449 -651,0 -1180,-201 -1180,-449 0,-12 2,-24 4,-36z"/>
    <path fill="#0F73AF" d="M77 1211c374,-95 765,-146 1168,-146 409,0 806,53 1185,151 2,10 3,21 3,31 0,248 -528,449 -1180,449 -651,0 -1180,-201 -1180,-449 0,-12 2,-24 4,-36z"/>
    <path fill="#0F73AF" d="M77 1214c374,-96 765,-147 1168,-147 409,0 807,53 1186,151 1,10 2,19 2,29 0,248 -528,449 -1180,449 -651,0 -1180,-201 -1180,-449 0,-11 2,-22 4,-33z"/>
    <path fill="#1272AF" d="M76 1216c374,-96 766,-147 1169,-147 409,0 807,53 1186,151 2,9 2,18 2,27 0,248 -528,449 -1180,449 -651,0 -1180,-201 -1180,-449 0,-11 2,-21 3,-31z"/>
    <path fill="#1272AF" d="M76 1218c374,-95 766,-146 1169,-146 410,0 807,52 1187,151 1,8 1,16 1,24 0,248 -528,449 -1180,449 -651,0 -1180,-201 -1180,-449 0,-10 1,-19 3,-29z"/>
    <path fill="#1372AE" d="M76 1218c374,-95 766,-146 1169,-146 410,0 807,52 1187,151 1,8 1,16 1,24 0,248 -528,449 -1180,449 -651,0 -1180,-201 -1180,-449 0,-10 1,-19 3,-29z"/>
    <path fill="#1770AC" d="M76 1220c374,-95 766,-146 1169,-146 410,0 807,52 1187,151 1,7 1,14 1,22 0,248 -528,449 -1180,449 -651,0 -1180,-201 -1180,-449 0,-9 1,-18 3,-27z"/>
    <path fill="#1270AC" d="M75 1222c375,-95 766,-146 1170,-146 410,0 807,52 1187,151 1,7 1,13 1,20 0,248 -528,449 -1180,449 -651,0 -1180,-201 -1180,-449 0,-8 1,-16 2,-25z"/>
    <path fill="#1270AC" d="M75 1223c375,-96 766,-147 1170,-147 410,0 808,52 1187,151 1,7 1,13 1,20 0,248 -528,449 -1180,449 -651,0 -1180,-201 -1180,-449 0,-8 1,-16 2,-24z"/>
    <path fill="#156FAB" d="M75 1225c374,-96 766,-147 1170,-147 410,0 808,52 1187,151 1,6 1,12 1,18 0,248 -528,449 -1180,449 -651,0 -1180,-201 -1180,-449 0,-7 1,-15 2,-22z"/>
    <path fill="#156FAB" d="M75 1227c374,-96 766,-147 1170,-147 410,0 808,53 1188,151 0,6 0,11 0,16 0,248 -528,449 -1180,449 -651,0 -1180,-201 -1180,-449 0,-7 1,-13 2,-20z"/>
    <path fill="#156FAB" d="M75 1229c374,-96 766,-147 1170,-147 410,0 808,53 1188,151 0,5 0,9 0,14 0,248 -528,449 -1180,449 -651,0 -1180,-201 -1180,-449 0,-6 1,-12 2,-18z"/>
    <path fill="#136CA8" d="M74 1229c375,-96 767,-147 1171,-147 410,0 808,53 1188,152 0,4 0,9 0,13 0,248 -528,449 -1180,449 -651,0 -1180,-201 -1180,-449 0,-6 1,-12 1,-18z"/>
    <path fill="#136CA8" d="M74 1231c375,-96 767,-147 1171,-147 410,0 808,53 1188,152 0,3 0,7 0,11 0,248 -528,449 -1180,449 -651,0 -1180,-201 -1180,-449 0,-5 1,-11 1,-16z"/>
    <path fill="#136CA8" d="M74 1234c375,-97 767,-148 1171,-148 410,0 808,53 1188,152 0,3 0,6 0,9 0,248 -528,449 -1180,449 -651,0 -1180,-201 -1180,-449 0,-4 1,-9 1,-13z"/>
    <path fill="#136CA8" d="M74 1236c375,-96 767,-148 1171,-148 410,0 808,53 1188,152 0,2 0,5 0,7 0,248 -528,449 -1180,449 -651,0 -1180,-201 -1180,-449 0,-4 1,-8 1,-11z"/>
    <path fill="#166BA8" d="M74 1236c375,-96 767,-148 1171,-148 410,0 808,53 1188,152 0,2 0,5 0,7 0,248 -528,449 -1180,449 -651,0 -1180,-201 -1180,-449 0,-4 1,-8 1,-11z"/>
    <path fill="#166BA8" d="M74 1238c375,-96 767,-148 1171,-148 410,0 808,53 1188,152 0,2 0,3 0,5 0,248 -528,449 -1180,449 -651,0 -1180,-201 -1180,-449 0,-3 1,-6 1,-9z"/>
    <path fill="#1669A5" d="M74 1240c374,-96 767,-148 1171,-148 410,0 808,53 1188,152 0,1 0,2 0,3 0,248 -528,449 -1180,449 -651,0 -1180,-201 -1180,-449 0,-2 1,-5 1,-7z"/>
    <path fill="#1669A5" d="M74 1240c375,-96 767,-148 1171,-148 410,0 808,53 1188,152 0,1 0,2 0,3 0,248 -528,449 -1180,449 -651,0 -1180,-201 -1180,-449 0,-2 1,-4 1,-7z"/>
    <path fill="#1669A5" d="M74 1242c374,-96 767,-147 1171,-147 410,0 808,52 1188,152 0,0 0,0 0,0 0,248 -528,449 -1180,449 -651,0 -1180,-201 -1180,-449 0,-2 1,-3 1,-5z"/>
    <path fill="#1668A5" d="M74 1244c374,-96 767,-147 1171,-147 410,0 808,52 1188,152 -2,247 -529,447 -1180,447 -651,0 -1180,-201 -1180,-449 0,-1 1,-2 1,-3z"/>
    <path fill="#1667A3" d="M73 1247c375,-97 768,-148 1172,-148 410,0 808,53 1188,152 -5,247 -531,445 -1180,445 -651,0 -1180,-201 -1180,-449 0,0 0,0 0,0z"/>
    <path fill="#1265A2" d="M73 1247c375,-97 768,-148 1172,-148 410,0 808,53 1188,152 -5,247 -531,445 -1180,445 -651,0 -1180,-201 -1180,-449 0,0 0,0 0,0z"/>
    <path fill="#1265A2" d="M74 1249c374,-97 767,-148 1171,-148 410,0 808,53 1188,152 -8,246 -533,443 -1180,443 -650,0 -1177,-199 -1179,-447z"/>
    <path fill="#1265A2" d="M74 1251c374,-97 767,-148 1171,-148 410,0 808,53 1188,152 -11,245 -535,441 -1180,441 -648,0 -1174,-198 -1179,-445z"/>
    <path fill="#1265A2" d="M74 1251c374,-97 767,-148 1171,-148 410,0 808,53 1188,152 -11,245 -535,441 -1180,441 -648,0 -1174,-198 -1179,-445z"/>
    <path fill="#1463A0" d="M74 1253c374,-97 767,-148 1171,-148 410,0 808,53 1188,152 -15,244 -537,439 -1180,439 -646,0 -1171,-197 -1179,-443z"/>
    <path fill="#14639F" d="M74 1255c374,-96 767,-148 1171,-148 410,0 808,53 1188,152 -17,243 -539,437 -1180,437 -644,0 -1168,-196 -1179,-441z"/>
    <path fill="#0F619E" d="M74 1257c375,-96 767,-148 1171,-148 410,0 808,53 1188,152 -20,242 -541,435 -1180,435 -642,0 -1165,-195 -1179,-439z"/>
    <path fill="#0F619E" d="M74 1257c375,-96 767,-148 1171,-148 410,0 808,53 1188,153 -21,241 -541,434 -1180,434 -642,0 -1165,-195 -1179,-439z"/>
    <path fill="#0F619E" d="M74 1259c375,-96 767,-148 1171,-148 410,0 808,53 1187,153 -22,240 -542,432 -1179,432 -640,0 -1162,-194 -1179,-437z"/>
    <path fill="#125F9C" d="M74 1262c375,-97 767,-149 1171,-149 410,0 808,53 1187,153 -25,239 -543,430 -1179,430 -638,0 -1159,-193 -1179,-434z"/>
    <path fill="#0D5E9B" d="M74 1262c375,-97 767,-149 1171,-149 410,0 808,53 1187,153 -26,240 -544,430 -1179,430 -638,0 -1159,-193 -1179,-434z"/>
    <path fill="#0D5E9B" d="M74 1264c375,-97 767,-149 1171,-149 410,0 808,53 1187,153 -29,239 -545,428 -1179,428 -637,0 -1156,-192 -1179,-432z"/>
    <path fill="#0E5E9B" d="M75 1266c374,-97 766,-148 1170,-148 410,0 807,52 1187,152 -32,238 -547,426 -1179,426 -635,0 -1153,-191 -1178,-430z"/>
    <path fill="#0E5E9B" d="M75 1268c374,-97 766,-148 1170,-148 410,0 807,52 1186,152 -33,237 -548,424 -1178,424 -633,0 -1150,-189 -1178,-428z"/>
    <path fill="#0F5D99" d="M75 1268c374,-97 766,-148 1170,-148 410,0 807,53 1186,152 -34,237 -548,424 -1178,424 -633,0 -1149,-189 -1178,-428z"/>
    <path fill="#135B98" d="M75 1270c374,-97 766,-148 1170,-148 410,0 807,53 1186,152 -37,236 -550,422 -1178,422 -631,0 -1147,-188 -1178,-426z"/>
    <path fill="#0C5B98" d="M75 1272c374,-97 766,-148 1170,-148 410,0 807,53 1186,152 -40,235 -552,420 -1178,420 -629,0 -1144,-187 -1178,-424z"/>
    <path fill="#0E5A97" d="M76 1274c374,-97 765,-148 1169,-148 409,0 807,53 1185,152 -42,234 -553,418 -1177,418 -627,0 -1141,-186 -1177,-422z"/>
    <path fill="#0F5A96" d="M76 1274c374,-97 765,-148 1169,-148 409,0 807,53 1185,152 -42,234 -553,418 -1177,418 -627,0 -1141,-186 -1177,-422z"/>
    <path fill="#0F5A96" d="M76 1276c374,-97 766,-148 1169,-148 409,0 806,53 1185,152 -45,233 -554,416 -1177,416 -625,0 -1138,-185 -1177,-420z"/>
    <path fill="#0E5895" d="M76 1278c374,-97 766,-148 1169,-148 409,0 806,53 1185,152 -47,232 -556,414 -1177,414 -624,0 -1135,-184 -1177,-418z"/>
    <path fill="#0E5895" d="M76 1278c374,-96 766,-148 1169,-148 409,0 806,53 1185,152 -48,232 -556,414 -1177,414 -624,0 -1135,-184 -1177,-418z"/>
    <path fill="#0E5895" d="M77 1280c373,-96 765,-148 1168,-148 409,0 806,53 1184,152 -50,231 -557,412 -1176,412 -622,0 -1132,-183 -1176,-416z"/>
    <path fill="#115794" d="M77 1282c374,-96 765,-148 1168,-148 409,0 805,53 1184,152 -52,230 -559,410 -1176,410 -620,0 -1129,-182 -1176,-414z"/>
    <path fill="#115693" d="M78 1284c373,-96 764,-148 1167,-148 409,0 805,53 1183,152 -54,229 -560,408 -1175,408 -618,0 -1126,-181 -1175,-412z"/>
    <path fill="#115693" d="M78 1284c373,-96 764,-148 1167,-148 409,0 805,53 1183,152 -55,229 -560,408 -1175,408 -618,0 -1126,-181 -1175,-412z"/>
    <path fill="#105591" d="M78 1286c373,-96 764,-148 1167,-148 408,0 805,53 1183,152 -58,228 -562,406 -1175,406 -616,0 -1123,-180 -1175,-410z"/>
    <path fill="#105591" d="M78 1288c374,-96 764,-148 1167,-148 408,0 804,53 1182,152 -60,228 -562,404 -1174,404 -615,0 -1120,-179 -1175,-408z"/>
    <path fill="#105491" d="M79 1288c373,-96 763,-148 1166,-148 408,0 804,53 1182,153 -60,227 -562,403 -1174,403 -615,0 -1120,-179 -1174,-408z"/>
    <path fill="#135490" d="M79 1291c373,-97 764,-148 1166,-148 408,0 804,52 1182,151 -63,227 -564,402 -1174,402 -613,0 -1117,-178 -1174,-405z"/>
    <path fill="#105390" d="M79 1292c373,-96 764,-147 1166,-147 408,0 804,52 1181,151 -64,226 -565,400 -1173,400 -611,0 -1114,-177 -1174,-404z"/>
    <path fill="#14528F" d="M80 1294c373,-96 763,-147 1165,-147 408,0 803,52 1181,151 -67,225 -567,398 -1173,398 -609,0 -1111,-176 -1173,-402z"/>
    <path fill="#14528F" d="M80 1295c373,-97 763,-148 1165,-148 408,0 803,52 1181,151 -67,225 -567,398 -1173,398 -609,0 -1111,-175 -1173,-401z"/>
    <path fill="#14518D" d="M81 1296c372,-96 762,-147 1164,-147 407,0 803,52 1180,151 -69,224 -568,396 -1172,396 -607,0 -1108,-174 -1172,-400z"/>
    <path fill="#16508C" d="M81 1298c372,-96 762,-147 1164,-147 407,0 802,53 1179,151 -71,223 -568,394 -1171,394 -606,0 -1105,-173 -1172,-398z"/>
    <path fill="#16508C" d="M81 1299c373,-97 762,-148 1164,-148 407,0 802,53 1179,152 -72,222 -568,393 -1171,393 -605,0 -1105,-173 -1172,-397z"/>
    <path fill="#124F8B" d="M82 1300c372,-96 762,-147 1163,-147 407,0 802,53 1179,152 -74,221 -570,391 -1171,391 -604,0 -1102,-172 -1171,-396z"/>
    <path fill="#124F8B" d="M82 1302c372,-96 762,-147 1163,-147 407,0 802,53 1178,151 -76,221 -571,390 -1170,390 -602,0 -1099,-171 -1171,-394z"/>
    <path fill="#124F8B" d="M83 1304c372,-96 761,-147 1162,-147 407,0 801,53 1177,151 -78,220 -572,388 -1169,388 -600,0 -1096,-170 -1170,-392z"/>
    <path fill="#144E8A" d="M83 1304c372,-96 761,-147 1162,-147 407,0 801,53 1177,151 -78,220 -572,388 -1169,388 -600,0 -1096,-170 -1170,-392z"/>
    <path fill="#144E8A" d="M84 1306c371,-96 760,-147 1161,-147 406,0 800,53 1177,151 -81,219 -574,386 -1169,386 -598,0 -1093,-169 -1169,-390z"/>
    <path fill="#164D89" d="M84 1308c372,-96 760,-147 1161,-147 406,0 800,53 1176,151 -83,218 -574,384 -1168,384 -597,0 -1090,-168 -1169,-388z"/>
    <path fill="#134C87" d="M85 1310c371,-95 760,-147 1160,-147 406,0 800,53 1175,151 -85,217 -575,382 -1167,382 -595,0 -1087,-167 -1168,-386z"/>
    <path fill="#134C87" d="M85 1310c371,-95 760,-147 1160,-147 406,0 800,53 1175,151 -85,217 -575,382 -1167,382 -595,0 -1087,-167 -1168,-386z"/>
    <path fill="#144B86" d="M86 1312c371,-95 759,-146 1159,-146 405,0 799,52 1174,150 -87,216 -576,380 -1166,380 -593,0 -1084,-166 -1167,-384z"/>
    <path fill="#144B86" d="M87 1314c370,-95 758,-146 1158,-146 405,0 798,52 1174,150 -90,215 -578,378 -1166,378 -591,0 -1081,-165 -1166,-382z"/>
    <path fill="#104A86" d="M87 1314c370,-95 758,-146 1158,-146 405,0 798,52 1174,150 -90,215 -578,378 -1166,378 -591,0 -1081,-165 -1166,-382z"/>
    <path fill="#114A86" d="M87 1316c371,-95 759,-146 1158,-146 405,0 798,52 1173,150 -92,214 -578,376 -1165,376 -589,0 -1078,-164 -1166,-380z"/>
    <path fill="#114985" d="M88 1318c370,-95 758,-146 1157,-146 405,0 797,52 1172,150 -94,213 -579,374 -1164,374 -588,0 -1075,-163 -1165,-378z"/>
    <path fill="#134884" d="M89 1320c370,-95 757,-146 1156,-146 404,0 797,52 1171,150 -96,212 -580,372 -1163,372 -586,0 -1072,-162 -1164,-376z"/>
    <path fill="#134884" d="M89 1320c370,-95 757,-146 1156,-146 404,0 797,52 1171,150 -96,212 -580,372 -1163,372 -586,0 -1072,-162 -1164,-376z"/>
    <path fill="#144882" d="M90 1322c369,-95 756,-146 1155,-146 404,0 796,52 1170,150 -98,211 -581,370 -1162,370 -584,0 -1069,-161 -1163,-374z"/>
    <path fill="#124782" d="M91 1324c369,-95 756,-146 1154,-146 404,0 796,52 1169,150 -100,210 -581,368 -1161,368 -582,0 -1067,-160 -1162,-372z"/>
    <path fill="#124782" d="M91 1324c369,-95 756,-146 1154,-146 404,0 795,52 1169,150 -100,210 -582,368 -1161,368 -582,0 -1066,-160 -1162,-372z"/>
    <path fill="#144681" d="M92 1326c369,-95 755,-146 1153,-146 403,0 795,52 1168,150 -102,209 -582,366 -1160,366 -580,0 -1063,-159 -1161,-370z"/>
    <path fill="#144681" d="M93 1328c368,-95 754,-146 1152,-146 403,0 794,52 1167,150 -104,207 -583,364 -1159,364 -579,0 -1060,-158 -1160,-368z"/>
    <path fill="#104581" d="M93 1330c369,-95 755,-146 1152,-146 403,0 794,52 1166,150 -105,206 -584,362 -1158,362 -577,0 -1058,-158 -1160,-366z"/>
    <path fill="#10457F" d="M94 1330c368,-95 754,-146 1151,-146 403,0 793,52 1166,150 -106,206 -584,362 -1158,362 -577,0 -1057,-157 -1159,-366z"/>
    <path fill="#13447E" d="M94 1332c369,-95 754,-146 1151,-146 402,0 793,52 1165,150 -108,205 -585,360 -1157,360 -575,0 -1055,-157 -1159,-364z"/>
    <path fill="#13447E" d="M95 1334c368,-95 753,-145 1150,-145 402,0 792,51 1164,148 -109,205 -585,359 -1156,359 -573,0 -1052,-156 -1158,-362z"/>
    <path fill="#13437E" d="M98 1339c367,-94 751,-144 1147,-144 401,0 790,51 1161,148 -115,202 -588,353 -1153,353 -568,0 -1043,-153 -1155,-357z"/>
    <path fill="#13437E" d="M103 1347c365,-94 748,-144 1142,-144 399,0 787,51 1157,148 -123,198 -591,345 -1149,345 -561,0 -1031,-149 -1150,-349z"/>
    <path fill="#13437E" d="M107 1354c364,-93 746,-143 1138,-143 398,0 784,51 1152,147 -130,195 -593,338 -1144,338 -554,0 -1019,-145 -1146,-342z"/>
    <path fill="#14437C" d="M111 1360c363,-93 743,-142 1134,-142 396,0 781,50 1148,146 -135,191 -594,332 -1140,332 -549,0 -1011,-143 -1142,-336z"/>
    <path fill="#14437C" d="M116 1367c362,-92 740,-141 1129,-141 394,0 777,50 1143,145 -141,188 -596,325 -1135,325 -542,0 -999,-139 -1137,-329z"/>
    <path fill="#14427B" d="M122 1374c359,-91 736,-140 1123,-140 392,0 773,50 1137,144 -147,184 -597,318 -1129,318 -535,0 -987,-135 -1131,-322z"/>
    <path fill="#14427B" d="M126 1380c358,-91 733,-139 1119,-139 391,0 770,49 1133,142 -152,182 -598,313 -1125,313 -530,0 -978,-133 -1127,-316z"/>
    <path fill="#14427B" d="M132 1387c356,-90 729,-138 1113,-138 389,0 766,49 1127,141 -157,178 -599,306 -1119,306 -523,0 -967,-129 -1121,-309z"/>
    <path fill="#14427A" d="M138 1394c355,-89 725,-137 1107,-137 386,0 762,49 1121,140 -163,175 -600,299 -1113,299 -516,0 -955,-126 -1115,-302z"/>
    <path fill="#14427A" d="M143 1399c353,-88 722,-135 1102,-135 385,0 758,48 1116,139 -167,171 -600,293 -1108,293 -511,0 -946,-124 -1110,-297z"/>
    <path fill="#144179" d="M150 1406c351,-87 717,-134 1095,-134 382,0 754,48 1109,138 -171,167 -600,286 -1101,286 -504,0 -935,-120 -1103,-290z"/>
    <path fill="#144179" d="M157 1413c349,-86 713,-133 1088,-133 380,0 749,48 1102,136 -176,165 -599,280 -1094,280 -497,0 -923,-117 -1096,-283z"/>
    <path fill="#144179" d="M162 1418c347,-86 710,-131 1083,-131 378,0 745,47 1096,135 -179,161 -599,274 -1088,274 -492,0 -914,-115 -1091,-278z"/>
    <path fill="#154078" d="M169 1425c345,-85 706,-130 1076,-130 375,0 740,46 1088,133 -183,158 -597,268 -1080,268 -485,0 -903,-111 -1084,-271z"/>
    <path fill="#154078" d="M177 1431c343,-83 700,-128 1068,-128 372,0 734,46 1081,132 -187,154 -597,261 -1073,261 -479,0 -891,-108 -1076,-265z"/>
    <path fill="#154078" d="M183 1437c341,-83 696,-127 1062,-127 370,0 730,45 1074,130 -189,151 -595,256 -1066,256 -473,0 -882,-106 -1070,-259z"/>
    <path fill="#154077" d="M191 1443c339,-82 691,-125 1054,-125 367,0 724,45 1066,128 -193,148 -594,250 -1058,250 -467,0 -870,-103 -1062,-253z"/>
    <path fill="#154077" d="M200 1449c335,-80 685,-123 1045,-123 364,0 718,44 1058,127 -196,144 -593,243 -1050,243 -460,0 -859,-100 -1053,-247z"/>
    <path fill="#153F75" d="M206 1454c334,-79 682,-121 1039,-121 362,0 714,43 1051,125 -198,142 -591,238 -1043,238 -455,0 -850,-98 -1047,-242z"/>
    <path fill="#153F75" d="M215 1461c331,-79 676,-120 1030,-120 359,0 707,43 1042,123 -201,138 -589,232 -1034,232 -448,0 -838,-95 -1038,-235z"/>
    <path fill="#153F75" d="M224 1467c328,-77 670,-118 1021,-118 355,0 701,42 1033,121 -204,135 -586,226 -1025,226 -441,0 -826,-92 -1029,-229z"/>
    <path fill="#153F74" d="M232 1472c325,-76 665,-116 1013,-116 353,0 696,41 1025,119 -205,132 -583,221 -1017,221 -436,0 -817,-90 -1021,-224z"/>
    <path fill="#153F74" d="M242 1478c322,-74 658,-114 1003,-114 349,0 689,40 1016,117 -208,129 -581,215 -1008,215 -429,0 -805,-87 -1011,-218z"/>
    <path fill="#163E73" d="M252 1484c319,-73 652,-112 993,-112 346,0 682,40 1005,115 -209,126 -577,209 -997,209 -422,0 -793,-84 -1001,-212z"/>
    <path fill="#163E73" d="M260 1489c317,-72 646,-110 985,-110 343,0 677,39 997,113 -210,123 -574,204 -989,204 -417,0 -784,-82 -993,-207z"/>
    <path fill="#163E73" d="M270 1495c314,-70 640,-108 975,-108 339,0 669,38 987,111 -212,120 -571,198 -979,198 -410,0 -771,-80 -983,-201z"/>
    <path fill="#163E72" d="M281 1502c311,-70 633,-107 964,-107 335,0 662,38 976,109 -214,116 -567,192 -968,192 -403,0 -759,-77 -972,-194z"/>
    <path fill="#143E72" d="M289 1506c308,-68 628,-104 956,-104 332,0 656,37 967,107 -214,113 -564,187 -959,187 -398,0 -750,-75 -964,-190z"/>
    <path fill="#143E71" d="M301 1512c304,-67 620,-102 944,-102 328,0 648,36 956,105 -215,110 -560,181 -948,181 -391,0 -737,-72 -952,-184z"/>
    <path fill="#143E71" d="M312 1518c301,-65 613,-100 933,-100 324,0 640,36 944,103 -216,106 -555,175 -936,175 -384,0 -725,-70 -941,-178z"/>
    <path fill="#143E71" d="M321 1523c298,-65 607,-99 924,-99 321,0 633,35 935,101 -216,104 -551,171 -927,171 -378,0 -716,-68 -932,-173z"/>
    <path fill="#143D70" d="M334 1528c294,-62 599,-95 911,-95 317,0 625,34 923,98 -217,101 -546,165 -915,165 -371,0 -703,-65 -919,-168z"/>
    <path fill="#143D70" d="M346 1534c290,-61 591,-93 899,-93 312,0 616,33 910,96 -216,97 -540,159 -902,159 -364,0 -691,-63 -907,-162z"/>
    <path fill="#143D6F" d="M356 1539c287,-60 584,-92 889,-92 309,0 610,33 901,94 -217,95 -536,155 -893,155 -359,0 -681,-61 -897,-157z"/>
    <path fill="#143D6F" d="M369 1544c283,-58 576,-88 876,-88 304,0 601,31 887,91 -216,91 -529,149 -879,149 -352,0 -668,-59 -884,-152z"/>
    <path fill="#143D6F" d="M383 1550c279,-56 567,-86 862,-86 299,0 591,31 874,88 -216,89 -524,144 -866,144 -344,0 -654,-56 -870,-146z"/>
    <path fill="#153C6E" d="M393 1555c276,-55 561,-85 852,-85 295,0 584,30 863,87 -215,86 -518,139 -855,139 -339,0 -644,-54 -860,-141z"/>
    <path fill="#153C6E" d="M408 1560c271,-53 551,-81 837,-81 290,0 574,29 848,83 -214,83 -511,134 -840,134 -331,0 -631,-52 -845,-136z"/>
    <path fill="#153C6E" d="M422 1566c267,-52 542,-79 823,-79 285,0 564,28 834,81 -213,79 -504,128 -826,128 -324,0 -617,-50 -831,-130z"/>
    <path fill="#153C6D" d="M434 1570c263,-50 534,-77 811,-77 281,0 556,28 822,79 -212,77 -498,124 -814,124 -318,0 -607,-48 -819,-126z"/>
    <path fill="#153C6D" d="M449 1576c258,-49 524,-74 796,-74 276,0 545,26 807,76 -210,73 -491,118 -799,118 -310,0 -593,-46 -804,-120z"/>
    <path fill="#163B6B" d="M461 1580c254,-47 516,-72 784,-72 271,0 537,26 795,74 -209,71 -485,114 -787,114 -305,0 -583,-44 -792,-116z"/>
    <path fill="#163B6B" d="M477 1585c249,-45 506,-69 768,-69 266,0 526,25 779,71 -207,68 -476,109 -771,109 -297,0 -569,-42 -776,-111z"/>
    <path fill="#163B6B" d="M494 1591c244,-44 495,-66 751,-66 260,0 515,23 762,68 -204,64 -467,103 -754,103 -289,0 -554,-40 -759,-105z"/>
    <path fill="#163A6A" d="M507 1595c240,-42 486,-64 738,-64 255,0 505,23 749,66 -203,62 -460,99 -741,99 -283,0 -543,-38 -746,-101z"/>
    <path fill="#163A6A" d="M525 1600c234,-40 475,-61 720,-61 249,0 493,22 731,63 -200,59 -451,94 -723,94 -275,0 -528,-36 -728,-96z"/>
    <path fill="#163A69" d="M543 1606c229,-38 463,-58 702,-58 243,0 481,20 712,59 -196,56 -440,89 -704,89 -266,0 -512,-34 -710,-90z"/>
    <path fill="#163A69" d="M557 1610c224,-37 454,-56 688,-56 238,0 471,20 698,57 -194,54 -432,85 -690,85 -260,0 -500,-32 -696,-86z"/>
    <path fill="#163A69" d="M577 1615c217,-35 441,-53 668,-53 231,0 458,19 679,55 -191,50 -422,79 -671,79 -251,0 -485,-30 -676,-81z"/>
    <path fill="#173967" d="M597 1620c211,-32 428,-49 648,-49 224,0 444,17 659,51 -187,47 -410,74 -651,74 -243,0 -469,-28 -656,-76z"/>
    <path fill="#173967" d="M613 1624c206,-31 417,-47 632,-47 218,0 433,17 643,49 -183,44 -401,70 -635,70 -236,0 -456,-26 -640,-72z"/>
    <path fill="#173966" d="M635 1629c199,-28 403,-44 610,-44 211,0 418,16 621,46 -179,41 -388,65 -613,65 -226,0 -438,-24 -618,-67z"/>
    <path fill="#173966" d="M658 1635c192,-27 388,-41 587,-41 203,0 402,14 598,42 -174,38 -375,60 -590,60 -217,0 -421,-22 -595,-61z"/>
    <path fill="#173966" d="M675 1638c187,-25 377,-38 570,-38 197,0 390,14 580,40 -170,36 -364,56 -572,56 -210,0 -407,-21 -578,-58z"/>
    <path fill="#173865" d="M699 1643c179,-23 361,-35 546,-35 188,0 374,13 556,37 -164,33 -350,51 -548,51 -200,0 -389,-19 -554,-53z"/>
    <path fill="#173865" d="M726 1649c170,-21 343,-32 519,-32 179,0 356,11 530,33 -158,29 -335,46 -522,46 -189,0 -368,-17 -527,-47z"/>
    <path fill="#183764" d="M747 1653c163,-20 329,-30 498,-30 172,0 342,11 508,31 -151,27 -321,42 -500,42 -181,0 -353,-16 -506,-43z"/>
    <path fill="#183764" d="M776 1658c154,-18 310,-27 469,-27 162,0 322,10 479,28 -144,24 -303,37 -471,37 -170,0 -331,-14 -477,-38z"/>
    <path fill="#183764" d="M806 1663c144,-16 291,-23 439,-23 152,0 301,8 449,24 -136,20 -285,32 -441,32 -158,0 -309,-12 -447,-33z"/>
    <path fill="#183762" d="M831 1666c136,-13 274,-20 414,-20 143,0 285,7 424,21 -129,19 -269,29 -416,29 -148,0 -291,-11 -422,-30z"/>
    <path fill="#183762" d="M868 1671c124,-11 250,-17 377,-17 131,0 260,7 387,18 -119,16 -246,24 -379,24 -135,0 -264,-9 -385,-25z"/>
    <path fill="#183661" d="M907 1676c111,-9 224,-13 338,-13 117,0 233,5 347,14 -107,12 -221,19 -339,19 -120,0 -237,-7 -346,-20z"/>
    <path fill="#183661" d="M941 1680c100,-7 202,-11 304,-11 106,0 211,4 314,12 -97,10 -200,15 -306,15 -108,0 -213,-6 -312,-16z"/>
    <path fill="#183661" d="M993 1685c84,-5 168,-8 252,-8 88,0 175,3 261,9 -81,6 -166,10 -253,10 -89,0 -176,-4 -260,-11z"/>
    <path fill="#183660" d="M1059 1690c62,-3 124,-4 186,-4 66,0 131,1 196,4 -61,4 -124,6 -188,6 -66,0 -130,-2 -194,-6z"/>
    <path fill="#183660" d="M1129 1693c39,-1 77,-1 116,-1 42,0 83,1 124,2 -38,1 -76,2 -116,2 -42,0 -83,-1 -124,-3z"/>
    <g clip-path="url(#id1)">
     <image transform="matrix(8.38044E-05 -9.70793 61.7391 -0.000532962 161.172 1297.12)" x="0" y="0" width="35.28" height="35.28" xlink:href="vehicle_ford_Images\vehicle_ford_ImgID2.png"/>
    </g>
    <g clip-path="url(#id2)">
     <image transform="matrix(2.04416E-05 -2.36796 61.7391 -0.000532962 161.172 954.634)" x="0" y="0" width="35.28" height="35.28" xlink:href="vehicle_ford_Images\vehicle_ford_ImgID3.png"/>
    </g>
    <path fill="#1F2540" d="M167 1264c0,-207 489,-374 1091,-374 555,0 1012,142 1081,326 -46,-192 -515,-345 -1086,-345 -603,0 -1092,169 -1092,376 0,17 4,33 11,50 -2,-10 -5,-23 -5,-33z"/>
    <g clip-path="url(#id3)">
     <image transform="matrix(0.000116508 -13.4963 63.811 -0.000550846 140.281 1675.11)" x="0" y="0" width="35.28" height="35.28" xlink:href="vehicle_ford_Images\vehicle_ford_ImgID4.png"/>
    </g>
    <path fill="#1F2540" d="M2377 1199c4,17 6,31 6,48 0,228 -505,411 -1130,411 -555,0 -1019,-146 -1113,-338 73,201 547,355 1122,355 624,0 1130,-184 1130,-407 0,-23 -7,-46 -15,-69z"/>
    <path fill="#5B5B5B" d="M1253 777c-666,0 -1198,209 -1198,470 0,259 536,470 1198,470 660,0 1197,-211 1197,-470 0,-259 -537,-470 -1197,-470zm-1190 474c0,-54 23,-108 71,-161 171,-179 622,-302 1117,-305 656,-2 1191,203 1193,458 0,54 -25,108 -73,159 -174,181 -621,304 -1116,307 -655,2 -1190,-203 -1192,-458zm2381 -40c0,3 0,5 0,7 0,-2 0,-4 0,-7z"/>
    <g clip-path="url(#id4)">
     <image transform="matrix(-1.43536 -5.35675 40.3894 -10.8219 152.135 1630.7)" x="0" y="0" width="35.28" height="35.28" xlink:href="vehicle_ford_Images\vehicle_ford_ImgID5.png"/>
    </g>
    <g clip-path="url(#id5)">
     <image transform="matrix(-2.942 -10.9779 40.3886 -10.8237 101.432 1441.41)" x="0" y="0" width="35.28" height="35.28" xlink:href="vehicle_ford_Images\vehicle_ford_ImgID6.png"/>
    </g>
    <path fill="#BCBDBD" d="M132 1088c173,-181 622,-305 1119,-307 69,0 136,2 201,7 -65,-5 -132,-7 -199,-7 -662,0 -1194,207 -1194,466 0,13 0,25 4,35 -2,-10 -4,-20 -4,-31 0,-54 25,-111 73,-163z"/>
    <path fill="#BCBDBD" d="M968 794l-8 3c-273,28 -515,93 -679,182l-13 4c163,-93 411,-161 700,-189z"/>
    <path fill="#BCBDBD" d="M2373 1406c-172,179 -623,303 -1118,305 -71,2 -139,0 -206,-5 67,5 135,7 204,7 658,0 1195,-211 1195,-466 0,-10 -2,-19 -2,-29 0,8 0,16 0,25 0,54 -25,110 -73,163z"/>
    <g clip-path="url(#id6)">
     <image transform="matrix(-2.12548 -7.93311 40.5107 -10.8537 999.971 1530.77)" x="0" y="0" width="35.28" height="35.28" xlink:href="vehicle_ford_Images\vehicle_ford_ImgID7.png"/>
    </g>
    <path fill="#BCBDBD" d="M1937 1624l11 1c302,-85 500,-223 500,-378 0,-10 -2,-19 -2,-29 0,8 0,16 0,25 0,54 -25,110 -73,163 -86,89 -241,165 -436,218z"/>
    <g clip-path="url(#id7)">
     <image x="921" y="836" width="662" height="823" xlink:href="vehicle_ford_Images\vehicle_ford_ImgID8.png"/>
    </g>
    <g clip-path="url(#id8)">
     <image x="1200" y="836" width="104" height="823" xlink:href="vehicle_ford_Images\vehicle_ford_ImgID9.png"/>
    </g>
    <g clip-path="url(#id9)">
     <image x="1156" y="836" width="192" height="823" xlink:href="vehicle_ford_Images\vehicle_ford_ImgID10.png"/>
    </g>
    <path fill="#FEFEFE" d="M1253 1658c-624,0 -1131,-183 -1131,-411 0,-228 507,-411 1131,-411 625,0 1130,183 1130,411 0,228 -505,411 -1130,411zm0 -787c-603,0 -1092,169 -1092,376 0,207 489,376 1092,376 602,0 1090,-169 1090,-376 0,-207 -488,-376 -1090,-376z"/>
    <g clip-path="url(#id10)">
     <image transform="matrix(2.19746E-05 -2.54554 1.06572 -9.19978E-06 1445.5 1374.37)" x="0" y="0" width="35.28" height="35.28" xlink:href="vehicle_ford_Images\vehicle_ford_ImgID11.png"/>
    </g>
    <path fill="#1F2540" d="M1473 1287c-27,27 -27,62 -11,79 6,6 13,8 21,8 -12,-14 -17,-41 -2,-64 -4,-7 -4,-15 -2,-21 0,-2 -4,-4 -6,-2z"/>
    <g clip-path="url(#id11)">
     <image transform="matrix(4.60092E-06 -0.532972 0.177814 -1.53497E-06 1746.22 1363.93)" x="0" y="0" width="35.28" height="35.28" xlink:href="vehicle_ford_Images\vehicle_ford_ImgID12.png"/>
    </g>
    <path fill="#1F2540" d="M1746 1347c0,-2 0,-2 0,-2l0 0c0,4 0,13 2,19 2,-4 2,-6 4,-8 0,-3 0,-5 0,-5 -4,0 -6,-2 -6,-4z"/>
    <g clip-path="url(#id12)">
     <image transform="matrix(8.17786E-06 -0.947326 0.710556 -6.13386E-06 1777.55 1288.75)" x="0" y="0" width="35.28" height="35.28" xlink:href="vehicle_ford_Images\vehicle_ford_ImgID13.png"/>
    </g>
    <path fill="#1F2540" d="M1794 1282c0,7 2,7 7,3 0,-3 0,-3 2,-5l-2 -2c-5,-6 -13,-14 -23,-23 8,9 14,19 16,27z"/>
    <g clip-path="url(#id13)">
     <image transform="matrix(1.12438E-05 -1.30248 0.532975 -4.6009E-06 1412.08 1284.57)" x="0" y="0" width="35.28" height="35.28" xlink:href="vehicle_ford_Images\vehicle_ford_ImgID14.png"/>
    </g>
    <path fill="#1F2540" d="M1427 1280c2,-2 2,-4 4,-4 -6,-16 -13,-33 -19,-37 6,8 11,23 11,39 0,7 2,4 4,2z"/>
    <polygon fill="#1F2540" points="1988,1109 1988,1109 1988,1109 "/>
    <g clip-path="url(#id14)">
     <image transform="matrix(4.39472E-05 -5.09086 3.96621 -3.42381E-05 1616.74 1453.73)" x="0" y="0" width="35.28" height="35.28" xlink:href="vehicle_ford_Images\vehicle_ford_ImgID15.png"/>
    </g>
    <path fill="#1F2540" d="M1631 1450c2,2 7,4 9,4 0,-4 -2,-9 -2,-13 0,-31 10,-62 35,-92 29,-37 61,-54 84,-46 -2,-8 -7,-14 -15,-18 -23,-11 -56,8 -86,46 -25,29 -37,60 -39,91 0,11 4,23 14,28z"/>
    <g clip-path="url(#id15)">
     <image transform="matrix(4.54801E-05 -5.26844 3.84782 -3.32162E-05 1036.18 1445.37)" x="0" y="0" width="35.28" height="35.28" xlink:href="vehicle_ford_Images\vehicle_ford_ImgID16.png"/>
    </g>
    <path fill="#1F2540" d="M1168 1291c4,-2 4,-4 2,-9 0,-6 -4,-20 -6,-22l0 0c2,2 0,4 -5,6 -33,12 -66,33 -89,65 -25,35 -34,77 -15,102 4,4 8,8 15,12 -11,-29 -5,-69 18,-100 23,-29 51,-42 80,-54z"/>
    <g clip-path="url(#id16)">
     <image transform="matrix(4.24142E-05 -4.91328 8.46492 -7.30732E-05 1247.1 1531)" x="0" y="0" width="35.28" height="35.28" xlink:href="vehicle_ford_Images\vehicle_ford_ImgID17.png"/>
    </g>
    <path fill="#1F2540" d="M1542 1399c-9,5 -19,11 -32,17 -16,4 -25,8 -39,6 -19,0 -36,-6 -46,-25 -7,-10 -11,-25 -11,-37 0,0 -2,-2 -4,0 -31,48 -61,94 -90,142 -2,2 -4,4 -6,4 -19,0 -42,0 -63,0 -2,0 -2,0 -4,-2 2,8 4,21 6,23 0,2 2,4 5,4 23,0 50,0 68,0 3,0 5,-2 7,-4 29,-44 58,-92 87,-136 7,23 9,33 21,44 13,10 23,12 40,12 15,0 29,-6 46,-12 6,-2 12,-6 17,-8 0,-9 0,-17 2,-25 0,0 0,-7 -4,-3z"/>
    <g clip-path="url(#id17)">
     <image transform="matrix(4.19032E-05 -4.85408 11.6022 -0.000100155 1545.74 1553.97)" x="0" y="0" width="35.28" height="35.28" xlink:href="vehicle_ford_Images\vehicle_ford_ImgID18.png"/>
    </g>
    <path fill="#1F2540" d="M1949 1383l0 2c-32,35 -63,71 -94,94 -50,39 -98,48 -123,25 -9,-11 -15,-23 -15,-34 0,-6 -4,-6 -6,-4 -30,29 -80,61 -126,38 -23,-11 -35,-34 -39,-57l0 0c2,17 6,42 14,57 7,10 17,23 25,25 40,21 99,-2 136,-38 0,0 0,0 0,-2 2,6 4,15 4,17 2,8 7,15 11,19 25,29 79,16 136,-27 31,-25 54,-51 83,-82 0,-2 0,-4 0,-8 -2,-6 -4,-19 -6,-25z"/>
    <g clip-path="url(#id18)">
     <image transform="matrix(2.55515E-05 -2.9599 2.48637 -2.14635E-05 1481 1359.75)" x="0" y="0" width="35.28" height="35.28" xlink:href="vehicle_ford_Images\vehicle_ford_ImgID19.png"/>
    </g>
    <path fill="#1F2540" d="M1539 1349c17,-8 30,-25 28,-54 0,-13 -5,-27 -11,-40 4,9 6,19 4,30 -2,18 -12,33 -29,41 -14,9 -31,7 -42,-4 -4,-4 -6,-6 -8,-10 2,12 4,23 8,29 11,15 30,19 50,8z"/>
    <g clip-path="url(#id19)">
     <image transform="matrix(8.68704E-05 -10.0631 6.15637 -5.31447E-05 1779.63 1464.17)" x="0" y="0" width="35.28" height="35.28" xlink:href="vehicle_ford_Images\vehicle_ford_ImgID20.png"/>
    </g>
    <path fill="#1F2540" d="M1995 1143c0,-3 -7,-32 -7,-34 0,2 0,2 0,4 -10,15 -192,295 -204,324 -4,8 -4,17 0,21 4,4 8,6 14,6 3,-2 3,-6 5,-10 12,-30 183,-291 192,-307 2,-2 2,-2 0,-4z"/>
    <g clip-path="url(#id20)">
     <image transform="matrix(1.68647E-05 -1.95361 0.888137 -7.66682E-06 1226.22 1311.72)" x="0" y="0" width="35.28" height="35.28" xlink:href="vehicle_ford_Images\vehicle_ford_ImgID21.png"/>
    </g>
    <path fill="#1F2540" d="M1226 1243c2,0 2,0 2,2 11,15 17,37 19,63 0,4 2,4 4,2 2,-2 4,-5 7,-7 -3,-12 -9,-25 -13,-35 -2,-4 -10,-19 -19,-25z"/>
    <g clip-path="url(#id21)">
     <image transform="matrix(6.33648E-05 -7.34019 13.0228 -0.000112419 908.787 1537.26)" x="0" y="0" width="35.28" height="35.28" xlink:href="vehicle_ford_Images\vehicle_ford_ImgID22.png"/>
    </g>
    <path fill="#1F2540" d="M1329 1322c12,-10 27,-17 35,-14 4,-13 2,-21 -2,-26 -10,-4 -27,5 -42,15 -39,29 -73,77 -90,98 -8,13 -18,29 -43,59 -42,44 -97,69 -149,52 -27,-11 -48,-33 -56,-61 -2,-6 -4,-6 -6,-4 -11,11 -28,27 -42,36 0,2 -4,4 -8,2 -3,0 -13,-17 -15,-21 -2,0 -2,0 -2,0l0 0c4,19 4,21 10,29 7,8 11,15 13,17 2,0 6,0 8,-2 11,-4 34,-21 42,-34 2,-2 6,-2 6,2 4,13 11,21 17,32 6,12 21,23 40,29 23,6 48,6 81,-6 27,-11 56,-32 77,-55 25,-27 36,-46 46,-58 17,-21 42,-59 80,-90z"/>
    <g clip-path="url(#id22)">
     <image transform="matrix(3.62823E-05 -4.20295 2.60474 -2.24854E-05 587.186 1395.25)" x="0" y="0" width="35.28" height="35.28" xlink:href="vehicle_ford_Images\vehicle_ford_ImgID23.png"/>
    </g>
    <path fill="#1F2540" d="M608 1395c-4,-21 0,-42 8,-58 15,-27 32,-40 51,-50 8,-7 12,-11 6,-23 0,-4 -2,-11 -2,-17 0,6 -2,10 -9,13 -23,12 -48,31 -62,58 -11,21 -13,48 4,71 2,2 2,4 4,6z"/>
    <g clip-path="url(#id23)">
     <image transform="matrix(2.27411E-05 -2.63434 10.8327 -9.35126E-05 737.554 1117.51)" x="0" y="0" width="35.28" height="35.28" xlink:href="vehicle_ford_Images\vehicle_ford_ImgID24.png"/>
    </g>
    <g clip-path="url(#id24)">
     <image transform="matrix(1.60982E-05 -1.86482 10.8327 -9.35126E-05 737.554 1024.58)" x="0" y="0" width="35.28" height="35.28" xlink:href="vehicle_ford_Images\vehicle_ford_ImgID25.png"/>
    </g>
    <path fill="#1F2540" d="M765 1118c-7,-32 19,-84 79,-103 82,-27 171,-10 244,4 11,-6 19,-10 28,-14 4,-2 0,-7 -3,-7 -91,-16 -190,-39 -281,-4 -65,23 -94,73 -80,109 2,6 6,10 13,15z"/>
    <g clip-path="url(#id25)">
     <image transform="matrix(8.43154E-05 -9.76712 18.1135 -0.000156364 526.634 1528.91)" x="0" y="0" width="35.28" height="35.28" xlink:href="vehicle_ford_Images\vehicle_ford_ImgID26.png"/>
    </g>
    <path fill="#1F2540" d="M1011 1218c31,-4 59,-7 86,-9 8,-2 14,-2 16,0 11,11 21,19 30,25 4,0 8,0 12,3 2,0 6,-3 9,-3 2,-4 2,-8 2,-12 0,-6 -2,-19 -5,-23 0,2 0,6 -2,10 -4,2 -6,5 -10,5 -4,0 -6,-3 -10,-5 -9,-4 -21,-12 -28,-23 -4,-2 -4,-2 -10,-2 -29,2 -75,7 -107,11 -6,0 -8,2 -10,4 -48,81 -100,169 -159,228 -60,62 -112,77 -167,79 -62,0 -119,-36 -131,-98 6,35 29,77 54,96 27,17 54,23 83,25 63,0 120,-25 180,-86 56,-58 107,-140 155,-221 2,-2 4,-4 12,-4z"/>
    <g clip-path="url(#id26)">
     <image transform="matrix(1.37987E-05 -1.59845 2.90071 -2.50404E-05 810.64 1263.69)" x="0" y="0" width="35.28" height="35.28" xlink:href="vehicle_ford_Images\vehicle_ford_ImgID27.png"/>
    </g>
    <path fill="#1F2540" d="M911 1207c-29,0 -52,9 -77,27 -7,5 -17,5 -21,-4 0,-2 -2,-4 -2,-6 0,10 4,25 8,31 4,7 15,9 23,2 19,-14 35,-20 54,-25 4,-6 11,-14 15,-23 2,0 2,-2 2,-2 -2,0 -2,0 -2,0z"/>
    <path fill="#1F2540" d="M1617 976c0,2 0,2 0,2l0 -2z"/>
    <g clip-path="url(#id27)">
     <image transform="matrix(3.39829E-05 -3.93659 17.4032 -0.000150232 1009.03 1163.45)" x="0" y="0" width="35.28" height="35.28" xlink:href="vehicle_ford_Images\vehicle_ford_ImgID28.png"/>
    </g>
    <g clip-path="url(#id28)">
     <image transform="matrix(1.04773E-05 -1.21369 17.4032 -0.000150232 1009.03 1024.58)" x="0" y="0" width="35.28" height="35.28" xlink:href="vehicle_ford_Images\vehicle_ford_ImgID29.png"/>
    </g>
    <path fill="#1F2540" d="M1011 1161c-2,0 0,2 2,2 9,0 17,-2 25,-2 30,-46 63,-73 111,-110 4,-2 8,-4 6,-15 100,21 176,59 303,59 40,0 94,-13 121,-30 34,-21 44,-35 44,-52 0,-4 0,-10 -2,-15 0,-6 0,-12 -2,-16 0,2 0,4 0,6 0,19 -15,36 -48,54 -40,21 -80,27 -123,27 -103,3 -199,-39 -297,-60 0,4 0,10 -2,12 -56,40 -104,82 -138,140z"/>
    <g clip-path="url(#id29)">
     <image transform="matrix(1.17548E-05 -1.36168 1.12491 -9.71077E-06 1123.89 1150.92)" x="0" y="0" width="35.28" height="35.28" xlink:href="vehicle_ford_Images\vehicle_ford_ImgID30.png"/>
    </g>
    <path fill="#1F2540" d="M1145 1132c4,-2 8,-4 12,-4 4,-6 7,-17 0,-21 -4,-4 -10,-2 -16,2 0,0 -2,2 -5,2 -8,11 -12,25 -10,36 0,4 2,4 4,4 2,0 4,-2 6,-2 0,-6 3,-11 9,-17z"/>
    <g clip-path="url(#id30)">
     <image transform="matrix(2.29966E-05 -2.66393 1.53927 -1.32877E-05 1138.52 1194.77)" x="0" y="0" width="35.28" height="35.28" xlink:href="vehicle_ford_Images\vehicle_ford_ImgID31.png"/>
    </g>
    <path fill="#1F2540" d="M1187 1166c4,-11 6,-17 4,-36 -2,-12 -4,-23 -7,-29 7,12 3,29 -4,44 -8,16 -25,27 -39,31 0,0 -2,0 -2,4 0,2 10,9 16,15 2,0 2,-2 2,-2 9,-2 21,-11 30,-27z"/>
    <g clip-path="url(#id31)">
     <image transform="matrix(3.78153E-05 -4.38053 6.62992 -5.72326E-05 683.254 1213.57)" x="0" y="0" width="35.28" height="35.28" xlink:href="vehicle_ford_Images\vehicle_ford_ImgID32.png"/>
    </g>
    <path fill="#1F2540" d="M729 1201c15,8 32,13 50,13 67,-3 117,-57 134,-103 4,-12 0,-25 -2,-35 0,-2 -2,-11 -4,-17l0 0c2,4 2,13 -2,21 -28,63 -80,115 -142,117 -38,0 -67,-19 -80,-48 9,21 30,42 46,52z"/>
    <g clip-path="url(#id32)">
     <image x="1286" y="1107" width="328" height="420" xlink:href="vehicle_ford_Images\vehicle_ford_ImgID33.png"/>
    </g>
    <g clip-path="url(#id33)">
     <image x="1424" y="1107" width="52.217" height="419.764" xlink:href="vehicle_ford_Images\vehicle_ford_ImgID34.png"/>
    </g>
    <g clip-path="url(#id34)">
     <image x="1402" y="1107" width="96.0722" height="419.764" xlink:href="vehicle_ford_Images\vehicle_ford_ImgID35.png"/>
    </g>
    <path fill="#FEFEFE" d="M1988 1113c3,-4 0,-6 -4,-6 -18,0 -44,0 -62,0 -5,0 -9,0 -11,6 -6,13 -94,147 -110,172 -5,4 -7,4 -7,-3 -2,-14 -16,-31 -37,-39 -15,-6 -32,-9 -46,-6 -30,4 -57,18 -78,37 -35,25 -64,59 -102,84 -21,14 -50,25 -69,8 -16,-17 -16,-52 11,-79 2,-2 6,0 6,2 -2,12 0,25 10,33 11,11 28,13 42,4 17,-8 27,-23 29,-41 5,-30 -16,-53 -43,-55 -23,-2 -44,7 -65,23 -11,9 -17,15 -25,27 -2,2 -4,5 -4,-2 0,-35 -15,-56 -44,-56 -23,0 -48,12 -67,27 -23,17 -40,40 -61,61 -2,2 -4,2 -4,-2 -2,-26 -8,-48 -19,-63 -4,-6 -12,-11 -18,-6 -3,2 -15,8 -23,14 -5,2 -5,9 -3,15 11,35 9,75 -6,108 -14,32 -39,61 -71,71 -19,7 -39,3 -52,-14 -19,-25 -10,-67 15,-102 23,-32 56,-53 89,-65 5,-2 7,-4 5,-6 -3,-7 -5,-15 -7,-17 -2,-9 -10,-11 -21,-9 -25,3 -46,11 -68,23 -57,30 -86,88 -99,122 -4,14 -10,23 -16,31 -9,12 -21,23 -42,40 -2,2 -2,6 0,8 2,4 12,21 15,21 4,2 8,0 8,-2 14,-9 31,-25 42,-36 2,-2 4,-2 6,4 8,28 29,50 56,61 52,17 107,-8 149,-52 25,-30 35,-46 43,-59 17,-21 51,-69 90,-98 15,-10 32,-19 42,-15 6,7 8,17 -2,36 -42,75 -100,161 -111,182 -2,4 0,6 2,6 21,0 44,0 63,0 2,0 4,-2 6,-4 29,-48 59,-94 90,-142 2,-2 4,0 4,0 0,12 4,27 11,37 10,19 27,25 46,25 14,2 23,-2 39,-6 13,-6 23,-12 32,-17 4,-4 4,3 4,3 -7,37 2,83 39,102 46,23 96,-9 126,-38 2,-2 6,-2 6,4 0,11 6,23 15,34 25,23 73,14 123,-25 31,-23 62,-59 94,-94 0,-2 2,-4 0,-6 -6,-5 -13,-11 -17,-15 -2,-2 -4,0 -6,0 -31,29 -59,63 -98,90 -13,10 -36,16 -44,4 -4,-4 -4,-13 0,-21 12,-29 194,-309 204,-324zm-242 234c0,2 2,4 6,4 0,0 0,2 0,5 -8,16 -14,25 -25,39 -8,15 -18,25 -31,34 -19,16 -44,33 -65,21 -10,-5 -14,-17 -14,-28 2,-31 14,-62 39,-91 30,-38 63,-57 86,-46 21,10 15,37 4,58 0,0 0,2 0,4z"/>
    <g clip-path="url(#id35)">
     <image x="842" y="930" width="455" height="576" xlink:href="vehicle_ford_Images\vehicle_ford_ImgID36.png"/>
    </g>
    <g clip-path="url(#id36)">
     <image x="1034" y="930" width="71.0123" height="576.389" xlink:href="vehicle_ford_Images\vehicle_ford_ImgID37.png"/>
    </g>
    <g clip-path="url(#id37)">
     <image x="1004" y="930" width="132" height="576" xlink:href="vehicle_ford_Images\vehicle_ford_ImgID38.png"/>
    </g>
    <path fill="#FEFEFE" d="M658 1506c-69,0 -127,-42 -136,-115 -4,-42 9,-77 32,-106 21,-28 54,-51 83,-55 11,-2 23,0 27,7 9,8 7,18 -2,23 -23,12 -48,31 -62,58 -11,21 -13,48 4,71 27,42 104,44 175,-23 17,-17 34,-31 50,-50 32,-36 42,-48 82,-107 2,0 2,-2 2,-2 -2,0 -2,0 -2,0 -29,0 -52,9 -77,27 -7,5 -17,5 -21,-4 -4,-6 0,-16 8,-21 38,-27 79,-31 121,-39 0,0 2,0 4,-2 19,-23 32,-42 51,-65 18,-23 41,-44 60,-61 25,-21 42,-29 59,-37 4,-2 0,-7 -3,-7 -91,-16 -190,-39 -281,-4 -65,23 -94,73 -80,109 9,23 42,27 71,12 25,-12 48,-31 63,-56 10,-15 29,-4 19,21 -28,63 -80,115 -142,117 -55,0 -88,-38 -88,-88 0,-96 106,-159 219,-169 136,-10 263,25 399,42 102,12 203,12 305,-11 12,-4 21,5 21,17 0,19 -15,36 -48,54 -40,21 -80,27 -123,27 -103,3 -199,-39 -297,-60 0,4 0,10 -2,12 -56,40 -104,82 -138,140 -2,0 0,2 2,2 27,-2 55,-2 82,-4 4,0 4,-2 4,-6 -2,-19 2,-42 21,-58 16,-15 39,-17 54,-7 17,15 17,38 6,57 -8,16 -25,27 -39,31 0,0 -2,0 -2,4 0,4 20,15 22,19 0,2 0,6 -2,10 -4,2 -6,5 -10,5 -4,0 -6,-3 -10,-5 -9,-4 -21,-12 -28,-23 -4,-2 -4,-2 -10,-2 -29,2 -75,7 -107,11 -6,0 -8,2 -10,4 -48,81 -100,169 -159,228 -60,62 -112,77 -167,79zm468 -359c0,4 2,4 4,4 9,-2 19,-11 25,-19 6,-8 9,-19 2,-25 -4,-4 -12,-2 -18,2 -11,11 -15,25 -13,38z"/>
   </g>
  </g>
 </g>
</svg>
