

<!-- Creator: CorelDRAW X6 -->
<svg xmlns="http://www.w3.org/2000/svg" x="0" y="0" xml:space="preserve" width="23mm" height="25mm" version="1.1" shape-rendering="geometricPrecision" text-rendering="geometricPrecision" image-rendering="optimizeQuality" fill-rule="evenodd" clip-rule="evenodd"
viewBox="0 0 2300 2500"
 xmlns:xlink="http://www.w3.org/1999/xlink"
 enable-background="new 0 0 912.7 290.1">
 <g id="Layer_x0020_1">
  <metadata id="CorelCorpID_0Corel-Layer"/>
  <g id="_370638384">
   <polygon fill="#E31E24" points="1145,1327 395,1327 24,1980 776,1980 "/>
   <polygon fill="#E31E24" points="1525,658 1151,0 775,658 1151,1318 "/>
   <polygon fill="#E31E24" points="1524,1980 2276,1980 1905,1327 1155,1327 "/>
   <polygon fill="#FEFEFE" points="1492,2491 1547,2491 1547,2191 1492,2191 "/>
   <polygon fill="#FEFEFE" points="2121,2491 2177,2491 2177,2191 2121,2191 "/>
   <polygon fill="#FEFEFE" points="437,2491 493,2491 493,2191 437,2191 "/>
   <polygon fill="#FEFEFE" points="708,2191 534,2191 534,2242 592,2242 592,2491 649,2491 649,2242 708,2242 "/>
   <polygon fill="#FEFEFE" points="2009,2304 1882,2304 1882,2191 1826,2191 1826,2491 1882,2491 1882,2356 2009,2356 2009,2491 2064,2491 2064,2191 2009,2191 "/>
   <polygon fill="#FEFEFE" points="255,2325 203,2191 139,2191 139,2491 194,2491 194,2304 255,2454 316,2303 316,2491 371,2491 371,2191 309,2191 "/>
   <path fill="#FEFEFE" d="M1183 2191l-56 0 0 214c0,23 -26,42 -49,42 -23,0 -49,-19 -49,-42l0 0 0 -214 -57 0 1 211c0,54 51,98 105,98 54,0 105,-44 105,-98l0 0 0 -211z"/>
   <path fill="#FEFEFE" d="M1399 2328c8,-5 38,-23 38,-60 0,-52 -42,-76 -70,-77l0 0 -130 0 0 300 115 0c46,0 94,-22 94,-80 0,-50 -24,-70 -47,-82l0 0zm-45 112l-62 0 0 -198 59 0c15,0 28,13 28,29 0,15 -6,34 -27,34l0 0 -25 0 0 51 27 0c15,0 38,15 37,46 -1,27 -22,39 -37,39l0 0z"/>
   <path fill="#FEFEFE" d="M730 2394c-1,3 0,7 0,12 0,52 42,91 94,91 52,0 94,-35 94,-87 0,-27 -10,-48 -29,-65 -15,-14 -58,-35 -75,-46 -15,-9 -23,-17 -23,-31 0,-21 14,-35 34,-35 21,0 37,16 37,37 0,5 1,10 1,14l0 0 50 0 0 -14c0,-48 -30,-87 -88,-87 -48,0 -88,33 -88,87 0,24 11,46 39,64 29,19 66,33 78,46 8,8 12,18 12,29 0,22 -18,39 -41,39 -22,0 -40,-20 -44,-39 -1,-5 -2,-13 -2,-16l0 0 -49 0z"/>
   <path fill="#FEFEFE" d="M1677 2299c-15,-9 -23,-17 -23,-31 0,-21 14,-35 34,-35 21,0 37,16 37,37 0,5 1,10 1,14l0 0 50 0 0 -14c0,-48 -30,-87 -88,-87 -48,0 -88,33 -88,87 0,24 11,46 39,64 29,19 66,33 78,46 8,8 12,18 12,29 0,22 -18,39 -41,39 -22,0 -40,-20 -44,-39 -1,-5 -2,-13 -2,-16l0 0 -49 0c-1,3 0,7 0,12 0,52 42,91 94,91 52,0 94,-35 94,-87 0,-27 -10,-48 -29,-65 -15,-14 -58,-35 -75,-46l0 0z"/>
  </g>
 </g>
 <g id="Layer_x0020_1_0">
  <metadata id="CorelCorpID_1Corel-Layer"/>
 </g>
 <g id="Layer_x0020_1_1">
  <metadata id="CorelCorpID_2Corel-Layer"/>
 </g>
 <g id="Layer_x0020_1_0_2">
  <metadata id="CorelCorpID_3Corel-Layer"/>
 </g>
 <g id="Layer_x0020_1_0_3">
  <metadata id="CorelCorpID_4Corel-Layer"/>
 </g>
 <g id="Layer_x0020_1_4">
  <metadata id="CorelCorpID_5Corel-Layer"/>
 </g>
 <g id="Layer_x0020_1_0_5">
  <metadata id="CorelCorpID_6Corel-Layer"/>
 </g>
 <g id="Layer_x0020_1_0_6">
  <metadata id="CorelCorpID_7Corel-Layer"/>
 </g>
 <g id="Layer_x0020_1_0_7">
  <metadata id="CorelCorpID_8Corel-Layer"/>
 </g>
 <g id="Layer_x0020_1_0_8">
  <metadata id="CorelCorpID_9Corel-Layer"/>
 </g>
 <g id="Layer_x0020_1_0_2_9">
  <metadata id="CorelCorpID_10Corel-Layer"/>
 </g>
 <g id="Layer_x0020_1_0_2_8">
  <metadata id="CorelCorpID_11Corel-Layer"/>
 </g>
 <g id="Layer_x0020_1_0_10">
  <metadata id="CorelCorpID_12Corel-Layer"/>
 </g>
 <g id="Layer_x0020_1_1_11">
  <metadata id="CorelCorpID_13Corel-Layer"/>
 </g>
 <g id="Layer_x0020_1_12">
  <metadata id="CorelCorpID_14Corel-Layer"/>
 </g>
</svg>
