

<!-- Creator: CorelDRAW X6 -->
<svg xmlns="http://www.w3.org/2000/svg" x="0" y="0" xml:space="preserve" width="15mm" height="25mm" version="1.1" shape-rendering="geometricPrecision" text-rendering="geometricPrecision" image-rendering="optimizeQuality" fill-rule="evenodd" clip-rule="evenodd"
viewBox="0 0 1500 2500"
 xmlns:xlink="http://www.w3.org/1999/xlink"
 enable-background="new 0 0 912.7 290.1">
 <g id="Layer_x0020_1">
  <metadata id="CorelCorpID_0Corel-Layer"/>
 </g>
 <g id="Layer_x0020_1_0">
  <metadata id="CorelCorpID_1Corel-Layer"/>
 </g>
 <g id="Layer_x0020_1_0_1">
  <metadata id="CorelCorpID_2Corel-Layer"/>
 </g>
 <g id="Layer_x0020_1_0_2">
  <metadata id="CorelCorpID_3Corel-Layer"/>
 </g>
 <g id="Layer_x0020_1_3">
  <metadata id="CorelCorpID_4Corel-Layer"/>
 </g>
 <g id="Layer_x0020_1_0_4">
  <metadata id="CorelCorpID_5Corel-Layer"/>
 </g>
 <g id="Layer_x0020_1_0_5">
  <metadata id="CorelCorpID_6Corel-Layer"/>
 </g>
 <g id="Layer_x0020_1_0_6">
  <metadata id="CorelCorpID_7Corel-Layer"/>
 </g>
 <g id="Layer_x0020_1_0_7">
  <metadata id="CorelCorpID_8Corel-Layer"/>
 </g>
 <g id="Layer_x0020_1_0_2_8">
  <metadata id="CorelCorpID_9Corel-Layer"/>
 </g>
 <g id="Layer_x0020_1_0_2_8_9">
  <metadata id="CorelCorpID_10Corel-Layer"/>
 </g>
 <g id="Layer_x0020_1_0_10">
  <metadata id="CorelCorpID_11Corel-Layer"/>
 </g>
 <g id="Layer_x0020_1_1">
  <metadata id="CorelCorpID_12Corel-Layer"/>
 </g>
 <g id="Layer_x0020_1_11">
  <metadata id="CorelCorpID_13Corel-Layer"/>
 </g>
 <g id="Layer_x0020_1_12">
  <metadata id="CorelCorpID_14Corel-Layer"/>
  <g id="_162418616">
   <path fill="#1c1b17" d="M1428 2453c-30,30 -69,47 -111,47l-1132 0c-42,0 -82,-17 -112,-47 -30,-30 -47,-70 -47,-112l0 -2182c0,-87 71,-159 159,-159l1131 0c87,0 157,72 157,159l0 2182c0,42 -16,82 -46,112l0 0zm-40 -40c-19,19 -44,30 -71,30l-1132 0c-27,0 -52,-11 -72,-30 -19,-19 -30,-45 -30,-72l0 -2182c0,-57 46,-102 102,-102l1131 0c57,0 101,46 101,102l0 2182c0,27 -9,52 -29,72l0 0 1 0z"/>
   <path fill="#F2F2F1" d="M1335 2383l7 -3c-2,2 -4,3 -7,3z"/>
   <path fill="#EFEFEF" d="M1306 2387l51 -29c-2,6 -5,12 -10,17l0 0c-3,3 -4,4 -7,6l-7 3c-5,3 -12,4 -17,4l-10 0 0 -1z"/>
   <path fill="#EFEFEF" d="M1285 2387l75 -43c0,5 -1,9 -3,13l-51 29 -22 0 0 1z"/>
   <path fill="#EBECEC" d="M1264 2387l97 -56 0 11c0,1 0,2 0,2l-75 43 -22 0z"/>
   <polygon fill="#EBEAEA" points="1242,2387 1360,2318 1360,2331 1264,2387 "/>
   <polygon fill="#E9E9E9" points="1221,2387 1360,2306 1360,2318 1242,2387 "/>
   <polygon fill="#E7E8E7" points="1199,2387 1360,2293 1360,2306 1221,2387 "/>
   <polygon fill="#E7E7E6" points="1178,2387 1360,2281 1360,2293 1199,2387 "/>
   <polygon fill="#E5E4E3" points="1157,2387 1360,2268 1360,2281 1178,2387 "/>
   <polygon fill="#E3E3E1" points="1135,2387 1360,2257 1360,2268 1157,2387 "/>
   <polygon fill="#E3E3E1" points="1113,2387 1360,2244 1360,2257 1135,2387 "/>
   <polygon fill="#E1E0DE" points="1092,2387 1360,2232 1360,2244 1113,2387 "/>
   <polygon fill="#DFDEDC" points="1071,2387 1360,2219 1360,2232 1092,2387 "/>
   <polygon fill="#DFDEDC" points="1049,2387 1360,2207 1360,2219 1071,2387 "/>
   <polygon fill="#DCDBD9" points="1027,2387 1360,2194 1360,2207 1049,2387 "/>
   <polygon fill="#DBD9D6" points="1006,2387 1360,2182 1360,2194 1027,2387 "/>
   <polygon fill="#D8D8D6" points="985,2387 1360,2169 1360,2182 1006,2387 "/>
   <polygon fill="#DBD9D6" points="963,2387 1360,2158 1360,2169 985,2387 "/>
   <polygon fill="#DBD9D6" points="942,2387 1360,2145 1360,2158 963,2387 "/>
   <polygon fill="#DBD9D6" points="920,2387 1360,2133 1360,2145 942,2387 "/>
   <polygon fill="#DBD9D6" points="899,2387 1360,2120 1360,2133 920,2387 "/>
   <polygon fill="#DBD9D6" points="877,2387 1360,2108 1360,2120 899,2387 "/>
   <polygon fill="#DBD9D6" points="856,2387 1360,2095 1360,2108 877,2387 "/>
   <polygon fill="#DBD9D6" points="834,2387 1360,2083 1360,2095 856,2387 "/>
   <polygon fill="#DBD9D6" points="813,2387 1360,2070 1360,2083 834,2387 "/>
   <polygon fill="#DBD9D6" points="792,2387 1360,2058 1360,2070 813,2387 "/>
   <polygon fill="#DBDAD7" points="770,2387 1360,2046 1360,2058 792,2387 "/>
   <polygon fill="#DCDBD9" points="748,2387 1360,2033 1360,2046 770,2387 "/>
   <polygon fill="#DCDBD9" points="728,2387 1360,2021 1360,2033 748,2387 "/>
   <polygon fill="#DCDBD9" points="706,2387 1360,2009 1360,2021 728,2387 "/>
   <polygon fill="#DCDBD9" points="684,2387 1360,1996 1360,2009 706,2387 "/>
   <polygon fill="#DCDBD9" points="663,2387 1360,1984 1360,1996 684,2387 "/>
   <polygon fill="#DCDBD9" points="641,2387 1360,1971 1360,1984 663,2387 "/>
   <polygon fill="#DCDBD9" points="620,2387 1360,1959 1360,1971 641,2387 "/>
   <polygon fill="#DCDBD9" points="598,2387 1360,1947 1360,1959 620,2387 "/>
   <polygon fill="#DCDBD9" points="577,2387 1360,1934 1360,1947 598,2387 "/>
   <polygon fill="#DCDBD9" points="555,2387 1360,1922 1360,1934 577,2387 "/>
   <polygon fill="#DCDDDC" points="534,2387 1360,1909 1360,1922 555,2387 "/>
   <polygon fill="#DCDDDC" points="513,2387 1360,1897 1360,1909 534,2387 "/>
   <polygon fill="#DFDEDC" points="491,2387 1360,1884 1360,1897 513,2387 "/>
   <polygon fill="#DFDEDC" points="469,2387 1360,1872 1360,1884 491,2387 "/>
   <polygon fill="#DFDEDC" points="448,2387 1360,1860 1360,1872 469,2387 "/>
   <polygon fill="#DFDEDC" points="427,2387 1360,1848 1360,1860 448,2387 "/>
   <polygon fill="#DFDEDC" points="405,2387 1360,1835 1360,1848 427,2387 "/>
   <polygon fill="#DFDEDC" points="383,2387 1360,1823 1360,1835 405,2387 "/>
   <polygon fill="#DFDEDC" points="362,2387 1360,1810 1360,1823 383,2387 "/>
   <polygon fill="#DFDEDC" points="341,2387 1360,1798 1360,1810 362,2387 "/>
   <polygon fill="#DFDEDC" points="319,2387 1360,1785 1360,1798 341,2387 "/>
   <polygon fill="#DFDEDC" points="298,2387 1360,1773 1360,1785 319,2387 "/>
   <polygon fill="#DFDEDC" points="276,2387 1360,1761 1360,1773 298,2387 "/>
   <polygon fill="#DFDEDC" points="255,2387 1360,1749 1360,1761 276,2387 "/>
   <polygon fill="#DFDEDC" points="234,2387 1360,1736 1360,1749 255,2387 "/>
   <polygon fill="#DFDEDD" points="212,2387 1360,1724 1360,1736 234,2387 "/>
   <polygon fill="#E0DFDD" points="190,2387 1360,1711 1360,1724 212,2387 "/>
   <path fill="#E1E0DE" d="M172 2384l1188 -686 0 13 -1170 676 -5 0c-4,0 -9,-1 -13,-2l-1 -1z"/>
   <path fill="#E1E0DE" d="M160 2379l1200 -693 0 13 -1188 686c-4,-1 -8,-3 -12,-6l0 1z"/>
   <path fill="#E1E0DE" d="M152 2372l1209 -698 0 12 -1200 693c-3,-2 -5,-3 -8,-6 -1,-1 -1,-1 -2,-2z"/>
   <path fill="#E1E0DE" d="M145 2363l1215 -701 0 13 -1209 698c-3,-3 -4,-6 -7,-9l1 0z"/>
   <path fill="#E1E0DE" d="M141 2353l1219 -704 0 12 -1215 701c-2,-3 -3,-7 -4,-10z"/>
   <path fill="#E1E0DE" d="M140 2341l1220 -705 0 13 -1219 704c-1,-3 -2,-8 -2,-12z"/>
   <polygon fill="#E1E0DE" points="140,2329 1360,1624 1360,1637 140,2341 140,2341 "/>
   <polygon fill="#E1E0DE" points="140,2317 1360,1612 1360,1624 140,2329 "/>
   <polygon fill="#E1E0DE" points="140,2304 1360,1599 1360,1612 140,2317 "/>
   <polygon fill="#E3E1E0" points="140,2292 1360,1587 1360,1599 140,2304 "/>
   <polygon fill="#E3E1E0" points="140,2279 1360,1574 1360,1587 140,2292 "/>
   <polygon fill="#E3E1E0" points="140,2267 1360,1562 1360,1574 140,2279 "/>
   <polygon fill="#E3E1E0" points="140,2254 1360,1550 1360,1562 140,2267 "/>
   <polygon fill="#E3E3E1" points="140,2242 1360,1538 1360,1550 140,2254 "/>
   <polygon fill="#E3E3E1" points="140,2229 1360,1525 1360,1538 140,2242 "/>
   <polygon fill="#E3E3E1" points="140,2218 1360,1513 1360,1525 140,2229 "/>
   <polygon fill="#E3E3E1" points="140,2205 1360,1500 1360,1513 140,2218 "/>
   <polygon fill="#E3E3E1" points="140,2193 1360,1488 1360,1500 140,2205 "/>
   <polygon fill="#E3E3E1" points="140,2180 1360,1475 1360,1488 140,2193 "/>
   <polygon fill="#E3E3E1" points="140,2168 1360,1463 1360,1475 140,2180 "/>
   <polygon fill="#E3E3E1" points="140,2155 1360,1451 1360,1463 140,2168 "/>
   <polygon fill="#E3E3E1" points="140,2143 1360,1439 1360,1451 140,2155 "/>
   <polygon fill="#E5E4E3" points="140,2130 1360,1426 1360,1439 140,2143 "/>
   <polygon fill="#E5E6E4" points="140,2118 1360,1414 1360,1426 140,2130 "/>
   <polygon fill="#E7E7E6" points="140,2106 1360,1401 1360,1414 140,2118 "/>
   <polygon fill="#E7E8E7" points="140,2093 1360,1389 1360,1401 140,2106 "/>
   <polygon fill="#E9E9E7" points="140,2081 1360,1376 1360,1389 140,2093 "/>
   <polygon fill="#E9E9E9" points="140,2068 1360,1364 1360,1376 140,2081 "/>
   <polygon fill="#EBEAEA" points="140,2056 1360,1352 1360,1364 140,2068 "/>
   <polygon fill="#EBECEC" points="140,2043 1360,1340 1360,1352 140,2056 "/>
   <polygon fill="#EEEDEC" points="140,2031 1360,1327 1360,1340 140,2043 "/>
   <polygon fill="#EEEEEC" points="140,2019 1360,1315 1360,1327 140,2031 "/>
   <polygon fill="#EFEFEF" points="140,2007 1360,1302 1360,1315 140,2019 "/>
   <polygon fill="#EFEFF0" points="140,1994 1360,1290 1360,1302 140,2007 "/>
   <polygon fill="#F2F2F1" points="140,1982 1360,1277 1360,1290 140,1994 "/>
   <polygon fill="#F4F3F1" points="140,1969 1360,1265 1360,1277 140,1982 "/>
   <polygon fill="#F4F3F1" points="140,1957 1360,1253 1360,1265 140,1969 "/>
   <polygon fill="#F4F4F4" points="140,1944 1360,1240 1360,1253 140,1957 "/>
   <polygon fill="#F6F5F4" points="140,1932 1360,1228 1360,1240 140,1944 "/>
   <polygon fill="#F6F7F7" points="140,1920 1360,1215 1360,1228 140,1932 "/>
   <polygon fill="#F6F7F7" points="140,1908 1360,1203 1360,1215 140,1920 "/>
   <polygon fill="#F8F8F9" points="140,1895 1360,1190 1360,1203 140,1908 "/>
   <polygon fill="#F8F8F9" points="140,1883 1360,1178 1360,1190 140,1895 "/>
   <polygon fill="#FAFAFA" points="140,1870 1360,1165 1360,1178 140,1883 "/>
   <polygon fill="#FAFAFA" points="140,1858 1360,1154 1360,1165 140,1870 "/>
   <polygon fill="#FCFDFC" points="140,1845 1360,1141 1360,1154 140,1858 "/>
   <polygon fill="#FCFDFC" points="140,1833 1360,1129 1360,1141 140,1845 "/>
   <polygon fill="#FEFEFE" points="140,1821 1360,1116 1360,1129 140,1833 "/>
   <polygon fill="#FEFEFE" points="140,1809 1360,1104 1360,1116 140,1821 "/>
   <polygon fill="#FEFEFE" points="140,1796 1360,1091 1360,1104 140,1809 "/>
   <polygon fill="#FEFEFE" points="140,1784 1360,1079 1360,1091 140,1796 "/>
   <polygon fill="#FEFEFE" points="140,1771 1360,1066 1360,1079 140,1784 "/>
   <polygon fill="#FEFEFE" points="140,1759 1360,1055 1360,1066 140,1771 "/>
   <polygon fill="#FEFEFE" points="140,1746 1360,1042 1360,1055 140,1759 "/>
   <polygon fill="#FEFEFE" points="140,1734 1360,1030 1360,1042 140,1746 "/>
   <polygon fill="#FEFEFE" points="140,1722 1360,1017 1360,1030 140,1734 "/>
   <polygon fill="#FEFEFE" points="140,1709 1360,1005 1360,1017 140,1722 "/>
   <polygon fill="#FEFEFE" points="140,1697 1360,992 1360,1005 140,1709 "/>
   <polygon fill="#FEFEFE" points="140,1684 1360,980 1360,992 140,1697 "/>
   <polygon fill="#FEFEFE" points="140,1672 1360,967 1360,980 140,1684 "/>
   <polygon fill="#FEFEFE" points="140,1659 1360,956 1360,967 140,1672 "/>
   <polygon fill="#FEFEFE" points="140,1647 1360,943 1360,956 140,1659 "/>
   <polygon fill="#FEFEFE" points="140,1634 1360,931 1360,943 140,1647 "/>
   <polygon fill="#FEFEFE" points="140,1623 1360,918 1360,931 140,1634 "/>
   <polygon fill="#FEFEFE" points="140,1610 1360,906 1360,918 140,1623 "/>
   <polygon fill="#FEFEFE" points="140,1598 1360,893 1360,906 140,1610 "/>
   <polygon fill="#FEFEFE" points="140,1585 1360,881 1360,893 140,1598 "/>
   <polygon fill="#FEFEFE" points="140,1573 1360,868 1360,881 140,1585 "/>
   <polygon fill="#FEFEFE" points="140,1560 1360,856 1360,868 140,1573 "/>
   <polygon fill="#FEFEFE" points="140,1548 1360,844 1360,856 140,1560 "/>
   <polygon fill="#FEFEFE" points="140,1535 1360,831 1360,844 140,1548 "/>
   <polygon fill="#FEFEFE" points="140,1524 1360,819 1360,831 140,1535 "/>
   <polygon fill="#FEFEFE" points="140,1511 1360,806 1360,819 140,1524 "/>
   <polygon fill="#FEFEFE" points="140,1499 1360,794 1360,806 140,1511 "/>
   <polygon fill="#FEFEFE" points="140,1486 1360,781 1360,794 140,1499 "/>
   <polygon fill="#FEFEFE" points="140,1474 1360,769 1360,781 140,1486 "/>
   <polygon fill="#FEFEFE" points="140,1461 1360,756 1360,769 140,1474 "/>
   <polygon fill="#FEFEFE" points="140,1449 1360,745 1360,756 140,1461 "/>
   <polygon fill="#FEFEFE" points="140,1436 1360,732 1360,745 140,1449 "/>
   <polygon fill="#FEFEFE" points="140,1424 1360,720 1360,732 140,1436 "/>
   <polygon fill="#FEFEFE" points="140,1412 1360,707 1360,720 140,1424 "/>
   <polygon fill="#FEFEFE" points="140,1400 1360,695 1360,707 140,1412 "/>
   <polygon fill="#FEFEFE" points="140,1387 1360,682 1360,695 140,1400 "/>
   <polygon fill="#FEFEFE" points="140,1375 1360,670 1360,682 140,1387 "/>
   <polygon fill="#FEFEFE" points="140,1362 1360,657 1360,670 140,1375 "/>
   <polygon fill="#FEFEFE" points="140,1350 1360,646 1360,657 140,1362 "/>
   <polygon fill="#FEFEFE" points="140,1337 1360,633 1360,646 140,1350 "/>
   <polygon fill="#FEFEFE" points="140,1325 1360,621 1360,633 140,1337 "/>
   <polygon fill="#FEFEFE" points="140,1313 1360,608 1360,621 140,1325 "/>
   <polygon fill="#FEFEFE" points="140,1300 1360,596 1360,608 140,1313 "/>
   <polygon fill="#FEFEFE" points="140,1288 1360,583 1360,596 140,1300 "/>
   <polygon fill="#FEFEFE" points="140,1275 1360,571 1360,583 140,1288 "/>
   <polygon fill="#FEFEFE" points="140,1263 1360,558 1360,571 140,1275 "/>
   <polygon fill="#FEFEFE" points="140,1250 1360,546 1360,558 140,1263 "/>
   <polygon fill="#FEFEFE" points="140,1238 1360,534 1360,546 140,1250 "/>
   <polygon fill="#FEFEFE" points="140,1225 1360,521 1360,534 140,1238 "/>
   <polygon fill="#FEFEFE" points="140,1214 1360,509 1360,521 140,1225 "/>
   <polygon fill="#FEFEFE" points="140,1201 1360,497 1360,509 140,1214 "/>
   <polygon fill="#FEFEFE" points="140,1189 1360,484 1360,497 140,1201 "/>
   <polygon fill="#FEFEFE" points="140,1176 1360,472 1360,484 140,1189 "/>
   <polygon fill="#FEFEFE" points="140,1164 1360,459 1360,472 140,1176 "/>
   <polygon fill="#FEFEFE" points="140,1151 1360,447 1360,459 140,1164 "/>
   <polygon fill="#FEFEFE" points="140,1139 1360,435 1360,447 140,1151 "/>
   <polygon fill="#FEFEFE" points="140,1126 1360,422 1360,435 140,1139 "/>
   <polygon fill="#FEFEFE" points="140,1115 1360,410 1360,422 140,1126 "/>
   <polygon fill="#FEFEFE" points="140,1102 1360,397 1360,410 140,1115 "/>
   <polygon fill="#FEFEFE" points="140,1090 1360,385 1360,397 140,1102 "/>
   <polygon fill="#FEFEFE" points="140,1077 1360,372 1360,385 140,1090 "/>
   <polygon fill="#FEFEFE" points="140,1065 1360,360 1360,372 140,1077 "/>
   <polygon fill="#FEFEFE" points="140,1052 1360,348 1360,360 140,1065 "/>
   <polygon fill="#FEFEFE" points="140,1040 1360,336 1360,348 140,1052 "/>
   <polygon fill="#FEFEFE" points="140,1027 1360,323 1360,336 140,1040 "/>
   <polygon fill="#FEFEFE" points="140,1015 1360,311 1360,323 140,1027 "/>
   <polygon fill="#FEFEFE" points="140,1003 1360,298 1360,311 140,1015 "/>
   <polygon fill="#FEFEFE" points="140,991 1360,286 1360,298 140,1003 "/>
   <polygon fill="#FEFEFE" points="140,978 1360,273 1360,286 140,991 "/>
   <polygon fill="#FEFEFE" points="140,966 1360,261 1360,273 140,978 "/>
   <polygon fill="#FEFEFE" points="140,953 1360,249 1360,261 140,966 "/>
   <polygon fill="#FEFEFE" points="140,941 1360,237 1360,249 140,953 "/>
   <polygon fill="#FEFEFE" points="140,928 1360,224 1360,237 140,941 "/>
   <polygon fill="#FEFEFE" points="140,916 1360,212 1360,224 140,928 "/>
   <polygon fill="#FEFEFE" points="140,904 1360,199 1360,212 140,916 "/>
   <polygon fill="#FEFEFE" points="140,891 1360,187 1360,199 140,904 "/>
   <polygon fill="#FEFEFE" points="140,879 1360,174 1360,187 140,891 "/>
   <polygon fill="#FEFEFE" points="140,866 1360,162 1360,174 140,879 "/>
   <path fill="#FEFEFE" d="M140 854l1220 -704c1,3 1,7 1,9l0 3 -1220 705 0 -13z"/>
   <path fill="#FEFEFE" d="M140 841l1215 -702c2,3 3,7 3,10l-1220 704 0 -13 1 1z"/>
   <path fill="#FEFEFE" d="M140 829l1210 -699c3,3 4,6 6,9l-1215 702 0 -13 -1 0z"/>
   <path fill="#FEFEFE" d="M140 817l1202 -694c3,3 6,5 8,8l-1210 699 0 -12z"/>
   <path fill="#FEFEFE" d="M140 805l1190 -687c4,2 8,3 11,6l-1202 694 0 -13 1 0z"/>
   <path fill="#FEFEFE" d="M140 792l1174 -677 3 0c5,0 10,1 15,3l-1190 687 0 -12 -1 0z"/>
   <polygon fill="#FEFEFE" points="140,780 1292,114 1313,114 140,792 "/>
   <polygon fill="#FEFEFE" points="140,767 1271,114 1292,114 140,780 "/>
   <polygon fill="#FEFEFE" points="140,755 1249,114 1271,114 140,767 "/>
   <polygon fill="#FEFEFE" points="140,742 1227,114 1249,114 140,755 "/>
   <polygon fill="#FEFEFE" points="140,730 1207,114 1227,114 140,742 "/>
   <polygon fill="#FEFEFE" points="140,718 1185,114 1207,114 140,730 "/>
   <polygon fill="#FEFEFE" points="140,706 1163,114 1185,114 140,718 "/>
   <polygon fill="#FEFEFE" points="140,693 1142,114 1163,114 140,706 "/>
   <polygon fill="#FEFEFE" points="140,681 1121,114 1142,114 140,693 "/>
   <polygon fill="#FEFEFE" points="140,668 1099,114 1121,114 140,681 "/>
   <polygon fill="#FEFEFE" points="140,656 1077,114 1099,114 140,668 "/>
   <polygon fill="#FEFEFE" points="140,643 1056,114 1077,114 140,656 "/>
   <polygon fill="#FEFEFE" points="140,631 1034,114 1056,114 140,643 "/>
   <polygon fill="#FEFEFE" points="140,618 1013,114 1034,114 140,631 "/>
   <polygon fill="#FEFEFE" points="140,606 992,114 1013,114 140,618 "/>
   <polygon fill="#FEFEFE" points="140,594 970,114 992,114 140,606 "/>
   <polygon fill="#FEFEFE" points="140,581 948,114 970,114 140,594 "/>
   <polygon fill="#FEFEFE" points="140,569 927,114 948,114 140,581 "/>
   <polygon fill="#FEFEFE" points="140,556 906,114 927,114 140,569 "/>
   <polygon fill="#FEFEFE" points="140,544 884,114 906,114 140,556 "/>
   <polygon fill="#FEFEFE" points="140,531 862,114 884,114 140,544 "/>
   <polygon fill="#FEFEFE" points="140,519 842,114 862,114 140,531 "/>
   <polygon fill="#FEFEFE" points="140,507 820,114 842,114 140,519 "/>
   <polygon fill="#FEFEFE" points="140,495 798,114 820,114 140,507 "/>
   <polygon fill="#FEFEFE" points="140,482 777,114 798,114 140,495 "/>
   <polygon fill="#FEFEFE" points="140,470 756,114 777,114 140,482 "/>
   <polygon fill="#FEFEFE" points="140,457 734,114 756,114 140,470 "/>
   <polygon fill="#FEFEFE" points="140,445 713,114 734,114 140,457 "/>
   <polygon fill="#FEFEFE" points="140,432 691,114 713,114 140,445 "/>
   <polygon fill="#FEFEFE" points="140,420 669,114 691,114 140,432 "/>
   <polygon fill="#FEFEFE" points="140,408 648,114 669,114 140,420 "/>
   <polygon fill="#FEFEFE" points="140,396 627,114 648,114 140,408 "/>
   <polygon fill="#FEFEFE" points="140,383 605,114 627,114 140,396 "/>
   <polygon fill="#FEFEFE" points="140,371 583,114 605,114 140,383 "/>
   <polygon fill="#FEFEFE" points="140,358 563,114 583,114 140,371 "/>
   <polygon fill="#FEFEFE" points="140,346 541,114 563,114 140,358 "/>
   <polygon fill="#FEFEFE" points="140,333 519,114 541,114 140,346 "/>
   <polygon fill="#FEFEFE" points="140,321 498,114 519,114 140,333 "/>
   <polygon fill="#FEFEFE" points="140,309 477,114 498,114 140,321 "/>
   <polygon fill="#FEFEFE" points="140,297 455,114 477,114 140,309 "/>
   <polygon fill="#FEFEFE" points="140,284 433,114 455,114 140,297 "/>
   <polygon fill="#FEFEFE" points="140,272 412,114 433,114 140,284 "/>
   <polygon fill="#FEFEFE" points="140,259 390,114 412,114 140,272 "/>
   <polygon fill="#FEFEFE" points="140,247 369,114 390,114 140,259 "/>
   <polygon fill="#FEFEFE" points="140,234 348,114 369,114 140,247 "/>
   <polygon fill="#FEFEFE" points="140,222 326,114 348,114 140,234 "/>
   <polygon fill="#FEFEFE" points="140,210 304,114 326,114 140,222 "/>
   <polygon fill="#FEFEFE" points="140,197 283,114 304,114 140,210 "/>
   <polygon fill="#FEFEFE" points="140,185 262,114 283,114 140,197 "/>
   <polygon fill="#FEFEFE" points="140,172 240,114 262,114 140,185 "/>
   <polygon fill="#FEFEFE" points="140,160 219,114 240,114 140,172 "/>
   <path fill="#FEFEFE" d="M142 147l56 -32 22 0 -79 46 0 0c0,-5 1,-9 2,-13l0 -1z"/>
   <path fill="#FEFEFE" d="M154 127l19 -11c4,-1 8,-2 13,-2l12 0 -56 32c3,-8 7,-14 12,-19z"/>
   <path fill="#FEFEFE" d="M173 116l-19 11c5,-5 12,-9 19,-11z"/>
   <path fill="#342F2D" d="M990 1849l221 0c0,0 -28,-18 -40,-70 -12,-52 -8,-141 -57,-249 -39,-87 -92,-177 -112,-209 59,-36 131,-99 171,-206 74,-199 -68,-347 -202,-373 0,0 37,67 42,116 0,0 84,93 20,255 -50,125 -165,165 -165,165l42 86c0,0 6,-2 16,-5 26,29 126,155 131,352 0,0 8,82 -66,138l0 0zm-178 -1054l-182 0 0 362c-23,8 -70,23 -102,27l0 -380c0,-47 -10,-54 -24,-75l252 0c20,12 47,42 57,67l0 0 -1 0zm-182 616c53,-1 104,-5 149,-13 -6,-21 -28,-65 -39,-83 -41,7 -80,9 -110,9l0 -22c-14,5 -77,14 -103,17l0 443c0,47 -20,68 -34,89l172 0c-14,-20 -34,-42 -34,-89l0 -352zm-202 -197l0 0 0 -526 222 0c153,0 204,97 202,200 -10,285 -292,327 -424,327l0 0 1 -1zm359 526l224 0c-34,-18 -47,-67 -48,-113 -22,-210 -139,-373 -167,-416 133,-80 192,-202 192,-315 0,-187 -166,-277 -309,-277l-377 0c14,20 24,28 24,75l0 957c0,47 -20,68 -34,89l172 0c-14,-20 -34,-42 -34,-89l0 -352c116,-2 212,-21 290,-52 118,127 132,310 134,361 2,51 -24,95 -65,132l0 0 0 -1zm-476 393c18,0 34,-15 34,-34 0,-18 -15,-34 -34,-34l-57 0 0 67 57 0 0 1zm18 -1862c18,0 34,-15 34,-34 0,-18 -15,-34 -34,-34l-57 0 0 67 57 0 0 1zm222 2023c62,0 112,-51 112,-112 0,-62 -51,-112 -112,-112 -62,0 -112,51 -112,112 0,62 51,112 112,112l0 0zm18 -1866c62,0 112,-51 112,-112 0,-62 -51,-112 -112,-112 -62,0 -112,51 -112,112 0,62 51,112 112,112l0 0zm527 1661c-22,-17 -47,-25 -76,-25 -62,0 -112,55 -112,117 0,62 51,119 112,119 31,0 59,-3 80,-24l1 34c-22,16 -51,17 -81,17 -77,0 -140,-68 -140,-146 0,-77 62,-144 140,-144 27,0 51,4 72,18l4 34 -1 0zm160 54l-49 0c-8,0 -16,-3 -16,-15l0 -44c0,-8 8,-18 27,-18 18,0 35,0 49,8l-7 -33 -102 0c2,6 3,11 4,21l0 239c-1,10 -2,15 -4,21l102 0 21 -33c-14,7 -44,7 -62,7 -18,0 -27,-9 -27,-17l0 -92c0,-11 8,-15 16,-15l49 0 0 -28zm-455 157c1,10 2,15 4,21l-37 0c2,-6 3,-11 4,-21l0 -127 -75 -132 32 0 57 101 57 -101 32 0 -77 132 0 127 2 0zm450 -2070l13 -32c-6,-1 -13,-3 -22,-7 -9,-4 -25,-11 -41,-11 -16,0 -58,9 -61,56 -2,38 23,57 33,65 13,10 48,37 64,58 16,22 23,67 -32,73 -19,0 -40,-9 -52,-17l4 39c12,-2 18,1 23,1 8,1 20,3 32,3 11,-1 68,-10 68,-65 0,-48 -34,-72 -47,-83 -10,-7 -41,-35 -53,-44 -9,-7 -23,-57 22,-58 22,-1 42,17 51,21l0 0 -1 2zm-994 2087c-2,-6 -3,-11 -4,-21l0 -118c0,-9 6,-8 10,-3l121 142 37 0 -125 -147c-3,-3 -3,-9 2,-9l13 0c34,0 62,-27 62,-62 0,-34 -27,-62 -62,-62l-89 0c2,6 3,11 4,21l0 239c-1,10 -2,15 -4,21l37 0zm18 -1862c-2,-6 -3,-11 -4,-21l0 -118c0,-9 6,-8 10,-3l121 142 37 0 -125 -147c-3,-3 -3,-9 2,-9l13 0c34,0 62,-27 62,-62 0,-34 -27,-62 -62,-62l-89 0c2,6 3,11 4,21l0 239c-1,10 -2,15 -4,21l37 0 -1 1zm684 0c2,-6 3,-11 4,-21l0 -239c-1,-10 -2,-15 -4,-21l37 0c-2,6 -3,11 -4,21l0 217c0,8 8,17 27,17 18,0 48,0 62,-8l-21 33 -102 0zm-192 0c2,-6 3,-11 4,-21l0 -239c-1,-10 -2,-15 -4,-21l37 0c-2,6 -3,11 -4,21l0 217c0,8 8,17 27,17 18,0 48,0 62,-8l-21 33 -102 0zm-217 1866c77,0 140,-62 140,-140 0,-77 -62,-140 -140,-140 -77,0 -140,62 -140,140 0,77 62,140 140,140l0 0zm18 -1866c77,0 140,-62 140,-140 0,-77 -62,-140 -140,-140 -77,0 -140,62 -140,140 0,77 62,140 140,140l0 0zm771 1533l0 357c0,13 -11,23 -23,23l-1132 0c-6,0 -13,-3 -17,-7 -4,-4 -7,-10 -7,-17l0 -357 1179 0zm-1179 -45l0 -1408 1179 -1 0 1409 -1179 0zm0 -1454l0 -336c0,-7 3,-13 7,-17 4,-4 10,-7 17,-7l1132 0c7,0 13,3 17,7 4,4 7,10 7,17l0 336 -1179 0zm1200 1896c13,-12 18,-28 18,-45l0 -2182c0,-35 -27,-64 -62,-64l0 0 -1131 0c-35,0 -64,28 -64,64l0 2182c0,17 7,33 18,45 12,12 28,18 45,18l1132 0c17,0 32,-7 44,-18l0 0 1 0z"/>
   <path fill="#342F2D" d="M275 269l55 0c17,0 32,-14 32,-32 0,-8 -3,-17 -9,-22 -6,-6 -14,-9 -22,-9l-55 0 0 63zm55 5l-59 0 0 -72 59 0c10,0 19,4 26,11 7,7 11,16 11,26 0,20 -17,37 -36,37l-1 -1zm240 -68c-29,0 -57,12 -78,32 -21,21 -32,48 -32,78 0,61 49,111 111,111 61,0 111,-49 111,-111 0,-61 -49,-111 -111,-111 0,0 0,0 0,0zm0 226c-63,0 -115,-52 -115,-115 0,-31 12,-60 33,-82 22,-22 51,-33 82,-33 0,0 0,0 0,0 63,0 115,52 115,115 0,63 -52,115 -115,115zm0 -252c-37,0 -72,14 -97,40 -26,26 -40,61 -40,97 0,76 62,137 137,137 76,0 137,-62 137,-137 0,-76 -62,-137 -137,-137 0,0 0,0 0,0zm0 280c-78,0 -142,-64 -142,-142 0,-38 15,-73 42,-101 27,-27 62,-42 101,-42 0,0 0,0 0,0 78,0 142,64 142,142 0,78 -64,142 -142,142zm-166 -4l31 0 -122 -143c-3,-3 -3,-7 -2,-9 1,-3 3,-3 6,-3l13 0c33,0 60,-27 60,-60 0,-33 -27,-60 -60,-60l-86 0c2,4 3,10 3,18l0 239c-1,8 -2,13 -3,18l30 0c-2,-4 -3,-10 -3,-18l0 -118c0,-7 3,-8 4,-9 3,-1 7,1 9,4l120 142 -1 0zm41 5l-43 0 -1 -1 -121 -142c-2,-3 -3,-3 -4,-3 -1,0 -2,2 -2,5l0 118c1,10 2,15 4,20l1 3 -43 0 1 -3c2,-5 3,-10 4,-20l0 -239c-1,-10 -2,-15 -4,-20l-1 -3 92 0c36,0 64,29 64,64 0,36 -29,64 -64,64l-13 0c-1,0 -1,0 -2,1 -1,1 0,3 1,4l128 152 3 0zm327 -5l97 0 16 -26c-16,5 -40,5 -57,5 -20,0 -30,-10 -30,-20l0 -217c1,-8 2,-14 3,-18l-30 0c2,4 3,10 3,18l0 239c-1,8 -2,14 -3,18l1 0zm99 5l-106 0 1 -3c2,-5 3,-10 4,-20l0 -239c-1,-10 -2,-15 -4,-20l-1 -3 43 0 -1 3c-2,5 -3,10 -4,20l0 217c0,6 7,15 25,15 18,0 48,0 62,-7l8 -4 -26 42 -1 1zm93 -5l97 0 16 -26c-16,5 -40,5 -57,5 -20,0 -30,-10 -30,-20l0 -217c1,-8 2,-13 3,-18l-30 0c2,5 3,10 3,18l0 239c-1,8 -2,13 -3,18l1 0zm99 5l-106 0 1 -3c2,-5 3,-10 4,-20l0 -239c-1,-10 -2,-14 -4,-20l-1 -3 43 0 -1 3c-2,5 -3,10 -4,20l0 217c0,6 7,15 25,15 18,0 48,0 62,-7l8 -4 -26 42 -1 1zm103 -5c5,0 8,1 12,2 2,0 3,1 3,1 3,0 5,1 8,1 8,1 15,3 23,2 1,0 66,-5 66,-62 0,-44 -28,-67 -43,-79l-3 -3c-5,-4 -17,-13 -28,-23 -9,-8 -19,-17 -25,-21 -6,-5 -14,-26 -9,-42 3,-9 11,-19 32,-20 0,0 1,0 1,0 19,0 37,12 46,18 1,1 2,1 3,2l11 -27c-6,-2 -13,-3 -20,-7 -8,-3 -25,-11 -40,-11 -1,0 -56,1 -59,53 -2,36 22,54 31,62l1 1c14,11 49,37 65,59 10,13 16,35 8,52 -4,10 -15,22 -42,25 -18,0 -37,-8 -49,-15l3 32c3,0 5,-1 7,-1l1 2zm42 10c-7,0 -14,-1 -21,-2 -3,0 -5,-1 -8,-1 -1,0 -3,0 -4,-1 -4,-1 -10,-2 -18,0l-3 1 -5 -47 4 3c13,8 33,17 51,17 20,-3 33,-10 38,-23 7,-15 1,-35 -8,-47 -15,-21 -50,-47 -63,-58l-1 -1c-11,-8 -35,-27 -33,-66 3,-47 47,-57 63,-57 16,0 32,7 42,11 8,3 16,6 22,7l3 1 -15 37 -3 -2c-2,-1 -3,-2 -5,-3 -9,-6 -26,-17 -43,-17 0,0 -1,0 -1,0 -14,0 -23,6 -27,17 -5,14 3,33 8,37 6,4 15,12 25,21 11,9 22,19 28,23l2 3c15,12 46,37 46,82 0,62 -70,67 -70,67 -1,0 -3,0 -3,0l0 -1zm-1045 24l1174 0 0 -333c0,-6 -3,-11 -6,-15 -4,-4 -9,-6 -15,-6l-1132 0c-6,0 -11,3 -15,6 -4,4 -6,9 -6,15l0 333zm1179 5l-1184 0 0 -337c0,-7 3,-13 8,-18 5,-5 12,-8 18,-8l1132 0c7,0 13,3 18,8 5,5 8,12 8,18l0 337zm-836 237c1,1 2,2 2,3 12,16 20,27 20,70l0 377c30,-3 69,-15 98,-25l0 -362 181 0c-11,-24 -37,-51 -55,-62l-246 0zm18 454l0 -382c0,-41 -8,-51 -19,-67 -2,-2 -3,-4 -4,-7l-3 -3 257 0 1 0c20,12 47,42 58,67l2 3 -183 0 0 361 -2 1c-30,11 -72,23 -103,27l-3 0 -1 0zm-94 -496l0 522c99,0 408,-26 419,-325 1,-42 -7,-102 -49,-145 -34,-35 -85,-52 -150,-52l-220 0zm-3 526l-2 0 0 -531 224 0c67,0 118,18 153,54 43,44 52,105 51,148 -11,306 -329,329 -427,329l1 0zm-122 -593c1,1 2,2 2,2 12,16 20,28 20,70l0 956c0,42 -17,65 -30,83 -1,1 -2,2 -2,3l162 0c-1,-1 -2,-2 -3,-3 -13,-18 -30,-42 -30,-83l0 -353 3 0c110,-2 207,-19 289,-52l2 -1 1 1c113,122 132,294 135,362 2,45 -19,90 -61,129l210 0c-32,-23 -41,-72 -42,-111 -21,-198 -127,-355 -162,-407l-7 -10 3 -2c119,-72 191,-188 191,-312 0,-180 -154,-274 -307,-274l-373 0zm-19 1120l2 -3c2,-3 3,-4 5,-7 13,-19 29,-40 29,-81l0 -956c0,-41 -8,-51 -19,-67 -2,-2 -3,-4 -4,-7l-3 -3 382 0c77,0 153,25 210,68 47,36 102,101 102,211 0,125 -72,243 -191,316l4 6c35,52 142,210 162,409 2,40 12,92 47,112l8 4 -240 0 4 -4c43,-39 66,-84 64,-129 -3,-67 -21,-237 -132,-358 -82,32 -177,49 -287,52l0 349c0,41 16,62 29,81 2,3 3,4 5,7l3 3 -181 0 -1 -2zm711 103l207 0c-9,-8 -27,-28 -36,-67 -3,-14 -5,-32 -8,-52 -6,-51 -14,-120 -49,-197 -38,-86 -92,-175 -112,-208l-1 -2 2 -1c55,-34 130,-97 170,-205 39,-105 14,-185 -13,-233 -38,-68 -108,-120 -182,-136 8,16 36,70 41,111 8,8 82,101 20,257 -46,115 -147,159 -164,166l39 82c3,-1 8,-3 14,-4l2 -1 1 1c30,33 127,158 132,354l0 0c1,8 3,82 -62,136zm214 5l-227 0 5 -4c65,-51 65,-121 65,-134l0 0 0 -3c-5,-192 -99,-315 -129,-350 -9,3 -14,4 -14,4l-2 1 -1 -2 -42 -87 3 -1c1,0 115,-41 164,-164 59,-150 -9,-240 -18,-252l-2 1 0 -3c-6,-47 -42,-114 -42,-115l-3 -4 5 1c77,15 151,68 191,139 28,49 52,131 13,237 -40,107 -114,172 -170,206 22,36 73,122 111,207 35,78 43,148 50,199 3,20 4,37 8,51 11,50 38,68 39,68l7 4 -8 0 -2 0zm-714 -2l162 0c-1,-1 -2,-2 -3,-3 -13,-18 -30,-42 -30,-83l0 -353 3 0c52,-1 102,-5 147,-12 -7,-21 -27,-60 -37,-79 -45,7 -84,9 -109,9l-3 0 0 -22c-19,5 -75,13 -98,16l0 441c0,42 -17,65 -30,83 -1,1 -2,2 -2,3l1 1zm172 5l-181 0 3 -3c2,-3 3,-4 5,-7 13,-19 29,-40 29,-81l0 -445 2 0c27,-3 89,-13 102,-17l3 -1 0 23c25,0 63,-2 107,-9l2 0 1 2c12,19 33,63 40,84l1 3 -3 1c-45,8 -96,12 -147,13l0 349c0,41 16,62 29,81 2,3 3,4 5,7l3 3 -1 -3zm-504 88l1174 0 0 -1404 -1174 1 0 1403zm1179 5l-1184 0 0 -1412 3 0 1181 -1 0 1414 0 -1zm-1086 185l55 0c17,0 32,-14 32,-32 0,-17 -14,-32 -32,-32l-55 0 0 63zm55 5l-59 0 0 -72 59 0c20,0 37,17 37,36 0,20 -17,37 -36,37l-1 0zm240 -64c-61,0 -111,49 -111,111 0,61 50,110 111,110 61,0 111,-49 111,-110 0,-29 -12,-57 -32,-78 -21,-21 -48,-32 -78,-32zm0 226c-63,0 -115,-52 -115,-115 0,-63 52,-115 115,-115 31,0 60,12 82,33 22,22 33,51 33,82 0,63 -52,115 -115,115zm-326 -257c2,4 2,10 3,18l0 239c-1,8 -2,14 -3,18l30 0c-2,-4 -3,-10 -3,-18l0 -118c0,-7 3,-8 4,-9 3,-1 7,1 9,4l120 142 31 0 -122 -143c-3,-3 -3,-7 -2,-9 1,-2 3,-3 6,-3l13 0c33,0 60,-27 60,-60 0,-16 -6,-31 -17,-42 -12,-12 -27,-18 -42,-18l-86 0 -1 0zm-7 281l1 -3c2,-5 3,-10 4,-20l0 -239c-1,-10 -2,-15 -4,-20l-1 -3 92 0c17,0 33,7 46,19 12,13 19,28 19,46 0,36 -29,64 -64,64l-13 0c-1,0 -1,0 -2,1 -1,1 0,3 1,4l128 152 -43 0 -1 -1 -121 -142c-2,-3 -3,-3 -4,-3 -1,0 -2,2 -2,5l0 118c1,10 2,15 4,20l1 3 -43 0 2 -1zm332 -276c-37,0 -72,14 -97,40 -26,26 -40,61 -40,97 0,76 62,137 137,137 76,0 137,-62 137,-137 0,-76 -62,-137 -137,-137 0,0 0,0 0,0zm0 280c-78,0 -142,-64 -142,-142 0,-38 15,-73 42,-101 27,-27 62,-42 101,-42 0,0 0,0 0,0 78,0 142,64 142,142 0,78 -64,142 -142,142zm611 -280c2,4 3,10 3,18l0 239c-1,8 -2,14 -3,18l97 0 16 -26c-16,5 -40,5 -57,5 -19,0 -30,-10 -30,-20l0 -92c0,-11 7,-17 18,-17l47 0 0 -23 -47 0c-12,0 -18,-6 -18,-17l0 -44c0,-10 10,-20 30,-20 17,0 32,0 46,6l-6 -27 -97 0 1 -2zm-7 281l1 -3c2,-5 3,-10 4,-20l0 -239c-1,-10 -2,-15 -4,-20l-1 -3 107 0 9 40 -4 -3c-13,-8 -30,-8 -48,-8 -16,0 -25,8 -25,15l0 44c0,8 4,13 13,13l52 0 0 33 -52 0c-9,0 -13,4 -13,12l0 92c0,8 8,15 25,15 18,0 48,0 62,-7l7 -4 -26 42 -106 0 -1 2zm-383 -5l30 0c-2,-4 -3,-10 -3,-18l0 0 0 -127 0 -1 75 -129 -28 0 -58 102 -58 -102 -27 0 73 130 0 127c-1,8 -2,14 -3,18zm37 5l-43 0 1 -3c2,-5 3,-10 4,-20l0 -127 -77 -136 38 0 1 1 55 97 56 -98 38 0 -78 136 0 127c1,10 2,15 4,20l1 3 0 1zm212 -284c-74,0 -137,65 -137,142 0,77 63,143 137,143 27,0 56,0 78,-16l-1 -28c-22,18 -50,21 -77,21 -62,0 -115,-56 -115,-121 0,-65 52,-119 115,-119 28,0 52,8 73,22l-3 -27c-19,-12 -40,-17 -70,-17l0 1zm0 290c-77,0 -142,-68 -142,-148 0,-79 65,-147 142,-147 32,0 53,6 73,18l1 1 4 41 -4 -3c-21,-16 -46,-24 -74,-24 -60,0 -111,52 -111,114 0,63 51,117 111,117 28,0 57,-3 78,-23l4 -4 2 41 -1 1c-24,17 -53,17 -82,17l-1 1zm-856 -339l0 354c0,6 3,11 6,15 4,4 9,6 15,6l1132 0c12,0 21,-9 21,-21l0 -354 -1174 0zm1153 380l-1132 0c-7,0 -13,-3 -18,-8 -5,-5 -8,-12 -8,-18l0 -359 1184 0 0 359c0,14 -12,26 -26,26zm-1132 -2273c-34,0 -62,27 -62,62l0 2182c0,17 7,32 18,43 12,12 27,18 43,18l1132 0c16,0 31,-6 42,-18l0 0c11,-11 17,-26 17,-43l0 -2182c0,-34 -27,-62 -60,-62l-1131 0zm1132 2309l-1132 0c-18,0 -34,-7 -47,-19 -13,-12 -19,-29 -19,-47l0 -2182c0,-37 30,-66 66,-66l1133 0c35,2 62,31 62,66l0 2182c0,18 -7,35 -18,47l0 0c-13,13 -28,19 -46,19l1 0z"/>
  </g>
 </g>
</svg>
