

<!-- Creator: CorelDRAW X6 -->
<svg xmlns="http://www.w3.org/2000/svg" x="0" y="0" xml:space="preserve" width="25mm" height="25mm" version="1.1" shape-rendering="geometricPrecision" text-rendering="geometricPrecision" image-rendering="optimizeQuality" fill-rule="evenodd" clip-rule="evenodd"
viewBox="0 0 2500 2500"
 xmlns:xlink="http://www.w3.org/1999/xlink"
 enable-background="new 0 0 912.7 290.1">
 <g id="Layer_x0020_1">
  <metadata id="CorelCorpID_0Corel-Layer"/>
 </g>
 <g id="Layer_x0020_1_0">
  <metadata id="CorelCorpID_1Corel-Layer"/>
 </g>
 <g id="Layer_x0020_1_0_1">
  <metadata id="CorelCorpID_2Corel-Layer"/>
 </g>
 <g id="Layer_x0020_1_0_2">
  <metadata id="CorelCorpID_3Corel-Layer"/>
 </g>
 <g id="Layer_x0020_1_3">
  <metadata id="CorelCorpID_4Corel-Layer"/>
 </g>
 <g id="Layer_x0020_1_0_4">
  <metadata id="CorelCorpID_5Corel-Layer"/>
 </g>
 <g id="Layer_x0020_1_0_5">
  <metadata id="CorelCorpID_6Corel-Layer"/>
 </g>
 <g id="Layer_x0020_1_0_6">
  <metadata id="CorelCorpID_7Corel-Layer"/>
 </g>
 <g id="Layer_x0020_1_0_7">
  <metadata id="CorelCorpID_8Corel-Layer"/>
 </g>
 <g id="Layer_x0020_1_0_2_8">
  <metadata id="CorelCorpID_9Corel-Layer"/>
 </g>
 <g id="Layer_x0020_1_0_2_8_9">
  <metadata id="CorelCorpID_10Corel-Layer"/>
 </g>
 <g id="Layer_x0020_1_0_10">
  <metadata id="CorelCorpID_11Corel-Layer"/>
 </g>
 <g id="Layer_x0020_1_1">
  <metadata id="CorelCorpID_12Corel-Layer"/>
 </g>
 <g id="Layer_x0020_1_11">
  <metadata id="CorelCorpID_13Corel-Layer"/>
 </g>
 <g id="Layer_x0020_1_12">
  <metadata id="CorelCorpID_14Corel-Layer"/>
  <g id="_1_x0020__x0028_61_x0029_.eps">
   <polygon fill="#264796" points="0,0 2500,0 2500,2500 0,2500 "/>
   <path fill="#FEFEFE" d="M682 244l-147 144 0 -101 50 -16c32,-10 64,-19 96,-28l1 0z"/>
   <path fill="#FEFEFE" d="M536 388l147 -144c8,-2 15,-4 23,-6l-169 167 0 -17 -1 0z"/>
   <path fill="#FEFEFE" d="M536 405l169 -167c8,-2 15,-4 23,-6l-193 189 0 -17 1 0z"/>
   <path fill="#FCFCFC" d="M536 422l193 -189c8,-2 15,-3 22,-5l-214 212 0 -17 -1 -1z"/>
   <path fill="#FCFCFC" d="M536 438l214 -212c8,-2 15,-3 23,-5l-237 233 0 -17z"/>
   <path fill="#FCFCFC" d="M536 456l237 -233c8,-2 14,-3 22,-5l-258 254 0 -17 0 1z"/>
   <path fill="#FBFBFB" d="M536 473l258 -254c8,-2 14,-3 22,-4l-280 276 0 -17 0 -1z"/>
   <path fill="#FBFBFB" d="M536 489l280 -276c7,-2 14,-3 21,-4l-301 297 0 -17z"/>
   <path fill="#FBFBFB" d="M536 506l301 -297c7,-2 14,-3 21,-4l-323 318 0 -17 1 0z"/>
   <path fill="#FBFBFB" d="M536 523l322 -318c7,-1 14,-3 21,-3l-343 337 0 -17 -1 0z"/>
   <path fill="#F9F9F9" d="M536 540l342 -338c7,-1 13,-3 21,-3l-363 357 0 -17z"/>
   <path fill="#F9F9F9" d="M536 557l363 -357c7,-1 13,-3 20,-3l-383 378 0 -17z"/>
   <path fill="#F7F7F7" d="M536 573l383 -378c7,-1 13,-2 20,-3l-403 398 0 -17 0 -1z"/>
   <path fill="#F7F7F7" d="M536 590l403 -398c7,-1 13,-2 20,-3l-423 417 0 -17z"/>
   <path fill="#F7F7F7" d="M536 608l423 -417c7,-1 13,-2 20,-3l-443 436 0 -17z"/>
   <path fill="#F7F7F7" d="M536 624l443 -436c7,-1 13,-2 19,-3l-462 455 0 -17z"/>
   <path fill="whitesmoke" d="M536 641l462 -455c7,-1 13,-2 19,-2l-482 474 0 -17 0 -1z"/>
   <path fill="whitesmoke" d="M536 658l482 -474c7,-1 13,-2 19,-2l-501 492 0 -17z"/>
   <path fill="whitesmoke" d="M536 674l501 -492c7,-1 13,-1 19,-2l-519 512 0 -17 -1 -1z"/>
   <path fill="whitesmoke" d="M536 692l519 -512c6,-1 13,-1 18,-2l-538 530 0 -17 1 0z"/>
   <path fill="#F3F4F4" d="M536 708l538 -530c6,-1 13,-1 18,-2l-557 548 0 -17z"/>
   <path fill="#F3F4F4" d="M536 725l557 -548c6,-1 13,-1 18,-1l-575 566 0 -17z"/>
   <path fill="#F1F1F1" d="M536 742l575 -566c6,0 13,-1 18,-1l-593 584 0 -17 0 -1z"/>
   <path fill="#F1F1F1" d="M536 758l593 -584c6,0 12,-1 18,-1l-611 602 0 -17 -1 0z"/>
   <path fill="#F1F1F1" d="M536 776l611 -602c6,0 12,-1 18,-1l-629 619 0 -17 1 0z"/>
   <path fill="#F1F1F1" d="M536 793l629 -619c6,0 12,-1 18,-1l-647 637 0 -17z"/>
   <path fill="#F0F0F0" d="M536 809l647 -637c6,0 12,0 18,-1l-664 654 0 -17z"/>
   <path fill="#F0F0F0" d="M536 826l664 -654c6,0 12,0 18,0l-682 671 0 -17z"/>
   <path fill="#EEEEEE" d="M536 843l682 -671c6,0 12,0 18,0l-699 688c0,-1 0,-3 0,-3l0 -13 0 -1z"/>
   <path fill="#EEEEEE" d="M536 860l699 -688c6,0 12,0 18,0l-716 705c0,-6 0,-11 0,-17l-1 0z"/>
   <path fill="#EEEEEE" d="M536 876l716 -705c6,0 12,0 17,0l-732 721c0,-6 -1,-11 -1,-17l1 1z"/>
   <path fill="#EEEEEE" d="M537 893l733 -721c6,0 12,0 17,0l-748 737c0,-5 -1,-11 -1,-16z"/>
   <path fill="#EBECEC" d="M538 908l748 -737c6,0 11,0 17,0l-763 752c-1,-5 -1,-11 -1,-16l-1 1z"/>
   <path fill="#EBECEC" d="M538 924l763 -752c6,0 11,0 17,1l-779 767c-1,-5 -1,-10 -2,-15l1 -1z"/>
   <path fill="#EBECEC" d="M540 939l779 -767c6,0 11,0 17,1l-793 782c-1,-5 -1,-10 -2,-15l-1 -1z"/>
   <path fill="#EAEAEA" d="M542 955l793 -782c6,0 11,1 17,1l-808 796c-1,-5 -2,-10 -2,-15z"/>
   <path fill="#EAEAEA" d="M544 969l808 -796c6,0 11,1 17,1l-823 810c-1,-5 -2,-10 -3,-15z"/>
   <path fill="#EAEAEA" d="M546 984l822 -810c5,0 11,1 16,1l-836 823c-1,-5 -2,-10 -3,-14z"/>
   <path fill="#EAEAEA" d="M548 998l836 -823c5,0 11,1 16,1l-849 837c-1,-5 -2,-9 -3,-14z"/>
   <path fill="#E8E8E8" d="M552 1013l849 -837c5,0 11,1 16,1l-863 849c-1,-5 -2,-9 -3,-14l0 1z"/>
   <path fill="#E8E8E8" d="M554 1027l863 -849c5,0 11,1 16,1l-875 862c-1,-5 -3,-9 -3,-14l0 1z"/>
   <path fill="#E6E7E7" d="M558 1041l875 -862c5,1 11,1 16,2l-887 874c-1,-4 -3,-9 -3,-13l0 -1z"/>
   <path fill="#E6E7E7" d="M561 1054l887 -874c5,1 11,1 16,2l-900 886c-1,-4 -3,-9 -3,-13z"/>
   <path fill="#E6E7E7" d="M564 1068l900 -886c5,1 10,1 16,2l-912 898c-2,-4 -3,-9 -3,-13l-1 0z"/>
   <path fill="#E6E7E7" d="M568 1081l912 -898c5,1 10,1 16,2l-923 909c-2,-4 -3,-8 -4,-13z"/>
   <path fill="#E4E5E5" d="M572 1094l923 -909c5,1 10,1 15,2l-934 920c-2,-4 -3,-8 -4,-13z"/>
   <path fill="#E4E5E5" d="M576 1107l934 -920c5,1 10,1 15,2l-946 931c-2,-4 -3,-8 -4,-13l1 0z"/>
   <path fill="#E3E3E3" d="M580 1119l946 -931c5,1 10,2 15,2l-957 942c-2,-4 -3,-8 -4,-13z"/>
   <path fill="#E3E3E3" d="M584 1132l957 -942c5,1 10,2 15,2l-967 953c-2,-4 -3,-8 -4,-13l-1 0z"/>
   <path fill="#E3E3E3" d="M588 1144l967 -953c5,1 10,2 15,3l-978 963c-2,-4 -3,-8 -5,-13l1 0z"/>
   <path fill="#E3E3E3" d="M593 1157l977 -963c5,1 10,2 15,3l-987 973c-2,-4 -3,-8 -5,-13z"/>
   <path fill="#E1E1E1" d="M598 1168l987 -973c5,1 10,2 15,3l-997 982c-2,-4 -3,-8 -5,-12l-1 0z"/>
   <path fill="#E1E1E1" d="M603 1181l997 -982c5,1 10,2 15,3l-1007 992c-2,-4 -3,-8 -5,-12l0 -1z"/>
   <path fill="#E1E1E1" d="M608 1193l1007 -992c5,1 10,2 15,3l-1016 1001c-2,-4 -3,-8 -5,-12l-1 0z"/>
   <path fill="#E1E1E1" d="M613 1204l1016 -1001c5,1 10,2 14,3l-1025 1009c-2,-4 -3,-8 -5,-12l0 1z"/>
   <path fill="#DFE0E0" d="M619 1216l1025 -1009c5,1 10,2 14,3l-1034 1018c-2,-4 -3,-8 -6,-12l1 0z"/>
   <path fill="#DFE0E0" d="M624 1227l1034 -1018c5,1 10,2 14,3l-1043 1027c-2,-4 -4,-8 -6,-12l0 1z"/>
   <path fill="#DDDDDE" d="M630 1238l1043 -1027c5,1 9,2 14,3l-1052 1035c-2,-3 -4,-8 -6,-11l1 0z"/>
   <path fill="#DDDDDE" d="M636 1249l1052 -1035c5,1 9,2 14,3l-1060 1043c-2,-3 -4,-8 -6,-11z"/>
   <path fill="#DDDDDE" d="M642 1261l1060 -1043c5,1 9,2 14,3l-1068 1052c-2,-3 -4,-8 -6,-11l-1 -1z"/>
   <path fill="#DDDDDE" d="M648 1272l1068 -1052c5,1 9,2 14,3l-1076 1059c-2,-3 -4,-8 -6,-11z"/>
   <path fill="gainsboro" d="M654 1283l1076 -1059c5,1 9,2 14,3l-1083 1067c-3,-3 -4,-8 -7,-11z"/>
   <path fill="gainsboro" d="M660 1293l1083 -1067c5,1 9,3 14,3l-1091 1074c-3,-3 -4,-7 -7,-11z"/>
   <path fill="gainsboro" d="M667 1303l1091 -1074c5,1 9,3 14,3l-1098 1082c-3,-3 -4,-7 -7,-11z"/>
   <path fill="#D9DADA" d="M673 1314l1098 -1082c4,1 9,3 13,3l-1105 1088c-3,-3 -4,-7 -7,-10z"/>
   <path fill="#D9DADA" d="M680 1324l1105 -1088c4,1 9,3 13,3l-1113 1095c-3,-3 -4,-7 -7,-10l1 0z"/>
   <path fill="#D9DADA" d="M687 1334l1113 -1095c4,1 9,3 13,3l-1119 1102c-3,-3 -4,-7 -7,-10z"/>
   <path fill="#D7D8D8" d="M693 1344l1119 -1102c4,1 9,3 13,3l-1126 1108c-3,-3 -5,-7 -7,-10z"/>
   <path fill="#D7D8D8" d="M700 1354l1126 -1108c4,1 9,3 13,3l-1132 1115c-3,-3 -5,-7 -7,-10l-1 0z"/>
   <path fill="#D7D8D8" d="M708 1364l1132 -1115c4,1 9,3 13,3l-1138 1121c-3,-3 -5,-7 -8,-10l1 1z"/>
   <path fill="#D6D6D6" d="M714 1374l1138 -1121c4,1 9,3 13,4l-1144 1127c-3,-3 -5,-7 -8,-10z"/>
   <path fill="#D6D6D6" d="M722 1384l1144 -1127c4,2 9,3 13,4l-1150 1133c-3,-3 -5,-7 -8,-10z"/>
   <path fill="#D6D6D6" d="M729 1393l1150 -1133c4,2 9,3 13,4l-1156 1138c-3,-3 -5,-7 -8,-9l0 -1z"/>
   <path fill="#D6D6D6" d="M737 1403l1156 -1138c4,2 8,3 13,4l-1161 1143c-3,-3 -5,-6 -8,-9l-1 0z"/>
   <path fill="#D3D4D4" d="M744 1413l1161 -1143c3,1 6,2 9,3l4 2 -1167 1148c-3,-3 -5,-6 -8,-9z"/>
   <path fill="#D3D4D4" d="M752 1422l1167 -1148 13 4 -1172 1154c-3,-3 -5,-6 -8,-9l-1 -1z"/>
   <path fill="#D2D2D3" d="M759 1431l1172 -1154 13 4 -1177 1159c-3,-3 -5,-6 -8,-9l-1 0z"/>
   <path fill="#D2D2D3" d="M768 1440l1177 -1159 13 4 -1182 1164c-3,-3 -5,-6 -8,-9z"/>
   <path fill="#D2D2D3" d="M775 1449l1182 -1164 8 3 0 8 -1181 1163c-3,-3 -6,-6 -8,-9l0 1z"/>
   <path fill="#D2D2D3" d="M783 1458l1181 -1163 0 17 -1173 1155c-3,-3 -6,-6 -8,-9z"/>
   <path fill="#CFD0D0" d="M792 1467l1173 -1155 0 17 -1164 1147c-3,-3 -6,-6 -8,-8z"/>
   <path fill="#CFD0D0" d="M800 1475l1164 -1147 0 17 -1156 1138c-3,-3 -6,-6 -8,-8z"/>
   <path fill="#CFD0D0" d="M808 1483l1156 -1138 0 17 -1148 1130c-3,-3 -6,-6 -8,-8z"/>
   <path fill="#CFD0D0" d="M817 1492l1148 -1130 0 17 -1139 1122c-3,-3 -6,-6 -8,-8z"/>
   <path fill="#CECECF" d="M826 1501l1139 -1122 0 17 -1130 1113c-3,-3 -6,-6 -8,-8l-1 1z"/>
   <path fill="#CECECF" d="M834 1508l1130 -1113 0 17 -1122 1104c-3,-3 -6,-6 -9,-8l1 0z"/>
   <path fill="#CCCCCC" d="M843 1517l1122 -1104 0 17 -1113 1096c-3,-3 -6,-5 -9,-8z"/>
   <path fill="#CCCCCC" d="M852 1525l1113 -1096 0 17 -1103 1087c-3,-3 -6,-5 -9,-8l0 1z"/>
   <path fill="#CCCCCC" d="M861 1533l1103 -1087 0 17 -1094 1078c-3,-3 -6,-5 -9,-8z"/>
   <path fill="#CCCCCC" d="M870 1541l1094 -1078 0 17 -1085 1068c-3,-3 -6,-5 -9,-8z"/>
   <path fill="#CACBCB" d="M879 1548l1085 -1068 0 17 -1076 1059c-3,-3 -6,-5 -9,-8z"/>
   <path fill="#CACBCB" d="M888 1556l1076 -1059 0 17 -1067 1050c-3,-3 -7,-5 -9,-8z"/>
   <path fill="#C8C8C9" d="M898 1564l1067 -1050 0 17 -1057 1041c-3,-3 -7,-5 -9,-8l-1 0z"/>
   <path fill="#C8C8C9" d="M908 1571l1057 -1041 0 17 -1048 1031c-3,-3 -7,-5 -10,-8l1 1z"/>
   <path fill="#C8C8C9" d="M918 1578l1048 -1031 0 17 -1038 1022c-3,-3 -7,-5 -10,-8z"/>
   <path fill="#C8C8C9" d="M927 1586l1038 -1022 0 17 -1028 1012c-3,-3 -7,-5 -10,-8l0 1z"/>
   <path fill="#C5C6C6" d="M937 1593l1028 -1012 0 17 -1018 1002c-3,-3 -7,-5 -10,-7l0 -1z"/>
   <path fill="#C5C6C6" d="M947 1600l1018 -1003 0 17 -1008 993c-3,-3 -7,-5 -10,-7z"/>
   <path fill="#C5C6C6" d="M957 1607l1008 -993 0 17 -998 982c-3,-3 -7,-4 -10,-7z"/>
   <path fill="#C4C5C5" d="M967 1614l998 -983 0 17 -988 972c-3,-3 -7,-4 -10,-7z"/>
   <path fill="#C4C5C5" d="M977 1621l988 -972 0 17 -977 962c-3,-3 -7,-4 -10,-7l-1 1z"/>
   <path fill="#C4C5C5" d="M988 1628l977 -962 0 17 -967 952c-3,-3 -7,-4 -11,-7l1 0z"/>
   <path fill="#C4C5C5" d="M998 1633l967 -952 0 17 -956 941c-3,-3 -7,-4 -11,-7l0 1z"/>
   <path fill="#C2C2C3" d="M1008 1640l956 -941 0 17 -945 931c-3,-2 -8,-4 -11,-7z"/>
   <path fill="#C2C2C3" d="M1019 1647l945 -931 0 17 -934 920c-3,-2 -8,-4 -11,-6z"/>
   <path fill="#C0C1C1" d="M1030 1653l934 -920 0 17 -923 909c-3,-2 -8,-4 -11,-6z"/>
   <path fill="#C0C1C1" d="M1041 1658l923 -909 0 17 -913 898c-3,-2 -8,-4 -11,-6z"/>
   <path fill="#C0C1C1" d="M1052 1665l913 -898 0 17 -901 888c-3,-2 -8,-4 -11,-6l-1 0z"/>
   <path fill="#C0C1C1" d="M1063 1671l901 -888 0 17 -890 876c-4,-2 -8,-4 -12,-6l1 1z"/>
   <path fill="#BEBEBF" d="M1074 1676l890 -876 0 17 -878 865c-4,-2 -8,-3 -12,-6z"/>
   <path fill="#BEBEBF" d="M1086 1682l878 -865 0 17 -867 853c-4,-2 -8,-3 -12,-6l0 1z"/>
   <path fill="#BCBDBD" d="M1098 1688l867 -853 0 17 -855 843c-4,-2 -8,-3 -12,-5l0 -1z"/>
   <path fill="#BCBDBD" d="M1109 1693l855 -843 0 6c0,4 0,8 0,12l-843 830c-4,-2 -8,-3 -12,-5z"/>
   <path fill="#BCBDBD" d="M1121 1698l843 -830c0,6 0,12 -1,18l-831 818c-4,-2 -8,-3 -12,-5l0 -1z"/>
   <path fill="#BCBDBD" d="M1133 1703l831 -818c0,6 -1,12 -1,18l-818 805c-4,-2 -8,-3 -13,-5l0 1z"/>
   <path fill="#BABBBB" d="M1145 1708l818 -805c0,6 -1,12 -2,18l-804 793c-4,-2 -8,-3 -13,-5l1 -1z"/>
   <path fill="#BABBBB" d="M1158 1713l804 -793c-1,6 -1,13 -2,18l-790 778c-4,-2 -8,-3 -13,-5l0 1z"/>
   <path fill="#BABBBB" d="M1170 1718l790 -778c-1,7 -2,13 -3,19l-776 763c-4,-2 -8,-3 -13,-4l1 0z"/>
   <path fill="#BABBBB" d="M1183 1722l776 -763c-1,7 -2,13 -3,19l-760 748c-4,-2 -8,-3 -13,-4l-1 0z"/>
   <path fill="#B8B9BA" d="M1195 1726l760 -748c-1,7 -3,13 -3,20l-744 733c-4,-2 -8,-3 -13,-4z"/>
   <path fill="#B8B9BA" d="M1208 1730l744 -733c-1,7 -3,14 -4,21l-727 716c-4,-2 -8,-3 -13,-4z"/>
   <path fill="#B6B7B7" d="M1221 1734l727 -716c-2,8 -3,14 -5,22l-709 698 -4 -1c-3,-1 -6,-2 -9,-3l1 -1z"/>
   <path fill="#B6B7B7" d="M1234 1738l709 -698c-2,8 -3,15 -6,23l-690 680 -13 -4z"/>
   <path fill="#B6B7B7" d="M1247 1742l690 -680c-2,8 -4,16 -7,23l-663 652 -19 6 -3 -1 2 0z"/>
   <path fill="#B6B7B7" d="M1269 1738l663 -652c-3,8 -5,16 -8,24l-630 620c-8,3 -16,5 -23,8l-1 0 -1 0z"/>
   <path fill="#B5B5B6" d="M1293 1730l630 -620c-3,8 -6,17 -8,25l-595 586c-8,3 -18,6 -26,8l-1 1z"/>
   <path fill="#B5B5B6" d="M1320 1721l595 -586c-3,9 -7,18 -10,27l-558 549c-9,3 -18,7 -28,10z"/>
   <path fill="#B5B5B6" d="M1347 1711l558 -549c-4,10 -8,19 -12,28l-517 508c-10,4 -19,8 -29,12l0 1z"/>
   <path fill="#B2B3B3" d="M1376 1699l517 -508c-4,10 -9,21 -14,31l-471 463c-11,5 -21,10 -32,14z"/>
   <path fill="#B2B3B3" d="M1408 1685l471 -463c-97,201 -268,368 -471,463z"/>
   <path fill="#264796" d="M603 325c419,-130 875,-130 1294,0l10 3 0 528c0,380 -296,723 -653,828l-4 1 -4 -1c-358,-104 -653,-448 -653,-828l0 -528 10 -3 1 0zm16 19l1288 0m0 0l-1288 0m1288 0l0 0 0 0z"/>
   <path fill="#264796" d="M619 344l1288 0 0 -16 -10 -3c-419,-130 -875,-130 -1294,0l-10 3 0 528c0,380 296,723 653,828l4 1 4 -1c358,-104 653,-448 653,-828l0 -512 -1288 0 -1 0z"/>
   <path fill="#234997" d="M619 344l1288 0 0 -16 -10 -3c-419,-130 -875,-130 -1294,0l-10 3 0 528c0,380 296,723 653,828l4 1 4 -1c358,-104 653,-448 653,-828l0 -512 -1288 0 -1 0z"/>
   <path fill="#234997" d="M619 344l1288 0 0 -16 -10 -3c-419,-130 -875,-130 -1294,0l-10 3 0 528c0,380 296,723 653,828l4 1 4 -1c358,-104 653,-448 653,-828l0 -512 -1288 0 -1 0z"/>
   <path fill="#264A98" d="M619 344l1288 0 0 -16 -10 -3c-419,-130 -875,-130 -1294,0l-10 3 0 528c0,380 296,723 653,828l4 1 4 -1c358,-104 653,-448 653,-828l0 -512 -1288 0 -1 0z"/>
   <path fill="#264A98" d="M619 344l1288 0 0 -16 -10 -3c-419,-130 -875,-130 -1294,0l-10 3 0 528c0,380 296,723 653,828l4 1 4 -1c358,-104 653,-448 653,-828l0 -512 -1288 0 -1 0z"/>
   <path fill="#244C99" d="M619 344l1288 0 0 -16 -10 -3c-419,-130 -875,-130 -1294,0l-10 3 0 528c0,380 296,723 653,828l4 1 4 -1c358,-104 653,-448 653,-828l0 -512 -1288 0 -1 0z"/>
   <path fill="#254D9A" d="M619 344l1288 0 0 -16 -10 -3c-419,-130 -875,-130 -1294,0l-10 3 0 528c0,380 296,723 653,828l4 1 4 -1c358,-104 653,-448 653,-828l0 -512 -1288 0 -1 0z"/>
   <path fill="#254D9A" d="M619 344l1288 0 0 -16 -10 -3c-419,-130 -875,-130 -1294,0l-10 3 0 528c0,380 296,723 653,828l4 1 4 -1c358,-104 653,-448 653,-828l0 -512 -1288 0 -1 0z"/>
   <path fill="#234E9B" d="M619 344l1288 0 0 -16 -10 -3c-419,-130 -875,-130 -1294,0l-10 3 0 528c0,380 296,723 653,828l4 1 4 -1c358,-104 653,-448 653,-828l0 -512 -1288 0 -1 0z"/>
   <path fill="#234E9B" d="M619 344l1288 0 0 -16 -10 -3c-419,-130 -875,-130 -1294,0l-10 3 0 528c0,380 296,723 653,828l4 1 4 -1c358,-104 653,-448 653,-828l0 -512 -1288 0 -1 0z"/>
   <path fill="#214F9C" d="M619 344l1288 0 0 -16 -10 -3c-419,-130 -875,-130 -1294,0l-10 3 0 528c0,380 296,723 653,828l4 1 4 -1c358,-104 653,-448 653,-828l0 -512 -1288 0 -1 0z"/>
   <path fill="#23519D" d="M619 344l1288 0 0 -16 -10 -3c-419,-130 -875,-130 -1294,0l-10 3 0 528c0,380 296,723 653,828l4 1 4 -1c358,-104 653,-448 653,-828l0 -512 -1288 0 -1 0z"/>
   <path fill="#23519D" d="M619 344l1288 0 0 -16 -10 -3c-419,-130 -875,-130 -1294,0l-10 3 0 528c0,380 296,723 653,828l4 1 4 -1c358,-104 653,-448 653,-828l0 -512 -1288 0 -1 0z"/>
   <path fill="#22529E" d="M619 344l1288 0 0 -16 -10 -3c-419,-130 -875,-130 -1294,0l-10 3 0 528c0,380 296,723 653,828l4 1 4 -1c358,-104 653,-448 653,-828l0 -512 -1288 0 -1 0z"/>
   <path fill="#2054A0" d="M619 344l1288 0 0 -16 -10 -3c-419,-130 -875,-130 -1294,0l-10 3 0 528c0,380 296,723 653,828l4 1 4 -1c358,-104 653,-448 653,-828l0 -512 -1288 0 -1 0z"/>
   <path fill="#2354A0" d="M619 344l1288 0 0 -16 -10 -3c-419,-130 -875,-130 -1294,0l-10 3 0 528c0,380 296,723 653,828l4 1 4 -1c358,-104 653,-448 653,-828l0 -512 -1288 0 -1 0z"/>
   <path fill="#2255A1" d="M619 344l1288 0 0 -16 -10 -3c-419,-130 -875,-130 -1294,0l-10 3 0 528c0,380 296,723 653,828l4 1 4 -1c358,-104 653,-448 653,-828l0 -512 -1288 0 -1 0z"/>
   <path fill="#1F56A2" d="M619 344l1288 0 0 -16 -10 -3c-419,-130 -875,-130 -1294,0l-10 3 0 528c0,380 296,723 653,828l4 1 4 -1c358,-104 653,-448 653,-828l0 -512 -1288 0 -1 0z"/>
   <path fill="#1F56A2" d="M619 344l1288 0 0 -16 -10 -3c-419,-130 -875,-130 -1294,0l-10 3 0 528c0,380 296,723 653,828l4 1 4 -1c358,-104 653,-448 653,-828l0 -512 -1288 0 -1 0z"/>
   <path fill="#1A58A3" d="M619 344l1288 0 0 -16 -10 -3c-419,-130 -875,-130 -1294,0l-10 3 0 528c0,380 296,723 653,828l4 1 4 -1c358,-104 653,-448 653,-828l0 -512 -1288 0 -1 0z"/>
   <path fill="#1E59A4" d="M619 344l1288 0 0 -16 -10 -3c-419,-130 -875,-130 -1294,0l-10 3 0 528c0,380 296,723 653,828l4 1 4 -1c358,-104 653,-448 653,-828l0 -512 -1288 0 -1 0z"/>
   <path fill="#1E59A4" d="M619 344l1288 0 0 -16 -10 -3c-419,-130 -875,-130 -1294,0l-10 3 0 528c0,380 296,723 653,828l4 1 4 -1c358,-104 653,-448 653,-828l0 -512 -1288 0 -1 0z"/>
   <path fill="#1B5BA5" d="M619 344l1288 0 0 -16 -10 -3c-419,-130 -875,-130 -1294,0l-10 3 0 528c0,380 296,723 653,828l4 1 4 -1c358,-104 653,-448 653,-828l0 -512 -1288 0 -1 0z"/>
   <path fill="#185CA6" d="M619 344l1288 0 0 -16 -10 -3c-419,-130 -875,-130 -1294,0l-10 3 0 528c0,380 296,723 653,828l4 1 4 -1c358,-104 653,-448 653,-828l0 -512 -1288 0 -1 0z"/>
   <path fill="#185CA6" d="M619 344l1288 0 0 -16 -10 -3c-419,-130 -875,-130 -1294,0l-10 3 0 528c0,380 296,723 653,828l4 1 4 -1c358,-104 653,-448 653,-828l0 -512 -1288 0 -1 0z"/>
   <path fill="#1A5DA8" d="M619 344l1288 0 0 -16 -10 -3c-419,-130 -875,-130 -1294,0l-10 3 0 528c0,380 296,723 653,828l4 1 4 -1c36,-11 72,-23 106,-38 152,-87 287,-198 398,-331 93,-135 148,-293 148,-458l0 -512 -1288 0z"/>
   <path fill="#1A5DA8" d="M619 344l1288 0 0 -16 -10 -3c-419,-130 -875,-130 -1294,0l-10 3 0 528c0,380 296,723 653,828l4 1 4 -1c1,0 1,0 2,-1 223,-107 416,-268 561,-466 58,-112 91,-234 91,-362l0 -512 -1288 0 -1 1z"/>
   <path fill="#175EA8" d="M619 344l1288 0 0 -16 -10 -3c-419,-130 -875,-130 -1294,0l-10 3 0 528c0,375 287,713 637,823 254,-117 470,-304 621,-537 36,-91 56,-187 56,-286l0 -512 -1288 0z"/>
   <path fill="#1A60AA" d="M619 344l1288 0 0 -16 -10 -3c-419,-130 -875,-130 -1294,0l-10 3 0 528c0,368 276,700 617,816 278,-124 511,-333 663,-594 22,-72 33,-146 33,-222l0 -512 -1288 0 1 0z"/>
   <path fill="#1A60AA" d="M619 344l1288 0 0 -16 -10 -3c-419,-130 -875,-130 -1294,0l-10 3 0 528c0,360 265,687 597,809 299,-129 546,-358 698,-643 13,-54 18,-109 18,-166l0 -512 -1288 0 1 0z"/>
   <path fill="#1861AB" d="M619 344l1288 0 0 -16 -10 -3c-419,-130 -875,-130 -1294,0l-10 3 0 528c0,353 255,674 577,802 318,-133 577,-379 728,-687 6,-38 9,-76 9,-115l0 -512 -1288 0z"/>
   <path fill="#1861AB" d="M619 344l1288 0 0 -16 -10 -3c-419,-130 -875,-130 -1294,0l-10 3 0 528c0,346 245,661 558,793 334,-137 604,-398 753,-725 3,-23 3,-46 3,-68l0 -512 -1288 0z"/>
   <path fill="#1563AC" d="M619 344l1288 0 0 -16 -10 -3c-419,-130 -875,-130 -1294,0l-10 3 0 528c0,339 235,648 540,786 349,-138 629,-413 774,-759 0,-8 1,-18 1,-26l0 -512 -1288 0 -1 -1z"/>
   <path fill="#1765AD" d="M619 344l1288 0 0 -16 -10 -3c-419,-130 -875,-130 -1294,0l-10 3 0 528c0,333 226,636 522,777 363,-140 653,-428 793,-792l0 -498 -1288 0 -1 1z"/>
   <path fill="#1765AD" d="M619 344l1288 0 0 -16 -10 -3c-419,-130 -875,-130 -1294,0l-10 3 0 528c0,326 217,624 503,768 378,-141 676,-444 811,-824l0 -456 -1288 0z"/>
   <path fill="#1466AE" d="M619 344l1288 0 0 -16 -10 -3c-419,-130 -875,-130 -1294,0l-10 3 0 528c0,319 207,612 486,759 393,-143 701,-461 828,-861l0 -410 -1288 0z"/>
   <path fill="#1466AE" d="M619 344l1288 0 0 -16 -10 -3c-419,-130 -875,-130 -1294,0l-10 3 0 528c0,313 199,599 469,750 410,-143 728,-481 846,-902l0 -359 -1288 0 -1 0z"/>
   <path fill="#1868B0" d="M619 344l1288 0 0 -16 -10 -3c-419,-130 -875,-130 -1294,0l-10 3 0 528c0,306 191,588 452,740 428,-146 758,-505 863,-952l0 -301 -1288 0 -1 1z"/>
   <path fill="#1669B1" d="M619 344l1288 0 0 -16 -10 -3c-419,-130 -875,-130 -1294,0l-10 3 0 528c0,299 183,576 436,731 452,-148 795,-537 878,-1014l0 -228 -1288 0z"/>
   <path fill="#1669B1" d="M619 344l1288 0 0 -16 -10 -3c-419,-130 -875,-130 -1294,0l-10 3 0 528c0,293 175,564 419,720 486,-155 848,-590 895,-1115l0 -118 -1288 0 0 1z"/>
   <path fill="#126AB2" d="M619 344l1279 0c0,-7 0,-13 0,-18l-1 0c-419,-130 -875,-130 -1294,0l-10 3 0 528c0,287 168,553 404,710 522,-161 901,-648 901,-1223l-1279 0z"/>
   <path fill="#126AB2" d="M619 344l1264 0c0,-8 0,-16 0,-23 -415,-126 -866,-124 -1280,4l-10 3 0 528c0,280 161,541 388,699 522,-156 903,-639 903,-1212l-1264 0 -1 1z"/>
   <path fill="#156BB3" d="M619 344l1250 0c0,-9 0,-18 0,-28 -411,-122 -856,-118 -1266,8l-10 3 0 528c0,274 153,529 373,689 522,-151 903,-631 903,-1201l-1250 0z"/>
   <path fill="#116DB4" d="M619 344l1235 0c0,-11 0,-21 0,-32 -407,-118 -847,-113 -1251,13l-10 3 0 528c0,268 147,518 358,678 521,-145 903,-623 903,-1190l-1235 0 0 1z"/>
   <path fill="#116DB4" d="M619 344l1221 0c0,-12 0,-24 -1,-36 -403,-113 -837,-108 -1237,18l-10 3 0 528c0,262 140,506 344,667 520,-140 903,-615 903,-1179l-1221 0 1 0z"/>
   <path fill="#166FB5" d="M619 344l1206 0c0,-13 0,-27 -1,-40 -398,-108 -827,-102 -1222,21l-10 3 0 528c0,256 133,495 330,656 519,-135 903,-607 903,-1168l-1206 0z"/>
   <path fill="#1370B7" d="M619 344l1192 0c0,-15 0,-29 -1,-44 -394,-104 -817,-96 -1207,25l-10 3 0 528c0,250 128,483 317,644 518,-129 902,-598 902,-1156l-1192 0 -1 0z"/>
   <path fill="#1370B7" d="M619 344l1178 0c0,-16 0,-32 -1,-48 -390,-101 -808,-91 -1193,29l-10 3 0 528c0,244 122,473 302,633 517,-124 901,-589 901,-1144l-1178 0 0 -1z"/>
   <path fill="#1071B8" d="M619 344l1163 0c0,-18 -1,-34 -1,-52 -386,-97 -798,-86 -1178,33l-10 3 0 528c0,238 116,461 290,621 515,-119 899,-581 899,-1133l-1163 0 -1 0z"/>
   <path fill="#0D73B9" d="M619 344l1148 0c0,-18 -1,-37 -2,-55 -382,-92 -788,-81 -1163,37l-10 3 0 528c0,232 110,450 277,608 513,-114 898,-573 898,-1121l-1148 0 1 0z"/>
   <path fill="#1473B9" d="M619 344l1133 0c0,-20 -1,-39 -2,-58 -378,-88 -778,-76 -1148,40l-10 3 0 528c0,226 104,439 264,597 512,-109 896,-564 896,-1108l-1133 0 0 -1z"/>
   <path fill="#1175BB" d="M619 344l1119 0c0,-21 -1,-42 -2,-62 -373,-85 -768,-71 -1133,43l-10 3 0 528c0,220 99,428 252,584 510,-104 893,-556 893,-1096l-1119 0 -1 -1z"/>
   <path fill="#1176BB" d="M619 344l1104 0c0,-22 -1,-43 -2,-65 -368,-82 -758,-66 -1118,47l-10 3 0 528c0,214 94,417 240,572 508,-100 891,-547 891,-1083l-1104 0 -1 -1z"/>
   <path fill="#1176BB" d="M619 344l1090 0c0,-23 -1,-46 -3,-68 -364,-78 -748,-61 -1104,50l-10 3 0 528c0,208 89,406 228,559 505,-95 888,-538 888,-1071l-1090 0 1 -1z"/>
   <path fill="#1178BD" d="M619 344l1075 0c0,-24 -1,-48 -3,-72 -360,-74 -738,-57 -1089,53l-10 3 0 528c0,203 84,395 218,547 503,-90 884,-530 884,-1058l-1075 0z"/>
   <path fill="#0E79BE" d="M619 344l1061 0c0,-25 -1,-50 -3,-75 -356,-71 -728,-52 -1074,56l-10 3 0 528c0,198 79,384 206,533 500,-85 881,-521 881,-1046l-1061 0 0 1z"/>
   <path fill="#0E79BE" d="M619 344l1047 0c0,-26 -1,-52 -3,-78 -351,-67 -718,-47 -1060,58l-10 3 0 528c0,192 75,374 195,521 498,-81 878,-513 878,-1033l-1047 0z"/>
   <path fill="#0B7ABF" d="M619 344l1032 0c0,-27 -1,-54 -3,-80 -347,-64 -708,-43 -1045,62l-10 3 0 528c0,186 71,363 185,508 495,-77 873,-503 873,-1020l-1032 0z"/>
   <path fill="#0B7ABF" d="M619 344l1018 0c0,-28 -1,-56 -3,-83 -342,-61 -698,-39 -1030,64l-10 3 0 528c0,180 67,353 174,494 492,-72 869,-495 869,-1007l-1018 0 0 1z"/>
   <path fill="#0F7CC0" d="M619 344l1003 0c0,-29 -2,-58 -3,-86 -338,-58 -688,-35 -1015,67l-10 3 0 528c0,175 63,342 165,481 488,-68 864,-487 864,-993l-1003 0 -1 1z"/>
   <path fill="#0B7DC1" d="M619 344l988 0c0,-30 -2,-59 -4,-88 -333,-54 -678,-31 -1001,69l-10 3 0 528c0,169 58,331 155,468 485,-63 859,-478 859,-980l-988 0 1 1z"/>
   <path fill="#0B7DC1" d="M619 344l973 0c0,-31 -2,-61 -4,-90 -328,-51 -668,-28 -986,72l-10 3 0 528c0,163 55,321 146,454 482,-59 854,-469 854,-967l-973 0z"/>
   <path fill="#0E7FC2" d="M619 344l959 0c0,-32 -2,-63 -4,-93 -323,-48 -658,-23 -971,73l-10 3 0 528c0,158 51,310 137,441 478,-55 848,-460 848,-953l-959 0z"/>
   <path fill="#0E7FC2" d="M619 344l944 0c0,-32 -2,-63 -5,-95 -319,-45 -648,-20 -956,76l-10 3 0 528c0,153 48,299 128,428 474,-51 843,-452 843,-939l-944 0z"/>
   <path fill="#0B80C4" d="M619 344l930 0c0,-33 -2,-65 -5,-97 -314,-43 -638,-17 -942,78l-10 3 0 528c0,147 44,289 119,413 470,-47 837,-443 837,-925l-930 0 1 -1z"/>
   <path fill="#0882C5" d="M619 344l916 0c0,-33 -2,-67 -5,-99 -310,-40 -628,-13 -927,80l-10 3 0 528c0,142 41,278 111,399 466,-43 831,-434 831,-912l-916 0 0 1z"/>
   <path fill="#0882C5" d="M619 344l901 0c0,-34 -2,-68 -6,-101 -305,-37 -618,-10 -912,82l-10 3 0 528c0,137 38,268 103,386 462,-39 824,-426 824,-898l-901 0z"/>
   <path fill="#0E84C6" d="M619 344l887 0c0,-35 -2,-69 -6,-103 -300,-34 -608,-7 -897,83l-10 3 0 528c0,131 35,258 96,372 457,-36 817,-418 817,-883l-887 0z"/>
   <path fill="#0E84C6" d="M619 344l872 0c0,-35 -3,-70 -6,-104 -296,-32 -598,-3 -882,85l-10 3 0 528c0,126 33,248 88,358 453,-32 810,-409 810,-870l-872 0 -1 1z"/>
   <path fill="#0C85C7" d="M619 344l858 0c0,-36 -3,-71 -7,-106 -291,-29 -588,0 -868,87l-10 3 0 528c0,120 30,237 82,343 448,-28 803,-401 803,-856l-858 0 0 1z"/>
   <path fill="#0C86C8" d="M619 344l843 0c0,-36 -3,-72 -7,-107 -286,-27 -578,3 -853,88l-10 3 0 528c0,115 28,227 75,329 443,-25 794,-393 794,-842l-843 0z"/>
   <path fill="#0C86C8" d="M619 344l828 0c0,-37 -3,-73 -7,-108 -282,-24 -568,5 -837,89l-10 3 0 528c0,110 25,217 68,315 438,-22 787,-384 787,-828l-828 0 -1 1z"/>
   <path fill="#1088CA" d="M619 344l814 0c0,-38 -3,-73 -8,-109 -277,-23 -558,8 -822,91l-10 3 0 528c0,104 23,206 63,301 432,-19 777,-376 777,-813l-814 0z"/>
   <path fill="#1088CA" d="M619 344l799 0c0,-38 -3,-74 -8,-111 -272,-20 -547,11 -807,92l-10 3 0 528c0,99 20,196 57,287 428,-16 769,-368 769,-798l-799 0 -1 0z"/>
   <path fill="#1089CA" d="M619 344l785 0c0,-38 -3,-75 -8,-112 -267,-18 -537,13 -793,93l-10 3 0 528c0,94 18,186 51,273 422,-13 760,-359 760,-784l-785 0 1 0z"/>
   <path fill="#138BCC" d="M619 344l770 0c0,-38 -3,-76 -8,-113 -263,-16 -527,16 -778,94l-10 3 0 528c0,89 16,176 46,258 417,-10 751,-351 751,-770l-770 0 0 -1z"/>
   <path fill="#138BCC" d="M619 344l756 0c0,-38 -3,-77 -8,-113 -258,-13 -517,18 -763,95l-10 3 0 528c0,83 14,166 41,243 411,-8 742,-343 742,-756l-756 0 -1 0z"/>
   <path fill="#108CCD" d="M619 344l741 0c0,-39 -3,-77 -9,-114 -253,-12 -507,20 -748,95l-10 3 0 528c0,78 13,156 36,229 405,-5 732,-335 732,-741l-741 0z"/>
   <path fill="#0A8ECE" d="M619 344l727 0c0,-39 -3,-78 -9,-115 -248,-10 -497,23 -734,96l-10 3 0 528c0,73 11,145 32,214 399,-3 722,-327 722,-727l-727 0 0 1z"/>
   <path fill="#0A8ECE" d="M619 344l712 0c0,-39 -3,-78 -9,-115 -243,-7 -487,24 -719,97l-10 3 0 528c0,68 9,135 28,200 393,-1 711,-319 711,-712l-712 0 0 -1z"/>
   <path fill="#078FCF" d="M619 344l698 0c0,-39 -3,-78 -10,-116 -238,-6 -477,26 -704,97l-10 3 0 528c0,63 8,125 23,186 1,0 2,0 3,0 385,0 697,-313 697,-698l-697 0 1 0z"/>
   <path fill="#0591D0" d="M619 344l683 0c0,-40 -3,-78 -10,-116 -233,-4 -467,28 -689,98l-10 3 0 528c0,58 7,115 20,171 3,0 4,0 7,0 378,0 683,-306 683,-683l-683 0 -1 0z"/>
   <path fill="#0591D0" d="M619 344l668 0c0,-40 -3,-78 -10,-117 -228,-3 -457,30 -675,98l-10 3 0 528c0,53 6,105 17,157 3,0 7,0 10,0 369,0 668,-299 668,-668l-668 0z"/>
   <path fill="#0092D1" d="M619 344l654 0c0,-40 -3,-78 -10,-117 -223,-2 -447,31 -660,98l-10 3 0 528c0,48 5,95 13,142 4,0 8,0 13,0 361,0 654,-293 654,-654l-654 0 0 1z"/>
   <path fill="#0194D2" d="M619 344l639 0c0,-40 -3,-79 -11,-117 -218,0 -436,33 -645,98l-10 3 0 528c0,43 4,86 11,128 5,0 10,0 15,0 353,0 639,-287 639,-639l-639 0 1 0z"/>
   <path fill="#0194D2" d="M619 344l625 0c0,-40 -4,-78 -11,-117 -213,2 -426,34 -630,98l-10 3 0 528c0,38 3,76 8,113 6,0 12,0 18,0 345,0 625,-280 625,-625l-625 0 0 1z"/>
   <path fill="#0095D4" d="M619 344l610 0c0,-40 -4,-78 -11,-117 -208,3 -416,36 -616,98l-10 3 0 528c0,33 3,66 7,98 7,0 13,0 20,0 338,0 610,-273 610,-610l-610 0z"/>
   <path fill="#0096D4" d="M619 344l596 0c0,-40 -4,-78 -12,-116 -203,4 -406,37 -601,98l-10 3 0 528c0,28 2,56 5,83 8,0 14,1 22,1 329,0 596,-267 596,-596l-596 0 0 -1z"/>
   <path fill="#0096D4" d="M619 344l582 0c0,-40 -4,-78 -12,-116 -198,6 -396,38 -586,97l-10 3 0 528c0,23 1,46 3,69 8,0 15,1 23,1 321,0 582,-260 582,-582l-582 0 -1 0z"/>
   <path fill="#0898D6" d="M619 344l567 0c0,-39 -4,-78 -12,-115 -193,7 -386,39 -572,97l-10 3 0 528c0,18 1,36 2,54 8,0 16,1 24,1 313,0 567,-253 567,-567l-567 0 1 -1z"/>
   <path fill="#0898D6" d="M619 344l553 0c0,-39 -4,-78 -12,-115 -188,8 -376,40 -557,96l-10 3 0 528c0,13 0,27 1,40 8,0 17,1 25,1 305,0 553,-248 553,-553l-553 0z"/>
   <path fill="#0899D7" d="M619 344l538 0c0,-39 -4,-78 -13,-114 -183,9 -366,41 -542,95l-10 3 0 528c0,8 0,17 1,25 8,0 18,1 26,1 297,0 538,-241 538,-538l-538 0z"/>
   <path fill="#0E9BD8" d="M619 344l523 0c0,-39 -4,-77 -13,-113 -178,10 -356,41 -527,94l-10 3 0 528c0,3 0,7 0,11 8,1 18,1 26,1 289,0 523,-234 523,-523l-523 0z"/>
   <path fill="#0E9BD8" d="M619 344l508 0c0,-38 -4,-77 -13,-113 -173,11 -346,42 -513,93l-10 3 0 523c8,1 18,1 27,1 281,0 508,-228 508,-508l-508 0z"/>
   <path fill="#0E9CD9" d="M619 344l494 0c0,-38 -4,-76 -13,-112 -168,12 -336,43 -497,93l-10 3 0 509c8,1 18,1 27,1 273,0 494,-221 494,-494l-494 0 -1 0z"/>
   <path fill="#0E9CD9" d="M619 344l479 0c0,-38 -4,-75 -13,-111 -163,13 -326,43 -483,92l-10 3 0 495c8,1 18,1 27,1 265,0 479,-215 479,-479l-479 0 0 -1z"/>
   <path fill="#0E9EDA" d="M619 344l465 0c0,-38 -4,-74 -13,-109 -158,13 -316,43 -468,90l-10 3 0 480c8,1 18,1 27,1 257,0 465,-208 465,-465l-465 0z"/>
   <path fill="#14A0DB" d="M619 344l451 0c0,-38 -4,-73 -13,-108 -153,13 -306,43 -453,89l-10 3 0 466c8,1 18,1 27,1 249,0 451,-202 451,-451l-451 0 -1 0z"/>
   <path fill="#14A0DB" d="M619 344l436 0c0,-37 -5,-73 -13,-107 -148,14 -296,43 -439,88l-10 3 0 451c8,1 18,1 27,1 241,0 436,-195 436,-436l-436 0z"/>
   <path fill="#12A1DC" d="M619 344l422 0c0,-37 -5,-72 -13,-105 -144,15 -286,43 -424,87l-10 3 0 437c8,1 18,1 27,1 233,0 422,-188 422,-422l-422 0 -1 -1z"/>
   <path fill="#12A1DC" d="M619 344l407 0c0,-36 -5,-71 -13,-103 -139,15 -276,43 -410,85l-10 3 0 422c8,1 18,1 27,1 225,0 407,-183 407,-407l-407 0 0 -1z"/>
   <path fill="#15A3DD" d="M619 344l393 0c0,-35 -5,-69 -13,-103 -134,16 -267,43 -395,83l-10 3 0 408c8,1 18,1 27,1 217,0 393,-176 393,-393l-393 0 -1 0z"/>
   <path fill="#14A4DE" d="M619 344l378 0c0,-35 -5,-68 -13,-100 -129,16 -257,43 -381,82l-10 3 0 393c8,1 18,1 27,1 208,0 378,-169 378,-378l-378 0 0 -1z"/>
   <path fill="#14A4DE" d="M619 344l363 0c0,-34 -5,-68 -13,-98 -124,16 -247,43 -366,80l-10 3 0 378c8,1 18,1 27,1 201,0 363,-163 363,-363l-363 0 -1 -1z"/>
   <path fill="#14A5DF" d="M619 344l349 0c0,-33 -5,-66 -13,-97 -119,16 -237,42 -352,78l-10 3 0 363c8,1 18,1 27,1 193,0 349,-156 349,-349l-349 0 -1 1z"/>
   <path fill="#14A5DF" d="M619 344l334 0c0,-33 -5,-65 -13,-95 -114,16 -227,42 -337,76l-10 3 0 349c8,1 18,1 27,1 185,0 334,-150 334,-334l-334 0 -1 0z"/>
   <path fill="#1AA7E0" d="M619 344l320 0c0,-33 -5,-63 -13,-93 -109,17 -217,41 -322,73l-10 3 0 334c8,1 18,1 27,1 177,0 320,-143 320,-320l-320 0 -1 1z"/>
   <path fill="#18A8E1" d="M619 344l305 0c0,-32 -5,-62 -13,-90 -104,17 -207,40 -307,72l-10 3 0 320c8,1 18,1 27,1 168,0 305,-137 305,-305l-305 0 -1 -1z"/>
   <path fill="#18A8E1" d="M619 344l291 0c0,-31 -5,-60 -13,-88 -99,16 -198,39 -293,69l-10 3 0 305c8,1 18,1 27,1 161,0 291,-130 291,-291l-291 0 -1 1z"/>
   <path fill="#14A9E2" d="M619 344l276 0c0,-30 -5,-58 -13,-86 -94,16 -188,38 -279,67l-10 3 0 291c8,1 18,2 27,2 153,0 276,-123 276,-276l-276 0 0 -1z"/>
   <path fill="#0EABE3" d="M619 344l262 0c0,-29 -5,-57 -13,-83 -89,16 -178,38 -264,64l-10 3 0 276c8,1 18,2 27,2 144,0 262,-118 262,-262l-262 0 -1 0z"/>
   <path fill="#12ABE3" d="M619 344l247 0c0,-28 -5,-55 -13,-80 -84,16 -168,36 -250,62l-10 3 0 262c8,1 18,2 27,2 137,0 247,-111 247,-247l-247 0 0 -2z"/>
   <path fill="#0FACE4" d="M619 344l233 0c0,-28 -5,-53 -13,-78 -79,15 -158,35 -236,59l-10 3 0 247c8,1 18,2 27,2 128,0 233,-104 233,-233l-233 0 0 -1z"/>
   <path fill="#09ADE5" d="M619 344l218 0c0,-27 -5,-52 -13,-75 -74,15 -148,33 -221,56l-10 3 0 233c8,1 18,2 27,2 120,0 218,-98 218,-218l-218 0 -1 0z"/>
   <path fill="#11AEE5" d="M619 344l203 0c0,-25 -5,-50 -13,-72 -70,14 -138,32 -207,53l-10 3 0 218c8,1 18,2 27,2 113,0 203,-91 203,-203l-203 0 0 -1z"/>
   <path fill="#0BB0E6" d="M619 344l189 0c0,-24 -5,-48 -13,-69 -65,13 -129,31 -193,50l-10 3 0 203c8,1 18,2 27,2 104,0 189,-84 189,-189l-189 0 0 1z"/>
   <path fill="#08B1E7" d="M619 344l174 0c0,-23 -5,-46 -13,-66 -60,13 -119,29 -177,47l-10 3 0 188c8,2 18,2 27,2 97,0 174,-78 174,-174l-174 0 -1 0z"/>
   <path fill="#08B1E7" d="M619 344l160 0c0,-23 -4,-43 -13,-63 -55,13 -109,27 -163,44l-10 3 0 173c8,2 18,3 27,3 88,0 160,-72 160,-160l-160 0 -1 -1z"/>
   <path fill="#05B2E8" d="M619 344l145 0c0,-21 -4,-41 -13,-59 -50,12 -100,25 -149,41l-10 3 0 158c8,2 18,3 27,3 80,0 145,-65 145,-145l-145 0 0 -1z"/>
   <path fill="#0CB4E9" d="M619 344l131 0c0,-20 -4,-39 -13,-56 -45,11 -90,23 -134,37l-10 3 0 144c8,2 18,3 27,3 73,0 131,-58 131,-131l-131 0 -1 0z"/>
   <path fill="#0CB4E9" d="M619 344l117 0c0,-19 -4,-37 -13,-53 -40,10 -80,21 -120,33l-10 3 0 129c8,2 18,3 27,3 64,0 117,-52 117,-117l-117 0 -1 0z"/>
   <path fill="#0BB5EA" d="M619 344l102 0c0,-18 -4,-34 -13,-48 -35,9 -71,19 -106,30l-10 3 0 114c8,3 18,3 27,3 56,0 102,-46 102,-102l-102 0 0 -1z"/>
   <path fill="#0BB5EA" d="M619 344l88 0c0,-17 -4,-32 -13,-45 -31,8 -61,17 -91,26l-10 3 0 99c8,3 18,4 27,4 48,0 88,-39 88,-88l-88 0 -1 0z"/>
   <path fill="#16B7EB" d="M619 344l73 0c0,-15 -5,-29 -13,-41 -26,7 -51,14 -76,23l-10 3 0 83c8,3 17,5 27,5 40,0 73,-33 73,-73l-73 0 -1 -1z"/>
   <path fill="#15B8EC" d="M619 344l58 0c0,-14 -5,-27 -13,-37 -21,6 -41,12 -61,18l-10 3 0 68c8,4 17,7 27,7 33,0 58,-26 58,-58l-58 0 -1 -1z"/>
   <path fill="#15B8EC" d="M619 344l43 0c0,-13 -6,-24 -14,-33 -15,4 -30,9 -45,13l-10 3 0 51c8,6 17,9 27,9 24,0 43,-19 43,-43l-43 0 -1 -1z"/>
   <path fill="#15B9ED" d="M619 344l29 0c0,-13 -8,-23 -18,-27 -9,3 -18,5 -27,8l-8 3c-1,2 -2,3 -3,4l0 25c5,10 15,17 27,17 16,0 29,-13 29,-29l-29 0 -1 -1z"/>
   <path fill="#15B9ED" d="M619 344l14 0c0,-8 -7,-14 -14,-14 -8,0 -14,7 -14,14 0,8 7,14 14,14 8,0 14,-7 14,-14l-14 0z"/>
   <path fill="#244082" d="M624 347c415,-129 867,-130 1283,-3l0 -15 -10 -3c-419,-130 -875,-130 -1294,0l-10 3 0 528c0,228 107,443 269,602 -151,-156 -248,-362 -248,-580l0 -528 10 -3 1 0z"/>
   <path fill="#FEFEFE" d="M1473 1618l324 -310c-82,126 -194,233 -324,310z"/>
   <path fill="#FEFEFE" d="M1797 1308l-324 310c-13,8 -28,16 -41,23l96 -92c74,-53 141,-117 197,-188l97 -93c-8,13 -16,27 -24,39l0 1z"/>
   <path fill="#FEFEFE" d="M1821 1268l-97 93c13,-18 27,-35 39,-53l77 -73c-6,12 -13,23 -19,34zm-293 281l-96 92c-12,6 -23,13 -36,18l76 -73c19,-12 38,-24 56,-37z"/>
   <path fill="#FCFCFC" d="M1840 1234l-77 73c9,-13 18,-28 27,-42l66 -63c-5,11 -10,21 -16,31zm-368 353l-76 73c-11,5 -22,10 -33,14l65 -63c15,-8 29,-16 43,-25l0 1z"/>
   <path fill="#FCFCFC" d="M1856 1203l-66 63c7,-12 14,-23 20,-36l58 -56c-4,10 -8,19 -13,29l1 0zm-427 408l-65 63c-10,4 -20,8 -30,12l58 -55c13,-6 25,-13 37,-19l1 0z"/>
   <path fill="#FCFCFC" d="M1868 1174l-58 56c6,-11 11,-21 17,-32l53 -51c-3,9 -8,18 -11,27l-1 0zm-477 456l-58 55c-9,3 -18,7 -28,10l53 -50c11,-5 22,-10 33,-15l-1 0z"/>
   <path fill="#FBFBFB" d="M1880 1148l-53 51c5,-10 9,-19 13,-29l49 -48c-3,8 -6,17 -9,26zm-520 498l-53 50c-8,3 -18,6 -26,8l48 -47c10,-4 20,-8 30,-13l0 1z"/>
   <path fill="#FBFBFB" d="M1889 1122l-49 48c4,-9 8,-18 12,-28l46 -44c-3,8 -5,16 -8,24zm-560 536l-48 47c-6,2 -13,4 -18,6l-6 2 45 -43c9,-3 19,-7 28,-11l-1 0z"/>
   <path fill="#FBFBFB" d="M1898 1098l-46 44c3,-8 7,-17 10,-26l43 -42c-3,8 -5,16 -7,23l-1 0zm-596 571l-45 43 -6 2 -10 -3 35 -33c9,-3 18,-6 27,-9l-1 0z"/>
   <path fill="#FBFBFB" d="M1904 1074l-43 42c3,-8 6,-16 8,-24l41 -39c-2,8 -4,15 -6,23l0 -1zm-629 603l-35 33 -2 -1c-3,-1 -8,-3 -11,-3l23 -22 0 0 4 -1c7,-2 14,-4 21,-7z"/>
   <path fill="#F9F9F9" d="M1910 1053l-41 39c3,-8 5,-15 8,-23l39 -38c-2,8 -3,14 -5,22l-1 0zm-661 633l-23 22c-4,-2 -8,-3 -13,-4l23 -22c3,1 6,2 9,3l4 1 -1 1z"/>
   <path fill="#F9F9F9" d="M1916 1031l-39 38c3,-8 4,-15 6,-23l38 -36c-2,7 -3,13 -4,21zm-678 649l-23 22c-4,-2 -8,-3 -13,-4l23 -22c4,2 8,3 13,4z"/>
   <path fill="#F7F7F7" d="M1920 1011l-38 36c2,-7 3,-14 5,-22l36 -35c-1,7 -3,13 -4,20l1 1zm-696 666l-23 22c-4,-2 -8,-3 -13,-4l23 -22c4,2 8,3 13,4z"/>
   <path fill="#F7F7F7" d="M1924 991l-36 35c2,-7 3,-13 4,-21l35 -33c-1,7 -2,13 -3,19zm-713 682l-23 22c-4,-2 -8,-3 -13,-4l23 -21c4,2 8,3 13,4l0 -1z"/>
   <path fill="#F7F7F7" d="M1927 971l-35 33c2,-7 3,-13 4,-20l33 -33c-1,7 -2,13 -3,19zm-728 697l-23 21c-4,-2 -8,-3 -13,-5l22 -21c4,2 8,3 13,4l1 1z"/>
   <path fill="#F7F7F7" d="M1930 953l-33 33c1,-7 3,-13 3,-19l33 -32c-1,6 -2,13 -3,18zm-743 711l-22 21c-4,-2 -8,-3 -13,-5l22 -21c4,2 8,3 13,5z"/>
   <path fill="whitesmoke" d="M1932 934l-33 32c1,-6 2,-13 3,-19l32 -30c-1,6 -1,12 -2,18zm-758 725l-22 21c-4,-2 -8,-3 -12,-5l22 -21c4,2 8,3 12,5z"/>
   <path fill="whitesmoke" d="M1933 916l-32 30c1,-6 2,-13 2,-18l31 -29c0,6 -1,12 -1,18zm-771 738l-22 21c-4,-2 -8,-3 -12,-5l22 -21c4,2 8,3 12,5z"/>
   <path fill="whitesmoke" d="M1934 899l-31 29c1,-6 1,-12 2,-18l30 -29c0,6 -1,12 -1,17l0 1zm-784 751l-22 21c-4,-2 -8,-3 -12,-5l22 -21c4,2 8,3 12,5z"/>
   <path fill="whitesmoke" d="M1935 882l-30 29c1,-6 1,-12 1,-18l29 -28c0,6 0,11 0,17zm-797 763l-22 21c-4,-2 -8,-3 -12,-5l22 -21c4,2 8,3 12,5z"/>
   <path fill="#F3F4F4" d="M1936 865l-29 28c0,-6 1,-12 1,-17l29 -28 0 8c0,3 0,6 0,9l-1 -1zm-808 774l-22 21c-4,-2 -8,-3 -12,-6l22 -20c4,2 8,3 12,5z"/>
   <path fill="#F3F4F4" d="M1936 848l-29 28c0,-6 0,-11 0,-17l28 -28 0 17 1 0zm-820 785l-22 20c-4,-2 -8,-3 -12,-6l21 -20c4,2 8,3 12,6l1 0z"/>
   <path fill="#F1F1F1" d="M1936 833l-28 28c0,-1 0,-3 0,-3l0 -13 28 -28 0 17 0 -1zm-832 796l-21 20c-3,-2 -8,-4 -11,-6l21 -20c3,2 8,4 11,6z"/>
   <path fill="#F1F1F1" d="M1936 816l-28 28 0 -17 28 -28 0 17zm-843 807l-21 20c-3,-2 -8,-4 -11,-6l21 -20c3,2 8,4 11,6z"/>
   <path fill="#F1F1F1" d="M1936 800l-28 28 0 -17 28 -28 0 17zm-854 818l-21 20c-3,-2 -8,-4 -11,-6l21 -20c3,2 8,4 11,6z"/>
   <path fill="#F1F1F1" d="M1936 783l-28 28 0 -17 28 -28 0 17zm-865 828l-21 20c-3,-2 -8,-4 -11,-6l21 -20c3,2 8,4 11,6z"/>
   <path fill="#F0F0F0" d="M1936 767l-28 28 0 -17 28 -28 0 17zm-876 838l-21 20c-3,-2 -7,-4 -11,-6l21 -20c3,2 8,4 11,6z"/>
   <path fill="#F0F0F0" d="M1936 751l-28 28 0 -17 28 -28 0 17zm-887 848l-21 20c-3,-2 -7,-4 -11,-7l21 -20c3,3 7,4 11,6l0 1z"/>
   <path fill="#EEEEEE" d="M1936 734l-28 28 0 -17 28 -28 0 17zm-897 858l-21 20c-3,-3 -7,-4 -11,-7l21 -20c3,3 7,4 11,7z"/>
   <path fill="#EEEEEE" d="M1936 718l-28 27 0 -17 28 -28 0 17zm-908 868l-21 20c-3,-3 -7,-4 -10,-7l21 -20c3,3 7,4 10,7z"/>
   <path fill="#EEEEEE" d="M1936 702l-28 28 0 -17 28 -28 0 17zm-918 878l-21 20c-3,-3 -7,-4 -10,-7l21 -20c3,3 7,4 10,7z"/>
   <path fill="#EEEEEE" d="M1936 686l-28 28 0 -17 28 -28 0 17zm-928 888l-21 20c-3,-3 -7,-4 -10,-7l21 -20c3,3 7,4 10,7z"/>
   <path fill="#EBECEC" d="M1936 669l-28 28 0 -17 28 -28 0 17zm-938 898l-21 20c-3,-3 -7,-4 -10,-7l21 -20c3,3 7,4 10,7z"/>
   <path fill="#EBECEC" d="M1936 653l-28 28 0 -17 28 -28 0 17zm-948 908l-21 20c-3,-3 -7,-5 -10,-7l21 -19c3,3 7,4 10,7l0 -1z"/>
   <path fill="#EBECEC" d="M1936 637l-28 28 0 -17 28 -28 0 17zm-958 917l-21 19c-3,-3 -7,-5 -10,-7l21 -20c3,3 7,5 10,7l0 1z"/>
   <path fill="#EAEAEA" d="M1936 620l-28 28 0 -17 28 -28 0 17zm-968 926l-21 20c-3,-3 -7,-5 -10,-8l20 -19c3,3 7,5 10,8l1 -1z"/>
   <path fill="#EAEAEA" d="M1936 604l-28 28 0 -17 28 -28 0 17zm-978 935l-20 19c-3,-3 -7,-5 -9,-8l20 -19c3,3 7,5 9,8z"/>
   <path fill="#EAEAEA" d="M1936 588l-28 28 0 -17 28 -28 0 17zm-987 944l-20 19c-3,-3 -7,-5 -9,-8l20 -19c3,3 7,5 9,8z"/>
   <path fill="#EAEAEA" d="M1936 571l-28 28 0 -17 28 -28 0 17zm-997 953l-20 19c-3,-3 -6,-5 -9,-8l20 -19c3,3 6,5 9,8z"/>
   <path fill="#E8E8E8" d="M1936 555l-28 28 0 -17 28 -28 0 17zm-1006 963l-20 19c-3,-3 -6,-5 -9,-8l20 -19c3,3 6,5 9,8z"/>
   <path fill="#E8E8E8" d="M1936 538l-28 28 0 -17 28 -28 0 17zm-1015 971l-20 19c-3,-3 -6,-5 -9,-8l20 -19c3,3 6,5 9,8z"/>
   <path fill="#E6E7E7" d="M1936 523l-28 28 0 -17 28 -28 0 17zm-1024 980l-20 19c-3,-3 -6,-5 -9,-8l20 -19c3,3 6,5 9,8z"/>
   <path fill="#E6E7E7" d="M1936 506l-28 28 0 -17 28 -28 0 17zm-1033 988l-20 19c-3,-3 -6,-5 -9,-8l20 -19c3,3 6,5 9,8z"/>
   <path fill="#E6E7E7" d="M1936 489l-28 28 0 -17 28 -28 0 17zm-1042 997l-20 19c-3,-3 -6,-5 -9,-8l20 -19c3,3 6,5 9,8z"/>
   <path fill="#E6E7E7" d="M1936 473l-28 28 0 -17 28 -28 0 17zm-1051 1006l-20 19c-3,-3 -6,-5 -8,-8l20 -19c3,3 6,5 8,8z"/>
   <path fill="#E4E5E5" d="M1936 457l-28 28 0 -17 28 -28 0 17zm-1059 1014l-20 19c-3,-3 -6,-5 -8,-8l20 -19c3,3 6,5 8,8z"/>
   <path fill="#E4E5E5" d="M1936 441l-28 28 0 -17 28 -28 0 17zm-1068 1022l-20 19c-3,-3 -6,-6 -8,-8l20 -19c3,3 6,6 8,8z"/>
   <path fill="#E3E3E3" d="M1936 424l-28 28 0 -17 28 -28 0 17zm-1077 1030l-20 19c-3,-3 -6,-6 -8,-8l20 -19c3,3 6,6 8,8z"/>
   <path fill="#E3E3E3" d="M1936 408l-28 28 0 -17 28 -28 0 17zm-1085 1038l-20 19c-3,-3 -6,-6 -8,-8l20 -19c3,3 6,6 8,8z"/>
   <path fill="#E3E3E3" d="M1936 392l-28 28 0 -17 28 -28 0 17zm-1093 1046l-20 19c-3,-3 -6,-6 -8,-8l20 -19c3,3 6,6 8,8z"/>
   <path fill="#E3E3E3" d="M1936 375l-28 28 0 -17 28 -28 0 17zm-1102 1054l-20 19c-3,-3 -5,-6 -8,-8l20 -19c3,3 5,6 8,8z"/>
   <path fill="#E1E1E1" d="M1936 359l-28 28 0 -17 28 -28 0 17zm-1109 1062l-20 19c-3,-3 -5,-6 -8,-8l20 -19c3,3 5,6 8,8z"/>
   <path fill="#E1E1E1" d="M1936 343l-28 28 0 -17 28 -28 0 17zm-1118 1069l-20 19c-3,-3 -5,-6 -8,-9l20 -19c3,3 5,6 8,9z"/>
   <path fill="#E1E1E1" d="M1936 327l-28 28 0 -17 28 -28 0 17zm-1125 1077l-20 19c-3,-3 -5,-6 -8,-9l20 -19c3,3 5,6 8,9z"/>
   <path fill="#E1E1E1" d="M1936 310l-28 28 0 -9 -6 -2 23 -22 12 3 0 2zm-1133 1084l-20 19c-3,-3 -5,-6 -8,-9l20 -19c3,3 5,6 8,9z"/>
   <path fill="#DFE0E0" d="M1924 305l-23 22 -4 -2c-3,-1 -6,-2 -8,-3l23 -22 13 4zm-1129 1081l-20 19c-3,-3 -5,-6 -8,-9l20 -19c3,3 5,6 8,9z"/>
   <path fill="#DFE0E0" d="M1912 301l-23 22c-4,-2 -8,-3 -13,-4l23 -22c3,1 5,2 7,3l6 2 1 0zm-1124 1076l-20 19c-3,-3 -5,-6 -8,-9l21 -19c3,3 5,6 8,9l-1 0z"/>
   <path fill="#DDDDDE" d="M1898 297l-23 22c-4,-2 -8,-3 -13,-4l23 -22c4,2 8,3 13,4l-1 0zm-1118 1070l-21 19c-3,-3 -5,-6 -8,-9l21 -20c3,3 5,6 8,9l0 1z"/>
   <path fill="#DDDDDE" d="M1886 293l-23 22c-4,-2 -8,-3 -13,-4l23 -22c4,2 8,3 13,4zm-1113 1065l-21 20c-3,-3 -5,-7 -8,-9l21 -20c3,3 5,7 8,9z"/>
   <path fill="#DDDDDE" d="M1873 289l-23 22c-4,-2 -9,-3 -13,-3l23 -23c4,2 8,3 13,4zm-1107 1059l-21 20c-3,-3 -5,-7 -8,-9l21 -20c3,3 5,7 8,9z"/>
   <path fill="#DDDDDE" d="M1859 285l-23 23c-4,-1 -9,-3 -13,-3l23 -23c4,1 9,3 13,3zm-1101 1053l-21 20c-3,-3 -5,-7 -7,-10l21 -20c3,3 5,7 7,10z"/>
   <path fill="gainsboro" d="M1847 282l-23 23c-4,-1 -9,-3 -13,-3l23 -23c4,1 9,3 13,3zm-1095 1048l-21 20c-3,-3 -5,-7 -7,-10l21 -20c3,3 4,7 7,10z"/>
   <path fill="gainsboro" d="M1833 278l-23 23c-4,-1 -9,-3 -13,-3l23 -23c4,1 9,3 13,3zm-1088 1042l-21 20c-3,-3 -4,-7 -7,-10l21 -20c3,3 4,7 7,10z"/>
   <path fill="gainsboro" d="M1820 274l-23 23c-4,-1 -9,-3 -13,-3l23 -23c4,1 9,3 13,3zm-1082 1035l-21 20c-3,-3 -4,-7 -7,-10l21 -20c3,3 4,7 7,10z"/>
   <path fill="#D9DADA" d="M1807 271l-23 23c-4,-1 -9,-3 -13,-3l23 -23c4,1 9,3 13,3zm-1075 1029l-21 20c-3,-3 -4,-7 -7,-10l21 -20c3,3 4,7 7,10z"/>
   <path fill="#D9DADA" d="M1793 268l-23 23c-4,-1 -9,-3 -13,-3l23 -23c4,1 9,3 13,3zm-1068 1023l-21 20c-3,-3 -4,-7 -7,-10l21 -20c3,3 4,7 7,10z"/>
   <path fill="#D9DADA" d="M1779 264l-23 23c-4,-1 -9,-3 -13,-3l24 -23c4,1 9,3 13,3l-1 0zm-1061 1015l-21 20c-3,-3 -4,-7 -7,-10l21 -20c2,3 4,7 7,10z"/>
   <path fill="#D7D8D8" d="M1766 261l-24 23c-5,-1 -9,-3 -14,-3l24 -23c4,1 9,3 13,3l1 0zm-1054 1008l-21 20c-3,-3 -4,-7 -6,-10l21 -20c2,3 4,7 6,10z"/>
   <path fill="#D7D8D8" d="M1753 258l-24 23c-5,-1 -9,-2 -14,-3l24 -23c5,1 9,3 14,3zm-1047 1001l-21 20c-2,-3 -4,-7 -6,-11l21 -20c2,3 4,7 6,11z"/>
   <path fill="#D7D8D8" d="M1738 254l-24 23c-5,-1 -9,-2 -14,-3l24 -23c5,1 9,2 14,3l0 1zm-1038 994l-21 20c-2,-3 -4,-7 -6,-11l21 -20c2,3 4,8 6,11z"/>
   <path fill="#D6D6D6" d="M1724 251l-24 23c-5,-1 -9,-2 -14,-3l24 -23c5,1 9,2 14,3l0 -1zm-1031 987l-21 20c-2,-3 -4,-8 -6,-11l21 -20c2,3 4,8 6,11z"/>
   <path fill="#D6D6D6" d="M1711 248l-24 23c-5,-1 -9,-2 -14,-3l24 -23c5,1 9,2 14,3l0 -1zm-1022 978l-21 20c-2,-3 -4,-8 -6,-11l22 -21c2,3 3,8 6,11l-1 1z"/>
   <path fill="#D6D6D6" d="M1697 245l-24 23c-5,-1 -9,-2 -14,-3l24 -23c5,1 9,2 14,3zm-1014 971l-22 21c-2,-3 -4,-8 -6,-11l22 -21c2,3 3,8 6,11z"/>
   <path fill="#D6D6D6" d="M1683 243l-24 23c-5,-1 -9,-2 -14,-3l24 -23c5,1 9,2 14,3zm-1006 963l-22 21c-2,-3 -3,-8 -6,-11l22 -21c2,3 3,8 6,11z"/>
   <path fill="#D3D4D4" d="M1668 239l-24 23c-5,-1 -10,-2 -14,-3l25 -23c5,1 9,2 14,3l-1 0zm-997 954l-22 21c-2,-3 -3,-8 -5,-11l22 -21c2,4 3,8 5,12l0 -1z"/>
   <path fill="#D3D4D4" d="M1654 237l-25 23c-5,-1 -10,-2 -14,-3l25 -23c5,1 9,2 14,3zm-988 945l-22 21c-2,-4 -3,-8 -5,-12l22 -21c2,4 3,8 5,12z"/>
   <path fill="#D2D2D3" d="M1640 234l-25 23c-5,-1 -10,-2 -14,-3l25 -24c5,1 10,2 14,3l0 1zm-978 937l-22 21c-2,-4 -3,-8 -5,-12l22 -21c2,4 3,8 5,12z"/>
   <path fill="#D2D2D3" d="M1625 232l-25 24c-5,-1 -10,-2 -15,-3l25 -24c5,1 10,2 14,3l1 0zm-969 928l-22 21c-2,-4 -3,-8 -5,-12l22 -21c2,4 3,8 5,12z"/>
   <path fill="#D2D2D3" d="M1611 229l-25 24c-5,-1 -10,-2 -15,-3l25 -24c5,1 10,2 15,3zm-960 918l-22 21c-2,-4 -3,-8 -5,-12l23 -22c2,4 3,8 5,12l-1 1z"/>
   <path fill="#D2D2D3" d="M1596 227l-25 24c-5,-1 -10,-2 -15,-3l25 -24c5,1 10,2 15,2zm-950 909l-23 22c-2,-4 -3,-8 -5,-12l23 -22c2,4 3,8 4,12l1 0z"/>
   <path fill="#CFD0D0" d="M1582 225l-25 24c-5,-1 -10,-2 -15,-2l25 -24c5,1 10,2 15,3l0 -1zm-939 899l-23 22c-2,-4 -3,-8 -4,-12l23 -22c2,4 3,8 4,13l0 -1z"/>
   <path fill="#CFD0D0" d="M1567 223l-25 24c-5,-1 -10,-2 -15,-2l26 -24c5,1 10,2 15,3l-1 -1zm-929 889l-23 22c-2,-4 -3,-8 -4,-13l23 -22c2,4 3,8 4,13z"/>
   <path fill="#CFD0D0" d="M1552 221l-26 24c-5,-1 -10,-2 -15,-2l26 -24c5,1 10,2 15,2zm-918 879l-23 22c-2,-4 -3,-8 -4,-13l23 -22c2,4 3,8 4,13z"/>
   <path fill="#CFD0D0" d="M1537 218l-26 24c-5,-1 -10,-1 -15,-2l26 -25c5,1 10,2 15,2l0 1zm-908 868l-23 22c-2,-4 -3,-8 -4,-13l23 -22c2,4 3,8 4,13l-1 0z"/>
   <path fill="#CECECF" d="M1522 217l-26 25c-5,-1 -10,-1 -15,-2l26 -25c5,1 10,1 15,2zm-897 858l-23 22c-2,-4 -3,-8 -4,-13l23 -23c1,4 3,8 3,13l1 1z"/>
   <path fill="#CECECF" d="M1507 215l-26 25c-5,-1 -10,-1 -16,-2l26 -25c5,1 10,1 15,2l1 0zm-885 847l-23 23c-2,-4 -3,-8 -4,-13l23 -23c1,4 3,8 3,13l1 -1z"/>
   <path fill="#CCCCCC" d="M1492 213l-26 25c-5,-1 -10,-1 -16,-2l26 -25c5,1 10,1 15,2l1 0zm-873 836l-23 23c-1,-4 -3,-8 -3,-13l23 -23c1,4 3,9 3,13z"/>
   <path fill="#CCCCCC" d="M1476 212l-26 25c-5,-1 -10,-1 -16,-2l27 -25c5,1 10,1 16,2l-1 0zm-861 824l-23 23c-1,-4 -3,-8 -3,-13l24 -23c1,4 2,9 3,13l-1 0z"/>
   <path fill="#CCCCCC" d="M1461 210l-27 25c-5,-1 -11,-1 -16,-2l27 -25c5,1 10,1 16,2zm-849 813l-24 23c-1,-4 -3,-9 -3,-13l24 -23c1,4 2,9 3,13l0 1z"/>
   <path fill="#CCCCCC" d="M1445 208l-27 25c-5,0 -11,-1 -16,-1l27 -26c5,1 11,1 16,2zm-836 800l-24 23c-1,-4 -2,-9 -3,-13l24 -23c1,5 2,9 3,13l1 0z"/>
   <path fill="#CACBCB" d="M1429 208l-27 26c-5,0 -11,-1 -16,-1l27 -26c5,0 11,1 16,1zm-823 788l-24 23c-1,-4 -2,-9 -3,-13l25 -23c1,5 2,9 3,14l-1 -1z"/>
   <path fill="#CACBCB" d="M1413 206l-27 26c-5,0 -11,-1 -16,-1l27 -26c5,0 11,1 16,1zm-810 775l-25 23c-1,-5 -2,-9 -3,-14l25 -24c1,5 2,9 3,14l0 1z"/>
   <path fill="#C8C8C9" d="M1398 205l-27 26c-5,0 -11,-1 -16,-1l28 -26c5,0 11,1 16,1l-1 0zm-797 762l-25 24c-1,-5 -2,-9 -3,-14l25 -24c1,5 2,10 2,14l1 0z"/>
   <path fill="#C8C8C9" d="M1382 204l-28 26c-6,0 -11,-1 -17,-1l28 -26c5,0 11,1 16,1l1 0zm-783 748l-25 24c-1,-5 -2,-9 -3,-14l26 -25c1,5 1,10 2,15z"/>
   <path fill="#C8C8C9" d="M1365 203l-28 26c-6,0 -11,0 -17,-1l28 -27c6,0 11,1 16,1l1 1zm-768 735l-26 25c-1,-5 -2,-10 -2,-14l26 -25c1,5 1,10 2,15l0 -1z"/>
   <path fill="#C8C8C9" d="M1349 203l-28 27c-6,0 -11,0 -17,-1l28 -27c6,0 11,1 17,1zm-753 721l-26 25c-1,-5 -1,-10 -2,-15l27 -25c0,5 1,10 1,15z"/>
   <path fill="#C5C6C6" d="M1333 202l-28 27c-6,0 -11,0 -17,0l28 -27c6,0 11,0 17,1l-1 -1zm-738 707l-27 25c-1,-5 -1,-10 -2,-15l27 -26c0,5 1,10 1,16l1 0z"/>
   <path fill="#C5C6C6" d="M1317 201l-28 27c-6,0 -11,0 -17,0l28 -27c6,0 11,0 17,1l0 -1zm-723 692l-27 26c0,-5 -1,-10 -1,-15l28 -26c0,5 0,11 1,16l-1 -1z"/>
   <path fill="#C5C6C6" d="M1300 201l-28 27c-6,0 -12,0 -17,0l28 -28c6,0 11,0 17,0l0 1zm-707 676l-28 26c0,-5 -1,-10 -1,-16l28 -27c0,5 0,11 0,16l0 1z"/>
   <path fill="#C4C5C5" d="M1283 200l-28 28c-6,0 -12,0 -18,0l28 -28c6,0 11,0 17,0l1 0zm-690 660l-28 27c0,-5 0,-11 -1,-16l28 -28 0 12c0,2 0,3 0,5l1 0z"/>
   <path fill="#C4C5C5" d="M1266 200l-28 28c-6,0 -12,0 -18,0l29 -28c6,0 12,0 17,0zm-673 644l-28 28c0,-5 0,-10 0,-15l0 -1 28 -28 0 17 0 -1z"/>
   <path fill="#C4C5C5" d="M1249 200l-29 28c-6,0 -12,0 -18,0l29 -28c6,0 12,0 18,0zm-657 628l-28 28 0 -17 28 -28 0 17z"/>
   <path fill="#C4C5C5" d="M1232 200l-29 28c-6,0 -12,0 -18,1l29 -28c6,0 12,0 18,0zm-639 612l-28 28 0 -17 28 -28 0 17z"/>
   <path fill="#C2C2C3" d="M1215 200l-29 28c-6,0 -12,0 -18,1l30 -28c6,0 12,0 18,0l-1 -1zm-622 595l-28 28 0 -17 28 -28 0 17z"/>
   <path fill="#C2C2C3" d="M1198 201l-30 28c-6,0 -12,1 -18,1l30 -28c6,0 12,0 18,-1zm-604 578l-28 28 0 -17 28 -28 0 17z"/>
   <path fill="#C0C1C1" d="M1180 201l-30 28c-6,0 -12,1 -18,1l30 -29c6,0 12,-1 18,-1l1 1zm-587 562l-28 28 0 -17 28 -28 0 17z"/>
   <path fill="#C0C1C1" d="M1162 202l-30 29c-6,0 -13,1 -18,1l31 -29c6,0 12,-1 18,-1zm-569 545l-28 28 0 -17 28 -28 0 17z"/>
   <path fill="#C0C1C1" d="M1144 203l-31 29c-6,0 -13,1 -18,1l31 -29c6,0 12,-1 18,-1zm-552 528l-28 28 0 -17 28 -27 0 17z"/>
   <path fill="#C0C1C1" d="M1126 203l-31 29c-6,1 -13,1 -18,2l31 -30c6,0 13,-1 18,-1zm-533 510l-28 27 0 -17 28 -28 0 17z"/>
   <path fill="#BEBEBF" d="M1108 204l-31 30c-6,1 -13,1 -18,2l32 -30c6,-1 13,-1 18,-2l-1 0zm-515 493l-28 28 0 -17 28 -28 0 17z"/>
   <path fill="#BEBEBF" d="M1090 206l-32 30c-7,1 -13,1 -19,2l32 -30c6,-1 13,-1 18,-2l1 0zm-497 475l-28 28 0 -17 28 -28 0 17z"/>
   <path fill="#BCBDBD" d="M1071 208l-32 30c-7,1 -13,1 -19,2l32 -31c6,-1 13,-1 18,-2l1 1zm-478 458l-28 28 0 -17 28 -28 0 17z"/>
   <path fill="#BCBDBD" d="M1053 208l-32 31c-7,1 -13,2 -19,3l33 -31c7,-1 13,-1 19,-2l-1 -1zm-459 440l-28 28 0 -17 28 -28 0 17z"/>
   <path fill="#BCBDBD" d="M1033 211l-33 31c-7,1 -13,2 -19,3l32 -32c7,-1 13,-2 19,-2zm-441 422l-28 28 0 -17 28 -28 0 17z"/>
   <path fill="#BCBDBD" d="M1014 213l-32 32c-7,1 -13,2 -20,3l33 -32c7,-1 13,-2 19,-3zm-422 403l-28 28 0 -17 28 -28 0 17z"/>
   <path fill="#BABBBB" d="M995 214l-33 32c-7,1 -13,2 -20,3l33 -33c7,-1 13,-2 19,-3l1 1zm-403 385l-28 28 0 -17 28 -28 0 17z"/>
   <path fill="#BABBBB" d="M976 217l-33 32c-7,1 -13,2 -20,3l34 -33c7,-1 13,-2 20,-3l-1 -1zm-382 367l-28 28 0 -17 28 -28 0 17z"/>
   <path fill="#BABBBB" d="M956 219l-34 32c-7,1 -13,3 -20,3l34 -33c7,-1 13,-2 20,-3zm-363 347l-28 28 0 -17 28 -28 0 17z"/>
   <path fill="#BABBBB" d="M936 223l-34 33c-7,1 -14,3 -21,3l35 -33c7,-1 13,-2 20,-3zm-343 328l-28 28 0 -17 28 -28 0 17z"/>
   <path fill="#B8B9BA" d="M916 225l-35 33c-7,1 -14,3 -21,3l36 -34c7,-1 13,-3 20,-3l0 1zm-323 309l-28 28 0 -17 28 -28 0 17z"/>
   <path fill="#B8B9BA" d="M896 228l-36 34c-7,2 -14,3 -21,4l36 -34c7,-1 14,-3 21,-3l0 -1zm-302 290l-28 28 0 -17 28 -28 0 17z"/>
   <path fill="#B6B7B7" d="M875 232l-36 34c-8,2 -14,3 -22,4l37 -35c7,-2 14,-3 21,-3zm-282 270l-28 28 0 -17 28 -28 0 17z"/>
   <path fill="#B6B7B7" d="M854 235l-37 35c-8,2 -14,3 -22,4l38 -36c7,-2 14,-3 21,-4l0 1zm-261 250l-28 28 0 -17 28 -28 0 17z"/>
   <path fill="#B6B7B7" d="M833 239l-38 36c-8,2 -15,3 -22,5l38 -36c8,-2 14,-3 22,-4l0 -1zm-240 230l-28 28 0 -17 28 -28 0 17z"/>
   <path fill="#B6B7B7" d="M812 243l-38 36c-8,2 -15,3 -23,5l38 -37c8,-2 14,-3 22,-4zm-218 209l-28 28 0 -17 28 -28 0 17z"/>
   <path fill="#B5B5B6" d="M790 248l-38 37c-8,2 -15,3 -23,6l39 -38c8,-2 15,-3 22,-5zm-197 188l-28 28 0 -17 28 -28 0 17z"/>
   <path fill="#B5B5B6" d="M768 253l-39 38c-8,2 -16,4 -23,6l40 -38c8,-2 15,-3 23,-5zm-175 168l-28 28 0 -17 28 -28 0 17z"/>
   <path fill="#B5B5B6" d="M745 258l-40 38c-8,2 -16,4 -23,6l41 -39c8,-2 15,-3 23,-6l0 1zm-153 146l-28 28 0 -17 28 -28 0 17z"/>
   <path fill="#B2B3B3" d="M723 263l-41 39c-8,3 -16,4 -24,7l42 -40c8,-2 15,-4 23,-6zm-130 124l-28 28 0 -17 28 -28 0 17z"/>
   <path fill="#B2B3B3" d="M699 269l-42 40c-18,5 -37,11 -55,17l-10 3 0 43 -28 28 0 -90 30 -9c35,-11 70,-21 105,-30l0 -1z"/>
   <path fill="#244082" d="M873 1072c55,36 106,77 152,122 94,98 168,214 218,353l22 22c5,-8 11,-18 16,-27l13 13c41,-37 78,-77 111,-121 23,-31 47,-64 64,-99 17,-33 28,-68 33,-103 5,-41 2,-82 -10,-120 -11,-39 -31,-70 -50,-103 -17,-28 -48,-71 -34,-105 1,-2 1,-3 2,-4l-22 -22c-5,-3 -9,-8 -14,-11 3,-3 5,-5 8,-8l0 0 0 0 5 -4 5 5c32,34 76,56 123,56l65 54c2,3 2,8 1,12 0,2 -1,3 -1,4 -1,4 -1,7 0,11 1,2 1,3 3,5 1,1 1,2 2,2l22 22c2,2 4,3 7,4 2,1 3,1 3,1 20,-2 41,0 60,6 5,2 9,3 15,3 4,-1 7,-3 8,-8 0,-4 -1,-9 -3,-13 -1,-2 -3,-3 -4,-4 -5,-4 -10,-9 -15,-13 -1,-1 -1,-3 -2,-3 -1,-2 -3,-3 -4,-4 -4,-3 -8,-7 -12,-11 0,-2 -1,-3 0,-5 1,-3 3,-6 5,-8 5,-3 11,-2 17,0 3,1 7,3 10,3 3,7 6,13 7,22 0,3 0,5 2,8 1,2 3,3 4,4l22 22c3,2 4,3 7,3 3,0 4,0 6,-1 3,-1 4,-3 7,-5 7,-7 13,-13 18,-19 4,-5 8,-9 13,-13 17,-14 33,-25 53,-35 6,-3 11,-10 14,-18 3,-7 5,-18 6,-25 0,-4 0,-9 -1,-13 -1,-3 -3,-5 -3,-8l-140 -238c-2,-3 -3,-4 -3,-7 -3,-8 -3,-18 0,-26 2,-4 3,-8 3,-13 1,-10 -3,-22 -8,-29l-111 -126 20 -54c2,-5 0,-8 -3,-12l-19 -19c-2,-2 -4,-3 -8,-3 -33,-2 -61,13 -81,37l-13 -13c-8,-2 -16,-3 -23,-3 -354,-32 -681,207 -772,568l22 22c43,19 85,41 125,64 16,9 32,19 48,29l-5 -3z"/>
   <path fill="#EBECEC" d="M838 1042c185,118 325,284 405,503 33,-56 70,-120 96,-188 26,-69 40,-141 27,-209 -3,-13 -6,-27 -11,-39 -4,-13 -10,-25 -17,-37 -2,-3 -4,-7 -7,-11 -8,-15 -18,-30 -23,-47l0 0 0 0 0 0c-15,-45 -8,-95 17,-135 5,-8 10,-15 16,-23 6,-7 13,-13 19,-19l0 0 0 0 5 -4 5 5c32,34 76,56 123,56l78 65c1,1 3,2 3,3 6,5 8,13 7,19 0,2 -1,3 -1,4 -1,4 -1,7 0,11 1,2 1,3 3,5 1,1 1,2 2,2 2,2 4,3 7,4 2,1 3,1 3,1 20,-2 41,0 60,6 5,2 9,3 15,3 4,-1 7,-3 8,-8 0,-4 -1,-9 -3,-13 -1,-2 -3,-3 -4,-4 -9,-8 -18,-18 -28,-25 -4,-3 -7,-6 -6,-12 1,-3 3,-6 5,-8 5,-3 11,-2 17,0 20,5 35,24 38,47 0,3 0,5 2,8 1,2 3,3 4,4 3,2 4,3 7,3 3,0 4,0 6,-1 3,-1 4,-3 7,-5 7,-7 13,-12 18,-19 4,-5 8,-9 13,-13 17,-14 33,-25 53,-35 6,-3 11,-10 14,-18 3,-7 5,-18 6,-25 0,-4 0,-9 -1,-13 -1,-3 -3,-5 -3,-8l-140 -238c-2,-3 -3,-4 -3,-7 -3,-8 -3,-18 0,-26 2,-4 3,-8 3,-13 1,-10 -3,-22 -8,-29l-111 -126 20 -54c3,-7 -1,-13 -8,-13 -38,-2 -72,19 -91,50 -5,8 -9,17 -13,27l-2 4 -5 0 -2 0c-17,1 -33,2 -50,3 -17,2 -33,4 -48,8l0 0c-82,15 -158,47 -224,90l0 0 0 0 0 0c-24,16 -48,33 -69,53 -22,19 -42,39 -61,61 -92,105 -148,238 -166,379l-3 -2z"/>
   <path fill="#FEFEFE" d="M1370 863l-11 -2c2,-2 3,-3 4,-4 2,2 4,4 6,6l1 0z"/>
   <path fill="#FCFCFC" d="M1359 863l11 2c3,3 5,4 8,7l-23 -3c2,-2 3,-3 4,-5z"/>
   <path fill="#FCFCFC" d="M1355 867l23 3c3,3 6,4 8,7l-35 -5c1,-1 2,-3 3,-3 0,-1 1,-1 1,-2l1 0z"/>
   <path fill="#FCFCFC" d="M1352 872l35 5 1 1c-1,1 -1,3 -2,4l0 1 -38 -5c1,-2 3,-3 3,-5l0 -1z"/>
   <path fill="#FBFBFB" d="M1348 877l38 5c-1,2 -1,3 -2,5l-39 -5c1,-2 3,-3 3,-5z"/>
   <path fill="#FBFBFB" d="M1344 882l39 5c-1,2 -1,3 -1,5l-42 -6c1,-2 2,-3 3,-5l0 1z"/>
   <path fill="#FBFBFB" d="M1341 887l42 6c0,2 -1,3 -1,5l-44 -6c1,-1 1,-2 2,-3 0,-1 1,-1 1,-2l1 0z"/>
   <path fill="#FBFBFB" d="M1338 892l44 6c0,2 0,3 0,5l-47 -7c1,-2 2,-3 3,-5l0 1z"/>
   <path fill="#F9F9F9" d="M1336 897l47 7c0,2 0,3 1,5l-49 -7c1,-2 2,-3 3,-5l-1 0z"/>
   <path fill="#F9F9F9" d="M1333 902l49 7c0,2 1,3 1,6l-53 -8c1,-2 2,-3 3,-5z"/>
   <path fill="#F7F7F7" d="M1331 907l53 8c0,2 1,3 2,6l-56 -8c1,-2 2,-3 2,-5l0 -1z"/>
   <path fill="#F7F7F7" d="M1328 912l56 8c1,2 1,3 2,6l-59 -8c1,-2 1,-3 2,-5z"/>
   <path fill="#F7F7F7" d="M1327 917l59 8c1,2 2,3 2,6l-63 -8c1,-2 1,-3 2,-5l1 -1z"/>
   <path fill="#F7F7F7" d="M1325 922l63 8c1,2 2,4 3,6l-68 -9c1,-2 1,-3 2,-5z"/>
   <path fill="whitesmoke" d="M1323 927l68 9c1,2 2,4 3,6l-71 -10c0,-2 1,-3 2,-5l-1 0z"/>
   <path fill="whitesmoke" d="M1323 932l71 10c1,2 2,4 3,6l-75 -10c0,-2 1,-3 1,-5l1 -1z"/>
   <path fill="whitesmoke" d="M1321 937l75 10c1,2 2,4 3,6l-79 -11c0,-2 1,-3 1,-5z"/>
   <path fill="whitesmoke" d="M1320 943l79 11c1,2 3,4 3,6l-83 -12c0,-2 1,-3 1,-5z"/>
   <path fill="#F3F4F4" d="M1319 948l83 12c1,2 3,4 3,6l-88 -12c0,-2 0,-3 1,-5l0 -1z"/>
   <path fill="#F3F4F4" d="M1319 953l88 12c1,2 3,4 3,6l-91 -13c0,-2 0,-3 0,-5z"/>
   <path fill="#F1F1F1" d="M1318 958l91 13c1,2 3,4 3,6l-95 -13c0,-2 0,-3 0,-5l1 -1z"/>
   <path fill="#F1F1F1" d="M1318 963l95 13c1,2 3,4 3,6l-98 -13c0,-2 0,-3 0,-5z"/>
   <path fill="#F1F1F1" d="M1318 968l98 13c1,2 2,3 3,4l1 2 -102 -14c0,-2 0,-3 0,-5z"/>
   <path fill="#F1F1F1" d="M1318 974l102 14 3 6 -105 -14c0,-2 0,-3 0,-5l0 -1z"/>
   <path fill="#F0F0F0" d="M1319 979l105 14 3 6 -108 -14c0,-2 -1,-3 -1,-5l0 -1z"/>
   <path fill="#F0F0F0" d="M1320 985l108 14c1,2 3,4 3,6l-110 -15c0,-2 -1,-3 -1,-6l0 1z"/>
   <path fill="#EEEEEE" d="M1321 990l110 15c1,2 3,4 3,6l-113 -15c0,-2 -1,-3 -1,-6z"/>
   <path fill="#EEEEEE" d="M1322 996l113 15c1,2 3,4 3,6l-115 -16c-1,-2 -1,-3 -2,-6l1 1z"/>
   <path fill="#EEEEEE" d="M1323 1001l115 16c1,2 3,4 3,6l-117 -16c-1,-2 -1,-3 -2,-6z"/>
   <path fill="#EEEEEE" d="M1324 1007l117 16c1,2 3,4 3,6l-118 -16c0,-1 -1,-2 -1,-3l0 -1 0 0c0,-1 -1,-2 -1,-2l-1 -1z"/>
   <path fill="#EBECEC" d="M1327 1013l118 16c1,2 2,4 3,6l-118 -16c-1,-2 -2,-3 -3,-6z"/>
   <path fill="#EBECEC" d="M1328 1018l118 16c1,2 2,4 3,6l-119 -16c-1,-2 -2,-4 -3,-6z"/>
   <path fill="#EBECEC" d="M1331 1023l119 16c1,2 2,4 3,6l-119 -16c-1,-2 -2,-4 -3,-6z"/>
   <path fill="#EAEAEA" d="M1334 1029l119 16c1,2 2,4 3,6l-118 -16c-1,-2 -2,-4 -3,-6z"/>
   <path fill="#EAEAEA" d="M1337 1035l118 16c1,2 2,4 3,6l-118 -16c-1,-2 -3,-4 -3,-6z"/>
   <path fill="#EAEAEA" d="M1340 1041l118 16c1,2 2,4 3,6l-117 -16c-1,-2 -3,-4 -3,-6z"/>
   <path fill="#EAEAEA" d="M1343 1047l117 16c1,2 2,3 3,6l-116 -16 0 0c-1,-2 -3,-3 -3,-6z"/>
   <path fill="#E8E8E8" d="M1347 1053l116 16c1,2 2,3 2,6l-114 -16c-1,-2 -3,-4 -3,-6z"/>
   <path fill="#E8E8E8" d="M1350 1058l114 16c1,2 2,3 2,6l-113 -15 0 0c-1,-2 -2,-3 -3,-6l1 -1z"/>
   <path fill="#E6E7E7" d="M1353 1063l113 15c1,2 1,3 2,6l-112 -15c-1,-2 -2,-4 -3,-6z"/>
   <path fill="#E6E7E7" d="M1357 1069l112 15c1,2 1,3 1,4l0 2 -111 -15c-1,-2 -2,-4 -3,-6l2 0z"/>
   <path fill="#E6E7E7" d="M1359 1075l111 15c1,2 1,3 2,6l-109 -15c-1,-2 -2,-4 -3,-6l-1 0z"/>
   <path fill="#E6E7E7" d="M1362 1081l109 15c1,2 1,3 2,6l-108 -15c-1,-2 -2,-4 -3,-6z"/>
   <path fill="#E4E5E5" d="M1365 1087l108 15c1,2 1,3 2,6l-107 -14c-1,-2 -2,-4 -3,-6l-1 -1z"/>
   <path fill="#E4E5E5" d="M1367 1093l107 14c1,2 1,3 1,6l-106 -14c-1,-2 -2,-4 -3,-6l1 0z"/>
   <path fill="#E3E3E3" d="M1369 1098l106 14c0,2 1,3 1,6l-105 -14 0 0c-1,-2 -2,-3 -2,-5l0 -1z"/>
   <path fill="#E3E3E3" d="M1372 1103l105 14c0,2 1,3 1,6l-104 -14c-1,-2 -2,-3 -2,-6z"/>
   <path fill="#E3E3E3" d="M1373 1109l104 14c0,2 1,3 1,6l-103 -14c-1,-2 -1,-3 -2,-6z"/>
   <path fill="#E3E3E3" d="M1375 1115l103 14c0,2 1,3 1,6l-103 -14c-1,-2 -1,-3 -2,-6z"/>
   <path fill="#E1E1E1" d="M1377 1120l103 14c0,2 1,3 1,6l-102 -13c-1,-2 -1,-3 -2,-6l0 -1z"/>
   <path fill="#E1E1E1" d="M1378 1126l102 13c0,2 0,3 1,5l-101 -13c-1,-2 -1,-3 -2,-6l0 1z"/>
   <path fill="#E1E1E1" d="M1380 1131l101 13c0,2 0,3 1,5l-100 -13c-1,-2 -1,-3 -2,-6l0 1z"/>
   <path fill="#E1E1E1" d="M1381 1137l100 13c0,2 0,3 0,5l-99 -13c0,-2 -1,-3 -1,-6l0 1z"/>
   <path fill="#DFE0E0" d="M1382 1143l99 13c0,2 0,3 0,5l-98 -13c0,-1 0,-2 -1,-3 0,-1 0,-2 -1,-3l1 0z"/>
   <path fill="#DFE0E0" d="M1383 1148l98 13c0,2 0,3 0,5l-98 -13c0,-2 -1,-3 -1,-6l0 1z"/>
   <path fill="#DDDDDE" d="M1384 1153l98 13c0,2 0,3 0,5l-97 -13c0,-2 -1,-3 -1,-6l0 1z"/>
   <path fill="#DDDDDE" d="M1385 1158l97 13c0,2 0,3 0,5l-96 -13c0,-2 -1,-3 -1,-6l0 1z"/>
   <path fill="#DDDDDE" d="M1386 1164l96 13c0,2 0,3 0,5l-95 -13c0,-2 0,-3 -1,-5l0 -1z"/>
   <path fill="#DDDDDE" d="M1387 1169l95 13c0,2 0,3 0,5l-94 -13c0,-2 0,-3 -1,-5z"/>
   <path fill="gainsboro" d="M1387 1175l94 13c0,2 0,3 0,5l-93 -13c0,-2 0,-3 -1,-5z"/>
   <path fill="gainsboro" d="M1388 1180l93 13c0,2 0,3 -1,5l-93 -13c0,-2 0,-3 0,-5z"/>
   <path fill="gainsboro" d="M1388 1186l93 13c0,2 0,3 -1,5l-92 -13c0,-2 0,-3 0,-5z"/>
   <path fill="#D9DADA" d="M1388 1191l92 13c0,2 0,3 -1,5l-91 -13c0,-2 0,-3 0,-5z"/>
   <path fill="#D9DADA" d="M1388 1196l91 13 0 0c0,2 -1,3 -1,5l-90 -13c0,-2 0,-3 0,-5z"/>
   <path fill="#D9DADA" d="M1388 1202l90 13c0,2 -1,3 -1,5l-89 -13c0,-2 0,-3 0,-5z"/>
   <path fill="#D7D8D8" d="M1388 1207l89 13c0,2 -1,3 -1,5l-88 -12c0,-2 0,-3 0,-5l0 -1z"/>
   <path fill="#D7D8D8" d="M1388 1213l88 12c0,2 -1,3 -1,5l-88 -12c0,-2 0,-3 0,-5z"/>
   <path fill="#D7D8D8" d="M1388 1218l88 12c0,2 -1,3 -1,5l-87 -12c0,-2 0,-3 0,-5z"/>
   <path fill="#D6D6D6" d="M1388 1223l87 12c0,2 -1,3 -1,5l-86 -12c0,-2 0,-3 0,-5z"/>
   <path fill="#D6D6D6" d="M1388 1228l86 12c-1,2 -1,3 -2,5l-85 -12c0,-2 0,-3 1,-5z"/>
   <path fill="#D6D6D6" d="M1387 1233l85 12c-1,2 -1,3 -2,5l-84 -12c0,-2 0,-3 1,-5z"/>
   <path fill="#D6D6D6" d="M1386 1238l84 12c-1,2 -1,3 -2,5l-83 -12c0,-2 0,-3 1,-5z"/>
   <path fill="#D3D4D4" d="M1386 1244l83 12c-1,2 -1,3 -2,5l-83 -11c0,-2 1,-3 1,-5l0 -1z"/>
   <path fill="#D3D4D4" d="M1385 1249l83 11c-1,2 -1,3 -2,5l-82 -11c0,-2 1,-3 1,-5z"/>
   <path fill="#D2D2D3" d="M1384 1254l82 11c-1,2 -1,3 -2,5l-81 -11c0,-2 1,-3 1,-5z"/>
   <path fill="#D2D2D3" d="M1383 1259l81 11c-1,2 -1,3 -2,5l-80 -11c0,-2 1,-3 1,-5z"/>
   <path fill="#D2D2D3" d="M1383 1265l80 11c-1,2 -2,3 -2,5l-78 -11c0,-2 1,-3 1,-5l-1 0z"/>
   <path fill="#D2D2D3" d="M1382 1270l78 11c-1,2 -2,3 -2,5l-78 -11c0,-2 1,-3 1,-5z"/>
   <path fill="#CFD0D0" d="M1381 1275l78 11c-1,2 -2,3 -3,5l-77 -10c0,-2 1,-3 1,-5l1 -1z"/>
   <path fill="#CFD0D0" d="M1380 1280l77 10c-1,2 -2,3 -3,5l-75 -10c0,-2 1,-3 1,-5z"/>
   <path fill="#CFD0D0" d="M1378 1286l75 10c-1,2 -2,3 -3,5l-74 -10c0,-2 1,-3 1,-5l1 0z"/>
   <path fill="#CFD0D0" d="M1378 1291l74 10c-1,2 -2,3 -3,5l-73 -10c1,-2 1,-3 1,-5l1 0z"/>
   <path fill="#CECECF" d="M1376 1296l73 10c-1,2 -2,3 -3,5l-72 -10c1,-2 1,-3 2,-5l-1 0z"/>
   <path fill="#CECECF" d="M1375 1301l72 10 0 1c-1,2 -2,3 -3,4l-71 -9c1,-2 1,-3 2,-5l0 -1z"/>
   <path fill="#CCCCCC" d="M1373 1306l71 9c-1,2 -2,3 -3,5l-69 -9c1,-2 1,-3 2,-5l-1 0z"/>
   <path fill="#CCCCCC" d="M1373 1311l69 9c-1,2 -2,3 -3,5l-68 -9c1,-2 1,-3 2,-5z"/>
   <path fill="#CCCCCC" d="M1371 1317l68 9c-1,2 -2,3 -3,5l-67 -9c1,-2 1,-3 2,-5l-1 0z"/>
   <path fill="#CCCCCC" d="M1369 1322l67 9c-1,2 -2,3 -3,5l-66 -9c1,-2 1,-3 2,-5z"/>
   <path fill="#CACBCB" d="M1368 1327l66 9c-1,2 -2,3 -3,5l-64 -8c1,-2 1,-3 2,-5l0 -1z"/>
   <path fill="#CACBCB" d="M1366 1332l64 8c-1,2 -2,3 -3,5l-63 -8c1,-2 1,-3 2,-5z"/>
   <path fill="#C8C8C9" d="M1364 1337l63 8c-1,2 -2,3 -3,5l-62 -8c1,-2 1,-3 2,-5l1 0z"/>
   <path fill="#C8C8C9" d="M1363 1342l62 8c-1,2 -2,3 -3,5l-60 -8c1,-2 1,-3 2,-5z"/>
   <path fill="#C8C8C9" d="M1361 1347l60 8c-1,2 -3,3 -3,5l-58 -8c1,-2 1,-3 2,-5z"/>
   <path fill="#C8C8C9" d="M1359 1352l58 8c-1,2 -3,3 -3,5l-58 -8c1,-2 1,-3 2,-5l1 -1z"/>
   <path fill="#C5C6C6" d="M1358 1358l58 8c-1,2 -3,3 -3,5l-56 -8c1,-2 2,-3 2,-5z"/>
   <path fill="#C5C6C6" d="M1356 1363l56 8c-1,2 -3,3 -3,5l-54 -8c1,-2 1,-3 2,-4l1 -1 -1 0z"/>
   <path fill="#C5C6C6" d="M1353 1368l54 8c-1,2 -3,3 -3,5l-53 -8c1,-2 2,-3 2,-5l1 0z"/>
   <path fill="#C4C5C5" d="M1352 1373l53 8c-1,2 -3,3 -3,5l-52 -7c1,-2 2,-3 2,-5l0 -1z"/>
   <path fill="#C4C5C5" d="M1350 1378l52 7c-1,2 -3,3 -3,5l-50 -7c1,-2 2,-3 2,-5z"/>
   <path fill="#C4C5C5" d="M1348 1383l50 7c-1,2 -3,3 -3,5l-49 -7c1,-2 2,-3 3,-5z"/>
   <path fill="#C4C5C5" d="M1346 1388l49 7c-1,2 -3,3 -3,5l-48 -7c1,-2 2,-3 3,-5l-1 0z"/>
   <path fill="#C2C2C3" d="M1343 1393l48 7c-1,2 -3,3 -3,5l-46 -6c1,-2 2,-3 3,-5l-1 -1z"/>
   <path fill="#C2C2C3" d="M1341 1398l46 6c-1,2 -3,3 -3,5l-44 -6c1,-2 2,-3 3,-5l-1 0z"/>
   <path fill="#C0C1C1" d="M1339 1403l44 6 -2 2 -3 3 -43 -6c1,-2 2,-3 3,-5l1 1z"/>
   <path fill="#C0C1C1" d="M1337 1408l43 6c-1,2 -3,3 -3,5l-42 -6c1,-2 2,-3 3,-5l-1 0z"/>
   <path fill="#C0C1C1" d="M1334 1413l42 6c-1,2 -3,3 -3,5l-40 -6c1,-2 2,-3 3,-5l-1 0z"/>
   <path fill="#C0C1C1" d="M1333 1418l40 6c-2,2 -3,3 -4,5l-39 -5c1,-2 2,-3 3,-5l1 -1z"/>
   <path fill="#BEBEBF" d="M1330 1423l39 5c-2,2 -3,3 -4,5l-38 -5c1,-2 2,-3 3,-5z"/>
   <path fill="#BEBEBF" d="M1328 1428l38 5c-2,2 -3,3 -4,5l-36 -5c1,-2 2,-3 3,-5z"/>
   <path fill="#BCBDBD" d="M1325 1433l36 5c-2,2 -3,3 -4,5l-34 -5c1,-2 2,-3 3,-5z"/>
   <path fill="#BCBDBD" d="M1323 1438l34 5c-2,2 -3,3 -4,5l-33 -4c1,-2 2,-3 3,-5l1 -1z"/>
   <path fill="#BCBDBD" d="M1320 1443l33 4c-2,2 -3,3 -4,5l-32 -4c1,-2 2,-3 3,-5z"/>
   <path fill="#BCBDBD" d="M1318 1448l32 4c-2,2 -3,3 -4,5l-30 -4c1,-2 2,-3 3,-5z"/>
   <path fill="#BABBBB" d="M1315 1453l30 4c-2,2 -3,3 -4,5l-28 -4c1,-2 2,-3 3,-5z"/>
   <path fill="#BABBBB" d="M1313 1458l28 4c-2,2 -3,3 -4,5l-27 -3c1,-2 2,-3 3,-5l0 -1z"/>
   <path fill="#BABBBB" d="M1310 1463l27 3c-2,2 -3,3 -4,5l-25 -3c1,-2 2,-3 3,-5z"/>
   <path fill="#BABBBB" d="M1308 1468l25 3c-2,2 -3,3 -4,5l-23 -3c1,-2 2,-3 3,-5z"/>
   <path fill="#B8B9BA" d="M1305 1473l23 3c-2,2 -3,3 -4,5l-22 -3c1,-2 2,-3 3,-5l0 -1z"/>
   <path fill="#B8B9BA" d="M1302 1478l22 3c-2,2 -3,3 -4,5l-20 -3c1,-2 2,-3 3,-5z"/>
   <path fill="#B6B7B7" d="M1299 1483l20 3c-2,2 -3,3 -4,5l-18 -3c1,-2 2,-3 3,-5l-1 0z"/>
   <path fill="#B6B7B7" d="M1297 1488l18 3c-2,2 -3,3 -5,5l-16 -3c1,-2 2,-3 3,-5l1 0z"/>
   <path fill="#B6B7B7" d="M1294 1493l16 3c-2,2 -3,3 -5,5l-14 -2 3 -5 1 -1z"/>
   <path fill="#B6B7B7" d="M1291 1498l14 2c-2,2 -3,3 -5,5l-13 -2 3 -5 1 0z"/>
   <path fill="#B5B5B6" d="M1288 1503l13 2c-2,2 -3,3 -5,5l-10 -2 3 -5z"/>
   <path fill="#B5B5B6" d="M1286 1508l10 2c-2,2 -3,3 -5,5l-8 -1 3 -5 1 -1z"/>
   <path fill="#B5B5B6" d="M1283 1513l8 1c-2,2 -3,3 -5,5l-6 -1 3 -5z"/>
   <path fill="#B2B3B3" d="M1280 1517l6 1c-2,2 -3,3 -5,5l-4 -1 3 -5 1 0z"/>
   <path fill="#B2B3B3" d="M1277 1522l4 1c-3,3 -7,6 -9,8 2,-3 3,-6 5,-9z"/>
   <path fill="#C5C6C6" d="M1473 393l-3 -3c2,0 3,1 4,1 -1,1 -2,2 -2,3z"/>
   <path fill="#C5C6C6" d="M1471 390l3 3c-2,3 -3,4 -5,7l-8 -11c3,0 7,1 11,2l-1 -1z"/>
   <path fill="#C5C6C6" d="M1460 388l8 11c-2,3 -3,4 -5,7l-13 -18c1,0 1,0 2,0 3,0 6,1 9,1z"/>
   <path fill="#C8C8C9" d="M1450 388l13 18 -1 1c-2,2 -3,4 -3,7l-19 -27c3,0 7,1 10,1z"/>
   <path fill="#C8C8C9" d="M1439 387l19 27c-2,3 -3,5 -4,8l-26 -35c3,0 7,1 10,1l1 0z"/>
   <path fill="#C8C8C9" d="M1429 387l26 35c-2,3 -3,5 -4,8l-32 -43c3,0 7,0 10,1l0 -1z"/>
   <path fill="#C8C8C9" d="M1419 386l32 43 -1 1c-3,0 -5,0 -8,0l-33 -45c3,0 7,0 10,0l1 1z"/>
   <path fill="#C8C8C9" d="M1410 385l33 45c-3,0 -6,0 -9,1l-33 -46c3,0 7,0 10,0l-1 0z"/>
   <path fill="#CACBCB" d="M1400 385l33 46c-3,0 -6,0 -9,1l-34 -47c3,0 7,0 10,0z"/>
   <path fill="#CACBCB" d="M1390 385l34 47c-3,0 -6,1 -9,1l-35 -48c3,0 7,0 10,0z"/>
   <path fill="#CACBCB" d="M1381 385l35 48c-3,0 -6,1 -9,1l-35 -48c3,0 7,0 9,0z"/>
   <path fill="#CACBCB" d="M1371 385l35 48 -2 0c-3,0 -5,1 -8,1l-36 -49c3,0 7,0 9,0l1 0z"/>
   <path fill="#CCCCCC" d="M1362 386l36 49c-3,0 -6,1 -9,1l-37 -50c3,0 6,0 9,0l1 0z"/>
   <path fill="#CCCCCC" d="M1353 386l37 50c-3,0 -6,1 -8,1l-37 -50c3,0 6,-1 9,-1l-1 0z"/>
   <path fill="#CCCCCC" d="M1343 387l37 50c-3,1 -6,1 -8,2l-38 -51c3,0 6,-1 9,-1z"/>
   <path fill="#CCCCCC" d="M1334 388l38 51c-3,1 -6,1 -8,2l-38 -52c3,0 6,-1 9,-1l-1 0z"/>
   <path fill="#CCCCCC" d="M1325 388l38 52c-3,1 -5,1 -8,2l0 0 -38 -53c3,0 6,-1 9,-1z"/>
   <path fill="#CECECF" d="M1316 388l38 53c-3,1 -6,1 -8,2l-38 -53c3,0 6,-1 9,-1l-1 0z"/>
   <path fill="#CECECF" d="M1307 390l38 53c-3,1 -6,1 -8,2l-39 -54c3,0 6,-1 9,-1z"/>
   <path fill="#CECECF" d="M1298 391l39 54c-3,1 -6,1 -8,2l-40 -54c3,-1 6,-1 9,-1l0 -1z"/>
   <path fill="#CFD0D0" d="M1289 392l40 54c-3,1 -6,2 -8,2l-40 -55c3,-1 6,-1 8,-2l0 1z"/>
   <path fill="#CFD0D0" d="M1281 393l40 55c-3,1 -6,2 -8,2l-41 -56c3,-1 6,-1 8,-2l1 1z"/>
   <path fill="#CFD0D0" d="M1273 395l41 56c-3,1 -5,2 -8,3l-41 -57c3,-1 6,-1 8,-2z"/>
   <path fill="#CFD0D0" d="M1263 396l41 57c-3,1 -5,2 -8,3l-42 -58c3,-1 6,-1 8,-2l1 0z"/>
   <path fill="#CFD0D0" d="M1255 398l42 58c-3,1 -5,2 -8,3l-43 -58c3,-1 6,-1 8,-2l0 -1z"/>
   <path fill="#D2D2D3" d="M1247 399l43 58c-3,1 -5,2 -8,3l-43 -58c3,-1 6,-1 8,-2l-1 0z"/>
   <path fill="#D2D2D3" d="M1238 401l43 58c-3,1 -5,2 -8,3l-43 -59c3,-1 6,-2 8,-2z"/>
   <path fill="#D2D2D3" d="M1230 403l43 59c-3,1 -5,2 -8,3l-43 -60c3,-1 6,-2 8,-2l-1 0z"/>
   <path fill="#D2D2D3" d="M1222 405l43 60c-3,1 -5,2 -8,3l-44 -60c3,-1 5,-2 8,-2l0 -1z"/>
   <path fill="#D2D2D3" d="M1214 407l44 60c-3,1 -5,2 -8,3l-44 -61c3,-1 5,-2 8,-3l-1 1z"/>
   <path fill="#D2D2D3" d="M1206 409l44 61c-3,1 -5,2 -8,3l-45 -62c3,-1 5,-2 8,-3l0 1z"/>
   <path fill="#D3D4D4" d="M1198 412l45 62c-3,1 -5,2 -8,3l-46 -63c3,-1 5,-2 8,-3z"/>
   <path fill="#D3D4D4" d="M1190 413l46 63c-3,1 -5,2 -8,3l-46 -63c3,-1 5,-2 8,-3z"/>
   <path fill="#D3D4D4" d="M1182 416l46 63c-3,1 -5,2 -8,3l-47 -63c3,-1 5,-2 8,-3l1 -1z"/>
   <path fill="#D6D6D6" d="M1174 418l47 63c-3,1 -5,3 -8,3l-47 -64c3,-1 5,-2 8,-3z"/>
   <path fill="#D6D6D6" d="M1167 421l47 64c-3,1 -5,3 -8,3l-48 -65c3,-1 5,-2 8,-3l1 0z"/>
   <path fill="#D6D6D6" d="M1159 423l48 65c-3,1 -5,3 -8,3l-48 -66c3,-1 5,-2 8,-3z"/>
   <path fill="#D6D6D6" d="M1151 426l48 66c-3,1 -5,3 -8,3l-48 -67c3,-1 5,-2 8,-3l1 0z"/>
   <path fill="#D6D6D6" d="M1143 429l48 67c-3,1 -5,3 -7,3l-49 -67c3,-1 5,-2 8,-3l0 -1z"/>
   <path fill="#D7D8D8" d="M1136 432l49 67c-3,1 -5,3 -7,3l-49 -68c3,-1 5,-2 8,-3l-1 1z"/>
   <path fill="#D7D8D8" d="M1128 435l49 68c-3,1 -5,3 -7,3l-50 -68c3,-1 5,-2 8,-3l0 1z"/>
   <path fill="#D7D8D8" d="M1121 438l50 68c-3,1 -5,3 -7,4l-50 -69c3,-1 5,-2 8,-3l-1 0z"/>
   <path fill="#D7D8D8" d="M1113 441l50 69c-3,2 -4,3 -7,4l-51 -70c3,-1 5,-3 8,-3z"/>
   <path fill="#D9DADA" d="M1107 444l51 70c-3,2 -4,3 -7,4l-52 -70c3,-1 5,-3 8,-3l0 -1z"/>
   <path fill="#D9DADA" d="M1099 448l52 70c-3,2 -4,3 -7,4l-52 -71c3,-1 5,-3 8,-3l-1 0z"/>
   <path fill="#D9DADA" d="M1092 451l52 71c-3,2 -4,3 -7,4l-53 -72c3,-1 5,-3 8,-3z"/>
   <path fill="#D9DADA" d="M1085 454l53 72c-3,2 -4,3 -7,4l-53 -73c3,-1 5,-3 8,-3l-1 0z"/>
   <path fill="#D9DADA" d="M1078 458l53 73c-3,2 -4,3 -7,4l0 0 -53 -73c3,-1 5,-3 7,-3l1 0z"/>
   <path fill="gainsboro" d="M1071 461l53 73 -2 1 0 0c-2,1 -3,3 -5,3l-54 -74c3,-1 5,-3 7,-3l1 0z"/>
   <path fill="gainsboro" d="M1063 464l54 74c-3,2 -4,3 -7,4l-54 -75c3,-1 5,-3 7,-3z"/>
   <path fill="gainsboro" d="M1057 468l54 75c-3,2 -4,3 -7,4l-55 -75c3,-2 5,-3 7,-3l1 -1z"/>
   <path fill="#DDDDDE" d="M1050 472l55 75c-3,2 -4,3 -7,4l-56 -76c3,-2 4,-3 7,-4l1 1z"/>
   <path fill="#DDDDDE" d="M1043 476l56 76c-3,2 -4,3 -7,5l-56 -77c3,-2 4,-3 7,-4z"/>
   <path fill="#DDDDDE" d="M1036 479l56 77c-3,2 -4,3 -6,5l-57 -78c3,-2 4,-3 7,-4z"/>
   <path fill="#DDDDDE" d="M1029 483l57 78c-2,2 -4,3 -6,5l-58 -78c3,-2 4,-3 7,-4z"/>
   <path fill="#DDDDDE" d="M1023 488l58 78c-2,2 -4,3 -6,5l-58 -79c3,-2 4,-3 7,-4l-1 0z"/>
   <path fill="#DFE0E0" d="M1016 491l58 79c-2,2 -4,3 -6,5l-58 -80c3,-2 4,-3 7,-4z"/>
   <path fill="#DFE0E0" d="M1009 495l58 80c-2,2 -4,3 -6,5l-59 -81c3,-2 4,-3 7,-4z"/>
   <path fill="#DFE0E0" d="M1003 499l59 81c-2,2 -4,3 -6,5l-59 -82c3,-2 4,-3 7,-4l-1 0z"/>
   <path fill="#DFE0E0" d="M997 504l59 82c-1,1 -3,2 -3,3l-3 3 -60 -83c3,-2 4,-3 7,-4z"/>
   <path fill="#E1E1E1" d="M990 508l60 83c-2,2 -4,3 -6,5l-61 -83c3,-2 4,-3 7,-4z"/>
   <path fill="#E1E1E1" d="M983 513l61 83c-2,2 -4,3 -6,5l-61 -84c3,-2 4,-3 7,-4l-1 0z"/>
   <path fill="#E1E1E1" d="M977 517l61 84c-2,2 -4,3 -6,5l-62 -85c3,-2 4,-3 7,-4z"/>
   <path fill="#E1E1E1" d="M971 522l62 85c-2,2 -4,3 -6,6l-63 -86c3,-2 4,-3 7,-4l0 -1z"/>
   <path fill="#E1E1E1" d="M964 526l63 86c-2,2 -3,3 -6,6l-63 -87c2,-2 4,-3 6,-5l1 0z"/>
   <path fill="#E3E3E3" d="M958 531l63 87c-2,2 -3,3 -6,6l-63 -88c2,-2 4,-3 6,-5z"/>
   <path fill="#E3E3E3" d="M952 535l63 88c-2,2 -3,4 -6,6l-64 -88c2,-2 4,-3 6,-5l1 0z"/>
   <path fill="#E3E3E3" d="M946 540l64 88c-7,8 -13,14 -20,22 -1,1 -1,2 -2,2l-67 -92c8,-7 16,-13 24,-20z"/>
   <path fill="#E3E3E3" d="M946 540l64 88c-2,2 -3,4 -6,6l-65 -89c2,-2 4,-3 6,-5l1 0z"/>
   <path fill="#E3E3E3" d="M940 545l65 89c-2,2 -3,4 -5,6l-66 -90c2,-2 4,-3 6,-5z"/>
   <path fill="#E3E3E3" d="M934 550l66 90c-2,2 -3,4 -5,6l-66 -91c2,-2 4,-3 6,-5l-1 0z"/>
   <path fill="#E4E5E5" d="M928 555l66 91c-2,2 -3,3 -4,5l-1 2 -67 -92c2,-2 4,-3 6,-5l0 -1z"/>
   <path fill="#E4E5E5" d="M922 560l67 92c-2,2 -3,4 -5,6l-68 -93c2,-2 4,-3 6,-5z"/>
   <path fill="#E4E5E5" d="M916 565l68 93c-2,2 -3,4 -5,6l-68 -93c2,-2 4,-3 6,-5z"/>
   <path fill="#E6E7E7" d="M910 570l68 93c-2,2 -3,4 -5,6l-69 -94c2,-2 4,-3 6,-5z"/>
   <path fill="#E6E7E7" d="M904 576l69 94c-2,3 -3,4 -5,7l-70 -96c2,-2 4,-3 6,-5z"/>
   <path fill="#E6E7E7" d="M898 581l70 96c-2,3 -3,4 -5,7l-70 -97c2,-2 4,-3 6,-5l-1 -1z"/>
   <path fill="#E6E7E7" d="M893 586l70 97c-2,3 -3,4 -5,7l-71 -98c2,-2 3,-3 6,-6z"/>
   <path fill="#E6E7E7" d="M888 592l71 98c-2,3 -3,4 -5,7l-72 -98c2,-2 3,-3 6,-6z"/>
   <path fill="#E8E8E8" d="M882 598l72 98c-2,3 -3,4 -5,7l-73 -99c2,-2 3,-4 6,-6z"/>
   <path fill="none" d="M877 603l73 99m-5 7l-73 -101c2,-2 3,-3 6,-6"/>
   <path fill="#E8E8E8" d="M871 608l73 101c-2,3 -3,4 -5,7l-74 -102c2,-2 3,-4 6,-6z"/>
   <path fill="#EAEAEA" d="M865 614l74 102c-2,3 -3,4 -5,7l-75 -103c2,-2 3,-4 5,-6l1 0z"/>
   <path fill="#EAEAEA" d="M860 620l75 103c-2,3 -3,5 -4,7l-76 -104c2,-2 3,-4 5,-6l0 1z"/>
   <path fill="#EAEAEA" d="M855 626l76 104c-2,3 -3,5 -4,7l-77 -105c2,-2 3,-4 5,-6z"/>
   <path fill="#EAEAEA" d="M849 632l77 105c-2,3 -3,5 -4,8l-78 -106c2,-2 3,-4 5,-6l0 -1z"/>
   <path fill="#EAEAEA" d="M844 638l78 106c-2,3 -3,5 -4,8l-78 -107c2,-2 3,-4 5,-6z"/>
   <path fill="#EBECEC" d="M839 643l78 107c-2,3 -3,5 -4,8l-79 -108c2,-2 3,-4 5,-6l0 -1z"/>
   <path fill="#EBECEC" d="M833 650l79 108c-2,3 -3,5 -4,8l-80 -110c2,-2 3,-4 5,-6z"/>
   <path fill="#EBECEC" d="M828 656l80 110c-2,3 -3,5 -4,8l-81 -111c2,-3 3,-4 5,-7z"/>
   <path fill="#EEEEEE" d="M823 663l81 111c-2,3 -3,5 -4,8l-82 -112c2,-3 3,-4 5,-7z"/>
   <path fill="#EEEEEE" d="M818 668l82 112c-2,3 -3,5 -4,8l-83 -113c2,-3 3,-4 5,-7l0 1z"/>
   <path fill="#EEEEEE" d="M813 675l83 113c-2,3 -3,5 -4,8l-83 -115c2,-3 3,-4 5,-7l0 1z"/>
   <path fill="#EEEEEE" d="M809 682l83 115c-2,3 -3,5 -4,8l-84 -116c2,-3 3,-4 5,-7z"/>
   <path fill="#EEEEEE" d="M804 688l84 116c-2,3 -3,5 -4,8l-86 -118c2,-3 3,-4 5,-7l1 0z"/>
   <path fill="#F0F0F0" d="M799 695l86 118c-2,3 -3,5 -3,8l-87 -118c2,-3 3,-4 5,-7l-1 -1z"/>
   <path fill="#F0F0F0" d="M794 702l87 118c-1,3 -3,6 -3,8l-88 -120c2,-3 3,-4 5,-7l-1 0z"/>
   <path fill="#F0F0F0" d="M790 708l88 120c-1,3 -3,6 -3,8l-88 -122c2,-3 3,-5 5,-7l-1 0z"/>
   <path fill="#F1F1F1" d="M785 715l88 122c-1,3 -3,6 -3,8l-90 -123c2,-3 3,-5 4,-7l1 0z"/>
   <path fill="#F1F1F1" d="M781 722l90 123c-1,3 -3,6 -3,8l-91 -124c2,-3 3,-5 4,-7l0 -1z"/>
   <path fill="#F1F1F1" d="M776 729l91 124c-1,3 -3,6 -3,8l-92 -126c2,-3 3,-5 4,-7z"/>
   <path fill="#F1F1F1" d="M772 736l92 126c-1,3 -3,6 -3,8l-93 -128c2,-3 3,-5 4,-8l1 1z"/>
   <path fill="#F1F1F1" d="M768 743l93 128c-1,3 -3,6 -3,9l-94 -129c2,-3 3,-5 4,-8z"/>
   <path fill="#F3F4F4" d="M763 751l94 129c-1,3 -2,6 -3,9l-95 -131c2,-3 3,-5 4,-8z"/>
   <path fill="#F3F4F4" d="M759 758l95 131c-1,3 -2,6 -3,9l-97 -133c2,-3 3,-5 4,-8l1 0z"/>
   <path fill="#F3F4F4" d="M754 765l97 133c-1,3 -2,6 -3,9l-98 -134c2,-3 3,-5 4,-8l-1 0z"/>
   <path fill="whitesmoke" d="M751 773l98 134c-1,3 -2,6 -3,9l-99 -136c2,-3 3,-5 4,-8z"/>
   <path fill="whitesmoke" d="M747 780l99 136c-1,3 -2,7 -3,9l-100 -138c2,-3 3,-5 4,-8l-1 0z"/>
   <path fill="whitesmoke" d="M743 788l100 138c-1,3 -2,7 -3,10l-102 -139c2,-3 3,-5 4,-8l0 -1z"/>
   <path fill="whitesmoke" d="M738 796l102 139c-1,3 -2,7 -3,10l-103 -142c2,-3 3,-5 4,-8z"/>
   <path fill="whitesmoke" d="M734 803l103 142c-1,3 -2,7 -3,10l-104 -143c2,-3 3,-5 4,-8l-1 -1z"/>
   <path fill="#F7F7F7" d="M731 812l104 143c-1,3 -2,7 -3,10l-106 -145c1,-3 3,-5 3,-8l1 0z"/>
   <path fill="#F7F7F7" d="M727 820l106 145c-1,3 -2,7 -3,10l-108 -148c1,-3 3,-5 3,-8l1 1z"/>
   <path fill="#F7F7F7" d="M723 828l107 148c-1,3 -2,7 -3,10l-109 -149c1,-3 3,-6 3,-8l1 0z"/>
   <path fill="#F7F7F7" d="M720 836l109 149c-1,3 -2,7 -2,11l-111 -152c1,-3 3,-6 3,-8z"/>
   <path fill="#F7F7F7" d="M716 844l111 152c-1,3 -2,8 -2,11l-113 -153c1,-3 3,-6 3,-8l0 -1z"/>
   <path fill="#F9F9F9" d="M713 853l113 153c-1,3 -1,8 -2,11l-114 -156c1,-3 3,-6 3,-8z"/>
   <path fill="#F9F9F9" d="M709 861l114 156c-1,3 -1,8 -2,11l-116 -158c1,-3 3,-6 3,-8z"/>
   <path fill="#F9F9F9" d="M706 870l116 158c0,1 0,2 0,3 -4,-3 -8,-5 -13,-8l-106 -145c1,-3 3,-6 3,-8l-1 0z"/>
   <path fill="#FBFBFB" d="M703 878l106 145c-6,-3 -11,-7 -17,-10l-92 -126c1,-3 3,-6 3,-9l-1 0z"/>
   <path fill="#FBFBFB" d="M699 888l92 126c-5,-3 -11,-6 -17,-9l-79 -108c1,-3 2,-6 3,-9l1 1z"/>
   <path fill="#FBFBFB" d="M697 897l79 108c-5,-3 -11,-6 -16,-8l-66 -91c1,-3 2,-6 3,-9l-1 0z"/>
   <path fill="#FBFBFB" d="M693 905l66 91c-5,-3 -10,-6 -16,-8l-53 -73c1,-3 2,-6 3,-9l1 0z"/>
   <path fill="#FBFBFB" d="M691 914l53 73c-5,-3 -10,-5 -15,-8l-41 -56c1,-3 2,-6 3,-9l0 -1z"/>
   <path fill="#FCFCFC" d="M688 924l41 56c-5,-3 -10,-5 -15,-8l-28 -39c1,-3 2,-7 3,-9z"/>
   <path fill="#FCFCFC" d="M685 933l28 39c-5,-3 -10,-5 -15,-7l-17 -23c1,-3 2,-7 3,-9l1 -1z"/>
   <path fill="#FCFCFC" d="M683 943l17 23c-5,-3 -10,-4 -14,-7l-5 -7c1,-3 2,-7 3,-10l0 1z"/>
   <path fill="#FEFEFE" d="M680 953l5 7c-2,-1 -4,-2 -6,-3 0,-2 1,-3 1,-4z"/>
   <path fill="#FEFEFE" d="M2078 2114c0,57 -17,102 -49,136 -33,33 -78,50 -135,50 -58,0 -103,-17 -135,-50 -33,-33 -49,-78 -49,-136 0,-58 17,-103 49,-136 33,-33 78,-50 135,-50 58,0 103,17 135,50 33,33 49,78 49,136zm-122 90c9,-11 16,-23 20,-38 4,-15 7,-33 7,-53 0,-22 -3,-39 -8,-55 -5,-15 -12,-28 -19,-37 -8,-9 -18,-17 -28,-21 -11,-4 -22,-7 -33,-7 -12,0 -23,2 -33,6 -10,4 -20,11 -28,21 -8,9 -14,22 -19,37 -5,16 -8,34 -8,55 0,22 3,39 8,54 5,15 12,27 19,37 8,9 18,17 28,21 11,4 22,7 34,7 12,0 23,-3 34,-7 11,-5 20,-12 28,-21l-2 1z"/>
   <path fill="#FEFEFE" d="M1411 2299c-27,0 -51,-4 -73,-12 -23,-8 -42,-19 -58,-35 -16,-16 -28,-35 -38,-58 -9,-23 -13,-50 -13,-80 0,-28 4,-54 13,-77 8,-23 21,-43 37,-59 16,-16 35,-28 58,-37 23,-8 48,-13 75,-13 15,0 28,1 41,3 12,2 23,4 33,7 11,3 20,7 29,10 9,3 17,8 23,10l0 87 -11 0c-4,-4 -10,-8 -17,-13 -7,-5 -14,-11 -23,-16 -8,-5 -18,-9 -28,-13 -10,-3 -21,-5 -33,-5 -13,0 -25,2 -37,6 -12,4 -23,11 -33,20 -9,9 -17,21 -23,36 -6,15 -8,33 -8,55 0,23 3,41 9,56 7,15 14,27 24,35 10,9 21,15 33,19 12,4 24,6 36,6 11,0 23,-2 33,-5 11,-3 21,-8 30,-13 8,-5 15,-10 22,-15 7,-5 13,-10 17,-13l9 0 0 85c-9,4 -18,8 -26,12 -8,3 -17,7 -26,9 -12,3 -23,6 -33,8 -10,2 -24,3 -43,3l0 1z"/>
   <polygon fill="#FEFEFE" points="1082,2293 968,2293 862,2150 840,2176 840,2293 748,2293 748,1936 840,1936 840,2098 968,1936 1074,1936 935,2101 "/>
   <polygon fill="#FEFEFE" points="422,1936 514,1936 514,2293 422,2293 "/>
  </g>
 </g>
</svg>
