

<!-- Creator: CorelDRAW X6 -->
<svg xmlns="http://www.w3.org/2000/svg" x="0" y="0" xml:space="preserve" width="25mm" height="25mm" version="1.1" shape-rendering="geometricPrecision" text-rendering="geometricPrecision" image-rendering="optimizeQuality" fill-rule="evenodd" clip-rule="evenodd"
viewBox="0 0 2500 2500"
 xmlns:xlink="http://www.w3.org/1999/xlink"
 enable-background="new 0 0 912.7 290.1">
 <defs>
    <linearGradient id="id0" gradientUnits="userSpaceOnUse" x1="1249.59" y1="928.1" x2="1249.59" y2="2475.49">
     <stop offset="0" stop-color="#727271"/>
     <stop offset="1" stop-color="#D9DADA"/>
    </linearGradient>
    <linearGradient id="id1" gradientUnits="userSpaceOnUse" x1="1254.49" y1="217.32" x2="1254.49" y2="2002.45">
     <stop offset="0" stop-color="#727271"/>
     <stop offset="1" stop-color="#D9DADA"/>
    </linearGradient>
 </defs>
 <g id="Layer_x0020_1">
  <metadata id="CorelCorpID_0Corel-Layer"/>
  <g id="_1798577288">
   <g>
    <path fill="#B2B3B3" fill-rule="nonzero" d="M1250 2498l0 -47 0 0 62 -2 61 -5 60 -7 59 -11 58 -13 57 -16 56 -19 55 -21 53 -24 51 -27 51 -29 49 -31 47 -34 46 -36 43 -38 42 -40 40 -42 38 -43 36 -46 34 -47 31 -49 29 -51 27 -51 24 -53 21 -55 19 -56 16 -57 13 -58 11 -59 7 -60 5 -61 2 -62 47 0 -2 65 -5 64 -8 62 -11 61 -14 60 -17 60 -20 58 -22 56 -25 56 -28 54 -30 52 -33 51 -35 49 -37 47 -39 45 -42 43 -43 42 -45 39 -47 37 -49 35 -51 33 -52 30 -54 28 -56 25 -56 22 -58 20 -60 17 -60 14 -61 11 -62 8 -64 5 -65 2 0 0 2 -2zm-1248 -1248l47 0 0 0 2 62 5 61 7 60 11 59 13 58 16 57 19 56 21 55 24 53 27 51 29 51 31 49 34 47 36 46 38 43 40 42 42 40 43 38 46 36 47 34 49 31 51 29 51 27 53 24 55 21 56 19 57 16 58 13 59 11 60 7 61 5 62 2 0 47 -65 -2 -64 -5 -62 -8 -61 -11 -60 -14 -60 -17 -58 -20 -56 -22 -56 -25 -54 -28 -52 -30 -51 -33 -49 -35 -47 -37 -45 -39 -43 -42 -42 -43 -39 -45 -37 -47 -35 -49 -33 -51 -30 -52 -28 -54 -25 -56 -22 -56 -20 -58 -17 -60 -14 -60 -11 -61 -8 -62 -5 -64 -2 -65 0 0 2 2zm1248 -1248l0 47 0 0 -62 2 -61 5 -60 7 -59 11 -58 13 -57 16 -56 19 -55 21 -53 24 -51 27 -51 29 -49 31 -47 34 -46 36 -43 38 -42 40 -40 42 -38 43 -36 46 -34 47 -31 49 -29 51 -27 51 -24 53 -21 55 -19 56 -16 57 -13 58 -11 59 -7 60 -5 61 -2 62 -47 0 2 -65 5 -64 8 -62 11 -61 14 -60 17 -60 20 -58 22 -56 25 -56 28 -54 30 -52 33 -51 35 -49 37 -47 39 -45 42 -43 43 -42 45 -39 47 -37 49 -35 51 -33 52 -30 54 -28 56 -25 56 -22 58 -20 60 -17 60 -14 61 -11 62 -8 64 -5 65 -2 0 0 -2 2zm1248 1248l-47 0 0 0 -2 -62 -5 -61 -7 -60 -11 -59 -13 -58 -16 -57 -19 -56 -21 -55 -24 -53 -27 -51 -29 -51 -31 -49 -34 -47 -36 -46 -38 -43 -40 -42 -42 -40 -43 -38 -46 -36 -47 -34 -49 -31 -51 -29 -51 -27 -53 -24 -55 -21 -56 -19 -57 -16 -58 -13 -59 -11 -60 -7 -61 -5 -62 -2 0 -47 65 2 64 5 62 8 61 11 60 14 60 17 58 20 56 22 56 25 54 28 52 30 51 33 49 35 47 37 45 39 43 42 42 43 39 45 37 47 35 49 33 51 30 52 28 54 25 56 22 56 20 58 17 60 14 60 11 61 8 62 5 64 2 65 0 0 -2 -2z"/>
    <path id="_1" fill="#EBECEC" d="M2475 1250c0,676 -549,1225 -1225,1225 -676,0 -1225,-549 -1225,-1225 0,-676 549,-1225 1225,-1225 676,0 1225,549 1225,1225z"/>
   </g>
   <path fill="#E31E24" d="M2045 1266c-33,230 -92,479 -172,694 -14,36 -25,50 -55,73 -82,58 -166,89 -252,106 -93,18 -198,29 -309,29l-2 0 -2 0c-110,0 -216,-10 -309,-29 -87,-17 -171,-49 -252,-106 -29,-23 -42,-36 -55,-73 -81,-215 -139,-463 -172,-694 -38,-267 -36,-502 19,-642 7,-17 14,-30 20,-38 5,-7 8,-11 8,-11 111,-111 422,-171 743,-172 322,0 632,60 743,172 0,0 3,3 8,11 6,8 13,20 20,38 55,141 57,376 19,642l1 0z"/>
   <path fill="url(#id0)" d="M25 1283c14,-67 48,-109 88,-133 68,-40 87,-143 92,-205l1 -7c-4,41 -7,82 -7,126 0,86 7,178 21,280 42,301 188,622 274,721 -1,-1 5,5 5,5 0,0 20,21 20,21l1 1c208,171 400,231 733,231l2 0c333,0 525,-60 733,-231l1 -1 20 -20c0,0 6,-6 6,-6 86,-99 231,-420 274,-721 15,-103 21,-194 21,-280 0,-47 -2,-92 -7,-136l1 1c7,61 39,221 103,268 33,24 55,50 69,83 -16,663 -558,1196 -1225,1196 -666,0 -1208,-531 -1225,-1193l1 0z"/>
   <path fill="#FEFEFE" d="M2095 1268c-34,239 -95,498 -179,721 -16,42 -32,60 -65,86 -87,62 -179,96 -270,114 -97,19 -208,29 -324,29l-3 0c-116,0 -225,-11 -324,-29 -92,-18 -183,-52 -270,-114 -33,-26 -49,-43 -65,-86 -84,-224 -145,-482 -179,-721 -40,-276 -38,-524 21,-675 8,-20 16,-34 23,-44 7,-9 11,-14 11,-14 123,-123 453,-184 784,-184 331,0 662,61 784,184 0,0 5,5 11,14 7,10 15,25 23,44 60,151 60,400 21,675l-2 0zm107 -614c-38,-89 -102,-163 -185,-216 -206,-129 -440,-205 -677,-220 -28,-2 -56,-2 -85,-2l-2 0c-29,0 -56,1 -85,2 -237,15 -471,91 -677,220 -83,52 -147,127 -185,216 -51,118 -75,252 -75,409 0,85 7,175 21,276 42,295 183,609 266,704 0,0 11,11 23,25 201,164 387,222 712,222l2 0c324,0 511,-59 712,-224 0,0 0,0 0,1 2,-2 5,-6 18,-19l5 -6c83,-95 224,-409 266,-703 15,-101 21,-191 21,-276 0,-157 -25,-291 -75,-409z"/>
   <path fill="url(#id1)" d="M2059 1939c-42,50 -84,63 -97,56 -11,-7 -16,-51 -8,-111 65,-197 113,-413 142,-615 40,-276 38,-524 -21,-675 -8,-20 -16,-34 -23,-44 -7,-9 -11,-14 -11,-14 -123,-123 -453,-184 -784,-184 -331,0 -662,61 -784,184 0,0 -5,5 -11,14 -7,10 -16,25 -23,44 -60,151 -61,400 -21,675 29,202 76,416 141,613 9,61 4,106 -7,114 -14,8 -60,-7 -104,-63 -76,-143 -163,-373 -194,-591 -15,-101 -21,-191 -21,-276 0,-157 25,-291 75,-409 38,-89 102,-163 185,-216 206,-129 440,-205 677,-220 28,-2 56,-2 85,-2l2 0c29,0 57,1 85,2 237,15 471,91 677,220 83,52 147,127 185,216l0 0c51,118 75,252 75,409 0,85 -7,175 -21,276 -32,223 -120,458 -198,599l0 -1z"/>
   <path fill="#9D9E9E" d="M1709 2223c38,-22 78,-58 75,-71 -3,-11 -72,5 -128,19 -25,7 -50,14 -75,19 -97,19 -208,29 -324,29l-3 0c-116,0 -225,-11 -324,-29 -23,-4 -45,-10 -67,-16 -59,-14 -135,-33 -138,-21 -4,14 38,50 77,73 124,47 265,67 451,67l2 0c187,0 328,-20 453,-68l0 -1z"/>
   <path fill="#FEFEFE" d="M488 616c-1,2 -2,4 -3,7 -5,12 -9,25 -13,39 -6,216 -2,497 29,806 9,46 19,91 30,136 -48,-386 -52,-738 -44,-989l1 1zm363 -178c-5,1 -10,2 -14,2 -4,486 2,1246 48,1682 5,2 10,2 15,4 -47,-436 -53,-1201 -48,-1689l-1 0zm-270 87c-5,2 -10,6 -15,9 -11,360 -4,935 81,1441 6,12 12,22 20,31 -91,-519 -97,-1114 -86,-1481zm181 -68c-5,2 -10,2 -15,4 -7,451 -1,1173 61,1633 5,2 10,4 16,7 -63,-462 -69,-1191 -63,-1644l1 0zm441 -54l4 1761c5,0 9,0 14,0l-4 -1762c-5,0 -9,0 -14,0l0 1zm-92 3c0,556 3,1340 12,1753 5,0 9,1 14,1 -9,-413 -12,-1199 -12,-1755 -5,0 -9,1 -14,1zm-78 6c-5,1 -9,1 -14,2 -1,538 3,1324 23,1739 5,1 9,2 14,2 -20,-413 -24,-1202 -23,-1741l0 -1zm-91 11c-5,1 -9,2 -14,2 -2,516 2,1295 34,1716 5,1 10,2 15,2 -33,-421 -38,-1203 -35,-1720zm-271 62c-5,2 -10,3 -15,6 -9,410 -2,1075 74,1565 5,3 11,7 16,9 -78,-493 -85,-1167 -76,-1579zm900 -62c2,516 -2,1299 -35,1720 5,-1 10,-2 15,-2 32,-421 38,-1200 34,-1716 -5,-1 -9,-2 -14,-2zm91 15c5,488 -2,1252 -48,1689 5,-2 10,-2 15,-4 47,-436 52,-1196 48,-1682 -5,-1 -10,-2 -14,-2l-1 0zm-284 1724c5,0 9,-1 14,-1 9,-413 12,-1198 12,-1753 -5,0 -9,-1 -14,-1 0,556 -3,1342 -12,1755zm-84 4c5,0 9,0 14,0l4 -1761c-4,0 -9,0 -14,0l-4 1762 0 -1zm187 -1752c1,539 -3,1328 -23,1741 5,-1 10,-1 14,-2 20,-413 24,-1200 23,-1739 -5,0 -9,-1 -14,-2l0 1zm452 113c11,367 5,962 -86,1481 8,-9 14,-18 20,-31 85,-507 92,-1081 81,-1441 -5,-3 -10,-6 -15,-9zm108 136c-4,-14 -8,-27 -13,-39 -1,-2 -2,-5 -2,-7 8,252 4,603 -43,989 11,-46 20,-92 30,-137 31,-310 35,-591 29,-806l-1 0zm-184 -172c-5,-2 -10,-3 -15,-6 9,412 2,1087 -76,1579 5,-3 11,-6 16,-9 77,-489 83,-1154 74,-1565zm-91 -29c-5,-1 -10,-2 -15,-4 7,453 1,1182 -63,1644 5,-2 11,-4 16,-7 62,-461 69,-1183 62,-1633z"/>
   <path fill="#2B2A29" d="M1338 917c16,0 33,0 43,0 18,42 34,100 48,177 7,39 12,75 15,96l-109 0c0,-29 2,-244 2,-274zm144 -145l-303 0 11 1003 150 0c0,0 1,-405 1,-437l113 0c10,91 12,354 12,417l0 20 147 0 2 -68c5,-252 14,-676 -117,-927l-5 -10 -11 0 0 1zm-850 17l29 985 153 2c0,0 -2,-408 -2,-440l105 0 0 -150 -105 0 0 -262 136 0 0 -150 -315 -2 1 18 -1 0zm493 -18l-162 0 20 1005 157 0 2 -1005 -17 0zm806 0l-366 2 0 149 104 0c0,34 -4,855 -4,855l154 0c0,0 28,-823 29,-855l102 0 0 -150 -18 0 0 -1z"/>
   <g>
    <path fill="#FEFEFE" d="M1582 789l0 114 104 0 -4 855 119 0 29 -855 102 0 0 -114 -349 2 -1 -1zm-904 967l118 1 -2 -440 105 0 0 -115 -105 0 0 -297 136 0 0 -115 -280 -2 28 969zm323 1l122 0 2 -970 -144 0 19 970 1 0zm318 -550l2 -309c0,0 64,1 71,1l2 0c26,55 43,133 54,191 11,64 17,117 17,117l-146 0zm-121 -418l11 968 115 0 1 -437 145 0c13,80 14,409 14,435l0 2 112 0c4,-246 24,-704 -114,-969l-285 0 1 0z"/>
    <path id="_1_0" fill="#2B2A29" fill-rule="nonzero" d="M1581 903l0 -114 2 0 0 114 -1 1 -1 -1 -1 0zm1 1l-1 0 0 -1 1 1zm104 0l-104 0 0 -2 104 0 1 1 -1 1 0 1zm0 -2l1 0 0 1 -1 -1zm-6 856l4 -855 2 0 -4 855 -1 1 -1 -1 -1 0zm1 1l-1 0 0 -1 1 1zm119 0l-119 0 0 -2 119 0 1 1 -1 1 0 1zm1 -1l0 1 -1 0 1 -1zm29 -855l-29 855 -2 0 29 -855 1 -1 1 1 1 0zm-2 0l0 -1 1 0 -1 1zm103 1l-102 0 0 -2 102 0 1 1 -1 1 0 1zm1 -1l0 1 -1 0 1 -1zm0 -114l0 114 -2 0 0 -114 1 -1 1 1 1 0zm-1 -1l1 0 0 1 -1 -1zm-349 2l349 -2 0 2 -349 2 -1 -1 1 -1 0 -1zm-1 1l0 -1 1 0 -1 1zm-785 970l-118 -1 0 -2 118 1 1 1 -1 1 0 1zm1 -1l0 1 -1 0 1 -1zm-2 -440l2 440 -2 0 -2 -440 1 -1 1 1 1 0zm-2 0l0 -1 1 0 -1 1zm106 1l-105 0 0 -2 105 0 1 1 -1 1 0 1zm1 -1l0 1 -1 0 1 -1zm0 -115l0 115 -2 0 0 -115 1 -1 1 1 1 0zm-1 -1l1 0 0 1 -1 -1zm-105 0l105 0 0 2 -105 0 -1 -1 1 -1 0 -1zm0 2l-1 0 0 -1 1 1zm1 -298l0 297 -2 0 0 -297 1 -1 1 1 1 0zm-2 0l0 -1 1 0 -1 1zm137 1l-136 0 0 -2 136 0 1 1 -1 1 0 1zm1 -1l0 1 -1 0 1 -1zm0 -115l0 115 -2 0 0 -115 1 -1 1 1 1 0zm-1 -1l1 0 0 1 -1 -1zm-280 -2l280 2 0 2 -280 -2 -1 -1 1 -1 0 -1zm-1 1l0 -1 1 0 -1 1zm28 969l-28 -969 2 0 28 969 -1 1 -1 -1 -1 0zm1 1l-1 0 0 -1 1 1zm444 1l-122 0 0 -2 122 0 1 1 -1 1 0 1zm1 -1l0 1 -1 0 1 -1zm2 -970l-2 970 -2 0 2 -970 1 -1 1 1 1 0zm-1 -1l1 0 0 1 -1 -1zm-144 0l144 0 0 2 -144 0 -1 -1 1 -1 0 -1zm-1 1l0 -1 1 0 -1 1zm19 970l-19 -970 2 0 19 970 -1 1 -1 -1 -1 0zm1 1l-1 0 0 -1 1 1zm322 -860l-2 309 -2 0 2 -309 1 -1 1 1 1 0zm-2 0l0 -1 1 0 -1 1zm72 0l0 2 0 0 -1 0 -1 0 -2 0 -2 0 -2 0 -2 0 -2 0 -2 0 -2 0 -2 0 -3 0 -3 0 -3 0 -3 0 -3 0 -3 0 -3 0 -3 0 -3 0 -3 0 -2 0 -2 0 -2 0 -2 0 -2 0 -2 0 -2 0 -2 0 -1 0 -1 0 -1 0 0 0 0 -2 0 0 1 0 1 0 1 0 2 0 2 0 2 0 2 0 2 0 2 0 2 0 2 0 3 0 3 0 3 0 3 0 3 0 3 0 3 0 3 0 3 0 3 0 2 0 2 0 2 0 2 0 2 0 2 0 2 0 2 0 1 0 1 0 0 0zm2 2l-2 0 0 -2 2 0 1 1 -1 2zm0 -2l1 0 0 1 -1 -1zm55 192l-2 0 0 0 -1 -6 -1 -6 -1 -6 -1 -6 -1 -6 -1 -6 -2 -6 -2 -7 -2 -7 -2 -7 -2 -7 -2 -7 -2 -7 -2 -7 -2 -7 -2 -7 -2 -7 -2 -7 -2 -7 -2 -7 -2 -7 -2 -7 -2 -6 -2 -6 -2 -6 -2 -6 -2 -6 -2 -6 -2 -6 -2 -6 -2 -5 -2 -5 2 -1 2 5 2 6 2 6 2 6 2 6 2 6 2 6 2 6 2 6 2 6 2 7 2 7 2 7 2 7 2 7 2 7 2 7 2 7 2 7 2 7 2 7 2 7 2 7 2 7 2 7 2 6 1 6 1 6 1 6 1 6 1 6 1 6 0 0zm-2 0l0 0 0 2 0 -2zm18 118l0 -2 -1 1 0 0 0 -1 0 -1 0 -1 0 -2 0 -2 0 -2 0 -2 0 -2 0 -2 0 -2 0 -3 -1 -3 -1 -3 -1 -4 -1 -4 -1 -4 -1 -4 -1 -4 -1 -5 -1 -5 -1 -5 -1 -5 -1 -5 -1 -5 -1 -6 -1 -6 -1 -6 -1 -6 -1 -6 -1 -6 -1 -6 2 0 1 6 1 6 1 6 1 6 1 6 1 6 1 6 1 5 1 5 1 5 1 5 1 5 1 5 1 4 1 4 1 4 1 4 1 4 1 3 1 3 0 3 0 2 0 2 0 2 0 2 0 2 0 2 0 2 0 1 0 1 0 1 0 0 -1 1 0 1zm1 -1l0 1 -1 0 1 -1zm-147 -1l146 0 0 2 -146 0 -1 -1 1 -1 0 -1zm0 2l-1 0 0 -1 1 1zm-111 549l-11 -968 2 0 11 968 -1 1 -1 -1 -1 0zm1 1l-1 0 0 -1 1 1zm115 0l-115 0 0 -2 115 0 1 1 -1 1 0 1zm1 -1l0 1 -1 0 1 -1zm1 -437l-1 437 -2 0 1 -437 1 -1 1 1 1 0zm-2 0l0 -1 1 0 -1 1zm146 1l-145 0 0 -2 145 0 1 1 -1 1 0 1zm0 -2l1 0 0 1 -1 -1zm16 436l-2 0 0 0 0 -3 0 -5 0 -7 0 -8 0 -10 0 -11 0 -12 0 -13 0 -14 0 -15 0 -16 0 -16 0 -17 0 -17 0 -18 0 -18 0 -18 -1 -18 -1 -18 -1 -18 -1 -18 -1 -17 -1 -17 -1 -16 -1 -16 -1 -15 -1 -14 -1 -13 -1 -12 -1 -11 -1 -10 -1 -8 2 0 1 8 1 10 1 11 1 12 1 13 1 14 1 15 1 16 1 16 1 17 1 17 1 18 1 18 1 18 1 18 0 18 0 18 0 18 0 17 0 17 0 16 0 16 0 15 0 14 0 13 0 12 0 11 0 10 0 8 0 7 0 5 0 3 0 0zm-2 2l0 -2 2 0 0 2 -1 1 -1 -1 -1 0zm1 1l-1 0 0 -1 1 1zm112 0l-112 0 0 -2 112 0 1 1 -1 1 0 1zm1 -1l0 1 -1 0 1 -1zm-115 -968l0 -2 1 1 12 25 11 26 11 28 10 29 9 29 8 30 7 31 7 31 7 32 6 32 5 33 4 33 4 33 3 34 3 34 2 33 2 34 2 34 2 33 1 33 1 33 1 32 0 32 0 31 0 30 0 29 -1 29 -1 28 -1 27 -1 26 -1 25 -1 24 -2 0 1 -24 1 -25 1 -26 1 -27 1 -28 1 -29 0 -29 0 -30 0 -31 0 -32 -1 -32 -1 -33 -1 -33 -2 -33 -2 -34 -2 -34 -2 -33 -3 -34 -3 -34 -4 -33 -4 -33 -5 -33 -6 -32 -7 -32 -7 -31 -7 -30 -8 -30 -9 -29 -10 -29 -11 -28 -11 -26 -12 -25 1 1 1 0zm0 -2l1 0 0 1 -1 -1zm-285 0l285 0 0 2 -285 0 -1 -1 1 -1 0 -1zm-1 1l0 -1 1 0 -1 1z"/>
   </g>
  </g>
 </g>
 <g id="Layer_x0020_1_1">
  <metadata id="CorelCorpID_1Corel-Layer"/>
 </g>
 <g id="Layer_x0020_1_2">
  <metadata id="CorelCorpID_2Corel-Layer"/>
 </g>
 <g id="Layer_x0020_1_0">
  <metadata id="CorelCorpID_3Corel-Layer"/>
 </g>
 <g id="Layer_x0020_1_0_3">
  <metadata id="CorelCorpID_4Corel-Layer"/>
 </g>
 <g id="Layer_x0020_1_4">
  <metadata id="CorelCorpID_5Corel-Layer"/>
 </g>
 <g id="Layer_x0020_1_0_5">
  <metadata id="CorelCorpID_6Corel-Layer"/>
 </g>
 <g id="Layer_x0020_1_0_6">
  <metadata id="CorelCorpID_7Corel-Layer"/>
 </g>
 <g id="Layer_x0020_1_0_7">
  <metadata id="CorelCorpID_8Corel-Layer"/>
 </g>
 <g id="Layer_x0020_1_0_8">
  <metadata id="CorelCorpID_9Corel-Layer"/>
 </g>
 <g id="Layer_x0020_1_0_2">
  <metadata id="CorelCorpID_10Corel-Layer"/>
 </g>
 <g id="Layer_x0020_1_0_2_8">
  <metadata id="CorelCorpID_11Corel-Layer"/>
 </g>
 <g id="Layer_x0020_1_0_9">
  <metadata id="CorelCorpID_12Corel-Layer"/>
 </g>
 <g id="Layer_x0020_1_1_10">
  <metadata id="CorelCorpID_13Corel-Layer"/>
 </g>
 <g id="Layer_x0020_1_11">
  <metadata id="CorelCorpID_14Corel-Layer"/>
 </g>
</svg>
