

<!-- Creator: CorelDRAW X6 -->
<svg xmlns="http://www.w3.org/2000/svg" x="0" y="0" xml:space="preserve" width="26mm" height="25mm" version="1.1" shape-rendering="geometricPrecision" text-rendering="geometricPrecision" image-rendering="optimizeQuality" fill-rule="evenodd" clip-rule="evenodd"
viewBox="0 0 2600 2500"
 xmlns:xlink="http://www.w3.org/1999/xlink"
 enable-background="new 0 0 912.7 290.1">
 <g id="Layer_x0020_1">
  <metadata id="CorelCorpID_0Corel-Layer"/>
 </g>
 <g id="Layer_x0020_1_0">
  <metadata id="CorelCorpID_1Corel-Layer"/>
 </g>
 <g id="Layer_x0020_1_0_1">
  <metadata id="CorelCorpID_2Corel-Layer"/>
 </g>
 <g id="Layer_x0020_1_0_2">
  <metadata id="CorelCorpID_3Corel-Layer"/>
 </g>
 <g id="Layer_x0020_1_3">
  <metadata id="CorelCorpID_4Corel-Layer"/>
 </g>
 <g id="Layer_x0020_1_0_4">
  <metadata id="CorelCorpID_5Corel-Layer"/>
 </g>
 <g id="Layer_x0020_1_0_5">
  <metadata id="CorelCorpID_6Corel-Layer"/>
 </g>
 <g id="Layer_x0020_1_0_6">
  <metadata id="CorelCorpID_7Corel-Layer"/>
 </g>
 <g id="Layer_x0020_1_0_7">
  <metadata id="CorelCorpID_8Corel-Layer"/>
 </g>
 <g id="Layer_x0020_1_0_2_8">
  <metadata id="CorelCorpID_9Corel-Layer"/>
 </g>
 <g id="Layer_x0020_1_0_2_8_9">
  <metadata id="CorelCorpID_10Corel-Layer"/>
 </g>
 <g id="Layer_x0020_1_0_10">
  <metadata id="CorelCorpID_11Corel-Layer"/>
 </g>
 <g id="Layer_x0020_1_1">
  <metadata id="CorelCorpID_12Corel-Layer"/>
 </g>
 <g id="Layer_x0020_1_11">
  <metadata id="CorelCorpID_13Corel-Layer"/>
 </g>
 <g id="Layer_x0020_1_12">
  <metadata id="CorelCorpID_14Corel-Layer"/>
 </g>
 <g id="Layer_x0020_1_12">
  <metadata id="CorelCorpID_15Corel-Layer"/>
  <g id="_354957160">
   <path fill="#393185" d="M1300 2500c710,0 1285,-560 1285,-1250 0,-690 -575,-1250 -1285,-1250 -709,0 -1285,560 -1285,1250 0,690 575,1250 1285,1250z"/>
   <path fill="#FEFEFE" d="M1412 2060c0,0 83,-2 132,-21 50,-18 98,-12 116,-35 19,-23 37,-19 58,-23 21,-4 79,-25 89,2 11,27 2,54 21,64 18,11 51,68 62,99 11,32 -18,50 -66,77 -47,27 -207,95 -249,95 -41,0 -56,0 -68,11 -12,10 -80,39 -89,-2 -8,-41 18,-47 -2,-95 -21,-47 -54,-151 -4,-172l1 0z"/>
   <path fill="#FEFEFE" d="M1302 1984c418,0 756,-339 756,-756 0,-417 -339,-756 -756,-756 -417,0 -756,339 -756,756 0,417 339,756 756,756z"/>
   <path fill="#393185" d="M1021 527c0,0 -4,54 29,54 33,0 83,-33 62,12 -21,46 -46,70 -46,145 0,75 -8,116 -17,153 -8,37 -4,58 17,133 21,75 169,104 293,116 124,12 207,33 245,25 37,-8 108,4 149,12 41,8 115,75 54,162 -62,87 -83,136 -108,198 -25,62 -66,58 -83,108 -17,50 -37,66 -50,124 -12,58 -54,66 -66,95 -12,29 -18,58 -18,91 0,33 -109,40 -151,2 -41,-37 -115,-119 -157,-193 -41,-75 -33,-120 -41,-235 -8,-115 4,-128 -29,-173 -33,-46 -25,-104 -46,-116 -21,-12 -17,-62 -137,-17 -120,46 -75,83 -162,75 -87,-8 -97,-70 -22,-120 75,-50 136,-79 159,-114 22,-36 47,-64 -32,-91 -79,-27 -43,-68 -19,-114 25,-46 58,-70 58,-126 0,-56 4,-83 40,-81 35,2 37,11 33,33 -4,22 22,29 22,-29 0,-58 -15,-120 21,-128z"/>
   <path fill="#FEFEFE" d="M946 780c27,-1 39,8 36,31 -4,23 -19,41 -27,33 -8,-8 -77,-62 -8,-64l-1 0z"/>
   <path fill="#FEFEFE" d="M917 904c0,0 37,-15 33,17 -4,32 -37,25 -33,-17z"/>
   <path fill="#FEFEFE" d="M1263 1374c0,0 -4,68 -4,128 0,60 6,108 22,163 17,56 19,141 58,177 39,37 105,70 114,-15 8,-85 29,-136 6,-136 -22,0 -8,-43 27,-41 36,2 114,-6 108,-58 -6,-52 11,-108 31,-130 21,-23 -25,-90 -143,-115 -118,-25 -219,-39 -219,27l0 1z"/>
   <path fill="#FEFEFE" d="M133 1368c0,0 -24,-66 12,-60 36,6 54,22 97,46 43,25 103,39 114,42 11,3 73,29 84,73 11,44 2,47 15,62 12,15 43,65 16,82 -28,17 -88,94 -103,137 -14,42 -25,109 -52,82 -28,-27 -25,-63 -46,-65 -22,-2 -65,-19 -41,-42 24,-24 39,-30 43,-50 4,-20 5,-12 -8,-45 -14,-32 -47,-135 -47,-148 -1,-12 -32,-24 -51,-37 -19,-13 -37,-25 -36,-38 1,-13 5,-28 6,-39l-1 -1z"/>
   <path fill="#393185" d="M268 1482c0,0 27,-4 41,6 15,11 21,22 41,24 20,1 39,4 31,25 -8,21 -36,45 -46,60 -11,16 -20,22 -46,-20 -27,-41 -41,-94 -21,-95l0 1z"/>
   <path fill="#FEFEFE" d="M847 2255c0,0 -69,-15 -45,-41 23,-27 46,-34 90,-58 44,-24 87,-66 96,-75 8,-8 63,-47 106,-32 43,15 41,23 61,21 19,-3 78,-2 77,30 -1,32 34,124 62,159 28,35 80,79 41,88 -37,10 -67,-12 -80,5 -13,17 -51,46 -58,12 -7,-32 -5,-49 -19,-63 -15,-14 -8,-11 -42,-16 -35,-6 -140,-32 -151,-37 -11,-5 -37,15 -58,24 -21,8 -41,18 -52,11 -11,-7 -21,-19 -30,-26l1 -2z"/>
   <path fill="#393185" d="M1016 2202c0,0 11,-25 27,-32 17,-7 31,-6 41,-22 11,-16 24,-32 37,-13 13,17 19,54 27,71 7,17 8,28 -41,28 -49,0 -100,-15 -92,-32l0 -1z"/>
   <path fill="#FEFEFE" d="M361 1905c0,0 -17,-43 6,-52 23,-8 40,-6 75,-37 36,-32 46,-47 75,-72 29,-25 73,-21 83,12 11,33 32,101 33,180 2,78 22,133 41,134 18,2 62,-54 72,-85 11,-32 41,-56 64,-46 23,11 68,37 46,79 -22,41 -75,46 -80,79 -6,33 -12,80 -40,97 -27,17 -128,-29 -130,-76 -2,-47 -25,-105 -27,-159 -2,-54 -2,-105 -41,-83 -39,23 -50,23 -70,44 -21,21 -32,93 -105,-15z"/>
   <path fill="#FEFEFE" d="M2156 1439c0,0 36,-32 94,-12 58,21 93,46 122,29 29,-17 47,-78 47,-132 0,-54 22,-89 47,-68 25,21 11,64 2,109 -8,46 -22,62 -22,89 0,27 -12,64 -32,85 -19,21 0,25 -6,46 -6,21 -50,31 -114,-7 -64,-37 -91,-35 -108,-35 -17,0 -64,-4 -32,-104l2 0z"/>
   <path fill="#FEFEFE" d="M1881 1880c0,0 68,-53 133,-143 51,-72 75,-132 136,-105 62,27 145,68 167,78 22,11 29,40 11,68 -19,29 -56,64 -75,101 -19,37 -99,126 -126,134 -27,8 -56,75 -80,75 -25,0 -207,-153 -166,-209l0 1z"/>
   <path fill="#393185" d="M1989 1847c0,0 58,-50 68,-75 11,-25 37,-36 68,-36 31,0 78,44 93,54 15,11 22,33 -8,66 -31,33 -47,62 -72,85 -25,22 -50,56 -87,18 -37,-37 -79,-83 -62,-114l1 1z"/>
   <path fill="#393185" d="M1523 2112c0,0 15,-12 36,-21 21,-8 46,-22 56,-15 11,8 33,-2 51,-8 19,-7 50,-21 66,8 17,29 47,85 18,114 -29,29 -83,36 -105,44 -22,8 -42,36 -85,27 -27,-6 -29,-23 -22,-40 6,-17 -6,-18 -17,-33 -10,-15 -4,-73 2,-76l-1 1z"/>
  </g>
 </g>
</svg>
