

<!-- Creator: CorelDRAW X6 -->
<svg xmlns="http://www.w3.org/2000/svg" x="0" y="0" xml:space="preserve" width="26mm" height="25mm" version="1.1" shape-rendering="geometricPrecision" text-rendering="geometricPrecision" image-rendering="optimizeQuality" fill-rule="evenodd" clip-rule="evenodd"
viewBox="0 0 2600 2500"
 xmlns:xlink="http://www.w3.org/1999/xlink"
 enable-background="new 0 0 912.7 290.1">
 <g id="Layer_x0020_1">
  <metadata id="CorelCorpID_0Corel-Layer"/>
 </g>
 <g id="Layer_x0020_1_0">
  <metadata id="CorelCorpID_1Corel-Layer"/>
 </g>
 <g id="Layer_x0020_1_0_1">
  <metadata id="CorelCorpID_2Corel-Layer"/>
 </g>
 <g id="Layer_x0020_1_0_2">
  <metadata id="CorelCorpID_3Corel-Layer"/>
 </g>
 <g id="Layer_x0020_1_3">
  <metadata id="CorelCorpID_4Corel-Layer"/>
 </g>
 <g id="Layer_x0020_1_0_4">
  <metadata id="CorelCorpID_5Corel-Layer"/>
 </g>
 <g id="Layer_x0020_1_0_5">
  <metadata id="CorelCorpID_6Corel-Layer"/>
 </g>
 <g id="Layer_x0020_1_0_6">
  <metadata id="CorelCorpID_7Corel-Layer"/>
 </g>
 <g id="Layer_x0020_1_0_7">
  <metadata id="CorelCorpID_8Corel-Layer"/>
 </g>
 <g id="Layer_x0020_1_0_2_8">
  <metadata id="CorelCorpID_9Corel-Layer"/>
 </g>
 <g id="Layer_x0020_1_0_2_8_9">
  <metadata id="CorelCorpID_10Corel-Layer"/>
 </g>
 <g id="Layer_x0020_1_0_10">
  <metadata id="CorelCorpID_11Corel-Layer"/>
 </g>
 <g id="Layer_x0020_1_1">
  <metadata id="CorelCorpID_12Corel-Layer"/>
 </g>
 <g id="Layer_x0020_1_11">
  <metadata id="CorelCorpID_13Corel-Layer"/>
 </g>
 <g id="Layer_x0020_1_12">
  <metadata id="CorelCorpID_14Corel-Layer"/>
 </g>
 <g id="Layer_x0020_1_12">
  <metadata id="CorelCorpID_15Corel-Layer"/>
  <g id="_146076672">
   <circle fill="#FEFEFE" cx="1300" cy="1250" r="1250"/>
   <g>
    <path fill="#9D122D" d="M1419 797l84 65 0 44c1,15 28,16 56,40 -11,8 -56,22 -55,38l0 44 -88 66c-4,3 -9,2 -12,-2 -3,-3 -2,-8 2,-12l63 -47c4,-40 -8,-29 -20,-66 -3,-3 -5,-38 0,-44 3,-30 32,-43 23,-67l-63 -48c-3,-3 -4,-8 -2,-12 3,-4 8,-4 12,-2zm-958 538l2 22 308 -2 1 552c60,51 134,96 216,126l1 -676 284 -1 0 -215 -283 1 -1 -675c-85,33 -149,74 -209,123l0 552 -315 0c-5,35 -8,73 -8,110 0,29 2,58 4,85l0 -1zm914 -433c-23,0 -43,19 -43,43 0,23 19,43 43,43 19,0 36,-13 41,-31 1,-3 27,-6 27,-10 0,-3 -26,-9 -27,-13 -4,-18 -22,-33 -42,-33l1 1zm163 -206l288 0 0 28 -288 0 0 -28z"/>
    <path fill="#01204E" d="M1300 63c654,0 1188,534 1188,1188 0,654 -533,1188 -1188,1188 -654,0 -1188,-533 -1188,-1188 0,-654 533,-1188 1188,-1188zm0 307c-486,0 -882,396 -882,882 0,485 396,881 882,881 485,0 881,-396 881,-881 0,-486 -396,-882 -881,-882z"/>
    <path fill="#93D6E5" d="M1321 2093c455,-11 823,-386 823,-843 0,-458 -368,-833 -823,-843l0 1687z"/>
    <polygon fill="#FCC519" points="256,809 235,863 433,946 482,830 438,813 413,876 "/>
    <polygon fill="#FCC519" points="554,701 589,658 528,604 567,557 531,528 491,574 463,550 508,498 471,468 390,564 "/>
    <polygon fill="#FCC519" points="1857,506 1897,545 1997,473 1951,579 1977,606 2085,562 2010,661 2048,701 2178,527 2138,484 2025,533 2075,422 2034,381 "/>
    <polygon fill="#FCC519" points="2307,725 2112,813 2162,928 2206,908 2178,847 2211,832 2237,888 2280,869 2255,811 2288,796 2316,858 2358,838 "/>
    <path fill="#FCC519" d="M766 417l40 -24 -56 -48 17 71 -1 1zm-78 -112l53 -32 183 138 -53 32 -32 -23 -66 40 8 39 -53 33 -41 -228 -1 -1z"/>
    <path fill="#FCC519" d="M1242 107l105 1c66,1 80,108 11,126l68 87 -73 0 -53 -79 0 82 -58 1 0 -216 0 -1zm58 43l-2 53 22 1c30,1 32,-51 2,-53l-22 -1z"/>
    <path fill="#FCC519" d="M1746 193c56,33 71,91 43,151 -27,60 -97,79 -161,48 -64,-31 -86,-103 -52,-162 34,-58 113,-70 169,-38zm-67 38c-35,0 -57,28 -57,62 0,34 30,59 62,59 31,0 60,-28 60,-63 0,-34 -30,-58 -65,-58z"/>
    <path fill="#FCC519" d="M2324 1113c35,1 61,28 61,62 0,34 -25,62 -57,62 -32,0 -63,-28 -63,-62 0,-34 24,-62 59,-62l-1 0zm53 -46c-57,-31 -128,-11 -155,48 -28,60 -11,133 51,166 62,34 130,6 158,-54 28,-60 3,-130 -53,-161l0 1z"/>
    <path fill="#FDC619" d="M1053 2096l493 0c-78,23 -161,35 -246,35 -86,0 -168,-13 -247,-35z"/>
    <path fill="#FDC619" d="M955 2061l112 0c66,19 135,30 206,33l0 -33 48 0 0 33c73,-2 145,-13 213,-33l112 0c-106,45 -223,71 -344,71 -123,0 -239,-25 -345,-71l-1 0z"/>
    <path fill="#FDC619" d="M1547 2096l-493 0c-60,-18 -118,-42 -171,-71l86 0c13,5 25,11 38,16l0 -16 16 21 20 8c73,23 151,38 231,40l0 -68 48 0 0 68c110,-3 215,-27 311,-68l86 0c-54,29 -112,53 -172,71l-1 0z"/>
    <path fill="#FDC619" d="M1645 2061l-112 0c60,-18 118,-41 171,-71l73 0c-42,27 -86,51 -133,71zm-324 0l-48 0 0 -71 48 0 0 71zm-253 0l-112 0c-47,-20 -91,-43 -133,-71l73 0c30,17 62,32 93,43l-2 -678 34 0 0 692c8,3 36,11 44,13l1 1z"/>
    <path fill="#FDC619" d="M1718 2025l-86 0c35,-15 69,-33 102,-52l-45 -12 7 -7 133 0c-35,26 -72,50 -110,71l-1 -1zm-398 0l-48 0 0 -71 48 0 0 71zm-314 0l0 -71 0 71zm-38 0l-86 0c-38,-21 -75,-44 -110,-71l65 0c43,26 85,51 131,71z"/>
    <path fill="#FDC619" d="M1778 1990l-73 0c10,-5 19,-11 29,-17l-45 -12 31 -29c-3,0 -5,-1 -8,-1 -28,-2 -55,0 -82,0 -15,-2 -29,-4 -42,-12l169 0c1,5 1,11 -2,17 10,-4 16,-11 20,-17l97 0c-30,25 -62,49 -94,71l-1 -1zm-457 0l-48 0 0 -71 48 0 0 71zm-314 0l0 -71 0 71zm-111 0l-73 0c-33,-22 -64,-45 -94,-71l59 0c34,26 70,50 108,71z"/>
    <path fill="#FDC619" d="M1828 1955l-133 0 24 -23c-3,0 -5,-1 -8,-1 -28,-2 -55,0 -82,0 -24,-2 -44,-9 -62,-28 -5,-6 -9,-13 -13,-19l47 0c8,6 18,9 32,9l73 0c20,0 58,6 48,43 28,-13 28,-38 11,-53l45 0c4,11 5,22 3,33 14,-11 28,-22 41,-33l56 0c-26,25 -54,48 -83,71l-1 0zm-508 0l-48 0 0 -71 48 0 0 71zm-314 0l0 -71 0 71zm-169 0l-65 0c-29,-22 -57,-45 -83,-71l56 0c3,3 5,5 8,8l-6 -4 27 21c16,13 46,35 63,46l-1 1z"/>
    <path fill="#FDC619" d="M1872 1919l-97 0c11,-21 -8,-46 -39,-45l-85 0c-20,0 -32,-13 -33,-26l177 0c-3,1 -7,2 -10,2 4,3 8,6 11,9 16,18 23,37 19,58 28,-22 54,-44 79,-69l52 0c-23,25 -48,48 -73,71zm-115 0l-169 0c-7,-4 -13,-9 -20,-16 -13,-16 -20,-35 -22,-55l38 0c2,25 18,44 49,44l73 0c17,0 45,4 49,26l2 1zm-436 0l-48 0 0 -71 48 0 0 71zm-314 0l0 -71 0 71zm-258 -34l-19 34c-26,-22 -51,-46 -73,-71l53 0c15,15 11,10 27,23l38 33c0,0 -24,-21 -24,-21l-1 1z"/>
    <path fill="#FDC619" d="M1911 1884l-56 0c25,-22 49,-46 72,-71l49 0c-21,25 -43,48 -66,71l1 0zm-100 0l-45 0c-8,-6 -18,-10 -30,-9l-85 0c-44,0 -46,-59 -1,-59l108 0c8,0 15,-1 21,-2l68 0c-16,20 -38,33 -63,38 4,3 8,6 11,9 8,8 13,16 16,24l0 -1zm-209 0l-47 0c-11,-22 -12,-47 -4,-71l41 0c-5,8 -8,18 -8,29 0,18 5,32 18,42zm-282 0l-48 0 0 -71 48 0 0 71zm-314 0l0 -71 0 71zm-272 3l0 -74 0 74zm11 -3l-56 0c-23,-23 -45,-46 -66,-71l50 0c23,25 46,48 72,71z"/>
    <path fill="#FDC619" d="M1945 1849l-52 0c23,-23 44,-46 63,-71l48 0c-18,24 -38,48 -59,71zm-151 0l-177 0c-3,-16 8,-33 33,-33l108 0c34,0 56,-12 67,-38l39 0c-3,8 -5,15 -9,23 -13,25 -35,42 -62,48zm-210 0l-38 0c-1,-16 3,-32 9,-47 4,-9 10,-18 17,-24l198 0c-7,8 -18,13 -33,13l-105 0c-27,0 -47,24 -47,52 0,3 0,4 0,6l-1 1zm-263 0l-48 0 0 -71 48 0 0 71zm-314 0l0 -71 0 71zm-253 0l0 -71 0 71zm-46 0l-53 0c-21,-23 -41,-46 -59,-71l48 0c20,25 42,48 64,71z"/>
    <path fill="#FDC619" d="M2004 1778l-48 0c18,-23 35,-46 51,-71l44 0c-15,24 -31,48 -48,71l1 0zm-140 0l-39 0c1,-3 2,-5 3,-8 7,-23 6,-45 -1,-63l39 0c6,23 5,48 -2,71zm-95 0l-198 0c8,-8 18,-15 28,-19l-29 -1c-29,-2 -55,-6 -82,-18l-13 -8c-11,-8 -20,-15 -28,-24l61 0c18,8 42,13 69,13l155 0c43,0 54,38 35,58l0 -1zm-448 0l-48 0 0 -71 48 0 0 71zm-314 0l0 -71 0 71zm-273 0l1 -73 -1 73zm-90 0l-48 0c-18,-23 -33,-47 -48,-71l44 0c16,24 33,48 51,71l1 0z"/>
    <path fill="#FDC619" d="M2029 1743l-46 0c17,-23 32,-47 46,-71l43 0c-13,24 -28,48 -43,71l1 0zm-159 0l-38 0c1,-18 -4,-35 -12,-47 -7,-9 -13,-18 -27,-23l56 0c5,8 10,17 13,26 5,15 7,29 7,44zm-95 0l-278 0c-3,-1 -5,-3 -8,-3l-13 -8c-22,-15 -35,-31 -47,-54l-3 -6 42 0c18,32 57,48 110,48l155 0c22,0 36,10 41,23zm-455 0l-48 0 0 -71 48 0 0 71zm-314 0l0 -71 0 71zm-390 0l-46 0c-15,-23 -30,-47 -43,-71l43 0c14,24 29,48 46,71z"/>
    <path fill="#FDC619" d="M2053 1708l-44 0c15,-23 28,-47 42,-71l42 0c-12,24 -25,48 -38,71l-1 0zm-187 0l-39 0c-2,-4 -4,-8 -7,-12 -10,-15 -22,-28 -53,-28l-186 0c-25,0 -38,-15 -41,-31l267 0c27,11 46,34 56,62 1,3 2,6 3,9l1 0zm-356 0l-61 0c-8,-8 -13,-18 -18,-29l-5 -13c-3,-9 -4,-18 -5,-28l38 0c4,33 23,57 53,71l-1 -1zm-189 0l-48 0 0 -71 48 0 0 71zm-314 0l0 -71 0 71zm-228 210l-45 -44 -1 -270 0 -249 46 -1 -1 564 1 0zm-187 -210l-44 0c-14,-23 -27,-47 -38,-71l42 0c13,24 27,48 42,71l-1 0z"/>
    <path fill="#FDC619" d="M2073 1673l-43 0c13,-23 25,-47 37,-71l41 0c-11,24 -23,48 -35,71zm-223 0l-56 0c-7,-3 -16,-5 -28,-5l-186 0c-48,0 -53,-54 -16,-66l368 0c-15,12 -33,20 -52,26 -22,7 -42,9 -64,9l-9 0c18,8 32,20 43,35l-1 1zm-381 0l-42 0 -3 -8c-6,-22 -8,-42 -5,-63l38 0c-1,6 -2,12 -2,18 0,20 4,38 13,53zm-149 0l-48 0 0 -71 48 0 0 71zm-314 0l0 -71 0 71zm-253 0l0 -71 0 71zm-183 0l-43 0c-13,-23 -24,-47 -35,-71l41 0c12,24 23,48 37,71l1 0z"/>
    <path fill="#FDC619" d="M2091 1638l-42 0c12,-23 23,-47 33,-71l40 0c-9,24 -20,48 -31,71zm-284 0l-267 0c-2,-18 12,-38 40,-38l236 0c44,0 78,-13 101,-33l48 0c-3,4 -5,8 -8,12 -21,25 -46,40 -77,49 -22,7 -42,9 -64,9l-9 0 0 1zm-349 0l-38 0c-2,-18 -1,-36 4,-55l4 -14c0,0 1,-1 1,-2l42 0c-9,15 -14,33 -14,53 0,6 0,12 2,18l-1 0zm-138 0l-48 0 0 -71 48 0 0 71zm-314 0l0 -71 0 71zm-253 0l0 -71 0 71zm-203 0l-42 0c-12,-23 -22,-47 -31,-71l40 0c10,24 21,48 33,71z"/>
    <path fill="#FDC619" d="M2108 1603l-41 0c11,-23 20,-47 28,-71l40 0c-8,24 -18,48 -28,71zm-175 0l-368 0c4,-2 10,-3 16,-3l236 0c58,0 99,-23 118,-53 3,-5 6,-10 8,-15l41 0c-7,17 -15,33 -26,47 -8,9 -16,17 -24,23l0 1zm-474 0l-38 0c1,-7 2,-13 3,-20l4 -14c6,-14 13,-26 23,-37l59 0c-28,14 -47,38 -52,71zm-138 0l-48 0 0 -71 48 0 0 71zm-314 0l0 -71 0 71zm-253 0l0 -71 0 71zm-220 0l-41 0c-10,-23 -19,-47 -28,-71l40 0c8,24 18,48 28,71z"/>
    <path fill="#FDC619" d="M2122 1567l-40 0c9,-23 18,-47 25,-71l39 0c-7,24 -15,48 -24,71zm-157 0l-48 0c7,-6 13,-13 17,-20 10,-16 18,-33 22,-51l38 0 -2 7c-6,23 -15,44 -28,64l1 0zm-494 0l-42 0c10,-23 23,-40 43,-56 8,-6 17,-11 25,-15l338 0c-5,11 -18,20 -36,20l-218 0c-51,0 -90,18 -109,51l-1 0zm-150 0l-48 0 0 -71 48 0 0 71zm-314 0l0 -211 15 106 -15 105zm-253 0l0 -71 17 -144 -17 214 0 1zm-235 0l-40 0c-9,-23 -17,-47 -24,-71l39 0c8,24 16,48 25,71z"/>
    <path fill="#FDC619" d="M2135 1532l-40 0c8,-23 16,-47 22,-71l38 0c-6,24 -13,48 -21,71l1 0zm-152 0l-41 0c11,-23 18,-47 18,-71l38 0c0,8 -2,18 -3,27l-3 15c-3,10 -6,19 -9,29zm-473 0l-59 0c6,-8 13,-14 22,-21 20,-14 41,-23 64,-28 -23,-4 -45,-12 -66,-23l358 0c18,18 8,55 -31,55l-218 0c-28,0 -51,5 -71,15l2 1zm-189 0l-48 0 0 -71 48 0 0 71zm-314 0l0 -71 0 71zm-237 9l-33 43 -2 -203 35 75 -2 85 1 0zm-265 -9l-40 0c-8,-23 -15,-47 -20,-71l38 0c7,24 13,48 22,71z"/>
    <path fill="#FDC619" d="M2146 1497l-39 0c7,-23 13,-47 18,-71l38 0c-5,24 -11,48 -18,71zm-153 0l-38 0c6,-23 8,-48 3,-71l38 0 0 0c3,22 3,41 -1,62l-2 8 -1 1zm-159 0l-338 0c13,-6 25,-10 40,-13 -30,-5 -56,-16 -82,-32 -9,-7 -18,-13 -26,-20 -3,-2 -4,-4 -7,-6l62 0c27,15 60,24 100,24l214 0c34,0 45,27 36,47zm-514 0l-48 0 0 -71 48 0 0 71zm-314 0l0 -71 0 71zm-253 0l0 -71 0 71zm-260 0l-39 0c-7,-23 -13,-47 -18,-71l38 0c5,24 12,48 18,71z"/>
    <path fill="#FDC619" d="M2155 1462l-38 0c6,-23 11,-47 15,-71l38 0c-4,24 -9,48 -15,71zm-158 0l-38 0c2,-25 -3,-49 -14,-71l41 0c4,11 7,23 9,36 2,12 2,23 2,35zm-169 0l-358 0c-5,-3 -11,-6 -17,-9 -9,-7 -18,-13 -26,-20 -14,-13 -25,-26 -36,-42l47 0c31,35 79,59 144,59l214 0c14,0 24,4 31,11l0 1zm-508 0l-48 0 0 -71 48 0 0 71zm-314 0l0 -71 13 -5 -13 75 0 1zm-234 0l-19 0 0 -71 18 0 1 71zm-289 0l-38 0c-6,-23 -11,-47 -15,-71l38 0c4,24 9,48 15,71z"/>
    <path fill="#FDC619" d="M2163 1426l-38 0c5,-23 9,-47 12,-71l38 0c-3,24 -7,48 -11,71zm-167 0l-38 0c-4,-24 -16,-48 -33,-66 -2,-2 -3,-3 -5,-4l49 0c14,22 23,44 28,71l0 -1zm-513 0l-62 0c-13,-13 -23,-27 -33,-43l-9 -18c-2,-4 -3,-8 -5,-11l42 0c15,28 38,53 68,71l-1 0zm-163 0l-48 0 0 -56 -252 0 1 56 -16 0 0 -71 314 0 0 15 0 56 1 0zm-586 183l1 -219 -270 -21c3,18 6,38 10,56l-38 0c-5,-23 -8,-47 -12,-71l345 0 -36 254 0 1z"/>
    <path fill="#FDC619" d="M2170 1391l-38 0c4,-23 7,-47 9,-70l38 0c-2,23 -5,47 -8,70zm-183 0l-41 0c-6,-11 -13,-22 -22,-31 -13,-13 -36,-31 -66,-39l78 0c4,3 9,8 13,11 5,5 9,10 13,15 11,14 18,28 24,44l1 0zm-548 0l-47 0c-2,-3 -3,-4 -4,-7l-9 -18c-7,-16 -12,-31 -16,-46l38 0c7,25 19,49 38,70l-1 0zm-119 0l-48 0 -1 0 -249 0 -34 -1 -1 -36 283 0 10 -34 39 0 0 15 0 35 0 21 1 0zm-549 1l-18 0 -285 0 -38 -1c-4,-23 -7,-47 -8,-70l38 0c0,5 3,32 3,36l0 -1 309 -2 0 38z"/>
    <path fill="#FDC619" d="M2175 1356l-38 0c3,-23 5,-47 6,-70l38 0c-1,23 -3,47 -6,70zm-206 0l-49 0c-21,-20 -58,-43 -108,-42l-233 0c-26,0 -40,-13 -43,-29l335 0c29,9 56,25 78,46 5,5 9,10 13,15 3,3 4,6 7,9l0 1zm-553 0l-42 0c-8,-21 -13,-41 -16,-63l0 -7 38 0c2,23 8,48 20,70zm-95 0l-314 0 266 -1 1 -70 48 1 0 50 0 20zm-533 0l-363 0c-3,-23 -4,-47 -5,-70l38 0c1,17 4,55 6,71l325 -1 -1 0z"/>
    <path fill="#FDC619" d="M2178 1321l-38 0c2,-23 3,-47 3,-71l38 0c0,23 -2,47 -3,71zm-242 0l-78 0c-14,-4 -29,-7 -47,-7l-233 0c-48,0 -57,-48 -24,-64l401 0c-8,4 -15,8 -23,12l-26 10c-17,5 -33,8 -51,10 29,6 56,20 79,39zm-535 0l-38 0c-2,-9 -3,-18 -4,-28l-1 -18c0,-8 1,-16 2,-23l38 0c-2,8 -3,16 -3,23 0,15 2,31 6,47l1 0zm-82 0l-39 0 0 -71 39 0 0 71zm-861 0l-38 0c-2,-23 -3,-47 -3,-71l38 0c0,23 2,47 3,71l-1 0z"/>
    <path fill="#FDC619" d="M2180 1285l-38 0c1,-12 1,-23 1,-35 0,-12 0,-24 -1,-35l38 0c1,12 1,23 1,35 0,12 0,23 -1,35zm-308 0l-335 0c-3,-19 11,-41 44,-41l257 0c40,0 75,-11 105,-30l61 0c-11,10 -22,18 -34,28 -12,7 -23,13 -35,19l-26 10c-17,5 -33,8 -51,10 5,1 10,3 15,4l-1 0zm-476 0l-38 0 0 -12c1,-21 4,-40 10,-58l40 0c-8,18 -13,38 -13,59 0,4 0,8 0,12l0 -1zm-76 0l-48 0 1 -71 48 0 0 71zm-863 0l-38 0c-1,-12 -1,-23 -1,-35 0,-12 0,-24 1,-35l38 0c-1,12 -1,23 -1,35 0,12 0,23 1,35z"/>
    <path fill="#FDC619" d="M2182 1250l-38 0c0,-24 -1,-48 -3,-71l38 0c2,23 3,47 3,71zm-225 0l-401 0c7,-3 15,-5 25,-5l257 0c61,0 111,-27 148,-65l48 0c-8,10 -16,20 -25,29 -13,13 -26,23 -41,33 -4,3 -8,5 -13,8l1 0zm-558 0l-38 0c3,-18 7,-33 14,-51 3,-7 7,-13 10,-20l45 0c-16,21 -27,45 -31,71l-1 0zm-78 0l-48 0 0 -71 48 1 0 71 0 -1zm-864 0l-38 0c0,-24 1,-48 3,-71l38 0c-2,23 -3,47 -3,71l1 0z"/>
    <path fill="#FDC619" d="M1312 1357l-39 0 0 -214 39 0 0 214zm-863 0l-14 -2c1,-73 -8,-142 -6,-213l25 0c-3,71 -5,142 -6,214l1 0z"/>
    <path fill="#FDC619" d="M2178 1180l-38 0c-2,-24 -5,-48 -9,-71l38 0c4,23 7,47 8,71zm-144 0l-48 0c20,-21 36,-45 48,-71l40 0c-2,5 -4,11 -7,16 -5,12 -12,23 -18,33 -5,8 -10,14 -15,22zm-606 0l-45 0c1,-2 2,-3 3,-5 10,-16 21,-29 34,-43l-8 1 -9 0 -8 -3 -8 -3 -8 -5 -7 -7 -3 -5 441 0c-5,3 -12,3 -18,3l-240 0c-50,0 -96,28 -125,67l1 -1zm-108 0l-48 0 0 -67c-92,0 -174,0 -266,0l0 -4 314 0 0 4 0 67zm-861 0l-38 0c2,-24 5,-48 8,-71l348 -1c0,8 -263,5 -311,5 -4,22 -7,44 -8,67z"/>
    <path fill="#FDC619" d="M2175 1144l-38 0c-3,-24 -8,-48 -12,-71l38 0c4,23 8,47 11,71zm-118 0l-43 0c15,-23 25,-47 33,-71l38 0c-5,18 -11,34 -18,51 -3,7 -7,13 -10,19l1 1zm-593 0l-54 0c4,-4 8,-9 12,-13l-8 1 -9 0 -8 -3 -8 -3 -8 -5 -7 -7 -4 -8 -3 -8 -2 -8 0 -9 2 -6 48 0 -8 6c-3,3 -4,8 -2,12 3,4 8,4 12,2l26 -19 63 0 -22 16c24,-8 47,-9 70,-10 23,-1 193,2 238,-1 6,0 8,-2 8,-4l38 -1c-2,20 -16,38 -43,38l-240 0c-33,0 -64,12 -90,32l2 0zm-143 0l-39 0 0 -31c-92,0 -183,0 -275,0l0 -39 16 0 0 6 250 1 0 -6 48 0 0 6 0 33 0 31 0 -1zm-858 0l-38 0c3,-24 7,-48 12,-71l39 -1c-3,18 461,-33 -8,40 -2,10 -3,21 -5,31l-1 1z"/>
    <path fill="#FDC619" d="M2170 1109l-38 0c-4,-24 -9,-48 -15,-71l38 0c6,23 11,47 15,71zm-96 0l-40 0c10,-23 18,-47 20,-71l38 0c-2,9 -3,18 -4,28 -4,15 -8,29 -13,43l0 1zm-262 0l-441 0 -2 -3 -3 -8 -2 -8 0 -9 3 -8 4 -8 5 -8 23 -18 63 0 -56 42c-3,3 -4,8 -2,12 3,4 8,4 12,2l73 -55 334 0c21,20 17,58 -12,71l1 0zm-493 33l-327 0 13 -104 37 66 -1 -1 230 0 1 -65 48 0 0 42 0 63 -1 0zm-542 -2l-349 0c4,-24 10,-79 16,-102l-13 64c-3,13 40,-13 37,1l269 1 -3 -86 44 13 -1 108zm744 -78l-41 28c23,-9 48,-12 72,-13l243 0c3,0 3,-4 4,-8 0,-7 -3,-8 -9,-8l-268 0 0 1z"/>
    <path fill="#FDC619" d="M2163 1074l-38 0c-5,-24 -12,-48 -18,-71l39 0c7,23 13,47 18,71zm-78 0l-38 0c7,-23 10,-45 9,-67 0,-2 0,-3 0,-4l38 0c0,9 0,18 -1,28 -2,12 -3,24 -5,36 -1,3 -2,5 -2,8l-1 0zm-248 0l-37 1c1,0 0,-3 0,-4 0,-7 -3,-9 -9,-9l-272 0 -15 12 -63 0 51 -38c0,-11 2,-22 4,-33l78 0c-4,7 -8,15 -11,23l228 0c32,0 47,24 45,48l0 1zm-422 0l-48 0 1 -3 4 -8 5 -8 55 -43c-2,-3 -4,-5 -6,-8 -19,17 -44,23 -68,18 -15,-3 -28,-10 -38,-20l0 70 -48 0 0 -71 199 0c5,7 10,12 15,18l-72 53 1 2zm-393 0l-16 0 0 -71 16 0 1 71 -1 0zm-252 27l-37 28 41 -125c0,24 -4,74 -4,98zm-296 -27l-38 0c5,-24 11,-48 18,-71l39 0c-8,23 -13,47 -18,71z"/>
    <path fill="#FDC619" d="M2155 1038l-38 0c-7,-24 -13,-48 -22,-71l40 0c8,23 15,47 21,71l-1 0zm-63 0l-38 0c2,-11 3,-22 2,-32 0,-13 -1,-27 -3,-39l38 0c3,21 3,42 2,63 0,3 -1,5 -1,8zm-268 0l-334 0 3 -3c-1,-23 7,-48 18,-68l265 0c-6,8 -16,13 -29,13l-129 0c-27,0 -44,18 -53,46l228 0c14,0 25,5 33,12zm-362 0l-63 0 33 -25c-2,-3 -4,-5 -6,-8 -19,17 -44,23 -68,18 -15,-3 -28,-10 -38,-20l0 35 -48 0 0 -71 67 0c8,12 21,20 36,20 15,0 28,-8 36,-20l38 0c8,18 23,37 38,52l-24 18 0 1zm-441 -1l-16 1 0 -71 16 1 0 68 0 1zm-539 1l-38 0c6,-24 13,-48 20,-71l40 0c-8,23 -16,47 -22,71z"/>
    <path fill="#FDC619" d="M2146 1003l-39 0c-5,-18 -12,-35 -18,-53 3,18 4,35 5,53l-38 0c-1,-25 -3,-48 -9,-71l75 0c9,23 17,47 24,71zm-570 0l-78 0c6,-24 18,-47 32,-58 -4,-4 -8,-8 -11,-13l262 0c9,20 -2,48 -33,48l-129 0c-18,0 -32,8 -42,23l-1 0zm-110 -7l-193 7 0 -71 62 0c-2,4 -2,8 -2,13 0,23 19,43 43,43 22,0 39,-16 42,-36l48 2 1 43zm-443 7l-16 0 0 -71 16 1 0 70zm-257 -1l-23 5 -3 -78 18 3c0,23 9,46 9,69zm-272 1l-39 0c7,-24 15,-48 24,-71l40 0c-9,23 -18,47 -25,71zm1074 -65l0 22c9,-6 18,-9 29,-12 -11,-2 -20,-5 -29,-10z"/>
    <path fill="#FDC619" d="M2135 968l-40 0c-2,-6 -4,-12 -7,-18 1,6 2,12 3,18l-38 0c-3,-25 -9,-49 -18,-71l72 0c10,23 19,47 28,71zm-359 0l-265 0c5,-9 12,-18 18,-23 -15,-16 -24,-31 -29,-48l76 0c8,8 22,15 45,15l125 0c36,0 46,36 31,55zm-361 -38c-6,-17 -22,-28 -40,-28 -23,0 -43,19 -43,43 0,8 3,16 7,23l-67 0 0 -71 191 0c-8,12 -7,33 -18,33l-31 -1 0 2zm-393 38l-16 -1 0 -71 16 -1 0 72 0 1zm-518 -1l-40 0c8,-24 18,-48 28,-71l41 0c-11,23 -20,47 -28,71z"/>
    <path fill="#FDC619" d="M2122 933l-75 0c-7,-26 -16,-49 -28,-71l73 0c12,23 22,47 31,71zm-343 0l-262 0c-16,-21 -23,-41 -24,-71l68 0c3,16 4,50 58,50l125 0c18,0 29,9 34,20l1 1zm-314 -3l-53 0c-5,-18 -19,-27 -38,-27 -19,0 -36,13 -41,31l-62 0 0 -71 48 0 0 24c8,-8 18,-13 31,-18 28,-8 55,-3 77,16 2,-3 4,-7 6,-9l-17 -13 62 0 9 8c-9,8 -22,11 -22,26l0 33 -1 0zm-443 5l-16 -2 0 -71 16 -3 0 74 0 1zm-268 -2l0 -71 25 0 1 62c0,8 -15,9 -26,9zm-235 0l-40 0c9,-24 20,-48 31,-71l42 0c-12,23 -23,47 -33,71zm1089 -71l74 0c0,0 0,0 0,0l-74 0z"/>
    <path fill="#FDC619" d="M2108 898l-72 0c-11,-27 -25,-50 -43,-71l80 0c13,23 24,47 35,71zm-532 0l-76 0c-3,-13 -5,-27 -6,-43l-36 -28 228 0c-7,12 -5,30 -5,36l-120 0c2,9 3,24 13,35l1 0zm-112 0l-191 0 0 -71 48 0 0 59c8,-8 18,-13 31,-18 28,-8 55,-3 77,16 2,-3 4,-7 6,-9l-54 -43 -4 -7 57 0 56 43c-8,8 -17,18 -24,28l-1 1zm-442 -3l-16 3 0 -71 16 -1 0 68 0 1zm-262 217l4 -35 -28 -253 43 3 0 96 0 112 -18 78 0 -1zm-228 -214l-41 0c11,-24 23,-48 35,-71l43 0c-13,23 -25,47 -37,71l-1 0z"/>
    <path fill="#FDC619" d="M2091 863l-73 0c-17,-28 -39,-52 -67,-71l100 0c14,23 27,47 38,71l1 0zm-392 1l-91 -1 -46 0 -68 0c0,-3 0,-5 0,-8l-75 -58c-3,-3 -8,-3 -12,2 -3,3 -2,8 2,12l69 53 -62 0 -38 -29 -5 -8 -3 -8 -2 -8 0 -8 2 -9 104 0 44 33 0 0 129 0c4,-14 11,-25 22,-33l253 0c-13,13 -33,24 -49,24l-137 0c-30,0 -36,38 -36,47l-3 1zm-378 -1l-48 0 0 -71 48 0 0 71zm-298 -1l-16 1 0 -71 16 0 0 70zm-244 3l-4 243 -40 0 -1 -485 45 168 -1 75 1 0zm-228 -2l-42 0c12,-24 25,-48 38,-71l44 0c-15,23 -28,47 -42,71l1 0z"/>
    <path fill="#FDC619" d="M2073 827l-80 0c-18,-18 -38,-35 -62,-48 -12,18 -39,38 -60,38l-164 0c-11,0 -18,4 -21,11l-228 0 -40 -30c-3,-3 -8,-3 -12,2 -3,3 -2,8 2,12l23 18 -57 0 -1 -1 -3 -8 -2 -8 0 -8 2 -9 3 -8 5 -8 7 -7 8 -5 8 -3 8 -3 9 0 9 2 8 3 84 63 0 0 129 0c5,-20 18,-33 37,-43 8,-3 14,-3 23,-4l164 0c1,0 2,0 3,-1 13,-4 21,-12 28,-22l65 0c3,2 5,3 8,5 11,8 20,16 29,24 -7,-9 -13,-19 -20,-28l46 0c16,23 30,47 43,71l0 -3zm-752 0l-48 0 0 -71 48 0 0 71zm-298 1l-16 -1 0 -71 16 -3 0 74 0 1zm-244 -1l-25 0 0 -71 25 0 0 70 0 1zm-208 0l-43 0c13,-24 28,-48 43,-71l46 0c-17,23 -32,47 -46,71z"/>
    <path fill="#FDC619" d="M1538 725l288 0 -1 30 -287 0 0 -30zm514 67l-100 0c-7,-4 -13,-9 -21,-13 -3,4 -7,8 -11,13l-253 0c4,-3 10,-7 16,-9 8,-3 14,-3 23,-4l164 0c1,0 2,0 3,-1 23,-8 33,-30 45,-49 18,11 38,21 55,32 11,8 20,16 29,24 -15,-22 -31,-43 -47,-64l48 0c18,22 33,47 48,71l1 0zm-578 0l-104 0 3 -8 5 -8 7 -7 8 -5 8 -3 8 -3 9 0 9 2 8 3 40 30 -2 -1zm-153 0l-48 0 0 -71 48 0 0 71zm-314 0l0 -71 15 0 -15 71zm-253 0l0 -71 25 0 1 67c0,6 -14,3 -26,3l0 1zm-161 0l-44 0c15,-24 31,-48 48,-71l48 0c-18,22 -35,47 -51,71l-1 0z"/>
    <path fill="#FDC619" d="M1538 725l288 0 0 30 -288 0 0 -30zm491 32l-46 0c-18,-24 -37,-48 -57,-71l49 0c18,23 37,46 53,71zm-63 0l-65 0c7,-8 12,-18 18,-28 16,9 32,18 48,28zm-646 0l-48 0 0 -71 48 0 0 71zm-298 -1l-16 1 0 -71 16 -1 1 70 -1 1zm-278 77l-12 -232 46 -20 0 72 0 69c0,43 0,63 -34,111zm-128 -76l-46 0c17,-24 35,-48 53,-71l49 0c-20,23 -39,46 -57,71zm922 -60l287 -1 1 -1 -288 1 1 1z"/>
    <path fill="#FDC619" d="M2004 721l-48 0c-20,-24 -41,-48 -63,-71l52 0c21,23 41,46 59,71zm-683 0l-48 0 0 -71 48 0 0 71zm-298 0l-16 0 0 -71 16 -1 0 71 0 1zm-262 4l-27 3 0 -103c28,4 33,-8 33,-3l-6 104 0 -1zm-117 -4l-48 0c18,-24 38,-48 59,-71l52 0c-23,23 -44,46 -63,71zm1183 -52l0 28 -288 -1 0 -28 288 1z"/>
    <path fill="#FDC619" d="M1976 686l-49 0c-21,-21 -47,-47 -69,-68 -4,-4 20,-3 53,-3 23,23 45,46 66,71zm-656 0l-48 0 0 -71 48 0 0 71zm-298 1l-16 -1 0 -71 16 1 0 71zm-244 -1l-43 0 0 -87 44 15 -1 72zm-104 0l-49 0c21,-24 43,-48 66,-71l56 0c-25,23 -49,46 -72,71l-1 0z"/>
    <path fill="#FDC619" d="M1945 651l-52 0c-25,-25 -53,-48 -81,-71l59 0c26,23 51,46 73,71zm-180 -47c37,0 28,0 64,0 138,0 -208,0 -64,0zm-444 47l-48 0 0 -71 48 0 0 71zm-298 2l-16 -2 0 -71 16 -1 -1 73 1 1zm-286 -28l-28 27 -52 0c23,-25 48,-48 73,-71l59 0c0,0 -1,0 -1,1 -25,16 -14,-15 -52,43z"/>
    <path fill="#FDC619" d="M1911 615l-56 0c-29,-25 -60,-49 -93,-71l65 0c29,22 57,45 83,71l1 0zm-590 0l-48 0 0 -71 48 0 0 71zm-299 2l-15 -2 0 -71 13 23 2 50zm-243 3l-26 -5 0 -8c-3,3 -6,5 -8,8l-56 0c26,-25 53,-48 83,-71l65 0c-18,12 -34,23 -50,36 -3,3 -8,6 -8,8l0 32 1 1z"/>
    <path fill="#FDC619" d="M1872 580l-59 0c-34,-26 -70,-49 -108,-71l73 0c33,22 64,45 94,71zm-551 0l-48 0 0 -71 48 0 0 71zm-298 1l-16 -1 0 -71 10 73 6 -3 0 1zm-234 -1l-59 0c30,-25 62,-49 94,-71l73 0c-38,21 -74,44 -108,71z"/>
    <path fill="#FDC619" d="M1828 545l-65 0c-42,-27 -85,-51 -131,-71l86 0c38,21 75,44 110,71zm-508 0l-48 0 0 -71 48 0 0 71zm-298 46l-16 -46 0 -71 17 3 -1 113 0 1zm-185 -46l-65 0c35,-26 72,-49 110,-71l86 0c-46,20 -89,43 -131,71z"/>
    <path fill="#FDC619" d="M1778 510l-73 0c-53,-29 -111,-53 -171,-71l112 0c47,20 91,43 133,71zm-457 0l-48 0 0 -71 48 0 0 71zm-298 -35l-16 35 0 -51c-38,14 -75,31 -111,51l-73 0c42,-27 86,-51 133,-71l111 0c-8,3 -35,9 -43,13l-1 23 1 0z"/>
    <path fill="#FDC619" d="M1718 474l-86 0c-96,-42 -201,-66 -311,-68l0 68 -48 0 0 -68c-80,3 -158,16 -231,40l-18 7 -4 689 -31 0 -1 -676c0,-7 -13,5 -19,8l-86 0c54,-29 112,-53 171,-71l493 0c60,18 118,42 172,71z"/>
    <path fill="#FDC619" d="M1645 439l-112 0c-68,-20 -139,-31 -213,-33l0 33 -48 0 0 -33c-71,3 -140,13 -206,33l-111 0c106,-45 223,-71 345,-71 122,0 238,25 344,71z"/>
    <path fill="#FDC619" d="M1547 404l-493 0c78,-23 162,-35 247,-35 85,0 168,13 246,35z"/>
    <path fill="#FBC90B" d="M1300 63c654,0 1188,534 1188,1188 0,654 -533,1188 -1188,1188 -654,0 -1188,-533 -1188,-1188 0,-654 533,-1188 1188,-1188zm0 -63c-688,0 -1250,562 -1250,1250 0,688 562,1250 1250,1250 688,0 1250,-562 1250,-1250 0,-688 -562,-1250 -1250,-1250z"/>
    <path fill="#FCC519" d="M233 1183l71 -20 -3 50 -67 -29 -1 -1zm-63 -36l-3 63 209 97 3 -60 -35 -18 5 -77 38 -12 3 -62 -220 69 0 -1z"/>
    <path fill="#FDC619" d="M1555 601c16,0 29,13 29,29 0,16 -13,29 -29,29 -16,0 -29,-13 -29,-29 0,-16 13,-29 29,-29z"/>
    <path fill="#FDC619" d="M1621 601c16,0 29,13 29,29 0,16 -13,29 -29,29 -16,0 -29,-13 -29,-29 0,-16 13,-29 29,-29z"/>
    <path fill="#FDC619" d="M1685 601c16,0 29,13 29,29 0,16 -13,29 -29,29 -16,0 -29,-13 -29,-29 0,-16 13,-29 29,-29z"/>
    <path fill="#FDC619" d="M1750 600c16,0 29,13 29,29 0,16 -13,29 -29,29 -16,0 -29,-13 -29,-29 0,-16 13,-29 29,-29z"/>
    <path fill="#FDC619" d="M1816 600c16,0 29,13 29,29 0,16 -13,29 -29,29 -16,0 -29,-13 -29,-29 0,-16 13,-29 29,-29z"/>
    <path fill="#FEFEFE" d="M734 1107l-265 0c-2,0 3,-16 7,-34 0,0 259,-64 259,0l0 34 -1 0z"/>
    <path fill="#FEFEFE" d="M1273 1056l0 52c0,0 0,-1 0,-1l-250 0 0 -52 250 1z"/>
    <path fill="#FDC619" d="M1976 1814l-49 0c20,-23 39,-46 57,-71l46 0c-17,24 -34,48 -53,71zm-129 0l-68 0c25,-5 41,-19 48,-43 3,-9 4,-18 5,-28l38 0c-1,20 -5,40 -15,58 -3,4 -5,9 -8,13l1 1zm-256 0l-41 0c2,-4 3,-8 4,-11 10,-19 25,-36 45,-43l-29 -1c-27,-1 -50,-5 -73,-15l278 0c9,21 -4,48 -40,48l-105 0c-17,0 -31,9 -38,23l0 -1zm-271 0l-48 0 0 -71 48 0 0 71zm-314 0l0 -71 0 71zm-272 0l0 -56 0 56zm-61 0l-50 0c-18,-23 -37,-46 -53,-71l46 0c18,24 37,48 58,71z"/>
    <polygon fill="#FDC619" points="979,464 992,464 992,1143 979,1143 "/>
    <polygon fill="#FDC619" points="978,1355 1022,1355 1022,2049 978,2049 "/>
    <polygon fill="#FDC619" points="456,1136 1280,1136 1280,1151 456,1151 "/>
    <polygon fill="#FDC619" points="448,1342 1273,1342 1273,1357 448,1357 "/>
    <polygon fill="#9D122D" points="779,1363 978,1363 978,1343 977,1153 979,1152 979,1118 779,1118 778,1136 778,1152 "/>
    <path fill="#016637" d="M1755 1937c10,-38 -28,-43 -48,-43l-73 0c-35,0 -50,-23 -50,-51 0,-28 20,-52 47,-52l105 0c58,0 57,-71 -2,-71l-155 0c-78,0 -123,-36 -123,-101 0,-64 49,-103 124,-104l218 0c51,0 53,-67 0,-67l-214 0c-130,-1 -189,-96 -188,-177 1,-81 73,-161 158,-161l240 0c58,0 58,-86 -3,-86l-228 0c9,-28 27,-46 53,-46l129 0c48,0 48,-68 -2,-68l-125 0c-55,0 -56,-34 -58,-50l137 0c0,-8 3,-47 33,-47l138 0c21,0 48,-18 60,-38 80,44 123,122 125,228 2,107 -83,238 -218,238l-257 0c-59,0 -59,69 -1,69l233 0c54,-2 93,26 113,46 48,50 45,128 8,187 -18,30 -59,53 -118,53l-236 0c-53,0 -53,68 1,68l186 0c32,0 44,13 53,28 12,18 16,45 8,74 -9,31 -32,45 -69,45l-108 0c-45,0 -44,59 1,59l85 0c41,-1 61,43 20,62l0 2z"/>
    <polygon fill="#9D122D" points="1827,697 1827,724 1538,725 1538,697 "/>
    <path fill="#9D122D" d="M1410 917c16,11 38,13 55,2l0 -33c0,-3 0,-7 1,-10 1,-11 0,-21 -7,-28l-56 -42c-3,-9 2,-14 13,-13l79 59c1,52 33,81 53,93 -28,17 -49,50 -56,93l-77 58c-12,1 -16,-4 -11,-16l55 -42c7,-6 6,-15 6,-28 0,-3 0,-5 0,-8l0 -33c-14,-8 -36,-8 -53,0 -24,33 -82,15 -80,-24 -4,-35 44,-65 78,-30l-1 0z"/>
   </g>
  </g>
 </g>
</svg>
