

<!-- Creator: CorelDRAW X6 -->
<svg xmlns="http://www.w3.org/2000/svg" x="0" y="0" xml:space="preserve" width="24mm" height="25mm" version="1.1" shape-rendering="geometricPrecision" text-rendering="geometricPrecision" image-rendering="optimizeQuality" fill-rule="evenodd" clip-rule="evenodd"
viewBox="0 0 2400 2500"
 xmlns:xlink="http://www.w3.org/1999/xlink"
 enable-background="new 0 0 912.7 290.1">
 <g id="Layer_x0020_1">
  <metadata id="CorelCorpID_0Corel-Layer"/>
 </g>
 <g id="Layer_x0020_1_0">
  <metadata id="CorelCorpID_1Corel-Layer"/>
 </g>
 <g id="Layer_x0020_1_0_1">
  <metadata id="CorelCorpID_2Corel-Layer"/>
 </g>
 <g id="Layer_x0020_1_0_2">
  <metadata id="CorelCorpID_3Corel-Layer"/>
 </g>
 <g id="Layer_x0020_1_3">
  <metadata id="CorelCorpID_4Corel-Layer"/>
 </g>
 <g id="Layer_x0020_1_0_4">
  <metadata id="CorelCorpID_5Corel-Layer"/>
 </g>
 <g id="Layer_x0020_1_0_5">
  <metadata id="CorelCorpID_6Corel-Layer"/>
 </g>
 <g id="Layer_x0020_1_0_6">
  <metadata id="CorelCorpID_7Corel-Layer"/>
 </g>
 <g id="Layer_x0020_1_0_7">
  <metadata id="CorelCorpID_8Corel-Layer"/>
 </g>
 <g id="Layer_x0020_1_0_2_8">
  <metadata id="CorelCorpID_9Corel-Layer"/>
 </g>
 <g id="Layer_x0020_1_0_2_8_9">
  <metadata id="CorelCorpID_10Corel-Layer"/>
 </g>
 <g id="Layer_x0020_1_0_10">
  <metadata id="CorelCorpID_11Corel-Layer"/>
 </g>
 <g id="Layer_x0020_1_1">
  <metadata id="CorelCorpID_12Corel-Layer"/>
 </g>
 <g id="Layer_x0020_1_11">
  <metadata id="CorelCorpID_13Corel-Layer"/>
 </g>
 <g id="Layer_x0020_1_12">
  <metadata id="CorelCorpID_14Corel-Layer"/>
  <path fill="#E22B28" d="M1957 31c-123,-13 -450,-31 -758,-31 -308,0 -633,18 -758,31 -141,14 -207,86 -207,226 0,265 10,678 28,920 16,216 29,387 298,550 192,117 384,218 633,346l4 3 4 -3c250,-129 442,-229 633,-346 269,-163 282,-334 298,-550 18,-243 28,-656 28,-920 0,-139 -66,-211 -207,-226l1 0zm95 1140c-15,207 -26,343 -258,485 -183,111 -343,195 -586,322l-8 4 -8 -4c-235,-122 -403,-210 -586,-322 -233,-141 -243,-278 -258,-485 -18,-241 -28,-651 -28,-914 0,-97 33,-132 131,-142 123,-12 445,-30 749,-30 304,0 627,18 749,30 98,10 131,46 131,142 0,263 -10,673 -28,914l-2 0z"/>
  <path fill="#E22B28" d="M1187 620l-29 98c-105,-215 -230,-328 -383,-328 -164,0 -244,110 -268,144 43,-106 153,-199 302,-199 203,0 318,160 378,284l1 1z"/>
  <path fill="#E22B28" d="M426 840c2,358 105,529 261,529 72,0 123,-45 123,-119 0,-63 -28,-113 -38,-133 4,21 8,44 8,70 0,62 -42,82 -76,82 -103,0 -207,-201 -236,-430 -13,0 -43,0 -43,0l0 1z"/>
  <path fill="#E22B28" d="M1590 336c148,0 259,93 302,199 -23,-35 -104,-144 -268,-144 -152,0 -277,113 -382,328l-29 -98c60,-124 175,-284 378,-284l0 -1z"/>
  <path fill="#E22B28" d="M1931 840c-29,229 -133,430 -236,430 -34,0 -76,-20 -76,-82 0,-27 3,-50 8,-70 -11,20 -38,70 -38,133 0,73 52,119 123,119 155,0 259,-172 261,-529 1,0 -29,0 -43,0l1 -1z"/>
  <path fill="#E22B28" d="M1720 533c-133,0 -263,106 -340,350l50 35 -24 120 -94 39 -17 118 46 -56 49 -20 -15 76 -84 35 -30 204 21 65 -82 33 -82 -33 21 -65 -30 -204 -85 -35 -15 -76 49 20 46 56 -18 -118 -93 -39 -24 -120 50 -35c-77,-244 -207,-350 -340,-350 -164,0 -232,156 -223,284l39 0c33,182 125,335 194,335 21,0 33,-16 33,-43 0,-64 -43,-131 -43,-253 0,-57 18,-92 61,-92 29,0 53,30 67,63 -26,92 -22,168 51,201 36,16 79,35 79,35 0,0 47,196 50,210 3,13 11,30 17,41 8,15 69,119 69,119 0,0 21,104 25,126 12,59 54,59 103,59 48,0 90,0 103,-59 4,-22 25,-126 25,-126 0,0 61,-104 69,-119 6,-11 13,-28 17,-41 3,-14 50,-210 50,-210 0,0 43,-19 80,-35 73,-33 77,-109 51,-201 14,-33 38,-63 67,-63 43,0 61,35 61,92 0,123 -43,189 -43,253 0,27 11,43 33,43 69,0 162,-153 195,-335l39 0c9,-128 -59,-284 -223,-284l-1 0zm-834 460c-52,-22 -57,-83 -40,-164l57 89 21 92c0,0 -21,-9 -38,-16l0 -1zm628 0c-18,8 -38,16 -38,16l21 -92 57 -89c18,82 12,143 -39,164l0 1z"/>
  <path fill="#FEFEFE" d="M1088 2343l0 98c0,0 100,0 133,0 74,0 102,-30 102,-71 0,-27 -13,-70 -101,-70 -31,0 -226,0 -226,0l0 -55c0,0 153,0 236,0 150,0 185,63 185,126 0,74 -50,126 -185,126 -83,0 -235,0 -235,0l0 -153 91 0 0 -1z"/>
  <path fill="#FEFEFE" d="M89 2343l0 98c0,0 100,0 134,0 74,0 102,-30 102,-71 0,-27 -13,-70 -101,-70 -31,0 -226,0 -226,0l0 -55c0,0 153,0 236,0 150,0 185,63 185,126 0,74 -51,126 -185,126 -83,0 -235,0 -235,0l0 -153 91 0 -1 -1z"/>
  <path fill="#FEFEFE" d="M1686 2343l0 56 133 0 0 43c0,0 -99,0 -133,0 -75,0 -103,-30 -103,-71 0,-46 38,-70 98,-70 31,0 228,0 228,0l0 -55c0,0 -149,0 -233,0 -119,0 -188,38 -188,126 0,86 67,126 185,126 83,0 236,0 236,0l0 -154 -224 0z"/>
  <polygon fill="#FEFEFE" points="2113,2299 2398,2299 2398,2244 2016,2244 2016,2496 2402,2496 2402,2441 2113,2441 2113,2398 2383,2398 2383,2343 2113,2343 "/>
  <path fill="#FEFEFE" d="M705 2500c-155,0 -214,-51 -214,-130 0,-78 61,-130 214,-130 153,0 214,51 214,130 0,79 -61,130 -214,130zm120 -130c0,-43 -42,-74 -120,-74 -79,0 -120,32 -120,74 0,41 37,74 120,74 84,0 120,-33 120,-74z"/>
 </g>
</svg>
